  0
SECTION
  2
HEADER
  9
$ANGBASE
  50
0.0
  9
$ANGDIR
  70
1
  9
$MEASUREMENT
  70
1
  0
ENDSEC
  0
SECTION
  2
TABLES
  0
TABLE
  2
LTYPE
  70
4
  0
LTYPE
  5
40F
  2
CONTINUOUS
  70
0
  3
Solid line
  72
65
  73
0
  40
0.0
  0
LTYPE
  5
410
  2
DASHDOT
 70
0
  3
Dash Dot ____ _ ____ _
 72
65
 73
4
 40
2.0
 49
1.25
 49
-0.25
 49
0.25
 49
-0.25
  0
LTYPE
  5
411
  2
DASHED
 70
0
  3
Dashed __ __ __ __ __
 72
65
 73
2
 40
0.75
 49
0.5
 49
-0.25
  0
LTYPE
  5
43B
  2
DOTTED
 70
0
  3
Dotted .  .  .  .
 72
65
 73
2
 40
0.2
 49
0.0
 49
-0.2
  0
ENDTAB
  0
TABLE
  2
STYLE
  70
4
  0
STYLE
  2
KICAD
  70
0
  40
0
  41
1
  42
1
  50
0
  71
0
  3
isocp.shx
  0
STYLE
  2
KICADB
  70
0
  40
0
  41
1
  42
1
  50
0
  71
0
  3
isocp.shx
  0
STYLE
  2
KICADI
  70
0
  40
0
  41
1
  42
1
  50
15
  71
0
  3
isocp.shx
  0
STYLE
  2
KICADBI
  70
0
  40
0
  41
1
  42
1
  50
15
  71
0
  3
isocp.shx
  0
ENDTAB
  0
TABLE
  2
LAYER
  70
1
  0
LAYER
  2
BLACK
  70
0
  62
7
  6
CONTINUOUS
  0
ENDTAB
  0
ENDSEC
  0
SECTION
  2
ENTITIES
0
ARC
8
BLACK
10
43.0343
20
-40.0299
40
2.62549
50
69.9674
51
159.963
0
CIRCLE
8
BLACK
10
248.306
20
-85.7852
40
0.707863
0
CIRCLE
8
BLACK
10
245.16
20
-77.1467
40
0.707863
0
LINE
8
BLACK
6
CONTINUOUS
10
128.459
20
-54.6458
11
140.559
21
-64.8458
0
LINE
8
BLACK
6
CONTINUOUS
10
155.527
20
-64.4833
11
152.577
21
-67.9878
0
LINE
8
BLACK
6
CONTINUOUS
10
187.64
20
-42.15
11
177.44
21
-45.85
0
CIRCLE
8
BLACK
10
246.306
20
-86.5852
40
0.707863
0
ARC
8
BLACK
10
146.644
20
-69.5985
40
0.284156
50
-128.049
51
-38
0
LINE
8
BLACK
6
CONTINUOUS
10
104.96
20
-42.15
11
103.855
21
-41.8179
0
LINE
8
BLACK
6
CONTINUOUS
10
103.855
20
-41.8179
11
102.684
21
-41.5501
0
LINE
8
BLACK
6
CONTINUOUS
10
102.684
20
-41.5501
11
101.451
21
-41.3423
0
LINE
8
BLACK
6
CONTINUOUS
10
101.451
20
-41.3423
11
100.161
21
-41.1902
0
LINE
8
BLACK
6
CONTINUOUS
10
100.161
20
-41.1902
11
98.8167
21
-41.0895
0
LINE
8
BLACK
6
CONTINUOUS
10
98.8167
20
-41.0895
11
97.4236
21
-41.036
0
LINE
8
BLACK
6
CONTINUOUS
10
97.4236
20
-41.036
11
95.9853
21
-41.0253
0
LINE
8
BLACK
6
CONTINUOUS
10
95.9853
20
-41.0253
11
94.5062
21
-41.0531
0
LINE
8
BLACK
6
CONTINUOUS
10
94.5062
20
-41.0531
11
92.9905
21
-41.1153
0
LINE
8
BLACK
6
CONTINUOUS
10
92.9905
20
-41.1153
11
91.4422
21
-41.2074
0
LINE
8
BLACK
6
CONTINUOUS
10
91.4422
20
-41.2074
11
89.8657
21
-41.3252
0
LINE
8
BLACK
6
CONTINUOUS
10
89.8657
20
-41.3252
11
88.265
21
-41.4645
0
LINE
8
BLACK
6
CONTINUOUS
10
88.265
20
-41.4645
11
86.6444
21
-41.6208
0
LINE
8
BLACK
6
CONTINUOUS
10
86.6444
20
-41.6208
11
85.0081
21
-41.7901
0
LINE
8
BLACK
6
CONTINUOUS
10
85.0081
20
-41.7901
11
83.3602
21
-41.9679
0
LINE
8
BLACK
6
CONTINUOUS
10
83.3602
20
-41.9679
11
81.705
21
-42.15
0
LINE
8
BLACK
6
CONTINUOUS
10
81.705
20
-42.15
11
80.0466
21
-42.3321
0
LINE
8
BLACK
6
CONTINUOUS
10
80.0466
20
-42.3321
11
78.3893
21
-42.5099
0
LINE
8
BLACK
6
CONTINUOUS
10
78.3893
20
-42.5099
11
76.7371
21
-42.6792
0
LINE
8
BLACK
6
CONTINUOUS
10
76.7371
20
-42.6792
11
75.0944
21
-42.8355
0
LINE
8
BLACK
6
CONTINUOUS
10
75.0944
20
-42.8355
11
73.4652
21
-42.9748
0
LINE
8
BLACK
6
CONTINUOUS
10
73.4652
20
-42.9748
11
71.8539
21
-43.0926
0
LINE
8
BLACK
6
CONTINUOUS
10
71.8539
20
-43.0926
11
70.2645
21
-43.1847
0
LINE
8
BLACK
6
CONTINUOUS
10
70.2645
20
-43.1847
11
68.7013
21
-43.2469
0
LINE
8
BLACK
6
CONTINUOUS
10
68.7013
20
-43.2469
11
67.1684
21
-43.2747
0
LINE
8
BLACK
6
CONTINUOUS
10
67.1684
20
-43.2747
11
65.67
21
-43.264
0
LINE
8
BLACK
6
CONTINUOUS
10
65.67
20
-43.264
11
64.2104
21
-43.2105
0
LINE
8
BLACK
6
CONTINUOUS
10
64.2104
20
-43.2105
11
62.7937
21
-43.1098
0
LINE
8
BLACK
6
CONTINUOUS
10
62.7937
20
-43.1098
11
61.4242
21
-42.9577
0
LINE
8
BLACK
6
CONTINUOUS
10
61.4242
20
-42.9577
11
60.1059
21
-42.7499
0
LINE
8
BLACK
6
CONTINUOUS
10
60.1059
20
-42.7499
11
58.8431
21
-42.4821
0
LINE
8
BLACK
6
CONTINUOUS
10
58.8431
20
-42.4821
11
57.64
21
-42.15
0
CIRCLE
8
BLACK
10
158.14
20
-62.45
40
2.4
0
LINE
8
BLACK
6
CONTINUOUS
10
140.559
20
-64.8458
11
146.469
21
-69.8223
0
LINE
8
BLACK
6
CONTINUOUS
10
54.6394
20
-102.275
11
24.3199
21
-91.1884
0
LINE
8
BLACK
6
CONTINUOUS
10
252.032
20
-39.1303
11
269.847
21
-87.8225
0
CIRCLE
8
BLACK
10
243.161
20
-77.8989
40
0.707863
0
CIRCLE
8
BLACK
10
239.356
20
-61.0936
40
0.707863
0
LINE
8
BLACK
6
CONTINUOUS
10
64.76
20
-102.45
11
64.4387
21
-102.35
0
LINE
8
BLACK
6
CONTINUOUS
10
64.4387
20
-102.35
11
64.1302
21
-102.272
0
LINE
8
BLACK
6
CONTINUOUS
10
64.1302
20
-102.272
11
63.8333
21
-102.216
0
LINE
8
BLACK
6
CONTINUOUS
10
63.8333
20
-102.216
11
63.5467
21
-102.179
0
LINE
8
BLACK
6
CONTINUOUS
10
63.5467
20
-102.179
11
63.2691
21
-102.16
0
LINE
8
BLACK
6
CONTINUOUS
10
63.2691
20
-102.16
11
62.9994
21
-102.157
0
LINE
8
BLACK
6
CONTINUOUS
10
62.9994
20
-102.157
11
62.7363
21
-102.169
0
LINE
8
BLACK
6
CONTINUOUS
10
62.7363
20
-102.169
11
62.4784
21
-102.194
0
LINE
8
BLACK
6
CONTINUOUS
10
62.4784
20
-102.194
11
62.2247
21
-102.23
0
LINE
8
BLACK
6
CONTINUOUS
10
62.2247
20
-102.23
11
61.9737
21
-102.275
0
LINE
8
BLACK
6
CONTINUOUS
10
61.9737
20
-102.275
11
61.7244
21
-102.329
0
LINE
8
BLACK
6
CONTINUOUS
10
61.7244
20
-102.329
11
61.4753
21
-102.388
0
LINE
8
BLACK
6
CONTINUOUS
10
61.4753
20
-102.388
11
61.2254
21
-102.452
0
LINE
8
BLACK
6
CONTINUOUS
10
61.2254
20
-102.452
11
60.9732
21
-102.518
0
LINE
8
BLACK
6
CONTINUOUS
10
60.9732
20
-102.518
11
60.7177
21
-102.586
0
LINE
8
BLACK
6
CONTINUOUS
10
60.7177
20
-102.586
11
60.4574
21
-102.653
0
LINE
8
BLACK
6
CONTINUOUS
10
60.4574
20
-102.653
11
60.1913
21
-102.718
0
LINE
8
BLACK
6
CONTINUOUS
10
60.1913
20
-102.718
11
59.918
21
-102.779
0
LINE
8
BLACK
6
CONTINUOUS
10
59.918
20
-102.779
11
59.6362
21
-102.834
0
LINE
8
BLACK
6
CONTINUOUS
10
59.6362
20
-102.834
11
59.3448
21
-102.882
0
LINE
8
BLACK
6
CONTINUOUS
10
59.3448
20
-102.882
11
59.0425
21
-102.921
0
LINE
8
BLACK
6
CONTINUOUS
10
59.0425
20
-102.921
11
58.728
21
-102.949
0
LINE
8
BLACK
6
CONTINUOUS
10
58.728
20
-102.949
11
58.4001
21
-102.965
0
LINE
8
BLACK
6
CONTINUOUS
10
58.4001
20
-102.965
11
58.0576
21
-102.967
0
LINE
8
BLACK
6
CONTINUOUS
10
58.0576
20
-102.967
11
57.6991
21
-102.953
0
LINE
8
BLACK
6
CONTINUOUS
10
57.6991
20
-102.953
11
57.3235
21
-102.921
0
LINE
8
BLACK
6
CONTINUOUS
10
57.3235
20
-102.921
11
56.9294
21
-102.871
0
LINE
8
BLACK
6
CONTINUOUS
10
56.9294
20
-102.871
11
56.5158
21
-102.8
0
LINE
8
BLACK
6
CONTINUOUS
10
56.5158
20
-102.8
11
56.0812
21
-102.707
0
LINE
8
BLACK
6
CONTINUOUS
10
56.0812
20
-102.707
11
55.6244
21
-102.589
0
LINE
8
BLACK
6
CONTINUOUS
10
55.6244
20
-102.589
11
55.1442
21
-102.445
0
LINE
8
BLACK
6
CONTINUOUS
10
55.1442
20
-102.445
11
54.6394
21
-102.275
0
ARC
8
BLACK
10
155.341
20
-64.3323
40
0.239735
50
-39.0328
51
33.9005
0
ARC
8
BLACK
10
154.151
20
-61.7404
40
0.193101
50
-220.952
51
-143.873
0
ARC
8
BLACK
10
149.385
20
-67.0967
40
0.216267
50
67.1823
51
142.538
0
LINE
8
BLACK
6
CONTINUOUS
10
158.625
20
-56.0833
11
154.006
21
-61.6139
0
ARC
8
BLACK
10
146.3
20
-178.783
40
26.3608
50
61.3472
51
118.653
0
LINE
8
BLACK
6
CONTINUOUS
10
119.923
20
-47.6225
11
104.96
21
-42.15
0
ARC
8
BLACK
10
160.104
20
-153.008
40
2.88696
50
-113.774
51
-42.2736
0
CIRCLE
8
BLACK
10
69.56
20
-98.65
40
2.4
0
LINE
8
BLACK
6
CONTINUOUS
10
268.28
20
-91.1884
11
237.961
21
-102.275
0
CIRCLE
8
BLACK
10
133.94
20
-63.65
40
2.4
0
CIRCLE
8
BLACK
10
146.3
20
-101.13
40
2.4
0
ARC
8
BLACK
10
50.1806
20
-223.826
40
105.701
50
40.6634
51
79.0493
0
CIRCLE
8
BLACK
10
234.706
20
-54.4852
40
0.707863
0
ARC
8
BLACK
10
70.9021
20
-117.288
40
2.83531
50
-195.104
51
-103.09
0
CIRCLE
8
BLACK
10
242.499
20
-69.8219
40
0.723193
0
LINE
8
BLACK
6
CONTINUOUS
10
69.06
20
-104.05
11
69.1622
21
-104.089
0
LINE
8
BLACK
6
CONTINUOUS
10
69.1622
20
-104.089
11
69.2625
21
-104.131
0
LINE
8
BLACK
6
CONTINUOUS
10
69.2625
20
-104.131
11
69.3608
21
-104.176
0
LINE
8
BLACK
6
CONTINUOUS
10
69.3608
20
-104.176
11
69.4568
21
-104.224
0
LINE
8
BLACK
6
CONTINUOUS
10
69.4568
20
-104.224
11
69.5504
21
-104.275
0
LINE
8
BLACK
6
CONTINUOUS
10
69.5504
20
-104.275
11
69.6415
21
-104.329
0
LINE
8
BLACK
6
CONTINUOUS
10
69.6415
20
-104.329
11
69.7299
21
-104.387
0
LINE
8
BLACK
6
CONTINUOUS
10
69.7299
20
-104.387
11
69.8154
21
-104.447
0
LINE
8
BLACK
6
CONTINUOUS
10
69.8154
20
-104.447
11
69.8979
21
-104.511
0
LINE
8
BLACK
6
CONTINUOUS
10
69.8979
20
-104.511
11
69.9773
21
-104.578
0
LINE
8
BLACK
6
CONTINUOUS
10
69.9773
20
-104.578
11
70.0533
21
-104.649
0
LINE
8
BLACK
6
CONTINUOUS
10
70.0533
20
-104.649
11
70.1259
21
-104.722
0
LINE
8
BLACK
6
CONTINUOUS
10
70.1259
20
-104.722
11
70.1948
21
-104.8
0
LINE
8
BLACK
6
CONTINUOUS
10
70.1948
20
-104.8
11
70.2599
21
-104.88
0
LINE
8
BLACK
6
CONTINUOUS
10
70.2599
20
-104.88
11
70.3211
21
-104.965
0
LINE
8
BLACK
6
CONTINUOUS
10
70.3211
20
-104.965
11
70.3782
21
-105.052
0
LINE
8
BLACK
6
CONTINUOUS
10
70.3782
20
-105.052
11
70.431
21
-105.144
0
LINE
8
BLACK
6
CONTINUOUS
10
70.431
20
-105.144
11
70.4794
21
-105.239
0
LINE
8
BLACK
6
CONTINUOUS
10
70.4794
20
-105.239
11
70.5232
21
-105.337
0
LINE
8
BLACK
6
CONTINUOUS
10
70.5232
20
-105.337
11
70.5623
21
-105.439
0
LINE
8
BLACK
6
CONTINUOUS
10
70.5623
20
-105.439
11
70.5965
21
-105.545
0
LINE
8
BLACK
6
CONTINUOUS
10
70.5965
20
-105.545
11
70.6256
21
-105.655
0
LINE
8
BLACK
6
CONTINUOUS
10
70.6256
20
-105.655
11
70.6496
21
-105.769
0
LINE
8
BLACK
6
CONTINUOUS
10
70.6496
20
-105.769
11
70.6682
21
-105.886
0
LINE
8
BLACK
6
CONTINUOUS
10
70.6682
20
-105.886
11
70.6813
21
-106.007
0
LINE
8
BLACK
6
CONTINUOUS
10
70.6813
20
-106.007
11
70.6887
21
-106.133
0
LINE
8
BLACK
6
CONTINUOUS
10
70.6887
20
-106.133
11
70.6903
21
-106.262
0
LINE
8
BLACK
6
CONTINUOUS
10
70.6903
20
-106.262
11
70.6859
21
-106.395
0
LINE
8
BLACK
6
CONTINUOUS
10
70.6859
20
-106.395
11
70.6753
21
-106.532
0
LINE
8
BLACK
6
CONTINUOUS
10
70.6753
20
-106.532
11
70.6585
21
-106.674
0
LINE
8
BLACK
6
CONTINUOUS
10
70.6585
20
-106.674
11
70.6352
21
-106.819
0
LINE
8
BLACK
6
CONTINUOUS
10
70.6352
20
-106.819
11
70.6053
21
-106.969
0
ARC
8
BLACK
10
267.381
20
-88.7218
40
2.62549
50
-69.9633
51
20.0325
0
CIRCLE
8
BLACK
10
218.94
20
-47.75
40
2.4
0
LINE
8
BLACK
6
CONTINUOUS
10
177.44
20
-45.85
11
177.023
21
-46.0517
0
LINE
8
BLACK
6
CONTINUOUS
10
177.023
20
-46.0517
11
176.631
21
-46.2627
0
LINE
8
BLACK
6
CONTINUOUS
10
176.631
20
-46.2627
11
176.265
21
-46.4821
0
LINE
8
BLACK
6
CONTINUOUS
10
176.265
20
-46.4821
11
175.922
21
-46.7092
0
LINE
8
BLACK
6
CONTINUOUS
10
175.922
20
-46.7092
11
175.599
21
-46.9432
0
LINE
8
BLACK
6
CONTINUOUS
10
175.599
20
-46.9432
11
175.297
21
-47.1835
0
LINE
8
BLACK
6
CONTINUOUS
10
175.297
20
-47.1835
11
175.012
21
-47.4293
0
LINE
8
BLACK
6
CONTINUOUS
10
175.012
20
-47.4293
11
174.743
21
-47.6797
0
LINE
8
BLACK
6
CONTINUOUS
10
174.743
20
-47.6797
11
174.489
21
-47.9341
0
LINE
8
BLACK
6
CONTINUOUS
10
174.489
20
-47.9341
11
174.247
21
-48.1917
0
LINE
8
BLACK
6
CONTINUOUS
10
174.247
20
-48.1917
11
174.016
21
-48.4517
0
LINE
8
BLACK
6
CONTINUOUS
10
174.016
20
-48.4517
11
173.794
21
-48.7135
0
LINE
8
BLACK
6
CONTINUOUS
10
173.794
20
-48.7135
11
173.58
21
-48.9762
0
LINE
8
BLACK
6
CONTINUOUS
10
173.58
20
-48.9762
11
173.372
21
-49.2391
0
LINE
8
BLACK
6
CONTINUOUS
10
173.372
20
-49.2391
11
173.167
21
-49.5014
0
LINE
8
BLACK
6
CONTINUOUS
10
173.167
20
-49.5014
11
172.965
21
-49.7625
0
LINE
8
BLACK
6
CONTINUOUS
10
172.965
20
-49.7625
11
172.763
21
-50.0215
0
LINE
8
BLACK
6
CONTINUOUS
10
172.763
20
-50.0215
11
172.561
21
-50.2777
0
LINE
8
BLACK
6
CONTINUOUS
10
172.561
20
-50.2777
11
172.355
21
-50.5304
0
LINE
8
BLACK
6
CONTINUOUS
10
172.355
20
-50.5304
11
172.145
21
-50.7787
0
LINE
8
BLACK
6
CONTINUOUS
10
172.145
20
-50.7787
11
171.929
21
-51.022
0
LINE
8
BLACK
6
CONTINUOUS
10
171.929
20
-51.022
11
171.704
21
-51.2595
0
LINE
8
BLACK
6
CONTINUOUS
10
171.704
20
-51.2595
11
171.47
21
-51.4904
0
LINE
8
BLACK
6
CONTINUOUS
10
171.47
20
-51.4904
11
171.224
21
-51.7141
0
LINE
8
BLACK
6
CONTINUOUS
10
171.224
20
-51.7141
11
170.966
21
-51.9296
0
LINE
8
BLACK
6
CONTINUOUS
10
170.966
20
-51.9296
11
170.692
21
-52.1364
0
LINE
8
BLACK
6
CONTINUOUS
10
170.692
20
-52.1364
11
170.401
21
-52.3336
0
LINE
8
BLACK
6
CONTINUOUS
10
170.401
20
-52.3336
11
170.093
21
-52.5205
0
LINE
8
BLACK
6
CONTINUOUS
10
170.093
20
-52.5205
11
169.764
21
-52.6963
0
LINE
8
BLACK
6
CONTINUOUS
10
169.764
20
-52.6963
11
169.413
21
-52.8604
0
LINE
8
BLACK
6
CONTINUOUS
10
169.413
20
-52.8604
11
169.039
21
-53.0118
0
LINE
8
BLACK
6
CONTINUOUS
10
169.039
20
-53.0118
11
168.64
21
-53.15
0
ARC
8
BLACK
10
152.361
20
-67.8205
40
0.272753
50
-114.718
51
-37.8223
0
LINE
8
BLACK
6
CONTINUOUS
10
158.952
20
-56.0149
11
159.045
21
-56.0451
0
LINE
8
BLACK
6
CONTINUOUS
10
159.045
20
-56.0451
11
159.138
21
-56.0673
0
LINE
8
BLACK
6
CONTINUOUS
10
159.138
20
-56.0673
11
159.231
21
-56.0823
0
LINE
8
BLACK
6
CONTINUOUS
10
159.231
20
-56.0823
11
159.322
21
-56.091
0
LINE
8
BLACK
6
CONTINUOUS
10
159.322
20
-56.091
11
159.41
21
-56.0941
0
LINE
8
BLACK
6
CONTINUOUS
10
159.41
20
-56.0941
11
159.495
21
-56.0926
0
LINE
8
BLACK
6
CONTINUOUS
10
159.495
20
-56.0926
11
159.576
21
-56.0872
0
LINE
8
BLACK
6
CONTINUOUS
10
159.576
20
-56.0872
11
159.651
21
-56.0789
0
LINE
8
BLACK
6
CONTINUOUS
10
159.651
20
-56.0789
11
159.722
21
-56.0684
0
LINE
8
BLACK
6
CONTINUOUS
10
159.722
20
-56.0684
11
159.785
21
-56.0566
0
LINE
8
BLACK
6
CONTINUOUS
10
159.785
20
-56.0566
11
159.841
21
-56.0443
0
LINE
8
BLACK
6
CONTINUOUS
10
159.841
20
-56.0443
11
159.909
21
-56.0267
0
LINE
8
BLACK
6
CONTINUOUS
10
159.909
20
-56.0267
11
159.966
21
-56.0095
0
LINE
8
BLACK
6
CONTINUOUS
10
159.966
20
-56.0095
11
159.979
21
-56.0048
0
ARC
8
BLACK
10
25.2194
20
-88.7218
40
2.62549
50
-200.033
51
-110.037
0
ARC
8
BLACK
10
221.698
20
-117.288
40
2.83531
50
-76.91
51
15.1044
0
CIRCLE
8
BLACK
10
223.04
20
-98.65
40
2.4
0
ARC
8
BLACK
10
158.834
20
-56.2662
40
0.277656
50
64.8434
51
138.805
0
LINE
8
BLACK
6
CONTINUOUS
10
22.7528
20
-87.8225
11
40.5678
21
-39.1303
0
CIRCLE
8
BLACK
10
73.66
20
-47.75
40
2.4
0
LINE
8
BLACK
6
CONTINUOUS
10
168.64
20
-53.15
11
159.979
21
-56.0048
0
ARC
8
BLACK
10
132.496
20
-153.008
40
2.88696
50
-137.726
51
-66.2259
0
CIRCLE
8
BLACK
10
121.89
20
-54.2
40
2.4
0
ARC
8
BLACK
10
249.566
20
-40.0299
40
2.62549
50
20.0367
51
110.033
0
LINE
8
BLACK
6
CONTINUOUS
10
221.995
20
-106.969
11
224.435
21
-116.55
0
LINE
8
BLACK
6
CONTINUOUS
10
155.54
20
-64.1986
11
153.995
21
-61.8543
0
LINE
8
BLACK
6
CONTINUOUS
10
187.64
20
-42.15
11
188.745
21
-41.8179
0
LINE
8
BLACK
6
CONTINUOUS
10
188.745
20
-41.8179
11
189.916
21
-41.5501
0
LINE
8
BLACK
6
CONTINUOUS
10
189.916
20
-41.5501
11
191.149
21
-41.3423
0
LINE
8
BLACK
6
CONTINUOUS
10
191.149
20
-41.3423
11
192.439
21
-41.1902
0
LINE
8
BLACK
6
CONTINUOUS
10
192.439
20
-41.1902
11
193.783
21
-41.0895
0
LINE
8
BLACK
6
CONTINUOUS
10
193.783
20
-41.0895
11
195.176
21
-41.036
0
LINE
8
BLACK
6
CONTINUOUS
10
195.176
20
-41.036
11
196.615
21
-41.0253
0
LINE
8
BLACK
6
CONTINUOUS
10
196.615
20
-41.0253
11
198.094
21
-41.0531
0
LINE
8
BLACK
6
CONTINUOUS
10
198.094
20
-41.0531
11
199.61
21
-41.1153
0
LINE
8
BLACK
6
CONTINUOUS
10
199.61
20
-41.1153
11
201.158
21
-41.2074
0
LINE
8
BLACK
6
CONTINUOUS
10
201.158
20
-41.2074
11
202.734
21
-41.3252
0
LINE
8
BLACK
6
CONTINUOUS
10
202.734
20
-41.3252
11
204.335
21
-41.4645
0
LINE
8
BLACK
6
CONTINUOUS
10
204.335
20
-41.4645
11
205.956
21
-41.6208
0
LINE
8
BLACK
6
CONTINUOUS
10
205.956
20
-41.6208
11
207.592
21
-41.7901
0
LINE
8
BLACK
6
CONTINUOUS
10
207.592
20
-41.7901
11
209.24
21
-41.9679
0
LINE
8
BLACK
6
CONTINUOUS
10
209.24
20
-41.9679
11
210.895
21
-42.15
0
LINE
8
BLACK
6
CONTINUOUS
10
210.895
20
-42.15
11
212.553
21
-42.3321
0
LINE
8
BLACK
6
CONTINUOUS
10
212.553
20
-42.3321
11
214.211
21
-42.5099
0
LINE
8
BLACK
6
CONTINUOUS
10
214.211
20
-42.5099
11
215.863
21
-42.6792
0
LINE
8
BLACK
6
CONTINUOUS
10
215.863
20
-42.6792
11
217.506
21
-42.8355
0
LINE
8
BLACK
6
CONTINUOUS
10
217.506
20
-42.8355
11
219.135
21
-42.9748
0
LINE
8
BLACK
6
CONTINUOUS
10
219.135
20
-42.9748
11
220.746
21
-43.0926
0
LINE
8
BLACK
6
CONTINUOUS
10
220.746
20
-43.0926
11
222.336
21
-43.1847
0
LINE
8
BLACK
6
CONTINUOUS
10
222.336
20
-43.1847
11
223.899
21
-43.2469
0
LINE
8
BLACK
6
CONTINUOUS
10
223.899
20
-43.2469
11
225.432
21
-43.2747
0
LINE
8
BLACK
6
CONTINUOUS
10
225.432
20
-43.2747
11
226.93
21
-43.264
0
LINE
8
BLACK
6
CONTINUOUS
10
226.93
20
-43.264
11
228.39
21
-43.2105
0
LINE
8
BLACK
6
CONTINUOUS
10
228.39
20
-43.2105
11
229.806
21
-43.1098
0
LINE
8
BLACK
6
CONTINUOUS
10
229.806
20
-43.1098
11
231.176
21
-42.9577
0
LINE
8
BLACK
6
CONTINUOUS
10
231.176
20
-42.9577
11
232.494
21
-42.7499
0
LINE
8
BLACK
6
CONTINUOUS
10
232.494
20
-42.7499
11
233.757
21
-42.4821
0
LINE
8
BLACK
6
CONTINUOUS
10
233.757
20
-42.4821
11
234.96
21
-42.15
0
CIRCLE
8
BLACK
10
240.493
20
-70.5725
40
0.707098
0
LINE
8
BLACK
6
CONTINUOUS
10
152.247
20
-68.0683
11
149.468
21
-66.8974
0
LINE
8
BLACK
6
CONTINUOUS
10
120.642
20
-48.0584
11
120.578
21
-48.0049
0
LINE
8
BLACK
6
CONTINUOUS
10
120.578
20
-48.0049
11
120.522
21
-47.958
0
LINE
8
BLACK
6
CONTINUOUS
10
120.522
20
-47.958
11
120.472
21
-47.9168
0
LINE
8
BLACK
6
CONTINUOUS
10
120.472
20
-47.9168
11
120.428
21
-47.8809
0
LINE
8
BLACK
6
CONTINUOUS
10
120.428
20
-47.8809
11
120.388
21
-47.8495
0
LINE
8
BLACK
6
CONTINUOUS
10
120.388
20
-47.8495
11
120.333
21
-47.8096
0
LINE
8
BLACK
6
CONTINUOUS
10
120.333
20
-47.8096
11
120.282
21
-47.7763
0
LINE
8
BLACK
6
CONTINUOUS
10
120.282
20
-47.7763
11
120.231
21
-47.7476
0
LINE
8
BLACK
6
CONTINUOUS
10
120.231
20
-47.7476
11
120.176
21
-47.7212
0
LINE
8
BLACK
6
CONTINUOUS
10
120.176
20
-47.7212
11
120.114
21
-47.695
0
LINE
8
BLACK
6
CONTINUOUS
10
120.114
20
-47.695
11
120.068
21
-47.6765
0
LINE
8
BLACK
6
CONTINUOUS
10
120.068
20
-47.6765
11
120.015
21
-47.6566
0
LINE
8
BLACK
6
CONTINUOUS
10
120.015
20
-47.6566
11
119.956
21
-47.6345
0
LINE
8
BLACK
6
CONTINUOUS
10
119.956
20
-47.6345
11
119.923
21
-47.6225
0
LINE
8
BLACK
6
CONTINUOUS
10
234.96
20
-42.15
11
248.666
21
-37.5632
0
LINE
8
BLACK
6
CONTINUOUS
10
149.213
20
-66.9652
11
146.868
21
-69.7735
0
CIRCLE
8
BLACK
10
146.3
20
-145.95
40
2.4
0
LINE
8
BLACK
6
CONTINUOUS
10
68.1648
20
-116.55
11
70.6053
21
-106.969
0
ARC
8
BLACK
10
242.419
20
-223.826
40
105.701
50
100.951
51
139.337
0
CIRCLE
8
BLACK
10
250.967
20
-93.1181
40
0.707863
0
LINE
8
BLACK
6
CONTINUOUS
10
227.84
20
-102.45
11
228.161
21
-102.35
0
LINE
8
BLACK
6
CONTINUOUS
10
228.161
20
-102.35
11
228.47
21
-102.272
0
LINE
8
BLACK
6
CONTINUOUS
10
228.47
20
-102.272
11
228.767
21
-102.216
0
LINE
8
BLACK
6
CONTINUOUS
10
228.767
20
-102.216
11
229.053
21
-102.179
0
LINE
8
BLACK
6
CONTINUOUS
10
229.053
20
-102.179
11
229.331
21
-102.16
0
LINE
8
BLACK
6
CONTINUOUS
10
229.331
20
-102.16
11
229.601
21
-102.157
0
LINE
8
BLACK
6
CONTINUOUS
10
229.601
20
-102.157
11
229.864
21
-102.169
0
LINE
8
BLACK
6
CONTINUOUS
10
229.864
20
-102.169
11
230.122
21
-102.194
0
LINE
8
BLACK
6
CONTINUOUS
10
230.122
20
-102.194
11
230.375
21
-102.23
0
LINE
8
BLACK
6
CONTINUOUS
10
230.375
20
-102.23
11
230.626
21
-102.275
0
LINE
8
BLACK
6
CONTINUOUS
10
230.626
20
-102.275
11
230.876
21
-102.329
0
LINE
8
BLACK
6
CONTINUOUS
10
230.876
20
-102.329
11
231.125
21
-102.388
0
LINE
8
BLACK
6
CONTINUOUS
10
231.125
20
-102.388
11
231.375
21
-102.452
0
LINE
8
BLACK
6
CONTINUOUS
10
231.375
20
-102.452
11
231.627
21
-102.518
0
LINE
8
BLACK
6
CONTINUOUS
10
231.627
20
-102.518
11
231.882
21
-102.586
0
LINE
8
BLACK
6
CONTINUOUS
10
231.882
20
-102.586
11
232.143
21
-102.653
0
LINE
8
BLACK
6
CONTINUOUS
10
232.143
20
-102.653
11
232.409
21
-102.718
0
LINE
8
BLACK
6
CONTINUOUS
10
232.409
20
-102.718
11
232.682
21
-102.779
0
LINE
8
BLACK
6
CONTINUOUS
10
232.682
20
-102.779
11
232.964
21
-102.834
0
LINE
8
BLACK
6
CONTINUOUS
10
232.964
20
-102.834
11
233.255
21
-102.882
0
LINE
8
BLACK
6
CONTINUOUS
10
233.255
20
-102.882
11
233.557
21
-102.921
0
LINE
8
BLACK
6
CONTINUOUS
10
233.557
20
-102.921
11
233.872
21
-102.949
0
LINE
8
BLACK
6
CONTINUOUS
10
233.872
20
-102.949
11
234.2
21
-102.965
0
LINE
8
BLACK
6
CONTINUOUS
10
234.2
20
-102.965
11
234.542
21
-102.967
0
LINE
8
BLACK
6
CONTINUOUS
10
234.542
20
-102.967
11
234.901
21
-102.953
0
LINE
8
BLACK
6
CONTINUOUS
10
234.901
20
-102.953
11
235.277
21
-102.921
0
LINE
8
BLACK
6
CONTINUOUS
10
235.277
20
-102.921
11
235.671
21
-102.871
0
LINE
8
BLACK
6
CONTINUOUS
10
235.671
20
-102.871
11
236.084
21
-102.8
0
LINE
8
BLACK
6
CONTINUOUS
10
236.084
20
-102.8
11
236.519
21
-102.707
0
LINE
8
BLACK
6
CONTINUOUS
10
236.519
20
-102.707
11
236.976
21
-102.589
0
LINE
8
BLACK
6
CONTINUOUS
10
236.976
20
-102.589
11
237.456
21
-102.445
0
LINE
8
BLACK
6
CONTINUOUS
10
237.456
20
-102.445
11
237.961
21
-102.275
0
LINE
8
BLACK
6
CONTINUOUS
10
64.76
20
-102.45
11
69.06
21
-104.05
0
LINE
8
BLACK
6
CONTINUOUS
10
120.642
20
-48.0584
11
128.459
21
-54.6458
0
LINE
8
BLACK
6
CONTINUOUS
10
223.54
20
-104.05
11
227.84
21
-102.45
0
CIRCLE
8
BLACK
10
248.968
20
-93.9198
40
0.707863
0
CIRCLE
8
BLACK
10
236.693
20
-53.7725
40
0.711819
0
CIRCLE
8
BLACK
10
237.364
20
-61.8061
40
0.707863
0
LINE
8
BLACK
6
CONTINUOUS
10
43.9337
20
-37.5632
11
57.64
21
-42.15
0
LINE
8
BLACK
6
CONTINUOUS
10
223.54
20
-104.05
11
223.438
21
-104.089
0
LINE
8
BLACK
6
CONTINUOUS
10
223.438
20
-104.089
11
223.337
21
-104.131
0
LINE
8
BLACK
6
CONTINUOUS
10
223.337
20
-104.131
11
223.239
21
-104.176
0
LINE
8
BLACK
6
CONTINUOUS
10
223.239
20
-104.176
11
223.143
21
-104.224
0
LINE
8
BLACK
6
CONTINUOUS
10
223.143
20
-104.224
11
223.05
21
-104.275
0
LINE
8
BLACK
6
CONTINUOUS
10
223.05
20
-104.275
11
222.959
21
-104.329
0
LINE
8
BLACK
6
CONTINUOUS
10
222.959
20
-104.329
11
222.87
21
-104.387
0
LINE
8
BLACK
6
CONTINUOUS
10
222.87
20
-104.387
11
222.785
21
-104.447
0
LINE
8
BLACK
6
CONTINUOUS
10
222.785
20
-104.447
11
222.702
21
-104.511
0
LINE
8
BLACK
6
CONTINUOUS
10
222.702
20
-104.511
11
222.623
21
-104.578
0
LINE
8
BLACK
6
CONTINUOUS
10
222.623
20
-104.578
11
222.547
21
-104.649
0
LINE
8
BLACK
6
CONTINUOUS
10
222.547
20
-104.649
11
222.474
21
-104.722
0
LINE
8
BLACK
6
CONTINUOUS
10
222.474
20
-104.722
11
222.405
21
-104.8
0
LINE
8
BLACK
6
CONTINUOUS
10
222.405
20
-104.8
11
222.34
21
-104.88
0
LINE
8
BLACK
6
CONTINUOUS
10
222.34
20
-104.88
11
222.279
21
-104.965
0
LINE
8
BLACK
6
CONTINUOUS
10
222.279
20
-104.965
11
222.222
21
-105.052
0
LINE
8
BLACK
6
CONTINUOUS
10
222.222
20
-105.052
11
222.169
21
-105.144
0
LINE
8
BLACK
6
CONTINUOUS
10
222.169
20
-105.144
11
222.121
21
-105.239
0
LINE
8
BLACK
6
CONTINUOUS
10
222.121
20
-105.239
11
222.077
21
-105.337
0
LINE
8
BLACK
6
CONTINUOUS
10
222.077
20
-105.337
11
222.038
21
-105.439
0
LINE
8
BLACK
6
CONTINUOUS
10
222.038
20
-105.439
11
222.004
21
-105.545
0
LINE
8
BLACK
6
CONTINUOUS
10
222.004
20
-105.545
11
221.974
21
-105.655
0
LINE
8
BLACK
6
CONTINUOUS
10
221.974
20
-105.655
11
221.95
21
-105.769
0
LINE
8
BLACK
6
CONTINUOUS
10
221.95
20
-105.769
11
221.932
21
-105.886
0
LINE
8
BLACK
6
CONTINUOUS
10
221.932
20
-105.886
11
221.919
21
-106.007
0
LINE
8
BLACK
6
CONTINUOUS
10
221.919
20
-106.007
11
221.911
21
-106.133
0
LINE
8
BLACK
6
CONTINUOUS
10
221.911
20
-106.133
11
221.91
21
-106.262
0
LINE
8
BLACK
6
CONTINUOUS
10
221.91
20
-106.262
11
221.914
21
-106.395
0
LINE
8
BLACK
6
CONTINUOUS
10
221.914
20
-106.395
11
221.925
21
-106.532
0
LINE
8
BLACK
6
CONTINUOUS
10
221.925
20
-106.532
11
221.942
21
-106.674
0
LINE
8
BLACK
6
CONTINUOUS
10
221.942
20
-106.674
11
221.965
21
-106.819
0
LINE
8
BLACK
6
CONTINUOUS
10
221.965
20
-106.819
11
221.995
21
-106.969
0
CIRCLE
8
BLACK
10
187.427
20
-79.5313
40
0.894427
0
LINE
8
BLACK
6
CONTINUOUS
10
189.557
20
-88.0145
11
188.941
21
-86.323
0
LINE
8
BLACK
6
CONTINUOUS
10
188.941
20
-86.323
11
190.633
21
-85.7074
0
LINE
8
BLACK
6
CONTINUOUS
10
191.248
20
-87.3988
11
189.557
21
-88.0145
0
LINE
8
BLACK
6
CONTINUOUS
10
190.633
20
-85.7074
11
191.248
21
-87.3988
0
CIRCLE
8
BLACK
10
226.996
20
-82.8608
40
0.894427
0
LINE
8
BLACK
6
CONTINUOUS
10
230.818
20
-90.7283
11
229.126
21
-91.3439
0
LINE
8
BLACK
6
CONTINUOUS
10
229.126
20
-91.3439
11
228.511
21
-89.6525
0
LINE
8
BLACK
6
CONTINUOUS
10
230.202
20
-89.0368
11
230.818
21
-90.7283
0
LINE
8
BLACK
6
CONTINUOUS
10
228.511
20
-89.6525
11
230.202
21
-89.0368
0
LINE
8
BLACK
6
CONTINUOUS
10
56.2587
20
-61.9219
11
56.6007
21
-60.9822
0
LINE
8
BLACK
6
CONTINUOUS
10
56.1308
20
-60.8112
11
57.6357
21
-56.6765
0
LINE
8
BLACK
6
CONTINUOUS
10
73.8606
20
-54.4941
11
74.3305
21
-54.6652
0
LINE
8
BLACK
6
CONTINUOUS
10
58.1056
20
-56.8475
11
59.1316
21
-54.0284
0
LINE
8
BLACK
6
CONTINUOUS
10
60.7049
20
-49.7059
11
61.0469
21
-48.7662
0
LINE
8
BLACK
6
CONTINUOUS
10
56.6007
20
-60.9822
11
56.1308
21
-60.8112
0
LINE
8
BLACK
6
CONTINUOUS
10
72.8256
20
-58.7998
11
72.3557
21
-58.6288
0
LINE
8
BLACK
6
CONTINUOUS
10
72.3557
20
-58.6288
11
71.3297
21
-61.4479
0
LINE
8
BLACK
6
CONTINUOUS
10
56.2587
20
-61.9219
11
69.4144
21
-66.7101
0
LINE
8
BLACK
6
CONTINUOUS
10
74.2026
20
-53.5545
11
61.0469
21
-48.7662
0
LINE
8
BLACK
6
CONTINUOUS
10
69.7564
20
-65.7705
11
70.2262
21
-65.9415
0
LINE
8
BLACK
6
CONTINUOUS
10
60.2351
20
-49.5349
11
58.6618
21
-53.8574
0
LINE
8
BLACK
6
CONTINUOUS
10
57.6357
20
-56.6765
11
58.1056
21
-56.8475
0
LINE
8
BLACK
6
CONTINUOUS
10
69.7564
20
-65.7705
11
69.4144
21
-66.7101
0
LINE
8
BLACK
6
CONTINUOUS
10
74.2026
20
-53.5545
11
73.8606
21
-54.4941
0
LINE
8
BLACK
6
CONTINUOUS
10
74.3305
20
-54.6652
11
72.8256
21
-58.7998
0
LINE
8
BLACK
6
CONTINUOUS
10
60.7049
20
-49.7059
11
60.2351
21
-49.5349
0
LINE
8
BLACK
6
CONTINUOUS
10
70.2262
20
-65.9415
11
71.7995
21
-61.6189
0
LINE
8
BLACK
6
CONTINUOUS
10
71.7995
20
-61.6189
11
71.3297
21
-61.4479
0
LINE
8
BLACK
6
CONTINUOUS
10
58.6618
20
-53.8574
11
59.1316
21
-54.0284
0
LINE
8
BLACK
6
CONTINUOUS
10
39.3438
20
-55.7658
11
52.4995
21
-60.5541
0
LINE
8
BLACK
6
CONTINUOUS
10
55.9107
20
-52.6437
11
55.4409
21
-52.4727
0
LINE
8
BLACK
6
CONTINUOUS
10
39.3438
20
-55.7658
11
39.6858
21
-54.8261
0
LINE
8
BLACK
6
CONTINUOUS
10
39.6858
20
-54.8261
11
39.216
21
-54.6551
0
LINE
8
BLACK
6
CONTINUOUS
10
52.8415
20
-59.6144
11
52.4995
21
-60.5541
0
LINE
8
BLACK
6
CONTINUOUS
10
55.4409
20
-52.4727
11
54.4148
21
-55.2918
0
LINE
8
BLACK
6
CONTINUOUS
10
40.7208
20
-50.5205
11
41.1907
21
-50.6915
0
LINE
8
BLACK
6
CONTINUOUS
10
39.216
20
-54.6551
11
40.7208
21
-50.5205
0
LINE
8
BLACK
6
CONTINUOUS
10
43.3202
20
-43.3788
11
41.7469
21
-47.7014
0
LINE
8
BLACK
6
CONTINUOUS
10
43.79
20
-43.5498
11
43.3202
21
-43.3788
0
LINE
8
BLACK
6
CONTINUOUS
10
53.3113
20
-59.7854
11
54.8846
21
-55.4628
0
LINE
8
BLACK
6
CONTINUOUS
10
54.8846
20
-55.4628
11
54.4148
21
-55.2918
0
LINE
8
BLACK
6
CONTINUOUS
10
41.1907
20
-50.6915
11
42.2168
21
-47.8724
0
LINE
8
BLACK
6
CONTINUOUS
10
41.7469
20
-47.7014
11
42.2168
21
-47.8724
0
LINE
8
BLACK
6
CONTINUOUS
10
43.79
20
-43.5498
11
44.1321
21
-42.6101
0
LINE
8
BLACK
6
CONTINUOUS
10
57.2878
20
-47.3984
11
44.1321
21
-42.6101
0
LINE
8
BLACK
6
CONTINUOUS
10
52.8415
20
-59.6144
11
53.3113
21
-59.7854
0
LINE
8
BLACK
6
CONTINUOUS
10
57.4156
20
-48.5091
11
55.9107
21
-52.6437
0
LINE
8
BLACK
6
CONTINUOUS
10
57.2878
20
-47.3984
11
56.9457
21
-48.3381
0
LINE
8
BLACK
6
CONTINUOUS
10
56.9457
20
-48.3381
11
57.4156
21
-48.5091
0
CIRCLE
8
BLACK
10
202.973
20
-103.259
40
0.894427
0
LINE
8
BLACK
6
CONTINUOUS
10
209.405
20
-100.604
11
211.144
21
-100.138
0
LINE
8
BLACK
6
CONTINUOUS
10
211.609
20
-101.877
11
209.871
21
-102.343
0
LINE
8
BLACK
6
CONTINUOUS
10
211.144
20
-100.138
11
211.609
21
-101.877
0
LINE
8
BLACK
6
CONTINUOUS
10
209.871
20
-102.343
11
209.405
21
-100.604
0
CIRCLE
8
BLACK
10
201.836
20
-66.3612
40
0.894427
0
LINE
8
BLACK
6
CONTINUOUS
10
203.35
20
-73.1529
11
205.042
21
-72.5372
0
LINE
8
BLACK
6
CONTINUOUS
10
205.657
20
-74.2287
11
203.966
21
-74.8443
0
LINE
8
BLACK
6
CONTINUOUS
10
205.042
20
-72.5372
11
205.657
21
-74.2287
0
LINE
8
BLACK
6
CONTINUOUS
10
203.966
20
-74.8443
11
203.35
21
-73.1529
0
CIRCLE
8
BLACK
10
201.073
20
-96.6594
40
0.894427
0
LINE
8
BLACK
6
CONTINUOUS
10
207.971
20
-95.7429
11
207.505
21
-94.0042
0
LINE
8
BLACK
6
CONTINUOUS
10
209.709
20
-95.277
11
207.971
21
-95.7429
0
LINE
8
BLACK
6
CONTINUOUS
10
207.505
20
-94.0042
11
209.244
21
-93.5383
0
LINE
8
BLACK
6
CONTINUOUS
10
209.244
20
-93.5383
11
209.709
21
-95.277
0
CIRCLE
8
BLACK
10
92.4548
20
-101.297
40
0.894427
0
LINE
8
BLACK
6
CONTINUOUS
10
84.2842
20
-98.176
11
86.0229
21
-98.6419
0
LINE
8
BLACK
6
CONTINUOUS
10
86.0229
20
-98.6419
11
85.557
21
-100.381
0
LINE
8
BLACK
6
CONTINUOUS
10
83.8183
20
-99.9147
11
84.2842
21
-98.176
0
LINE
8
BLACK
6
CONTINUOUS
10
85.557
20
-100.381
11
83.8183
21
-99.9147
0
LINE
8
BLACK
6
CONTINUOUS
10
172.824
20
-137.258
11
170.3
21
-133.654
0
LINE
8
BLACK
6
CONTINUOUS
10
178.228
20
-118.825
11
180.752
21
-122.429
0
LINE
8
BLACK
6
CONTINUOUS
10
166.351
20
-127.142
11
165.777
21
-126.323
0
LINE
8
BLACK
6
CONTINUOUS
10
180.343
20
-122.716
11
182.063
21
-125.173
0
LINE
8
BLACK
6
CONTINUOUS
10
168.58
20
-131.197
11
168.989
21
-130.91
0
LINE
8
BLACK
6
CONTINUOUS
10
184.702
20
-128.942
11
185.275
21
-129.761
0
LINE
8
BLACK
6
CONTINUOUS
10
182.473
20
-124.887
11
182.063
21
-125.173
0
LINE
8
BLACK
6
CONTINUOUS
10
177.245
20
-118.293
11
177.819
21
-119.112
0
LINE
8
BLACK
6
CONTINUOUS
10
170.71
20
-133.367
11
168.989
21
-130.91
0
LINE
8
BLACK
6
CONTINUOUS
10
177.819
20
-119.112
11
178.228
21
-118.825
0
LINE
8
BLACK
6
CONTINUOUS
10
185.111
20
-128.655
11
182.473
21
-124.887
0
LINE
8
BLACK
6
CONTINUOUS
10
173.234
20
-136.972
11
172.824
21
-137.258
0
LINE
8
BLACK
6
CONTINUOUS
10
184.702
20
-128.942
11
185.111
21
-128.655
0
LINE
8
BLACK
6
CONTINUOUS
10
177.245
20
-118.293
11
165.777
21
-126.323
0
LINE
8
BLACK
6
CONTINUOUS
10
165.941
20
-127.429
11
168.58
21
-131.197
0
LINE
8
BLACK
6
CONTINUOUS
10
173.807
20
-137.791
11
185.275
21
-129.761
0
LINE
8
BLACK
6
CONTINUOUS
10
166.351
20
-127.142
11
165.941
21
-127.429
0
LINE
8
BLACK
6
CONTINUOUS
10
170.3
20
-133.654
11
170.71
21
-133.367
0
LINE
8
BLACK
6
CONTINUOUS
10
173.807
20
-137.791
11
173.234
21
-136.972
0
LINE
8
BLACK
6
CONTINUOUS
10
180.752
20
-122.429
11
180.343
21
-122.716
0
CIRCLE
8
BLACK
10
150.29
20
-107.45
40
0.894427
0
LINE
8
BLACK
6
CONTINUOUS
10
143.39
20
-106.55
11
143.39
21
-108.35
0
LINE
8
BLACK
6
CONTINUOUS
10
143.39
20
-108.35
11
141.59
21
-108.35
0
LINE
8
BLACK
6
CONTINUOUS
10
141.59
20
-108.35
11
141.59
21
-106.55
0
LINE
8
BLACK
6
CONTINUOUS
10
141.59
20
-106.55
11
143.39
21
-106.55
0
LINE
8
BLACK
6
CONTINUOUS
10
245.499
20
-85.6194
11
245.029
21
-85.7904
0
LINE
8
BLACK
6
CONTINUOUS
10
247.628
20
-92.9321
11
248.098
21
-92.761
0
LINE
8
BLACK
6
CONTINUOUS
10
247.628
20
-92.9321
11
247.97
21
-93.8718
0
LINE
8
BLACK
6
CONTINUOUS
10
246.525
20
-88.4385
11
246.055
21
-88.6095
0
LINE
8
BLACK
6
CONTINUOUS
10
232.498
20
-93.7567
11
232.968
21
-93.5857
0
LINE
8
BLACK
6
CONTINUOUS
10
243.994
20
-81.4847
11
245.499
21
-85.6194
0
LINE
8
BLACK
6
CONTINUOUS
10
243.182
20
-80.7161
11
230.026
21
-85.5043
0
LINE
8
BLACK
6
CONTINUOUS
10
234.815
20
-98.66
11
247.97
21
-93.8718
0
LINE
8
BLACK
6
CONTINUOUS
10
234.473
20
-97.7203
11
234.003
21
-97.8913
0
LINE
8
BLACK
6
CONTINUOUS
10
243.524
20
-81.6557
11
243.994
21
-81.4847
0
LINE
8
BLACK
6
CONTINUOUS
10
230.368
20
-86.444
11
230.026
21
-85.5043
0
LINE
8
BLACK
6
CONTINUOUS
10
232.968
20
-93.5857
11
231.942
21
-90.7666
0
LINE
8
BLACK
6
CONTINUOUS
10
229.898
20
-86.615
11
231.472
21
-90.9376
0
LINE
8
BLACK
6
CONTINUOUS
10
248.098
20
-92.761
11
246.525
21
-88.4385
0
LINE
8
BLACK
6
CONTINUOUS
10
243.182
20
-80.7161
11
243.524
21
-81.6557
0
LINE
8
BLACK
6
CONTINUOUS
10
234.003
20
-97.8913
11
232.498
21
-93.7567
0
LINE
8
BLACK
6
CONTINUOUS
10
245.029
20
-85.7904
11
246.055
21
-88.6095
0
LINE
8
BLACK
6
CONTINUOUS
10
230.368
20
-86.444
11
229.898
21
-86.615
0
LINE
8
BLACK
6
CONTINUOUS
10
234.815
20
-98.66
11
234.473
21
-97.7203
0
LINE
8
BLACK
6
CONTINUOUS
10
231.472
20
-90.9376
11
231.942
21
-90.7666
0
LINE
8
BLACK
6
CONTINUOUS
10
122.407
20
-133.489
11
121.998
21
-133.203
0
LINE
8
BLACK
6
CONTINUOUS
10
107.317
20
-129.76
11
118.786
21
-137.79
0
LINE
8
BLACK
6
CONTINUOUS
10
126.242
20
-127.141
11
126.652
21
-127.428
0
LINE
8
BLACK
6
CONTINUOUS
10
110.005
20
-125.049
11
110.415
21
-125.336
0
LINE
8
BLACK
6
CONTINUOUS
10
124.128
20
-131.032
11
123.718
21
-130.745
0
LINE
8
BLACK
6
CONTINUOUS
10
107.481
20
-128.654
11
110.005
21
-125.049
0
LINE
8
BLACK
6
CONTINUOUS
10
107.891
20
-128.941
11
107.481
21
-128.654
0
LINE
8
BLACK
6
CONTINUOUS
10
119.359
20
-136.971
11
118.786
21
-137.79
0
LINE
8
BLACK
6
CONTINUOUS
10
126.816
20
-126.322
11
126.242
21
-127.141
0
LINE
8
BLACK
6
CONTINUOUS
10
107.317
20
-129.76
11
107.891
21
-128.941
0
LINE
8
BLACK
6
CONTINUOUS
10
119.359
20
-136.971
11
119.769
21
-137.257
0
LINE
8
BLACK
6
CONTINUOUS
10
114.774
20
-119.111
11
114.364
21
-118.824
0
LINE
8
BLACK
6
CONTINUOUS
10
123.718
20
-130.745
11
121.998
21
-133.203
0
LINE
8
BLACK
6
CONTINUOUS
10
110.415
20
-125.336
11
112.135
21
-122.879
0
LINE
8
BLACK
6
CONTINUOUS
10
126.816
20
-126.322
11
115.347
21
-118.292
0
LINE
8
BLACK
6
CONTINUOUS
10
111.726
20
-122.592
11
112.135
21
-122.879
0
LINE
8
BLACK
6
CONTINUOUS
10
114.774
20
-119.111
11
115.347
21
-118.292
0
LINE
8
BLACK
6
CONTINUOUS
10
114.364
20
-118.824
11
111.726
21
-122.592
0
LINE
8
BLACK
6
CONTINUOUS
10
126.652
20
-127.428
11
124.128
21
-131.032
0
LINE
8
BLACK
6
CONTINUOUS
10
119.769
20
-137.257
11
122.407
21
-133.489
0
LINE
8
BLACK
6
CONTINUOUS
10
47.0331
20
-85.807
11
47.503
21
-85.978
0
LINE
8
BLACK
6
CONTINUOUS
10
58.1277
20
-97.72
11
58.5975
21
-97.891
0
LINE
8
BLACK
6
CONTINUOUS
10
49.0762
20
-81.6554
11
48.6064
21
-81.4844
0
LINE
8
BLACK
6
CONTINUOUS
10
58.1277
20
-97.72
11
57.7857
21
-98.6597
0
LINE
8
BLACK
6
CONTINUOUS
10
62.574
20
-85.504
11
49.4183
21
-80.7157
0
LINE
8
BLACK
6
CONTINUOUS
10
60.1708
20
-93.5684
11
59.701
21
-93.3974
0
LINE
8
BLACK
6
CONTINUOUS
10
49.0762
20
-81.6554
11
49.4183
21
-80.7157
0
LINE
8
BLACK
6
CONTINUOUS
10
61.1969
20
-90.7494
11
60.7271
21
-90.5783
0
LINE
8
BLACK
6
CONTINUOUS
10
44.63
20
-93.8714
11
44.972
21
-92.9317
0
LINE
8
BLACK
6
CONTINUOUS
10
44.972
20
-92.9317
11
44.5022
21
-92.7607
0
LINE
8
BLACK
6
CONTINUOUS
10
46.4769
20
-88.7971
11
47.503
21
-85.978
0
LINE
8
BLACK
6
CONTINUOUS
10
58.5975
20
-97.891
11
60.1708
21
-93.5684
0
LINE
8
BLACK
6
CONTINUOUS
10
44.63
20
-93.8714
11
57.7857
21
-98.6597
0
LINE
8
BLACK
6
CONTINUOUS
10
62.7018
20
-86.6147
11
61.1969
21
-90.7494
0
LINE
8
BLACK
6
CONTINUOUS
10
60.7271
20
-90.5783
11
59.701
21
-93.3974
0
LINE
8
BLACK
6
CONTINUOUS
10
62.574
20
-85.504
11
62.2319
21
-86.4437
0
LINE
8
BLACK
6
CONTINUOUS
10
62.2319
20
-86.4437
11
62.7018
21
-86.6147
0
LINE
8
BLACK
6
CONTINUOUS
10
44.5022
20
-92.7607
11
46.007
21
-88.6261
0
LINE
8
BLACK
6
CONTINUOUS
10
48.6064
20
-81.4844
11
47.0331
21
-85.807
0
LINE
8
BLACK
6
CONTINUOUS
10
46.007
20
-88.6261
11
46.4769
21
-88.7971
0
CIRCLE
8
BLACK
10
131.959
20
-111.24
40
0.894427
0
LINE
8
BLACK
6
CONTINUOUS
10
128.753
20
-117.416
11
130.444
21
-118.032
0
LINE
8
BLACK
6
CONTINUOUS
10
130.444
20
-118.032
11
129.829
21
-119.723
0
LINE
8
BLACK
6
CONTINUOUS
10
129.829
20
-119.723
11
128.137
21
-119.107
0
LINE
8
BLACK
6
CONTINUOUS
10
128.137
20
-119.107
11
128.753
21
-117.416
0
LINE
8
BLACK
6
CONTINUOUS
10
110.186
20
-71.6426
11
123.342
21
-76.4309
0
LINE
8
BLACK
6
CONTINUOUS
10
114.632
20
-59.4266
11
114.162
21
-59.2556
0
LINE
8
BLACK
6
CONTINUOUS
10
110.528
20
-70.7029
11
110.058
21
-70.5319
0
LINE
8
BLACK
6
CONTINUOUS
10
123.684
20
-75.4912
11
123.342
21
-76.4309
0
LINE
8
BLACK
6
CONTINUOUS
10
114.632
20
-59.4266
11
114.974
21
-58.4869
0
LINE
8
BLACK
6
CONTINUOUS
10
123.684
20
-75.4912
11
124.154
21
-75.6622
0
LINE
8
BLACK
6
CONTINUOUS
10
112.589
20
-63.5782
11
113.059
21
-63.7492
0
LINE
8
BLACK
6
CONTINUOUS
10
127.788
20
-64.2149
11
128.258
21
-64.3859
0
LINE
8
BLACK
6
CONTINUOUS
10
128.13
20
-63.2752
11
114.974
21
-58.4869
0
LINE
8
BLACK
6
CONTINUOUS
10
124.154
20
-75.6622
11
125.727
21
-71.3396
0
LINE
8
BLACK
6
CONTINUOUS
10
114.162
20
-59.2556
11
112.589
21
-63.5782
0
LINE
8
BLACK
6
CONTINUOUS
10
111.563
20
-66.3973
11
112.033
21
-66.5683
0
LINE
8
BLACK
6
CONTINUOUS
10
112.033
20
-66.5683
11
113.059
21
-63.7492
0
LINE
8
BLACK
6
CONTINUOUS
10
128.258
20
-64.3859
11
126.753
21
-68.5206
0
LINE
8
BLACK
6
CONTINUOUS
10
110.186
20
-71.6426
11
110.528
21
-70.7029
0
LINE
8
BLACK
6
CONTINUOUS
10
110.058
20
-70.5319
11
111.563
21
-66.3973
0
LINE
8
BLACK
6
CONTINUOUS
10
126.283
20
-68.3496
11
125.257
21
-71.1686
0
LINE
8
BLACK
6
CONTINUOUS
10
128.13
20
-63.2752
11
127.788
21
-64.2149
0
LINE
8
BLACK
6
CONTINUOUS
10
126.753
20
-68.5206
11
126.283
21
-68.3496
0
LINE
8
BLACK
6
CONTINUOUS
10
125.727
20
-71.3396
11
125.257
21
-71.1686
0
LINE
8
BLACK
6
CONTINUOUS
10
92.9242
20
-56.208
11
92.4544
21
-56.0369
0
LINE
8
BLACK
6
CONTINUOUS
10
78.2042
20
-54.2557
11
79.2303
21
-51.4366
0
LINE
8
BLACK
6
CONTINUOUS
10
92.4544
20
-56.0369
11
91.4283
21
-58.856
0
LINE
8
BLACK
6
CONTINUOUS
10
76.3573
20
-59.33
11
76.6993
21
-58.3903
0
LINE
8
BLACK
6
CONTINUOUS
10
93.9593
20
-51.9023
11
94.4291
21
-52.0733
0
LINE
8
BLACK
6
CONTINUOUS
10
94.3013
20
-50.9626
11
93.9593
21
-51.9023
0
LINE
8
BLACK
6
CONTINUOUS
10
94.4291
20
-52.0733
11
92.9242
21
-56.208
0
LINE
8
BLACK
6
CONTINUOUS
10
76.6993
20
-58.3903
11
76.2295
21
-58.2193
0
LINE
8
BLACK
6
CONTINUOUS
10
94.3013
20
-50.9626
11
81.1456
21
-46.1743
0
LINE
8
BLACK
6
CONTINUOUS
10
80.8036
20
-47.114
11
81.1456
21
-46.1743
0
LINE
8
BLACK
6
CONTINUOUS
10
77.7344
20
-54.0847
11
78.2042
21
-54.2557
0
LINE
8
BLACK
6
CONTINUOUS
10
76.2295
20
-58.2193
11
77.7344
21
-54.0847
0
LINE
8
BLACK
6
CONTINUOUS
10
89.855
20
-63.1786
11
90.3249
21
-63.3496
0
LINE
8
BLACK
6
CONTINUOUS
10
76.3573
20
-59.33
11
89.513
21
-64.1183
0
LINE
8
BLACK
6
CONTINUOUS
10
89.855
20
-63.1786
11
89.513
21
-64.1183
0
LINE
8
BLACK
6
CONTINUOUS
10
90.3249
20
-63.3496
11
91.8982
21
-59.027
0
LINE
8
BLACK
6
CONTINUOUS
10
91.8982
20
-59.027
11
91.4283
21
-58.856
0
LINE
8
BLACK
6
CONTINUOUS
10
80.3337
20
-46.943
11
78.7604
21
-51.2656
0
LINE
8
BLACK
6
CONTINUOUS
10
80.8036
20
-47.114
11
80.3337
21
-46.943
0
LINE
8
BLACK
6
CONTINUOUS
10
78.7604
20
-51.2656
11
79.2303
21
-51.4366
0
LINE
8
BLACK
6
CONTINUOUS
10
227.53
20
-90.3402
11
227.999
21
-90.1692
0
LINE
8
BLACK
6
CONTINUOUS
10
223.083
20
-78.1242
11
209.928
21
-82.9125
0
LINE
8
BLACK
6
CONTINUOUS
10
226.426
20
-85.8466
11
225.956
21
-86.0176
0
LINE
8
BLACK
6
CONTINUOUS
10
210.27
20
-83.8522
11
209.928
21
-82.9125
0
LINE
8
BLACK
6
CONTINUOUS
10
214.374
20
-95.1285
11
213.904
21
-95.2995
0
LINE
8
BLACK
6
CONTINUOUS
10
227.53
20
-90.3402
11
227.872
21
-91.2799
0
LINE
8
BLACK
6
CONTINUOUS
10
223.895
20
-78.8929
11
225.4
21
-83.0275
0
LINE
8
BLACK
6
CONTINUOUS
10
213.904
20
-95.2995
11
212.399
21
-91.1649
0
LINE
8
BLACK
6
CONTINUOUS
10
211.373
20
-88.3458
11
211.843
21
-88.1748
0
LINE
8
BLACK
6
CONTINUOUS
10
209.8
20
-84.0232
11
211.373
21
-88.3458
0
LINE
8
BLACK
6
CONTINUOUS
10
223.425
20
-79.0639
11
223.895
21
-78.8929
0
LINE
8
BLACK
6
CONTINUOUS
10
212.869
20
-90.9938
11
211.843
21
-88.1748
0
LINE
8
BLACK
6
CONTINUOUS
10
223.083
20
-78.1242
11
223.425
21
-79.0639
0
LINE
8
BLACK
6
CONTINUOUS
10
214.716
20
-96.0682
11
214.374
21
-95.1285
0
LINE
8
BLACK
6
CONTINUOUS
10
214.716
20
-96.0682
11
227.872
21
-91.2799
0
LINE
8
BLACK
6
CONTINUOUS
10
224.93
20
-83.1985
11
225.956
21
-86.0176
0
LINE
8
BLACK
6
CONTINUOUS
10
225.4
20
-83.0275
11
224.93
21
-83.1985
0
LINE
8
BLACK
6
CONTINUOUS
10
227.999
20
-90.1692
11
226.426
21
-85.8466
0
LINE
8
BLACK
6
CONTINUOUS
10
212.399
20
-91.1649
11
212.869
21
-90.9938
0
LINE
8
BLACK
6
CONTINUOUS
10
210.27
20
-83.8522
11
209.8
21
-84.0232
0
LINE
8
BLACK
6
CONTINUOUS
10
108.348
20
-75.2304
11
106.775
21
-79.553
0
LINE
8
BLACK
6
CONTINUOUS
10
119.912
20
-87.3144
11
119.443
21
-87.1434
0
LINE
8
BLACK
6
CONTINUOUS
10
117.869
20
-91.466
11
118.339
21
-91.637
0
LINE
8
BLACK
6
CONTINUOUS
10
122.316
20
-79.25
11
109.16
21
-74.4617
0
LINE
8
BLACK
6
CONTINUOUS
10
104.372
20
-87.6174
11
104.714
21
-86.6777
0
LINE
8
BLACK
6
CONTINUOUS
10
104.714
20
-86.6777
11
104.244
21
-86.5067
0
LINE
8
BLACK
6
CONTINUOUS
10
104.244
20
-86.5067
11
105.749
21
-82.3721
0
LINE
8
BLACK
6
CONTINUOUS
10
120.939
20
-84.4953
11
120.469
21
-84.3243
0
LINE
8
BLACK
6
CONTINUOUS
10
106.775
20
-79.553
11
107.245
21
-79.724
0
LINE
8
BLACK
6
CONTINUOUS
10
122.316
20
-79.25
11
121.974
21
-80.1897
0
LINE
8
BLACK
6
CONTINUOUS
10
118.339
20
-91.637
11
119.912
21
-87.3144
0
LINE
8
BLACK
6
CONTINUOUS
10
122.443
20
-80.3607
11
120.939
21
-84.4953
0
LINE
8
BLACK
6
CONTINUOUS
10
105.749
20
-82.3721
11
106.219
21
-82.5431
0
LINE
8
BLACK
6
CONTINUOUS
10
108.818
20
-75.4014
11
109.16
21
-74.4617
0
LINE
8
BLACK
6
CONTINUOUS
10
117.869
20
-91.466
11
117.527
21
-92.4057
0
LINE
8
BLACK
6
CONTINUOUS
10
120.469
20
-84.3243
11
119.443
21
-87.1434
0
LINE
8
BLACK
6
CONTINUOUS
10
106.219
20
-82.5431
11
107.245
21
-79.724
0
LINE
8
BLACK
6
CONTINUOUS
10
104.372
20
-87.6174
11
117.527
21
-92.4057
0
LINE
8
BLACK
6
CONTINUOUS
10
121.974
20
-80.1897
11
122.443
21
-80.3607
0
LINE
8
BLACK
6
CONTINUOUS
10
108.818
20
-75.4014
11
108.348
21
-75.2304
0
CIRCLE
8
BLACK
10
93.6548
20
-96.9594
40
0.894427
0
LINE
8
BLACK
6
CONTINUOUS
10
85.4842
20
-93.8383
11
87.2229
21
-94.3042
0
LINE
8
BLACK
6
CONTINUOUS
10
86.757
20
-96.0429
11
85.0183
21
-95.577
0
LINE
8
BLACK
6
CONTINUOUS
10
85.0183
20
-95.577
11
85.4842
21
-93.8383
0
LINE
8
BLACK
6
CONTINUOUS
10
87.2229
20
-94.3042
11
86.757
21
-96.0429
0
LINE
8
BLACK
6
CONTINUOUS
10
154.174
20
-144.99
11
154.528
21
-144.637
0
LINE
8
BLACK
6
CONTINUOUS
10
164.286
20
-134.596
11
166.407
21
-136.717
0
LINE
8
BLACK
6
CONTINUOUS
10
160.467
20
-150.577
11
159.76
21
-149.869
0
LINE
8
BLACK
6
CONTINUOUS
10
150.921
20
-141.738
11
154.174
21
-144.99
0
LINE
8
BLACK
6
CONTINUOUS
10
169.66
20
-139.97
11
170.367
21
-140.677
0
LINE
8
BLACK
6
CONTINUOUS
10
164.639
20
-134.242
11
164.286
21
-134.596
0
LINE
8
BLACK
6
CONTINUOUS
10
159.407
20
-150.223
11
156.295
21
-147.112
0
LINE
8
BLACK
6
CONTINUOUS
10
151.275
20
-141.384
11
150.921
21
-141.738
0
LINE
8
BLACK
6
CONTINUOUS
10
170.013
20
-139.616
11
166.761
21
-136.364
0
LINE
8
BLACK
6
CONTINUOUS
10
160.467
20
-130.778
11
161.174
21
-131.485
0
LINE
8
BLACK
6
CONTINUOUS
10
156.649
20
-146.758
11
154.528
21
-144.637
0
LINE
8
BLACK
6
CONTINUOUS
10
166.761
20
-136.364
11
166.407
21
-136.717
0
LINE
8
BLACK
6
CONTINUOUS
10
160.467
20
-130.778
11
150.568
21
-140.677
0
LINE
8
BLACK
6
CONTINUOUS
10
169.66
20
-139.97
11
170.013
21
-139.616
0
LINE
8
BLACK
6
CONTINUOUS
10
161.528
20
-131.131
11
164.639
21
-134.242
0
LINE
8
BLACK
6
CONTINUOUS
10
159.76
20
-149.869
11
159.407
21
-150.223
0
LINE
8
BLACK
6
CONTINUOUS
10
161.174
20
-131.485
11
161.528
21
-131.131
0
LINE
8
BLACK
6
CONTINUOUS
10
156.295
20
-147.112
11
156.649
21
-146.758
0
LINE
8
BLACK
6
CONTINUOUS
10
160.467
20
-150.577
11
170.367
21
-140.677
0
LINE
8
BLACK
6
CONTINUOUS
10
151.275
20
-141.384
11
150.568
21
-140.677
0
LINE
8
BLACK
6
CONTINUOUS
10
191.932
20
-87.5606
11
192.402
21
-87.3896
0
LINE
8
BLACK
6
CONTINUOUS
10
194.463
20
-94.5143
11
192.958
21
-90.3797
0
LINE
8
BLACK
6
CONTINUOUS
10
195.275
20
-95.283
11
194.933
21
-94.3433
0
LINE
8
BLACK
6
CONTINUOUS
10
190.359
20
-83.238
11
191.932
21
-87.5606
0
LINE
8
BLACK
6
CONTINUOUS
10
205.489
20
-82.4134
11
206.516
21
-85.2325
0
LINE
8
BLACK
6
CONTINUOUS
10
208.559
20
-89.384
11
206.985
21
-85.0615
0
LINE
8
BLACK
6
CONTINUOUS
10
194.933
20
-94.3433
11
194.463
21
-94.5143
0
LINE
8
BLACK
6
CONTINUOUS
10
206.985
20
-85.0615
11
206.516
21
-85.2325
0
LINE
8
BLACK
6
CONTINUOUS
10
193.428
20
-90.2087
11
192.402
21
-87.3896
0
LINE
8
BLACK
6
CONTINUOUS
10
203.985
20
-78.2787
11
204.454
21
-78.1077
0
LINE
8
BLACK
6
CONTINUOUS
10
204.454
20
-78.1077
11
205.959
21
-82.2424
0
LINE
8
BLACK
6
CONTINUOUS
10
192.958
20
-90.3797
11
193.428
21
-90.2087
0
LINE
8
BLACK
6
CONTINUOUS
10
190.829
20
-83.067
11
190.487
21
-82.1273
0
LINE
8
BLACK
6
CONTINUOUS
10
208.089
20
-89.5551
11
208.559
21
-89.384
0
LINE
8
BLACK
6
CONTINUOUS
10
205.959
20
-82.2424
11
205.489
21
-82.4134
0
LINE
8
BLACK
6
CONTINUOUS
10
195.275
20
-95.283
11
208.431
21
-90.4947
0
LINE
8
BLACK
6
CONTINUOUS
10
203.643
20
-77.3391
11
190.487
21
-82.1273
0
LINE
8
BLACK
6
CONTINUOUS
10
190.829
20
-83.067
11
190.359
21
-83.238
0
LINE
8
BLACK
6
CONTINUOUS
10
208.089
20
-89.5551
11
208.431
21
-90.4947
0
LINE
8
BLACK
6
CONTINUOUS
10
203.643
20
-77.3391
11
203.985
21
-78.2787
0
CIRCLE
8
BLACK
10
93.0548
20
-99.097
40
0.894427
0
LINE
8
BLACK
6
CONTINUOUS
10
84.4183
20
-97.7147
11
84.8842
21
-95.976
0
LINE
8
BLACK
6
CONTINUOUS
10
86.157
20
-98.1805
11
84.4183
21
-97.7147
0
LINE
8
BLACK
6
CONTINUOUS
10
86.6229
20
-96.4419
11
86.157
21
-98.1805
0
LINE
8
BLACK
6
CONTINUOUS
10
84.8842
20
-95.976
11
86.6229
21
-96.4419
0
LINE
8
BLACK
6
CONTINUOUS
10
91.1752
20
-120.686
11
90.7221
21
-120.474
0
LINE
8
BLACK
6
CONTINUOUS
10
109.358
20
-114.82
11
96.6692
21
-108.904
0
LINE
8
BLACK
6
CONTINUOUS
10
96.2466
20
-109.81
11
95.7935
21
-109.599
0
LINE
8
BLACK
6
CONTINUOUS
10
93.8494
20
-113.768
11
94.3026
21
-113.979
0
LINE
8
BLACK
6
CONTINUOUS
10
90.7221
20
-120.474
11
92.5816
21
-116.487
0
LINE
8
BLACK
6
CONTINUOUS
10
104.317
20
-126.814
11
106.261
21
-122.645
0
LINE
8
BLACK
6
CONTINUOUS
10
107.075
20
-119.714
11
105.808
21
-122.433
0
LINE
8
BLACK
6
CONTINUOUS
10
90.7526
20
-121.592
11
91.1752
21
-120.686
0
LINE
8
BLACK
6
CONTINUOUS
10
109.388
20
-115.938
11
107.529
21
-119.926
0
LINE
8
BLACK
6
CONTINUOUS
10
92.5816
20
-116.487
11
93.0347
21
-116.698
0
LINE
8
BLACK
6
CONTINUOUS
10
103.864
20
-126.602
11
103.441
21
-127.509
0
LINE
8
BLACK
6
CONTINUOUS
10
108.935
20
-115.727
11
109.388
21
-115.938
0
LINE
8
BLACK
6
CONTINUOUS
10
93.0347
20
-116.698
11
94.3026
21
-113.979
0
LINE
8
BLACK
6
CONTINUOUS
10
107.529
20
-119.926
11
107.075
21
-119.714
0
LINE
8
BLACK
6
CONTINUOUS
10
109.358
20
-114.82
11
108.935
21
-115.727
0
LINE
8
BLACK
6
CONTINUOUS
10
103.864
20
-126.602
11
104.317
21
-126.814
0
LINE
8
BLACK
6
CONTINUOUS
10
95.7935
20
-109.599
11
93.8494
21
-113.768
0
LINE
8
BLACK
6
CONTINUOUS
10
90.7526
20
-121.592
11
103.441
21
-127.509
0
LINE
8
BLACK
6
CONTINUOUS
10
96.2466
20
-109.81
11
96.6692
21
-108.904
0
LINE
8
BLACK
6
CONTINUOUS
10
106.261
20
-122.645
11
105.808
21
-122.433
0
LINE
8
BLACK
6
CONTINUOUS
10
92.3863
20
-66.456
11
92.8561
21
-66.627
0
LINE
8
BLACK
6
CONTINUOUS
10
107.585
20
-67.0927
11
108.055
21
-67.2637
0
LINE
8
BLACK
6
CONTINUOUS
10
106.55
20
-71.3984
11
106.08
21
-71.2273
0
LINE
8
BLACK
6
CONTINUOUS
10
103.951
20
-78.54
11
105.524
21
-74.2174
0
LINE
8
BLACK
6
CONTINUOUS
10
89.9831
20
-74.5204
11
103.139
21
-79.3087
0
LINE
8
BLACK
6
CONTINUOUS
10
94.4294
20
-62.3044
11
93.9596
21
-62.1334
0
LINE
8
BLACK
6
CONTINUOUS
10
90.3252
20
-73.5807
11
89.8553
21
-73.4097
0
LINE
8
BLACK
6
CONTINUOUS
10
108.055
20
-67.2637
11
106.55
21
-71.3984
0
LINE
8
BLACK
6
CONTINUOUS
10
107.927
20
-66.153
11
107.585
21
-67.0927
0
LINE
8
BLACK
6
CONTINUOUS
10
89.8553
20
-73.4097
11
91.3602
21
-69.2751
0
LINE
8
BLACK
6
CONTINUOUS
10
107.927
20
-66.153
11
94.7714
21
-61.3647
0
LINE
8
BLACK
6
CONTINUOUS
10
105.524
20
-74.2174
11
105.054
21
-74.0464
0
LINE
8
BLACK
6
CONTINUOUS
10
106.08
20
-71.2273
11
105.054
21
-74.0464
0
LINE
8
BLACK
6
CONTINUOUS
10
94.4294
20
-62.3044
11
94.7714
21
-61.3647
0
LINE
8
BLACK
6
CONTINUOUS
10
93.9596
20
-62.1334
11
92.3863
21
-66.456
0
LINE
8
BLACK
6
CONTINUOUS
10
103.481
20
-78.369
11
103.139
21
-79.3087
0
LINE
8
BLACK
6
CONTINUOUS
10
103.481
20
-78.369
11
103.951
21
-78.54
0
LINE
8
BLACK
6
CONTINUOUS
10
91.3602
20
-69.2751
11
91.8301
21
-69.4461
0
LINE
8
BLACK
6
CONTINUOUS
10
91.8301
20
-69.4461
11
92.8561
21
-66.627
0
LINE
8
BLACK
6
CONTINUOUS
10
89.9831
20
-74.5204
11
90.3252
21
-73.5807
0
CIRCLE
8
BLACK
10
177.579
20
-105.145
40
0.894427
0
LINE
8
BLACK
6
CONTINUOUS
10
181.4
20
-113.013
11
179.709
21
-113.629
0
LINE
8
BLACK
6
CONTINUOUS
10
179.093
20
-111.937
11
180.784
21
-111.322
0
LINE
8
BLACK
6
CONTINUOUS
10
180.784
20
-111.322
11
181.4
21
-113.013
0
LINE
8
BLACK
6
CONTINUOUS
10
179.709
20
-113.629
11
179.093
21
-111.937
0
CIRCLE
8
BLACK
10
107.697
20
-72.4598
40
0.894427
0
LINE
8
BLACK
6
CONTINUOUS
10
103.876
20
-80.3273
11
104.491
21
-78.6359
0
LINE
8
BLACK
6
CONTINUOUS
10
105.567
20
-80.943
11
103.876
21
-80.3273
0
LINE
8
BLACK
6
CONTINUOUS
10
104.491
20
-78.6359
11
106.183
21
-79.2515
0
LINE
8
BLACK
6
CONTINUOUS
10
106.183
20
-79.2515
11
105.567
21
-80.943
0
LINE
8
BLACK
6
CONTINUOUS
10
207.055
20
-75.0191
11
206.029
21
-72.2
0
LINE
8
BLACK
6
CONTINUOUS
10
208.902
20
-80.0934
11
222.057
21
-75.3051
0
LINE
8
BLACK
6
CONTINUOUS
10
217.611
20
-63.0891
11
218.081
21
-62.9181
0
LINE
8
BLACK
6
CONTINUOUS
10
204.455
20
-67.8774
11
204.113
21
-66.9377
0
LINE
8
BLACK
6
CONTINUOUS
10
208.902
20
-80.0934
11
208.56
21
-79.1537
0
LINE
8
BLACK
6
CONTINUOUS
10
204.455
20
-67.8774
11
203.985
21
-68.0484
0
LINE
8
BLACK
6
CONTINUOUS
10
217.269
20
-62.1494
11
217.611
21
-63.0891
0
LINE
8
BLACK
6
CONTINUOUS
10
219.116
20
-67.2238
11
220.142
21
-70.0429
0
LINE
8
BLACK
6
CONTINUOUS
10
206.585
20
-75.1901
11
207.055
21
-75.0191
0
LINE
8
BLACK
6
CONTINUOUS
10
203.985
20
-68.0484
11
205.559
21
-72.371
0
LINE
8
BLACK
6
CONTINUOUS
10
208.56
20
-79.1537
11
208.09
21
-79.3247
0
LINE
8
BLACK
6
CONTINUOUS
10
219.586
20
-67.0528
11
219.116
21
-67.2238
0
LINE
8
BLACK
6
CONTINUOUS
10
208.09
20
-79.3247
11
206.585
21
-75.1901
0
LINE
8
BLACK
6
CONTINUOUS
10
217.269
20
-62.1494
11
204.113
21
-66.9377
0
LINE
8
BLACK
6
CONTINUOUS
10
205.559
20
-72.371
11
206.029
21
-72.2
0
LINE
8
BLACK
6
CONTINUOUS
10
221.715
20
-74.3654
11
222.185
21
-74.1944
0
LINE
8
BLACK
6
CONTINUOUS
10
220.612
20
-69.8718
11
220.142
21
-70.0429
0
LINE
8
BLACK
6
CONTINUOUS
10
221.715
20
-74.3654
11
222.057
21
-75.3051
0
LINE
8
BLACK
6
CONTINUOUS
10
218.081
20
-62.9181
11
219.586
21
-67.0528
0
LINE
8
BLACK
6
CONTINUOUS
10
222.185
20
-74.1944
11
220.612
21
-69.8718
0
LINE
8
BLACK
6
CONTINUOUS
10
198.171
20
-52.0736
11
199.744
21
-56.3962
0
LINE
8
BLACK
6
CONTINUOUS
10
216.371
20
-58.2197
11
214.797
21
-53.8971
0
LINE
8
BLACK
6
CONTINUOUS
10
201.24
20
-59.0443
11
200.214
21
-56.2252
0
LINE
8
BLACK
6
CONTINUOUS
10
214.797
20
-53.8971
11
214.328
21
-54.0681
0
LINE
8
BLACK
6
CONTINUOUS
10
211.455
20
-46.1747
11
211.797
21
-47.1144
0
LINE
8
BLACK
6
CONTINUOUS
10
202.275
20
-63.35
11
200.77
21
-59.2153
0
LINE
8
BLACK
6
CONTINUOUS
10
211.455
20
-46.1747
11
198.299
21
-50.9629
0
LINE
8
BLACK
6
CONTINUOUS
10
213.771
20
-51.078
11
213.302
21
-51.249
0
LINE
8
BLACK
6
CONTINUOUS
10
202.745
20
-63.1789
11
202.275
21
-63.35
0
LINE
8
BLACK
6
CONTINUOUS
10
212.266
20
-46.9433
11
213.771
21
-51.078
0
LINE
8
BLACK
6
CONTINUOUS
10
203.087
20
-64.1186
11
202.745
21
-63.1789
0
LINE
8
BLACK
6
CONTINUOUS
10
211.797
20
-47.1144
11
212.266
21
-46.9433
0
LINE
8
BLACK
6
CONTINUOUS
10
198.641
20
-51.9026
11
198.299
21
-50.9629
0
LINE
8
BLACK
6
CONTINUOUS
10
213.302
20
-51.249
11
214.328
21
-54.0681
0
LINE
8
BLACK
6
CONTINUOUS
10
199.744
20
-56.3962
11
200.214
21
-56.2252
0
LINE
8
BLACK
6
CONTINUOUS
10
203.087
20
-64.1186
11
216.243
21
-59.3304
0
LINE
8
BLACK
6
CONTINUOUS
10
198.641
20
-51.9026
11
198.171
21
-52.0736
0
LINE
8
BLACK
6
CONTINUOUS
10
215.901
20
-58.3907
11
216.371
21
-58.2197
0
LINE
8
BLACK
6
CONTINUOUS
10
200.77
20
-59.2153
11
201.24
21
-59.0443
0
LINE
8
BLACK
6
CONTINUOUS
10
215.901
20
-58.3907
11
216.243
21
-59.3304
0
LINE
8
BLACK
6
CONTINUOUS
10
187.887
20
-86.678
11
188.229
21
-87.6177
0
LINE
8
BLACK
6
CONTINUOUS
10
170.627
20
-80.19
11
170.285
21
-79.2503
0
LINE
8
BLACK
6
CONTINUOUS
10
170.157
20
-80.361
11
171.73
21
-84.6836
0
LINE
8
BLACK
6
CONTINUOUS
10
175.073
20
-92.406
11
188.229
21
-87.6177
0
LINE
8
BLACK
6
CONTINUOUS
10
173.226
20
-87.3317
11
172.2
21
-84.5126
0
LINE
8
BLACK
6
CONTINUOUS
10
187.887
20
-86.678
11
188.356
21
-86.507
0
LINE
8
BLACK
6
CONTINUOUS
10
174.261
20
-91.6373
11
172.756
21
-87.5027
0
LINE
8
BLACK
6
CONTINUOUS
10
170.627
20
-80.19
11
170.157
21
-80.361
0
LINE
8
BLACK
6
CONTINUOUS
10
188.356
20
-86.507
11
186.783
21
-82.1845
0
LINE
8
BLACK
6
CONTINUOUS
10
185.757
20
-79.3654
11
185.287
21
-79.5364
0
LINE
8
BLACK
6
CONTINUOUS
10
183.44
20
-74.462
11
170.285
21
-79.2503
0
LINE
8
BLACK
6
CONTINUOUS
10
186.783
20
-82.1845
11
186.313
21
-82.3555
0
LINE
8
BLACK
6
CONTINUOUS
10
185.287
20
-79.5364
11
186.313
21
-82.3555
0
LINE
8
BLACK
6
CONTINUOUS
10
171.73
20
-84.6836
11
172.2
21
-84.5126
0
LINE
8
BLACK
6
CONTINUOUS
10
174.731
20
-91.4663
11
174.261
21
-91.6373
0
LINE
8
BLACK
6
CONTINUOUS
10
183.44
20
-74.462
11
183.782
21
-75.4017
0
LINE
8
BLACK
6
CONTINUOUS
10
172.756
20
-87.5027
11
173.226
21
-87.3317
0
LINE
8
BLACK
6
CONTINUOUS
10
183.782
20
-75.4017
11
184.252
21
-75.2307
0
LINE
8
BLACK
6
CONTINUOUS
10
175.073
20
-92.406
11
174.731
21
-91.4663
0
LINE
8
BLACK
6
CONTINUOUS
10
184.252
20
-75.2307
11
185.757
21
-79.3654
0
LINE
8
BLACK
6
CONTINUOUS
10
202.274
20
-73.5803
11
202.744
21
-73.4093
0
LINE
8
BLACK
6
CONTINUOUS
10
184.545
20
-67.2633
11
186.118
21
-71.5858
0
LINE
8
BLACK
6
CONTINUOUS
10
197.828
20
-61.3643
11
198.17
21
-62.304
0
LINE
8
BLACK
6
CONTINUOUS
10
189.461
20
-79.3083
11
189.119
21
-78.3686
0
LINE
8
BLACK
6
CONTINUOUS
10
202.744
20
-73.4093
11
201.171
21
-69.0867
0
LINE
8
BLACK
6
CONTINUOUS
10
200.145
20
-66.2676
11
199.675
21
-66.4386
0
LINE
8
BLACK
6
CONTINUOUS
10
185.015
20
-67.0923
11
184.672
21
-66.1526
0
LINE
8
BLACK
6
CONTINUOUS
10
185.015
20
-67.0923
11
184.545
21
-67.2633
0
LINE
8
BLACK
6
CONTINUOUS
10
199.675
20
-66.4386
11
200.701
21
-69.2577
0
LINE
8
BLACK
6
CONTINUOUS
10
187.144
20
-74.4049
11
187.614
21
-74.2339
0
LINE
8
BLACK
6
CONTINUOUS
10
189.119
20
-78.3686
11
188.649
21
-78.5396
0
LINE
8
BLACK
6
CONTINUOUS
10
188.649
20
-78.5396
11
187.144
21
-74.4049
0
LINE
8
BLACK
6
CONTINUOUS
10
198.64
20
-62.133
11
200.145
21
-66.2676
0
LINE
8
BLACK
6
CONTINUOUS
10
202.274
20
-73.5803
11
202.616
21
-74.52
0
LINE
8
BLACK
6
CONTINUOUS
10
187.614
20
-74.2339
11
186.588
21
-71.4148
0
LINE
8
BLACK
6
CONTINUOUS
10
186.118
20
-71.5858
11
186.588
21
-71.4148
0
LINE
8
BLACK
6
CONTINUOUS
10
198.17
20
-62.304
11
198.64
21
-62.133
0
LINE
8
BLACK
6
CONTINUOUS
10
201.171
20
-69.0867
11
200.701
21
-69.2577
0
LINE
8
BLACK
6
CONTINUOUS
10
197.828
20
-61.3643
11
184.672
21
-66.1526
0
LINE
8
BLACK
6
CONTINUOUS
10
189.461
20
-79.3083
11
202.616
21
-74.52
0
CIRCLE
8
BLACK
10
51.0866
20
-69.9725
40
0.894427
0
LINE
8
BLACK
6
CONTINUOUS
10
48.9567
20
-78.4557
11
47.2653
21
-77.84
0
LINE
8
BLACK
6
CONTINUOUS
10
49.5723
20
-76.7642
11
48.9567
21
-78.4557
0
LINE
8
BLACK
6
CONTINUOUS
10
47.2653
20
-77.84
11
47.8809
21
-76.1486
0
LINE
8
BLACK
6
CONTINUOUS
10
47.8809
20
-76.1486
11
49.5723
21
-76.7642
0
LINE
8
BLACK
6
CONTINUOUS
10
137.7
20
-123.1
11
137.7
21
-118.8
0
LINE
8
BLACK
6
CONTINUOUS
10
154.9
20
-123.1
11
154.2
21
-123.1
0
LINE
8
BLACK
6
CONTINUOUS
10
138.4
20
-110.7
11
142.6
21
-110.7
0
LINE
8
BLACK
6
CONTINUOUS
10
154.2
20
-131.6
11
150
21
-131.6
0
LINE
8
BLACK
6
CONTINUOUS
10
154.2
20
-118.8
11
154.9
21
-118.8
0
LINE
8
BLACK
6
CONTINUOUS
10
142.6
20
-130.8
11
142.6
21
-131.6
0
LINE
8
BLACK
6
CONTINUOUS
10
142.6
20
-111.55
11
142.6
21
-110.7
0
LINE
8
BLACK
6
CONTINUOUS
10
154.2
20
-123.1
11
154.2
21
-131.6
0
LINE
8
BLACK
6
CONTINUOUS
10
150
20
-111.55
11
150
21
-110.7
0
LINE
8
BLACK
6
CONTINUOUS
10
150
20
-131.6
11
150
21
-130.8
0
LINE
8
BLACK
6
CONTINUOUS
10
138.4
20
-118.8
11
138.4
21
-110.7
0
LINE
8
BLACK
6
CONTINUOUS
10
142.6
20
-131.6
11
138.4
21
-131.6
0
LINE
8
BLACK
6
CONTINUOUS
10
142.6
20
-111.55
11
150
21
-111.55
0
LINE
8
BLACK
6
CONTINUOUS
10
154.2
20
-110.7
11
154.2
21
-118.8
0
LINE
8
BLACK
6
CONTINUOUS
10
138.4
20
-131.6
11
138.4
21
-123.1
0
LINE
8
BLACK
6
CONTINUOUS
10
154.9
20
-118.8
11
154.9
21
-123.1
0
LINE
8
BLACK
6
CONTINUOUS
10
138.4
20
-123.1
11
137.7
21
-123.1
0
LINE
8
BLACK
6
CONTINUOUS
10
137.7
20
-118.8
11
138.4
21
-118.8
0
LINE
8
BLACK
6
CONTINUOUS
10
150
20
-110.7
11
154.2
21
-110.7
0
LINE
8
BLACK
6
CONTINUOUS
10
150
20
-130.8
11
142.6
21
-130.8
0
CIRCLE
8
BLACK
10
202.373
20
-101.059
40
0.894427
0
LINE
8
BLACK
6
CONTINUOUS
10
208.805
20
-98.4042
11
210.544
21
-97.9383
0
LINE
8
BLACK
6
CONTINUOUS
10
210.544
20
-97.9383
11
211.009
21
-99.677
0
LINE
8
BLACK
6
CONTINUOUS
10
211.009
20
-99.677
11
209.271
21
-100.143
0
LINE
8
BLACK
6
CONTINUOUS
10
209.271
20
-100.143
11
208.805
21
-98.4042
0
LINE
8
BLACK
6
CONTINUOUS
10
189.158
20
-127.509
11
201.846
21
-121.592
0
LINE
8
BLACK
6
CONTINUOUS
10
189.158
20
-127.509
11
188.735
21
-126.603
0
LINE
8
BLACK
6
CONTINUOUS
10
188.735
20
-126.603
11
188.282
21
-126.814
0
LINE
8
BLACK
6
CONTINUOUS
10
196.805
20
-109.599
11
198.665
21
-113.587
0
LINE
8
BLACK
6
CONTINUOUS
10
196.352
20
-109.81
11
196.805
21
-109.599
0
LINE
8
BLACK
6
CONTINUOUS
10
195.93
20
-108.904
11
183.241
21
-114.821
0
LINE
8
BLACK
6
CONTINUOUS
10
183.664
20
-115.727
11
183.211
21
-115.938
0
LINE
8
BLACK
6
CONTINUOUS
10
201.877
20
-120.475
11
199.933
21
-116.306
0
LINE
8
BLACK
6
CONTINUOUS
10
195.93
20
-108.904
11
196.352
21
-109.81
0
LINE
8
BLACK
6
CONTINUOUS
10
188.282
20
-126.814
11
186.423
21
-122.826
0
LINE
8
BLACK
6
CONTINUOUS
10
201.424
20
-120.686
11
201.846
21
-121.592
0
LINE
8
BLACK
6
CONTINUOUS
10
183.211
20
-115.938
11
185.155
21
-120.107
0
LINE
8
BLACK
6
CONTINUOUS
10
183.664
20
-115.727
11
183.241
21
-114.821
0
LINE
8
BLACK
6
CONTINUOUS
10
186.423
20
-122.826
11
186.876
21
-122.615
0
LINE
8
BLACK
6
CONTINUOUS
10
198.212
20
-113.798
11
199.48
21
-116.517
0
LINE
8
BLACK
6
CONTINUOUS
10
199.933
20
-116.306
11
199.48
21
-116.517
0
LINE
8
BLACK
6
CONTINUOUS
10
201.424
20
-120.686
11
201.877
21
-120.475
0
LINE
8
BLACK
6
CONTINUOUS
10
186.876
20
-122.615
11
185.608
21
-119.896
0
LINE
8
BLACK
6
CONTINUOUS
10
198.665
20
-113.587
11
198.212
21
-113.798
0
LINE
8
BLACK
6
CONTINUOUS
10
185.155
20
-120.107
11
185.608
21
-119.896
0
CIRCLE
8
BLACK
10
82.5367
20
-88.9595
40
0.894427
0
LINE
8
BLACK
6
CONTINUOUS
10
78.7154
20
-96.827
11
79.331
21
-95.1355
0
LINE
8
BLACK
6
CONTINUOUS
10
81.0225
20
-95.7512
11
80.4068
21
-97.4426
0
LINE
8
BLACK
6
CONTINUOUS
10
80.4068
20
-97.4426
11
78.7154
21
-96.827
0
LINE
8
BLACK
6
CONTINUOUS
10
79.331
20
-95.1355
11
81.0225
21
-95.7512
0
CIRCLE
8
BLACK
10
137.779
20
-95.2173
40
0.894427
0
LINE
8
BLACK
6
CONTINUOUS
10
133.958
20
-103.085
11
134.574
21
-101.393
0
LINE
8
BLACK
6
CONTINUOUS
10
134.574
20
-101.393
11
136.265
21
-102.009
0
LINE
8
BLACK
6
CONTINUOUS
10
136.265
20
-102.009
11
135.649
21
-103.7
0
LINE
8
BLACK
6
CONTINUOUS
10
135.649
20
-103.7
11
133.958
21
-103.085
0
LINE
8
BLACK
6
CONTINUOUS
10
103.004
20
-91.3762
11
102.534
21
-91.2052
0
LINE
8
BLACK
6
CONTINUOUS
10
116.629
20
-96.3355
11
115.124
21
-100.47
0
LINE
8
BLACK
6
CONTINUOUS
10
112.055
20
-107.441
11
112.525
21
-107.612
0
LINE
8
BLACK
6
CONTINUOUS
10
114.098
20
-103.289
11
113.628
21
-103.118
0
LINE
8
BLACK
6
CONTINUOUS
10
98.8993
20
-102.652
11
98.4294
21
-102.481
0
LINE
8
BLACK
6
CONTINUOUS
10
116.501
20
-95.2248
11
103.346
21
-90.4365
0
LINE
8
BLACK
6
CONTINUOUS
10
112.525
20
-107.612
11
114.098
21
-103.289
0
LINE
8
BLACK
6
CONTINUOUS
10
102.534
20
-91.2052
11
100.96
21
-95.5278
0
LINE
8
BLACK
6
CONTINUOUS
10
99.9343
20
-98.3468
11
100.404
21
-98.5178
0
LINE
8
BLACK
6
CONTINUOUS
10
116.159
20
-96.1645
11
116.629
21
-96.3355
0
LINE
8
BLACK
6
CONTINUOUS
10
100.96
20
-95.5278
11
101.43
21
-95.6988
0
LINE
8
BLACK
6
CONTINUOUS
10
115.124
20
-100.47
11
114.654
21
-100.299
0
LINE
8
BLACK
6
CONTINUOUS
10
98.5573
20
-103.592
11
111.713
21
-108.38
0
LINE
8
BLACK
6
CONTINUOUS
10
112.055
20
-107.441
11
111.713
21
-108.38
0
LINE
8
BLACK
6
CONTINUOUS
10
100.404
20
-98.5178
11
101.43
21
-95.6988
0
LINE
8
BLACK
6
CONTINUOUS
10
98.5573
20
-103.592
11
98.8993
21
-102.652
0
LINE
8
BLACK
6
CONTINUOUS
10
98.4294
20
-102.481
11
99.9343
21
-98.3468
0
LINE
8
BLACK
6
CONTINUOUS
10
103.004
20
-91.3762
11
103.346
21
-90.4365
0
LINE
8
BLACK
6
CONTINUOUS
10
116.501
20
-95.2248
11
116.159
21
-96.1645
0
LINE
8
BLACK
6
CONTINUOUS
10
114.654
20
-100.299
11
113.628
21
-103.118
0
CIRCLE
8
BLACK
10
62.3739
20
-91.8852
40
0.894427
0
LINE
8
BLACK
6
CONTINUOUS
10
60.8597
20
-98.6769
11
60.244
21
-100.368
0
LINE
8
BLACK
6
CONTINUOUS
10
60.244
20
-100.368
11
58.5526
21
-99.7527
0
LINE
8
BLACK
6
CONTINUOUS
10
59.1682
20
-98.0613
11
60.8597
21
-98.6769
0
LINE
8
BLACK
6
CONTINUOUS
10
58.5526
20
-99.7527
11
59.1682
21
-98.0613
0
LINE
8
BLACK
6
CONTINUOUS
10
102.113
20
-82.1278
11
88.9571
21
-77.3395
0
LINE
8
BLACK
6
CONTINUOUS
10
84.041
20
-89.3845
11
85.5459
21
-85.2498
0
LINE
8
BLACK
6
CONTINUOUS
10
100.736
20
-87.3731
11
100.266
21
-87.2021
0
LINE
8
BLACK
6
CONTINUOUS
10
102.113
20
-82.1278
11
101.771
21
-83.0675
0
LINE
8
BLACK
6
CONTINUOUS
10
84.1688
20
-90.4952
11
97.3245
21
-95.2835
0
LINE
8
BLACK
6
CONTINUOUS
10
102.241
20
-83.2385
11
100.736
21
-87.3731
0
LINE
8
BLACK
6
CONTINUOUS
10
86.0157
20
-85.4208
11
87.0418
21
-82.6018
0
LINE
8
BLACK
6
CONTINUOUS
10
86.5719
20
-82.4308
11
87.0418
21
-82.6018
0
LINE
8
BLACK
6
CONTINUOUS
10
84.5108
20
-89.5555
11
84.041
21
-89.3845
0
LINE
8
BLACK
6
CONTINUOUS
10
88.6151
20
-78.2792
11
88.9571
21
-77.3395
0
LINE
8
BLACK
6
CONTINUOUS
10
85.5459
20
-85.2498
11
86.0157
21
-85.4208
0
LINE
8
BLACK
6
CONTINUOUS
10
88.6151
20
-78.2792
11
88.1452
21
-78.1082
0
LINE
8
BLACK
6
CONTINUOUS
10
84.1688
20
-90.4952
11
84.5108
21
-89.5555
0
LINE
8
BLACK
6
CONTINUOUS
10
97.6665
20
-94.3438
11
97.3245
21
-95.2835
0
LINE
8
BLACK
6
CONTINUOUS
10
88.1452
20
-78.1082
11
86.5719
21
-82.4308
0
LINE
8
BLACK
6
CONTINUOUS
10
100.266
20
-87.2021
11
99.2398
21
-90.0212
0
LINE
8
BLACK
6
CONTINUOUS
10
97.6665
20
-94.3438
11
98.1364
21
-94.5148
0
LINE
8
BLACK
6
CONTINUOUS
10
101.771
20
-83.0675
11
102.241
21
-83.2385
0
LINE
8
BLACK
6
CONTINUOUS
10
99.7097
20
-90.1922
11
99.2398
21
-90.0212
0
LINE
8
BLACK
6
CONTINUOUS
10
98.1364
20
-94.5148
11
99.7097
21
-90.1922
0
LINE
8
BLACK
6
CONTINUOUS
10
154.973
20
-89.8119
11
154.504
21
-89.9829
0
LINE
8
BLACK
6
CONTINUOUS
10
154.504
20
-89.9829
11
156.077
21
-94.3055
0
LINE
8
BLACK
6
CONTINUOUS
10
156.077
20
-94.3055
11
156.547
21
-94.1345
0
LINE
8
BLACK
6
CONTINUOUS
10
167.787
20
-84.0839
11
168.129
21
-85.0236
0
LINE
8
BLACK
6
CONTINUOUS
10
168.599
20
-84.8526
11
170.104
21
-88.9873
0
LINE
8
BLACK
6
CONTINUOUS
10
157.573
20
-96.9536
11
156.547
21
-94.1345
0
LINE
8
BLACK
6
CONTINUOUS
10
171.13
20
-91.8063
11
170.66
21
-91.9774
0
LINE
8
BLACK
6
CONTINUOUS
10
159.078
20
-101.088
11
158.608
21
-101.259
0
LINE
8
BLACK
6
CONTINUOUS
10
159.42
20
-102.028
11
172.575
21
-97.2396
0
LINE
8
BLACK
6
CONTINUOUS
10
168.129
20
-85.0236
11
168.599
21
-84.8526
0
LINE
8
BLACK
6
CONTINUOUS
10
169.634
20
-89.1583
11
170.66
21
-91.9774
0
LINE
8
BLACK
6
CONTINUOUS
10
157.103
20
-97.1246
11
157.573
21
-96.9536
0
LINE
8
BLACK
6
CONTINUOUS
10
158.608
20
-101.259
11
157.103
21
-97.1246
0
LINE
8
BLACK
6
CONTINUOUS
10
170.104
20
-88.9873
11
169.634
21
-89.1583
0
LINE
8
BLACK
6
CONTINUOUS
10
167.787
20
-84.0839
11
154.631
21
-88.8722
0
LINE
8
BLACK
6
CONTINUOUS
10
172.233
20
-96.2999
11
172.703
21
-96.1289
0
LINE
8
BLACK
6
CONTINUOUS
10
172.703
20
-96.1289
11
171.13
21
-91.8063
0
LINE
8
BLACK
6
CONTINUOUS
10
154.973
20
-89.8119
11
154.631
21
-88.8722
0
LINE
8
BLACK
6
CONTINUOUS
10
172.233
20
-96.2999
11
172.575
21
-97.2396
0
LINE
8
BLACK
6
CONTINUOUS
10
159.42
20
-102.028
11
159.078
21
-101.088
0
CIRCLE
8
BLACK
10
127.913
20
-69.6253
40
0.894427
0
LINE
8
BLACK
6
CONTINUOUS
10
126.399
20
-76.417
11
125.784
21
-78.1085
0
LINE
8
BLACK
6
CONTINUOUS
10
124.092
20
-77.4928
11
124.708
21
-75.8014
0
LINE
8
BLACK
6
CONTINUOUS
10
124.708
20
-75.8014
11
126.399
21
-76.417
0
LINE
8
BLACK
6
CONTINUOUS
10
125.784
20
-78.1085
11
124.092
21
-77.4928
0
LINE
8
BLACK
6
CONTINUOUS
10
182.072
20
-70.7033
11
182.414
21
-71.643
0
LINE
8
BLACK
6
CONTINUOUS
10
177.626
20
-58.4873
11
164.47
21
-63.2756
0
LINE
8
BLACK
6
CONTINUOUS
10
169.259
20
-76.4312
11
182.414
21
-71.643
0
LINE
8
BLACK
6
CONTINUOUS
10
164.812
20
-64.2152
11
164.342
21
-64.3863
0
LINE
8
BLACK
6
CONTINUOUS
10
166.942
20
-71.5279
11
167.412
21
-71.3569
0
LINE
8
BLACK
6
CONTINUOUS
10
179.943
20
-63.3906
11
179.473
21
-63.5616
0
LINE
8
BLACK
6
CONTINUOUS
10
177.968
20
-59.427
11
178.438
21
-59.256
0
LINE
8
BLACK
6
CONTINUOUS
10
177.626
20
-58.4873
11
177.968
21
-59.427
0
LINE
8
BLACK
6
CONTINUOUS
10
169.259
20
-76.4312
11
168.917
21
-75.4916
0
LINE
8
BLACK
6
CONTINUOUS
10
182.542
20
-70.5323
11
180.969
21
-66.2097
0
LINE
8
BLACK
6
CONTINUOUS
10
178.438
20
-59.256
11
179.943
21
-63.3906
0
LINE
8
BLACK
6
CONTINUOUS
10
164.812
20
-64.2152
11
164.47
21
-63.2756
0
LINE
8
BLACK
6
CONTINUOUS
10
164.342
20
-64.3863
11
165.916
21
-68.7088
0
LINE
8
BLACK
6
CONTINUOUS
10
167.412
20
-71.3569
11
166.386
21
-68.5378
0
LINE
8
BLACK
6
CONTINUOUS
10
168.917
20
-75.4916
11
168.447
21
-75.6626
0
LINE
8
BLACK
6
CONTINUOUS
10
179.473
20
-63.5616
11
180.499
21
-66.3807
0
LINE
8
BLACK
6
CONTINUOUS
10
168.447
20
-75.6626
11
166.942
21
-71.5279
0
LINE
8
BLACK
6
CONTINUOUS
10
165.916
20
-68.7088
11
166.386
21
-68.5378
0
LINE
8
BLACK
6
CONTINUOUS
10
180.969
20
-66.2097
11
180.499
21
-66.3807
0
LINE
8
BLACK
6
CONTINUOUS
10
182.072
20
-70.7033
11
182.542
21
-70.5323
0
LINE
8
BLACK
6
CONTINUOUS
10
141.678
20
-141.737
11
138.567
21
-144.848
0
LINE
8
BLACK
6
CONTINUOUS
10
131.071
20
-131.131
11
127.819
21
-134.383
0
LINE
8
BLACK
6
CONTINUOUS
10
133.193
20
-150.222
11
136.445
21
-146.97
0
LINE
8
BLACK
6
CONTINUOUS
10
122.232
20
-140.677
11
132.132
21
-150.576
0
LINE
8
BLACK
6
CONTINUOUS
10
122.232
20
-140.677
11
122.94
21
-139.969
0
LINE
8
BLACK
6
CONTINUOUS
10
122.586
20
-139.616
11
125.697
21
-136.505
0
LINE
8
BLACK
6
CONTINUOUS
10
131.425
20
-131.484
11
131.071
21
-131.131
0
LINE
8
BLACK
6
CONTINUOUS
10
142.031
20
-140.677
11
132.132
21
-130.777
0
LINE
8
BLACK
6
CONTINUOUS
10
126.051
20
-136.858
11
128.172
21
-134.737
0
LINE
8
BLACK
6
CONTINUOUS
10
132.839
20
-149.869
11
132.132
21
-150.576
0
LINE
8
BLACK
6
CONTINUOUS
10
127.819
20
-134.383
11
128.172
21
-134.737
0
LINE
8
BLACK
6
CONTINUOUS
10
138.213
20
-144.495
11
136.092
21
-146.616
0
LINE
8
BLACK
6
CONTINUOUS
10
138.567
20
-144.848
11
138.213
21
-144.495
0
LINE
8
BLACK
6
CONTINUOUS
10
142.031
20
-140.677
11
141.324
21
-141.384
0
LINE
8
BLACK
6
CONTINUOUS
10
132.839
20
-149.869
11
133.193
21
-150.222
0
LINE
8
BLACK
6
CONTINUOUS
10
131.425
20
-131.484
11
132.132
21
-130.777
0
LINE
8
BLACK
6
CONTINUOUS
10
122.94
20
-139.969
11
122.586
21
-139.616
0
LINE
8
BLACK
6
CONTINUOUS
10
136.445
20
-146.97
11
136.092
21
-146.616
0
LINE
8
BLACK
6
CONTINUOUS
10
125.697
20
-136.505
11
126.051
21
-136.858
0
LINE
8
BLACK
6
CONTINUOUS
10
141.324
20
-141.384
11
141.678
21
-141.737
0
LINE
8
BLACK
6
CONTINUOUS
10
228.658
20
-81.7456
11
228.188
21
-81.9166
0
LINE
8
BLACK
6
CONTINUOUS
10
241.814
20
-76.9573
11
242.284
21
-76.7863
0
LINE
8
BLACK
6
CONTINUOUS
10
239.215
20
-69.8156
11
240.241
21
-72.6347
0
LINE
8
BLACK
6
CONTINUOUS
10
237.71
20
-65.681
11
238.179
21
-65.51
0
LINE
8
BLACK
6
CONTINUOUS
10
224.084
20
-70.6403
11
225.657
21
-74.9629
0
LINE
8
BLACK
6
CONTINUOUS
10
242.284
20
-76.7863
11
240.71
21
-72.4637
0
LINE
8
BLACK
6
CONTINUOUS
10
239.684
20
-69.6446
11
239.215
21
-69.8156
0
LINE
8
BLACK
6
CONTINUOUS
10
241.814
20
-76.9573
11
242.156
21
-77.897
0
LINE
8
BLACK
6
CONTINUOUS
10
238.179
20
-65.51
11
239.684
21
-69.6446
0
LINE
8
BLACK
6
CONTINUOUS
10
226.683
20
-77.7819
11
227.153
21
-77.6109
0
LINE
8
BLACK
6
CONTINUOUS
10
227.153
20
-77.6109
11
226.127
21
-74.7918
0
LINE
8
BLACK
6
CONTINUOUS
10
224.554
20
-70.4693
11
224.212
21
-69.5296
0
LINE
8
BLACK
6
CONTINUOUS
10
224.554
20
-70.4693
11
224.084
21
-70.6403
0
LINE
8
BLACK
6
CONTINUOUS
10
228.188
20
-81.9166
11
226.683
21
-77.7819
0
LINE
8
BLACK
6
CONTINUOUS
10
229
20
-82.6853
11
228.658
21
-81.7456
0
LINE
8
BLACK
6
CONTINUOUS
10
237.368
20
-64.7413
11
237.71
21
-65.681
0
LINE
8
BLACK
6
CONTINUOUS
10
240.71
20
-72.4637
11
240.241
21
-72.6347
0
LINE
8
BLACK
6
CONTINUOUS
10
229
20
-82.6853
11
242.156
21
-77.897
0
LINE
8
BLACK
6
CONTINUOUS
10
225.657
20
-74.9629
11
226.127
21
-74.7918
0
LINE
8
BLACK
6
CONTINUOUS
10
237.368
20
-64.7413
11
224.212
21
-69.5296
0
LINE
8
BLACK
6
CONTINUOUS
10
139.807
20
-85.2841
11
141.38
21
-80.9615
0
LINE
8
BLACK
6
CONTINUOUS
10
142.406
20
-78.1425
11
141.936
21
-77.9715
0
LINE
8
BLACK
6
CONTINUOUS
10
141.936
20
-77.9715
11
140.91
21
-80.7905
0
LINE
8
BLACK
6
CONTINUOUS
10
143.783
20
-72.8971
11
130.627
21
-68.1088
0
LINE
8
BLACK
6
CONTINUOUS
10
129.816
20
-68.8775
11
128.242
21
-73.2001
0
LINE
8
BLACK
6
CONTINUOUS
10
130.285
20
-69.0485
11
130.627
21
-68.1088
0
LINE
8
BLACK
6
CONTINUOUS
10
130.285
20
-69.0485
11
129.816
21
-68.8775
0
LINE
8
BLACK
6
CONTINUOUS
10
143.441
20
-73.8368
11
143.911
21
-74.0078
0
LINE
8
BLACK
6
CONTINUOUS
10
139.337
20
-85.1131
11
139.807
21
-85.2841
0
LINE
8
BLACK
6
CONTINUOUS
10
125.711
20
-80.1538
11
127.216
21
-76.0192
0
LINE
8
BLACK
6
CONTINUOUS
10
126.181
20
-80.3248
11
125.711
21
-80.1538
0
LINE
8
BLACK
6
CONTINUOUS
10
143.911
20
-74.0078
11
142.406
21
-78.1425
0
LINE
8
BLACK
6
CONTINUOUS
10
143.783
20
-72.8971
11
143.441
21
-73.8368
0
LINE
8
BLACK
6
CONTINUOUS
10
139.337
20
-85.1131
11
138.995
21
-86.0528
0
LINE
8
BLACK
6
CONTINUOUS
10
127.216
20
-76.0192
11
127.686
21
-76.1902
0
LINE
8
BLACK
6
CONTINUOUS
10
141.38
20
-80.9615
11
140.91
21
-80.7905
0
LINE
8
BLACK
6
CONTINUOUS
10
128.242
20
-73.2001
11
128.712
21
-73.3711
0
LINE
8
BLACK
6
CONTINUOUS
10
127.686
20
-76.1902
11
128.712
21
-73.3711
0
LINE
8
BLACK
6
CONTINUOUS
10
125.839
20
-81.2645
11
138.995
21
-86.0528
0
LINE
8
BLACK
6
CONTINUOUS
10
125.839
20
-81.2645
11
126.181
21
-80.3248
0
CIRCLE
8
BLACK
10
165.925
20
-73.1076
40
0.894427
0
LINE
8
BLACK
6
CONTINUOUS
10
168.055
20
-81.5907
11
167.439
21
-79.8993
0
LINE
8
BLACK
6
CONTINUOUS
10
169.746
20
-80.9751
11
168.055
21
-81.5907
0
LINE
8
BLACK
6
CONTINUOUS
10
169.131
20
-79.2836
11
169.746
21
-80.9751
0
LINE
8
BLACK
6
CONTINUOUS
10
167.439
20
-79.8993
11
169.131
21
-79.2836
0
CIRCLE
8
BLACK
10
88.369
20
-72.9287
40
0.894427
0
LINE
8
BLACK
6
CONTINUOUS
10
86.8548
20
-79.7204
11
86.2391
21
-81.4118
0
LINE
8
BLACK
6
CONTINUOUS
10
85.1633
20
-79.1047
11
86.8548
21
-79.7204
0
LINE
8
BLACK
6
CONTINUOUS
10
86.2391
20
-81.4118
11
84.5477
21
-80.7962
0
LINE
8
BLACK
6
CONTINUOUS
10
84.5477
20
-80.7962
11
85.1633
21
-79.1047
0
CIRCLE
8
BLACK
10
221.164
20
-66.83
40
0.894427
0
LINE
8
BLACK
6
CONTINUOUS
10
222.678
20
-73.6217
11
224.37
21
-73.0061
0
LINE
8
BLACK
6
CONTINUOUS
10
224.985
20
-74.6975
11
223.294
21
-75.3132
0
LINE
8
BLACK
6
CONTINUOUS
10
224.37
20
-73.0061
11
224.985
21
-74.6975
0
LINE
8
BLACK
6
CONTINUOUS
10
223.294
20
-75.3132
11
222.678
21
-73.6217
0
LINE
8
BLACK
6
CONTINUOUS
10
88.487
20
-66.9374
11
75.3313
21
-62.1491
0
LINE
8
BLACK
6
CONTINUOUS
10
87.1099
20
-72.1827
11
86.64
21
-72.0117
0
LINE
8
BLACK
6
CONTINUOUS
10
74.9892
20
-63.0888
11
75.3313
21
-62.1491
0
LINE
8
BLACK
6
CONTINUOUS
10
84.0407
20
-79.1534
11
84.5105
21
-79.3244
0
LINE
8
BLACK
6
CONTINUOUS
10
88.1449
20
-67.8771
11
88.6148
21
-68.0481
0
LINE
8
BLACK
6
CONTINUOUS
10
88.6148
20
-68.0481
11
87.1099
21
-72.1827
0
LINE
8
BLACK
6
CONTINUOUS
10
74.9892
20
-63.0888
11
74.5194
21
-62.9178
0
LINE
8
BLACK
6
CONTINUOUS
10
86.0838
20
-75.0018
11
85.614
21
-74.8308
0
LINE
8
BLACK
6
CONTINUOUS
10
84.0407
20
-79.1534
11
83.6987
21
-80.0931
0
LINE
8
BLACK
6
CONTINUOUS
10
72.9461
20
-67.2404
11
73.4159
21
-67.4114
0
LINE
8
BLACK
6
CONTINUOUS
10
86.64
20
-72.0117
11
85.614
21
-74.8308
0
LINE
8
BLACK
6
CONTINUOUS
10
70.543
20
-75.3048
11
70.885
21
-74.3651
0
LINE
8
BLACK
6
CONTINUOUS
10
70.543
20
-75.3048
11
83.6987
21
-80.0931
0
LINE
8
BLACK
6
CONTINUOUS
10
70.4152
20
-74.1941
11
71.92
21
-70.0594
0
LINE
8
BLACK
6
CONTINUOUS
10
88.487
20
-66.9374
11
88.1449
21
-67.8771
0
LINE
8
BLACK
6
CONTINUOUS
10
84.5105
20
-79.3244
11
86.0838
21
-75.0018
0
LINE
8
BLACK
6
CONTINUOUS
10
74.5194
20
-62.9178
11
72.9461
21
-67.2404
0
LINE
8
BLACK
6
CONTINUOUS
10
72.3899
20
-70.2305
11
73.4159
21
-67.4114
0
LINE
8
BLACK
6
CONTINUOUS
10
71.92
20
-70.0594
11
72.3899
21
-70.2305
0
LINE
8
BLACK
6
CONTINUOUS
10
70.885
20
-74.3651
11
70.4152
21
-74.1941
0
LINE
8
BLACK
6
CONTINUOUS
10
180.075
20
-107.612
11
178.571
21
-103.477
0
LINE
8
BLACK
6
CONTINUOUS
10
179.04
20
-103.306
11
178.014
21
-100.487
0
LINE
8
BLACK
6
CONTINUOUS
10
194.171
20
-102.482
11
192.598
21
-98.1592
0
LINE
8
BLACK
6
CONTINUOUS
10
189.255
20
-90.4368
11
189.597
21
-91.3765
0
LINE
8
BLACK
6
CONTINUOUS
10
175.971
20
-96.3358
11
177.544
21
-100.658
0
LINE
8
BLACK
6
CONTINUOUS
10
176.441
20
-96.1648
11
175.971
21
-96.3358
0
LINE
8
BLACK
6
CONTINUOUS
10
191.102
20
-95.5112
11
192.128
21
-98.3302
0
LINE
8
BLACK
6
CONTINUOUS
10
189.255
20
-90.4368
11
176.099
21
-95.2251
0
LINE
8
BLACK
6
CONTINUOUS
10
180.545
20
-107.441
11
180.075
21
-107.612
0
LINE
8
BLACK
6
CONTINUOUS
10
190.067
20
-91.2055
11
191.571
21
-95.3401
0
LINE
8
BLACK
6
CONTINUOUS
10
180.887
20
-108.381
11
180.545
21
-107.441
0
LINE
8
BLACK
6
CONTINUOUS
10
193.701
20
-102.653
11
194.043
21
-103.593
0
LINE
8
BLACK
6
CONTINUOUS
10
189.597
20
-91.3765
11
190.067
21
-91.2055
0
LINE
8
BLACK
6
CONTINUOUS
10
177.544
20
-100.658
11
178.014
21
-100.487
0
LINE
8
BLACK
6
CONTINUOUS
10
178.571
20
-103.477
11
179.04
21
-103.306
0
LINE
8
BLACK
6
CONTINUOUS
10
176.441
20
-96.1648
11
176.099
21
-95.2251
0
LINE
8
BLACK
6
CONTINUOUS
10
191.571
20
-95.3401
11
191.102
21
-95.5112
0
LINE
8
BLACK
6
CONTINUOUS
10
180.887
20
-108.381
11
194.043
21
-103.593
0
LINE
8
BLACK
6
CONTINUOUS
10
193.701
20
-102.653
11
194.171
21
-102.482
0
LINE
8
BLACK
6
CONTINUOUS
10
192.598
20
-98.1592
11
192.128
21
-98.3302
0
LINE
8
BLACK
6
CONTINUOUS
10
135.566
20
-96.9363
11
135.096
21
-96.7653
0
LINE
8
BLACK
6
CONTINUOUS
10
133.523
20
-101.088
11
133.992
21
-101.259
0
LINE
8
BLACK
6
CONTINUOUS
10
122.428
20
-89.1749
11
122.898
21
-89.3459
0
LINE
8
BLACK
6
CONTINUOUS
10
124.001
20
-84.8523
11
122.428
21
-89.1749
0
LINE
8
BLACK
6
CONTINUOUS
10
124.471
20
-85.0233
11
124.001
21
-84.8523
0
LINE
8
BLACK
6
CONTINUOUS
10
120.025
20
-97.2393
11
133.18
21
-102.028
0
LINE
8
BLACK
6
CONTINUOUS
10
137.627
20
-89.8116
11
138.097
21
-89.9826
0
LINE
8
BLACK
6
CONTINUOUS
10
136.592
20
-94.1172
11
136.122
21
-93.9462
0
LINE
8
BLACK
6
CONTINUOUS
10
137.969
20
-88.8719
11
137.627
21
-89.8116
0
LINE
8
BLACK
6
CONTINUOUS
10
120.025
20
-97.2393
11
120.367
21
-96.2996
0
LINE
8
BLACK
6
CONTINUOUS
10
119.897
20
-96.1286
11
121.402
21
-91.994
0
LINE
8
BLACK
6
CONTINUOUS
10
120.367
20
-96.2996
11
119.897
21
-96.1286
0
LINE
8
BLACK
6
CONTINUOUS
10
121.872
20
-92.165
11
122.898
21
-89.3459
0
LINE
8
BLACK
6
CONTINUOUS
10
137.969
20
-88.8719
11
124.813
21
-84.0836
0
LINE
8
BLACK
6
CONTINUOUS
10
136.122
20
-93.9462
11
135.096
21
-96.7653
0
LINE
8
BLACK
6
CONTINUOUS
10
124.471
20
-85.0233
11
124.813
21
-84.0836
0
LINE
8
BLACK
6
CONTINUOUS
10
138.097
20
-89.9826
11
136.592
21
-94.1172
0
LINE
8
BLACK
6
CONTINUOUS
10
133.523
20
-101.088
11
133.18
21
-102.028
0
LINE
8
BLACK
6
CONTINUOUS
10
133.992
20
-101.259
11
135.566
21
-96.9363
0
LINE
8
BLACK
6
CONTINUOUS
10
121.402
20
-91.994
11
121.872
21
-92.165
0
CIRCLE
8
BLACK
10
143.608
20
-79.2062
40
0.894427
0
LINE
8
BLACK
6
CONTINUOUS
10
141.478
20
-87.6894
11
139.787
21
-87.0737
0
LINE
8
BLACK
6
CONTINUOUS
10
142.094
20
-85.9979
11
141.478
21
-87.6894
0
LINE
8
BLACK
6
CONTINUOUS
10
140.402
20
-85.3823
11
142.094
21
-85.9979
0
LINE
8
BLACK
6
CONTINUOUS
10
139.787
20
-87.0737
11
140.402
21
-85.3823
0
CIRCLE
8
BLACK
10
91.8548
20
-103.497
40
0.894427
0
LINE
8
BLACK
6
CONTINUOUS
10
83.6842
20
-100.376
11
85.4229
21
-100.842
0
LINE
8
BLACK
6
CONTINUOUS
10
85.4229
20
-100.842
11
84.957
21
-102.581
0
LINE
8
BLACK
6
CONTINUOUS
10
83.2183
20
-102.115
11
83.6842
21
-100.376
0
LINE
8
BLACK
6
CONTINUOUS
10
84.957
20
-102.581
11
83.2183
21
-102.115
0
CIRCLE
8
BLACK
10
215.347
20
-50.827
40
0.894427
0
LINE
8
BLACK
6
CONTINUOUS
10
217.477
20
-59.3102
11
216.861
21
-57.6187
0
LINE
8
BLACK
6
CONTINUOUS
10
219.168
20
-58.6946
11
217.477
21
-59.3102
0
LINE
8
BLACK
6
CONTINUOUS
10
218.553
20
-57.0031
11
219.168
21
-58.6946
0
LINE
8
BLACK
6
CONTINUOUS
10
216.861
20
-57.6187
11
218.553
21
-57.0031
0
CIRCLE
8
BLACK
10
113.52
20
-56.4273
40
0.894427
0
LINE
8
BLACK
6
CONTINUOUS
10
112.005
20
-63.219
11
111.39
21
-64.9105
0
LINE
8
BLACK
6
CONTINUOUS
10
110.314
20
-62.6034
11
112.005
21
-63.219
0
LINE
8
BLACK
6
CONTINUOUS
10
111.39
20
-64.9105
11
109.698
21
-64.2948
0
LINE
8
BLACK
6
CONTINUOUS
10
109.698
20
-64.2948
11
110.314
21
-62.6034
0
LINE
8
BLACK
6
CONTINUOUS
10
222.374
20
-65.9418
11
220.869
21
-61.8072
0
LINE
8
BLACK
6
CONTINUOUS
10
223.186
20
-66.7105
11
222.844
21
-65.7708
0
LINE
8
BLACK
6
CONTINUOUS
10
231.553
20
-48.7665
11
231.895
21
-49.7062
0
LINE
8
BLACK
6
CONTINUOUS
10
218.74
20
-54.4945
11
218.27
21
-54.6655
0
LINE
8
BLACK
6
CONTINUOUS
10
233.87
20
-53.6698
11
233.4
21
-53.8408
0
LINE
8
BLACK
6
CONTINUOUS
10
236
20
-60.9825
11
236.469
21
-60.8115
0
LINE
8
BLACK
6
CONTINUOUS
10
233.4
20
-53.8408
11
234.426
21
-56.6599
0
LINE
8
BLACK
6
CONTINUOUS
10
231.553
20
-48.7665
11
218.398
21
-53.5548
0
LINE
8
BLACK
6
CONTINUOUS
10
218.27
20
-54.6655
11
219.843
21
-58.9881
0
LINE
8
BLACK
6
CONTINUOUS
10
221.339
20
-61.6361
11
220.313
21
-58.8171
0
LINE
8
BLACK
6
CONTINUOUS
10
232.365
20
-49.5352
11
233.87
21
-53.6698
0
LINE
8
BLACK
6
CONTINUOUS
10
222.844
20
-65.7708
11
222.374
21
-65.9418
0
LINE
8
BLACK
6
CONTINUOUS
10
236
20
-60.9825
11
236.342
21
-61.9222
0
LINE
8
BLACK
6
CONTINUOUS
10
234.896
20
-56.4889
11
234.426
21
-56.6599
0
LINE
8
BLACK
6
CONTINUOUS
10
218.74
20
-54.4945
11
218.398
21
-53.5548
0
LINE
8
BLACK
6
CONTINUOUS
10
223.186
20
-66.7105
11
236.342
21
-61.9222
0
LINE
8
BLACK
6
CONTINUOUS
10
219.843
20
-58.9881
11
220.313
21
-58.8171
0
LINE
8
BLACK
6
CONTINUOUS
10
220.869
20
-61.8072
11
221.339
21
-61.6361
0
LINE
8
BLACK
6
CONTINUOUS
10
236.469
20
-60.8115
11
234.896
21
-56.4889
0
LINE
8
BLACK
6
CONTINUOUS
10
231.895
20
-49.7062
11
232.365
21
-49.5352
0
LINE
8
BLACK
6
CONTINUOUS
10
235.652
20
-48.3318
11
235.31
21
-47.3922
0
LINE
8
BLACK
6
CONTINUOUS
10
240.098
20
-60.5479
11
239.756
21
-59.6082
0
LINE
8
BLACK
6
CONTINUOUS
10
236.756
20
-52.8254
11
237.225
21
-52.6544
0
LINE
8
BLACK
6
CONTINUOUS
10
238.251
20
-55.4735
11
237.225
21
-52.6544
0
LINE
8
BLACK
6
CONTINUOUS
10
250.783
20
-47.5072
11
250.313
21
-47.6782
0
LINE
8
BLACK
6
CONTINUOUS
10
239.286
20
-59.7792
11
237.782
21
-55.6445
0
LINE
8
BLACK
6
CONTINUOUS
10
240.098
20
-60.5479
11
253.254
21
-55.7596
0
LINE
8
BLACK
6
CONTINUOUS
10
252.912
20
-54.8199
11
253.382
21
-54.6489
0
LINE
8
BLACK
6
CONTINUOUS
10
235.652
20
-48.3318
11
235.182
21
-48.5029
0
LINE
8
BLACK
6
CONTINUOUS
10
248.466
20
-42.6039
11
248.808
21
-43.5436
0
LINE
8
BLACK
6
CONTINUOUS
10
235.182
20
-48.5029
11
236.756
21
-52.8254
0
LINE
8
BLACK
6
CONTINUOUS
10
239.756
20
-59.6082
11
239.286
21
-59.7792
0
LINE
8
BLACK
6
CONTINUOUS
10
248.808
20
-43.5436
11
249.278
21
-43.3726
0
LINE
8
BLACK
6
CONTINUOUS
10
252.912
20
-54.8199
11
253.254
21
-55.7596
0
LINE
8
BLACK
6
CONTINUOUS
10
251.809
20
-50.3263
11
251.339
21
-50.4973
0
LINE
8
BLACK
6
CONTINUOUS
10
237.782
20
-55.6445
11
238.251
21
-55.4735
0
LINE
8
BLACK
6
CONTINUOUS
10
248.466
20
-42.6039
11
235.31
21
-47.3922
0
LINE
8
BLACK
6
CONTINUOUS
10
253.382
20
-54.6489
11
251.809
21
-50.3263
0
LINE
8
BLACK
6
CONTINUOUS
10
250.313
20
-47.6782
11
251.339
21
-50.4973
0
LINE
8
BLACK
6
CONTINUOUS
10
249.278
20
-43.3726
11
250.783
21
-47.5072
0
CIRCLE
8
BLACK
10
201.773
20
-98.8594
40
0.894427
0
LINE
8
BLACK
6
CONTINUOUS
10
208.671
20
-97.9429
11
208.205
21
-96.2042
0
LINE
8
BLACK
6
CONTINUOUS
10
208.205
20
-96.2042
11
209.944
21
-95.7383
0
LINE
8
BLACK
6
CONTINUOUS
10
210.409
20
-97.477
11
208.671
21
-97.9429
0
LINE
8
BLACK
6
CONTINUOUS
10
209.944
20
-95.7383
11
210.409
21
-97.477
0
CIRCLE
8
BLACK
10
94.1863
20
-56.9257
40
0.894427
0
LINE
8
BLACK
6
CONTINUOUS
10
92.0564
20
-65.4089
11
90.365
21
-64.7932
0
LINE
8
BLACK
6
CONTINUOUS
10
92.672
20
-63.7174
11
92.0564
21
-65.4089
0
LINE
8
BLACK
6
CONTINUOUS
10
90.9806
20
-63.1018
11
92.672
21
-63.7174
0
LINE
8
BLACK
6
CONTINUOUS
10
90.365
20
-64.7932
11
90.9806
21
-63.1018
0
LINE
8
BLACK
6
CONTINUOUS
10
76.4016
20
-103.873
11
75.9186
21
-103.743
0
LINE
8
BLACK
6
CONTINUOUS
10
87.3017
20
-119.217
11
88.4922
21
-114.774
0
LINE
8
BLACK
6
CONTINUOUS
10
73.0369
20
-116.43
11
86.5599
21
-120.053
0
LINE
8
BLACK
6
CONTINUOUS
10
86.8187
20
-119.087
11
86.5599
21
-120.053
0
LINE
8
BLACK
6
CONTINUOUS
10
90.4075
20
-107.626
11
89.2687
21
-111.876
0
LINE
8
BLACK
6
CONTINUOUS
10
73.0369
20
-116.43
11
73.2957
21
-115.464
0
LINE
8
BLACK
6
CONTINUOUS
10
86.8187
20
-119.087
11
87.3017
21
-119.217
0
LINE
8
BLACK
6
CONTINUOUS
10
90.1833
20
-106.53
11
89.9245
21
-107.496
0
LINE
8
BLACK
6
CONTINUOUS
10
76.4016
20
-103.873
11
76.6604
21
-102.907
0
LINE
8
BLACK
6
CONTINUOUS
10
89.9245
20
-107.496
11
90.4075
21
-107.626
0
LINE
8
BLACK
6
CONTINUOUS
10
74.4345
20
-111.214
11
75.211
21
-108.316
0
LINE
8
BLACK
6
CONTINUOUS
10
73.2957
20
-115.464
11
72.8128
21
-115.335
0
LINE
8
BLACK
6
CONTINUOUS
10
73.9516
20
-111.084
11
74.4345
21
-111.214
0
LINE
8
BLACK
6
CONTINUOUS
10
88.7857
20
-111.746
11
88.0093
21
-114.644
0
LINE
8
BLACK
6
CONTINUOUS
10
90.1833
20
-106.53
11
76.6604
21
-102.907
0
LINE
8
BLACK
6
CONTINUOUS
10
89.2687
20
-111.876
11
88.7857
21
-111.746
0
LINE
8
BLACK
6
CONTINUOUS
10
75.9186
20
-103.743
11
74.728
21
-108.187
0
LINE
8
BLACK
6
CONTINUOUS
10
88.4922
20
-114.774
11
88.0093
21
-114.644
0
LINE
8
BLACK
6
CONTINUOUS
10
74.728
20
-108.187
11
75.211
21
-108.316
0
LINE
8
BLACK
6
CONTINUOUS
10
72.8128
20
-115.335
11
73.9516
21
-111.084
0
CIRCLE
8
BLACK
10
196.014
20
-50.3287
40
0.894427
0
LINE
8
BLACK
6
CONTINUOUS
10
199.835
20
-58.1962
11
198.143
21
-58.8118
0
LINE
8
BLACK
6
CONTINUOUS
10
199.219
20
-56.5047
11
199.835
21
-58.1962
0
LINE
8
BLACK
6
CONTINUOUS
10
198.143
20
-58.8118
11
197.528
21
-57.1204
0
LINE
8
BLACK
6
CONTINUOUS
10
197.528
20
-57.1204
11
199.219
21
-56.5047
0
LINE
8
BLACK
6
CONTINUOUS
10
258.726
20
-70.7946
11
259.068
21
-71.7343
0
LINE
8
BLACK
6
CONTINUOUS
10
245.101
20
-75.7539
11
243.596
21
-71.6193
0
LINE
8
BLACK
6
CONTINUOUS
10
245.913
20
-76.5226
11
245.571
21
-75.5829
0
LINE
8
BLACK
6
CONTINUOUS
10
245.571
20
-75.5829
11
245.101
21
-75.7539
0
LINE
8
BLACK
6
CONTINUOUS
10
242.57
20
-68.8002
11
243.04
21
-68.6292
0
LINE
8
BLACK
6
CONTINUOUS
10
243.596
20
-71.6193
11
244.066
21
-71.4483
0
LINE
8
BLACK
6
CONTINUOUS
10
241.466
20
-64.3066
11
241.124
21
-63.3669
0
LINE
8
BLACK
6
CONTINUOUS
10
240.997
20
-64.4776
11
242.57
21
-68.8002
0
LINE
8
BLACK
6
CONTINUOUS
10
256.597
20
-63.482
11
256.127
21
-63.653
0
LINE
8
BLACK
6
CONTINUOUS
10
244.066
20
-71.4483
11
243.04
21
-68.6292
0
LINE
8
BLACK
6
CONTINUOUS
10
245.913
20
-76.5226
11
259.068
21
-71.7343
0
LINE
8
BLACK
6
CONTINUOUS
10
254.28
20
-58.5786
11
241.124
21
-63.3669
0
LINE
8
BLACK
6
CONTINUOUS
10
256.127
20
-63.653
11
257.153
21
-66.4721
0
LINE
8
BLACK
6
CONTINUOUS
10
255.092
20
-59.3473
11
256.597
21
-63.482
0
LINE
8
BLACK
6
CONTINUOUS
10
258.726
20
-70.7946
11
259.196
21
-70.6236
0
LINE
8
BLACK
6
CONTINUOUS
10
259.196
20
-70.6236
11
257.623
21
-66.3011
0
LINE
8
BLACK
6
CONTINUOUS
10
257.623
20
-66.3011
11
257.153
21
-66.4721
0
LINE
8
BLACK
6
CONTINUOUS
10
254.622
20
-59.5183
11
255.092
21
-59.3473
0
LINE
8
BLACK
6
CONTINUOUS
10
241.466
20
-64.3066
11
240.997
21
-64.4776
0
LINE
8
BLACK
6
CONTINUOUS
10
254.28
20
-58.5786
11
254.622
21
-59.5183
0
LINE
8
BLACK
6
CONTINUOUS
10
196.46
20
-57.6055
11
196.802
21
-58.5452
0
LINE
8
BLACK
6
CONTINUOUS
10
182.835
20
-62.5648
11
181.33
21
-58.4302
0
LINE
8
BLACK
6
CONTINUOUS
10
192.356
20
-46.3292
11
192.826
21
-46.1582
0
LINE
8
BLACK
6
CONTINUOUS
10
179.2
20
-51.1175
11
178.858
21
-50.1778
0
LINE
8
BLACK
6
CONTINUOUS
10
194.331
20
-50.2928
11
193.861
21
-50.4638
0
LINE
8
BLACK
6
CONTINUOUS
10
192.014
20
-45.3895
11
178.858
21
-50.1778
0
LINE
8
BLACK
6
CONTINUOUS
10
181.33
20
-58.4302
11
181.8
21
-58.2591
0
LINE
8
BLACK
6
CONTINUOUS
10
195.357
20
-53.1119
11
194.887
21
-53.2829
0
LINE
8
BLACK
6
CONTINUOUS
10
178.73
20
-51.2885
11
180.304
21
-55.6111
0
LINE
8
BLACK
6
CONTINUOUS
10
192.826
20
-46.1582
11
194.331
21
-50.2928
0
LINE
8
BLACK
6
CONTINUOUS
10
196.46
20
-57.6055
11
196.93
21
-57.4345
0
LINE
8
BLACK
6
CONTINUOUS
10
181.8
20
-58.2591
11
180.773
21
-55.4401
0
LINE
8
BLACK
6
CONTINUOUS
10
193.861
20
-50.4638
11
194.887
21
-53.2829
0
LINE
8
BLACK
6
CONTINUOUS
10
192.014
20
-45.3895
11
192.356
21
-46.3292
0
LINE
8
BLACK
6
CONTINUOUS
10
179.2
20
-51.1175
11
178.73
21
-51.2885
0
LINE
8
BLACK
6
CONTINUOUS
10
180.304
20
-55.6111
11
180.773
21
-55.4401
0
LINE
8
BLACK
6
CONTINUOUS
10
196.93
20
-57.4345
11
195.357
21
-53.1119
0
LINE
8
BLACK
6
CONTINUOUS
10
183.646
20
-63.3335
11
196.802
21
-58.5452
0
LINE
8
BLACK
6
CONTINUOUS
10
183.646
20
-63.3335
11
183.304
21
-62.3938
0
LINE
8
BLACK
6
CONTINUOUS
10
183.304
20
-62.3938
11
182.835
21
-62.5648
0
CIRCLE
8
BLACK
10
57.0021
20
-53.6388
40
0.894427
0
LINE
8
BLACK
6
CONTINUOUS
10
53.7964
20
-59.8149
11
55.4879
21
-60.4305
0
LINE
8
BLACK
6
CONTINUOUS
10
54.8723
20
-62.122
11
53.1808
21
-61.5063
0
LINE
8
BLACK
6
CONTINUOUS
10
53.1808
20
-61.5063
11
53.7964
21
-59.8149
0
LINE
8
BLACK
6
CONTINUOUS
10
55.4879
20
-60.4305
11
54.8723
21
-62.122
0
CIRCLE
8
BLACK
10
193.241
20
-95.5146
40
0.894427
0
LINE
8
BLACK
6
CONTINUOUS
10
197.062
20
-103.382
11
195.371
21
-103.998
0
LINE
8
BLACK
6
CONTINUOUS
10
195.371
20
-103.998
11
194.755
21
-102.306
0
LINE
8
BLACK
6
CONTINUOUS
10
194.755
20
-102.306
11
196.447
21
-101.691
0
LINE
8
BLACK
6
CONTINUOUS
10
196.447
20
-101.691
11
197.062
21
-103.382
0
LINE
8
BLACK
6
CONTINUOUS
10
27.5873
20
-86.6047
11
29.0922
21
-82.47
0
LINE
8
BLACK
6
CONTINUOUS
10
29.562
20
-82.641
11
30.5881
21
-79.8219
0
LINE
8
BLACK
6
CONTINUOUS
10
45.7869
20
-80.4586
11
44.282
21
-84.5933
0
LINE
8
BLACK
6
CONTINUOUS
10
44.282
20
-84.5933
11
43.8122
21
-84.4223
0
LINE
8
BLACK
6
CONTINUOUS
10
41.6827
20
-91.735
11
43.256
21
-87.4124
0
LINE
8
BLACK
6
CONTINUOUS
10
45.6591
20
-79.3479
11
32.5034
21
-74.5597
0
LINE
8
BLACK
6
CONTINUOUS
10
32.1614
20
-75.4994
11
31.6915
21
-75.3283
0
LINE
8
BLACK
6
CONTINUOUS
10
27.7151
20
-87.7154
11
28.0571
21
-86.7757
0
LINE
8
BLACK
6
CONTINUOUS
10
45.6591
20
-79.3479
11
45.3171
21
-80.2876
0
LINE
8
BLACK
6
CONTINUOUS
10
29.0922
20
-82.47
11
29.562
21
-82.641
0
LINE
8
BLACK
6
CONTINUOUS
10
45.3171
20
-80.2876
11
45.7869
21
-80.4586
0
LINE
8
BLACK
6
CONTINUOUS
10
41.2128
20
-91.5639
11
40.8708
21
-92.5036
0
LINE
8
BLACK
6
CONTINUOUS
10
30.1182
20
-79.6509
11
30.5881
21
-79.8219
0
LINE
8
BLACK
6
CONTINUOUS
10
43.256
20
-87.4124
11
42.7861
21
-87.2414
0
LINE
8
BLACK
6
CONTINUOUS
10
43.8122
20
-84.4223
11
42.7861
21
-87.2414
0
LINE
8
BLACK
6
CONTINUOUS
10
31.6915
20
-75.3283
11
30.1182
21
-79.6509
0
LINE
8
BLACK
6
CONTINUOUS
10
28.0571
20
-86.7757
11
27.5873
21
-86.6047
0
LINE
8
BLACK
6
CONTINUOUS
10
41.2128
20
-91.5639
11
41.6827
21
-91.735
0
LINE
8
BLACK
6
CONTINUOUS
10
32.1614
20
-75.4994
11
32.5034
21
-74.5597
0
LINE
8
BLACK
6
CONTINUOUS
10
27.7151
20
-87.7154
11
40.8708
21
-92.5036
0
CIRCLE
8
BLACK
10
181.62
20
-63.5266
40
0.894427
0
LINE
8
BLACK
6
CONTINUOUS
10
185.441
20
-71.3941
11
183.75
21
-72.0098
0
LINE
8
BLACK
6
CONTINUOUS
10
183.75
20
-72.0098
11
183.134
21
-70.3183
0
LINE
8
BLACK
6
CONTINUOUS
10
184.825
20
-69.7027
11
185.441
21
-71.3941
0
LINE
8
BLACK
6
CONTINUOUS
10
183.134
20
-70.3183
11
184.825
21
-69.7027
0
LINE
8
BLACK
6
CONTINUOUS
10
100.244
20
-46.3296
11
99.7739
21
-46.1586
0
LINE
8
BLACK
6
CONTINUOUS
10
99.7739
20
-46.1586
11
98.2006
21
-50.4812
0
LINE
8
BLACK
6
CONTINUOUS
10
97.1746
20
-53.3003
11
97.6444
21
-53.4713
0
LINE
8
BLACK
6
CONTINUOUS
10
95.7975
20
-58.5456
11
108.953
21
-63.3339
0
LINE
8
BLACK
6
CONTINUOUS
10
113.869
20
-51.2889
11
112.364
21
-55.4236
0
LINE
8
BLACK
6
CONTINUOUS
10
113.741
20
-50.1782
11
100.586
21
-45.3899
0
LINE
8
BLACK
6
CONTINUOUS
10
112.364
20
-55.4236
11
111.895
21
-55.2526
0
LINE
8
BLACK
6
CONTINUOUS
10
100.244
20
-46.3296
11
100.586
21
-45.3899
0
LINE
8
BLACK
6
CONTINUOUS
10
113.741
20
-50.1782
11
113.399
21
-51.1179
0
LINE
8
BLACK
6
CONTINUOUS
10
95.7975
20
-58.5456
11
96.1395
21
-57.6059
0
LINE
8
BLACK
6
CONTINUOUS
10
98.2006
20
-50.4812
11
98.6705
21
-50.6522
0
LINE
8
BLACK
6
CONTINUOUS
10
109.295
20
-62.3942
11
108.953
21
-63.3339
0
LINE
8
BLACK
6
CONTINUOUS
10
109.295
20
-62.3942
11
109.765
21
-62.5652
0
LINE
8
BLACK
6
CONTINUOUS
10
97.6444
20
-53.4713
11
98.6705
21
-50.6522
0
LINE
8
BLACK
6
CONTINUOUS
10
111.895
20
-55.2526
11
110.868
21
-58.0716
0
LINE
8
BLACK
6
CONTINUOUS
10
109.765
20
-62.5652
11
111.338
21
-58.2427
0
LINE
8
BLACK
6
CONTINUOUS
10
111.338
20
-58.2427
11
110.868
21
-58.0716
0
LINE
8
BLACK
6
CONTINUOUS
10
95.6697
20
-57.4349
11
97.1746
21
-53.3003
0
LINE
8
BLACK
6
CONTINUOUS
10
96.1395
20
-57.6059
11
95.6697
21
-57.4349
0
LINE
8
BLACK
6
CONTINUOUS
10
113.399
20
-51.1179
11
113.869
21
-51.2889
0
LINE
8
BLACK
6
CONTINUOUS
10
80.2695
20
-90.9766
11
79.7996
21
-90.8056
0
LINE
8
BLACK
6
CONTINUOUS
10
82.8004
20
-84.0229
11
81.2956
21
-88.1575
0
LINE
8
BLACK
6
CONTINUOUS
10
68.7051
20
-78.8926
11
67.1318
21
-83.2151
0
LINE
8
BLACK
6
CONTINUOUS
10
66.5755
20
-86.2052
11
67.6016
21
-83.3862
0
LINE
8
BLACK
6
CONTINUOUS
10
69.1749
20
-79.0636
11
69.5169
21
-78.1239
0
LINE
8
BLACK
6
CONTINUOUS
10
66.1057
20
-86.0342
11
66.5755
21
-86.2052
0
LINE
8
BLACK
6
CONTINUOUS
10
64.7286
20
-91.2796
11
65.0707
21
-90.3399
0
LINE
8
BLACK
6
CONTINUOUS
10
80.8257
20
-87.9865
11
79.7996
21
-90.8056
0
LINE
8
BLACK
6
CONTINUOUS
10
82.3306
20
-83.8518
11
82.8004
21
-84.0229
0
LINE
8
BLACK
6
CONTINUOUS
10
78.2264
20
-95.1282
11
77.8843
21
-96.0679
0
LINE
8
BLACK
6
CONTINUOUS
10
64.6008
20
-90.1689
11
66.1057
21
-86.0342
0
LINE
8
BLACK
6
CONTINUOUS
10
67.1318
20
-83.2151
11
67.6016
21
-83.3862
0
LINE
8
BLACK
6
CONTINUOUS
10
69.1749
20
-79.0636
11
68.7051
21
-78.8926
0
LINE
8
BLACK
6
CONTINUOUS
10
78.6962
20
-95.2992
11
80.2695
21
-90.9766
0
LINE
8
BLACK
6
CONTINUOUS
10
82.6726
20
-82.9122
11
69.5169
21
-78.1239
0
LINE
8
BLACK
6
CONTINUOUS
10
81.2956
20
-88.1575
11
80.8257
21
-87.9865
0
LINE
8
BLACK
6
CONTINUOUS
10
78.2264
20
-95.1282
11
78.6962
21
-95.2992
0
LINE
8
BLACK
6
CONTINUOUS
10
64.7286
20
-91.2796
11
77.8843
21
-96.0679
0
LINE
8
BLACK
6
CONTINUOUS
10
65.0707
20
-90.3399
11
64.6008
21
-90.1689
0
LINE
8
BLACK
6
CONTINUOUS
10
82.6726
20
-82.9122
11
82.3306
21
-83.8518
0
LINE
8
BLACK
6
CONTINUOUS
10
51.8214
20
-72.6513
11
52.2912
21
-72.8223
0
LINE
8
BLACK
6
CONTINUOUS
10
68.0463
20
-70.4689
11
68.5161
21
-70.6399
0
LINE
8
BLACK
6
CONTINUOUS
10
66.5414
20
-74.6036
11
65.5153
21
-77.4226
0
LINE
8
BLACK
6
CONTINUOUS
10
50.7863
20
-76.9569
11
50.3165
21
-76.7859
0
LINE
8
BLACK
6
CONTINUOUS
10
50.4443
20
-77.8966
11
50.7863
21
-76.9569
0
LINE
8
BLACK
6
CONTINUOUS
10
64.4119
20
-81.9162
11
65.9852
21
-77.5937
0
LINE
8
BLACK
6
CONTINUOUS
10
63.942
20
-81.7452
11
64.4119
21
-81.9162
0
LINE
8
BLACK
6
CONTINUOUS
10
68.3883
20
-69.5292
11
68.0463
21
-70.4689
0
LINE
8
BLACK
6
CONTINUOUS
10
63.942
20
-81.7452
11
63.6
21
-82.6849
0
LINE
8
BLACK
6
CONTINUOUS
10
50.3165
20
-76.7859
11
51.8214
21
-72.6513
0
LINE
8
BLACK
6
CONTINUOUS
10
50.4443
20
-77.8966
11
63.6
21
-82.6849
0
LINE
8
BLACK
6
CONTINUOUS
10
68.5161
20
-70.6399
11
67.0112
21
-74.7746
0
LINE
8
BLACK
6
CONTINUOUS
10
54.8906
20
-65.6806
11
54.4207
21
-65.5096
0
LINE
8
BLACK
6
CONTINUOUS
10
67.0112
20
-74.7746
11
66.5414
21
-74.6036
0
LINE
8
BLACK
6
CONTINUOUS
10
65.9852
20
-77.5937
11
65.5153
21
-77.4226
0
LINE
8
BLACK
6
CONTINUOUS
10
68.3883
20
-69.5292
11
55.2326
21
-64.7409
0
LINE
8
BLACK
6
CONTINUOUS
10
54.4207
20
-65.5096
11
52.8474
21
-69.8322
0
LINE
8
BLACK
6
CONTINUOUS
10
52.8474
20
-69.8322
11
53.3173
21
-70.0032
0
LINE
8
BLACK
6
CONTINUOUS
10
54.8906
20
-65.6806
11
55.2326
21
-64.7409
0
LINE
8
BLACK
6
CONTINUOUS
10
52.2912
20
-72.8223
11
53.3173
21
-70.0032
0
CIRCLE
8
BLACK
10
68.1739
20
-75.8852
40
0.894427
0
LINE
8
BLACK
6
CONTINUOUS
10
66.044
20
-84.3683
11
64.3526
21
-83.7527
0
LINE
8
BLACK
6
CONTINUOUS
10
64.9682
20
-82.0613
11
66.6597
21
-82.6769
0
LINE
8
BLACK
6
CONTINUOUS
10
66.6597
20
-82.6769
11
66.044
21
-84.3683
0
LINE
8
BLACK
6
CONTINUOUS
10
64.3526
20
-83.7527
11
64.9682
21
-82.0613
0
CIRCLE
8
BLACK
10
207.67
20
-82.4018
40
0.894427
0
LINE
8
BLACK
6
CONTINUOUS
10
209.184
20
-89.1935
11
210.876
21
-88.5779
0
LINE
8
BLACK
6
CONTINUOUS
10
210.876
20
-88.5779
11
211.491
21
-90.2693
0
LINE
8
BLACK
6
CONTINUOUS
10
209.8
20
-90.8849
11
209.184
21
-89.1935
0
LINE
8
BLACK
6
CONTINUOUS
10
211.491
20
-90.2693
11
209.8
21
-90.8849
0
LINE
8
BLACK
6
CONTINUOUS
10
116.057
20
-108.14
11
117.083
21
-105.321
0
LINE
8
BLACK
6
CONTINUOUS
10
118.657
20
-100.998
11
118.999
21
-100.058
0
LINE
8
BLACK
6
CONTINUOUS
10
132.154
20
-104.847
11
118.999
21
-100.058
0
LINE
8
BLACK
6
CONTINUOUS
10
114.083
20
-112.103
11
115.588
21
-107.969
0
LINE
8
BLACK
6
CONTINUOUS
10
114.552
20
-112.274
11
114.083
21
-112.103
0
LINE
8
BLACK
6
CONTINUOUS
10
116.614
20
-105.15
11
117.083
21
-105.321
0
LINE
8
BLACK
6
CONTINUOUS
10
131.812
20
-105.786
11
132.282
21
-105.957
0
LINE
8
BLACK
6
CONTINUOUS
10
132.154
20
-104.847
11
131.812
21
-105.786
0
LINE
8
BLACK
6
CONTINUOUS
10
114.21
20
-113.214
11
127.366
21
-118.002
0
LINE
8
BLACK
6
CONTINUOUS
10
130.777
20
-110.092
11
130.308
21
-109.921
0
LINE
8
BLACK
6
CONTINUOUS
10
132.282
20
-105.957
11
130.777
21
-110.092
0
LINE
8
BLACK
6
CONTINUOUS
10
128.178
20
-117.234
11
129.751
21
-112.911
0
LINE
8
BLACK
6
CONTINUOUS
10
130.308
20
-109.921
11
129.281
21
-112.74
0
LINE
8
BLACK
6
CONTINUOUS
10
114.21
20
-113.214
11
114.552
21
-112.274
0
LINE
8
BLACK
6
CONTINUOUS
10
129.751
20
-112.911
11
129.281
21
-112.74
0
LINE
8
BLACK
6
CONTINUOUS
10
115.588
20
-107.969
11
116.057
21
-108.14
0
LINE
8
BLACK
6
CONTINUOUS
10
127.708
20
-117.063
11
128.178
21
-117.234
0
LINE
8
BLACK
6
CONTINUOUS
10
118.187
20
-100.827
11
116.614
21
-105.15
0
LINE
8
BLACK
6
CONTINUOUS
10
118.657
20
-100.998
11
118.187
21
-100.827
0
LINE
8
BLACK
6
CONTINUOUS
10
127.708
20
-117.063
11
127.366
21
-118.002
0
LINE
8
BLACK
6
CONTINUOUS
10
217.822
20
-107.994
11
217.339
21
-108.123
0
LINE
8
BLACK
6
CONTINUOUS
10
218.599
20
-110.891
11
218.116
21
-111.021
0
LINE
8
BLACK
6
CONTINUOUS
10
206.042
20
-120.054
11
219.565
21
-116.43
0
LINE
8
BLACK
6
CONTINUOUS
10
206.042
20
-120.054
11
205.784
21
-119.088
0
LINE
8
BLACK
6
CONTINUOUS
10
202.195
20
-107.626
11
203.385
21
-112.069
0
LINE
8
BLACK
6
CONTINUOUS
10
215.942
20
-102.907
11
202.419
21
-106.531
0
LINE
8
BLACK
6
CONTINUOUS
10
216.684
20
-103.744
11
217.822
21
-107.994
0
LINE
8
BLACK
6
CONTINUOUS
10
219.307
20
-115.464
11
219.789
21
-115.335
0
LINE
8
BLACK
6
CONTINUOUS
10
202.678
20
-107.497
11
202.195
21
-107.626
0
LINE
8
BLACK
6
CONTINUOUS
10
219.307
20
-115.464
11
219.565
21
-116.43
0
LINE
8
BLACK
6
CONTINUOUS
10
205.301
20
-119.217
11
204.162
21
-114.967
0
LINE
8
BLACK
6
CONTINUOUS
10
216.201
20
-103.873
11
216.684
21
-103.744
0
LINE
8
BLACK
6
CONTINUOUS
10
204.645
20
-114.838
11
203.868
21
-111.94
0
LINE
8
BLACK
6
CONTINUOUS
10
204.162
20
-114.967
11
204.645
21
-114.838
0
LINE
8
BLACK
6
CONTINUOUS
10
219.789
20
-115.335
11
218.599
21
-110.891
0
LINE
8
BLACK
6
CONTINUOUS
10
215.942
20
-102.907
11
216.201
21
-103.873
0
LINE
8
BLACK
6
CONTINUOUS
10
217.339
20
-108.123
11
218.116
21
-111.021
0
LINE
8
BLACK
6
CONTINUOUS
10
205.784
20
-119.088
11
205.301
21
-119.217
0
LINE
8
BLACK
6
CONTINUOUS
10
202.678
20
-107.497
11
202.419
21
-106.531
0
LINE
8
BLACK
6
CONTINUOUS
10
203.385
20
-112.069
11
203.868
21
-111.94
0
CIRCLE
8
BLACK
10
101.858
20
-88.4995
40
0.894427
0
LINE
8
BLACK
6
CONTINUOUS
10
99.7278
20
-96.9827
11
98.0364
21
-96.367
0
LINE
8
BLACK
6
CONTINUOUS
10
98.652
20
-94.6756
11
100.343
21
-95.2912
0
LINE
8
BLACK
6
CONTINUOUS
10
100.343
20
-95.2912
11
99.7278
21
-96.9827
0
LINE
8
BLACK
6
CONTINUOUS
10
98.0364
20
-96.367
11
98.652
21
-94.6756
0
CIRCLE
8
BLACK
10
171.754
20
-89.1186
40
0.894427
0
LINE
8
BLACK
6
CONTINUOUS
10
173.884
20
-97.6018
11
173.268
21
-95.9103
0
LINE
8
BLACK
6
CONTINUOUS
10
174.959
20
-95.2947
11
175.575
21
-96.9861
0
LINE
8
BLACK
6
CONTINUOUS
10
175.575
20
-96.9861
11
173.884
21
-97.6018
0
LINE
8
BLACK
6
CONTINUOUS
10
173.268
20
-95.9103
11
174.959
21
-95.2947
0
LINE
8
BLACK
6
CONTINUOUS
10
153.605
20
-86.0531
11
153.263
21
-85.1135
0
LINE
8
BLACK
6
CONTINUOUS
10
148.689
20
-74.0082
11
150.263
21
-78.3307
0
LINE
8
BLACK
6
CONTINUOUS
10
166.889
20
-80.1542
11
165.316
21
-75.8316
0
LINE
8
BLACK
6
CONTINUOUS
10
153.263
20
-85.1135
11
152.794
21
-85.2845
0
LINE
8
BLACK
6
CONTINUOUS
10
166.419
20
-80.3252
11
166.889
21
-80.1542
0
LINE
8
BLACK
6
CONTINUOUS
10
163.82
20
-73.1835
11
164.846
21
-76.0026
0
LINE
8
BLACK
6
CONTINUOUS
10
166.419
20
-80.3252
11
166.761
21
-81.2649
0
LINE
8
BLACK
6
CONTINUOUS
10
162.315
20
-69.0489
11
162.785
21
-68.8778
0
LINE
8
BLACK
6
CONTINUOUS
10
149.159
20
-73.8371
11
148.689
21
-74.0082
0
LINE
8
BLACK
6
CONTINUOUS
10
161.973
20
-68.1092
11
148.817
21
-72.8974
0
LINE
8
BLACK
6
CONTINUOUS
10
153.605
20
-86.0531
11
166.761
21
-81.2649
0
LINE
8
BLACK
6
CONTINUOUS
10
150.263
20
-78.3307
11
150.732
21
-78.1597
0
LINE
8
BLACK
6
CONTINUOUS
10
164.29
20
-73.0125
11
163.82
21
-73.1835
0
LINE
8
BLACK
6
CONTINUOUS
10
149.159
20
-73.8371
11
148.817
21
-72.8974
0
LINE
8
BLACK
6
CONTINUOUS
10
151.289
20
-81.1498
11
151.758
21
-80.9788
0
LINE
8
BLACK
6
CONTINUOUS
10
151.758
20
-80.9788
11
150.732
21
-78.1597
0
LINE
8
BLACK
6
CONTINUOUS
10
152.794
20
-85.2845
11
151.289
21
-81.1498
0
LINE
8
BLACK
6
CONTINUOUS
10
165.316
20
-75.8316
11
164.846
21
-76.0026
0
LINE
8
BLACK
6
CONTINUOUS
10
161.973
20
-68.1092
11
162.315
21
-69.0489
0
LINE
8
BLACK
6
CONTINUOUS
10
162.785
20
-68.8778
11
164.29
21
-73.0125
0
CIRCLE
8
BLACK
10
73.9401
20
-59.8545
40
0.894427
0
LINE
8
BLACK
6
CONTINUOUS
10
72.4259
20
-66.6462
11
71.8102
21
-68.3376
0
LINE
8
BLACK
6
CONTINUOUS
10
70.1188
20
-67.722
11
70.7344
21
-66.0306
0
LINE
8
BLACK
6
CONTINUOUS
10
70.7344
20
-66.0306
11
72.4259
21
-66.6462
0
LINE
8
BLACK
6
CONTINUOUS
10
71.8102
20
-68.3376
11
70.1188
21
-67.722
0
CIRCLE
8
BLACK
10
122.106
20
-85.63
40
0.894427
0
LINE
8
BLACK
6
CONTINUOUS
10
118.285
20
-93.4975
11
118.9
21
-91.8061
0
LINE
8
BLACK
6
CONTINUOUS
10
120.592
20
-92.4217
11
119.976
21
-94.1132
0
LINE
8
BLACK
6
CONTINUOUS
10
119.976
20
-94.1132
11
118.285
21
-93.4975
0
LINE
8
BLACK
6
CONTINUOUS
10
118.9
20
-91.8061
11
120.592
21
-92.4217
0
CIRCLE
8
BLACK
10
45.3739
20
-85.7852
40
0.894427
0
LINE
8
BLACK
6
CONTINUOUS
10
43.8597
20
-92.5769
11
43.244
21
-94.2683
0
LINE
8
BLACK
6
CONTINUOUS
10
42.1682
20
-91.9613
11
43.8597
21
-92.5769
0
LINE
8
BLACK
6
CONTINUOUS
10
41.5526
20
-93.6527
11
42.1682
21
-91.9613
0
LINE
8
BLACK
6
CONTINUOUS
10
43.244
20
-94.2683
11
41.5526
21
-93.6527
0
LINE
8
BLACK
6
CONTINUOUS
10
160.788
20
-105.787
11
160.318
21
-105.958
0
LINE
8
BLACK
6
CONTINUOUS
10
160.788
20
-105.787
11
160.446
21
-104.847
0
LINE
8
BLACK
6
CONTINUOUS
10
178.048
20
-112.275
11
178.518
21
-112.104
0
LINE
8
BLACK
6
CONTINUOUS
10
165.234
20
-118.003
11
164.892
21
-117.063
0
LINE
8
BLACK
6
CONTINUOUS
10
176.944
20
-107.781
11
176.474
21
-107.952
0
LINE
8
BLACK
6
CONTINUOUS
10
163.387
20
-112.928
11
162.361
21
-110.109
0
LINE
8
BLACK
6
CONTINUOUS
10
174.413
20
-100.827
11
175.918
21
-104.962
0
LINE
8
BLACK
6
CONTINUOUS
10
161.891
20
-110.28
11
162.361
21
-110.109
0
LINE
8
BLACK
6
CONTINUOUS
10
173.944
20
-100.998
11
174.413
21
-100.827
0
LINE
8
BLACK
6
CONTINUOUS
10
164.892
20
-117.063
11
164.422
21
-117.234
0
LINE
8
BLACK
6
CONTINUOUS
10
173.601
20
-100.059
11
173.944
21
-100.998
0
LINE
8
BLACK
6
CONTINUOUS
10
175.448
20
-105.133
11
176.474
21
-107.952
0
LINE
8
BLACK
6
CONTINUOUS
10
160.318
20
-105.958
11
161.891
21
-110.28
0
LINE
8
BLACK
6
CONTINUOUS
10
173.601
20
-100.059
11
160.446
21
-104.847
0
LINE
8
BLACK
6
CONTINUOUS
10
178.518
20
-112.104
11
176.944
21
-107.781
0
LINE
8
BLACK
6
CONTINUOUS
10
178.048
20
-112.275
11
178.39
21
-113.214
0
LINE
8
BLACK
6
CONTINUOUS
10
162.917
20
-113.099
11
163.387
21
-112.928
0
LINE
8
BLACK
6
CONTINUOUS
10
165.234
20
-118.003
11
178.39
21
-113.214
0
LINE
8
BLACK
6
CONTINUOUS
10
175.918
20
-104.962
11
175.448
21
-105.133
0
LINE
8
BLACK
6
CONTINUOUS
10
164.422
20
-117.234
11
162.917
21
-113.099
0
LINE
8
BLACK
6
CONTINUOUS
10
251.727
20
-92.4974
11
251.385
21
-91.5577
0
LINE
8
BLACK
6
CONTINUOUS
10
265.011
20
-86.5984
11
263.437
21
-82.2758
0
LINE
8
BLACK
6
CONTINUOUS
10
261.941
20
-79.6278
11
262.967
21
-82.4468
0
LINE
8
BLACK
6
CONTINUOUS
10
247.281
20
-80.2814
11
246.939
21
-79.3417
0
LINE
8
BLACK
6
CONTINUOUS
10
250.915
20
-91.7287
11
249.41
21
-87.5941
0
LINE
8
BLACK
6
CONTINUOUS
10
262.411
20
-79.4568
11
261.941
21
-79.6278
0
LINE
8
BLACK
6
CONTINUOUS
10
249.88
20
-87.4231
11
248.854
21
-84.604
0
LINE
8
BLACK
6
CONTINUOUS
10
246.811
20
-80.4524
11
248.384
21
-84.775
0
LINE
8
BLACK
6
CONTINUOUS
10
260.436
20
-75.4931
11
260.906
21
-75.3221
0
LINE
8
BLACK
6
CONTINUOUS
10
249.41
20
-87.5941
11
249.88
21
-87.4231
0
LINE
8
BLACK
6
CONTINUOUS
10
263.437
20
-82.2758
11
262.967
21
-82.4468
0
LINE
8
BLACK
6
CONTINUOUS
10
264.541
20
-86.7694
11
265.011
21
-86.5984
0
LINE
8
BLACK
6
CONTINUOUS
10
260.906
20
-75.3221
11
262.411
21
-79.4568
0
LINE
8
BLACK
6
CONTINUOUS
10
264.541
20
-86.7694
11
264.883
21
-87.7091
0
LINE
8
BLACK
6
CONTINUOUS
10
251.727
20
-92.4974
11
264.883
21
-87.7091
0
LINE
8
BLACK
6
CONTINUOUS
10
260.094
20
-74.5534
11
246.939
21
-79.3417
0
LINE
8
BLACK
6
CONTINUOUS
10
248.384
20
-84.775
11
248.854
21
-84.604
0
LINE
8
BLACK
6
CONTINUOUS
10
247.281
20
-80.2814
11
246.811
21
-80.4524
0
LINE
8
BLACK
6
CONTINUOUS
10
260.094
20
-74.5534
11
260.436
21
-75.4931
0
LINE
8
BLACK
6
CONTINUOUS
10
251.385
20
-91.5577
11
250.915
21
-91.7287
0
LINE
8
BLACK
6
CONTINUOUS
10
47.497
20
-75.7602
11
49.0703
21
-71.4376
0
LINE
8
BLACK
6
CONTINUOUS
10
49.6265
20
-68.4475
11
48.6004
21
-71.2666
0
LINE
8
BLACK
6
CONTINUOUS
10
37.5059
20
-59.3536
11
35.9326
21
-63.6762
0
LINE
8
BLACK
6
CONTINUOUS
10
51.6012
20
-64.4839
11
50.0964
21
-68.6185
0
LINE
8
BLACK
6
CONTINUOUS
10
33.5294
20
-71.7406
11
46.6851
21
-76.5289
0
LINE
8
BLACK
6
CONTINUOUS
10
51.1314
20
-64.3129
11
51.6012
21
-64.4839
0
LINE
8
BLACK
6
CONTINUOUS
10
37.9757
20
-59.5246
11
37.5059
21
-59.3536
0
LINE
8
BLACK
6
CONTINUOUS
10
35.3763
20
-66.6662
11
36.4024
21
-63.8472
0
LINE
8
BLACK
6
CONTINUOUS
10
37.9757
20
-59.5246
11
38.3177
21
-58.5849
0
LINE
8
BLACK
6
CONTINUOUS
10
47.0272
20
-75.5892
11
46.6851
21
-76.5289
0
LINE
8
BLACK
6
CONTINUOUS
10
33.5294
20
-71.7406
11
33.8715
21
-70.8009
0
LINE
8
BLACK
6
CONTINUOUS
10
35.9326
20
-63.6762
11
36.4024
21
-63.8472
0
LINE
8
BLACK
6
CONTINUOUS
10
47.0272
20
-75.5892
11
47.497
21
-75.7602
0
LINE
8
BLACK
6
CONTINUOUS
10
34.9065
20
-66.4952
11
35.3763
21
-66.6662
0
LINE
8
BLACK
6
CONTINUOUS
10
50.0964
20
-68.6185
11
49.6265
21
-68.4475
0
LINE
8
BLACK
6
CONTINUOUS
10
33.4016
20
-70.6299
11
34.9065
21
-66.4952
0
LINE
8
BLACK
6
CONTINUOUS
10
51.4734
20
-63.3732
11
38.3177
21
-58.5849
0
LINE
8
BLACK
6
CONTINUOUS
10
51.4734
20
-63.3732
11
51.1314
21
-64.3129
0
LINE
8
BLACK
6
CONTINUOUS
10
33.8715
20
-70.8009
11
33.4016
21
-70.6299
0
LINE
8
BLACK
6
CONTINUOUS
10
49.0703
20
-71.4376
11
48.6004
21
-71.2666
0
CIRCLE
8
BLACK
10
116.292
20
-101.613
40
0.894427
0
LINE
8
BLACK
6
CONTINUOUS
10
114.162
20
-110.096
11
112.471
21
-109.481
0
LINE
8
BLACK
6
CONTINUOUS
10
114.778
20
-108.405
11
114.162
21
-110.096
0
LINE
8
BLACK
6
CONTINUOUS
10
112.471
20
-109.481
11
113.087
21
-107.789
0
LINE
8
BLACK
6
CONTINUOUS
10
113.087
20
-107.789
11
114.778
21
-108.405
0
CIRCLE
8
BLACK
10
156.64
20
-124.95
40
0.824621
0
CIRCLE
8
BLACK
10
156.64
20
-117.325
40
0.824621
0
CIRCLE
8
BLACK
10
155.827
20
-127.563
40
0.824621
0
CIRCLE
8
BLACK
10
150.436
20
-132.954
40
0.824621
0
CIRCLE
8
BLACK
10
136.736
20
-127.646
40
0.824621
0
CIRCLE
8
BLACK
10
142.127
20
-133.037
40
0.824621
0
CIRCLE
8
BLACK
10
152.079
20
-134.564
40
0.824621
0
CIRCLE
8
BLACK
10
157.471
20
-129.172
40
0.824621
0
CIRCLE
8
BLACK
10
140.514
20
-134.647
40
0.824621
0
CIRCLE
8
BLACK
10
135.122
20
-129.255
40
0.824621
0
CIRCLE
8
BLACK
10
135.94
20
-117.35
40
0.824621
0
CIRCLE
8
BLACK
10
135.94
20
-124.975
40
0.824621
  0
ENDSEC
  0
EOF
