G04 #@! TF.GenerationSoftware,KiCad,Pcbnew,(5.1.9)-1*
G04 #@! TF.CreationDate,2021-07-06T13:23:14+03:00*
G04 #@! TF.ProjectId,choctopus44-top-plate,63686f63-746f-4707-9573-34342d746f70,1.0 Prototype*
G04 #@! TF.SameCoordinates,Original*
G04 #@! TF.FileFunction,Profile,NP*
%FSLAX46Y46*%
G04 Gerber Fmt 4.6, Leading zero omitted, Abs format (unit mm)*
G04 Created by KiCad (PCBNEW (5.1.9)-1) date 2021-07-06 13:23:14*
%MOMM*%
%LPD*%
G01*
G04 APERTURE LIST*
G04 #@! TA.AperFunction,Profile*
%ADD10C,0.100000*%
G04 #@! TD*
G04 #@! TA.AperFunction,Profile*
%ADD11C,0.050000*%
G04 #@! TD*
G04 APERTURE END LIST*
D10*
X159190000Y-74030000D02*
X156805001Y-73604999D01*
X125552476Y-65052300D02*
X127299999Y-65364500D01*
X127299999Y-65364500D02*
G75*
G02*
X128105500Y-66529999I-179999J-985500D01*
G01*
X128105500Y-66529999D02*
X127925500Y-67519999D01*
X132290000Y-67250000D02*
X132110000Y-68240000D01*
X132290000Y-67250000D02*
G75*
G02*
X133455499Y-66444499I985500J-179999D01*
G01*
X132915001Y-69404999D02*
G75*
G02*
X132110000Y-68240000I179999J985000D01*
G01*
X127925500Y-67519999D02*
G75*
G02*
X126760001Y-68325500I-985500J179999D01*
G01*
X151995500Y-70729999D02*
X151815500Y-71719999D01*
X156180000Y-71450000D02*
X156000000Y-72440000D01*
X156180000Y-71450000D02*
G75*
G02*
X157345499Y-70644499I985500J-179999D01*
G01*
X151189999Y-69564500D02*
G75*
G02*
X151995500Y-70729999I-179999J-985500D01*
G01*
X142229836Y-67992785D02*
X151189999Y-69564500D01*
X138310000Y-138500000D02*
G75*
G02*
X138110000Y-138300000I0J200000D01*
G01*
X138110000Y-120700000D02*
G75*
G02*
X138310000Y-120500000I200000J0D01*
G01*
X151010000Y-120500000D02*
G75*
G02*
X151210000Y-120700000I0J-200000D01*
G01*
X151210000Y-138300000D02*
G75*
G02*
X151010000Y-138500000I-200000J0D01*
G01*
X138110000Y-138300000D02*
X138110000Y-120700000D01*
X151010000Y-138500000D02*
X138310000Y-138500000D01*
X151210000Y-120700000D02*
X151210000Y-138300000D01*
X138310000Y-120500000D02*
X151010000Y-120500000D01*
X175780000Y-57385000D02*
X175954348Y-57377131D01*
X175954348Y-57377131D02*
X176130532Y-57367581D01*
X176130532Y-57367581D02*
X176308568Y-57356338D01*
X176308568Y-57356338D02*
X176488476Y-57343388D01*
X176488476Y-57343388D02*
X176670274Y-57328721D01*
X176670274Y-57328721D02*
X176853979Y-57312325D01*
X176853979Y-57312325D02*
X177039611Y-57294187D01*
X177039611Y-57294187D02*
X177227187Y-57274296D01*
X177227187Y-57274296D02*
X177416726Y-57252640D01*
X177416726Y-57252640D02*
X177608247Y-57229207D01*
X177608247Y-57229207D02*
X177801766Y-57203985D01*
X177801766Y-57203985D02*
X177997304Y-57176962D01*
X177997304Y-57176962D02*
X178194878Y-57148127D01*
X178194878Y-57148127D02*
X178394506Y-57117467D01*
X178394506Y-57117467D02*
X178596207Y-57084970D01*
X178596207Y-57084970D02*
X178800000Y-57050625D01*
X178800000Y-57050625D02*
X179005901Y-57014419D01*
X179005901Y-57014419D02*
X179213930Y-56976341D01*
X179213930Y-56976341D02*
X179424105Y-56936379D01*
X179424105Y-56936379D02*
X179636445Y-56894521D01*
X179636445Y-56894521D02*
X179850967Y-56850755D01*
X179850967Y-56850755D02*
X180067690Y-56805069D01*
X180067690Y-56805069D02*
X180286632Y-56757451D01*
X180286632Y-56757451D02*
X180507812Y-56707890D01*
X180507812Y-56707890D02*
X180731248Y-56656373D01*
X180731248Y-56656373D02*
X180956958Y-56602889D01*
X180956958Y-56602889D02*
X181184960Y-56547425D01*
X181184960Y-56547425D02*
X181415273Y-56489970D01*
X181415273Y-56489970D02*
X181647915Y-56430512D01*
X181647915Y-56430512D02*
X181882905Y-56369039D01*
X181882905Y-56369039D02*
X182120260Y-56305539D01*
X182120260Y-56305539D02*
X182360000Y-56240000D01*
X160950000Y-71210000D02*
X160829062Y-71245136D01*
X160829062Y-71245136D02*
X160721250Y-71284843D01*
X160721250Y-71284843D02*
X160626562Y-71331816D01*
X160626562Y-71331816D02*
X160526660Y-71404855D01*
X160526660Y-71404855D02*
X160447265Y-71498723D01*
X160447265Y-71498723D02*
X160398515Y-71592351D01*
X160398515Y-71592351D02*
X160362890Y-71705373D01*
X160362890Y-71705373D02*
X160350000Y-71770000D01*
X177570000Y-66760000D02*
X177671434Y-66721235D01*
X177671434Y-66721235D02*
X177745369Y-66643446D01*
X177745369Y-66643446D02*
X177753935Y-66535994D01*
X177753935Y-66535994D02*
X177740000Y-66470000D01*
X175780000Y-57385000D02*
X175677695Y-57397535D01*
X175677695Y-57397535D02*
X175581718Y-57432548D01*
X175581718Y-57432548D02*
X175494628Y-57507875D01*
X175494628Y-57507875D02*
X175455781Y-57607194D01*
X175455781Y-57607194D02*
X175458320Y-57717940D01*
X175458320Y-57717940D02*
X175470000Y-57770000D01*
X177740000Y-66470000D02*
X175470000Y-57770000D01*
X160950000Y-71210000D02*
X177570000Y-66760000D01*
X157345499Y-70644499D02*
X158132549Y-70795447D01*
X156805001Y-73604999D02*
G75*
G02*
X156000000Y-72440000I179999J985000D01*
G01*
X151815500Y-71719999D02*
G75*
G02*
X150650001Y-72525500I-985500J179999D01*
G01*
X126760001Y-68325500D02*
X126600000Y-68290000D01*
X138995608Y-42653891D02*
X138895113Y-42642599D01*
X138895113Y-42642599D02*
X138791843Y-42636660D01*
X138791843Y-42636660D02*
X138687729Y-42636302D01*
X138687729Y-42636302D02*
X138584703Y-42641755D01*
X138584703Y-42641755D02*
X138484699Y-42653249D01*
X138484699Y-42653249D02*
X138371401Y-42675337D01*
X138371401Y-42675337D02*
X138353447Y-42679924D01*
X129309500Y-46155714D02*
X129209243Y-46161580D01*
X129209243Y-46161580D02*
X129094334Y-46170052D01*
X129094334Y-46170052D02*
X128975914Y-46183015D01*
X128975914Y-46183015D02*
X128861738Y-46204484D01*
X128861738Y-46204484D02*
X128752047Y-46241709D01*
X128752047Y-46241709D02*
X128649746Y-46296867D01*
X125571915Y-59002258D02*
X125676862Y-58993175D01*
X125676862Y-58993175D02*
X125774525Y-58964462D01*
X125774525Y-58964462D02*
X125872392Y-58902471D01*
X125872392Y-58902471D02*
X125936614Y-58821757D01*
X125936614Y-58821757D02*
X125977254Y-58712674D01*
X125977254Y-58712674D02*
X125981374Y-58691542D01*
X128090393Y-46667842D02*
X128009399Y-46735888D01*
X128009399Y-46735888D02*
X127945759Y-46827486D01*
X127945759Y-46827486D02*
X127899606Y-46933958D01*
X127899606Y-46933958D02*
X127869128Y-47046269D01*
X127869128Y-47046269D02*
X127861126Y-47088244D01*
X122052061Y-59088400D02*
X121950930Y-59100266D01*
X121950930Y-59100266D02*
X121850419Y-59127424D01*
X121850419Y-59127424D02*
X121751130Y-59174618D01*
X121751130Y-59174618D02*
X121653664Y-59246595D01*
X121653664Y-59246595D02*
X121574269Y-59328930D01*
X121574269Y-59328930D02*
X121527585Y-59389316D01*
X157861342Y-47185884D02*
X157845199Y-47085423D01*
X157845199Y-47085423D02*
X157824620Y-46971530D01*
X157824620Y-46971530D02*
X157788383Y-46873252D01*
X157788383Y-46873252D02*
X157716501Y-46785354D01*
X157716501Y-46785354D02*
X157630258Y-46713292D01*
X157630258Y-46713292D02*
X157560426Y-46661408D01*
X158165354Y-49485357D02*
X158185592Y-49590279D01*
X158185592Y-49590279D02*
X158216616Y-49699256D01*
X158216616Y-49699256D02*
X158260602Y-49794797D01*
X158260602Y-49794797D02*
X158323492Y-49882229D01*
X158323492Y-49882229D02*
X158394628Y-49952740D01*
X158394628Y-49952740D02*
X158466271Y-50009833D01*
X158132549Y-70795447D02*
X158238172Y-70801673D01*
X158238172Y-70801673D02*
X158344310Y-70790854D01*
X158344310Y-70790854D02*
X158448986Y-70764674D01*
X158448986Y-70764674D02*
X158550225Y-70724818D01*
X158550225Y-70724818D02*
X158646055Y-70672969D01*
X158646055Y-70672969D02*
X158734499Y-70610812D01*
X158734499Y-70610812D02*
X158813583Y-70540032D01*
X158813583Y-70540032D02*
X158881333Y-70462313D01*
X158881333Y-70462313D02*
X158950622Y-70350805D01*
X158950622Y-70350805D02*
X158991570Y-70233947D01*
X124872109Y-64843488D02*
X124967362Y-64882205D01*
X124967362Y-64882205D02*
X125077397Y-64924475D01*
X125077397Y-64924475D02*
X125192946Y-64964744D01*
X125192946Y-64964744D02*
X125290898Y-64994241D01*
X125290898Y-64994241D02*
X125395534Y-65020233D01*
X125395534Y-65020233D02*
X125498052Y-65041548D01*
X125498052Y-65041548D02*
X125552476Y-65052300D01*
X120495170Y-60871121D02*
X120442634Y-60961158D01*
X120442634Y-60961158D02*
X120401490Y-61064245D01*
X120401490Y-61064245D02*
X120385909Y-61175608D01*
X120385909Y-61175608D02*
X120397677Y-61286465D01*
X120397677Y-61286465D02*
X120405956Y-61321278D01*
X120938870Y-62990350D02*
X120977699Y-63092368D01*
X120977699Y-63092368D02*
X121029732Y-63190610D01*
X121029732Y-63190610D02*
X121103443Y-63279376D01*
X121103443Y-63279376D02*
X121197758Y-63349265D01*
X121197758Y-63349265D02*
X121300247Y-63401277D01*
X121300247Y-63401277D02*
X121319602Y-63409686D01*
X134918897Y-45805924D02*
X135040526Y-45797351D01*
X135040526Y-45797351D02*
X135155053Y-45782929D01*
X135155053Y-45782929D02*
X135259555Y-45744882D01*
X135259555Y-45744882D02*
X135337038Y-45680037D01*
X135337038Y-45680037D02*
X135401678Y-45593890D01*
X135401678Y-45593890D02*
X135443409Y-45525008D01*
X137044131Y-43072212D02*
X136933960Y-43103934D01*
X136933960Y-43103934D02*
X136827863Y-43143889D01*
X136827863Y-43143889D02*
X136729602Y-43205122D01*
X136729602Y-43205122D02*
X136657774Y-43281009D01*
X136657774Y-43281009D02*
X136600326Y-43368011D01*
X136600326Y-43368011D02*
X136564759Y-43433047D01*
X156228867Y-45768730D02*
X156129310Y-45713115D01*
X156129310Y-45713115D02*
X156033049Y-45673388D01*
X156033049Y-45673388D02*
X155928354Y-45643907D01*
X155928354Y-45643907D02*
X155823010Y-45622515D01*
X155823010Y-45622515D02*
X155718578Y-45604708D01*
X136564759Y-43433047D02*
X135443409Y-45525008D01*
X128649746Y-46296867D02*
X128090393Y-46667842D01*
X157560426Y-46661408D02*
X156228867Y-45768730D01*
X155718578Y-45604708D02*
X138995608Y-42653891D01*
X121319602Y-63409686D02*
X124872109Y-64843488D01*
X138353447Y-42679924D02*
X137044131Y-43072212D01*
X161720150Y-52229157D02*
X158466271Y-50009833D01*
X134918897Y-45805924D02*
X129309500Y-46155714D01*
X158991570Y-70233947D02*
X162071371Y-52928545D01*
X133455499Y-66444499D02*
X142229836Y-67992785D01*
X127861126Y-47088244D02*
X125981374Y-58691542D01*
X158165354Y-49485357D02*
X157861342Y-47185884D01*
X120938870Y-62990350D02*
X120405956Y-61321278D01*
X125571915Y-59002258D02*
X122052061Y-59088400D01*
X121527585Y-59389316D02*
X120495170Y-60871121D01*
X162071371Y-52928545D02*
X162084832Y-52808208D01*
X162084832Y-52808208D02*
X162086608Y-52706642D01*
X162086608Y-52706642D02*
X162068812Y-52598946D01*
X162068812Y-52598946D02*
X162024487Y-52504114D01*
X162024487Y-52504114D02*
X161949041Y-52412998D01*
X161949041Y-52412998D02*
X161863190Y-52336634D01*
X161863190Y-52336634D02*
X161782387Y-52274263D01*
X161782387Y-52274263D02*
X161720150Y-52229157D01*
X160350000Y-71770000D02*
X160050000Y-73500000D01*
X150650001Y-72525500D02*
X132915001Y-69404999D01*
X159190000Y-74030000D02*
X159332009Y-74049794D01*
X159332009Y-74049794D02*
X159460175Y-74053356D01*
X159460175Y-74053356D02*
X159574895Y-74041329D01*
X159574895Y-74041329D02*
X159676562Y-74014355D01*
X159676562Y-74014355D02*
X159792500Y-73956250D01*
X159792500Y-73956250D02*
X159886875Y-73874238D01*
X159886875Y-73874238D02*
X159960625Y-73769843D01*
X159960625Y-73769843D02*
X160002966Y-73677775D01*
X160002966Y-73677775D02*
X160034628Y-73574616D01*
X160034628Y-73574616D02*
X160050000Y-73500000D01*
X126600000Y-68290000D02*
X126486152Y-68237539D01*
X126486152Y-68237539D02*
X126412968Y-68142187D01*
X126412968Y-68142187D02*
X126366738Y-68018242D01*
X126366738Y-68018242D02*
X126341505Y-67915119D01*
X126341505Y-67915119D02*
X126317937Y-67809985D01*
X126317937Y-67809985D02*
X126290248Y-67708872D01*
X126290248Y-67708872D02*
X126236924Y-67590735D01*
X126236924Y-67590735D02*
X126152282Y-67504766D01*
X126152282Y-67504766D02*
X126060000Y-67470000D01*
X100200000Y-54425000D02*
X109575000Y-56940000D01*
X189125000Y-54425000D02*
X182360000Y-56240000D01*
X235375000Y-59450000D02*
X250995000Y-55270000D01*
X209995000Y-56240000D02*
X211995552Y-56660056D01*
X211995552Y-56660056D02*
X213882995Y-57047290D01*
X213882995Y-57047290D02*
X215660849Y-57402919D01*
X215660849Y-57402919D02*
X217332636Y-57728164D01*
X217332636Y-57728164D02*
X218901877Y-58024243D01*
X218901877Y-58024243D02*
X220372092Y-58292377D01*
X220372092Y-58292377D02*
X221746803Y-58533786D01*
X221746803Y-58533786D02*
X223029531Y-58749687D01*
X223029531Y-58749687D02*
X224223797Y-58941301D01*
X224223797Y-58941301D02*
X225333122Y-59109848D01*
X225333122Y-59109848D02*
X226361028Y-59256547D01*
X226361028Y-59256547D02*
X227311035Y-59382617D01*
X227311035Y-59382617D02*
X228186664Y-59489277D01*
X228186664Y-59489277D02*
X228991437Y-59577749D01*
X228991437Y-59577749D02*
X229728876Y-59649249D01*
X229728876Y-59649249D02*
X230402500Y-59705000D01*
X230402500Y-59705000D02*
X231015830Y-59746218D01*
X231015830Y-59746218D02*
X231572390Y-59774125D01*
X231572390Y-59774125D02*
X232075698Y-59789940D01*
X232075698Y-59789940D02*
X232529277Y-59794882D01*
X232529277Y-59794882D02*
X232936647Y-59790171D01*
X232936647Y-59790171D02*
X233301330Y-59777026D01*
X233301330Y-59777026D02*
X233626847Y-59756666D01*
X233626847Y-59756666D02*
X233916718Y-59730312D01*
X233916718Y-59730312D02*
X234174466Y-59699182D01*
X234174466Y-59699182D02*
X234403610Y-59664497D01*
X234403610Y-59664497D02*
X234607673Y-59627474D01*
X234607673Y-59627474D02*
X234790175Y-59589335D01*
X234790175Y-59589335D02*
X234954638Y-59551299D01*
X234954638Y-59551299D02*
X235104582Y-59514584D01*
X235104582Y-59514584D02*
X235243529Y-59480411D01*
X235243529Y-59480411D02*
X235375000Y-59450000D01*
X189125000Y-54425000D02*
X189727491Y-54288683D01*
X189727491Y-54288683D02*
X190364738Y-54177921D01*
X190364738Y-54177921D02*
X191033586Y-54091404D01*
X191033586Y-54091404D02*
X191730878Y-54027822D01*
X191730878Y-54027822D02*
X192453462Y-53985865D01*
X192453462Y-53985865D02*
X193198181Y-53964222D01*
X193198181Y-53964222D02*
X193961880Y-53961584D01*
X193961880Y-53961584D02*
X194741406Y-53976640D01*
X194741406Y-53976640D02*
X195533602Y-54008081D01*
X195533602Y-54008081D02*
X196335314Y-54054595D01*
X196335314Y-54054595D02*
X197143388Y-54114874D01*
X197143388Y-54114874D02*
X197954667Y-54187607D01*
X197954667Y-54187607D02*
X198765998Y-54271483D01*
X198765998Y-54271483D02*
X199574226Y-54365194D01*
X199574226Y-54365194D02*
X200376194Y-54467427D01*
X200376194Y-54467427D02*
X201168750Y-54576875D01*
X201168750Y-54576875D02*
X201948736Y-54692225D01*
X201948736Y-54692225D02*
X202713000Y-54812169D01*
X202713000Y-54812169D02*
X203458385Y-54935395D01*
X203458385Y-54935395D02*
X204181738Y-55060595D01*
X204181738Y-55060595D02*
X204879902Y-55186458D01*
X204879902Y-55186458D02*
X205549724Y-55311673D01*
X205549724Y-55311673D02*
X206188047Y-55434931D01*
X206188047Y-55434931D02*
X206791718Y-55554921D01*
X206791718Y-55554921D02*
X207357582Y-55670334D01*
X207357582Y-55670334D02*
X207882482Y-55779859D01*
X207882482Y-55779859D02*
X208363266Y-55882186D01*
X208363266Y-55882186D02*
X208796777Y-55976005D01*
X208796777Y-55976005D02*
X209179861Y-56060006D01*
X209179861Y-56060006D02*
X209509362Y-56132879D01*
X209509362Y-56132879D02*
X209782127Y-56193314D01*
X209782127Y-56193314D02*
X209995000Y-56240000D01*
X79330000Y-56240000D02*
X77329234Y-56660056D01*
X77329234Y-56660056D02*
X75441180Y-57047290D01*
X75441180Y-57047290D02*
X73662357Y-57402919D01*
X73662357Y-57402919D02*
X71989287Y-57728164D01*
X71989287Y-57728164D02*
X70418488Y-58024243D01*
X70418488Y-58024243D02*
X68946480Y-58292377D01*
X68946480Y-58292377D02*
X67569785Y-58533786D01*
X67569785Y-58533786D02*
X66284921Y-58749687D01*
X66284921Y-58749687D02*
X65088410Y-58941301D01*
X65088410Y-58941301D02*
X63976771Y-59109848D01*
X63976771Y-59109848D02*
X62946524Y-59256547D01*
X62946524Y-59256547D02*
X61994189Y-59382617D01*
X61994189Y-59382617D02*
X61116287Y-59489277D01*
X61116287Y-59489277D02*
X60309337Y-59577749D01*
X60309337Y-59577749D02*
X59569859Y-59649249D01*
X59569859Y-59649249D02*
X58894375Y-59705000D01*
X58894375Y-59705000D02*
X58279402Y-59746218D01*
X58279402Y-59746218D02*
X57721463Y-59774125D01*
X57721463Y-59774125D02*
X57217077Y-59789940D01*
X57217077Y-59789940D02*
X56762763Y-59794882D01*
X56762763Y-59794882D02*
X56355043Y-59790171D01*
X56355043Y-59790171D02*
X55990435Y-59777026D01*
X55990435Y-59777026D02*
X55665461Y-59756666D01*
X55665461Y-59756666D02*
X55376640Y-59730312D01*
X55376640Y-59730312D02*
X55120493Y-59699182D01*
X55120493Y-59699182D02*
X54893538Y-59664497D01*
X54893538Y-59664497D02*
X54692298Y-59627474D01*
X54692298Y-59627474D02*
X54513291Y-59589335D01*
X54513291Y-59589335D02*
X54353037Y-59551299D01*
X54353037Y-59551299D02*
X54208057Y-59514584D01*
X54208057Y-59514584D02*
X54074871Y-59480411D01*
X54074871Y-59480411D02*
X53950000Y-59450000D01*
X53950000Y-59450000D02*
X38330000Y-55270000D01*
X100200000Y-54425000D02*
X99597508Y-54288683D01*
X99597508Y-54288683D02*
X98960261Y-54177921D01*
X98960261Y-54177921D02*
X98291413Y-54091404D01*
X98291413Y-54091404D02*
X97594121Y-54027822D01*
X97594121Y-54027822D02*
X96871537Y-53985865D01*
X96871537Y-53985865D02*
X96126818Y-53964222D01*
X96126818Y-53964222D02*
X95363119Y-53961584D01*
X95363119Y-53961584D02*
X94583593Y-53976640D01*
X94583593Y-53976640D02*
X93791397Y-54008081D01*
X93791397Y-54008081D02*
X92989685Y-54054595D01*
X92989685Y-54054595D02*
X92181611Y-54114874D01*
X92181611Y-54114874D02*
X91370332Y-54187607D01*
X91370332Y-54187607D02*
X90559001Y-54271483D01*
X90559001Y-54271483D02*
X89750773Y-54365194D01*
X89750773Y-54365194D02*
X88948805Y-54467427D01*
X88948805Y-54467427D02*
X88156250Y-54576875D01*
X88156250Y-54576875D02*
X87376263Y-54692225D01*
X87376263Y-54692225D02*
X86611999Y-54812169D01*
X86611999Y-54812169D02*
X85866614Y-54935395D01*
X85866614Y-54935395D02*
X85143261Y-55060595D01*
X85143261Y-55060595D02*
X84445097Y-55186458D01*
X84445097Y-55186458D02*
X83775275Y-55311673D01*
X83775275Y-55311673D02*
X83136952Y-55434931D01*
X83136952Y-55434931D02*
X82533281Y-55554921D01*
X82533281Y-55554921D02*
X81967417Y-55670334D01*
X81967417Y-55670334D02*
X81442517Y-55779859D01*
X81442517Y-55779859D02*
X80961733Y-55882186D01*
X80961733Y-55882186D02*
X80528222Y-55976005D01*
X80528222Y-55976005D02*
X80145138Y-56060006D01*
X80145138Y-56060006D02*
X79815637Y-56132879D01*
X79815637Y-56132879D02*
X79542872Y-56193314D01*
X79542872Y-56193314D02*
X79330000Y-56240000D01*
X66780000Y-130910000D02*
X66817498Y-131058239D01*
X66817498Y-131058239D02*
X66862490Y-131188886D01*
X66862490Y-131188886D02*
X66914967Y-131303332D01*
X66914967Y-131303332D02*
X66974921Y-131402968D01*
X66974921Y-131402968D02*
X67042347Y-131489187D01*
X67042347Y-131489187D02*
X67117236Y-131563378D01*
X67117236Y-131563378D02*
X67199581Y-131626936D01*
X67199581Y-131626936D02*
X67289375Y-131681250D01*
X67289375Y-131681250D02*
X67386610Y-131727712D01*
X67386610Y-131727712D02*
X67491279Y-131767714D01*
X67491279Y-131767714D02*
X67603375Y-131802648D01*
X67603375Y-131802648D02*
X67722890Y-131833906D01*
X67722890Y-131833906D02*
X67849818Y-131862878D01*
X67849818Y-131862878D02*
X67984150Y-131890957D01*
X67984150Y-131890957D02*
X68125880Y-131919533D01*
X68125880Y-131919533D02*
X68275000Y-131950000D01*
X36600000Y-56100000D02*
X22780000Y-107550000D01*
X38330000Y-55270000D02*
X38227404Y-55246582D01*
X38227404Y-55246582D02*
X38115800Y-55229375D01*
X38115800Y-55229375D02*
X37996960Y-55219199D01*
X37996960Y-55219199D02*
X37872656Y-55216875D01*
X37872656Y-55216875D02*
X37744660Y-55223222D01*
X37744660Y-55223222D02*
X37614746Y-55239062D01*
X37614746Y-55239062D02*
X37484685Y-55265214D01*
X37484685Y-55265214D02*
X37356250Y-55302500D01*
X37356250Y-55302500D02*
X37231213Y-55351738D01*
X37231213Y-55351738D02*
X37111347Y-55413750D01*
X37111347Y-55413750D02*
X36998425Y-55489355D01*
X36998425Y-55489355D02*
X36894218Y-55579375D01*
X36894218Y-55579375D02*
X36800500Y-55684628D01*
X36800500Y-55684628D02*
X36719042Y-55805937D01*
X36719042Y-55805937D02*
X36651618Y-55944121D01*
X36651618Y-55944121D02*
X36600000Y-56100000D01*
X22780000Y-107550000D02*
X22746525Y-107741562D01*
X22746525Y-107741562D02*
X22734863Y-107919062D01*
X22734863Y-107919062D02*
X22743151Y-108082968D01*
X22743151Y-108082968D02*
X22769531Y-108233750D01*
X22769531Y-108233750D02*
X22812141Y-108371875D01*
X22812141Y-108371875D02*
X22869121Y-108497812D01*
X22869121Y-108497812D02*
X22938610Y-108612031D01*
X22938610Y-108612031D02*
X23018750Y-108715000D01*
X23018750Y-108715000D02*
X23107678Y-108807187D01*
X23107678Y-108807187D02*
X23203535Y-108889062D01*
X23203535Y-108889062D02*
X23304460Y-108961093D01*
X23304460Y-108961093D02*
X23408593Y-109023750D01*
X23408593Y-109023750D02*
X23514074Y-109077500D01*
X23514074Y-109077500D02*
X23619042Y-109122812D01*
X23619042Y-109122812D02*
X23721638Y-109160156D01*
X23721638Y-109160156D02*
X23820000Y-109190000D01*
X266540000Y-107550000D02*
X266573474Y-107741562D01*
X266573474Y-107741562D02*
X266585136Y-107919062D01*
X266585136Y-107919062D02*
X266576848Y-108082968D01*
X266576848Y-108082968D02*
X266550468Y-108233750D01*
X266550468Y-108233750D02*
X266507858Y-108371875D01*
X266507858Y-108371875D02*
X266450878Y-108497812D01*
X266450878Y-108497812D02*
X266381389Y-108612031D01*
X266381389Y-108612031D02*
X266301250Y-108715000D01*
X266301250Y-108715000D02*
X266212321Y-108807187D01*
X266212321Y-108807187D02*
X266116464Y-108889062D01*
X266116464Y-108889062D02*
X266015539Y-108961093D01*
X266015539Y-108961093D02*
X265911406Y-109023750D01*
X265911406Y-109023750D02*
X265805925Y-109077500D01*
X265805925Y-109077500D02*
X265700957Y-109122812D01*
X265700957Y-109122812D02*
X265598361Y-109160156D01*
X265598361Y-109160156D02*
X265500000Y-109190000D01*
X252720000Y-56100000D02*
X266540000Y-107550000D01*
X250990000Y-55270000D02*
X251092595Y-55246582D01*
X251092595Y-55246582D02*
X251204199Y-55229375D01*
X251204199Y-55229375D02*
X251323039Y-55219199D01*
X251323039Y-55219199D02*
X251447343Y-55216875D01*
X251447343Y-55216875D02*
X251575339Y-55223222D01*
X251575339Y-55223222D02*
X251705253Y-55239062D01*
X251705253Y-55239062D02*
X251835314Y-55265214D01*
X251835314Y-55265214D02*
X251963750Y-55302500D01*
X251963750Y-55302500D02*
X252088786Y-55351738D01*
X252088786Y-55351738D02*
X252208652Y-55413750D01*
X252208652Y-55413750D02*
X252321574Y-55489355D01*
X252321574Y-55489355D02*
X252425781Y-55579375D01*
X252425781Y-55579375D02*
X252519499Y-55684628D01*
X252519499Y-55684628D02*
X252600957Y-55805937D01*
X252600957Y-55805937D02*
X252668381Y-55944121D01*
X252668381Y-55944121D02*
X252720000Y-56100000D01*
X132230000Y-161910000D02*
X133363060Y-161784667D01*
X133363060Y-161784667D02*
X134427182Y-161667421D01*
X134427182Y-161667421D02*
X135426961Y-161558261D01*
X135426961Y-161558261D02*
X136366992Y-161457187D01*
X136366992Y-161457187D02*
X137251871Y-161364199D01*
X137251871Y-161364199D02*
X138086196Y-161279296D01*
X138086196Y-161279296D02*
X138874561Y-161202480D01*
X138874561Y-161202480D02*
X139621562Y-161133750D01*
X139621562Y-161133750D02*
X140331796Y-161073105D01*
X140331796Y-161073105D02*
X141009858Y-161020546D01*
X141009858Y-161020546D02*
X141660344Y-160976074D01*
X141660344Y-160976074D02*
X142287851Y-160939687D01*
X142287851Y-160939687D02*
X142896974Y-160911386D01*
X142896974Y-160911386D02*
X143492309Y-160891171D01*
X143492309Y-160891171D02*
X144078452Y-160879042D01*
X144078452Y-160879042D02*
X144660000Y-160875000D01*
X144660000Y-160875000D02*
X145241547Y-160879042D01*
X145241547Y-160879042D02*
X145827690Y-160891171D01*
X145827690Y-160891171D02*
X146423025Y-160911386D01*
X146423025Y-160911386D02*
X147032148Y-160939687D01*
X147032148Y-160939687D02*
X147659655Y-160976074D01*
X147659655Y-160976074D02*
X148310141Y-161020546D01*
X148310141Y-161020546D02*
X148988203Y-161073105D01*
X148988203Y-161073105D02*
X149698437Y-161133750D01*
X149698437Y-161133750D02*
X150445438Y-161202480D01*
X150445438Y-161202480D02*
X151233803Y-161279296D01*
X151233803Y-161279296D02*
X152068128Y-161364199D01*
X152068128Y-161364199D02*
X152953007Y-161457187D01*
X152953007Y-161457187D02*
X153893038Y-161558261D01*
X153893038Y-161558261D02*
X154892817Y-161667421D01*
X154892817Y-161667421D02*
X155956939Y-161784667D01*
X155956939Y-161784667D02*
X157090000Y-161910000D01*
X157090000Y-161910000D02*
X157193263Y-161912980D01*
X157193263Y-161912980D02*
X157295949Y-161894816D01*
X157295949Y-161894816D02*
X157399591Y-161857043D01*
X157399591Y-161857043D02*
X157505722Y-161801191D01*
X157505722Y-161801191D02*
X157615874Y-161728794D01*
X157615874Y-161728794D02*
X157731579Y-161641384D01*
X157731579Y-161641384D02*
X157812558Y-161575527D01*
X157812558Y-161575527D02*
X157897141Y-161504133D01*
X157897141Y-161504133D02*
X157985781Y-161427656D01*
X157985781Y-161427656D02*
X158078933Y-161346550D01*
X158078933Y-161346550D02*
X158177050Y-161261269D01*
X158177050Y-161261269D02*
X158280588Y-161172268D01*
X158280588Y-161172268D02*
X158390000Y-161080000D01*
X65670000Y-125320000D02*
X65594965Y-124971275D01*
X65594965Y-124971275D02*
X65508823Y-124631960D01*
X65508823Y-124631960D02*
X65411892Y-124302031D01*
X65411892Y-124302031D02*
X65304492Y-123981464D01*
X65304492Y-123981464D02*
X65186940Y-123670236D01*
X65186940Y-123670236D02*
X65059555Y-123368322D01*
X65059555Y-123368322D02*
X64922656Y-123075699D01*
X64922656Y-123075699D02*
X64776562Y-122792343D01*
X64776562Y-122792343D02*
X64621591Y-122518230D01*
X64621591Y-122518230D02*
X64458061Y-122253337D01*
X64458061Y-122253337D02*
X64286292Y-121997639D01*
X64286292Y-121997639D02*
X64106601Y-121751113D01*
X64106601Y-121751113D02*
X63919308Y-121513735D01*
X63919308Y-121513735D02*
X63724731Y-121285480D01*
X63724731Y-121285480D02*
X63523189Y-121066327D01*
X63523189Y-121066327D02*
X63315000Y-120856250D01*
X63315000Y-120856250D02*
X63100482Y-120655225D01*
X63100482Y-120655225D02*
X62879956Y-120463229D01*
X62879956Y-120463229D02*
X62653738Y-120280239D01*
X62653738Y-120280239D02*
X62422148Y-120106230D01*
X62422148Y-120106230D02*
X62185504Y-119941178D01*
X62185504Y-119941178D02*
X61944125Y-119785061D01*
X61944125Y-119785061D02*
X61698330Y-119637853D01*
X61698330Y-119637853D02*
X61448437Y-119499531D01*
X61448437Y-119499531D02*
X61194765Y-119370071D01*
X61194765Y-119370071D02*
X60937631Y-119249450D01*
X60937631Y-119249450D02*
X60677356Y-119137644D01*
X60677356Y-119137644D02*
X60414257Y-119034628D01*
X60414257Y-119034628D02*
X60148654Y-118940380D01*
X60148654Y-118940380D02*
X59880864Y-118854875D01*
X59880864Y-118854875D02*
X59611206Y-118778089D01*
X59611206Y-118778089D02*
X59340000Y-118710000D01*
X65670000Y-125320000D02*
X66780000Y-130910000D01*
X222540000Y-130910000D02*
X222502501Y-131058239D01*
X222502501Y-131058239D02*
X222457509Y-131188886D01*
X222457509Y-131188886D02*
X222405032Y-131303332D01*
X222405032Y-131303332D02*
X222345078Y-131402968D01*
X222345078Y-131402968D02*
X222277652Y-131489187D01*
X222277652Y-131489187D02*
X222202763Y-131563378D01*
X222202763Y-131563378D02*
X222120418Y-131626936D01*
X222120418Y-131626936D02*
X222030625Y-131681250D01*
X222030625Y-131681250D02*
X221933389Y-131727712D01*
X221933389Y-131727712D02*
X221828720Y-131767714D01*
X221828720Y-131767714D02*
X221716624Y-131802648D01*
X221716624Y-131802648D02*
X221597109Y-131833906D01*
X221597109Y-131833906D02*
X221470181Y-131862878D01*
X221470181Y-131862878D02*
X221335849Y-131890957D01*
X221335849Y-131890957D02*
X221194119Y-131919533D01*
X221194119Y-131919533D02*
X221045000Y-131950000D01*
X223650000Y-125320000D02*
X223725034Y-124971275D01*
X223725034Y-124971275D02*
X223811176Y-124631960D01*
X223811176Y-124631960D02*
X223908107Y-124302031D01*
X223908107Y-124302031D02*
X224015507Y-123981464D01*
X224015507Y-123981464D02*
X224133059Y-123670236D01*
X224133059Y-123670236D02*
X224260444Y-123368322D01*
X224260444Y-123368322D02*
X224397343Y-123075699D01*
X224397343Y-123075699D02*
X224543437Y-122792343D01*
X224543437Y-122792343D02*
X224698408Y-122518230D01*
X224698408Y-122518230D02*
X224861938Y-122253337D01*
X224861938Y-122253337D02*
X225033707Y-121997639D01*
X225033707Y-121997639D02*
X225213398Y-121751113D01*
X225213398Y-121751113D02*
X225400691Y-121513735D01*
X225400691Y-121513735D02*
X225595268Y-121285480D01*
X225595268Y-121285480D02*
X225796810Y-121066327D01*
X225796810Y-121066327D02*
X226005000Y-120856250D01*
X226005000Y-120856250D02*
X226219517Y-120655225D01*
X226219517Y-120655225D02*
X226440043Y-120463229D01*
X226440043Y-120463229D02*
X226666261Y-120280239D01*
X226666261Y-120280239D02*
X226897851Y-120106230D01*
X226897851Y-120106230D02*
X227134495Y-119941178D01*
X227134495Y-119941178D02*
X227375874Y-119785061D01*
X227375874Y-119785061D02*
X227621669Y-119637853D01*
X227621669Y-119637853D02*
X227871562Y-119499531D01*
X227871562Y-119499531D02*
X228125234Y-119370071D01*
X228125234Y-119370071D02*
X228382368Y-119249450D01*
X228382368Y-119249450D02*
X228642643Y-119137644D01*
X228642643Y-119137644D02*
X228905742Y-119034628D01*
X228905742Y-119034628D02*
X229171345Y-118940380D01*
X229171345Y-118940380D02*
X229439135Y-118854875D01*
X229439135Y-118854875D02*
X229708793Y-118778089D01*
X229708793Y-118778089D02*
X229980000Y-118710000D01*
X223650000Y-125320000D02*
X222540000Y-130910000D01*
X132230000Y-161910000D02*
X132126736Y-161912980D01*
X132126736Y-161912980D02*
X132024050Y-161894816D01*
X132024050Y-161894816D02*
X131920408Y-161857043D01*
X131920408Y-161857043D02*
X131814277Y-161801191D01*
X131814277Y-161801191D02*
X131704125Y-161728794D01*
X131704125Y-161728794D02*
X131588420Y-161641384D01*
X131588420Y-161641384D02*
X131507441Y-161575527D01*
X131507441Y-161575527D02*
X131422858Y-161504133D01*
X131422858Y-161504133D02*
X131334218Y-161427656D01*
X131334218Y-161427656D02*
X131241066Y-161346550D01*
X131241066Y-161346550D02*
X131142949Y-161261269D01*
X131142949Y-161261269D02*
X131039411Y-161172268D01*
X131039411Y-161172268D02*
X130930000Y-161080000D01*
X265500000Y-109190000D02*
X229980000Y-118710000D01*
X221045000Y-131950000D02*
X218118460Y-132559101D01*
X218118460Y-132559101D02*
X215329172Y-133151325D01*
X215329172Y-133151325D02*
X212669657Y-133730304D01*
X212669657Y-133730304D02*
X210132441Y-134299667D01*
X210132441Y-134299667D02*
X207710046Y-134863047D01*
X207710046Y-134863047D02*
X205394997Y-135424074D01*
X205394997Y-135424074D02*
X203179817Y-135986379D01*
X203179817Y-135986379D02*
X201057031Y-136553593D01*
X201057031Y-136553593D02*
X199019161Y-137129347D01*
X199019161Y-137129347D02*
X197058732Y-137717272D01*
X197058732Y-137717272D02*
X195168268Y-138321000D01*
X195168268Y-138321000D02*
X193340292Y-138944160D01*
X193340292Y-138944160D02*
X191567329Y-139590384D01*
X191567329Y-139590384D02*
X189841901Y-140263303D01*
X189841901Y-140263303D02*
X188156534Y-140966548D01*
X188156534Y-140966548D02*
X186503750Y-141703750D01*
X186503750Y-141703750D02*
X184876073Y-142478539D01*
X184876073Y-142478539D02*
X183266027Y-143294548D01*
X183266027Y-143294548D02*
X181666137Y-144155406D01*
X181666137Y-144155406D02*
X180068925Y-145064746D01*
X180068925Y-145064746D02*
X178466916Y-146026197D01*
X178466916Y-146026197D02*
X176852634Y-147043391D01*
X176852634Y-147043391D02*
X175218601Y-148119958D01*
X175218601Y-148119958D02*
X173557343Y-149259531D01*
X173557343Y-149259531D02*
X171861383Y-150465739D01*
X171861383Y-150465739D02*
X170123244Y-151742214D01*
X170123244Y-151742214D02*
X168335451Y-153092586D01*
X168335451Y-153092586D02*
X166490527Y-154520488D01*
X166490527Y-154520488D02*
X164580996Y-156029549D01*
X164580996Y-156029549D02*
X162599382Y-157623400D01*
X162599382Y-157623400D02*
X160538208Y-159305674D01*
X160538208Y-159305674D02*
X158390000Y-161080000D01*
X115750000Y-62330000D02*
X115965315Y-62695690D01*
X115965315Y-62695690D02*
X116173034Y-63037753D01*
X116173034Y-63037753D02*
X116373938Y-63357111D01*
X116373938Y-63357111D02*
X116568808Y-63654687D01*
X116568808Y-63654687D02*
X116758427Y-63931403D01*
X116758427Y-63931403D02*
X116943576Y-64188183D01*
X116943576Y-64188183D02*
X117125038Y-64425949D01*
X117125038Y-64425949D02*
X117303593Y-64645625D01*
X117303593Y-64645625D02*
X117480025Y-64848132D01*
X117480025Y-64848132D02*
X117655114Y-65034394D01*
X117655114Y-65034394D02*
X117829643Y-65205334D01*
X117829643Y-65205334D02*
X118004394Y-65361875D01*
X118004394Y-65361875D02*
X118180148Y-65504938D01*
X118180148Y-65504938D02*
X118357687Y-65635449D01*
X118357687Y-65635449D02*
X118537794Y-65754328D01*
X118537794Y-65754328D02*
X118721250Y-65862500D01*
X118721250Y-65862500D02*
X118908836Y-65960886D01*
X118908836Y-65960886D02*
X119101335Y-66050410D01*
X119101335Y-66050410D02*
X119299529Y-66131994D01*
X119299529Y-66131994D02*
X119504199Y-66206562D01*
X119504199Y-66206562D02*
X119716127Y-66275036D01*
X119716127Y-66275036D02*
X119936096Y-66338339D01*
X119936096Y-66338339D02*
X120164886Y-66397395D01*
X120164886Y-66397395D02*
X120403281Y-66453125D01*
X120403281Y-66453125D02*
X120652061Y-66506452D01*
X120652061Y-66506452D02*
X120912009Y-66558300D01*
X120912009Y-66558300D02*
X121183906Y-66609592D01*
X121183906Y-66609592D02*
X121468535Y-66661250D01*
X121468535Y-66661250D02*
X121766676Y-66714196D01*
X121766676Y-66714196D02*
X122079113Y-66769355D01*
X122079113Y-66769355D02*
X122406627Y-66827648D01*
X122406627Y-66827648D02*
X122750000Y-66890000D01*
X115750000Y-62330000D02*
X115569533Y-62008927D01*
X115569533Y-62008927D02*
X115398687Y-61703452D01*
X115398687Y-61703452D02*
X115236420Y-61412998D01*
X115236420Y-61412998D02*
X115081689Y-61136992D01*
X115081689Y-61136992D02*
X114933451Y-60874857D01*
X114933451Y-60874857D02*
X114790662Y-60626020D01*
X114790662Y-60626020D02*
X114652281Y-60389905D01*
X114652281Y-60389905D02*
X114517265Y-60165937D01*
X114517265Y-60165937D02*
X114384571Y-59953541D01*
X114384571Y-59953541D02*
X114253155Y-59752143D01*
X114253155Y-59752143D02*
X114121976Y-59561167D01*
X114121976Y-59561167D02*
X113989990Y-59380039D01*
X113989990Y-59380039D02*
X113856154Y-59208182D01*
X113856154Y-59208182D02*
X113719427Y-59045024D01*
X113719427Y-59045024D02*
X113578765Y-58889988D01*
X113578765Y-58889988D02*
X113433125Y-58742500D01*
X113433125Y-58742500D02*
X113281464Y-58601984D01*
X113281464Y-58601984D02*
X113122740Y-58467866D01*
X113122740Y-58467866D02*
X112955910Y-58339570D01*
X112955910Y-58339570D02*
X112779931Y-58216523D01*
X112779931Y-58216523D02*
X112593761Y-58098148D01*
X112593761Y-58098148D02*
X112396356Y-57983872D01*
X112396356Y-57983872D02*
X112186674Y-57873118D01*
X112186674Y-57873118D02*
X111963671Y-57765312D01*
X111963671Y-57765312D02*
X111726306Y-57659879D01*
X111726306Y-57659879D02*
X111473536Y-57556245D01*
X111473536Y-57556245D02*
X111204317Y-57453833D01*
X111204317Y-57453833D02*
X110917607Y-57352070D01*
X110917607Y-57352070D02*
X110612363Y-57250380D01*
X110612363Y-57250380D02*
X110287542Y-57148188D01*
X110287542Y-57148188D02*
X109942102Y-57044920D01*
X109942102Y-57044920D02*
X109575000Y-56940000D01*
X23820000Y-109190000D02*
X59340000Y-118710000D01*
X126060000Y-67470000D02*
X125958986Y-67452299D01*
X125958986Y-67452299D02*
X125838074Y-67431112D01*
X125838074Y-67431112D02*
X125719080Y-67410261D01*
X125719080Y-67410261D02*
X125563722Y-67383038D01*
X125563722Y-67383038D02*
X125367150Y-67348594D01*
X125367150Y-67348594D02*
X125251894Y-67328398D01*
X125251894Y-67328398D02*
X125124516Y-67306078D01*
X125124516Y-67306078D02*
X124984411Y-67281528D01*
X124984411Y-67281528D02*
X124830972Y-67254641D01*
X124830972Y-67254641D02*
X124663593Y-67225312D01*
X124663593Y-67225312D02*
X124481669Y-67193434D01*
X124481669Y-67193434D02*
X124284592Y-67158901D01*
X124284592Y-67158901D02*
X124071757Y-67121607D01*
X124071757Y-67121607D02*
X123842558Y-67081445D01*
X123842558Y-67081445D02*
X123596389Y-67038309D01*
X123596389Y-67038309D02*
X123332644Y-66992094D01*
X123332644Y-66992094D02*
X123050716Y-66942693D01*
X123050716Y-66942693D02*
X122750000Y-66890000D01*
X68275000Y-131950000D02*
X71201539Y-132559101D01*
X71201539Y-132559101D02*
X73990827Y-133151325D01*
X73990827Y-133151325D02*
X76650342Y-133730304D01*
X76650342Y-133730304D02*
X79187558Y-134299667D01*
X79187558Y-134299667D02*
X81609953Y-134863047D01*
X81609953Y-134863047D02*
X83925002Y-135424074D01*
X83925002Y-135424074D02*
X86140182Y-135986379D01*
X86140182Y-135986379D02*
X88262968Y-136553593D01*
X88262968Y-136553593D02*
X90300838Y-137129347D01*
X90300838Y-137129347D02*
X92261267Y-137717272D01*
X92261267Y-137717272D02*
X94151731Y-138321000D01*
X94151731Y-138321000D02*
X95979707Y-138944160D01*
X95979707Y-138944160D02*
X97752670Y-139590384D01*
X97752670Y-139590384D02*
X99478098Y-140263303D01*
X99478098Y-140263303D02*
X101163465Y-140966548D01*
X101163465Y-140966548D02*
X102816250Y-141703750D01*
X102816250Y-141703750D02*
X104443926Y-142478539D01*
X104443926Y-142478539D02*
X106053972Y-143294548D01*
X106053972Y-143294548D02*
X107653862Y-144155406D01*
X107653862Y-144155406D02*
X109251074Y-145064746D01*
X109251074Y-145064746D02*
X110853083Y-146026197D01*
X110853083Y-146026197D02*
X112467365Y-147043391D01*
X112467365Y-147043391D02*
X114101398Y-148119958D01*
X114101398Y-148119958D02*
X115762656Y-149259531D01*
X115762656Y-149259531D02*
X117458616Y-150465739D01*
X117458616Y-150465739D02*
X119196755Y-151742214D01*
X119196755Y-151742214D02*
X120984548Y-153092586D01*
X120984548Y-153092586D02*
X122829472Y-154520488D01*
X122829472Y-154520488D02*
X124739003Y-156029549D01*
X124739003Y-156029549D02*
X126720617Y-157623400D01*
X126720617Y-157623400D02*
X128781791Y-159305674D01*
X128781791Y-159305674D02*
X130930000Y-161080000D01*
D11*
X73093125Y-76195927D02*
X86616086Y-79819394D01*
X86616086Y-79819394D02*
X82992619Y-93342355D01*
X82992619Y-93342355D02*
X69469658Y-89718888D01*
X69469658Y-89718888D02*
X73093125Y-76195927D01*
X128669170Y-77635175D02*
X142192131Y-81258642D01*
X142192131Y-81258642D02*
X138568664Y-94781603D01*
X138568664Y-94781603D02*
X125045703Y-91158136D01*
X125045703Y-91158136D02*
X128669170Y-77635175D01*
X179089163Y-61188742D02*
X192612124Y-57565275D01*
X192612124Y-57565275D02*
X196235591Y-71088236D01*
X196235591Y-71088236D02*
X182712630Y-74711703D01*
X182712630Y-74711703D02*
X179089163Y-61188742D01*
X112199131Y-69458602D02*
X125722092Y-73082069D01*
X125722092Y-73082069D02*
X122098625Y-86605030D01*
X122098625Y-86605030D02*
X108575664Y-82981563D01*
X108575664Y-82981563D02*
X112199131Y-69458602D01*
X244449611Y-96283750D02*
X257972572Y-92660283D01*
X257972572Y-92660283D02*
X261596039Y-106183244D01*
X261596039Y-106183244D02*
X248073078Y-109806711D01*
X248073078Y-109806711D02*
X244449611Y-96283750D01*
X96709754Y-57565357D02*
X110232715Y-61188824D01*
X110232715Y-61188824D02*
X106609248Y-74711785D01*
X106609248Y-74711785D02*
X93086287Y-71088318D01*
X93086287Y-71088318D02*
X96709754Y-57565357D01*
X163599786Y-73081987D02*
X177122747Y-69458520D01*
X177122747Y-69458520D02*
X180746214Y-82981481D01*
X180746214Y-82981481D02*
X167223253Y-86604948D01*
X167223253Y-86604948D02*
X163599786Y-73081987D01*
X31349307Y-92660365D02*
X44872268Y-96283832D01*
X44872268Y-96283832D02*
X41248801Y-109806793D01*
X41248801Y-109806793D02*
X27725840Y-106183326D01*
X27725840Y-106183326D02*
X31349307Y-92660365D01*
X130932203Y-137692109D02*
X141656825Y-146691135D01*
X141656825Y-146691135D02*
X132657799Y-157415757D01*
X132657799Y-157415757D02*
X121933177Y-148416731D01*
X121933177Y-148416731D02*
X130932203Y-137692109D01*
X182496845Y-123763653D02*
X195652541Y-118975371D01*
X195652541Y-118975371D02*
X200440823Y-132131067D01*
X200440823Y-132131067D02*
X187285127Y-136919349D01*
X187285127Y-136919349D02*
X182496845Y-123763653D01*
X164080914Y-133707017D02*
X176205270Y-126707017D01*
X176205270Y-126707017D02*
X183205270Y-138831373D01*
X183205270Y-138831373D02*
X171080914Y-145831373D01*
X171080914Y-145831373D02*
X164080914Y-133707017D01*
X93668006Y-118975371D02*
X106823702Y-123763653D01*
X106823702Y-123763653D02*
X102035420Y-136919349D01*
X102035420Y-136919349D02*
X88879724Y-132131067D01*
X88879724Y-132131067D02*
X93668006Y-118975371D01*
X73195792Y-114740808D02*
X86983101Y-117171883D01*
X86983101Y-117171883D02*
X84552026Y-130959192D01*
X84552026Y-130959192D02*
X70764717Y-128528117D01*
X70764717Y-128528117D02*
X73195792Y-114740808D01*
X227020900Y-100960559D02*
X240543861Y-97337092D01*
X240543861Y-97337092D02*
X244167328Y-110860053D01*
X244167328Y-110860053D02*
X230644367Y-114483520D01*
X230644367Y-114483520D02*
X227020900Y-100960559D01*
X207118745Y-96297402D02*
X220641706Y-92673935D01*
X220641706Y-92673935D02*
X224265173Y-106196896D01*
X224265173Y-106196896D02*
X210742212Y-109820363D01*
X210742212Y-109820363D02*
X207118745Y-96297402D01*
X172388833Y-105961086D02*
X185911794Y-102337619D01*
X185911794Y-102337619D02*
X189535261Y-115860580D01*
X189535261Y-115860580D02*
X176012300Y-119484047D01*
X176012300Y-119484047D02*
X172388833Y-105961086D01*
X240035787Y-79795699D02*
X253558748Y-76172232D01*
X253558748Y-76172232D02*
X257182215Y-89695193D01*
X257182215Y-89695193D02*
X243659254Y-93318660D01*
X243659254Y-93318660D02*
X240035787Y-79795699D01*
X222650410Y-84508869D02*
X236173371Y-80885402D01*
X236173371Y-80885402D02*
X239796838Y-94408363D01*
X239796838Y-94408363D02*
X226273877Y-98031830D01*
X226273877Y-98031830D02*
X222650410Y-84508869D01*
X202705793Y-79819312D02*
X216228754Y-76195845D01*
X216228754Y-76195845D02*
X219852221Y-89718806D01*
X219852221Y-89718806D02*
X206329260Y-93342273D01*
X206329260Y-93342273D02*
X202705793Y-79819312D01*
X183492154Y-77667703D02*
X197015115Y-74044236D01*
X197015115Y-74044236D02*
X200638582Y-87567197D01*
X200638582Y-87567197D02*
X187115621Y-91190664D01*
X187115621Y-91190664D02*
X183492154Y-77667703D01*
X167990200Y-89531934D02*
X181513161Y-85908467D01*
X181513161Y-85908467D02*
X185136628Y-99431428D01*
X185136628Y-99431428D02*
X171613667Y-103054895D01*
X171613667Y-103054895D02*
X167990200Y-89531934D01*
X151540957Y-97716726D02*
X165063918Y-94093259D01*
X165063918Y-94093259D02*
X168687385Y-107616220D01*
X168687385Y-107616220D02*
X155164424Y-111239687D01*
X155164424Y-111239687D02*
X151540957Y-97716726D01*
X103410084Y-102337701D02*
X116933045Y-105961168D01*
X116933045Y-105961168D02*
X113309578Y-119484129D01*
X113309578Y-119484129D02*
X99786617Y-115860662D01*
X99786617Y-115860662D02*
X103410084Y-102337701D01*
X87887580Y-90531901D02*
X101410541Y-94155368D01*
X101410541Y-94155368D02*
X97787074Y-107678329D01*
X97787074Y-107678329D02*
X84264113Y-104054862D01*
X84264113Y-104054862D02*
X87887580Y-90531901D01*
X68680172Y-92674017D02*
X82203133Y-96297484D01*
X82203133Y-96297484D02*
X78579666Y-109820445D01*
X78579666Y-109820445D02*
X65056705Y-106196978D01*
X65056705Y-106196978D02*
X68680172Y-92674017D01*
X124257960Y-94093341D02*
X137780921Y-97716808D01*
X137780921Y-97716808D02*
X134157454Y-111239769D01*
X134157454Y-111239769D02*
X120634493Y-107616302D01*
X120634493Y-107616302D02*
X124257960Y-94093341D01*
X107808717Y-85908549D02*
X121331678Y-89532016D01*
X121331678Y-89532016D02*
X117708211Y-103054977D01*
X117708211Y-103054977D02*
X104185250Y-99431510D01*
X104185250Y-99431510D02*
X107808717Y-85908549D01*
X53148508Y-80885484D02*
X66671469Y-84508951D01*
X66671469Y-84508951D02*
X63048002Y-98031912D01*
X63048002Y-98031912D02*
X49525041Y-94408445D01*
X49525041Y-94408445D02*
X53148508Y-80885484D01*
X77493501Y-59746851D02*
X91016462Y-63370318D01*
X91016462Y-63370318D02*
X87392995Y-76893279D01*
X87392995Y-76893279D02*
X73870034Y-73269812D01*
X73870034Y-73269812D02*
X77493501Y-59746851D01*
X57579641Y-64429061D02*
X71102602Y-68052528D01*
X71102602Y-68052528D02*
X67479135Y-81575489D01*
X67479135Y-81575489D02*
X53956174Y-77952022D01*
X53956174Y-77952022D02*
X57579641Y-64429061D01*
X40164379Y-59713276D02*
X53687340Y-63336743D01*
X53687340Y-63336743D02*
X50063873Y-76859704D01*
X50063873Y-76859704D02*
X36540912Y-73236237D01*
X36540912Y-73236237D02*
X40164379Y-59713276D01*
X202340808Y-117171883D02*
X216128117Y-114740808D01*
X216128117Y-114740808D02*
X218559192Y-128528117D01*
X218559192Y-128528117D02*
X204771883Y-130959192D01*
X204771883Y-130959192D02*
X202340808Y-117171883D01*
X147664073Y-146691135D02*
X158388695Y-137692109D01*
X158388695Y-137692109D02*
X167387721Y-148416731D01*
X167387721Y-148416731D02*
X156663099Y-157415757D01*
X156663099Y-157415757D02*
X147664073Y-146691135D01*
X35763131Y-76172314D02*
X49286092Y-79795781D01*
X49286092Y-79795781D02*
X45662625Y-93318742D01*
X45662625Y-93318742D02*
X32139664Y-89695275D01*
X32139664Y-89695275D02*
X35763131Y-76172314D01*
X187905978Y-94155755D02*
X201428939Y-90532288D01*
X201428939Y-90532288D02*
X205052406Y-104055249D01*
X205052406Y-104055249D02*
X191529445Y-107678716D01*
X191529445Y-107678716D02*
X187905978Y-94155755D01*
X48778017Y-97337174D02*
X62300978Y-100960641D01*
X62300978Y-100960641D02*
X58677511Y-114483602D01*
X58677511Y-114483602D02*
X45154550Y-110860135D01*
X45154550Y-110860135D02*
X48778017Y-97337174D01*
X155943077Y-114185726D02*
X169466038Y-110562259D01*
X169466038Y-110562259D02*
X173089505Y-124085220D01*
X173089505Y-124085220D02*
X159566544Y-127708687D01*
X159566544Y-127708687D02*
X155943077Y-114185726D01*
X235634539Y-63336661D02*
X249157500Y-59713194D01*
X249157500Y-59713194D02*
X252780967Y-73236155D01*
X252780967Y-73236155D02*
X239258006Y-76859622D01*
X239258006Y-76859622D02*
X235634539Y-63336661D01*
X119855841Y-110562341D02*
X133378802Y-114185808D01*
X133378802Y-114185808D02*
X129755335Y-127708769D01*
X129755335Y-127708769D02*
X116232374Y-124085302D01*
X116232374Y-124085302D02*
X119855841Y-110562341D01*
X92306763Y-74044318D02*
X105829724Y-77667785D01*
X105829724Y-77667785D02*
X102206257Y-91190746D01*
X102206257Y-91190746D02*
X88683296Y-87567279D01*
X88683296Y-87567279D02*
X92306763Y-74044318D01*
X113109184Y-126707017D02*
X125233540Y-133707017D01*
X125233540Y-133707017D02*
X118233540Y-145831373D01*
X118233540Y-145831373D02*
X106109184Y-138831373D01*
X106109184Y-138831373D02*
X113109184Y-126707017D01*
X218219276Y-68052446D02*
X231742237Y-64428979D01*
X231742237Y-64428979D02*
X235365704Y-77951940D01*
X235365704Y-77951940D02*
X221842743Y-81575407D01*
X221842743Y-81575407D02*
X218219276Y-68052446D01*
X198305417Y-63370236D02*
X211828378Y-59746769D01*
X211828378Y-59746769D02*
X215451845Y-73269730D01*
X215451845Y-73269730D02*
X201928884Y-76893197D01*
X201928884Y-76893197D02*
X198305417Y-63370236D01*
X147129748Y-81258560D02*
X160652709Y-77635093D01*
X160652709Y-77635093D02*
X164276176Y-91158054D01*
X164276176Y-91158054D02*
X150753215Y-94781521D01*
X150753215Y-94781521D02*
X147129748Y-81258560D01*
M02*
