M48
; DRILL file {KiCad (5.1.9)-1} date 07/05/21 21:59:24
; FORMAT={-:-/ absolute / metric / decimal}
; #@! TF.CreationDate,2021-07-05T21:59:24+03:00
; #@! TF.GenerationSoftware,Kicad,Pcbnew,(5.1.9)-1
; #@! TF.FileFunction,Plated,1,2,PTH
FMAT,2
METRIC
T1C0.300
T2C0.800
T3C1.000
T4C1.092
T5C1.270
T6C1.500
%
G90
G05
T1
X25.78Y-107.19
X38.52Y-57.85
X47.1Y-65.3
X51.55Y-79.88
X58.4Y-66.1
X61.2Y-69.3
X66.9Y-114.2
X77.51Y-110.83
X81.3Y-64.7
X82.09Y-88.27
X92.2Y-59.5
X94.75Y-114.75
X103.3Y-70.8
X108.17Y-101.25
X120.21Y-82.12
X125.25Y-70.0
X126.0Y-154.25
X126.5Y-70.0
X127.75Y-70.0
X129.51Y-74.41
X129.8Y-132.9
X131.969Y-64.981
X132.55Y-58.7
X132.65Y-65.4
X138.6Y-54.7
X139.25Y-56.85
X139.25Y-57.85
X140.7Y-77.9
X141.4Y-77.2
X143.3Y-61.7
X144.65Y-142.07
X144.72Y-131.73
X144.74Y-121.02
X144.78Y-113.87
X145.05Y-60.25
X145.75Y-97.25
X145.75Y-99.0
X145.75Y-100.75
X147.55Y-67.75
X149.75Y-96.25
X149.75Y-103.0
X149.75Y-107.0
X150.5Y-60.78
X153.26Y-60.7
X154.7Y-68.0
X156.02Y-60.72
X158.78Y-60.76
X159.7Y-60.75
X160.2Y-132.1
X160.29Y-75.57
X161.1Y-69.675
X162.05Y-69.675
X163.0Y-69.675
X163.5Y-154.25
X167.5Y-143.0
X176.29Y-79.6
X182.23Y-101.44
X194.62Y-69.66
X196.25Y-115.75
X199.5Y-64.2
X201.7Y-59.0
X213.25Y-112.75
X214.88Y-86.2
X219.48Y-68.46
X226.5Y-62.6
X227.0Y-114.75
X234.54Y-79.31
X234.7Y-64.5
X250.63Y-57.85
X260.88Y-108.34
T2
X128.5Y-66.5
X131.2Y-51.3
X163.19Y-66.02
X163.708Y-67.952
X171.756Y-60.695
X172.403Y-63.11
X173.05Y-65.525
X174.847Y-59.867
X175.494Y-62.282
X176.141Y-64.697
T3
X43.19Y-110.301
X45.208Y-102.766
X47.603Y-93.813
X49.622Y-86.278
X52.005Y-77.354
X54.024Y-69.819
X60.618Y-114.977
X62.637Y-107.443
X64.989Y-98.526
X67.008Y-90.992
X69.42Y-82.069
X71.439Y-74.535
X80.521Y-110.314
X82.539Y-102.78
X84.933Y-93.836
X86.323Y-131.841
X86.952Y-86.302
X87.677Y-124.159
X89.334Y-77.387
X91.353Y-69.853
X99.728Y-108.172
X101.747Y-100.638
X103.666Y-138.014
X104.147Y-91.685
X106.166Y-84.15
X106.334Y-130.684
X108.55Y-75.206
X110.569Y-67.671
X115.25Y-119.978
X117.269Y-112.444
X119.649Y-103.549
X119.75Y-147.165
X121.668Y-96.015
X123.65Y-140.41
X124.039Y-87.099
X126.058Y-79.565
X131.696Y-128.203
X133.715Y-120.668
X133.993Y-158.988
X136.098Y-111.734
X138.117Y-104.199
X139.007Y-153.012
X140.51Y-95.275
X140.85Y-116.0
X142.16Y-122.5
X142.16Y-137.0
X142.528Y-87.741
X144.66Y-137.0
X147.16Y-122.5
X147.16Y-137.0
X148.65Y-116.0
X163.986Y-141.525
X164.194Y-83.141
X164.953Y-62.24
X166.212Y-90.675
X166.636Y-68.518
X168.605Y-99.599
X169.0Y-147.5
X169.3Y-61.075
X170.624Y-107.134
X170.982Y-67.354
X173.011Y-116.073
X175.029Y-123.607
X180.664Y-74.965
X181.3Y-131.457
X182.682Y-82.499
X185.054Y-91.415
X185.2Y-138.212
X187.073Y-98.949
X189.453Y-107.844
X191.471Y-115.378
X196.153Y-63.071
X198.172Y-70.606
X199.811Y-124.486
X200.556Y-79.55
X202.479Y-131.816
X202.575Y-87.085
X204.97Y-96.038
X206.989Y-103.573
X215.369Y-65.253
X217.388Y-72.787
X219.08Y-120.781
X219.77Y-81.702
X220.434Y-128.462
X221.788Y-89.236
X224.183Y-98.18
X226.201Y-105.714
X235.283Y-69.935
X237.302Y-77.469
X239.714Y-86.392
X241.733Y-93.926
X244.085Y-102.843
X246.104Y-110.377
X252.698Y-65.219
X254.717Y-72.754
X257.1Y-81.678
X259.118Y-89.213
X261.513Y-98.166
X263.532Y-105.701
T4
X130.919Y-66.778
X133.42Y-67.219
X133.565Y-51.77
X135.922Y-67.661
X136.067Y-52.211
X138.423Y-68.102
X138.568Y-52.652
X140.925Y-68.543
X141.07Y-53.093
X143.426Y-68.984
X143.571Y-53.534
X145.928Y-69.425
X146.072Y-53.975
X148.429Y-69.866
X148.574Y-54.416
X150.93Y-70.307
X151.075Y-54.857
X153.432Y-70.748
X153.577Y-55.298
X155.933Y-71.189
X156.078Y-55.739
X158.435Y-71.63
X158.58Y-56.181
X161.081Y-56.622
T5
X30.486Y-103.61
X34.772Y-106.933
X34.9Y-87.122
X39.186Y-90.444
X39.301Y-70.663
X43.587Y-73.985
X47.915Y-108.287
X52.201Y-111.609
X52.285Y-91.835
X56.571Y-95.158
X56.716Y-75.379
X61.002Y-78.701
X67.817Y-103.624
X72.103Y-106.946
X72.23Y-87.146
X73.29Y-125.724
X76.516Y-90.468
X76.63Y-70.696
X77.849Y-128.66
X80.916Y-74.019
X87.024Y-101.482
X91.31Y-104.804
X91.443Y-84.994
X91.854Y-129.808
X95.729Y-88.316
X95.834Y-133.492
X95.846Y-68.515
X100.132Y-71.838
X102.547Y-113.287
X106.833Y-116.61
X106.945Y-96.858
X109.441Y-137.06
X111.231Y-100.181
X111.336Y-80.408
X112.721Y-141.379
X115.622Y-83.731
X118.992Y-121.512
X123.279Y-124.835
X123.395Y-105.043
X125.522Y-147.251
X127.681Y-108.366
X127.806Y-88.585
X128.003Y-152.074
X132.092Y-91.907
X151.857Y-91.173
X156.138Y-153.679
X156.268Y-107.631
X157.23Y-91.907
X160.67Y-124.1
X161.318Y-152.074
X161.641Y-108.365
X166.043Y-124.834
X168.327Y-82.996
X171.213Y-142.06
X172.717Y-99.446
X173.7Y-83.731
X176.593Y-141.379
X177.116Y-115.875
X178.09Y-100.181
X182.489Y-116.61
X183.816Y-71.103
X188.07Y-133.228
X188.219Y-87.582
X189.189Y-71.837
X192.633Y-104.07
X193.487Y-133.492
X193.592Y-88.316
X198.006Y-104.804
X203.033Y-73.285
X206.186Y-127.461
X207.433Y-89.734
X208.406Y-74.019
X211.475Y-128.66
X211.846Y-106.212
X212.806Y-90.468
X217.219Y-106.946
X222.946Y-77.967
X227.378Y-94.423
X228.32Y-78.701
X231.748Y-110.875
X232.751Y-95.158
X237.121Y-111.609
X240.362Y-73.251
X244.763Y-89.71
X245.735Y-73.985
X249.177Y-106.198
X250.136Y-90.444
X254.55Y-106.932
T6
X139.06Y-130.15G85X139.06Y-128.85
G05
X150.26Y-130.15G85X150.26Y-128.85
G05
T0
M30
