G04 #@! TF.GenerationSoftware,KiCad,Pcbnew,(5.1.9)-1*
G04 #@! TF.CreationDate,2021-07-05T21:58:01+03:00*
G04 #@! TF.ProjectId,choctopus44,63686f63-746f-4707-9573-34342e6b6963,1.0 Prototype*
G04 #@! TF.SameCoordinates,Original*
G04 #@! TF.FileFunction,Soldermask,Top*
G04 #@! TF.FilePolarity,Negative*
%FSLAX46Y46*%
G04 Gerber Fmt 4.6, Leading zero omitted, Abs format (unit mm)*
G04 Created by KiCad (PCBNEW (5.1.9)-1) date 2021-07-05 21:58:01*
%MOMM*%
%LPD*%
G01*
G04 APERTURE LIST*
%ADD10O,2.600000X2.200000*%
%ADD11O,1.600000X2.200000*%
%ADD12C,2.100000*%
%ADD13R,4.000000X4.000000*%
%ADD14R,2.000000X3.500000*%
%ADD15C,1.701800*%
%ADD16C,3.000000*%
%ADD17C,3.429000*%
%ADD18C,2.032000*%
%ADD19C,1.752600*%
%ADD20C,0.100000*%
%ADD21C,1.600000*%
%ADD22R,1.600000X1.200000*%
%ADD23R,1.600000X1.600000*%
%ADD24C,5.000000*%
%ADD25C,1.700000*%
%ADD26C,2.400000*%
G04 APERTURE END LIST*
D10*
X144660000Y-125000000D03*
D11*
X144660000Y-134000000D03*
D12*
X144660000Y-129500000D03*
D13*
X150460000Y-138000000D03*
X138860000Y-138000000D03*
X138860000Y-121400000D03*
X150460000Y-121400000D03*
D14*
X147160000Y-122000000D03*
X142160000Y-122000000D03*
D13*
X151160000Y-129500000D03*
X138160000Y-129500000D03*
D14*
X147160000Y-137500000D03*
X144660000Y-137500000D03*
X142160000Y-137500000D03*
D15*
X166860408Y-79455239D03*
X177485592Y-76608229D03*
D16*
X176032058Y-73115417D03*
D17*
X172173000Y-78031734D03*
D18*
X168326883Y-82996347D03*
X173700032Y-83730696D03*
D16*
X170633027Y-72284475D03*
D15*
X72730280Y-83345636D03*
X83355464Y-86192646D03*
D16*
X83843073Y-82441014D03*
D17*
X78042872Y-84769141D03*
D18*
X72229730Y-87145564D03*
X76515840Y-90468103D03*
D16*
X79582845Y-79021882D03*
D15*
X128306325Y-84784884D03*
X138931509Y-87631894D03*
D16*
X139419118Y-83880262D03*
D17*
X133618917Y-86208389D03*
D18*
X127805775Y-88584812D03*
X132091885Y-91907351D03*
D16*
X135158890Y-80461130D03*
D15*
X182349785Y-67561994D03*
X192974969Y-64714984D03*
D16*
X191521435Y-61222172D03*
D17*
X187662377Y-66138489D03*
D18*
X183816260Y-71103102D03*
X189189409Y-71837451D03*
D16*
X186122404Y-60391230D03*
D15*
X111836286Y-76608311D03*
X122461470Y-79455321D03*
D16*
X122949079Y-75703689D03*
D17*
X117148878Y-78031816D03*
D18*
X111335736Y-80408239D03*
X115621846Y-83730778D03*
D16*
X118688851Y-72284557D03*
D15*
X247710233Y-102657002D03*
X258335417Y-99809992D03*
D16*
X256881883Y-96317180D03*
D17*
X253022825Y-101233497D03*
D18*
X249176708Y-106198110D03*
X254549857Y-106932459D03*
D16*
X251482852Y-95486238D03*
D15*
X96346909Y-64715066D03*
X106972093Y-67562076D03*
D16*
X107459702Y-63810444D03*
D17*
X101659501Y-66138571D03*
D18*
X95846359Y-68514994D03*
X100132469Y-71837533D03*
D16*
X103199474Y-60391312D03*
D15*
X30986462Y-99810074D03*
X41611646Y-102657084D03*
D16*
X42099255Y-98905452D03*
D17*
X36299054Y-101233579D03*
D18*
X30485912Y-103610002D03*
X34772022Y-106932541D03*
D16*
X37839027Y-95486320D03*
D15*
X127581757Y-144018601D03*
X136008245Y-151089265D03*
D16*
X138035677Y-147895204D03*
D17*
X131795001Y-147553933D03*
D18*
X125522186Y-147250964D03*
X128002554Y-152073595D03*
D16*
X135619587Y-142995969D03*
D15*
X186300525Y-129828471D03*
X196637143Y-126066249D03*
D16*
X194884722Y-122713412D03*
D17*
X191468834Y-127947360D03*
D18*
X188070047Y-133228293D03*
X193486753Y-133491546D03*
D16*
X189433814Y-122356189D03*
D15*
X168879952Y-139019195D03*
X178406232Y-133519195D03*
D16*
X176098219Y-130521600D03*
D17*
X173643092Y-136269195D03*
D18*
X171212965Y-142060092D03*
X176593092Y-141378745D03*
D16*
X170668092Y-131116344D03*
D15*
X92683404Y-126066249D03*
X103020022Y-129828471D03*
D16*
X103832752Y-126133613D03*
D17*
X97851713Y-127947360D03*
D18*
X91853573Y-129808091D03*
X95833794Y-133491546D03*
D16*
X99886733Y-122356189D03*
D15*
X73457466Y-121894935D03*
X84290352Y-123805065D03*
D16*
X84449128Y-120025212D03*
D17*
X78873909Y-122850000D03*
D18*
X73290007Y-125724029D03*
X77849385Y-128660366D03*
D16*
X79907116Y-116990394D03*
D15*
X230281522Y-107333811D03*
X240906706Y-104486801D03*
D16*
X239453172Y-100993989D03*
D17*
X235594114Y-105910306D03*
D18*
X231747997Y-110874919D03*
X237121146Y-111609268D03*
D16*
X234054141Y-100163047D03*
D15*
X210379367Y-102670654D03*
X221004551Y-99823644D03*
D16*
X219551017Y-96330832D03*
D17*
X215691959Y-101247149D03*
D18*
X211845842Y-106211762D03*
X217218991Y-106946111D03*
D16*
X214151986Y-95499890D03*
D15*
X175649455Y-112334338D03*
X186274639Y-109487328D03*
D16*
X184821105Y-105994516D03*
D17*
X180962047Y-110910833D03*
D18*
X177115930Y-115875446D03*
X182489079Y-116609795D03*
D16*
X179422074Y-105163574D03*
D15*
X243296409Y-86168951D03*
X253921593Y-83321941D03*
D16*
X252468059Y-79829129D03*
D17*
X248609001Y-84745446D03*
D18*
X244762884Y-89710059D03*
X250136033Y-90444408D03*
D16*
X247069028Y-78998187D03*
D15*
X225911032Y-90882121D03*
X236536216Y-88035111D03*
D16*
X235082682Y-84542299D03*
D17*
X231223624Y-89458616D03*
D18*
X227377507Y-94423229D03*
X232750656Y-95157578D03*
D16*
X229683651Y-83711357D03*
D15*
X205966415Y-86192564D03*
X216591599Y-83345554D03*
D16*
X215138065Y-79852742D03*
D17*
X211279007Y-84769059D03*
D18*
X207432890Y-89733672D03*
X212806039Y-90468021D03*
D16*
X209739034Y-79021800D03*
D15*
X186752776Y-84040955D03*
X197377960Y-81193945D03*
D16*
X195924426Y-77701133D03*
D17*
X192065368Y-82617450D03*
D18*
X188219251Y-87582063D03*
X193592400Y-88316412D03*
D16*
X190525395Y-76870191D03*
D15*
X171250822Y-95905186D03*
X181876006Y-93058176D03*
D16*
X180422472Y-89565364D03*
D17*
X176563414Y-94481681D03*
D18*
X172717297Y-99446294D03*
X178090446Y-100180643D03*
D16*
X175023441Y-88734422D03*
D15*
X154801579Y-104089978D03*
X165426763Y-101242968D03*
D16*
X163973229Y-97750156D03*
D17*
X160114171Y-102666473D03*
D18*
X156268054Y-107631086D03*
X161641203Y-108365435D03*
D16*
X158574198Y-96919214D03*
D15*
X103047239Y-109487410D03*
X113672423Y-112334420D03*
D16*
X114160032Y-108582788D03*
D17*
X108359831Y-110910915D03*
D18*
X102546689Y-113287338D03*
X106832799Y-116609877D03*
D16*
X109899804Y-105163656D03*
D15*
X87524735Y-97681610D03*
X98149919Y-100528620D03*
D16*
X98637528Y-96776988D03*
D17*
X92837327Y-99105115D03*
D18*
X87024185Y-101481538D03*
X91310295Y-104804077D03*
D16*
X94377300Y-93357856D03*
D15*
X68317327Y-99823726D03*
X78942511Y-102670736D03*
D16*
X79430120Y-98919104D03*
D17*
X73629919Y-101247231D03*
D18*
X67816777Y-103623654D03*
X72102887Y-106946193D03*
D16*
X75169892Y-95499972D03*
D15*
X123895115Y-101243050D03*
X134520299Y-104090060D03*
D16*
X135007908Y-100338428D03*
D17*
X129207707Y-102666555D03*
D18*
X123394565Y-105042978D03*
X127680675Y-108365517D03*
D16*
X130747680Y-96919296D03*
D15*
X107445872Y-93058258D03*
X118071056Y-95905268D03*
D16*
X118558665Y-92153636D03*
D17*
X112758464Y-94481763D03*
D18*
X106945322Y-96858186D03*
X111231432Y-100180725D03*
D16*
X114298437Y-88734504D03*
D15*
X52785663Y-88035193D03*
X63410847Y-90882203D03*
D16*
X63898456Y-87130571D03*
D17*
X58098255Y-89458698D03*
D18*
X52285113Y-91835121D03*
X56571223Y-95157660D03*
D16*
X59638228Y-83711439D03*
D15*
X77130656Y-66896560D03*
X87755840Y-69743570D03*
D16*
X88243449Y-65991938D03*
D17*
X82443248Y-68320065D03*
D18*
X76630106Y-70696488D03*
X80916216Y-74019027D03*
D16*
X83983221Y-62572806D03*
D15*
X57216796Y-71578770D03*
X67841980Y-74425780D03*
D16*
X68329589Y-70674148D03*
D17*
X62529388Y-73002275D03*
D18*
X56716246Y-75378698D03*
X61002356Y-78701237D03*
D16*
X64069361Y-67255016D03*
D15*
X39801534Y-66862985D03*
X50426718Y-69709995D03*
D16*
X50914327Y-65958363D03*
D17*
X45114126Y-68286490D03*
D18*
X39300984Y-70662913D03*
X43587094Y-73985452D03*
D16*
X46654099Y-62539231D03*
D15*
X205033557Y-123805065D03*
X215866443Y-121894935D03*
D16*
X214722858Y-118288730D03*
D17*
X210450000Y-122850000D03*
D18*
X206185824Y-127460510D03*
X211474524Y-128660366D03*
D16*
X209416793Y-116990394D03*
D15*
X153312653Y-151089265D03*
X161739141Y-144018601D03*
D16*
X158945666Y-141467328D03*
D17*
X157525897Y-147553933D03*
D18*
X156138268Y-153678840D03*
X161318344Y-152073595D03*
D16*
X153701311Y-142995969D03*
D15*
X35400286Y-83322023D03*
X46025470Y-86169033D03*
D16*
X46513079Y-82417401D03*
D17*
X40712878Y-84745528D03*
D18*
X34899736Y-87121951D03*
X39185846Y-90444490D03*
D16*
X42252851Y-78998269D03*
D15*
X191166600Y-100529007D03*
X201791784Y-97681997D03*
D16*
X200338250Y-94189185D03*
D17*
X196479192Y-99105502D03*
D18*
X192633075Y-104070115D03*
X198006224Y-104804464D03*
D16*
X194939219Y-93358243D03*
D15*
X48415172Y-104486883D03*
X59040356Y-107333893D03*
D16*
X59527965Y-103582261D03*
D17*
X53727764Y-105910388D03*
D18*
X47914622Y-108286811D03*
X52200732Y-111609350D03*
D16*
X55267737Y-100163129D03*
D15*
X159203699Y-120558978D03*
X169828883Y-117711968D03*
D16*
X168375349Y-114219156D03*
D17*
X164516291Y-119135473D03*
D18*
X160670174Y-124100086D03*
X166043323Y-124834435D03*
D16*
X162976318Y-113388214D03*
D15*
X238895161Y-69709913D03*
X249520345Y-66862903D03*
D16*
X248066811Y-63370091D03*
D17*
X244207753Y-68286408D03*
D18*
X240361636Y-73251021D03*
X245734785Y-73985370D03*
D16*
X242667780Y-62539149D03*
D15*
X119492996Y-117712050D03*
X130118180Y-120559060D03*
D16*
X130605789Y-116807428D03*
D17*
X124805588Y-119135555D03*
D18*
X118992446Y-121511978D03*
X123278556Y-124834517D03*
D16*
X126345561Y-113388296D03*
D15*
X91943918Y-81194027D03*
X102569102Y-84041037D03*
D16*
X103056711Y-80289405D03*
D17*
X97256510Y-82617532D03*
D18*
X91443368Y-84993955D03*
X95729478Y-88316494D03*
D16*
X98796483Y-76870273D03*
D15*
X110908222Y-133519195D03*
X120434502Y-139019195D03*
D16*
X121876489Y-135521600D03*
D17*
X115671362Y-136269195D03*
D18*
X109441235Y-137060092D03*
X112721362Y-141378745D03*
D16*
X118646362Y-131116344D03*
D15*
X221479898Y-74425698D03*
X232105082Y-71578688D03*
D16*
X230651548Y-68085876D03*
D17*
X226792490Y-73002193D03*
D18*
X222946373Y-77966806D03*
X228319522Y-78701155D03*
D16*
X225252517Y-67254934D03*
D15*
X201566039Y-69743488D03*
X212191223Y-66896478D03*
D16*
X210737689Y-63403666D03*
D17*
X206878631Y-68319983D03*
D18*
X203032514Y-73284596D03*
X208405663Y-74018945D03*
D16*
X205338658Y-62572724D03*
D15*
X150390370Y-87631812D03*
X161015554Y-84784802D03*
D16*
X159562020Y-81291990D03*
D17*
X155702962Y-86208307D03*
D18*
X151856845Y-91172920D03*
X157229994Y-91907269D03*
D16*
X154162989Y-80461048D03*
D19*
X130919037Y-66778370D03*
X161080963Y-56621630D03*
X133420448Y-67219436D03*
X135921860Y-67660503D03*
X138423272Y-68101569D03*
X140924683Y-68542636D03*
X143426095Y-68983702D03*
X145927507Y-69424768D03*
X148428918Y-69865835D03*
X150930330Y-70306901D03*
X153431742Y-70747967D03*
X155933154Y-71189034D03*
X158434565Y-71630100D03*
X158579552Y-56180564D03*
X156078140Y-55739497D03*
X153576728Y-55298431D03*
X151075317Y-54857364D03*
X148573905Y-54416298D03*
X146072493Y-53975232D03*
X143571082Y-53534165D03*
X141069670Y-53093099D03*
X138568258Y-52652033D03*
X136066846Y-52210966D03*
D20*
G36*
X132550280Y-52480719D02*
G01*
X132854616Y-50754745D01*
X134580590Y-51059081D01*
X134276254Y-52785055D01*
X132550280Y-52480719D01*
G37*
G36*
X131970741Y-124859819D02*
G01*
X133129852Y-125170402D01*
X132715741Y-126715883D01*
X131556630Y-126405300D01*
X131970741Y-124859819D01*
G37*
G36*
X132695435Y-122155227D02*
G01*
X133854546Y-122465810D01*
X133440435Y-124011291D01*
X132281324Y-123700708D01*
X132695435Y-122155227D01*
G37*
D21*
X133714982Y-120668444D03*
D20*
G36*
X131130509Y-127222870D02*
G01*
X132675990Y-127636981D01*
X132261879Y-129182462D01*
X130716398Y-128768351D01*
X131130509Y-127222870D01*
G37*
G36*
X181248736Y-79466581D02*
G01*
X182407847Y-79155998D01*
X182821958Y-80701479D01*
X181662847Y-81012062D01*
X181248736Y-79466581D01*
G37*
G36*
X180524042Y-76761989D02*
G01*
X181683153Y-76451406D01*
X182097264Y-77996887D01*
X180938153Y-78307470D01*
X180524042Y-76761989D01*
G37*
D21*
X180663606Y-74964623D03*
D20*
G36*
X181702598Y-81933160D02*
G01*
X183248079Y-81519049D01*
X183662190Y-83064530D01*
X182116709Y-83478641D01*
X181702598Y-81933160D01*
G37*
G36*
X173595736Y-120574847D02*
G01*
X174754847Y-120264264D01*
X175168958Y-121809745D01*
X174009847Y-122120328D01*
X173595736Y-120574847D01*
G37*
G36*
X172871042Y-117870255D02*
G01*
X174030153Y-117559672D01*
X174444264Y-119105153D01*
X173285153Y-119415736D01*
X172871042Y-117870255D01*
G37*
D21*
X173010606Y-116072889D03*
D20*
G36*
X174049598Y-123041426D02*
G01*
X175595079Y-122627315D01*
X176009190Y-124172796D01*
X174463709Y-124586907D01*
X174049598Y-123041426D01*
G37*
G36*
X185639150Y-95916528D02*
G01*
X186798261Y-95605945D01*
X187212372Y-97151426D01*
X186053261Y-97462009D01*
X185639150Y-95916528D01*
G37*
G36*
X184914456Y-93211936D02*
G01*
X186073567Y-92901353D01*
X186487678Y-94446834D01*
X185328567Y-94757417D01*
X184914456Y-93211936D01*
G37*
D21*
X185054020Y-91414570D03*
D20*
G36*
X186093012Y-98383107D02*
G01*
X187638493Y-97968996D01*
X188052604Y-99514477D01*
X186507123Y-99928588D01*
X186093012Y-98383107D01*
G37*
G36*
X52279279Y-74010754D02*
G01*
X53438390Y-74321337D01*
X53024279Y-75866818D01*
X51865168Y-75556235D01*
X52279279Y-74010754D01*
G37*
G36*
X53003973Y-71306162D02*
G01*
X54163084Y-71616745D01*
X53748973Y-73162226D01*
X52589862Y-72851643D01*
X53003973Y-71306162D01*
G37*
D21*
X54023520Y-69819379D03*
D20*
G36*
X51439047Y-76373805D02*
G01*
X52984528Y-76787916D01*
X52570417Y-78333397D01*
X51024936Y-77919286D01*
X51439047Y-76373805D01*
G37*
G36*
X69694541Y-78726539D02*
G01*
X70853652Y-79037122D01*
X70439541Y-80582603D01*
X69280430Y-80272020D01*
X69694541Y-78726539D01*
G37*
G36*
X70419235Y-76021947D02*
G01*
X71578346Y-76332530D01*
X71164235Y-77878011D01*
X70005124Y-77567428D01*
X70419235Y-76021947D01*
G37*
D21*
X71438782Y-74535164D03*
D20*
G36*
X68854309Y-81089590D02*
G01*
X70399790Y-81503701D01*
X69985679Y-83049182D01*
X68440198Y-82635071D01*
X68854309Y-81089590D01*
G37*
G36*
X89608401Y-74044329D02*
G01*
X90767512Y-74354912D01*
X90353401Y-75900393D01*
X89194290Y-75589810D01*
X89608401Y-74044329D01*
G37*
G36*
X90333095Y-71339737D02*
G01*
X91492206Y-71650320D01*
X91078095Y-73195801D01*
X89918984Y-72885218D01*
X90333095Y-71339737D01*
G37*
D21*
X91352642Y-69852954D03*
D20*
G36*
X88768169Y-76407380D02*
G01*
X90313650Y-76821491D01*
X89899539Y-78366972D01*
X88354058Y-77952861D01*
X88768169Y-76407380D01*
G37*
G36*
X108824654Y-71862835D02*
G01*
X109983765Y-72173418D01*
X109569654Y-73718899D01*
X108410543Y-73408316D01*
X108824654Y-71862835D01*
G37*
G36*
X109549348Y-69158243D02*
G01*
X110708459Y-69468826D01*
X110294348Y-71014307D01*
X109135237Y-70703724D01*
X109549348Y-69158243D01*
G37*
D21*
X110568895Y-67671460D03*
D20*
G36*
X107984422Y-74225886D02*
G01*
X109529903Y-74639997D01*
X109115792Y-76185478D01*
X107570311Y-75771367D01*
X107984422Y-74225886D01*
G37*
G36*
X124314031Y-83756080D02*
G01*
X125473142Y-84066663D01*
X125059031Y-85612144D01*
X123899920Y-85301561D01*
X124314031Y-83756080D01*
G37*
G36*
X125038725Y-81051488D02*
G01*
X126197836Y-81362071D01*
X125783725Y-82907552D01*
X124624614Y-82596969D01*
X125038725Y-81051488D01*
G37*
D21*
X126058272Y-79564705D03*
D20*
G36*
X123473799Y-86119131D02*
G01*
X125019280Y-86533242D01*
X124605169Y-88078723D01*
X123059688Y-87664612D01*
X123473799Y-86119131D01*
G37*
G36*
X140784070Y-91932653D02*
G01*
X141943181Y-92243236D01*
X141529070Y-93788717D01*
X140369959Y-93478134D01*
X140784070Y-91932653D01*
G37*
G36*
X141508764Y-89228061D02*
G01*
X142667875Y-89538644D01*
X142253764Y-91084125D01*
X141094653Y-90773542D01*
X141508764Y-89228061D01*
G37*
D21*
X142528311Y-87741278D03*
D20*
G36*
X139943838Y-94295704D02*
G01*
X141489319Y-94709815D01*
X141075208Y-96255296D01*
X139529727Y-95841185D01*
X139943838Y-94295704D01*
G37*
G36*
X47878031Y-90469792D02*
G01*
X49037142Y-90780375D01*
X48623031Y-92325856D01*
X47463920Y-92015273D01*
X47878031Y-90469792D01*
G37*
G36*
X48602725Y-87765200D02*
G01*
X49761836Y-88075783D01*
X49347725Y-89621264D01*
X48188614Y-89310681D01*
X48602725Y-87765200D01*
G37*
D21*
X49622272Y-86278417D03*
D20*
G36*
X47037799Y-92832843D02*
G01*
X48583280Y-93246954D01*
X48169169Y-94792435D01*
X46623688Y-94378324D01*
X47037799Y-92832843D01*
G37*
G36*
X65263408Y-95182962D02*
G01*
X66422519Y-95493545D01*
X66008408Y-97039026D01*
X64849297Y-96728443D01*
X65263408Y-95182962D01*
G37*
G36*
X65988102Y-92478370D02*
G01*
X67147213Y-92788953D01*
X66733102Y-94334434D01*
X65573991Y-94023851D01*
X65988102Y-92478370D01*
G37*
D21*
X67007649Y-90991587D03*
D20*
G36*
X64423176Y-97546013D02*
G01*
X65968657Y-97960124D01*
X65554546Y-99505605D01*
X64009065Y-99091494D01*
X64423176Y-97546013D01*
G37*
G36*
X85208025Y-90493405D02*
G01*
X86367136Y-90803988D01*
X85953025Y-92349469D01*
X84793914Y-92038886D01*
X85208025Y-90493405D01*
G37*
G36*
X85932719Y-87788813D02*
G01*
X87091830Y-88099396D01*
X86677719Y-89644877D01*
X85518608Y-89334294D01*
X85932719Y-87788813D01*
G37*
D21*
X86952266Y-86302030D03*
D20*
G36*
X84367793Y-92856456D02*
G01*
X85913274Y-93270567D01*
X85499163Y-94816048D01*
X83953682Y-94401937D01*
X84367793Y-92856456D01*
G37*
G36*
X104421663Y-88341796D02*
G01*
X105580774Y-88652379D01*
X105166663Y-90197860D01*
X104007552Y-89887277D01*
X104421663Y-88341796D01*
G37*
G36*
X105146357Y-85637204D02*
G01*
X106305468Y-85947787D01*
X105891357Y-87493268D01*
X104732246Y-87182685D01*
X105146357Y-85637204D01*
G37*
D21*
X106165904Y-84150421D03*
D20*
G36*
X103581431Y-90704847D02*
G01*
X105126912Y-91118958D01*
X104712801Y-92664439D01*
X103167320Y-92250328D01*
X103581431Y-90704847D01*
G37*
G36*
X119923617Y-100206027D02*
G01*
X121082728Y-100516610D01*
X120668617Y-102062091D01*
X119509506Y-101751508D01*
X119923617Y-100206027D01*
G37*
G36*
X120648311Y-97501435D02*
G01*
X121807422Y-97812018D01*
X121393311Y-99357499D01*
X120234200Y-99046916D01*
X120648311Y-97501435D01*
G37*
D21*
X121667858Y-96014652D03*
D20*
G36*
X119083385Y-102569078D02*
G01*
X120628866Y-102983189D01*
X120214755Y-104528670D01*
X118669274Y-104114559D01*
X119083385Y-102569078D01*
G37*
G36*
X136372860Y-108390819D02*
G01*
X137531971Y-108701402D01*
X137117860Y-110246883D01*
X135958749Y-109936300D01*
X136372860Y-108390819D01*
G37*
G36*
X137097554Y-105686227D02*
G01*
X138256665Y-105996810D01*
X137842554Y-107542291D01*
X136683443Y-107231708D01*
X137097554Y-105686227D01*
G37*
D21*
X138117101Y-104199444D03*
D20*
G36*
X135532628Y-110753870D02*
G01*
X137078109Y-111167981D01*
X136663998Y-112713462D01*
X135118517Y-112299351D01*
X135532628Y-110753870D01*
G37*
G36*
X43464207Y-106957843D02*
G01*
X44623318Y-107268426D01*
X44209207Y-108813907D01*
X43050096Y-108503324D01*
X43464207Y-106957843D01*
G37*
G36*
X44188901Y-104253251D02*
G01*
X45348012Y-104563834D01*
X44933901Y-106109315D01*
X43774790Y-105798732D01*
X44188901Y-104253251D01*
G37*
D21*
X45208448Y-102766468D03*
D20*
G36*
X42623975Y-109320894D02*
G01*
X44169456Y-109735005D01*
X43755345Y-111280486D01*
X42209864Y-110866375D01*
X42623975Y-109320894D01*
G37*
G36*
X60892917Y-111634652D02*
G01*
X62052028Y-111945235D01*
X61637917Y-113490716D01*
X60478806Y-113180133D01*
X60892917Y-111634652D01*
G37*
G36*
X61617611Y-108930060D02*
G01*
X62776722Y-109240643D01*
X62362611Y-110786124D01*
X61203500Y-110475541D01*
X61617611Y-108930060D01*
G37*
D21*
X62637158Y-107443277D03*
D20*
G36*
X60052685Y-113997703D02*
G01*
X61598166Y-114411814D01*
X61184055Y-115957295D01*
X59638574Y-115543184D01*
X60052685Y-113997703D01*
G37*
G36*
X80795072Y-106971495D02*
G01*
X81954183Y-107282078D01*
X81540072Y-108827559D01*
X80380961Y-108516976D01*
X80795072Y-106971495D01*
G37*
G36*
X81519766Y-104266903D02*
G01*
X82678877Y-104577486D01*
X82264766Y-106122967D01*
X81105655Y-105812384D01*
X81519766Y-104266903D01*
G37*
D21*
X82539313Y-102780120D03*
D20*
G36*
X79954840Y-109334546D02*
G01*
X81500321Y-109748657D01*
X81086210Y-111294138D01*
X79540729Y-110880027D01*
X79954840Y-109334546D01*
G37*
G36*
X100002480Y-104829379D02*
G01*
X101161591Y-105139962D01*
X100747480Y-106685443D01*
X99588369Y-106374860D01*
X100002480Y-104829379D01*
G37*
G36*
X100727174Y-102124787D02*
G01*
X101886285Y-102435370D01*
X101472174Y-103980851D01*
X100313063Y-103670268D01*
X100727174Y-102124787D01*
G37*
D21*
X101746721Y-100638004D03*
D20*
G36*
X99162248Y-107192430D02*
G01*
X100707729Y-107606541D01*
X100293618Y-109152022D01*
X98748137Y-108737911D01*
X99162248Y-107192430D01*
G37*
G36*
X115524984Y-116635179D02*
G01*
X116684095Y-116945762D01*
X116269984Y-118491243D01*
X115110873Y-118180660D01*
X115524984Y-116635179D01*
G37*
G36*
X116249678Y-113930587D02*
G01*
X117408789Y-114241170D01*
X116994678Y-115786651D01*
X115835567Y-115476068D01*
X116249678Y-113930587D01*
G37*
D21*
X117269225Y-112443804D03*
D20*
G36*
X114684752Y-118998230D02*
G01*
X116230233Y-119412341D01*
X115816122Y-120957822D01*
X114270641Y-120543711D01*
X114684752Y-118998230D01*
G37*
G36*
X164778698Y-87643154D02*
G01*
X165937809Y-87332571D01*
X166351920Y-88878052D01*
X165192809Y-89188635D01*
X164778698Y-87643154D01*
G37*
G36*
X164054004Y-84938562D02*
G01*
X165213115Y-84627979D01*
X165627226Y-86173460D01*
X164468115Y-86484043D01*
X164054004Y-84938562D01*
G37*
D21*
X164193568Y-83141196D03*
D20*
G36*
X165232560Y-90109733D02*
G01*
X166778041Y-89695622D01*
X167192152Y-91241103D01*
X165646671Y-91655214D01*
X165232560Y-90109733D01*
G37*
G36*
X196738113Y-67573336D02*
G01*
X197897224Y-67262753D01*
X198311335Y-68808234D01*
X197152224Y-69118817D01*
X196738113Y-67573336D01*
G37*
G36*
X196013419Y-64868744D02*
G01*
X197172530Y-64558161D01*
X197586641Y-66103642D01*
X196427530Y-66414225D01*
X196013419Y-64868744D01*
G37*
D21*
X196152983Y-63071378D03*
D20*
G36*
X197191975Y-70039915D02*
G01*
X198737456Y-69625804D01*
X199151567Y-71171285D01*
X197606086Y-71585396D01*
X197191975Y-70039915D01*
G37*
G36*
X215954367Y-69754830D02*
G01*
X217113478Y-69444247D01*
X217527589Y-70989728D01*
X216368478Y-71300311D01*
X215954367Y-69754830D01*
G37*
G36*
X215229673Y-67050238D02*
G01*
X216388784Y-66739655D01*
X216802895Y-68285136D01*
X215643784Y-68595719D01*
X215229673Y-67050238D01*
G37*
D21*
X215369237Y-65252872D03*
D20*
G36*
X216408229Y-72221409D02*
G01*
X217953710Y-71807298D01*
X218367821Y-73352779D01*
X216822340Y-73766890D01*
X216408229Y-72221409D01*
G37*
G36*
X235868226Y-74437040D02*
G01*
X237027337Y-74126457D01*
X237441448Y-75671938D01*
X236282337Y-75982521D01*
X235868226Y-74437040D01*
G37*
G36*
X235143532Y-71732448D02*
G01*
X236302643Y-71421865D01*
X236716754Y-72967346D01*
X235557643Y-73277929D01*
X235143532Y-71732448D01*
G37*
D21*
X235283096Y-69935082D03*
D20*
G36*
X236322088Y-76903619D02*
G01*
X237867569Y-76489508D01*
X238281680Y-78034989D01*
X236736199Y-78449100D01*
X236322088Y-76903619D01*
G37*
G36*
X253283489Y-69721255D02*
G01*
X254442600Y-69410672D01*
X254856711Y-70956153D01*
X253697600Y-71266736D01*
X253283489Y-69721255D01*
G37*
G36*
X252558795Y-67016663D02*
G01*
X253717906Y-66706080D01*
X254132017Y-68251561D01*
X252972906Y-68562144D01*
X252558795Y-67016663D01*
G37*
D21*
X252698359Y-65219297D03*
D20*
G36*
X253737351Y-72187834D02*
G01*
X255282832Y-71773723D01*
X255696943Y-73319204D01*
X254151462Y-73733315D01*
X253737351Y-72187834D01*
G37*
G36*
X169189907Y-104101320D02*
G01*
X170349018Y-103790737D01*
X170763129Y-105336218D01*
X169604018Y-105646801D01*
X169189907Y-104101320D01*
G37*
G36*
X168465213Y-101396728D02*
G01*
X169624324Y-101086145D01*
X170038435Y-102631626D01*
X168879324Y-102942209D01*
X168465213Y-101396728D01*
G37*
D21*
X168604777Y-99599362D03*
D20*
G36*
X169643769Y-106567899D02*
G01*
X171189250Y-106153788D01*
X171603361Y-107699269D01*
X170057880Y-108113380D01*
X169643769Y-106567899D01*
G37*
G36*
X201141104Y-84052297D02*
G01*
X202300215Y-83741714D01*
X202714326Y-85287195D01*
X201555215Y-85597778D01*
X201141104Y-84052297D01*
G37*
G36*
X200416410Y-81347705D02*
G01*
X201575521Y-81037122D01*
X201989632Y-82582603D01*
X200830521Y-82893186D01*
X200416410Y-81347705D01*
G37*
D21*
X200555974Y-79550339D03*
D20*
G36*
X201594966Y-86518876D02*
G01*
X203140447Y-86104765D01*
X203554558Y-87650246D01*
X202009077Y-88064357D01*
X201594966Y-86518876D01*
G37*
G36*
X220354743Y-86203906D02*
G01*
X221513854Y-85893323D01*
X221927965Y-87438804D01*
X220768854Y-87749387D01*
X220354743Y-86203906D01*
G37*
G36*
X219630049Y-83499314D02*
G01*
X220789160Y-83188731D01*
X221203271Y-84734212D01*
X220044160Y-85044795D01*
X219630049Y-83499314D01*
G37*
D21*
X219769613Y-81701948D03*
D20*
G36*
X220808605Y-88670485D02*
G01*
X222354086Y-88256374D01*
X222768197Y-89801855D01*
X221222716Y-90215966D01*
X220808605Y-88670485D01*
G37*
G36*
X240299360Y-90893463D02*
G01*
X241458471Y-90582880D01*
X241872582Y-92128361D01*
X240713471Y-92438944D01*
X240299360Y-90893463D01*
G37*
G36*
X239574666Y-88188871D02*
G01*
X240733777Y-87878288D01*
X241147888Y-89423769D01*
X239988777Y-89734352D01*
X239574666Y-88188871D01*
G37*
D21*
X239714230Y-86391505D03*
D20*
G36*
X240753222Y-93360042D02*
G01*
X242298703Y-92945931D01*
X242712814Y-94491412D01*
X241167333Y-94905523D01*
X240753222Y-93360042D01*
G37*
G36*
X257684737Y-86180293D02*
G01*
X258843848Y-85869710D01*
X259257959Y-87415191D01*
X258098848Y-87725774D01*
X257684737Y-86180293D01*
G37*
G36*
X256960043Y-83475701D02*
G01*
X258119154Y-83165118D01*
X258533265Y-84710599D01*
X257374154Y-85021182D01*
X256960043Y-83475701D01*
G37*
D21*
X257099607Y-81678335D03*
D20*
G36*
X258138599Y-88646872D02*
G01*
X259684080Y-88232761D01*
X260098191Y-89778242D01*
X258552710Y-90192353D01*
X258138599Y-88646872D01*
G37*
G36*
X190037783Y-112345680D02*
G01*
X191196894Y-112035097D01*
X191611005Y-113580578D01*
X190451894Y-113891161D01*
X190037783Y-112345680D01*
G37*
G36*
X189313089Y-109641088D02*
G01*
X190472200Y-109330505D01*
X190886311Y-110875986D01*
X189727200Y-111186569D01*
X189313089Y-109641088D01*
G37*
D21*
X189452653Y-107843722D03*
D20*
G36*
X190491645Y-114812259D02*
G01*
X192037126Y-114398148D01*
X192451237Y-115943629D01*
X190905756Y-116357740D01*
X190491645Y-114812259D01*
G37*
G36*
X205554928Y-100540349D02*
G01*
X206714039Y-100229766D01*
X207128150Y-101775247D01*
X205969039Y-102085830D01*
X205554928Y-100540349D01*
G37*
G36*
X204830234Y-97835757D02*
G01*
X205989345Y-97525174D01*
X206403456Y-99070655D01*
X205244345Y-99381238D01*
X204830234Y-97835757D01*
G37*
D21*
X204969798Y-96038391D03*
D20*
G36*
X206008790Y-103006928D02*
G01*
X207554271Y-102592817D01*
X207968382Y-104138298D01*
X206422901Y-104552409D01*
X206008790Y-103006928D01*
G37*
G36*
X224767695Y-102681996D02*
G01*
X225926806Y-102371413D01*
X226340917Y-103916894D01*
X225181806Y-104227477D01*
X224767695Y-102681996D01*
G37*
G36*
X224043001Y-99977404D02*
G01*
X225202112Y-99666821D01*
X225616223Y-101212302D01*
X224457112Y-101522885D01*
X224043001Y-99977404D01*
G37*
D21*
X224182565Y-98180038D03*
D20*
G36*
X225221557Y-105148575D02*
G01*
X226767038Y-104734464D01*
X227181149Y-106279945D01*
X225635668Y-106694056D01*
X225221557Y-105148575D01*
G37*
G36*
X244669850Y-107345153D02*
G01*
X245828961Y-107034570D01*
X246243072Y-108580051D01*
X245083961Y-108890634D01*
X244669850Y-107345153D01*
G37*
G36*
X243945156Y-104640561D02*
G01*
X245104267Y-104329978D01*
X245518378Y-105875459D01*
X244359267Y-106186042D01*
X243945156Y-104640561D01*
G37*
D21*
X244084720Y-102843195D03*
D20*
G36*
X245123712Y-109811732D02*
G01*
X246669193Y-109397621D01*
X247083304Y-110943102D01*
X245537823Y-111357213D01*
X245123712Y-109811732D01*
G37*
G36*
X262098561Y-102668344D02*
G01*
X263257672Y-102357761D01*
X263671783Y-103903242D01*
X262512672Y-104213825D01*
X262098561Y-102668344D01*
G37*
G36*
X261373867Y-99963752D02*
G01*
X262532978Y-99653169D01*
X262947089Y-101198650D01*
X261787978Y-101509233D01*
X261373867Y-99963752D01*
G37*
D21*
X261513431Y-98166386D03*
D20*
G36*
X262552423Y-105134923D02*
G01*
X264097904Y-104720812D01*
X264512015Y-106266293D01*
X262966534Y-106680404D01*
X262552423Y-105134923D01*
G37*
G36*
X86304927Y-128486696D02*
G01*
X87486696Y-128695074D01*
X87208859Y-130270766D01*
X86027090Y-130062388D01*
X86304927Y-128486696D01*
G37*
G36*
X86791141Y-125729234D02*
G01*
X87972910Y-125937612D01*
X87695073Y-127513304D01*
X86513304Y-127304926D01*
X86791141Y-125729234D01*
G37*
D21*
X87677228Y-124159250D03*
D20*
G36*
X85673844Y-130913985D02*
G01*
X87249537Y-131191822D01*
X86971700Y-132767515D01*
X85396007Y-132489678D01*
X85673844Y-130913985D01*
G37*
G36*
X104230973Y-134707836D02*
G01*
X105358604Y-135118260D01*
X104811371Y-136621768D01*
X103683740Y-136211344D01*
X104230973Y-134707836D01*
G37*
G36*
X105188629Y-132076696D02*
G01*
X106316260Y-132487120D01*
X105769027Y-133990628D01*
X104641396Y-133580204D01*
X105188629Y-132076696D01*
G37*
D21*
X106333879Y-130684431D03*
D20*
G36*
X103187983Y-136988663D02*
G01*
X104691491Y-137535895D01*
X104144259Y-139039403D01*
X102640751Y-138492171D01*
X103187983Y-136988663D01*
G37*
G36*
X120880385Y-144007180D02*
G01*
X121919615Y-144607180D01*
X121119615Y-145992820D01*
X120080385Y-145392820D01*
X120880385Y-144007180D01*
G37*
G36*
X122280385Y-141582308D02*
G01*
X123319615Y-142182308D01*
X122519615Y-143567948D01*
X121480385Y-142967948D01*
X122280385Y-141582308D01*
G37*
D21*
X123650000Y-140410065D03*
D20*
G36*
X119457180Y-146072243D02*
G01*
X120842820Y-146872243D01*
X120042820Y-148257883D01*
X118657180Y-147457883D01*
X119457180Y-146072243D01*
G37*
G36*
X166419174Y-145357726D02*
G01*
X167338428Y-144586381D01*
X168366888Y-145812052D01*
X167447634Y-146583397D01*
X166419174Y-145357726D01*
G37*
G36*
X164619368Y-143212802D02*
G01*
X165538622Y-142441457D01*
X166567082Y-143667128D01*
X165647828Y-144438473D01*
X164619368Y-143212802D01*
G37*
D21*
X163986256Y-141524854D03*
D20*
G36*
X167872934Y-147401395D02*
G01*
X169098605Y-146372934D01*
X170127066Y-147598605D01*
X168901395Y-148627066D01*
X167872934Y-147401395D01*
G37*
G36*
X183030385Y-135654552D02*
G01*
X184069615Y-135054552D01*
X184869615Y-136440192D01*
X183830385Y-137040192D01*
X183030385Y-135654552D01*
G37*
G36*
X181630385Y-133229680D02*
G01*
X182669615Y-132629680D01*
X183469615Y-134015320D01*
X182430385Y-134615320D01*
X181630385Y-133229680D01*
G37*
D21*
X181300000Y-131457437D03*
D20*
G36*
X184107180Y-137919615D02*
G01*
X185492820Y-137119615D01*
X186292820Y-138505255D01*
X184907180Y-139305255D01*
X184107180Y-137919615D01*
G37*
G36*
X200786346Y-128919796D02*
G01*
X201913977Y-128509372D01*
X202461210Y-130012880D01*
X201333579Y-130423304D01*
X200786346Y-128919796D01*
G37*
G36*
X199828690Y-126288656D02*
G01*
X200956321Y-125878232D01*
X201503554Y-127381740D01*
X200375923Y-127792164D01*
X199828690Y-126288656D01*
G37*
D21*
X199811071Y-124485967D03*
D20*
G36*
X201453459Y-131337431D02*
G01*
X202956967Y-130790199D01*
X203504199Y-132293707D01*
X202000691Y-132840939D01*
X201453459Y-131337431D01*
G37*
G36*
X219270197Y-125316343D02*
G01*
X220451966Y-125107965D01*
X220729803Y-126683657D01*
X219548034Y-126892035D01*
X219270197Y-125316343D01*
G37*
G36*
X218783983Y-122558881D02*
G01*
X219965752Y-122350503D01*
X220243589Y-123926195D01*
X219061820Y-124134573D01*
X218783983Y-122558881D01*
G37*
D21*
X219079665Y-120780519D03*
D20*
G36*
X219507356Y-127813091D02*
G01*
X221083049Y-127535254D01*
X221360886Y-129110947D01*
X219785193Y-129388784D01*
X219507356Y-127813091D01*
G37*
D22*
X143350000Y-116000000D03*
X146150000Y-116000000D03*
D21*
X148650000Y-116000000D03*
D23*
X140850000Y-116000000D03*
D20*
G36*
X135654700Y-156073954D02*
G01*
X136573954Y-156845299D01*
X135545494Y-158070970D01*
X134626240Y-157299625D01*
X135654700Y-156073954D01*
G37*
G36*
X137454506Y-153929030D02*
G01*
X138373760Y-154700375D01*
X137345300Y-155926046D01*
X136426046Y-155154701D01*
X137454506Y-153929030D01*
G37*
D21*
X139006872Y-153012427D03*
D20*
G36*
X133894523Y-157860507D02*
G01*
X135120194Y-158888968D01*
X134091733Y-160114639D01*
X132866062Y-159086178D01*
X133894523Y-157860507D01*
G37*
G36*
X127718042Y-67047533D02*
G01*
X127952467Y-65718042D01*
X129281958Y-65952467D01*
X129047533Y-67281958D01*
X127718042Y-67047533D01*
G37*
G36*
X131747533Y-52081958D02*
G01*
X130418042Y-51847533D01*
X130652467Y-50518042D01*
X131981958Y-50752467D01*
X131747533Y-52081958D01*
G37*
D24*
X89570000Y-111250000D03*
X199750000Y-111250000D03*
D25*
X166635658Y-68518205D03*
X164953334Y-62239686D03*
X170982324Y-67353518D03*
X169300000Y-61075000D03*
D24*
X144660000Y-109680000D03*
D26*
X133000000Y-72000000D03*
X149750000Y-75250000D03*
X165250000Y-59000000D03*
D24*
X219710000Y-63810000D03*
X144660000Y-154500000D03*
X69610000Y-63810000D03*
D20*
G36*
X162712703Y-66846703D02*
G01*
X162363297Y-65542703D01*
X163667297Y-65193297D01*
X164016703Y-66497297D01*
X162712703Y-66846703D01*
G37*
G36*
G01*
X163055638Y-68126555D02*
X163055638Y-68126555D01*
G75*
G02*
X163532935Y-67299852I652000J174703D01*
G01*
X163532935Y-67299852D01*
G75*
G02*
X164359638Y-67777149I174703J-652000D01*
G01*
X164359638Y-67777149D01*
G75*
G02*
X163882341Y-68603852I-652000J-174703D01*
G01*
X163882341Y-68603852D01*
G75*
G02*
X163055638Y-68126555I-174703J652000D01*
G01*
G37*
G36*
X174029796Y-66090685D02*
G01*
X172484315Y-66504796D01*
X172070204Y-64959315D01*
X173615685Y-64545204D01*
X174029796Y-66090685D01*
G37*
D21*
X172402952Y-63110185D03*
X171755905Y-60695371D03*
X176140963Y-64696779D03*
X175493915Y-62281964D03*
X174846867Y-59867150D03*
M02*
