G04 #@! TF.GenerationSoftware,KiCad,Pcbnew,(6.0.0)*
G04 #@! TF.CreationDate,2023-05-15T23:42:03+03:00*
G04 #@! TF.ProjectId,choctopus44-bottom-plate,63686f63-746f-4707-9573-34342d626f74,2.0*
G04 #@! TF.SameCoordinates,Original*
G04 #@! TF.FileFunction,Legend,Top*
G04 #@! TF.FilePolarity,Positive*
%FSLAX46Y46*%
G04 Gerber Fmt 4.6, Leading zero omitted, Abs format (unit mm)*
G04 Created by KiCad (PCBNEW (6.0.0)) date 2023-05-15 23:42:03*
%MOMM*%
%LPD*%
G01*
G04 APERTURE LIST*
%ADD10C,0.200000*%
%ADD11C,3.800000*%
G04 APERTURE END LIST*
D10*
X65546811Y-97305599D02*
X65302511Y-97976808D01*
X65208904Y-98094763D01*
X65086836Y-98151684D01*
X64936308Y-98147571D01*
X64846813Y-98114998D01*
X66099736Y-98571025D02*
X65652264Y-98408158D01*
X65994284Y-97468465D01*
X66982508Y-98790977D02*
X66921474Y-98819438D01*
X66770946Y-98815325D01*
X66681451Y-98782751D01*
X66563496Y-98689144D01*
X66506575Y-98567076D01*
X66494401Y-98461295D01*
X66514800Y-98266019D01*
X66563660Y-98131778D01*
X66673554Y-97969075D01*
X66750875Y-97895867D01*
X66872943Y-97838946D01*
X67023471Y-97843059D01*
X67112966Y-97875632D01*
X67230921Y-97969239D01*
X67259381Y-98030273D01*
X67963164Y-98185079D02*
X67718864Y-98856288D01*
X67625256Y-98974243D01*
X67503188Y-99031164D01*
X67352660Y-99027052D01*
X67263165Y-98994478D01*
X68516089Y-99450505D02*
X68068616Y-99287638D01*
X68410636Y-98347946D01*
X69398860Y-99670457D02*
X69337826Y-99698918D01*
X69187298Y-99694805D01*
X69097803Y-99662232D01*
X68979848Y-99568625D01*
X68922927Y-99446557D01*
X68910753Y-99340775D01*
X68931153Y-99145500D01*
X68980013Y-99011258D01*
X69089907Y-98848555D01*
X69167227Y-98775348D01*
X69289295Y-98718426D01*
X69439824Y-98722539D01*
X69529318Y-98755113D01*
X69647273Y-98848720D01*
X69675734Y-98909754D01*
X70379516Y-99064559D02*
X70135216Y-99735768D01*
X70041609Y-99853723D01*
X69919541Y-99910645D01*
X69769012Y-99906532D01*
X69679518Y-99873959D01*
X70932441Y-100329985D02*
X70484969Y-100167119D01*
X70826989Y-99227426D01*
X71815213Y-100549938D02*
X71754179Y-100578398D01*
X71603650Y-100574286D01*
X71514156Y-100541712D01*
X71396201Y-100448105D01*
X71339280Y-100326037D01*
X71327106Y-100220256D01*
X71347505Y-100024980D01*
X71396365Y-99890738D01*
X71506259Y-99728036D01*
X71583580Y-99654828D01*
X71705648Y-99597907D01*
X71856176Y-99602020D01*
X71945671Y-99634593D01*
X72063626Y-99728200D01*
X72092086Y-99789234D01*
X72795869Y-99944040D02*
X72551569Y-100615249D01*
X72457961Y-100733204D01*
X72335893Y-100790125D01*
X72185365Y-100786012D01*
X72095870Y-100753439D01*
X73348794Y-101209466D02*
X72901321Y-101046599D01*
X73243341Y-100106906D01*
X74231565Y-101429418D02*
X74170531Y-101457879D01*
X74020003Y-101453766D01*
X73930508Y-101421193D01*
X73812553Y-101327585D01*
X73755632Y-101205517D01*
X73743458Y-101099736D01*
X73763858Y-100904460D01*
X73812718Y-100770219D01*
X73922612Y-100607516D01*
X73999932Y-100534308D01*
X74122000Y-100477387D01*
X74272528Y-100481500D01*
X74362023Y-100514073D01*
X74479978Y-100607681D01*
X74508439Y-100668715D01*
%LPC*%
D11*
X148331772Y-98680000D03*
X123921772Y-51750000D03*
X160171772Y-60000000D03*
X220971772Y-45300000D03*
X225071772Y-96200000D03*
X135971772Y-61200000D03*
X75691772Y-45300000D03*
X148331772Y-143500000D03*
X71591772Y-96200000D03*
M02*
