G04 #@! TF.GenerationSoftware,KiCad,Pcbnew,(6.0.0)*
G04 #@! TF.CreationDate,2023-05-15T23:42:03+03:00*
G04 #@! TF.ProjectId,choctopus44-bottom-plate,63686f63-746f-4707-9573-34342d626f74,2.0*
G04 #@! TF.SameCoordinates,Original*
G04 #@! TF.FileFunction,Profile,NP*
%FSLAX46Y46*%
G04 Gerber Fmt 4.6, Leading zero omitted, Abs format (unit mm)*
G04 Created by KiCad (PCBNEW (6.0.0)) date 2023-05-15 23:42:03*
%MOMM*%
%LPD*%
G01*
G04 APERTURE LIST*
%ADD10C,0.050000*%
G04 #@! TA.AperFunction,Profile*
%ADD11C,0.050000*%
G04 #@! TD*
G04 APERTURE END LIST*
D10*
X106991772Y-39700000D02*
X105886747Y-39367938D01*
X104715717Y-39100146D01*
X103482870Y-38892340D01*
X102192397Y-38740234D01*
X100848485Y-38639544D01*
X99455326Y-38585986D01*
X98017108Y-38575274D01*
X96538022Y-38603125D01*
X95022255Y-38665252D01*
X93473998Y-38757373D01*
X91897440Y-38875201D01*
X90296772Y-39014453D01*
X88676181Y-39170843D01*
X87039857Y-39340087D01*
X85391991Y-39517901D01*
X83736772Y-39700000D01*
X82078388Y-39882098D01*
X80421029Y-40059912D01*
X78768886Y-40229156D01*
X77126147Y-40385546D01*
X75497001Y-40524798D01*
X73885639Y-40642626D01*
X72296249Y-40734747D01*
X70733022Y-40796875D01*
X69200146Y-40824725D01*
X67701811Y-40814013D01*
X66242206Y-40760455D01*
X64825522Y-40659765D01*
X63455946Y-40507659D01*
X62137670Y-40299853D01*
X60874882Y-40032061D01*
X59671772Y-39700000D01*
D11*
X56671209Y-99824590D02*
X26351638Y-88738410D01*
X236991772Y-39700000D02*
X250698064Y-35113229D01*
D10*
X66791772Y-100000000D02*
X66470470Y-99899524D01*
X66161981Y-99821978D01*
X65865058Y-99765681D01*
X65578450Y-99728954D01*
X65300909Y-99710115D01*
X65031187Y-99707486D01*
X64768033Y-99719385D01*
X64510200Y-99744134D01*
X64256439Y-99780051D01*
X64005499Y-99825457D01*
X63756134Y-99878672D01*
X63507093Y-99938015D01*
X63257129Y-100001807D01*
X63004991Y-100068367D01*
X62749431Y-100136016D01*
X62489201Y-100203073D01*
X62223051Y-100267859D01*
X61949733Y-100328692D01*
X61667997Y-100383894D01*
X61376595Y-100431784D01*
X61074278Y-100470682D01*
X60759797Y-100498908D01*
X60431902Y-100514782D01*
X60089346Y-100516623D01*
X59730880Y-100502753D01*
X59355254Y-100471490D01*
X58961219Y-100421154D01*
X58547527Y-100350067D01*
X58112929Y-100256546D01*
X57656176Y-100138913D01*
X57176019Y-99995488D01*
X56671209Y-99824590D01*
D11*
X224371772Y-117600000D02*
G75*
G03*
X164271771Y-152499999I20079419J-103776023D01*
G01*
X134034396Y-32387377D02*
X123352147Y-45068955D01*
X24784547Y-85372462D02*
G75*
G03*
X26351638Y-88738410I2466638J-899373D01*
G01*
X254064011Y-36680321D02*
G75*
G03*
X250698064Y-35113229I-2466576J-899549D01*
G01*
D10*
X189671772Y-39700000D02*
X190776796Y-39367938D01*
X191947826Y-39100146D01*
X193180673Y-38892340D01*
X194471147Y-38740234D01*
X195815058Y-38639544D01*
X197208217Y-38585986D01*
X198646435Y-38575274D01*
X200125522Y-38603125D01*
X201641288Y-38665252D01*
X203189545Y-38757373D01*
X204766103Y-38875201D01*
X206366772Y-39014453D01*
X207987362Y-39170843D01*
X209623686Y-39340087D01*
X211271552Y-39517901D01*
X212926772Y-39700000D01*
X214585155Y-39882098D01*
X216242514Y-40059912D01*
X217894657Y-40229156D01*
X219537397Y-40385546D01*
X221166542Y-40524798D01*
X222777904Y-40642626D01*
X224367294Y-40734747D01*
X225930522Y-40796875D01*
X227463397Y-40824725D01*
X228961732Y-40814013D01*
X230421337Y-40760455D01*
X231838022Y-40659765D01*
X233207597Y-40507659D01*
X234525873Y-40299853D01*
X235788661Y-40032061D01*
X236991772Y-39700000D01*
X225571772Y-101600000D02*
X225469551Y-101638971D01*
X225369246Y-101680912D01*
X225271011Y-101725863D01*
X225175003Y-101773864D01*
X225081380Y-101824955D01*
X224990296Y-101879176D01*
X224901909Y-101936567D01*
X224816376Y-101997168D01*
X224733852Y-102061019D01*
X224654495Y-102128160D01*
X224578461Y-102198631D01*
X224505905Y-102272473D01*
X224436986Y-102349725D01*
X224371859Y-102430428D01*
X224310681Y-102514621D01*
X224253608Y-102602344D01*
X224200796Y-102693638D01*
X224152403Y-102788543D01*
X224108585Y-102887098D01*
X224069498Y-102989344D01*
X224035299Y-103095321D01*
X224006144Y-103205069D01*
X223982190Y-103318628D01*
X223963593Y-103436038D01*
X223950510Y-103557338D01*
X223943098Y-103682570D01*
X223941512Y-103811773D01*
X223945909Y-103944987D01*
X223956446Y-104082252D01*
X223973279Y-104223609D01*
X223996565Y-104369097D01*
X224026461Y-104518757D01*
X229871772Y-100000000D02*
X230193073Y-99899524D01*
X230501562Y-99821978D01*
X230798485Y-99765681D01*
X231085093Y-99728954D01*
X231362634Y-99710115D01*
X231632356Y-99707486D01*
X231895510Y-99719385D01*
X232153343Y-99744134D01*
X232407104Y-99780051D01*
X232658044Y-99825457D01*
X232907409Y-99878672D01*
X233156450Y-99938015D01*
X233406414Y-100001807D01*
X233658552Y-100068367D01*
X233914112Y-100136016D01*
X234174342Y-100203073D01*
X234440492Y-100267859D01*
X234713810Y-100328692D01*
X234995546Y-100383894D01*
X235286948Y-100431784D01*
X235589265Y-100470682D01*
X235903746Y-100498908D01*
X236231641Y-100514782D01*
X236574197Y-100516623D01*
X236932663Y-100502753D01*
X237308289Y-100471490D01*
X237702324Y-100421154D01*
X238116016Y-100350067D01*
X238550614Y-100256546D01*
X239007367Y-100138913D01*
X239487524Y-99995488D01*
X239992335Y-99824590D01*
D11*
X45965480Y-35113229D02*
X59671772Y-39700000D01*
X24784546Y-85372462D02*
X42599532Y-36680321D01*
X135421772Y-32250000D02*
G75*
G03*
X134034396Y-32387377I-624999J-762378D01*
G01*
X254064012Y-36680321D02*
X271878998Y-85372462D01*
X66791772Y-100000000D02*
X71091772Y-101600000D01*
X224026461Y-104518757D02*
X226466987Y-114099538D01*
X270311906Y-88738410D02*
X239992335Y-99824590D01*
D10*
X160611133Y-53354847D02*
X160667938Y-53399411D01*
X160725732Y-53439490D01*
X160784332Y-53475284D01*
X160843554Y-53506995D01*
X160903216Y-53534824D01*
X160963134Y-53558972D01*
X161023126Y-53579642D01*
X161083008Y-53597034D01*
X161142596Y-53611350D01*
X161201709Y-53622791D01*
X161260162Y-53631559D01*
X161317773Y-53637854D01*
X161374359Y-53641880D01*
X161429736Y-53643836D01*
X161483722Y-53643924D01*
X161536133Y-53642347D01*
X161586786Y-53639304D01*
X161682086Y-53629630D01*
X161768158Y-53616513D01*
X161843536Y-53601566D01*
X161906756Y-53586399D01*
X161956353Y-53572623D01*
X162008819Y-53555692D01*
X162011133Y-53554847D01*
D11*
X45965480Y-35113230D02*
G75*
G03*
X42599532Y-36680321I-899373J-2466638D01*
G01*
X132391773Y-152499999D02*
G75*
G03*
X72291772Y-117600000I-80179424J-68876032D01*
G01*
X224371772Y-117600000D02*
G75*
G03*
X226466987Y-114099538I-642144J2761638D01*
G01*
X122313441Y-45304950D02*
X106991772Y-39700000D01*
X143902869Y-50315029D02*
G75*
G03*
X143902869Y-50315029I-1259516J0D01*
G01*
X132391773Y-152499999D02*
G75*
G03*
X135691772Y-153200000I2136177J1941976D01*
G01*
X160611133Y-53354847D02*
X135421772Y-32250000D01*
X170671772Y-50700000D02*
X162011133Y-53554847D01*
X70196557Y-114099538D02*
G75*
G03*
X72291772Y-117600000I2737359J-738824D01*
G01*
D10*
X179471772Y-43400000D02*
X179054297Y-43601730D01*
X178663227Y-43812670D01*
X178296839Y-44032070D01*
X177953412Y-44259179D01*
X177631226Y-44493246D01*
X177328559Y-44733520D01*
X177043689Y-44979251D01*
X176774897Y-45229687D01*
X176520459Y-45484078D01*
X176278656Y-45741674D01*
X176047766Y-46001724D01*
X175826068Y-46263476D01*
X175611841Y-46526181D01*
X175403363Y-46789086D01*
X175198914Y-47051443D01*
X174996772Y-47312500D01*
X174795215Y-47571505D01*
X174592523Y-47827709D01*
X174386975Y-48080361D01*
X174176850Y-48328710D01*
X173960425Y-48572006D01*
X173735980Y-48809497D01*
X173501795Y-49040432D01*
X173256147Y-49264062D01*
X172997315Y-49479635D01*
X172723578Y-49686401D01*
X172433216Y-49883609D01*
X172124506Y-50070507D01*
X171795728Y-50246347D01*
X171445160Y-50410375D01*
X171071082Y-50561843D01*
X170671772Y-50700000D01*
D11*
X270311906Y-88738409D02*
G75*
G03*
X271878998Y-85372462I-899549J2466576D01*
G01*
X70196557Y-114099538D02*
X72637083Y-104518757D01*
D10*
X71091772Y-101600000D02*
X71193992Y-101638971D01*
X71294297Y-101680912D01*
X71392532Y-101725863D01*
X71488540Y-101773864D01*
X71582163Y-101824955D01*
X71673247Y-101879176D01*
X71761634Y-101936567D01*
X71847167Y-101997168D01*
X71929691Y-102061019D01*
X72009048Y-102128160D01*
X72085082Y-102198631D01*
X72157638Y-102272473D01*
X72226557Y-102349725D01*
X72291684Y-102430428D01*
X72352862Y-102514621D01*
X72409935Y-102602344D01*
X72462747Y-102693638D01*
X72511140Y-102788543D01*
X72554958Y-102887098D01*
X72594045Y-102989344D01*
X72628244Y-103095321D01*
X72657399Y-103205069D01*
X72681353Y-103318628D01*
X72699950Y-103436038D01*
X72713033Y-103557338D01*
X72720445Y-103682570D01*
X72722031Y-103811773D01*
X72717634Y-103944987D01*
X72707097Y-104082252D01*
X72690264Y-104223609D01*
X72666978Y-104369097D01*
X72637083Y-104518757D01*
D11*
X225571772Y-101600000D02*
X229871772Y-100000000D01*
X189671772Y-39700000D02*
X179471772Y-43400000D01*
D10*
X122313441Y-45304950D02*
X122400508Y-45329234D01*
X122484324Y-45347223D01*
X122564952Y-45359152D01*
X122642457Y-45365253D01*
X122716902Y-45365760D01*
X122788351Y-45360907D01*
X122856868Y-45350927D01*
X122922518Y-45336054D01*
X122985364Y-45316522D01*
X123045469Y-45292564D01*
X123102899Y-45264414D01*
X123157717Y-45232305D01*
X123209987Y-45196471D01*
X123259772Y-45157145D01*
X123307137Y-45114562D01*
X123352147Y-45068955D01*
D11*
X160971772Y-153199999D02*
G75*
G03*
X164271771Y-152499999I1163822J2641976D01*
G01*
X160971772Y-153200000D02*
G75*
G03*
X135691772Y-153200000I-12640000J-23132659D01*
G01*
M02*
