  0
SECTION
  2
HEADER
  9
$ANGBASE
  50
0.0
  9
$ANGDIR
  70
1
  9
$MEASUREMENT
  70
1
  0
ENDSEC
  0
SECTION
  2
TABLES
  0
TABLE
  2
LTYPE
  70
4
  0
LTYPE
  5
40F
  2
CONTINUOUS
  70
0
  3
Solid line
  72
65
  73
0
  40
0.0
  0
LTYPE
  5
410
  2
DASHDOT
 70
0
  3
Dash Dot ____ _ ____ _
 72
65
 73
4
 40
2.0
 49
1.25
 49
-0.25
 49
0.25
 49
-0.25
  0
LTYPE
  5
411
  2
DASHED
 70
0
  3
Dashed __ __ __ __ __
 72
65
 73
2
 40
0.75
 49
0.5
 49
-0.25
  0
LTYPE
  5
43B
  2
DOTTED
 70
0
  3
Dotted .  .  .  .
 72
65
 73
2
 40
0.2
 49
0.0
 49
-0.2
  0
ENDTAB
  0
TABLE
  2
STYLE
  70
4
  0
STYLE
  2
KICAD
  70
0
  40
0
  41
1
  42
1
  50
0
  71
0
  3
isocp.shx
  0
STYLE
  2
KICADB
  70
0
  40
0
  41
1
  42
1
  50
0
  71
0
  3
isocp.shx
  0
STYLE
  2
KICADI
  70
0
  40
0
  41
1
  42
1
  50
15
  71
0
  3
isocp.shx
  0
STYLE
  2
KICADBI
  70
0
  40
0
  41
1
  42
1
  50
15
  71
0
  3
isocp.shx
  0
ENDTAB
  0
TABLE
  2
LAYER
  70
1
  0
LAYER
  2
BLACK
  70
0
  62
7
  6
CONTINUOUS
  0
ENDTAB
  0
ENDSEC
  0
SECTION
  2
ENTITIES
0
LINE
8
BLACK
6
CONTINUOUS
10
249.804
20
-83.0817
11
253.119
21
-92.1868
0
LINE
8
BLACK
6
CONTINUOUS
10
197.084
20
-47.2386
11
197.511
21
-47.6251
0
LINE
8
BLACK
6
CONTINUOUS
10
81.3681
20
-95.894
11
84.6502
21
-86.8716
0
LINE
8
BLACK
6
CONTINUOUS
10
98.9964
20
-94.817
11
100.689
21
-95.4341
0
LINE
8
BLACK
6
CONTINUOUS
10
67.0053
20
-82.8198
11
70.2874
21
-73.7973
0
LINE
8
BLACK
6
CONTINUOUS
10
218.437
20
-57.7602
11
220.13
21
-57.1448
0
LINE
8
BLACK
6
CONTINUOUS
10
115.124
20
-108.548
11
118.406
21
-99.5254
0
LINE
8
BLACK
6
CONTINUOUS
10
134.078
20
-108.543
11
134.072
21
-109.152
0
ARC
8
BLACK
10
155.111
20
-60.1904
40
0.193101
50
-220.952
51
-143.873
0
LINE
8
BLACK
6
CONTINUOUS
10
220.332
20
-65.7933
11
224.254
21
-73.7632
0
LINE
8
BLACK
6
CONTINUOUS
10
222.955
20
-105.419
11
225.395
21
-115
0
LINE
8
BLACK
6
CONTINUOUS
10
156.487
20
-62.9333
11
153.537
21
-66.4378
0
LINE
8
BLACK
6
CONTINUOUS
10
115.734
20
-99.0054
11
113.431
21
-107.931
0
LINE
8
BLACK
6
CONTINUOUS
10
125.052
20
-75.9428
11
126.745
21
-76.5599
0
LINE
8
BLACK
6
CONTINUOUS
10
170.708
20
-79.4253
11
167.423
21
-70.404
0
LINE
8
BLACK
6
CONTINUOUS
10
204.926
20
-73.2943
11
206.619
21
-72.679
0
LINE
8
BLACK
6
CONTINUOUS
10
140.747
20
-85.5237
11
142.44
21
-86.1408
0
LINE
8
BLACK
6
CONTINUOUS
10
202.899
20
-63.2134
11
203.334
21
-63.6576
0
LINE
8
BLACK
6
CONTINUOUS
10
224.254
20
-73.7632
11
225.947
21
-73.1478
0
LINE
8
BLACK
6
CONTINUOUS
10
47.583
20
-83.044
11
47.4874
21
-83.6973
0
LINE
8
BLACK
6
CONTINUOUS
10
65.72
20
-100.9
11
70.02
21
-102.5
0
LINE
8
BLACK
6
CONTINUOUS
10
208.713
20
-79.1882
11
209.168
21
-79.6982
0
LINE
8
BLACK
6
CONTINUOUS
10
241.476
20
-60.0915
11
237.796
21
-61.4183
0
LINE
8
BLACK
6
CONTINUOUS
10
130.054
20
-66.9713
11
130.027
21
-67.5374
0
LINE
8
BLACK
6
CONTINUOUS
10
70.3122
20
-73.2253
11
70.2874
21
-73.7973
0
LINE
8
BLACK
6
CONTINUOUS
10
84.1683
20
-100.564
11
86.4442
21
-92.2883
0
LINE
8
BLACK
6
CONTINUOUS
10
269.24
20
-89.6384
11
238.921
21
-100.725
0
ARC
8
BLACK
10
149.76
20
-126.923
40
1.07703
50
-90
51
90
0
LINE
8
BLACK
6
CONTINUOUS
10
226.147
20
-81.7681
11
230.086
21
-89.7939
0
LINE
8
BLACK
6
CONTINUOUS
10
199.103
20
-57.2618
11
200.797
21
-56.6464
0
LINE
8
BLACK
6
CONTINUOUS
10
53.3973
20
-67.0692
11
53.2001
21
-67.8846
0
LINE
8
BLACK
6
CONTINUOUS
10
169.015
20
-80.0407
11
170.708
21
-79.4253
0
LINE
8
BLACK
6
CONTINUOUS
10
141.519
20
-63.2958
11
147.429
21
-68.2723
0
LINE
8
BLACK
6
CONTINUOUS
10
224.5
20
-102.5
11
228.8
21
-100.9
0
LINE
8
BLACK
6
CONTINUOUS
10
44.2053
20
-92.7198
11
47.4874
21
-83.6973
0
LINE
8
BLACK
6
CONTINUOUS
10
23.7128
20
-86.2725
11
41.5278
21
-37.5803
0
LINE
8
BLACK
6
CONTINUOUS
10
134.918
20
-101.535
11
136.611
21
-102.152
0
LINE
8
BLACK
6
CONTINUOUS
10
76.1265
20
-57.2505
11
76.0536
21
-57.7666
0
CIRCLE
8
BLACK
10
224
20
-97.1
40
2.4
0
LINE
8
BLACK
6
CONTINUOUS
10
87.2004
20
-79.8633
11
90.4825
21
-70.8408
0
ARC
8
BLACK
10
51.1406
20
-222.276
40
105.701
50
40.6634
51
79.0493
0
CIRCLE
8
BLACK
10
74.62
20
-46.2
40
2.4
0
ARC
8
BLACK
10
144.76
20
-126.923
40
1.07703
50
-270
51
-90
0
ARC
8
BLACK
10
133.456
20
-151.458
40
2.88696
50
-137.726
51
-66.2259
0
LINE
8
BLACK
6
CONTINUOUS
10
176.537
20
-95.4364
11
173.252
21
-86.4151
0
LINE
8
BLACK
6
CONTINUOUS
10
224.5
20
-102.5
11
224.398
21
-102.539
0
LINE
8
BLACK
6
CONTINUOUS
10
224.398
20
-102.539
11
224.297
21
-102.581
0
LINE
8
BLACK
6
CONTINUOUS
10
224.297
20
-102.581
11
224.199
21
-102.626
0
LINE
8
BLACK
6
CONTINUOUS
10
224.199
20
-102.626
11
224.103
21
-102.674
0
LINE
8
BLACK
6
CONTINUOUS
10
224.103
20
-102.674
11
224.01
21
-102.725
0
LINE
8
BLACK
6
CONTINUOUS
10
224.01
20
-102.725
11
223.919
21
-102.779
0
LINE
8
BLACK
6
CONTINUOUS
10
223.919
20
-102.779
11
223.83
21
-102.837
0
LINE
8
BLACK
6
CONTINUOUS
10
223.83
20
-102.837
11
223.745
21
-102.897
0
LINE
8
BLACK
6
CONTINUOUS
10
223.745
20
-102.897
11
223.662
21
-102.961
0
LINE
8
BLACK
6
CONTINUOUS
10
223.662
20
-102.961
11
223.583
21
-103.028
0
LINE
8
BLACK
6
CONTINUOUS
10
223.583
20
-103.028
11
223.507
21
-103.099
0
LINE
8
BLACK
6
CONTINUOUS
10
223.507
20
-103.099
11
223.434
21
-103.172
0
LINE
8
BLACK
6
CONTINUOUS
10
223.434
20
-103.172
11
223.365
21
-103.25
0
LINE
8
BLACK
6
CONTINUOUS
10
223.365
20
-103.25
11
223.3
21
-103.33
0
LINE
8
BLACK
6
CONTINUOUS
10
223.3
20
-103.33
11
223.239
21
-103.415
0
LINE
8
BLACK
6
CONTINUOUS
10
223.239
20
-103.415
11
223.182
21
-103.502
0
LINE
8
BLACK
6
CONTINUOUS
10
223.182
20
-103.502
11
223.129
21
-103.594
0
LINE
8
BLACK
6
CONTINUOUS
10
223.129
20
-103.594
11
223.081
21
-103.689
0
LINE
8
BLACK
6
CONTINUOUS
10
223.081
20
-103.689
11
223.037
21
-103.787
0
LINE
8
BLACK
6
CONTINUOUS
10
223.037
20
-103.787
11
222.998
21
-103.889
0
LINE
8
BLACK
6
CONTINUOUS
10
222.998
20
-103.889
11
222.964
21
-103.995
0
LINE
8
BLACK
6
CONTINUOUS
10
222.964
20
-103.995
11
222.934
21
-104.105
0
LINE
8
BLACK
6
CONTINUOUS
10
222.934
20
-104.105
11
222.91
21
-104.219
0
LINE
8
BLACK
6
CONTINUOUS
10
222.91
20
-104.219
11
222.892
21
-104.336
0
LINE
8
BLACK
6
CONTINUOUS
10
222.892
20
-104.336
11
222.879
21
-104.457
0
LINE
8
BLACK
6
CONTINUOUS
10
222.879
20
-104.457
11
222.871
21
-104.583
0
LINE
8
BLACK
6
CONTINUOUS
10
222.871
20
-104.583
11
222.87
21
-104.712
0
LINE
8
BLACK
6
CONTINUOUS
10
222.87
20
-104.712
11
222.874
21
-104.845
0
LINE
8
BLACK
6
CONTINUOUS
10
222.874
20
-104.845
11
222.885
21
-104.982
0
LINE
8
BLACK
6
CONTINUOUS
10
222.885
20
-104.982
11
222.902
21
-105.124
0
LINE
8
BLACK
6
CONTINUOUS
10
222.902
20
-105.124
11
222.925
21
-105.269
0
LINE
8
BLACK
6
CONTINUOUS
10
222.925
20
-105.269
11
222.955
21
-105.419
0
LINE
8
BLACK
6
CONTINUOUS
10
144.76
20
-128
11
149.76
21
-128
0
LINE
8
BLACK
6
CONTINUOUS
10
188.511
20
-76.3112
11
188.925
21
-76.8278
0
LINE
8
BLACK
6
CONTINUOUS
10
140.36
20
-117.4
11
144.3
21
-111.1
0
LINE
8
BLACK
6
CONTINUOUS
10
210.76
20
-89.3349
11
212.453
21
-88.7196
0
LINE
8
BLACK
6
CONTINUOUS
10
127.363
20
-67.0559
11
125.052
21
-75.9428
0
LINE
8
BLACK
6
CONTINUOUS
10
69.1248
20
-115
11
71.5653
21
-105.419
0
LINE
8
BLACK
6
CONTINUOUS
10
112.974
20
-53.9589
11
110.658
21
-62.7448
0
CIRCLE
8
BLACK
10
134.9
20
-62.1
40
2.4
0
LINE
8
BLACK
6
CONTINUOUS
10
149.929
20
-131.32
11
156.5
21
-124.4
0
LINE
8
BLACK
6
CONTINUOUS
10
121.602
20
-46.5084
11
121.538
21
-46.4549
0
LINE
8
BLACK
6
CONTINUOUS
10
121.538
20
-46.4549
11
121.482
21
-46.408
0
LINE
8
BLACK
6
CONTINUOUS
10
121.482
20
-46.408
11
121.432
21
-46.3668
0
LINE
8
BLACK
6
CONTINUOUS
10
121.432
20
-46.3668
11
121.388
21
-46.3309
0
LINE
8
BLACK
6
CONTINUOUS
10
121.388
20
-46.3309
11
121.348
21
-46.2995
0
LINE
8
BLACK
6
CONTINUOUS
10
121.348
20
-46.2995
11
121.293
21
-46.2596
0
LINE
8
BLACK
6
CONTINUOUS
10
121.293
20
-46.2596
11
121.242
21
-46.2263
0
LINE
8
BLACK
6
CONTINUOUS
10
121.242
20
-46.2263
11
121.191
21
-46.1976
0
LINE
8
BLACK
6
CONTINUOUS
10
121.191
20
-46.1976
11
121.136
21
-46.1712
0
LINE
8
BLACK
6
CONTINUOUS
10
121.136
20
-46.1712
11
121.074
21
-46.145
0
LINE
8
BLACK
6
CONTINUOUS
10
121.074
20
-46.145
11
121.028
21
-46.1265
0
LINE
8
BLACK
6
CONTINUOUS
10
121.028
20
-46.1265
11
120.975
21
-46.1066
0
LINE
8
BLACK
6
CONTINUOUS
10
120.975
20
-46.1066
11
120.916
21
-46.0845
0
LINE
8
BLACK
6
CONTINUOUS
10
120.916
20
-46.0845
11
120.883
21
-46.0725
0
LINE
8
BLACK
6
CONTINUOUS
10
154.16
20
-117.4
11
154.16
21
-121.4
0
LINE
8
BLACK
6
CONTINUOUS
10
236.624
20
-50.6156
11
238.191
21
-51.069
0
LINE
8
BLACK
6
CONTINUOUS
10
188.6
20
-40.6
11
189.705
21
-40.2679
0
LINE
8
BLACK
6
CONTINUOUS
10
189.705
20
-40.2679
11
190.876
21
-40.0001
0
LINE
8
BLACK
6
CONTINUOUS
10
190.876
20
-40.0001
11
192.109
21
-39.7923
0
LINE
8
BLACK
6
CONTINUOUS
10
192.109
20
-39.7923
11
193.399
21
-39.6402
0
LINE
8
BLACK
6
CONTINUOUS
10
193.399
20
-39.6402
11
194.743
21
-39.5395
0
LINE
8
BLACK
6
CONTINUOUS
10
194.743
20
-39.5395
11
196.136
21
-39.486
0
LINE
8
BLACK
6
CONTINUOUS
10
196.136
20
-39.486
11
197.575
21
-39.4753
0
LINE
8
BLACK
6
CONTINUOUS
10
197.575
20
-39.4753
11
199.054
21
-39.5031
0
LINE
8
BLACK
6
CONTINUOUS
10
199.054
20
-39.5031
11
200.57
21
-39.5653
0
LINE
8
BLACK
6
CONTINUOUS
10
200.57
20
-39.5653
11
202.118
21
-39.6574
0
LINE
8
BLACK
6
CONTINUOUS
10
202.118
20
-39.6574
11
203.694
21
-39.7752
0
LINE
8
BLACK
6
CONTINUOUS
10
203.694
20
-39.7752
11
205.295
21
-39.9145
0
LINE
8
BLACK
6
CONTINUOUS
10
205.295
20
-39.9145
11
206.916
21
-40.0708
0
LINE
8
BLACK
6
CONTINUOUS
10
206.916
20
-40.0708
11
208.552
21
-40.2401
0
LINE
8
BLACK
6
CONTINUOUS
10
208.552
20
-40.2401
11
210.2
21
-40.4179
0
LINE
8
BLACK
6
CONTINUOUS
10
210.2
20
-40.4179
11
211.855
21
-40.6
0
LINE
8
BLACK
6
CONTINUOUS
10
211.855
20
-40.6
11
213.513
21
-40.7821
0
LINE
8
BLACK
6
CONTINUOUS
10
213.513
20
-40.7821
11
215.171
21
-40.9599
0
LINE
8
BLACK
6
CONTINUOUS
10
215.171
20
-40.9599
11
216.823
21
-41.1292
0
LINE
8
BLACK
6
CONTINUOUS
10
216.823
20
-41.1292
11
218.466
21
-41.2855
0
LINE
8
BLACK
6
CONTINUOUS
10
218.466
20
-41.2855
11
220.095
21
-41.4248
0
LINE
8
BLACK
6
CONTINUOUS
10
220.095
20
-41.4248
11
221.706
21
-41.5426
0
LINE
8
BLACK
6
CONTINUOUS
10
221.706
20
-41.5426
11
223.296
21
-41.6347
0
LINE
8
BLACK
6
CONTINUOUS
10
223.296
20
-41.6347
11
224.859
21
-41.6969
0
LINE
8
BLACK
6
CONTINUOUS
10
224.859
20
-41.6969
11
226.392
21
-41.7247
0
LINE
8
BLACK
6
CONTINUOUS
10
226.392
20
-41.7247
11
227.89
21
-41.714
0
LINE
8
BLACK
6
CONTINUOUS
10
227.89
20
-41.714
11
229.35
21
-41.6605
0
LINE
8
BLACK
6
CONTINUOUS
10
229.35
20
-41.6605
11
230.766
21
-41.5598
0
LINE
8
BLACK
6
CONTINUOUS
10
230.766
20
-41.5598
11
232.136
21
-41.4077
0
LINE
8
BLACK
6
CONTINUOUS
10
232.136
20
-41.4077
11
233.454
21
-41.1999
0
LINE
8
BLACK
6
CONTINUOUS
10
233.454
20
-41.1999
11
234.717
21
-40.9321
0
LINE
8
BLACK
6
CONTINUOUS
10
234.717
20
-40.9321
11
235.92
21
-40.6
0
ARC
8
BLACK
10
147.26
20
-123.6
40
0.8
50
-0
51
180
0
LINE
8
BLACK
6
CONTINUOUS
10
91.325
20
-63.2432
11
93.0177
21
-63.8603
0
ARC
8
BLACK
10
250.526
20
-38.4799
40
2.62549
50
20.0367
51
110.033
0
LINE
8
BLACK
6
CONTINUOUS
10
130.79
20
-118.175
11
134.072
21
-109.152
0
LINE
8
BLACK
6
CONTINUOUS
10
231.78
20
-89.1786
11
228.494
21
-80.1572
0
ARC
8
BLACK
10
243.379
20
-222.276
40
105.701
50
100.951
51
139.337
0
LINE
8
BLACK
6
CONTINUOUS
10
172.858
20
-85.9331
11
173.252
21
-86.4151
0
LINE
8
BLACK
6
CONTINUOUS
10
150.173
20
-65.4152
11
147.828
21
-68.2235
0
LINE
8
BLACK
6
CONTINUOUS
10
176.665
20
-103.703
11
180.669
21
-112.079
0
LINE
8
BLACK
6
CONTINUOUS
10
220.13
20
-57.1448
11
216.845
21
-48.1235
0
ARC
8
BLACK
10
71.8621
20
-115.738
40
2.83531
50
-195.104
51
-103.09
0
LINE
8
BLACK
6
CONTINUOUS
10
96.2252
20
-54.6586
11
96.2998
21
-54.8378
0
LINE
8
BLACK
6
CONTINUOUS
10
216.525
20
-48.0238
11
216.845
21
-48.1235
0
LINE
8
BLACK
6
CONTINUOUS
10
212.453
20
-88.7196
11
209.168
21
-79.6982
0
LINE
8
BLACK
6
CONTINUOUS
10
206.619
20
-72.679
11
203.334
21
-63.6576
0
LINE
8
BLACK
6
CONTINUOUS
10
100.689
20
-95.4341
11
103.971
21
-86.4116
0
LINE
8
BLACK
6
CONTINUOUS
10
149.929
20
-131.32
11
149.216
21
-134.605
0
LINE
8
BLACK
6
CONTINUOUS
10
54.1408
20
-59.9563
11
55.8336
21
-60.5734
0
LINE
8
BLACK
6
CONTINUOUS
10
64.4978
20
-89.2
11
64.4874
21
-89.7973
0
LINE
8
BLACK
6
CONTINUOUS
10
109.851
20
-69.849
11
109.811
21
-70.3719
0
LINE
8
BLACK
6
CONTINUOUS
10
154.16
20
-117.4
11
151.6
21
-111.1
0
LINE
8
BLACK
6
CONTINUOUS
10
48.2253
20
-76.29
11
49.918
21
-76.9071
0
LINE
8
BLACK
6
CONTINUOUS
10
156.5
20
-62.6486
11
154.955
21
-60.3043
0
LINE
8
BLACK
6
CONTINUOUS
10
143.295
20
-136.644
11
142.779
21
-139.621
0
LINE
8
BLACK
6
CONTINUOUS
10
200.797
20
-56.6464
11
197.511
21
-47.6251
0
LINE
8
BLACK
6
CONTINUOUS
10
84.5965
20
-86.6082
11
84.6502
21
-86.8716
0
LINE
8
BLACK
6
CONTINUOUS
10
81.9052
20
-86.6928
11
79.6754
21
-95.277
0
LINE
8
BLACK
6
CONTINUOUS
10
93.0177
20
-63.8603
11
96.2998
21
-54.8378
0
LINE
8
BLACK
6
CONTINUOUS
10
248.252
20
-82.5652
11
249.804
21
-83.0817
0
LINE
8
BLACK
6
CONTINUOUS
10
73.4353
20
-57.3351
11
71.0788
21
-66.172
0
LINE
8
BLACK
6
CONTINUOUS
10
137.201
20
-92.6526
11
134.918
21
-101.535
0
LINE
8
BLACK
6
CONTINUOUS
10
55.8336
20
-60.5734
11
59.1156
21
-51.5509
0
LINE
8
BLACK
6
CONTINUOUS
10
71.0788
20
-66.172
11
72.7715
21
-66.7891
0
LINE
8
BLACK
6
CONTINUOUS
10
95.7335
20
-94.7785
11
93.4512
21
-103.049
0
LINE
8
BLACK
6
CONTINUOUS
10
85.5077
20
-79.2462
11
87.2004
21
-79.8633
0
LINE
8
BLACK
6
CONTINUOUS
10
182.696
20
-60.3364
11
183.118
21
-60.8231
0
LINE
8
BLACK
6
CONTINUOUS
10
44.8917
20
-83.1286
11
42.5126
21
-92.1027
0
LINE
8
BLACK
6
CONTINUOUS
10
135.8
20
-124.4
11
134.615
21
-127.794
0
LINE
8
BLACK
6
CONTINUOUS
10
86.4442
20
-92.2883
11
95.7335
21
-94.7785
0
LINE
8
BLACK
6
CONTINUOUS
10
134.615
20
-127.794
11
135.072
21
-130.5
0
LINE
8
BLACK
6
CONTINUOUS
10
200.8
20
-94.5
11
210.4
21
-91.9
0
LINE
8
BLACK
6
CONTINUOUS
10
120.883
20
-46.0725
11
105.92
21
-40.6
0
LINE
8
BLACK
6
CONTINUOUS
10
158.7
20
-124.4
11
159.9
21
-127.7
0
LINE
8
BLACK
6
CONTINUOUS
10
104.836
20
-78.7773
11
106.528
21
-79.3944
0
LINE
8
BLACK
6
CONTINUOUS
10
228.154
20
-79.9733
11
228.494
21
-80.1572
0
LINE
8
BLACK
6
CONTINUOUS
10
156.5
20
-124.4
11
156.5
21
-114.8
0
LINE
8
BLACK
6
CONTINUOUS
10
149.216
20
-134.605
11
151.195
21
-136.584
0
LINE
8
BLACK
6
CONTINUOUS
10
178.672
20
-101.908
11
179.077
21
-102.442
0
LINE
8
BLACK
6
CONTINUOUS
10
135.8
20
-114.8
11
138
21
-114.8
0
LINE
8
BLACK
6
CONTINUOUS
10
107.16
20
-69.9337
11
104.836
21
-78.7773
0
LINE
8
BLACK
6
CONTINUOUS
10
113.431
20
-107.931
11
115.124
21
-108.548
0
LINE
8
BLACK
6
CONTINUOUS
10
59.5126
20
-98.2027
11
61.2053
21
-98.8198
0
LINE
8
BLACK
6
CONTINUOUS
10
156.5
20
-114.8
11
158.7
21
-114.8
0
LINE
8
BLACK
6
CONTINUOUS
10
178.4
20
-44.3
11
177.983
21
-44.5017
0
LINE
8
BLACK
6
CONTINUOUS
10
177.983
20
-44.5017
11
177.591
21
-44.7127
0
LINE
8
BLACK
6
CONTINUOUS
10
177.591
20
-44.7127
11
177.225
21
-44.9321
0
LINE
8
BLACK
6
CONTINUOUS
10
177.225
20
-44.9321
11
176.882
21
-45.1592
0
LINE
8
BLACK
6
CONTINUOUS
10
176.882
20
-45.1592
11
176.559
21
-45.3932
0
LINE
8
BLACK
6
CONTINUOUS
10
176.559
20
-45.3932
11
176.257
21
-45.6335
0
LINE
8
BLACK
6
CONTINUOUS
10
176.257
20
-45.6335
11
175.972
21
-45.8793
0
LINE
8
BLACK
6
CONTINUOUS
10
175.972
20
-45.8793
11
175.703
21
-46.1297
0
LINE
8
BLACK
6
CONTINUOUS
10
175.703
20
-46.1297
11
175.449
21
-46.3841
0
LINE
8
BLACK
6
CONTINUOUS
10
175.449
20
-46.3841
11
175.207
21
-46.6417
0
LINE
8
BLACK
6
CONTINUOUS
10
175.207
20
-46.6417
11
174.976
21
-46.9017
0
LINE
8
BLACK
6
CONTINUOUS
10
174.976
20
-46.9017
11
174.754
21
-47.1635
0
LINE
8
BLACK
6
CONTINUOUS
10
174.754
20
-47.1635
11
174.54
21
-47.4262
0
LINE
8
BLACK
6
CONTINUOUS
10
174.54
20
-47.4262
11
174.332
21
-47.6891
0
LINE
8
BLACK
6
CONTINUOUS
10
174.332
20
-47.6891
11
174.127
21
-47.9514
0
LINE
8
BLACK
6
CONTINUOUS
10
174.127
20
-47.9514
11
173.925
21
-48.2125
0
LINE
8
BLACK
6
CONTINUOUS
10
173.925
20
-48.2125
11
173.723
21
-48.4715
0
LINE
8
BLACK
6
CONTINUOUS
10
173.723
20
-48.4715
11
173.521
21
-48.7277
0
LINE
8
BLACK
6
CONTINUOUS
10
173.521
20
-48.7277
11
173.315
21
-48.9804
0
LINE
8
BLACK
6
CONTINUOUS
10
173.315
20
-48.9804
11
173.105
21
-49.2287
0
LINE
8
BLACK
6
CONTINUOUS
10
173.105
20
-49.2287
11
172.889
21
-49.472
0
LINE
8
BLACK
6
CONTINUOUS
10
172.889
20
-49.472
11
172.664
21
-49.7095
0
LINE
8
BLACK
6
CONTINUOUS
10
172.664
20
-49.7095
11
172.43
21
-49.9404
0
LINE
8
BLACK
6
CONTINUOUS
10
172.43
20
-49.9404
11
172.184
21
-50.1641
0
LINE
8
BLACK
6
CONTINUOUS
10
172.184
20
-50.1641
11
171.926
21
-50.3796
0
LINE
8
BLACK
6
CONTINUOUS
10
171.926
20
-50.3796
11
171.652
21
-50.5864
0
LINE
8
BLACK
6
CONTINUOUS
10
171.652
20
-50.5864
11
171.361
21
-50.7836
0
LINE
8
BLACK
6
CONTINUOUS
10
171.361
20
-50.7836
11
171.053
21
-50.9705
0
LINE
8
BLACK
6
CONTINUOUS
10
171.053
20
-50.9705
11
170.724
21
-51.1463
0
LINE
8
BLACK
6
CONTINUOUS
10
170.724
20
-51.1463
11
170.373
21
-51.3104
0
LINE
8
BLACK
6
CONTINUOUS
10
170.373
20
-51.3104
11
169.999
21
-51.4618
0
LINE
8
BLACK
6
CONTINUOUS
10
169.999
20
-51.4618
11
169.6
21
-51.6
0
LINE
8
BLACK
6
CONTINUOUS
10
121.602
20
-46.5084
11
129.419
21
-53.0958
0
LINE
8
BLACK
6
CONTINUOUS
10
243.583
20
-77.5057
11
240.243
21
-68.4536
0
LINE
8
BLACK
6
CONTINUOUS
10
222.339
20
-63.9986
11
222.662
21
-64.1265
0
CIRCLE
8
BLACK
10
147.26
20
-144.4
40
2.4
0
LINE
8
BLACK
6
CONTINUOUS
10
169.6
20
-51.6
11
160.939
21
-54.4548
0
LINE
8
BLACK
6
CONTINUOUS
10
67.6209
20
-73.3099
11
65.3126
21
-82.2027
0
ARC
8
BLACK
10
26.1794
20
-87.1718
40
2.62549
50
-200.033
51
-110.037
0
LINE
8
BLACK
6
CONTINUOUS
10
184.71
20
-70.4598
11
186.403
21
-69.8444
0
LINE
8
BLACK
6
CONTINUOUS
10
159.912
20
-54.4649
11
160.005
21
-54.4951
0
LINE
8
BLACK
6
CONTINUOUS
10
160.005
20
-54.4951
11
160.098
21
-54.5173
0
LINE
8
BLACK
6
CONTINUOUS
10
160.098
20
-54.5173
11
160.191
21
-54.5323
0
LINE
8
BLACK
6
CONTINUOUS
10
160.191
20
-54.5323
11
160.282
21
-54.541
0
LINE
8
BLACK
6
CONTINUOUS
10
160.282
20
-54.541
11
160.37
21
-54.5441
0
LINE
8
BLACK
6
CONTINUOUS
10
160.37
20
-54.5441
11
160.455
21
-54.5426
0
LINE
8
BLACK
6
CONTINUOUS
10
160.455
20
-54.5426
11
160.536
21
-54.5372
0
LINE
8
BLACK
6
CONTINUOUS
10
160.536
20
-54.5372
11
160.611
21
-54.5289
0
LINE
8
BLACK
6
CONTINUOUS
10
160.611
20
-54.5289
11
160.682
21
-54.5184
0
LINE
8
BLACK
6
CONTINUOUS
10
160.682
20
-54.5184
11
160.745
21
-54.5066
0
LINE
8
BLACK
6
CONTINUOUS
10
160.745
20
-54.5066
11
160.801
21
-54.4943
0
LINE
8
BLACK
6
CONTINUOUS
10
160.801
20
-54.4943
11
160.869
21
-54.4767
0
LINE
8
BLACK
6
CONTINUOUS
10
160.869
20
-54.4767
11
160.926
21
-54.4595
0
LINE
8
BLACK
6
CONTINUOUS
10
160.926
20
-54.4595
11
160.939
21
-54.4548
0
CIRCLE
8
BLACK
10
219.9
20
-46.2
40
2.4
0
LINE
8
BLACK
6
CONTINUOUS
10
49.918
20
-76.9071
11
53.2001
21
-67.8846
0
LINE
8
BLACK
6
CONTINUOUS
10
159.585
20
-54.5333
11
154.966
21
-60.0639
0
LINE
8
BLACK
6
CONTINUOUS
10
186.403
20
-69.8444
11
183.118
21
-60.8231
0
ARC
8
BLACK
10
222.658
20
-115.738
40
2.83531
50
-76.91
51
15.1044
0
LINE
8
BLACK
6
CONTINUOUS
10
146.46
20
-123.6
11
146.46
21
-124.2
0
LINE
8
BLACK
6
CONTINUOUS
10
106.528
20
-79.3944
11
109.811
21
-70.3719
0
LINE
8
BLACK
6
CONTINUOUS
10
87.7196
20
-70.7181
11
85.5077
21
-79.2462
0
LINE
8
BLACK
6
CONTINUOUS
10
249.396
20
-93.5183
11
246.057
21
-84.4283
0
LINE
8
BLACK
6
CONTINUOUS
10
44.8937
20
-36.0132
11
58.6
21
-40.6
0
ARC
8
BLACK
10
150.345
20
-65.5467
40
0.216267
50
67.1823
51
142.538
0
LINE
8
BLACK
6
CONTINUOUS
10
140.36
20
-117.4
11
140.36
21
-121.4
0
LINE
8
BLACK
6
CONTINUOUS
10
235.92
20
-40.6
11
249.626
21
-36.0132
0
LINE
8
BLACK
6
CONTINUOUS
10
192.21
20
-85.8491
11
188.925
21
-76.8278
0
LINE
8
BLACK
6
CONTINUOUS
10
112.351
20
-63.3619
11
115.633
21
-54.3394
0
LINE
8
BLACK
6
CONTINUOUS
10
214.518
20
-49.8185
11
218.437
21
-57.7602
0
LINE
8
BLACK
6
CONTINUOUS
10
158.7
20
-114.8
11
158.7
21
-124.4
0
LINE
8
BLACK
6
CONTINUOUS
10
225.947
20
-73.1478
11
222.662
21
-64.1265
0
LINE
8
BLACK
6
CONTINUOUS
10
252.992
20
-37.5803
11
270.807
21
-86.2725
0
ARC
8
BLACK
10
43.9943
20
-38.4799
40
2.62549
50
69.9674
51
159.963
0
CIRCLE
8
BLACK
10
70.52
20
-97.1
40
2.4
0
LINE
8
BLACK
6
CONTINUOUS
10
59.2116
20
-51.0944
11
59.1156
21
-51.5509
0
LINE
8
BLACK
6
CONTINUOUS
10
192.318
20
-94.0807
11
196.331
21
-102.448
0
LINE
8
BLACK
6
CONTINUOUS
10
79.6754
20
-95.277
11
81.3681
21
-95.894
0
LINE
8
BLACK
6
CONTINUOUS
10
140.36
20
-121.4
11
154.16
21
-121.4
0
LINE
8
BLACK
6
CONTINUOUS
10
144.76
20
-125.846
11
149.76
21
-125.846
0
ARC
8
BLACK
10
159.794
20
-54.7162
40
0.277656
50
64.8434
51
138.805
0
LINE
8
BLACK
6
CONTINUOUS
10
119.245
20
-91.9475
11
120.937
21
-92.5646
0
LINE
8
BLACK
6
CONTINUOUS
10
129.097
20
-117.557
11
130.79
21
-118.175
0
LINE
8
BLACK
6
CONTINUOUS
10
165.036
20
-71.753
11
169.015
21
-80.0407
0
LINE
8
BLACK
6
CONTINUOUS
10
65.72
20
-100.9
11
65.3987
21
-100.8
0
LINE
8
BLACK
6
CONTINUOUS
10
65.3987
20
-100.8
11
65.0902
21
-100.722
0
LINE
8
BLACK
6
CONTINUOUS
10
65.0902
20
-100.722
11
64.7933
21
-100.666
0
LINE
8
BLACK
6
CONTINUOUS
10
64.7933
20
-100.666
11
64.5067
21
-100.629
0
LINE
8
BLACK
6
CONTINUOUS
10
64.5067
20
-100.629
11
64.2291
21
-100.61
0
LINE
8
BLACK
6
CONTINUOUS
10
64.2291
20
-100.61
11
63.9594
21
-100.607
0
LINE
8
BLACK
6
CONTINUOUS
10
63.9594
20
-100.607
11
63.6963
21
-100.619
0
LINE
8
BLACK
6
CONTINUOUS
10
63.6963
20
-100.619
11
63.4384
21
-100.644
0
LINE
8
BLACK
6
CONTINUOUS
10
63.4384
20
-100.644
11
63.1847
21
-100.68
0
LINE
8
BLACK
6
CONTINUOUS
10
63.1847
20
-100.68
11
62.9337
21
-100.725
0
LINE
8
BLACK
6
CONTINUOUS
10
62.9337
20
-100.725
11
62.6844
21
-100.779
0
LINE
8
BLACK
6
CONTINUOUS
10
62.6844
20
-100.779
11
62.4353
21
-100.838
0
LINE
8
BLACK
6
CONTINUOUS
10
62.4353
20
-100.838
11
62.1854
21
-100.902
0
LINE
8
BLACK
6
CONTINUOUS
10
62.1854
20
-100.902
11
61.9332
21
-100.968
0
LINE
8
BLACK
6
CONTINUOUS
10
61.9332
20
-100.968
11
61.6777
21
-101.036
0
LINE
8
BLACK
6
CONTINUOUS
10
61.6777
20
-101.036
11
61.4174
21
-101.103
0
LINE
8
BLACK
6
CONTINUOUS
10
61.4174
20
-101.103
11
61.1513
21
-101.168
0
LINE
8
BLACK
6
CONTINUOUS
10
61.1513
20
-101.168
11
60.878
21
-101.229
0
LINE
8
BLACK
6
CONTINUOUS
10
60.878
20
-101.229
11
60.5962
21
-101.284
0
LINE
8
BLACK
6
CONTINUOUS
10
60.5962
20
-101.284
11
60.3048
21
-101.332
0
LINE
8
BLACK
6
CONTINUOUS
10
60.3048
20
-101.332
11
60.0025
21
-101.371
0
LINE
8
BLACK
6
CONTINUOUS
10
60.0025
20
-101.371
11
59.688
21
-101.399
0
LINE
8
BLACK
6
CONTINUOUS
10
59.688
20
-101.399
11
59.3601
21
-101.415
0
LINE
8
BLACK
6
CONTINUOUS
10
59.3601
20
-101.415
11
59.0176
21
-101.417
0
LINE
8
BLACK
6
CONTINUOUS
10
59.0176
20
-101.417
11
58.6591
21
-101.403
0
LINE
8
BLACK
6
CONTINUOUS
10
58.6591
20
-101.403
11
58.2835
21
-101.371
0
LINE
8
BLACK
6
CONTINUOUS
10
58.2835
20
-101.371
11
57.8894
21
-101.321
0
LINE
8
BLACK
6
CONTINUOUS
10
57.8894
20
-101.321
11
57.4758
21
-101.25
0
LINE
8
BLACK
6
CONTINUOUS
10
57.4758
20
-101.25
11
57.0412
21
-101.157
0
LINE
8
BLACK
6
CONTINUOUS
10
57.0412
20
-101.157
11
56.5844
21
-101.039
0
LINE
8
BLACK
6
CONTINUOUS
10
56.5844
20
-101.039
11
56.1042
21
-100.895
0
LINE
8
BLACK
6
CONTINUOUS
10
56.1042
20
-100.895
11
55.5994
21
-100.725
0
LINE
8
BLACK
6
CONTINUOUS
10
159.9
20
-127.7
11
161.922
21
-129.44
0
LINE
8
BLACK
6
CONTINUOUS
10
135.8
20
-124.4
11
135.8
21
-114.8
0
LINE
8
BLACK
6
CONTINUOUS
10
61.2053
20
-98.8198
11
64.4874
21
-89.7973
0
LINE
8
BLACK
6
CONTINUOUS
10
145.275
20
-134.664
11
143.295
21
-136.644
0
CIRCLE
8
BLACK
10
122.85
20
-52.65
40
2.4
0
LINE
8
BLACK
6
CONTINUOUS
10
126.745
20
-76.5599
11
130.027
21
-67.5374
0
LINE
8
BLACK
6
CONTINUOUS
10
186.504
20
-78.1059
11
190.517
21
-86.4645
0
LINE
8
BLACK
6
CONTINUOUS
10
115.665
20
-53.8743
11
115.633
21
-54.3394
0
LINE
8
BLACK
6
CONTINUOUS
10
124.239
20
-82.946
11
124.22
21
-83.5421
0
LINE
8
BLACK
6
CONTINUOUS
10
247.295
20
-76.1752
11
243.583
21
-77.5057
0
LINE
8
BLACK
6
CONTINUOUS
10
151.6
20
-111.1
11
144.8
21
-111.1
0
LINE
8
BLACK
6
CONTINUOUS
10
136.611
20
-102.152
11
139.893
21
-93.1294
0
LINE
8
BLACK
6
CONTINUOUS
10
182.362
20
-111.463
11
179.077
21
-102.442
0
LINE
8
BLACK
6
CONTINUOUS
10
90.4108
20
-70.6334
11
90.4825
21
-70.8408
0
LINE
8
BLACK
6
CONTINUOUS
10
84.1683
20
-100.564
11
82.6451
21
-101.15
0
LINE
8
BLACK
6
CONTINUOUS
10
101.345
20
-85.9085
11
98.9964
21
-94.817
0
LINE
8
BLACK
6
CONTINUOUS
10
144.572
20
-131.416
11
138
21
-124.4
0
LINE
8
BLACK
6
CONTINUOUS
10
118.425
20
-98.9208
11
118.406
21
-99.5254
0
LINE
8
BLACK
6
CONTINUOUS
10
212.569
20
-100.327
11
212.36
21
-101.021
0
LINE
8
BLACK
6
CONTINUOUS
10
93.4512
20
-103.049
11
91.2071
21
-105.515
0
LINE
8
BLACK
6
CONTINUOUS
10
138
20
-114.8
11
138
21
-124.4
0
LINE
8
BLACK
6
CONTINUOUS
10
70.02
20
-102.5
11
70.1222
21
-102.539
0
LINE
8
BLACK
6
CONTINUOUS
10
70.1222
20
-102.539
11
70.2225
21
-102.581
0
LINE
8
BLACK
6
CONTINUOUS
10
70.2225
20
-102.581
11
70.3208
21
-102.626
0
LINE
8
BLACK
6
CONTINUOUS
10
70.3208
20
-102.626
11
70.4168
21
-102.674
0
LINE
8
BLACK
6
CONTINUOUS
10
70.4168
20
-102.674
11
70.5104
21
-102.725
0
LINE
8
BLACK
6
CONTINUOUS
10
70.5104
20
-102.725
11
70.6015
21
-102.779
0
LINE
8
BLACK
6
CONTINUOUS
10
70.6015
20
-102.779
11
70.6899
21
-102.837
0
LINE
8
BLACK
6
CONTINUOUS
10
70.6899
20
-102.837
11
70.7754
21
-102.897
0
LINE
8
BLACK
6
CONTINUOUS
10
70.7754
20
-102.897
11
70.8579
21
-102.961
0
LINE
8
BLACK
6
CONTINUOUS
10
70.8579
20
-102.961
11
70.9373
21
-103.028
0
LINE
8
BLACK
6
CONTINUOUS
10
70.9373
20
-103.028
11
71.0133
21
-103.099
0
LINE
8
BLACK
6
CONTINUOUS
10
71.0133
20
-103.099
11
71.0859
21
-103.172
0
LINE
8
BLACK
6
CONTINUOUS
10
71.0859
20
-103.172
11
71.1548
21
-103.25
0
LINE
8
BLACK
6
CONTINUOUS
10
71.1548
20
-103.25
11
71.2199
21
-103.33
0
LINE
8
BLACK
6
CONTINUOUS
10
71.2199
20
-103.33
11
71.2811
21
-103.415
0
LINE
8
BLACK
6
CONTINUOUS
10
71.2811
20
-103.415
11
71.3382
21
-103.502
0
LINE
8
BLACK
6
CONTINUOUS
10
71.3382
20
-103.502
11
71.391
21
-103.594
0
LINE
8
BLACK
6
CONTINUOUS
10
71.391
20
-103.594
11
71.4394
21
-103.689
0
LINE
8
BLACK
6
CONTINUOUS
10
71.4394
20
-103.689
11
71.4832
21
-103.787
0
LINE
8
BLACK
6
CONTINUOUS
10
71.4832
20
-103.787
11
71.5223
21
-103.889
0
LINE
8
BLACK
6
CONTINUOUS
10
71.5223
20
-103.889
11
71.5565
21
-103.995
0
LINE
8
BLACK
6
CONTINUOUS
10
71.5565
20
-103.995
11
71.5856
21
-104.105
0
LINE
8
BLACK
6
CONTINUOUS
10
71.5856
20
-104.105
11
71.6096
21
-104.219
0
LINE
8
BLACK
6
CONTINUOUS
10
71.6096
20
-104.219
11
71.6282
21
-104.336
0
LINE
8
BLACK
6
CONTINUOUS
10
71.6282
20
-104.336
11
71.6413
21
-104.457
0
LINE
8
BLACK
6
CONTINUOUS
10
71.6413
20
-104.457
11
71.6487
21
-104.583
0
LINE
8
BLACK
6
CONTINUOUS
10
71.6487
20
-104.583
11
71.6503
21
-104.712
0
LINE
8
BLACK
6
CONTINUOUS
10
71.6503
20
-104.712
11
71.6459
21
-104.845
0
LINE
8
BLACK
6
CONTINUOUS
10
71.6459
20
-104.845
11
71.6353
21
-104.982
0
LINE
8
BLACK
6
CONTINUOUS
10
71.6353
20
-104.982
11
71.6185
21
-105.124
0
LINE
8
BLACK
6
CONTINUOUS
10
71.6185
20
-105.124
11
71.5952
21
-105.269
0
LINE
8
BLACK
6
CONTINUOUS
10
71.5952
20
-105.269
11
71.5653
21
-105.419
0
LINE
8
BLACK
6
CONTINUOUS
10
139.893
20
-92.5679
11
139.893
21
-93.1294
0
LINE
8
BLACK
6
CONTINUOUS
10
200.891
20
-65.0082
11
204.926
21
-73.2943
0
LINE
8
BLACK
6
CONTINUOUS
10
143.016
20
-76.6778
11
140.747
21
-85.5237
0
CIRCLE
8
BLACK
10
147.26
20
-99.58
40
2.4
0
LINE
8
BLACK
6
CONTINUOUS
10
253.119
20
-92.1868
11
249.396
21
-93.5183
0
LINE
8
BLACK
6
CONTINUOUS
10
243.997
20
-67.1184
11
242.438
21
-66.5904
0
LINE
8
BLACK
6
CONTINUOUS
10
194.325
20
-92.286
11
194.739
21
-92.8111
0
ARC
8
BLACK
10
147.26
20
-177.233
40
26.3608
50
61.3472
51
118.653
0
LINE
8
BLACK
6
CONTINUOUS
10
170.85
20
-87.7278
11
174.844
21
-96.0518
0
LINE
8
BLACK
6
CONTINUOUS
10
190.517
20
-86.4645
11
192.21
21
-85.8491
0
CIRCLE
8
BLACK
10
159.1
20
-60.9
40
2.4
0
LINE
8
BLACK
6
CONTINUOUS
10
203.3
20
-102.8
11
205.471
21
-103.902
0
LINE
8
BLACK
6
CONTINUOUS
10
72.7715
20
-66.7891
11
76.0536
21
-57.7666
0
LINE
8
BLACK
6
CONTINUOUS
10
167.043
20
-69.9583
11
167.423
21
-70.404
0
LINE
8
BLACK
6
CONTINUOUS
10
144.8
20
-111.1
11
144.3
21
-111.1
0
LINE
8
BLACK
6
CONTINUOUS
10
180.689
20
-62.1311
11
184.71
21
-70.4598
0
LINE
8
BLACK
6
CONTINUOUS
10
238.191
20
-51.069
11
241.476
21
-60.0915
0
ARC
8
BLACK
10
147.604
20
-68.0485
40
0.284156
50
-128.049
51
-38
0
LINE
8
BLACK
6
CONTINUOUS
10
145.275
20
-134.664
11
144.572
21
-131.416
0
LINE
8
BLACK
6
CONTINUOUS
10
93.5339
20
-54.7433
11
91.325
21
-63.2432
0
LINE
8
BLACK
6
CONTINUOUS
10
56.5204
20
-51.1791
11
54.1408
21
-59.9563
0
LINE
8
BLACK
6
CONTINUOUS
10
206.706
20
-80.9829
11
210.76
21
-89.3349
0
ARC
8
BLACK
10
268.341
20
-87.1718
40
2.62549
50
-69.9633
51
20.0325
0
LINE
8
BLACK
6
CONTINUOUS
10
200.8
20
-94.5
11
203.3
21
-102.8
0
LINE
8
BLACK
6
CONTINUOUS
10
151.195
20
-136.584
11
152.801
21
-137.147
0
LINE
8
BLACK
6
CONTINUOUS
10
174.844
20
-96.0518
11
176.537
21
-95.4364
0
LINE
8
BLACK
6
CONTINUOUS
10
104.037
20
-85.8238
11
103.971
21
-86.4116
0
LINE
8
BLACK
6
CONTINUOUS
10
230.086
20
-89.7939
11
231.78
21
-89.1786
0
LINE
8
BLACK
6
CONTINUOUS
10
148.06
20
-123.6
11
148.06
21
-124.2
0
LINE
8
BLACK
6
CONTINUOUS
10
145.707
20
-76.5932
11
145.722
21
-77.1183
0
LINE
8
BLACK
6
CONTINUOUS
10
237.796
20
-61.4183
11
234.523
21
-52.4446
0
LINE
8
BLACK
6
CONTINUOUS
10
243.997
20
-67.1184
11
247.295
21
-76.1752
0
LINE
8
BLACK
6
CONTINUOUS
10
228.8
20
-100.9
11
229.121
21
-100.8
0
LINE
8
BLACK
6
CONTINUOUS
10
229.121
20
-100.8
11
229.43
21
-100.722
0
LINE
8
BLACK
6
CONTINUOUS
10
229.43
20
-100.722
11
229.727
21
-100.666
0
LINE
8
BLACK
6
CONTINUOUS
10
229.727
20
-100.666
11
230.013
21
-100.629
0
LINE
8
BLACK
6
CONTINUOUS
10
230.013
20
-100.629
11
230.291
21
-100.61
0
LINE
8
BLACK
6
CONTINUOUS
10
230.291
20
-100.61
11
230.561
21
-100.607
0
LINE
8
BLACK
6
CONTINUOUS
10
230.561
20
-100.607
11
230.824
21
-100.619
0
LINE
8
BLACK
6
CONTINUOUS
10
230.824
20
-100.619
11
231.082
21
-100.644
0
LINE
8
BLACK
6
CONTINUOUS
10
231.082
20
-100.644
11
231.335
21
-100.68
0
LINE
8
BLACK
6
CONTINUOUS
10
231.335
20
-100.68
11
231.586
21
-100.725
0
LINE
8
BLACK
6
CONTINUOUS
10
231.586
20
-100.725
11
231.836
21
-100.779
0
LINE
8
BLACK
6
CONTINUOUS
10
231.836
20
-100.779
11
232.085
21
-100.838
0
LINE
8
BLACK
6
CONTINUOUS
10
232.085
20
-100.838
11
232.335
21
-100.902
0
LINE
8
BLACK
6
CONTINUOUS
10
232.335
20
-100.902
11
232.587
21
-100.968
0
LINE
8
BLACK
6
CONTINUOUS
10
232.587
20
-100.968
11
232.842
21
-101.036
0
LINE
8
BLACK
6
CONTINUOUS
10
232.842
20
-101.036
11
233.103
21
-101.103
0
LINE
8
BLACK
6
CONTINUOUS
10
233.103
20
-101.103
11
233.369
21
-101.168
0
LINE
8
BLACK
6
CONTINUOUS
10
233.369
20
-101.168
11
233.642
21
-101.229
0
LINE
8
BLACK
6
CONTINUOUS
10
233.642
20
-101.229
11
233.924
21
-101.284
0
LINE
8
BLACK
6
CONTINUOUS
10
233.924
20
-101.284
11
234.215
21
-101.332
0
LINE
8
BLACK
6
CONTINUOUS
10
234.215
20
-101.332
11
234.517
21
-101.371
0
LINE
8
BLACK
6
CONTINUOUS
10
234.517
20
-101.371
11
234.832
21
-101.399
0
LINE
8
BLACK
6
CONTINUOUS
10
234.832
20
-101.399
11
235.16
21
-101.415
0
LINE
8
BLACK
6
CONTINUOUS
10
235.16
20
-101.415
11
235.502
21
-101.417
0
LINE
8
BLACK
6
CONTINUOUS
10
235.502
20
-101.417
11
235.861
21
-101.403
0
LINE
8
BLACK
6
CONTINUOUS
10
235.861
20
-101.403
11
236.237
21
-101.371
0
LINE
8
BLACK
6
CONTINUOUS
10
236.237
20
-101.371
11
236.631
21
-101.321
0
LINE
8
BLACK
6
CONTINUOUS
10
236.631
20
-101.321
11
237.044
21
-101.25
0
LINE
8
BLACK
6
CONTINUOUS
10
237.044
20
-101.25
11
237.479
21
-101.157
0
LINE
8
BLACK
6
CONTINUOUS
10
237.479
20
-101.157
11
237.936
21
-101.039
0
LINE
8
BLACK
6
CONTINUOUS
10
237.936
20
-101.039
11
238.416
21
-100.895
0
LINE
8
BLACK
6
CONTINUOUS
10
238.416
20
-100.895
11
238.921
21
-100.725
0
LINE
8
BLACK
6
CONTINUOUS
10
55.5994
20
-100.725
11
25.2799
21
-89.6384
0
LINE
8
BLACK
6
CONTINUOUS
10
180.669
20
-112.079
11
182.362
21
-111.463
0
LINE
8
BLACK
6
CONTINUOUS
10
196.331
20
-102.448
11
198.024
21
-101.832
0
LINE
8
BLACK
6
CONTINUOUS
10
65.3126
20
-82.2027
11
67.0053
21
-82.8198
0
LINE
8
BLACK
6
CONTINUOUS
10
61.8066
20
-89.2847
11
59.5126
21
-98.2027
0
ARC
8
BLACK
10
153.321
20
-66.2705
40
0.272753
50
-114.718
51
-37.8223
0
ARC
8
BLACK
10
161.064
20
-151.458
40
2.88696
50
-113.774
51
-42.2736
0
LINE
8
BLACK
6
CONTINUOUS
10
120.937
20
-92.5646
11
124.22
21
-83.5421
0
LINE
8
BLACK
6
CONTINUOUS
10
121.548
20
-83.0307
11
119.245
21
-91.9475
0
LINE
8
BLACK
6
CONTINUOUS
10
131.387
20
-108.627
11
129.097
21
-117.557
0
LINE
8
BLACK
6
CONTINUOUS
10
142.44
20
-86.1408
11
145.722
21
-77.1183
0
LINE
8
BLACK
6
CONTINUOUS
10
42.5126
20
-92.1027
11
44.2053
21
-92.7198
0
LINE
8
BLACK
6
CONTINUOUS
10
129.419
20
-53.0958
11
141.519
21
-63.2958
0
LINE
8
BLACK
6
CONTINUOUS
10
198.024
20
-101.832
11
194.739
21
-92.8111
0
LINE
8
BLACK
6
CONTINUOUS
10
195.077
20
-49.0334
11
199.103
21
-57.2618
0
ARC
8
BLACK
10
156.301
20
-62.7823
40
0.239735
50
-39.0328
51
33.9005
0
LINE
8
BLACK
6
CONTINUOUS
10
110.658
20
-62.7448
11
112.351
21
-63.3619
0
ARC
8
BLACK
10
147.26
20
-124.2
40
0.8
50
-180
51
-0
0
LINE
8
BLACK
6
CONTINUOUS
10
105.92
20
-40.6
11
104.815
21
-40.2679
0
LINE
8
BLACK
6
CONTINUOUS
10
104.815
20
-40.2679
11
103.644
21
-40.0001
0
LINE
8
BLACK
6
CONTINUOUS
10
103.644
20
-40.0001
11
102.411
21
-39.7923
0
LINE
8
BLACK
6
CONTINUOUS
10
102.411
20
-39.7923
11
101.121
21
-39.6402
0
LINE
8
BLACK
6
CONTINUOUS
10
101.121
20
-39.6402
11
99.7767
21
-39.5395
0
LINE
8
BLACK
6
CONTINUOUS
10
99.7767
20
-39.5395
11
98.3836
21
-39.486
0
LINE
8
BLACK
6
CONTINUOUS
10
98.3836
20
-39.486
11
96.9453
21
-39.4753
0
LINE
8
BLACK
6
CONTINUOUS
10
96.9453
20
-39.4753
11
95.4663
21
-39.5031
0
LINE
8
BLACK
6
CONTINUOUS
10
95.4663
20
-39.5031
11
93.9505
21
-39.5653
0
LINE
8
BLACK
6
CONTINUOUS
10
93.9505
20
-39.5653
11
92.4022
21
-39.6574
0
LINE
8
BLACK
6
CONTINUOUS
10
92.4022
20
-39.6574
11
90.8257
21
-39.7752
0
LINE
8
BLACK
6
CONTINUOUS
10
90.8257
20
-39.7752
11
89.225
21
-39.9145
0
LINE
8
BLACK
6
CONTINUOUS
10
89.225
20
-39.9145
11
87.6044
21
-40.0708
0
LINE
8
BLACK
6
CONTINUOUS
10
87.6044
20
-40.0708
11
85.9681
21
-40.2401
0
LINE
8
BLACK
6
CONTINUOUS
10
85.9681
20
-40.2401
11
84.3202
21
-40.4179
0
LINE
8
BLACK
6
CONTINUOUS
10
84.3202
20
-40.4179
11
82.665
21
-40.6
0
LINE
8
BLACK
6
CONTINUOUS
10
82.665
20
-40.6
11
81.0066
21
-40.7821
0
LINE
8
BLACK
6
CONTINUOUS
10
81.0066
20
-40.7821
11
79.3493
21
-40.9599
0
LINE
8
BLACK
6
CONTINUOUS
10
79.3493
20
-40.9599
11
77.6971
21
-41.1292
0
LINE
8
BLACK
6
CONTINUOUS
10
77.6971
20
-41.1292
11
76.0544
21
-41.2855
0
LINE
8
BLACK
6
CONTINUOUS
10
76.0544
20
-41.2855
11
74.4252
21
-41.4248
0
LINE
8
BLACK
6
CONTINUOUS
10
74.4252
20
-41.4248
11
72.8139
21
-41.5426
0
LINE
8
BLACK
6
CONTINUOUS
10
72.8139
20
-41.5426
11
71.2245
21
-41.6347
0
LINE
8
BLACK
6
CONTINUOUS
10
71.2245
20
-41.6347
11
69.6612
21
-41.6969
0
LINE
8
BLACK
6
CONTINUOUS
10
69.6612
20
-41.6969
11
68.1284
21
-41.7247
0
LINE
8
BLACK
6
CONTINUOUS
10
68.1284
20
-41.7247
11
66.63
21
-41.714
0
LINE
8
BLACK
6
CONTINUOUS
10
66.63
20
-41.714
11
65.1704
21
-41.6605
0
LINE
8
BLACK
6
CONTINUOUS
10
65.1704
20
-41.6605
11
63.7537
21
-41.5598
0
LINE
8
BLACK
6
CONTINUOUS
10
63.7537
20
-41.5598
11
62.3842
21
-41.4077
0
LINE
8
BLACK
6
CONTINUOUS
10
62.3842
20
-41.4077
11
61.0659
21
-41.1999
0
LINE
8
BLACK
6
CONTINUOUS
10
61.0659
20
-41.1999
11
59.8031
21
-40.9321
0
LINE
8
BLACK
6
CONTINUOUS
10
59.8031
20
-40.9321
11
58.6
21
-40.6
0
LINE
8
BLACK
6
CONTINUOUS
10
50.706
20
-67.1539
11
48.2253
21
-76.29
0
LINE
8
BLACK
6
CONTINUOUS
10
153.207
20
-66.5183
11
150.428
21
-65.3474
0
LINE
8
BLACK
6
CONTINUOUS
10
188.6
20
-40.6
11
178.4
21
-44.3
0
LINE
8
BLACK
6
CONTINUOUS
10
210.4
20
-91.9
11
212.569
21
-100.327
0
LINE
8
BLACK
6
CONTINUOUS
10
215.533
20
-45.2987
11
213.184
21
-46.1537
0
LINE
8
BLACK
6
CONTINUOUS
10
202.241
20
-50.8816
11
204.59
21
-50.0265
0
LINE
8
BLACK
6
CONTINUOUS
10
213.184
20
-46.1537
11
212.774
21
-45.0261
0
LINE
8
BLACK
6
CONTINUOUS
10
212.774
20
-45.0261
11
209.673
21
-46.1548
0
LINE
8
BLACK
6
CONTINUOUS
10
203.598
20
-47.3014
11
203.256
21
-46.3617
0
LINE
8
BLACK
6
CONTINUOUS
10
215.533
20
-45.2987
11
216.525
21
-48.0238
0
LINE
8
BLACK
6
CONTINUOUS
10
209.64
20
-50.7427
11
209.913
21
-51.4944
0
LINE
8
BLACK
6
CONTINUOUS
10
208.135
20
-45.4376
11
207.861
21
-44.6858
0
LINE
8
BLACK
6
CONTINUOUS
10
204.59
20
-50.0265
11
205.001
21
-51.1541
0
LINE
8
BLACK
6
CONTINUOUS
10
201.249
20
-48.1564
11
202.241
21
-50.8816
0
LINE
8
BLACK
6
CONTINUOUS
10
205.001
20
-51.1541
11
208.102
21
-50.0255
0
LINE
8
BLACK
6
CONTINUOUS
10
214.518
20
-49.8185
11
209.913
21
-51.4944
0
LINE
8
BLACK
6
CONTINUOUS
10
203.256
20
-46.3617
11
207.861
21
-44.6858
0
LINE
8
BLACK
6
CONTINUOUS
10
201.249
20
-48.1564
11
203.598
21
-47.3014
0
ARC
8
BLACK
10
209.262
20
-45.0271
40
1.2
50
-160
51
-70
0
ARC
8
BLACK
10
208.512
20
-51.1531
40
1.2
50
20
51
110
0
CIRCLE
8
BLACK
10
213.365
20
-51.6216
40
0.824622
0
CIRCLE
8
BLACK
10
210.215
20
-59.0469
40
1.10454
0
CIRCLE
8
BLACK
10
208.197
20
-53.5027
40
1.70294
0
CIRCLE
8
BLACK
10
203.028
20
-55.3838
40
0.824621
0
CIRCLE
8
BLACK
10
204.798
20
-58.7836
40
1.11803
0
LINE
8
BLACK
6
CONTINUOUS
10
112.452
20
-73.2285
11
114.801
21
-74.0836
0
LINE
8
BLACK
6
CONTINUOUS
10
121.548
20
-83.0307
11
116.944
21
-81.3548
0
LINE
8
BLACK
6
CONTINUOUS
10
117.217
20
-80.603
11
116.944
21
-81.3548
0
LINE
8
BLACK
6
CONTINUOUS
10
115.143
20
-73.1439
11
119.748
21
-74.8198
0
LINE
8
BLACK
6
CONTINUOUS
10
113.399
20
-77.9363
11
116.5
21
-79.065
0
LINE
8
BLACK
6
CONTINUOUS
10
119.474
20
-75.5715
11
119.748
21
-74.8198
0
LINE
8
BLACK
6
CONTINUOUS
10
122.882
20
-79.3659
11
123.293
21
-78.2382
0
LINE
8
BLACK
6
CONTINUOUS
10
125.231
20
-80.2209
11
124.239
21
-82.946
0
LINE
8
BLACK
6
CONTINUOUS
10
111.46
20
-75.9536
11
113.81
21
-76.8087
0
LINE
8
BLACK
6
CONTINUOUS
10
123.293
20
-78.2382
11
120.192
21
-77.1096
0
LINE
8
BLACK
6
CONTINUOUS
10
112.452
20
-73.2285
11
111.46
21
-75.9536
0
LINE
8
BLACK
6
CONTINUOUS
10
114.801
20
-74.0836
11
115.143
21
-73.1439
0
LINE
8
BLACK
6
CONTINUOUS
10
125.231
20
-80.2209
11
122.882
21
-79.3659
0
LINE
8
BLACK
6
CONTINUOUS
10
113.81
20
-76.8087
11
113.399
21
-77.9363
0
ARC
8
BLACK
10
120.602
20
-75.9819
40
1.2
50
-200
51
-110
0
ARC
8
BLACK
10
116.09
20
-80.1926
40
1.2
50
-20
51
70
0
CIRCLE
8
BLACK
10
119.506
20
-83.6708
40
0.824622
0
CIRCLE
8
BLACK
10
109.169
20
-79.9086
40
0.824621
0
CIRCLE
8
BLACK
10
112.32
20
-87.3339
40
1.10454
0
CIRCLE
8
BLACK
10
114.338
20
-81.7897
40
1.70294
0
CIRCLE
8
BLACK
10
108.34
20
-83.6505
40
1.11803
0
LINE
8
BLACK
6
CONTINUOUS
10
108.904
20
-65.1413
11
105.803
21
-64.0126
0
LINE
8
BLACK
6
CONTINUOUS
10
110.843
20
-67.1239
11
108.494
21
-66.2689
0
LINE
8
BLACK
6
CONTINUOUS
10
100.413
20
-60.9866
11
100.755
21
-60.0469
0
LINE
8
BLACK
6
CONTINUOUS
10
108.494
20
-66.2689
11
108.904
21
-65.1413
0
LINE
8
BLACK
6
CONTINUOUS
10
99.0107
20
-64.8393
11
102.112
21
-65.968
0
LINE
8
BLACK
6
CONTINUOUS
10
100.755
20
-60.0469
11
105.359
21
-61.7228
0
LINE
8
BLACK
6
CONTINUOUS
10
102.829
20
-67.506
11
102.555
21
-68.2578
0
LINE
8
BLACK
6
CONTINUOUS
10
107.16
20
-69.9337
11
102.555
21
-68.2578
0
LINE
8
BLACK
6
CONTINUOUS
10
105.086
20
-62.4745
11
105.359
21
-61.7228
0
LINE
8
BLACK
6
CONTINUOUS
10
99.4211
20
-63.7117
11
99.0107
21
-64.8393
0
LINE
8
BLACK
6
CONTINUOUS
10
98.0637
20
-60.1315
11
100.413
21
-60.9866
0
LINE
8
BLACK
6
CONTINUOUS
10
97.0719
20
-62.8566
11
99.4211
21
-63.7117
0
LINE
8
BLACK
6
CONTINUOUS
10
98.0637
20
-60.1315
11
97.0719
21
-62.8566
0
LINE
8
BLACK
6
CONTINUOUS
10
110.843
20
-67.1239
11
109.851
21
-69.849
0
ARC
8
BLACK
10
106.213
20
-62.885
40
1.2
50
-200
51
-110
0
ARC
8
BLACK
10
101.701
20
-67.0956
40
1.2
50
-20
51
70
0
CIRCLE
8
BLACK
10
93.9512
20
-70.5535
40
1.11803
0
CIRCLE
8
BLACK
10
99.9493
20
-68.6927
40
1.70294
0
CIRCLE
8
BLACK
10
97.9314
20
-74.2369
40
1.10454
0
CIRCLE
8
BLACK
10
94.781
20
-66.8116
40
0.824621
0
CIRCLE
8
BLACK
10
105.118
20
-70.5738
40
0.824622
0
LINE
8
BLACK
6
CONTINUOUS
10
49.7736
20
-42.232
11
50.1156
21
-41.2923
0
LINE
8
BLACK
6
CONTINUOUS
10
56.5204
20
-51.1791
11
51.9159
21
-49.5032
0
LINE
8
BLACK
6
CONTINUOUS
10
47.4244
20
-41.3769
11
49.7736
21
-42.232
0
LINE
8
BLACK
6
CONTINUOUS
10
60.2035
20
-48.3693
11
59.2116
21
-51.0944
0
LINE
8
BLACK
6
CONTINUOUS
10
57.8543
20
-47.5143
11
58.2647
21
-46.3866
0
LINE
8
BLACK
6
CONTINUOUS
10
54.4465
20
-43.7199
11
54.7201
21
-42.9682
0
LINE
8
BLACK
6
CONTINUOUS
10
60.2035
20
-48.3693
11
57.8543
21
-47.5143
0
LINE
8
BLACK
6
CONTINUOUS
10
50.1156
20
-41.2923
11
54.7201
21
-42.9682
0
LINE
8
BLACK
6
CONTINUOUS
10
52.1895
20
-48.7514
11
51.9159
21
-49.5032
0
LINE
8
BLACK
6
CONTINUOUS
10
58.2647
20
-46.3866
11
55.1637
21
-45.258
0
LINE
8
BLACK
6
CONTINUOUS
10
46.4325
20
-44.102
11
48.7817
21
-44.9571
0
LINE
8
BLACK
6
CONTINUOUS
10
48.3713
20
-46.0847
11
51.4723
21
-47.2134
0
LINE
8
BLACK
6
CONTINUOUS
10
48.7817
20
-44.9571
11
48.3713
21
-46.0847
0
LINE
8
BLACK
6
CONTINUOUS
10
47.4244
20
-41.3769
11
46.4325
21
-44.102
0
ARC
8
BLACK
10
51.0619
20
-48.341
40
1.2
50
-20
51
70
0
ARC
8
BLACK
10
55.5741
20
-44.1303
40
1.2
50
-200
51
-110
0
CIRCLE
8
BLACK
10
49.31
20
-49.9381
40
1.70294
0
CIRCLE
8
BLACK
10
47.2921
20
-55.4823
40
1.10454
0
CIRCLE
8
BLACK
10
43.3118
20
-51.7989
40
1.11803
0
CIRCLE
8
BLACK
10
54.4783
20
-51.8192
40
0.824622
0
CIRCLE
8
BLACK
10
44.1417
20
-48.057
40
0.824621
0
LINE
8
BLACK
6
CONTINUOUS
10
119.417
20
-96.1957
11
117.068
21
-95.3406
0
LINE
8
BLACK
6
CONTINUOUS
10
117.478
20
-94.213
11
114.377
21
-93.0844
0
LINE
8
BLACK
6
CONTINUOUS
10
119.417
20
-96.1957
11
118.425
21
-98.9208
0
LINE
8
BLACK
6
CONTINUOUS
10
117.068
20
-95.3406
11
117.478
21
-94.213
0
LINE
8
BLACK
6
CONTINUOUS
10
109.329
20
-89.1186
11
113.934
21
-90.7945
0
LINE
8
BLACK
6
CONTINUOUS
10
115.734
20
-99.0054
11
111.129
21
-97.3296
0
LINE
8
BLACK
6
CONTINUOUS
10
107.995
20
-92.7834
11
107.585
21
-93.9111
0
LINE
8
BLACK
6
CONTINUOUS
10
106.638
20
-89.2033
11
108.987
21
-90.0583
0
LINE
8
BLACK
6
CONTINUOUS
10
113.66
20
-91.5463
11
113.934
21
-90.7945
0
LINE
8
BLACK
6
CONTINUOUS
10
107.585
20
-93.9111
11
110.686
21
-95.0397
0
LINE
8
BLACK
6
CONTINUOUS
10
108.987
20
-90.0583
11
109.329
21
-89.1186
0
LINE
8
BLACK
6
CONTINUOUS
10
111.403
20
-96.5778
11
111.129
21
-97.3296
0
LINE
8
BLACK
6
CONTINUOUS
10
105.646
20
-91.9284
11
107.995
21
-92.7834
0
LINE
8
BLACK
6
CONTINUOUS
10
106.638
20
-89.2033
11
105.646
21
-91.9284
0
ARC
8
BLACK
10
114.788
20
-91.9567
40
1.2
50
-200
51
-110
0
ARC
8
BLACK
10
110.275
20
-96.1674
40
1.2
50
-20
51
70
0
CIRCLE
8
BLACK
10
103.355
20
-95.8834
40
0.824621
0
CIRCLE
8
BLACK
10
102.525
20
-99.6252
40
1.11803
0
CIRCLE
8
BLACK
10
106.506
20
-103.309
40
1.10454
0
CIRCLE
8
BLACK
10
108.523
20
-97.7645
40
1.70294
0
CIRCLE
8
BLACK
10
113.692
20
-99.6456
40
0.824622
0
LINE
8
BLACK
6
CONTINUOUS
10
140.885
20
-89.8428
11
139.893
21
-92.5679
0
LINE
8
BLACK
6
CONTINUOUS
10
129.463
20
-86.4306
11
129.052
21
-87.5582
0
LINE
8
BLACK
6
CONTINUOUS
10
140.885
20
-89.8428
11
138.535
21
-88.9878
0
LINE
8
BLACK
6
CONTINUOUS
10
128.105
20
-82.8504
11
127.114
21
-85.5755
0
LINE
8
BLACK
6
CONTINUOUS
10
130.797
20
-82.7658
11
135.401
21
-84.4417
0
LINE
8
BLACK
6
CONTINUOUS
10
137.201
20
-92.6526
11
132.597
21
-90.9767
0
LINE
8
BLACK
6
CONTINUOUS
10
138.535
20
-88.9878
11
138.946
21
-87.8601
0
LINE
8
BLACK
6
CONTINUOUS
10
129.052
20
-87.5582
11
132.153
21
-88.6869
0
LINE
8
BLACK
6
CONTINUOUS
10
130.455
20
-83.7055
11
130.797
21
-82.7658
0
LINE
8
BLACK
6
CONTINUOUS
10
132.871
20
-90.2249
11
132.597
21
-90.9767
0
LINE
8
BLACK
6
CONTINUOUS
10
135.128
20
-85.1934
11
135.401
21
-84.4417
0
LINE
8
BLACK
6
CONTINUOUS
10
128.105
20
-82.8504
11
130.455
21
-83.7055
0
LINE
8
BLACK
6
CONTINUOUS
10
138.946
20
-87.8601
11
135.845
21
-86.7315
0
LINE
8
BLACK
6
CONTINUOUS
10
127.114
20
-85.5755
11
129.463
21
-86.4306
0
ARC
8
BLACK
10
136.255
20
-85.6038
40
1.2
50
-200
51
-110
0
ARC
8
BLACK
10
131.743
20
-89.8145
40
1.2
50
-20
51
70
0
CIRCLE
8
BLACK
10
124.823
20
-89.5305
40
0.824621
0
CIRCLE
8
BLACK
10
127.973
20
-96.9558
40
1.10454
0
CIRCLE
8
BLACK
10
129.991
20
-91.4116
40
1.70294
0
CIRCLE
8
BLACK
10
123.993
20
-93.2724
40
1.11803
0
CIRCLE
8
BLACK
10
135.159
20
-93.2927
40
0.824622
0
LINE
8
BLACK
6
CONTINUOUS
10
71.3614
20
-49.876
11
71.635
21
-49.1242
0
LINE
8
BLACK
6
CONTINUOUS
10
64.3393
20
-47.533
11
63.3474
21
-50.2581
0
LINE
8
BLACK
6
CONTINUOUS
10
73.4353
20
-57.3351
11
68.8308
21
-55.6592
0
LINE
8
BLACK
6
CONTINUOUS
10
69.1044
20
-54.9075
11
68.8308
21
-55.6592
0
LINE
8
BLACK
6
CONTINUOUS
10
66.6885
20
-48.388
11
67.0305
21
-47.4483
0
LINE
8
BLACK
6
CONTINUOUS
10
75.1796
20
-52.5427
11
72.0786
21
-51.414
0
LINE
8
BLACK
6
CONTINUOUS
10
65.6966
20
-51.1131
11
65.2862
21
-52.2408
0
LINE
8
BLACK
6
CONTINUOUS
10
64.3393
20
-47.533
11
66.6885
21
-48.388
0
LINE
8
BLACK
6
CONTINUOUS
10
63.3474
20
-50.2581
11
65.6966
21
-51.1131
0
LINE
8
BLACK
6
CONTINUOUS
10
77.1184
20
-54.5254
11
76.1265
21
-57.2505
0
LINE
8
BLACK
6
CONTINUOUS
10
67.0305
20
-47.4483
11
71.635
21
-49.1242
0
LINE
8
BLACK
6
CONTINUOUS
10
65.2862
20
-52.2408
11
68.3872
21
-53.3694
0
LINE
8
BLACK
6
CONTINUOUS
10
74.7692
20
-53.6703
11
75.1796
21
-52.5427
0
LINE
8
BLACK
6
CONTINUOUS
10
77.1184
20
-54.5254
11
74.7692
21
-53.6703
0
ARC
8
BLACK
10
67.9768
20
-54.4971
40
1.2
50
-20
51
70
0
ARC
8
BLACK
10
72.489
20
-50.2864
40
1.2
50
-200
51
-110
0
CIRCLE
8
BLACK
10
71.3932
20
-57.9753
40
0.824622
0
CIRCLE
8
BLACK
10
66.2249
20
-56.0942
40
1.70294
0
CIRCLE
8
BLACK
10
61.0565
20
-54.2131
40
0.824621
0
CIRCLE
8
BLACK
10
60.2267
20
-57.9549
40
1.11803
0
CIRCLE
8
BLACK
10
64.2069
20
-61.6384
40
1.10454
0
LINE
8
BLACK
6
CONTINUOUS
10
127.653
20
-125.296
11
124.949
21
-123.403
0
LINE
8
BLACK
6
CONTINUOUS
10
129.012
20
-127.713
11
126.964
21
-126.279
0
LINE
8
BLACK
6
CONTINUOUS
10
121.1
20
-118.266
11
125.114
21
-121.077
0
LINE
8
BLACK
6
CONTINUOUS
10
118.863
20
-121.461
11
118.175
21
-122.444
0
LINE
8
BLACK
6
CONTINUOUS
10
126.964
20
-126.279
11
127.653
21
-125.296
0
LINE
8
BLACK
6
CONTINUOUS
10
116.815
20
-120.027
11
118.863
21
-121.461
0
LINE
8
BLACK
6
CONTINUOUS
10
118.478
20
-117.651
11
120.526
21
-119.085
0
LINE
8
BLACK
6
CONTINUOUS
10
124.655
20
-121.732
11
125.114
21
-121.077
0
LINE
8
BLACK
6
CONTINUOUS
10
120.526
20
-119.085
11
121.1
21
-118.266
0
LINE
8
BLACK
6
CONTINUOUS
10
124.727
20
-129.474
11
120.714
21
-126.663
0
LINE
8
BLACK
6
CONTINUOUS
10
118.478
20
-117.651
11
116.815
21
-120.027
0
LINE
8
BLACK
6
CONTINUOUS
10
127.349
20
-130.088
11
125.301
21
-128.654
0
LINE
8
BLACK
6
CONTINUOUS
10
121.172
20
-126.008
11
120.714
21
-126.663
0
LINE
8
BLACK
6
CONTINUOUS
10
125.301
20
-128.654
11
124.727
21
-129.474
0
LINE
8
BLACK
6
CONTINUOUS
10
129.012
20
-127.713
11
127.349
21
-130.088
0
LINE
8
BLACK
6
CONTINUOUS
10
118.175
20
-122.444
11
120.878
21
-124.336
0
ARC
8
BLACK
10
125.638
20
-122.42
40
1.2
50
-215
51
-125
0
ARC
8
BLACK
10
120.189
20
-125.319
40
1.2
50
-35.0001
51
55.0001
0
CIRCLE
8
BLACK
10
114.7
20
-131.242
40
1.10454
0
CIRCLE
8
BLACK
10
111.809
20
-126.654
40
1.11803
0
CIRCLE
8
BLACK
10
118.084
20
-126.409
40
1.70294
0
CIRCLE
8
BLACK
10
113.579
20
-123.254
40
0.824621
0
CIRCLE
8
BLACK
10
122.589
20
-129.563
40
0.824621
0
LINE
8
BLACK
6
CONTINUOUS
10
146.699
20
-73.868
11
144.35
21
-73.013
0
LINE
8
BLACK
6
CONTINUOUS
10
146.699
20
-73.868
11
145.707
21
-76.5932
0
LINE
8
BLACK
6
CONTINUOUS
10
134.867
20
-71.5834
11
137.968
21
-72.7121
0
LINE
8
BLACK
6
CONTINUOUS
10
144.35
20
-73.013
11
144.76
21
-71.8854
0
LINE
8
BLACK
6
CONTINUOUS
10
136.269
20
-67.7307
11
136.611
21
-66.791
0
LINE
8
BLACK
6
CONTINUOUS
10
140.942
20
-69.2186
11
141.215
21
-68.4669
0
LINE
8
BLACK
6
CONTINUOUS
10
135.277
20
-70.4558
11
134.867
21
-71.5834
0
LINE
8
BLACK
6
CONTINUOUS
10
143.016
20
-76.6778
11
138.411
21
-75.0019
0
LINE
8
BLACK
6
CONTINUOUS
10
136.611
20
-66.791
11
141.215
21
-68.4669
0
LINE
8
BLACK
6
CONTINUOUS
10
144.76
20
-71.8854
11
141.659
21
-70.7567
0
LINE
8
BLACK
6
CONTINUOUS
10
132.928
20
-69.6007
11
135.277
21
-70.4558
0
LINE
8
BLACK
6
CONTINUOUS
10
133.92
20
-66.8756
11
136.269
21
-67.7307
0
LINE
8
BLACK
6
CONTINUOUS
10
138.685
20
-74.2501
11
138.411
21
-75.0019
0
LINE
8
BLACK
6
CONTINUOUS
10
133.92
20
-66.8756
11
132.928
21
-69.6007
0
ARC
8
BLACK
10
137.557
20
-73.8397
40
1.2
50
-20
51
70
0
ARC
8
BLACK
10
142.069
20
-69.6291
40
1.2
50
-200
51
-110
0
CIRCLE
8
BLACK
10
130.637
20
-73.5557
40
0.824621
0
CIRCLE
8
BLACK
10
140.974
20
-77.318
40
0.824622
0
CIRCLE
8
BLACK
10
133.787
20
-80.981
40
1.10454
0
CIRCLE
8
BLACK
10
129.807
20
-77.2976
40
1.11803
0
CIRCLE
8
BLACK
10
135.805
20
-75.4369
40
1.70294
0
LINE
8
BLACK
6
CONTINUOUS
10
224.813
20
-78.1033
11
224.402
21
-76.9757
0
LINE
8
BLACK
6
CONTINUOUS
10
215.227
20
-79.2509
11
214.885
21
-78.3113
0
LINE
8
BLACK
6
CONTINUOUS
10
216.629
20
-83.1037
11
219.73
21
-81.975
0
LINE
8
BLACK
6
CONTINUOUS
10
213.87
20
-82.8311
11
216.219
21
-81.9761
0
LINE
8
BLACK
6
CONTINUOUS
10
219.763
20
-77.3871
11
219.49
21
-76.6354
0
LINE
8
BLACK
6
CONTINUOUS
10
227.162
20
-77.2482
11
224.813
21
-78.1033
0
LINE
8
BLACK
6
CONTINUOUS
10
212.878
20
-80.106
11
213.87
21
-82.8311
0
LINE
8
BLACK
6
CONTINUOUS
10
221.268
20
-82.6922
11
221.542
21
-83.444
0
LINE
8
BLACK
6
CONTINUOUS
10
227.162
20
-77.2482
11
228.154
21
-79.9733
0
LINE
8
BLACK
6
CONTINUOUS
10
212.878
20
-80.106
11
215.227
21
-79.2509
0
LINE
8
BLACK
6
CONTINUOUS
10
216.219
20
-81.9761
11
216.629
21
-83.1037
0
LINE
8
BLACK
6
CONTINUOUS
10
226.147
20
-81.7681
11
221.542
21
-83.444
0
LINE
8
BLACK
6
CONTINUOUS
10
224.402
20
-76.9757
11
221.301
21
-78.1043
0
LINE
8
BLACK
6
CONTINUOUS
10
214.885
20
-78.3113
11
219.49
21
-76.6354
0
ARC
8
BLACK
10
220.141
20
-83.1027
40
1.2
50
20
51
110
0
ARC
8
BLACK
10
220.891
20
-76.9767
40
1.2
50
-160
51
-70
0
CIRCLE
8
BLACK
10
224.994
20
-83.5711
40
0.824622
0
CIRCLE
8
BLACK
10
221.843
20
-90.9964
40
1.10454
0
CIRCLE
8
BLACK
10
214.657
20
-87.3333
40
0.824621
0
CIRCLE
8
BLACK
10
219.825
20
-85.4522
40
1.70294
0
CIRCLE
8
BLACK
10
216.427
20
-90.7332
40
1.11803
0
LINE
8
BLACK
6
CONTINUOUS
10
55.0598
20
-80.3376
11
55.4018
21
-79.3979
0
LINE
8
BLACK
6
CONTINUOUS
10
53.6575
20
-84.1903
11
56.7585
21
-85.319
0
LINE
8
BLACK
6
CONTINUOUS
10
51.7187
20
-82.2076
11
54.0679
21
-83.0627
0
LINE
8
BLACK
6
CONTINUOUS
10
65.4897
20
-86.4749
11
63.1405
21
-85.6199
0
LINE
8
BLACK
6
CONTINUOUS
10
59.7327
20
-81.8255
11
60.0063
21
-81.0738
0
LINE
8
BLACK
6
CONTINUOUS
10
61.8066
20
-89.2847
11
57.2021
21
-87.6088
0
LINE
8
BLACK
6
CONTINUOUS
10
65.4897
20
-86.4749
11
64.4978
21
-89.2
0
LINE
8
BLACK
6
CONTINUOUS
10
63.5509
20
-84.4923
11
60.4499
21
-83.3636
0
LINE
8
BLACK
6
CONTINUOUS
10
52.7106
20
-79.4825
11
55.0598
21
-80.3376
0
LINE
8
BLACK
6
CONTINUOUS
10
54.0679
20
-83.0627
11
53.6575
21
-84.1903
0
LINE
8
BLACK
6
CONTINUOUS
10
55.4018
20
-79.3979
11
60.0063
21
-81.0738
0
LINE
8
BLACK
6
CONTINUOUS
10
52.7106
20
-79.4825
11
51.7187
21
-82.2076
0
LINE
8
BLACK
6
CONTINUOUS
10
63.1405
20
-85.6199
11
63.5509
21
-84.4923
0
LINE
8
BLACK
6
CONTINUOUS
10
57.4757
20
-86.857
11
57.2021
21
-87.6088
0
ARC
8
BLACK
10
56.3481
20
-86.4466
40
1.2
50
-20
51
70
0
ARC
8
BLACK
10
60.8603
20
-82.236
40
1.2
50
-200
51
-110
0
CIRCLE
8
BLACK
10
48.598
20
-89.9045
40
1.11803
0
CIRCLE
8
BLACK
10
49.4279
20
-86.1626
40
0.824621
0
CIRCLE
8
BLACK
10
52.5783
20
-93.5879
40
1.10454
0
CIRCLE
8
BLACK
10
54.5962
20
-88.0437
40
1.70294
0
CIRCLE
8
BLACK
10
59.7645
20
-89.9249
40
0.824622
0
LINE
8
BLACK
6
CONTINUOUS
10
210.405
20
-66.0013
11
210.815
21
-67.1289
0
LINE
8
BLACK
6
CONTINUOUS
10
213.949
20
-61.4123
11
213.675
21
-60.6606
0
LINE
8
BLACK
6
CONTINUOUS
10
210.815
20
-67.1289
11
213.916
21
-66.0002
0
LINE
8
BLACK
6
CONTINUOUS
10
209.071
20
-62.3365
11
213.675
21
-60.6606
0
LINE
8
BLACK
6
CONTINUOUS
10
218.998
20
-62.1285
11
218.588
21
-61.0009
0
LINE
8
BLACK
6
CONTINUOUS
10
207.064
20
-64.1312
11
208.055
21
-66.8563
0
LINE
8
BLACK
6
CONTINUOUS
10
221.348
20
-61.2735
11
222.339
21
-63.9986
0
LINE
8
BLACK
6
CONTINUOUS
10
208.055
20
-66.8563
11
210.405
21
-66.0013
0
LINE
8
BLACK
6
CONTINUOUS
10
218.588
20
-61.0009
11
215.487
21
-62.1295
0
LINE
8
BLACK
6
CONTINUOUS
10
221.348
20
-61.2735
11
218.998
21
-62.1285
0
LINE
8
BLACK
6
CONTINUOUS
10
220.332
20
-65.7933
11
215.728
21
-67.4692
0
LINE
8
BLACK
6
CONTINUOUS
10
209.413
20
-63.2762
11
209.071
21
-62.3365
0
LINE
8
BLACK
6
CONTINUOUS
10
207.064
20
-64.1312
11
209.413
21
-63.2762
0
LINE
8
BLACK
6
CONTINUOUS
10
215.454
20
-66.7175
11
215.728
21
-67.4692
0
ARC
8
BLACK
10
214.326
20
-67.1279
40
1.2
50
20
51
110
0
ARC
8
BLACK
10
215.077
20
-61.0019
40
1.2
50
-160
51
-70
0
CIRCLE
8
BLACK
10
208.843
20
-71.3586
40
0.824621
0
CIRCLE
8
BLACK
10
216.029
20
-75.0216
40
1.10454
0
CIRCLE
8
BLACK
10
214.011
20
-69.4775
40
1.70294
0
CIRCLE
8
BLACK
10
210.612
20
-74.7584
40
1.11803
0
CIRCLE
8
BLACK
10
219.179
20
-67.5963
40
0.824622
0
LINE
8
BLACK
6
CONTINUOUS
10
223.697
20
-49.8932
11
223.355
21
-48.9536
0
LINE
8
BLACK
6
CONTINUOUS
10
235.632
20
-47.8905
11
236.624
21
-50.6156
0
LINE
8
BLACK
6
CONTINUOUS
10
225.099
20
-53.746
11
228.2
21
-52.6173
0
LINE
8
BLACK
6
CONTINUOUS
10
222.34
20
-53.4734
11
224.689
21
-52.6184
0
LINE
8
BLACK
6
CONTINUOUS
10
229.738
20
-53.3345
11
230.012
21
-54.0863
0
LINE
8
BLACK
6
CONTINUOUS
10
234.523
20
-52.4446
11
230.012
21
-54.0863
0
LINE
8
BLACK
6
CONTINUOUS
10
221.348
20
-50.7483
11
223.697
21
-49.8932
0
LINE
8
BLACK
6
CONTINUOUS
10
232.872
20
-47.6179
11
229.771
21
-48.7466
0
LINE
8
BLACK
6
CONTINUOUS
10
224.689
20
-52.6184
11
225.099
21
-53.746
0
LINE
8
BLACK
6
CONTINUOUS
10
235.632
20
-47.8905
11
233.283
21
-48.7456
0
LINE
8
BLACK
6
CONTINUOUS
10
221.348
20
-50.7483
11
222.34
21
-53.4734
0
LINE
8
BLACK
6
CONTINUOUS
10
233.283
20
-48.7456
11
232.872
21
-47.6179
0
LINE
8
BLACK
6
CONTINUOUS
10
228.233
20
-48.0294
11
227.96
21
-47.2777
0
LINE
8
BLACK
6
CONTINUOUS
10
223.355
20
-48.9536
11
227.96
21
-47.2777
0
ARC
8
BLACK
10
228.611
20
-53.7449
40
1.2
50
20
51
110
0
ARC
8
BLACK
10
229.361
20
-47.619
40
1.2
50
-160
51
-70
0
CIRCLE
8
BLACK
10
223.127
20
-57.9756
40
0.824621
0
CIRCLE
8
BLACK
10
233.464
20
-54.2134
40
0.824622
0
CIRCLE
8
BLACK
10
224.897
20
-61.3755
40
1.11803
0
CIRCLE
8
BLACK
10
228.295
20
-56.0945
40
1.70294
0
CIRCLE
8
BLACK
10
230.313
20
-61.6387
40
1.10454
0
LINE
8
BLACK
6
CONTINUOUS
10
199.147
20
-60.2157
11
196.046
21
-61.3444
0
LINE
8
BLACK
6
CONTINUOUS
10
201.907
20
-60.4883
11
202.899
21
-63.2134
0
LINE
8
BLACK
6
CONTINUOUS
10
194.508
20
-60.6272
11
194.234
21
-59.8754
0
LINE
8
BLACK
6
CONTINUOUS
10
190.964
20
-65.2161
11
191.374
21
-66.3438
0
LINE
8
BLACK
6
CONTINUOUS
10
191.374
20
-66.3438
11
194.475
21
-65.2151
0
LINE
8
BLACK
6
CONTINUOUS
10
188.615
20
-66.0712
11
190.964
21
-65.2161
0
LINE
8
BLACK
6
CONTINUOUS
10
187.623
20
-63.3461
11
188.615
21
-66.0712
0
LINE
8
BLACK
6
CONTINUOUS
10
189.972
20
-62.491
11
189.63
21
-61.5513
0
LINE
8
BLACK
6
CONTINUOUS
10
199.558
20
-61.3434
11
199.147
21
-60.2157
0
LINE
8
BLACK
6
CONTINUOUS
10
200.891
20
-65.0082
11
196.287
21
-66.6841
0
LINE
8
BLACK
6
CONTINUOUS
10
189.63
20
-61.5513
11
194.234
21
-59.8754
0
LINE
8
BLACK
6
CONTINUOUS
10
196.013
20
-65.9323
11
196.287
21
-66.6841
0
LINE
8
BLACK
6
CONTINUOUS
10
201.907
20
-60.4883
11
199.558
21
-61.3434
0
LINE
8
BLACK
6
CONTINUOUS
10
187.623
20
-63.3461
11
189.972
21
-62.491
0
ARC
8
BLACK
10
194.886
20
-66.3427
40
1.2
50
20
51
110
0
ARC
8
BLACK
10
195.636
20
-60.2168
40
1.2
50
-160
51
-70
0
CIRCLE
8
BLACK
10
191.171
20
-73.9732
40
1.11803
0
CIRCLE
8
BLACK
10
196.588
20
-74.2365
40
1.10454
0
CIRCLE
8
BLACK
10
189.402
20
-70.5734
40
0.824621
0
CIRCLE
8
BLACK
10
194.57
20
-68.6923
40
1.70294
0
CIRCLE
8
BLACK
10
199.739
20
-66.8112
40
0.824622
0
LINE
8
BLACK
6
CONTINUOUS
10
206.706
20
-80.9829
11
202.101
21
-82.6588
0
LINE
8
BLACK
6
CONTINUOUS
10
207.721
20
-76.4631
11
205.372
21
-77.3181
0
LINE
8
BLACK
6
CONTINUOUS
10
193.437
20
-79.3208
11
194.429
21
-82.046
0
LINE
8
BLACK
6
CONTINUOUS
10
194.429
20
-82.046
11
196.778
21
-81.1909
0
LINE
8
BLACK
6
CONTINUOUS
10
197.189
20
-82.3185
11
200.29
21
-81.1899
0
LINE
8
BLACK
6
CONTINUOUS
10
195.444
20
-77.5261
11
200.049
21
-75.8502
0
LINE
8
BLACK
6
CONTINUOUS
10
204.961
20
-76.1905
11
201.86
21
-77.3192
0
LINE
8
BLACK
6
CONTINUOUS
10
193.437
20
-79.3208
11
195.786
21
-78.4658
0
LINE
8
BLACK
6
CONTINUOUS
10
205.372
20
-77.3181
11
204.961
21
-76.1905
0
LINE
8
BLACK
6
CONTINUOUS
10
195.786
20
-78.4658
11
195.444
21
-77.5261
0
LINE
8
BLACK
6
CONTINUOUS
10
207.721
20
-76.4631
11
208.713
21
-79.1882
0
LINE
8
BLACK
6
CONTINUOUS
10
201.828
20
-81.9071
11
202.101
21
-82.6588
0
LINE
8
BLACK
6
CONTINUOUS
10
196.778
20
-81.1909
11
197.189
21
-82.3185
0
LINE
8
BLACK
6
CONTINUOUS
10
200.322
20
-76.602
11
200.049
21
-75.8502
0
ARC
8
BLACK
10
201.45
20
-76.1915
40
1.2
50
-160
51
-70
0
ARC
8
BLACK
10
200.7
20
-82.3175
40
1.2
50
20
51
110
0
CIRCLE
8
BLACK
10
200.385
20
-84.6671
40
1.70294
0
CIRCLE
8
BLACK
10
196.986
20
-89.948
40
1.11803
0
CIRCLE
8
BLACK
10
202.403
20
-90.2113
40
1.10454
0
CIRCLE
8
BLACK
10
205.553
20
-82.786
40
0.824622
0
CIRCLE
8
BLACK
10
195.216
20
-86.5482
40
0.824621
0
LINE
8
BLACK
6
CONTINUOUS
10
136.274
20
-139.197
11
135.708
21
-139.763
0
LINE
8
BLACK
6
CONTINUOUS
10
141.931
20
-140.47
11
142.779
21
-139.621
0
LINE
8
BLACK
6
CONTINUOUS
10
133.94
20
-135.167
11
136.274
21
-137.5
0
LINE
8
BLACK
6
CONTINUOUS
10
135.072
20
-130.5
11
133.021
21
-132.55
0
LINE
8
BLACK
6
CONTINUOUS
10
133.021
20
-132.55
11
134.789
21
-134.318
0
LINE
8
BLACK
6
CONTINUOUS
10
139.88
20
-142.521
11
139.173
21
-143.228
0
LINE
8
BLACK
6
CONTINUOUS
10
143.699
20
-142.238
11
141.931
21
-140.47
0
LINE
8
BLACK
6
CONTINUOUS
10
141.648
20
-144.288
11
139.88
21
-142.521
0
LINE
8
BLACK
6
CONTINUOUS
10
139.173
20
-143.228
11
135.708
21
-139.763
0
LINE
8
BLACK
6
CONTINUOUS
10
143.699
20
-142.238
11
141.648
21
-144.288
0
LINE
8
BLACK
6
CONTINUOUS
10
134.789
20
-134.318
11
133.94
21
-135.167
0
ARC
8
BLACK
10
135.425
20
-138.349
40
1.2
50
-45
51
45
0
CIRCLE
8
BLACK
10
137.052
20
-142.945
40
0.824621
0
CIRCLE
8
BLACK
10
126.94
20
-138.207
40
1.11803
0
CIRCLE
8
BLACK
10
128.991
20
-143.228
40
1.10454
0
CIRCLE
8
BLACK
10
133.163
20
-139.056
40
1.70294
0
CIRCLE
8
BLACK
10
129.274
20
-135.167
40
0.824621
0
LINE
8
BLACK
6
CONTINUOUS
10
169.809
20
-120.791
11
173.823
21
-117.98
0
LINE
8
BLACK
6
CONTINUOUS
10
170.382
20
-121.61
11
169.809
21
-120.791
0
LINE
8
BLACK
6
CONTINUOUS
10
174.281
20
-118.636
11
173.823
21
-117.98
0
LINE
8
BLACK
6
CONTINUOUS
10
178.656
20
-117.037
11
175.953
21
-118.93
0
LINE
8
BLACK
6
CONTINUOUS
10
172.046
20
-123.985
11
172.734
21
-124.968
0
LINE
8
BLACK
6
CONTINUOUS
10
181.392
20
-116.587
11
183.056
21
-118.962
0
LINE
8
BLACK
6
CONTINUOUS
10
169.998
20
-125.419
11
172.046
21
-123.985
0
LINE
8
BLACK
6
CONTINUOUS
10
172.734
20
-124.968
11
175.437
21
-123.076
0
LINE
8
BLACK
6
CONTINUOUS
10
168.334
20
-123.044
11
170.382
21
-121.61
0
LINE
8
BLACK
6
CONTINUOUS
10
181.008
20
-120.396
11
181.581
21
-121.215
0
LINE
8
BLACK
6
CONTINUOUS
10
181.581
20
-121.215
11
177.567
21
-124.026
0
LINE
8
BLACK
6
CONTINUOUS
10
177.108
20
-123.37
11
177.567
21
-124.026
0
LINE
8
BLACK
6
CONTINUOUS
10
183.056
20
-118.962
11
181.008
21
-120.396
0
LINE
8
BLACK
6
CONTINUOUS
10
168.334
20
-123.044
11
169.998
21
-125.419
0
LINE
8
BLACK
6
CONTINUOUS
10
179.344
20
-118.02
11
178.656
21
-117.037
0
LINE
8
BLACK
6
CONTINUOUS
10
181.392
20
-116.587
11
179.344
21
-118.02
0
ARC
8
BLACK
10
175.264
20
-117.947
40
1.2
50
-145
51
-55
0
ARC
8
BLACK
10
176.126
20
-124.059
40
1.2
50
35
51
125
0
CIRCLE
8
BLACK
10
176.429
20
-126.41
40
1.70294
0
CIRCLE
8
BLACK
10
180.934
20
-123.255
40
0.824621
0
CIRCLE
8
BLACK
10
171.924
20
-129.564
40
0.824621
0
CIRCLE
8
BLACK
10
174.513
20
-132.39
40
1.11803
0
CIRCLE
8
BLACK
10
179.813
20
-131.243
40
1.10454
0
LINE
8
BLACK
6
CONTINUOUS
10
118.267
20
-57.2537
11
117.275
21
-59.9788
0
LINE
8
BLACK
6
CONTINUOUS
10
127.363
20
-67.0559
11
122.758
21
-65.38
0
LINE
8
BLACK
6
CONTINUOUS
10
119.213
20
-61.9615
11
122.314
21
-63.0902
0
LINE
8
BLACK
6
CONTINUOUS
10
129.107
20
-62.2635
11
126.006
21
-61.1348
0
LINE
8
BLACK
6
CONTINUOUS
10
131.046
20
-64.2462
11
130.054
21
-66.9713
0
LINE
8
BLACK
6
CONTINUOUS
10
119.624
20
-60.8339
11
119.213
21
-61.9615
0
LINE
8
BLACK
6
CONTINUOUS
10
120.958
20
-57.1691
11
125.562
21
-58.845
0
LINE
8
BLACK
6
CONTINUOUS
10
120.616
20
-58.1088
11
120.958
21
-57.1691
0
LINE
8
BLACK
6
CONTINUOUS
10
128.696
20
-63.3911
11
129.107
21
-62.2635
0
LINE
8
BLACK
6
CONTINUOUS
10
123.032
20
-64.6282
11
122.758
21
-65.38
0
LINE
8
BLACK
6
CONTINUOUS
10
131.046
20
-64.2462
11
128.696
21
-63.3911
0
LINE
8
BLACK
6
CONTINUOUS
10
118.267
20
-57.2537
11
120.616
21
-58.1088
0
LINE
8
BLACK
6
CONTINUOUS
10
117.275
20
-59.9788
11
119.624
21
-60.8339
0
LINE
8
BLACK
6
CONTINUOUS
10
125.289
20
-59.5967
11
125.562
21
-58.845
0
ARC
8
BLACK
10
121.904
20
-64.2178
40
1.2
50
-20
51
70
0
ARC
8
BLACK
10
126.416
20
-60.0072
40
1.2
50
-200
51
-110
0
CIRCLE
8
BLACK
10
114.984
20
-63.9338
40
0.824621
0
CIRCLE
8
BLACK
10
125.32
20
-67.6961
40
0.824622
0
CIRCLE
8
BLACK
10
120.152
20
-65.815
40
1.70294
0
CIRCLE
8
BLACK
10
114.154
20
-67.6757
40
1.11803
0
CIRCLE
8
BLACK
10
118.134
20
-71.3591
40
1.10454
0
LINE
8
BLACK
6
CONTINUOUS
10
263.158
20
-78.1973
11
258.553
21
-79.8732
0
LINE
8
BLACK
6
CONTINUOUS
10
261.824
20
-74.5325
11
261.413
21
-73.4049
0
LINE
8
BLACK
6
CONTINUOUS
10
249.889
20
-76.5352
11
250.881
21
-79.2603
0
LINE
8
BLACK
6
CONTINUOUS
10
253.23
20
-78.4053
11
253.641
21
-79.5329
0
LINE
8
BLACK
6
CONTINUOUS
10
249.889
20
-76.5352
11
252.238
21
-75.6802
0
LINE
8
BLACK
6
CONTINUOUS
10
251.896
20
-74.7405
11
256.501
21
-73.0646
0
LINE
8
BLACK
6
CONTINUOUS
10
256.774
20
-73.8163
11
256.501
21
-73.0646
0
LINE
8
BLACK
6
CONTINUOUS
10
264.173
20
-73.6774
11
261.824
21
-74.5325
0
LINE
8
BLACK
6
CONTINUOUS
10
258.28
20
-79.1214
11
258.553
21
-79.8732
0
LINE
8
BLACK
6
CONTINUOUS
10
265.165
20
-76.4026
11
262.816
21
-77.2576
0
LINE
8
BLACK
6
CONTINUOUS
10
264.173
20
-73.6774
11
265.165
21
-76.4026
0
LINE
8
BLACK
6
CONTINUOUS
10
252.238
20
-75.6802
11
251.896
21
-74.7405
0
LINE
8
BLACK
6
CONTINUOUS
10
262.816
20
-77.2576
11
263.158
21
-78.1973
0
LINE
8
BLACK
6
CONTINUOUS
10
261.413
20
-73.4049
11
258.312
21
-74.5335
0
LINE
8
BLACK
6
CONTINUOUS
10
253.641
20
-79.5329
11
256.742
21
-78.4042
0
LINE
8
BLACK
6
CONTINUOUS
10
250.881
20
-79.2603
11
253.23
21
-78.4053
0
ARC
8
BLACK
10
257.902
20
-73.4059
40
1.2
50
-160
51
-70
0
ARC
8
BLACK
10
257.152
20
-79.5319
40
1.2
50
20
51
110
0
CIRCLE
8
BLACK
10
251.668
20
-83.7626
40
0.824621
0
CIRCLE
8
BLACK
10
256.837
20
-81.8814
40
1.70294
0
CIRCLE
8
BLACK
10
262.005
20
-80.0003
40
0.824622
0
CIRCLE
8
BLACK
10
253.438
20
-87.1624
40
1.11803
0
CIRCLE
8
BLACK
10
258.854
20
-87.4256
40
1.10454
0
LINE
8
BLACK
6
CONTINUOUS
10
181.705
20
-57.6113
11
182.696
21
-60.3364
0
LINE
8
BLACK
6
CONTINUOUS
10
167.421
20
-60.4691
11
168.412
21
-63.1942
0
LINE
8
BLACK
6
CONTINUOUS
10
169.77
20
-59.614
11
169.428
21
-58.6743
0
LINE
8
BLACK
6
CONTINUOUS
10
175.811
20
-63.0553
11
176.085
21
-63.807
0
LINE
8
BLACK
6
CONTINUOUS
10
174.306
20
-57.7502
11
174.032
21
-56.9984
0
LINE
8
BLACK
6
CONTINUOUS
10
179.355
20
-58.4663
11
178.945
21
-57.3387
0
LINE
8
BLACK
6
CONTINUOUS
10
181.705
20
-57.6113
11
179.355
21
-58.4663
0
LINE
8
BLACK
6
CONTINUOUS
10
167.421
20
-60.4691
11
169.77
21
-59.614
0
LINE
8
BLACK
6
CONTINUOUS
10
170.762
20
-62.3391
11
171.172
21
-63.4667
0
LINE
8
BLACK
6
CONTINUOUS
10
178.945
20
-57.3387
11
175.844
21
-58.4674
0
LINE
8
BLACK
6
CONTINUOUS
10
169.428
20
-58.6743
11
174.032
21
-56.9984
0
LINE
8
BLACK
6
CONTINUOUS
10
171.172
20
-63.4667
11
174.273
21
-62.3381
0
LINE
8
BLACK
6
CONTINUOUS
10
168.412
20
-63.1942
11
170.762
21
-62.3391
0
LINE
8
BLACK
6
CONTINUOUS
10
180.689
20
-62.1311
11
176.085
21
-63.807
0
ARC
8
BLACK
10
175.434
20
-57.3397
40
1.2
50
-160
51
-70
0
ARC
8
BLACK
10
174.684
20
-63.4657
40
1.2
50
20
51
110
0
CIRCLE
8
BLACK
10
170.969
20
-71.0962
40
1.11803
0
CIRCLE
8
BLACK
10
176.386
20
-71.3595
40
1.10454
0
CIRCLE
8
BLACK
10
169.2
20
-67.6964
40
0.824621
0
CIRCLE
8
BLACK
10
174.368
20
-65.8153
40
1.70294
0
CIRCLE
8
BLACK
10
179.536
20
-63.9342
40
0.824622
0
LINE
8
BLACK
6
CONTINUOUS
10
185.935
20
-89.6997
11
185.661
21
-88.948
0
LINE
8
BLACK
6
CONTINUOUS
10
181.056
20
-90.6239
11
185.661
21
-88.948
0
LINE
8
BLACK
6
CONTINUOUS
10
190.574
20
-89.2883
11
187.473
21
-90.4169
0
LINE
8
BLACK
6
CONTINUOUS
10
180.041
20
-95.1437
11
182.39
21
-94.2887
0
LINE
8
BLACK
6
CONTINUOUS
10
182.801
20
-95.4163
11
185.902
21
-94.2876
0
LINE
8
BLACK
6
CONTINUOUS
10
182.39
20
-94.2887
11
182.801
21
-95.4163
0
LINE
8
BLACK
6
CONTINUOUS
10
193.333
20
-89.5608
11
190.984
21
-90.4159
0
LINE
8
BLACK
6
CONTINUOUS
10
192.318
20
-94.0807
11
187.713
21
-95.7566
0
LINE
8
BLACK
6
CONTINUOUS
10
190.984
20
-90.4159
11
190.574
21
-89.2883
0
LINE
8
BLACK
6
CONTINUOUS
10
179.049
20
-92.4186
11
180.041
21
-95.1437
0
LINE
8
BLACK
6
CONTINUOUS
10
181.399
20
-91.5636
11
181.056
21
-90.6239
0
LINE
8
BLACK
6
CONTINUOUS
10
187.44
20
-95.0048
11
187.713
21
-95.7566
0
LINE
8
BLACK
6
CONTINUOUS
10
193.333
20
-89.5608
11
194.325
21
-92.286
0
LINE
8
BLACK
6
CONTINUOUS
10
179.049
20
-92.4186
11
181.399
21
-91.5636
0
ARC
8
BLACK
10
187.062
20
-89.2893
40
1.2
50
-160
51
-70
0
ARC
8
BLACK
10
186.312
20
-95.4153
40
1.2
50
20
51
110
0
CIRCLE
8
BLACK
10
185.997
20
-97.7648
40
1.70294
0
CIRCLE
8
BLACK
10
180.828
20
-99.646
40
0.824621
0
CIRCLE
8
BLACK
10
191.165
20
-95.8837
40
0.824622
0
CIRCLE
8
BLACK
10
182.598
20
-103.046
40
1.11803
0
CIRCLE
8
BLACK
10
188.015
20
-103.309
40
1.10454
0
LINE
8
BLACK
6
CONTINUOUS
10
50.706
20
-67.1539
11
46.1016
21
-65.478
0
LINE
8
BLACK
6
CONTINUOUS
10
42.9674
20
-60.9318
11
42.557
21
-62.0595
0
LINE
8
BLACK
6
CONTINUOUS
10
54.3892
20
-64.3441
11
53.3973
21
-67.0692
0
LINE
8
BLACK
6
CONTINUOUS
10
41.61
20
-57.3517
11
43.9593
21
-58.2067
0
LINE
8
BLACK
6
CONTINUOUS
10
43.9593
20
-58.2067
11
44.3013
21
-57.267
0
LINE
8
BLACK
6
CONTINUOUS
10
42.557
20
-62.0595
11
45.658
21
-63.1881
0
LINE
8
BLACK
6
CONTINUOUS
10
44.3013
20
-57.267
11
48.9058
21
-58.9429
0
LINE
8
BLACK
6
CONTINUOUS
10
40.6182
20
-60.0768
11
42.9674
21
-60.9318
0
LINE
8
BLACK
6
CONTINUOUS
10
54.3892
20
-64.3441
11
52.0399
21
-63.4891
0
LINE
8
BLACK
6
CONTINUOUS
10
48.6322
20
-59.6947
11
48.9058
21
-58.9429
0
LINE
8
BLACK
6
CONTINUOUS
10
52.0399
20
-63.4891
11
52.4503
21
-62.3614
0
LINE
8
BLACK
6
CONTINUOUS
10
46.3752
20
-64.7262
11
46.1016
21
-65.478
0
LINE
8
BLACK
6
CONTINUOUS
10
41.61
20
-57.3517
11
40.6182
21
-60.0768
0
LINE
8
BLACK
6
CONTINUOUS
10
52.4503
20
-62.3614
11
49.3494
21
-61.2328
0
ARC
8
BLACK
10
45.2475
20
-64.3158
40
1.2
50
-20
51
70
0
ARC
8
BLACK
10
49.7598
20
-60.1051
40
1.2
50
-200
51
-110
0
CIRCLE
8
BLACK
10
38.3273
20
-64.0318
40
0.824621
0
CIRCLE
8
BLACK
10
41.4777
20
-71.4571
40
1.10454
0
CIRCLE
8
BLACK
10
43.4956
20
-65.9129
40
1.70294
0
CIRCLE
8
BLACK
10
48.6639
20
-67.794
40
0.824622
0
CIRCLE
8
BLACK
10
37.4975
20
-67.7736
40
1.11803
0
LINE
8
BLACK
6
CONTINUOUS
10
164.539
20
-128.52
11
166.589
21
-130.571
0
LINE
8
BLACK
6
CONTINUOUS
10
165.529
20
-133.046
11
162.064
21
-136.511
0
LINE
8
BLACK
6
CONTINUOUS
10
161.498
20
-135.945
11
162.064
21
-136.511
0
LINE
8
BLACK
6
CONTINUOUS
10
152.801
20
-137.147
11
154.851
21
-139.198
0
LINE
8
BLACK
6
CONTINUOUS
10
157.468
20
-138.278
11
159.801
21
-135.945
0
LINE
8
BLACK
6
CONTINUOUS
10
154.851
20
-139.198
11
156.619
21
-137.43
0
LINE
8
BLACK
6
CONTINUOUS
10
164.821
20
-132.339
11
165.529
21
-133.046
0
LINE
8
BLACK
6
CONTINUOUS
10
166.589
20
-130.571
11
164.821
21
-132.339
0
LINE
8
BLACK
6
CONTINUOUS
10
156.619
20
-137.43
11
157.468
21
-138.278
0
LINE
8
BLACK
6
CONTINUOUS
10
162.771
20
-130.288
11
161.922
21
-129.44
0
LINE
8
BLACK
6
CONTINUOUS
10
164.539
20
-128.52
11
162.771
21
-130.288
0
ARC
8
BLACK
10
160.65
20
-136.794
40
1.2
50
45
51
135
0
CIRCLE
8
BLACK
10
165.246
20
-135.167
40
0.824621
0
CIRCLE
8
BLACK
10
165.529
20
-143.228
40
1.10454
0
CIRCLE
8
BLACK
10
161.357
20
-139.056
40
1.70294
0
CIRCLE
8
BLACK
10
157.468
20
-142.945
40
0.824621
0
CIRCLE
8
BLACK
10
160.508
20
-145.279
40
1.11803
0
LINE
8
BLACK
6
CONTINUOUS
10
105.029
20
-83.0987
11
102.679
21
-82.2437
0
LINE
8
BLACK
6
CONTINUOUS
10
94.5986
20
-76.9613
11
94.9406
21
-76.0217
0
LINE
8
BLACK
6
CONTINUOUS
10
92.2494
20
-76.1063
11
91.2575
21
-78.8314
0
LINE
8
BLACK
6
CONTINUOUS
10
94.9406
20
-76.0217
11
99.5451
21
-77.6975
0
LINE
8
BLACK
6
CONTINUOUS
10
91.2575
20
-78.8314
11
93.6068
21
-79.6865
0
LINE
8
BLACK
6
CONTINUOUS
10
92.2494
20
-76.1063
11
94.5986
21
-76.9613
0
LINE
8
BLACK
6
CONTINUOUS
10
99.2715
20
-78.4493
11
99.5451
21
-77.6975
0
LINE
8
BLACK
6
CONTINUOUS
10
97.0145
20
-83.4808
11
96.7409
21
-84.2326
0
LINE
8
BLACK
6
CONTINUOUS
10
105.029
20
-83.0987
11
104.037
21
-85.8238
0
LINE
8
BLACK
6
CONTINUOUS
10
93.6068
20
-79.6865
11
93.1963
21
-80.8141
0
LINE
8
BLACK
6
CONTINUOUS
10
93.1963
20
-80.8141
11
96.2973
21
-81.9427
0
LINE
8
BLACK
6
CONTINUOUS
10
103.09
20
-81.116
11
99.9887
21
-79.9874
0
LINE
8
BLACK
6
CONTINUOUS
10
101.345
20
-85.9085
11
96.7409
21
-84.2326
0
LINE
8
BLACK
6
CONTINUOUS
10
102.679
20
-82.2437
11
103.09
21
-81.116
0
ARC
8
BLACK
10
100.399
20
-78.8597
40
1.2
50
-200
51
-110
0
ARC
8
BLACK
10
95.8869
20
-83.0704
40
1.2
50
-20
51
70
0
CIRCLE
8
BLACK
10
94.135
20
-84.6675
40
1.70294
0
CIRCLE
8
BLACK
10
88.1369
20
-86.5282
40
1.11803
0
CIRCLE
8
BLACK
10
92.1171
20
-90.2117
40
1.10454
0
CIRCLE
8
BLACK
10
88.9667
20
-82.7864
40
0.824621
0
CIRCLE
8
BLACK
10
99.3033
20
-86.5486
40
0.824622
0
LINE
8
BLACK
6
CONTINUOUS
10
79.2208
20
-104.27
11
81.6357
21
-104.917
0
LINE
8
BLACK
6
CONTINUOUS
10
89.8871
20
-110.441
11
85.1541
21
-109.173
0
LINE
8
BLACK
6
CONTINUOUS
10
92.5608
20
-110.122
11
90.146
21
-109.475
0
LINE
8
BLACK
6
CONTINUOUS
10
93.3114
20
-107.321
11
90.8965
21
-106.674
0
LINE
8
BLACK
6
CONTINUOUS
10
93.3114
20
-107.321
11
92.5608
21
-110.122
0
LINE
8
BLACK
6
CONTINUOUS
10
90.8965
20
-106.674
11
91.2071
21
-105.515
0
LINE
8
BLACK
6
CONTINUOUS
10
81.6357
20
-104.917
11
81.3251
21
-106.077
0
LINE
8
BLACK
6
CONTINUOUS
10
79.9714
20
-101.469
11
79.2208
21
-104.27
0
LINE
8
BLACK
6
CONTINUOUS
10
79.9714
20
-101.469
11
82.3862
21
-102.116
0
LINE
8
BLACK
6
CONTINUOUS
10
81.3251
20
-106.077
11
84.5126
21
-106.931
0
LINE
8
BLACK
6
CONTINUOUS
10
90.146
20
-109.475
11
89.8871
21
-110.441
0
LINE
8
BLACK
6
CONTINUOUS
10
82.3862
20
-102.116
11
82.6451
21
-101.15
0
LINE
8
BLACK
6
CONTINUOUS
10
85.3612
20
-108.4
11
85.1541
21
-109.173
0
ARC
8
BLACK
10
84.202
20
-108.09
40
1.2
50
-15
51
75
0
CIRCLE
8
BLACK
10
76.7829
20
-112.21
40
1.11803
0
CIRCLE
8
BLACK
10
81.069
20
-115.532
40
1.10454
0
CIRCLE
8
BLACK
10
87.9086
20
-111.257
40
0.824621
0
CIRCLE
8
BLACK
10
77.2834
20
-108.41
40
0.824621
0
CIRCLE
8
BLACK
10
82.596
20
-109.834
40
1.70294
0
LINE
8
BLACK
6
CONTINUOUS
10
169.517
20
-84.063
11
169.106
21
-82.9354
0
LINE
8
BLACK
6
CONTINUOUS
10
159.931
20
-85.2107
11
159.589
21
-84.271
0
LINE
8
BLACK
6
CONTINUOUS
10
170.85
20
-87.7278
11
166.246
21
-89.4037
0
LINE
8
BLACK
6
CONTINUOUS
10
158.574
20
-88.7908
11
160.923
21
-87.9358
0
LINE
8
BLACK
6
CONTINUOUS
10
165.972
20
-88.652
11
166.246
21
-89.4037
0
LINE
8
BLACK
6
CONTINUOUS
10
164.467
20
-83.3468
11
164.193
21
-82.5951
0
LINE
8
BLACK
6
CONTINUOUS
10
157.582
20
-86.0657
11
159.931
21
-85.2107
0
LINE
8
BLACK
6
CONTINUOUS
10
160.923
20
-87.9358
11
161.333
21
-89.0634
0
LINE
8
BLACK
6
CONTINUOUS
10
157.582
20
-86.0657
11
158.574
21
-88.7908
0
LINE
8
BLACK
6
CONTINUOUS
10
169.106
20
-82.9354
11
166.005
21
-84.0641
0
LINE
8
BLACK
6
CONTINUOUS
10
159.589
20
-84.271
11
164.193
21
-82.5951
0
LINE
8
BLACK
6
CONTINUOUS
10
171.866
20
-83.208
11
172.858
21
-85.9331
0
LINE
8
BLACK
6
CONTINUOUS
10
161.333
20
-89.0634
11
164.434
21
-87.9348
0
LINE
8
BLACK
6
CONTINUOUS
10
171.866
20
-83.208
11
169.517
21
-84.063
0
ARC
8
BLACK
10
165.595
20
-82.9364
40
1.2
50
-160
51
-70
0
ARC
8
BLACK
10
164.845
20
-89.0624
40
1.2
50
20
51
110
0
CIRCLE
8
BLACK
10
169.698
20
-89.5309
40
0.824622
0
CIRCLE
8
BLACK
10
161.13
20
-96.6929
40
1.11803
0
CIRCLE
8
BLACK
10
164.529
20
-91.412
40
1.70294
0
CIRCLE
8
BLACK
10
166.547
20
-96.9561
40
1.10454
0
CIRCLE
8
BLACK
10
159.361
20
-93.2931
40
0.824621
0
LINE
8
BLACK
6
CONTINUOUS
10
152.15
20
-106.8
11
142.55
21
-106.8
0
LINE
8
BLACK
6
CONTINUOUS
10
142.55
20
-106.8
11
142.55
21
-105
0
LINE
8
BLACK
6
CONTINUOUS
10
142.55
20
-105
11
152.15
21
-105
0
LINE
8
BLACK
6
CONTINUOUS
10
152.15
20
-105
11
152.15
21
-106.8
0
LINE
8
BLACK
6
CONTINUOUS
10
72.8092
20
-76.8907
11
75.1585
21
-77.7457
0
LINE
8
BLACK
6
CONTINUOUS
10
83.6495
20
-81.9004
11
80.5486
21
-80.7717
0
LINE
8
BLACK
6
CONTINUOUS
10
85.5883
20
-83.8831
11
84.5965
21
-86.6082
0
LINE
8
BLACK
6
CONTINUOUS
10
75.1585
20
-77.7457
11
75.5005
21
-76.806
0
LINE
8
BLACK
6
CONTINUOUS
10
81.9052
20
-86.6928
11
77.3007
21
-85.0169
0
LINE
8
BLACK
6
CONTINUOUS
10
79.8314
20
-79.2337
11
80.105
21
-78.4819
0
LINE
8
BLACK
6
CONTINUOUS
10
72.8092
20
-76.8907
11
71.8174
21
-79.6158
0
LINE
8
BLACK
6
CONTINUOUS
10
83.2391
20
-83.028
11
83.6495
21
-81.9004
0
LINE
8
BLACK
6
CONTINUOUS
10
77.5744
20
-84.2652
11
77.3007
21
-85.0169
0
LINE
8
BLACK
6
CONTINUOUS
10
73.7562
20
-81.5985
11
76.8572
21
-82.7271
0
LINE
8
BLACK
6
CONTINUOUS
10
85.5883
20
-83.8831
11
83.2391
21
-83.028
0
LINE
8
BLACK
6
CONTINUOUS
10
75.5005
20
-76.806
11
80.105
21
-78.4819
0
LINE
8
BLACK
6
CONTINUOUS
10
74.1666
20
-80.4708
11
73.7562
21
-81.5985
0
LINE
8
BLACK
6
CONTINUOUS
10
71.8174
20
-79.6158
11
74.1666
21
-80.4708
0
ARC
8
BLACK
10
80.959
20
-79.6441
40
1.2
50
-200
51
-110
0
ARC
8
BLACK
10
76.4467
20
-83.8548
40
1.2
50
-20
51
70
0
CIRCLE
8
BLACK
10
68.6967
20
-87.3126
40
1.11803
0
CIRCLE
8
BLACK
10
74.6948
20
-85.4519
40
1.70294
0
CIRCLE
8
BLACK
10
79.8631
20
-87.333
40
0.824622
0
CIRCLE
8
BLACK
10
69.5265
20
-83.5708
40
0.824621
0
CIRCLE
8
BLACK
10
72.6769
20
-90.9961
40
1.10454
0
LINE
8
BLACK
6
CONTINUOUS
10
257.001
20
-61.2828
11
257.343
21
-62.2225
0
LINE
8
BLACK
6
CONTINUOUS
10
252.465
20
-63.1467
11
252.739
21
-63.8984
0
LINE
8
BLACK
6
CONTINUOUS
10
245.067
20
-63.2855
11
247.416
21
-62.4305
0
LINE
8
BLACK
6
CONTINUOUS
10
258.359
20
-57.7027
11
256.009
21
-58.5577
0
LINE
8
BLACK
6
CONTINUOUS
10
256.009
20
-58.5577
11
255.599
21
-57.4301
0
LINE
8
BLACK
6
CONTINUOUS
10
258.359
20
-57.7027
11
259.351
21
-60.4278
0
LINE
8
BLACK
6
CONTINUOUS
10
247.826
20
-63.5581
11
250.927
21
-62.4295
0
LINE
8
BLACK
6
CONTINUOUS
10
246.082
20
-58.7657
11
250.686
21
-57.0898
0
LINE
8
BLACK
6
CONTINUOUS
10
259.351
20
-60.4278
11
257.001
21
-61.2828
0
LINE
8
BLACK
6
CONTINUOUS
10
244.075
20
-60.5604
11
246.424
21
-59.7054
0
LINE
8
BLACK
6
CONTINUOUS
10
247.416
20
-62.4305
11
247.826
21
-63.5581
0
LINE
8
BLACK
6
CONTINUOUS
10
255.599
20
-57.4301
11
252.498
21
-58.5588
0
LINE
8
BLACK
6
CONTINUOUS
10
246.424
20
-59.7054
11
246.082
21
-58.7657
0
LINE
8
BLACK
6
CONTINUOUS
10
244.075
20
-60.5604
11
245.067
21
-63.2855
0
LINE
8
BLACK
6
CONTINUOUS
10
257.343
20
-62.2225
11
252.739
21
-63.8984
0
LINE
8
BLACK
6
CONTINUOUS
10
250.96
20
-57.8415
11
250.686
21
-57.0898
0
ARC
8
BLACK
10
251.338
20
-63.5571
40
1.2
50
20
51
110
0
ARC
8
BLACK
10
252.088
20
-57.4311
40
1.2
50
-160
51
-70
0
CIRCLE
8
BLACK
10
247.623
20
-71.1876
40
1.11803
0
CIRCLE
8
BLACK
10
251.022
20
-65.9067
40
1.70294
0
CIRCLE
8
BLACK
10
256.191
20
-64.0256
40
0.824622
0
CIRCLE
8
BLACK
10
253.04
20
-71.4509
40
1.10454
0
CIRCLE
8
BLACK
10
245.854
20
-67.7878
40
0.824621
0
LINE
8
BLACK
6
CONTINUOUS
10
160.158
20
-72.6772
11
160.432
21
-73.4289
0
LINE
8
BLACK
6
CONTINUOUS
10
163.702
20
-68.0882
11
163.292
21
-66.9606
0
LINE
8
BLACK
6
CONTINUOUS
10
153.775
20
-68.2962
11
158.379
21
-66.6203
0
LINE
8
BLACK
6
CONTINUOUS
10
165.036
20
-71.753
11
160.432
21
-73.4289
0
LINE
8
BLACK
6
CONTINUOUS
10
155.519
20
-73.0886
11
158.62
21
-71.96
0
LINE
8
BLACK
6
CONTINUOUS
10
158.653
20
-67.3721
11
158.379
21
-66.6203
0
LINE
8
BLACK
6
CONTINUOUS
10
163.292
20
-66.9606
11
160.191
21
-68.0893
0
LINE
8
BLACK
6
CONTINUOUS
10
151.767
20
-70.091
11
154.117
21
-69.2359
0
LINE
8
BLACK
6
CONTINUOUS
10
166.051
20
-67.2332
11
167.043
21
-69.9583
0
LINE
8
BLACK
6
CONTINUOUS
10
166.051
20
-67.2332
11
163.702
21
-68.0882
0
LINE
8
BLACK
6
CONTINUOUS
10
155.108
20
-71.961
11
155.519
21
-73.0886
0
LINE
8
BLACK
6
CONTINUOUS
10
154.117
20
-69.2359
11
153.775
21
-68.2962
0
LINE
8
BLACK
6
CONTINUOUS
10
151.767
20
-70.091
11
152.759
21
-72.8161
0
LINE
8
BLACK
6
CONTINUOUS
10
152.759
20
-72.8161
11
155.108
21
-71.961
0
ARC
8
BLACK
10
159.78
20
-66.9616
40
1.2
50
-160
51
-70
0
ARC
8
BLACK
10
159.03
20
-73.0876
40
1.2
50
20
51
110
0
CIRCLE
8
BLACK
10
158.715
20
-75.4372
40
1.70294
0
CIRCLE
8
BLACK
10
155.316
20
-80.7181
40
1.11803
0
CIRCLE
8
BLACK
10
153.547
20
-77.3183
40
0.824621
0
CIRCLE
8
BLACK
10
163.883
20
-73.5561
40
0.824622
0
CIRCLE
8
BLACK
10
160.733
20
-80.9814
40
1.10454
0
LINE
8
BLACK
6
CONTINUOUS
10
108.555
20
-117.524
11
108.132
21
-118.43
0
LINE
8
BLACK
6
CONTINUOUS
10
100.458
20
-112.645
11
103.449
21
-114.04
0
LINE
8
BLACK
6
CONTINUOUS
10
106.716
20
-110.819
11
107.054
21
-110.094
0
LINE
8
BLACK
6
CONTINUOUS
10
104.029
20
-115.634
11
103.691
21
-116.359
0
LINE
8
BLACK
6
CONTINUOUS
10
110.288
20
-113.808
11
107.297
21
-112.413
0
LINE
8
BLACK
6
CONTINUOUS
10
99.9251
20
-107.873
11
102.191
21
-108.929
0
LINE
8
BLACK
6
CONTINUOUS
10
102.613
20
-108.023
11
107.054
21
-110.094
0
LINE
8
BLACK
6
CONTINUOUS
10
98.6995
20
-110.501
11
100.965
21
-111.557
0
LINE
8
BLACK
6
CONTINUOUS
10
110.821
20
-118.58
11
108.555
21
-117.524
0
LINE
8
BLACK
6
CONTINUOUS
10
100.965
20
-111.557
11
100.458
21
-112.645
0
LINE
8
BLACK
6
CONTINUOUS
10
99.9251
20
-107.873
11
98.6995
21
-110.501
0
LINE
8
BLACK
6
CONTINUOUS
10
109.78
20
-114.896
11
110.288
21
-113.808
0
LINE
8
BLACK
6
CONTINUOUS
10
102.191
20
-108.929
11
102.613
21
-108.023
0
LINE
8
BLACK
6
CONTINUOUS
10
112.046
20
-115.952
11
110.821
21
-118.58
0
LINE
8
BLACK
6
CONTINUOUS
10
108.132
20
-118.43
11
103.691
21
-116.359
0
LINE
8
BLACK
6
CONTINUOUS
10
112.046
20
-115.952
11
109.78
21
-114.896
0
ARC
8
BLACK
10
102.942
20
-115.127
40
1.2
50
-25
51
65
0
ARC
8
BLACK
10
107.804
20
-111.326
40
1.2
50
-205
51
-115
0
CIRCLE
8
BLACK
10
94.9198
20
-117.896
40
1.11803
0
CIRCLE
8
BLACK
10
106.042
20
-118.89
40
0.824621
0
CIRCLE
8
BLACK
10
98.5639
20
-121.913
40
1.10454
0
CIRCLE
8
BLACK
10
101.057
20
-116.565
40
1.70294
0
CIRCLE
8
BLACK
10
96.0726
20
-114.241
40
0.824621
0
LINE
8
BLACK
6
CONTINUOUS
10
35.7957
20
-73.3265
11
38.1449
21
-74.1815
0
LINE
8
BLACK
6
CONTINUOUS
10
44.8917
20
-83.1286
11
40.2872
21
-81.4527
0
LINE
8
BLACK
6
CONTINUOUS
10
48.5748
20
-80.3189
11
46.2256
21
-79.4638
0
LINE
8
BLACK
6
CONTINUOUS
10
36.7426
20
-78.0343
11
39.8436
21
-79.1629
0
LINE
8
BLACK
6
CONTINUOUS
10
40.5608
20
-80.701
11
40.2872
21
-81.4527
0
LINE
8
BLACK
6
CONTINUOUS
10
46.636
20
-78.3362
11
43.535
21
-77.2075
0
LINE
8
BLACK
6
CONTINUOUS
10
34.8038
20
-76.0516
11
37.1531
21
-76.9066
0
LINE
8
BLACK
6
CONTINUOUS
10
46.2256
20
-79.4638
11
46.636
21
-78.3362
0
LINE
8
BLACK
6
CONTINUOUS
10
48.5748
20
-80.3189
11
47.583
21
-83.044
0
LINE
8
BLACK
6
CONTINUOUS
10
38.1449
20
-74.1815
11
38.4869
21
-73.2418
0
LINE
8
BLACK
6
CONTINUOUS
10
35.7957
20
-73.3265
11
34.8038
21
-76.0516
0
LINE
8
BLACK
6
CONTINUOUS
10
38.4869
20
-73.2418
11
43.0914
21
-74.9177
0
LINE
8
BLACK
6
CONTINUOUS
10
37.1531
20
-76.9066
11
36.7426
21
-78.0343
0
LINE
8
BLACK
6
CONTINUOUS
10
42.8178
20
-75.6695
11
43.0914
21
-74.9177
0
ARC
8
BLACK
10
43.9454
20
-76.0799
40
1.2
50
-200
51
-110
0
ARC
8
BLACK
10
39.4332
20
-80.2906
40
1.2
50
-20
51
70
0
CIRCLE
8
BLACK
10
42.8496
20
-83.7688
40
0.824622
0
CIRCLE
8
BLACK
10
31.6831
20
-83.7484
40
1.11803
0
CIRCLE
8
BLACK
10
32.513
20
-80.0066
40
0.824621
0
CIRCLE
8
BLACK
10
37.6813
20
-81.8877
40
1.70294
0
CIRCLE
8
BLACK
10
35.6634
20
-87.4319
40
1.10454
0
LINE
8
BLACK
6
CONTINUOUS
10
185.15
20
-49.2414
11
185.56
21
-50.369
0
LINE
8
BLACK
6
CONTINUOUS
10
184.158
20
-46.5162
11
183.816
21
-45.5765
0
LINE
8
BLACK
6
CONTINUOUS
10
181.808
20
-47.3713
11
182.8
21
-50.0964
0
LINE
8
BLACK
6
CONTINUOUS
10
196.092
20
-44.5135
11
193.743
21
-45.3686
0
LINE
8
BLACK
6
CONTINUOUS
10
185.56
20
-50.369
11
188.661
21
-49.2403
0
LINE
8
BLACK
6
CONTINUOUS
10
193.743
20
-45.3686
11
193.333
21
-44.2409
0
LINE
8
BLACK
6
CONTINUOUS
10
181.808
20
-47.3713
11
184.158
21
-46.5162
0
LINE
8
BLACK
6
CONTINUOUS
10
183.816
20
-45.5765
11
188.42
21
-43.9007
0
LINE
8
BLACK
6
CONTINUOUS
10
190.199
20
-49.9575
11
190.473
21
-50.7093
0
LINE
8
BLACK
6
CONTINUOUS
10
182.8
20
-50.0964
11
185.15
21
-49.2414
0
LINE
8
BLACK
6
CONTINUOUS
10
193.333
20
-44.2409
11
190.232
21
-45.3696
0
LINE
8
BLACK
6
CONTINUOUS
10
196.092
20
-44.5135
11
197.084
21
-47.2386
0
LINE
8
BLACK
6
CONTINUOUS
10
195.077
20
-49.0334
11
190.473
21
-50.7093
0
LINE
8
BLACK
6
CONTINUOUS
10
188.694
20
-44.6524
11
188.42
21
-43.9007
0
ARC
8
BLACK
10
189.821
20
-44.242
40
1.2
50
-160
51
-70
0
ARC
8
BLACK
10
189.071
20
-50.3679
40
1.2
50
20
51
110
0
CIRCLE
8
BLACK
10
190.774
20
-58.2617
40
1.10454
0
CIRCLE
8
BLACK
10
193.924
20
-50.8364
40
0.824622
0
CIRCLE
8
BLACK
10
188.756
20
-52.7175
40
1.70294
0
CIRCLE
8
BLACK
10
185.357
20
-57.9985
40
1.11803
0
CIRCLE
8
BLACK
10
183.588
20
-54.5986
40
0.824621
0
LINE
8
BLACK
6
CONTINUOUS
10
190.073
20
-114.505
11
193.064
21
-113.11
0
LINE
8
BLACK
6
CONTINUOUS
10
189.566
20
-113.417
11
190.073
21
-114.505
0
LINE
8
BLACK
6
CONTINUOUS
10
192.697
20
-108.537
11
192.359
21
-107.812
0
LINE
8
BLACK
6
CONTINUOUS
10
187.918
20
-109.883
11
192.359
21
-107.812
0
LINE
8
BLACK
6
CONTINUOUS
10
201.281
20
-110.382
11
199.015
21
-111.439
0
LINE
8
BLACK
6
CONTINUOUS
10
188.34
20
-110.789
11
187.918
21
-109.883
0
LINE
8
BLACK
6
CONTINUOUS
10
186.075
20
-111.846
11
187.3
21
-114.474
0
LINE
8
BLACK
6
CONTINUOUS
10
200.055
20
-107.754
11
201.281
21
-110.382
0
LINE
8
BLACK
6
CONTINUOUS
10
194.659
20
-113.691
11
194.997
21
-114.416
0
LINE
8
BLACK
6
CONTINUOUS
10
199.015
20
-111.439
11
199.438
21
-112.345
0
LINE
8
BLACK
6
CONTINUOUS
10
197.282
20
-107.723
11
194.291
21
-109.117
0
LINE
8
BLACK
6
CONTINUOUS
10
200.055
20
-107.754
11
197.789
21
-108.81
0
LINE
8
BLACK
6
CONTINUOUS
10
186.075
20
-111.846
11
188.34
21
-110.789
0
LINE
8
BLACK
6
CONTINUOUS
10
199.438
20
-112.345
11
194.997
21
-114.416
0
LINE
8
BLACK
6
CONTINUOUS
10
187.3
20
-114.474
11
189.566
21
-113.417
0
LINE
8
BLACK
6
CONTINUOUS
10
197.789
20
-108.81
11
197.282
21
-107.723
0
ARC
8
BLACK
10
193.784
20
-108.03
40
1.2
50
-155
51
-65
0
ARC
8
BLACK
10
193.571
20
-114.198
40
1.2
50
25
51
115
0
CIRCLE
8
BLACK
10
190.536
20
-122.123
40
1.11803
0
CIRCLE
8
BLACK
10
193.462
20
-116.566
40
1.70294
0
CIRCLE
8
BLACK
10
195.955
20
-121.913
40
1.10454
0
CIRCLE
8
BLACK
10
198.446
20
-114.242
40
0.824621
0
CIRCLE
8
BLACK
10
188.477
20
-118.89
40
0.824621
0
LINE
8
BLACK
6
CONTINUOUS
10
229.511
20
-65.868
11
229.169
21
-64.9283
0
LINE
8
BLACK
6
CONTINUOUS
10
227.162
20
-66.7231
11
229.511
21
-65.868
0
LINE
8
BLACK
6
CONTINUOUS
10
241.446
20
-63.8653
11
242.438
21
-66.5904
0
LINE
8
BLACK
6
CONTINUOUS
10
238.687
20
-63.5927
11
235.586
21
-64.7214
0
LINE
8
BLACK
6
CONTINUOUS
10
240.243
20
-68.4536
11
235.826
21
-70.0611
0
LINE
8
BLACK
6
CONTINUOUS
10
230.503
20
-68.5931
11
230.914
21
-69.7208
0
LINE
8
BLACK
6
CONTINUOUS
10
235.553
20
-69.3093
11
235.826
21
-70.0611
0
LINE
8
BLACK
6
CONTINUOUS
10
227.162
20
-66.7231
11
228.154
21
-69.4482
0
LINE
8
BLACK
6
CONTINUOUS
10
229.169
20
-64.9283
11
233.774
21
-63.2524
0
LINE
8
BLACK
6
CONTINUOUS
10
239.097
20
-64.7204
11
238.687
21
-63.5927
0
LINE
8
BLACK
6
CONTINUOUS
10
234.048
20
-64.0042
11
233.774
21
-63.2524
0
LINE
8
BLACK
6
CONTINUOUS
10
241.446
20
-63.8653
11
239.097
21
-64.7204
0
LINE
8
BLACK
6
CONTINUOUS
10
230.914
20
-69.7208
11
234.015
21
-68.5921
0
LINE
8
BLACK
6
CONTINUOUS
10
228.154
20
-69.4482
11
230.503
21
-68.5931
0
ARC
8
BLACK
10
234.425
20
-69.7197
40
1.2
50
20
51
110
0
ARC
8
BLACK
10
235.175
20
-63.5938
40
1.2
50
-160
51
-70
0
CIRCLE
8
BLACK
10
234.11
20
-72.0693
40
1.70294
0
CIRCLE
8
BLACK
10
230.711
20
-77.3502
40
1.11803
0
CIRCLE
8
BLACK
10
239.278
20
-70.1882
40
0.824622
0
CIRCLE
8
BLACK
10
228.941
20
-73.9504
40
0.824621
0
CIRCLE
8
BLACK
10
236.128
20
-77.6135
40
1.10454
0
LINE
8
BLACK
6
CONTINUOUS
10
164.388
20
-104.766
11
166.737
21
-103.911
0
LINE
8
BLACK
6
CONTINUOUS
10
177.68
20
-99.1827
11
178.672
21
-101.908
0
LINE
8
BLACK
6
CONTINUOUS
10
175.331
20
-100.038
11
174.92
21
-98.9102
0
LINE
8
BLACK
6
CONTINUOUS
10
170.281
20
-99.3216
11
170.008
21
-98.5699
0
LINE
8
BLACK
6
CONTINUOUS
10
171.787
20
-104.627
11
172.06
21
-105.378
0
LINE
8
BLACK
6
CONTINUOUS
10
176.665
20
-103.703
11
172.06
21
-105.378
0
LINE
8
BLACK
6
CONTINUOUS
10
174.92
20
-98.9102
11
171.819
21
-100.039
0
LINE
8
BLACK
6
CONTINUOUS
10
165.403
20
-100.246
11
170.008
21
-98.5699
0
LINE
8
BLACK
6
CONTINUOUS
10
163.396
20
-102.041
11
164.388
21
-104.766
0
LINE
8
BLACK
6
CONTINUOUS
10
167.148
20
-105.038
11
170.249
21
-103.91
0
LINE
8
BLACK
6
CONTINUOUS
10
163.396
20
-102.041
11
165.745
21
-101.185
0
LINE
8
BLACK
6
CONTINUOUS
10
165.745
20
-101.185
11
165.403
21
-100.246
0
LINE
8
BLACK
6
CONTINUOUS
10
166.737
20
-103.911
11
167.148
21
-105.038
0
LINE
8
BLACK
6
CONTINUOUS
10
177.68
20
-99.1827
11
175.331
21
-100.038
0
ARC
8
BLACK
10
170.659
20
-105.037
40
1.2
50
20
51
110
0
ARC
8
BLACK
10
171.409
20
-98.9112
40
1.2
50
-160
51
-70
0
CIRCLE
8
BLACK
10
175.512
20
-105.506
40
0.824622
0
CIRCLE
8
BLACK
10
165.175
20
-109.268
40
0.824621
0
CIRCLE
8
BLACK
10
166.945
20
-112.668
40
1.11803
0
CIRCLE
8
BLACK
10
170.344
20
-107.387
40
1.70294
0
CIRCLE
8
BLACK
10
172.362
20
-112.931
40
1.10454
0
LINE
8
BLACK
6
CONTINUOUS
10
238.26
20
-44.5857
11
240.61
21
-43.7306
0
LINE
8
BLACK
6
CONTINUOUS
10
246.651
20
-47.1719
11
246.925
21
-47.9236
0
LINE
8
BLACK
6
CONTINUOUS
10
241.601
20
-46.4557
11
242.012
21
-47.5834
0
LINE
8
BLACK
6
CONTINUOUS
10
239.252
20
-47.3108
11
241.601
21
-46.4557
0
LINE
8
BLACK
6
CONTINUOUS
10
250.195
20
-42.5829
11
249.785
21
-41.4553
0
LINE
8
BLACK
6
CONTINUOUS
10
251.529
20
-46.2477
11
246.925
21
-47.9236
0
LINE
8
BLACK
6
CONTINUOUS
10
242.012
20
-47.5834
11
245.113
21
-46.4547
0
LINE
8
BLACK
6
CONTINUOUS
10
249.785
20
-41.4553
11
246.684
21
-42.584
0
LINE
8
BLACK
6
CONTINUOUS
10
238.26
20
-44.5857
11
239.252
21
-47.3108
0
LINE
8
BLACK
6
CONTINUOUS
10
251.187
20
-45.3081
11
251.529
21
-46.2477
0
LINE
8
BLACK
6
CONTINUOUS
10
240.268
20
-42.7909
11
244.872
21
-41.115
0
LINE
8
BLACK
6
CONTINUOUS
10
240.61
20
-43.7306
11
240.268
21
-42.7909
0
LINE
8
BLACK
6
CONTINUOUS
10
245.146
20
-41.8668
11
244.872
21
-41.115
0
LINE
8
BLACK
6
CONTINUOUS
10
252.544
20
-41.7279
11
253.536
21
-44.453
0
LINE
8
BLACK
6
CONTINUOUS
10
253.536
20
-44.453
11
251.187
21
-45.3081
0
LINE
8
BLACK
6
CONTINUOUS
10
252.544
20
-41.7279
11
250.195
21
-42.5829
0
ARC
8
BLACK
10
245.523
20
-47.5823
40
1.2
50
20
51
110
0
ARC
8
BLACK
10
246.273
20
-41.4564
40
1.2
50
-160
51
-70
0
CIRCLE
8
BLACK
10
245.208
20
-49.9319
40
1.70294
0
CIRCLE
8
BLACK
10
241.809
20
-55.2128
40
1.11803
0
CIRCLE
8
BLACK
10
240.04
20
-51.813
40
0.824621
0
CIRCLE
8
BLACK
10
247.226
20
-55.4761
40
1.10454
0
CIRCLE
8
BLACK
10
250.376
20
-48.0508
40
0.824622
0
LINE
8
BLACK
6
CONTINUOUS
10
89.4639
20
-65.9256
11
86.3629
21
-64.797
0
LINE
8
BLACK
6
CONTINUOUS
10
89.0535
20
-67.0533
11
89.4639
21
-65.9256
0
LINE
8
BLACK
6
CONTINUOUS
10
80.9728
20
-61.7709
11
81.3148
21
-60.8313
0
LINE
8
BLACK
6
CONTINUOUS
10
87.7196
20
-70.7181
11
83.1151
21
-69.0422
0
LINE
8
BLACK
6
CONTINUOUS
10
91.4027
20
-67.9083
11
89.0535
21
-67.0533
0
LINE
8
BLACK
6
CONTINUOUS
10
77.6317
20
-63.641
11
79.9809
21
-64.4961
0
LINE
8
BLACK
6
CONTINUOUS
10
85.6457
20
-63.2589
11
85.9193
21
-62.5072
0
LINE
8
BLACK
6
CONTINUOUS
10
79.5705
20
-65.6237
11
82.6715
21
-66.7524
0
LINE
8
BLACK
6
CONTINUOUS
10
91.4027
20
-67.9083
11
90.4108
21
-70.6334
0
LINE
8
BLACK
6
CONTINUOUS
10
78.6236
20
-60.9159
11
77.6317
21
-63.641
0
LINE
8
BLACK
6
CONTINUOUS
10
79.9809
20
-64.4961
11
79.5705
21
-65.6237
0
LINE
8
BLACK
6
CONTINUOUS
10
81.3148
20
-60.8313
11
85.9193
21
-62.5072
0
LINE
8
BLACK
6
CONTINUOUS
10
78.6236
20
-60.9159
11
80.9728
21
-61.7709
0
LINE
8
BLACK
6
CONTINUOUS
10
83.3887
20
-68.2904
11
83.1151
21
-69.0422
0
ARC
8
BLACK
10
82.2611
20
-67.88
40
1.2
50
-20
51
70
0
ARC
8
BLACK
10
86.7733
20
-63.6693
40
1.2
50
-200
51
-110
0
CIRCLE
8
BLACK
10
85.6775
20
-71.3582
40
0.824622
0
CIRCLE
8
BLACK
10
74.511
20
-71.3379
40
1.11803
0
CIRCLE
8
BLACK
10
80.5092
20
-69.4771
40
1.70294
0
CIRCLE
8
BLACK
10
75.3409
20
-67.596
40
0.824621
0
CIRCLE
8
BLACK
10
78.4912
20
-75.0213
40
1.10454
0
LINE
8
BLACK
6
CONTINUOUS
10
236.728
20
-85.6955
11
239.829
21
-84.5669
0
LINE
8
BLACK
6
CONTINUOUS
10
244.911
20
-80.6951
11
244.501
21
-79.5675
0
LINE
8
BLACK
6
CONTINUOUS
10
247.261
20
-79.8401
11
244.911
21
-80.6951
0
LINE
8
BLACK
6
CONTINUOUS
10
232.977
20
-82.6978
11
233.968
21
-85.423
0
LINE
8
BLACK
6
CONTINUOUS
10
234.984
20
-80.9031
11
239.588
21
-79.2272
0
LINE
8
BLACK
6
CONTINUOUS
10
235.326
20
-81.8428
11
234.984
21
-80.9031
0
LINE
8
BLACK
6
CONTINUOUS
10
244.501
20
-79.5675
11
241.4
21
-80.6962
0
LINE
8
BLACK
6
CONTINUOUS
10
239.862
20
-79.979
11
239.588
21
-79.2272
0
LINE
8
BLACK
6
CONTINUOUS
10
232.977
20
-82.6978
11
235.326
21
-81.8428
0
LINE
8
BLACK
6
CONTINUOUS
10
233.968
20
-85.423
11
236.318
21
-84.5679
0
LINE
8
BLACK
6
CONTINUOUS
10
247.261
20
-79.8401
11
248.252
21
-82.5652
0
LINE
8
BLACK
6
CONTINUOUS
10
241.367
20
-85.2841
11
241.641
21
-86.0358
0
LINE
8
BLACK
6
CONTINUOUS
10
236.318
20
-84.5679
11
236.728
21
-85.6955
0
LINE
8
BLACK
6
CONTINUOUS
10
246.057
20
-84.4283
11
241.641
21
-86.0358
0
ARC
8
BLACK
10
240.239
20
-85.6945
40
1.2
50
20
51
110
0
ARC
8
BLACK
10
240.989
20
-79.5685
40
1.2
50
-160
51
-70
0
CIRCLE
8
BLACK
10
241.942
20
-93.5883
40
1.10454
0
CIRCLE
8
BLACK
10
239.924
20
-88.0441
40
1.70294
0
CIRCLE
8
BLACK
10
245.092
20
-86.163
40
0.824622
0
CIRCLE
8
BLACK
10
236.525
20
-93.325
40
1.11803
0
CIRCLE
8
BLACK
10
234.756
20
-89.9252
40
0.824621
0
LINE
8
BLACK
6
CONTINUOUS
10
71.304
20
-70.5002
11
70.3122
21
-73.2253
0
LINE
8
BLACK
6
CONTINUOUS
10
57.5331
20
-66.2329
11
59.8823
21
-67.0879
0
LINE
8
BLACK
6
CONTINUOUS
10
63.2901
20
-70.8823
11
63.0164
21
-71.634
0
LINE
8
BLACK
6
CONTINUOUS
10
61.2162
20
-63.4231
11
65.8207
21
-65.099
0
LINE
8
BLACK
6
CONTINUOUS
10
65.547
20
-65.8508
11
65.8207
21
-65.099
0
LINE
8
BLACK
6
CONTINUOUS
10
59.4719
20
-68.2155
11
62.5728
21
-69.3442
0
LINE
8
BLACK
6
CONTINUOUS
10
71.304
20
-70.5002
11
68.9548
21
-69.6451
0
LINE
8
BLACK
6
CONTINUOUS
10
58.5249
20
-63.5077
11
57.5331
21
-66.2329
0
LINE
8
BLACK
6
CONTINUOUS
10
60.8741
20
-64.3628
11
61.2162
21
-63.4231
0
LINE
8
BLACK
6
CONTINUOUS
10
67.6209
20
-73.3099
11
63.0164
21
-71.634
0
LINE
8
BLACK
6
CONTINUOUS
10
68.9548
20
-69.6451
11
69.3652
21
-68.5175
0
LINE
8
BLACK
6
CONTINUOUS
10
59.8823
20
-67.0879
11
59.4719
21
-68.2155
0
LINE
8
BLACK
6
CONTINUOUS
10
58.5249
20
-63.5077
11
60.8741
21
-64.3628
0
LINE
8
BLACK
6
CONTINUOUS
10
69.3652
20
-68.5175
11
66.2642
21
-67.3888
0
ARC
8
BLACK
10
62.1624
20
-70.4718
40
1.2
50
-20
51
70
0
ARC
8
BLACK
10
66.6747
20
-66.2612
40
1.2
50
-200
51
-110
0
CIRCLE
8
BLACK
10
58.3926
20
-77.6132
40
1.10454
0
CIRCLE
8
BLACK
10
54.4124
20
-73.9297
40
1.11803
0
CIRCLE
8
BLACK
10
60.4105
20
-72.069
40
1.70294
0
CIRCLE
8
BLACK
10
65.5788
20
-73.9501
40
0.824622
0
CIRCLE
8
BLACK
10
55.2422
20
-70.1879
40
0.824621
0
LINE
8
BLACK
6
CONTINUOUS
10
94.8678
20
-51.0785
11
95.2782
21
-49.9509
0
LINE
8
BLACK
6
CONTINUOUS
10
85.3849
20
-49.6489
11
88.4858
21
-50.7776
0
LINE
8
BLACK
6
CONTINUOUS
10
89.203
20
-52.3156
11
88.9294
21
-53.0674
0
LINE
8
BLACK
6
CONTINUOUS
10
95.2782
20
-49.9509
11
92.1772
21
-48.8222
0
LINE
8
BLACK
6
CONTINUOUS
10
83.446
20
-47.6662
11
85.7953
21
-48.5213
0
LINE
8
BLACK
6
CONTINUOUS
10
84.4379
20
-44.9411
11
86.7871
21
-45.7962
0
LINE
8
BLACK
6
CONTINUOUS
10
87.1292
20
-44.8565
11
91.7337
21
-46.5324
0
LINE
8
BLACK
6
CONTINUOUS
10
97.217
20
-51.9335
11
96.2252
21
-54.6586
0
LINE
8
BLACK
6
CONTINUOUS
10
91.46
20
-47.2841
11
91.7337
21
-46.5324
0
LINE
8
BLACK
6
CONTINUOUS
10
93.5339
20
-54.7433
11
88.9294
21
-53.0674
0
LINE
8
BLACK
6
CONTINUOUS
10
84.4379
20
-44.9411
11
83.446
21
-47.6662
0
LINE
8
BLACK
6
CONTINUOUS
10
97.217
20
-51.9335
11
94.8678
21
-51.0785
0
LINE
8
BLACK
6
CONTINUOUS
10
86.7871
20
-45.7962
11
87.1292
21
-44.8565
0
LINE
8
BLACK
6
CONTINUOUS
10
85.7953
20
-48.5213
11
85.3849
21
-49.6489
0
ARC
8
BLACK
10
92.5877
20
-47.6946
40
1.2
50
-200
51
-110
0
ARC
8
BLACK
10
88.0754
20
-51.9052
40
1.2
50
-20
51
70
0
CIRCLE
8
BLACK
10
86.3235
20
-53.5023
40
1.70294
0
CIRCLE
8
BLACK
10
91.4918
20
-55.3835
40
0.824622
0
CIRCLE
8
BLACK
10
81.1552
20
-51.6212
40
0.824621
0
CIRCLE
8
BLACK
10
84.3056
20
-59.0465
40
1.10454
0
CIRCLE
8
BLACK
10
80.3254
20
-55.3631
40
1.11803
0
LINE
8
BLACK
6
CONTINUOUS
10
218.544
20
-106.715
11
213.811
21
-107.983
0
LINE
8
BLACK
6
CONTINUOUS
10
219.95
20
-102.3
11
220.7
21
-105.102
0
LINE
8
BLACK
6
CONTINUOUS
10
220.7
20
-105.102
11
218.286
21
-105.749
0
LINE
8
BLACK
6
CONTINUOUS
10
206.222
20
-106.704
11
208.637
21
-106.056
0
LINE
8
BLACK
6
CONTINUOUS
10
217.224
20
-101.788
11
214.037
21
-102.642
0
LINE
8
BLACK
6
CONTINUOUS
10
212.567
20
-101.794
11
212.36
21
-101.021
0
LINE
8
BLACK
6
CONTINUOUS
10
217.535
20
-102.947
11
217.224
21
-101.788
0
LINE
8
BLACK
6
CONTINUOUS
10
218.286
20
-105.749
11
218.544
21
-106.715
0
LINE
8
BLACK
6
CONTINUOUS
10
205.471
20
-103.902
11
206.222
21
-106.704
0
LINE
8
BLACK
6
CONTINUOUS
10
219.95
20
-102.3
11
217.535
21
-102.947
0
LINE
8
BLACK
6
CONTINUOUS
10
208.637
20
-106.056
11
208.947
21
-107.216
0
LINE
8
BLACK
6
CONTINUOUS
10
213.604
20
-107.21
11
213.811
21
-107.983
0
LINE
8
BLACK
6
CONTINUOUS
10
208.947
20
-107.216
11
212.135
21
-106.361
0
ARC
8
BLACK
10
212.445
20
-107.521
40
1.2
50
15
51
105
0
ARC
8
BLACK
10
213.726
20
-101.483
40
1.2
50
-165
51
-75
0
CIRCLE
8
BLACK
10
208.08
20
-114.798
40
1.11803
0
CIRCLE
8
BLACK
10
211.926
20
-109.834
40
1.70294
0
CIRCLE
8
BLACK
10
217.239
20
-108.41
40
0.824621
0
CIRCLE
8
BLACK
10
213.453
20
-115.533
40
1.10454
0
CIRCLE
8
BLACK
10
206.614
20
-111.257
40
0.824621
0
LINE
8
BLACK
6
CONTINUOUS
10
175.242
20
-74.6491
11
179.847
21
-72.9732
0
LINE
8
BLACK
6
CONTINUOUS
10
181.625
20
-79.0301
11
181.899
21
-79.7818
0
LINE
8
BLACK
6
CONTINUOUS
10
176.576
20
-78.3139
11
176.986
21
-79.4415
0
LINE
8
BLACK
6
CONTINUOUS
10
186.504
20
-78.1059
11
181.899
21
-79.7818
0
LINE
8
BLACK
6
CONTINUOUS
10
176.986
20
-79.4415
11
180.087
21
-78.3129
0
LINE
8
BLACK
6
CONTINUOUS
10
180.12
20
-73.7249
11
179.847
21
-72.9732
0
LINE
8
BLACK
6
CONTINUOUS
10
187.519
20
-73.5861
11
188.511
21
-76.3112
0
LINE
8
BLACK
6
CONTINUOUS
10
184.759
20
-73.3135
11
181.658
21
-74.4422
0
LINE
8
BLACK
6
CONTINUOUS
10
175.584
20
-75.5888
11
175.242
21
-74.6491
0
LINE
8
BLACK
6
CONTINUOUS
10
185.17
20
-74.4411
11
184.759
21
-73.3135
0
LINE
8
BLACK
6
CONTINUOUS
10
173.235
20
-76.4438
11
174.227
21
-79.1689
0
LINE
8
BLACK
6
CONTINUOUS
10
187.519
20
-73.5861
11
185.17
21
-74.4411
0
LINE
8
BLACK
6
CONTINUOUS
10
173.235
20
-76.4438
11
175.584
21
-75.5888
0
LINE
8
BLACK
6
CONTINUOUS
10
174.227
20
-79.1689
11
176.576
21
-78.3139
0
ARC
8
BLACK
10
181.248
20
-73.3145
40
1.2
50
-160
51
-70
0
ARC
8
BLACK
10
180.498
20
-79.4405
40
1.2
50
20
51
110
0
CIRCLE
8
BLACK
10
176.784
20
-87.071
40
1.11803
0
CIRCLE
8
BLACK
10
180.182
20
-81.7901
40
1.70294
0
CIRCLE
8
BLACK
10
185.351
20
-79.909
40
0.824622
0
CIRCLE
8
BLACK
10
175.014
20
-83.6712
40
0.824621
0
CIRCLE
8
BLACK
10
182.2
20
-87.3343
40
1.10454
0
LINE
8
BLACK
6
CONTINUOUS
10
122.291
20
-98.8252
11
124.64
21
-99.6802
0
LINE
8
BLACK
6
CONTINUOUS
10
135.07
20
-105.818
11
132.721
21
-104.963
0
LINE
8
BLACK
6
CONTINUOUS
10
123.648
20
-102.405
11
123.238
21
-103.533
0
LINE
8
BLACK
6
CONTINUOUS
10
121.299
20
-101.55
11
123.648
21
-102.405
0
LINE
8
BLACK
6
CONTINUOUS
10
135.07
20
-105.818
11
134.078
21
-108.543
0
LINE
8
BLACK
6
CONTINUOUS
10
127.056
20
-106.2
11
126.783
21
-106.951
0
LINE
8
BLACK
6
CONTINUOUS
10
124.982
20
-98.7405
11
129.587
21
-100.416
0
LINE
8
BLACK
6
CONTINUOUS
10
123.238
20
-103.533
11
126.339
21
-104.662
0
LINE
8
BLACK
6
CONTINUOUS
10
122.291
20
-98.8252
11
121.299
21
-101.55
0
LINE
8
BLACK
6
CONTINUOUS
10
124.64
20
-99.6802
11
124.982
21
-98.7405
0
LINE
8
BLACK
6
CONTINUOUS
10
131.387
20
-108.627
11
126.783
21
-106.951
0
LINE
8
BLACK
6
CONTINUOUS
10
133.131
20
-103.835
11
130.03
21
-102.706
0
LINE
8
BLACK
6
CONTINUOUS
10
132.721
20
-104.963
11
133.131
21
-103.835
0
LINE
8
BLACK
6
CONTINUOUS
10
129.313
20
-101.168
11
129.587
21
-100.416
0
ARC
8
BLACK
10
125.929
20
-105.789
40
1.2
50
-20
51
70
0
ARC
8
BLACK
10
130.441
20
-101.579
40
1.2
50
-200
51
-110
0
CIRCLE
8
BLACK
10
122.159
20
-112.931
40
1.10454
0
CIRCLE
8
BLACK
10
124.177
20
-107.386
40
1.70294
0
CIRCLE
8
BLACK
10
118.179
20
-109.247
40
1.11803
0
CIRCLE
8
BLACK
10
119.008
20
-105.505
40
0.824621
0
CIRCLE
8
BLACK
10
129.345
20
-109.268
40
0.824622
0
LINE
8
BLACK
6
CONTINUOUS
10
112.974
20
-53.9589
11
108.37
21
-52.283
0
LINE
8
BLACK
6
CONTINUOUS
10
103.878
20
-44.1567
11
102.886
21
-46.8819
0
LINE
8
BLACK
6
CONTINUOUS
10
106.227
20
-45.0118
11
106.569
21
-44.0721
0
LINE
8
BLACK
6
CONTINUOUS
10
102.886
20
-46.8819
11
105.235
21
-47.7369
0
LINE
8
BLACK
6
CONTINUOUS
10
114.308
20
-50.2941
11
114.718
21
-49.1665
0
LINE
8
BLACK
6
CONTINUOUS
10
116.657
20
-51.1492
11
114.308
21
-50.2941
0
LINE
8
BLACK
6
CONTINUOUS
10
106.569
20
-44.0721
11
111.174
21
-45.748
0
LINE
8
BLACK
6
CONTINUOUS
10
110.9
20
-46.4998
11
111.174
21
-45.748
0
LINE
8
BLACK
6
CONTINUOUS
10
116.657
20
-51.1492
11
115.665
21
-53.8743
0
LINE
8
BLACK
6
CONTINUOUS
10
105.235
20
-47.7369
11
104.825
21
-48.8645
0
LINE
8
BLACK
6
CONTINUOUS
10
103.878
20
-44.1567
11
106.227
21
-45.0118
0
LINE
8
BLACK
6
CONTINUOUS
10
114.718
20
-49.1665
11
111.617
21
-48.0378
0
LINE
8
BLACK
6
CONTINUOUS
10
104.825
20
-48.8645
11
107.926
21
-49.9932
0
LINE
8
BLACK
6
CONTINUOUS
10
108.643
20
-51.5313
11
108.37
21
-52.283
0
ARC
8
BLACK
10
112.028
20
-46.9102
40
1.2
50
-200
51
-110
0
ARC
8
BLACK
10
107.516
20
-51.1208
40
1.2
50
-20
51
70
0
CIRCLE
8
BLACK
10
100.595
20
-50.8369
40
0.824621
0
CIRCLE
8
BLACK
10
99.7655
20
-54.5787
40
1.11803
0
CIRCLE
8
BLACK
10
105.764
20
-52.718
40
1.70294
0
CIRCLE
8
BLACK
10
110.932
20
-54.5991
40
0.824622
0
CIRCLE
8
BLACK
10
103.746
20
-58.2621
40
1.10454
  0
ENDSEC
  0
EOF
