%FSLAX45Y45*%
G04 Gerber Fmt 4.5, Leading zero omitted, Abs format (unit mm)*
G04 Created by KiCad (PCBNEW (5.1.9)-1) date 2021-07-05 21:58:59*
%MOMM*%
%LPD*%
G01*
G04 APERTURE LIST*
%TA.AperFunction,Profile*%
%ADD10C,0.100000*%
%TD*%
%ADD11C,0.200000*%
%ADD12C,0.300000*%
G04 APERTURE END LIST*
D10*
X10020000Y-5442500D02*
X10957500Y-5694000D01*
X18912500Y-5442500D02*
X18236000Y-5624000D01*
X23537500Y-5945000D02*
X25099500Y-5527000D01*
X20999500Y-5624000D02*
X21199555Y-5666006D01*
X21199555Y-5666006D02*
X21388300Y-5704729D01*
X21388300Y-5704729D02*
X21566085Y-5740292D01*
X21566085Y-5740292D02*
X21733264Y-5772816D01*
X21733264Y-5772816D02*
X21890188Y-5802424D01*
X21890188Y-5802424D02*
X22037209Y-5829238D01*
X22037209Y-5829238D02*
X22174680Y-5853379D01*
X22174680Y-5853379D02*
X22302953Y-5874969D01*
X22302953Y-5874969D02*
X22422380Y-5894130D01*
X22422380Y-5894130D02*
X22533312Y-5910985D01*
X22533312Y-5910985D02*
X22636103Y-5925655D01*
X22636103Y-5925655D02*
X22731103Y-5938262D01*
X22731103Y-5938262D02*
X22818666Y-5948928D01*
X22818666Y-5948928D02*
X22899144Y-5957775D01*
X22899144Y-5957775D02*
X22972888Y-5964925D01*
X22972888Y-5964925D02*
X23040250Y-5970500D01*
X23040250Y-5970500D02*
X23101583Y-5974622D01*
X23101583Y-5974622D02*
X23157239Y-5977412D01*
X23157239Y-5977412D02*
X23207570Y-5978994D01*
X23207570Y-5978994D02*
X23252928Y-5979488D01*
X23252928Y-5979488D02*
X23293665Y-5979017D01*
X23293665Y-5979017D02*
X23330133Y-5977703D01*
X23330133Y-5977703D02*
X23362685Y-5975667D01*
X23362685Y-5975667D02*
X23391672Y-5973031D01*
X23391672Y-5973031D02*
X23417447Y-5969918D01*
X23417447Y-5969918D02*
X23440361Y-5966450D01*
X23440361Y-5966450D02*
X23460767Y-5962747D01*
X23460767Y-5962747D02*
X23479017Y-5958933D01*
X23479017Y-5958933D02*
X23495464Y-5955130D01*
X23495464Y-5955130D02*
X23510458Y-5951458D01*
X23510458Y-5951458D02*
X23524353Y-5948041D01*
X23524353Y-5948041D02*
X23537500Y-5945000D01*
X18912500Y-5442500D02*
X18972749Y-5428868D01*
X18972749Y-5428868D02*
X19036474Y-5417792D01*
X19036474Y-5417792D02*
X19103359Y-5409140D01*
X19103359Y-5409140D02*
X19173088Y-5402782D01*
X19173088Y-5402782D02*
X19245346Y-5398587D01*
X19245346Y-5398587D02*
X19319818Y-5396422D01*
X19319818Y-5396422D02*
X19396188Y-5396158D01*
X19396188Y-5396158D02*
X19474141Y-5397664D01*
X19474141Y-5397664D02*
X19553360Y-5400808D01*
X19553360Y-5400808D02*
X19633531Y-5405460D01*
X19633531Y-5405460D02*
X19714339Y-5411487D01*
X19714339Y-5411487D02*
X19795467Y-5418761D01*
X19795467Y-5418761D02*
X19876600Y-5427148D01*
X19876600Y-5427148D02*
X19957423Y-5436519D01*
X19957423Y-5436519D02*
X20037619Y-5446743D01*
X20037619Y-5446743D02*
X20116875Y-5457688D01*
X20116875Y-5457688D02*
X20194874Y-5469223D01*
X20194874Y-5469223D02*
X20271300Y-5481217D01*
X20271300Y-5481217D02*
X20345839Y-5493540D01*
X20345839Y-5493540D02*
X20418174Y-5506060D01*
X20418174Y-5506060D02*
X20487990Y-5518646D01*
X20487990Y-5518646D02*
X20554972Y-5531167D01*
X20554972Y-5531167D02*
X20618805Y-5543493D01*
X20618805Y-5543493D02*
X20679172Y-5555492D01*
X20679172Y-5555492D02*
X20735758Y-5567033D01*
X20735758Y-5567033D02*
X20788248Y-5577986D01*
X20788248Y-5577986D02*
X20836327Y-5588219D01*
X20836327Y-5588219D02*
X20879678Y-5597600D01*
X20879678Y-5597600D02*
X20917986Y-5606001D01*
X20917986Y-5606001D02*
X20950936Y-5613288D01*
X20950936Y-5613288D02*
X20978213Y-5619331D01*
X20978213Y-5619331D02*
X20999500Y-5624000D01*
X7933000Y-5624000D02*
X7732923Y-5666006D01*
X7732923Y-5666006D02*
X7544118Y-5704729D01*
X7544118Y-5704729D02*
X7366236Y-5740292D01*
X7366236Y-5740292D02*
X7198929Y-5772816D01*
X7198929Y-5772816D02*
X7041849Y-5802424D01*
X7041849Y-5802424D02*
X6894648Y-5829238D01*
X6894648Y-5829238D02*
X6756978Y-5853379D01*
X6756978Y-5853379D02*
X6628492Y-5874969D01*
X6628492Y-5874969D02*
X6508841Y-5894130D01*
X6508841Y-5894130D02*
X6397677Y-5910985D01*
X6397677Y-5910985D02*
X6294652Y-5925655D01*
X6294652Y-5925655D02*
X6199419Y-5938262D01*
X6199419Y-5938262D02*
X6111629Y-5948928D01*
X6111629Y-5948928D02*
X6030934Y-5957775D01*
X6030934Y-5957775D02*
X5956986Y-5964925D01*
X5956986Y-5964925D02*
X5889437Y-5970500D01*
X5889437Y-5970500D02*
X5827940Y-5974622D01*
X5827940Y-5974622D02*
X5772146Y-5977412D01*
X5772146Y-5977412D02*
X5721708Y-5978994D01*
X5721708Y-5978994D02*
X5676276Y-5979488D01*
X5676276Y-5979488D02*
X5635504Y-5979017D01*
X5635504Y-5979017D02*
X5599043Y-5977703D01*
X5599043Y-5977703D02*
X5566546Y-5975667D01*
X5566546Y-5975667D02*
X5537664Y-5973031D01*
X5537664Y-5973031D02*
X5512049Y-5969918D01*
X5512049Y-5969918D02*
X5489354Y-5966450D01*
X5489354Y-5966450D02*
X5469230Y-5962747D01*
X5469230Y-5962747D02*
X5451329Y-5958933D01*
X5451329Y-5958933D02*
X5435304Y-5955130D01*
X5435304Y-5955130D02*
X5420806Y-5951458D01*
X5420806Y-5951458D02*
X5407487Y-5948041D01*
X5407487Y-5948041D02*
X5395000Y-5945000D01*
X5395000Y-5945000D02*
X3833000Y-5527000D01*
X10020000Y-5442500D02*
X9959751Y-5428868D01*
X9959751Y-5428868D02*
X9896026Y-5417792D01*
X9896026Y-5417792D02*
X9829141Y-5409140D01*
X9829141Y-5409140D02*
X9759412Y-5402782D01*
X9759412Y-5402782D02*
X9687154Y-5398587D01*
X9687154Y-5398587D02*
X9612682Y-5396422D01*
X9612682Y-5396422D02*
X9536312Y-5396158D01*
X9536312Y-5396158D02*
X9458359Y-5397664D01*
X9458359Y-5397664D02*
X9379140Y-5400808D01*
X9379140Y-5400808D02*
X9298969Y-5405460D01*
X9298969Y-5405460D02*
X9218161Y-5411487D01*
X9218161Y-5411487D02*
X9137033Y-5418761D01*
X9137033Y-5418761D02*
X9055900Y-5427148D01*
X9055900Y-5427148D02*
X8975077Y-5436519D01*
X8975077Y-5436519D02*
X8894881Y-5446743D01*
X8894881Y-5446743D02*
X8815625Y-5457688D01*
X8815625Y-5457688D02*
X8737626Y-5469223D01*
X8737626Y-5469223D02*
X8661200Y-5481217D01*
X8661200Y-5481217D02*
X8586661Y-5493540D01*
X8586661Y-5493540D02*
X8514326Y-5506060D01*
X8514326Y-5506060D02*
X8444510Y-5518646D01*
X8444510Y-5518646D02*
X8377527Y-5531167D01*
X8377527Y-5531167D02*
X8313695Y-5543493D01*
X8313695Y-5543493D02*
X8253328Y-5555492D01*
X8253328Y-5555492D02*
X8196742Y-5567033D01*
X8196742Y-5567033D02*
X8144252Y-5577986D01*
X8144252Y-5577986D02*
X8096173Y-5588219D01*
X8096173Y-5588219D02*
X8052822Y-5597600D01*
X8052822Y-5597600D02*
X8014514Y-5606001D01*
X8014514Y-5606001D02*
X7981564Y-5613288D01*
X7981564Y-5613288D02*
X7954287Y-5619331D01*
X7954287Y-5619331D02*
X7933000Y-5624000D01*
X6678000Y-13091000D02*
X6681750Y-13105824D01*
X6681750Y-13105824D02*
X6686249Y-13118889D01*
X6686249Y-13118889D02*
X6691497Y-13130333D01*
X6691497Y-13130333D02*
X6697492Y-13140297D01*
X6697492Y-13140297D02*
X6704235Y-13148919D01*
X6704235Y-13148919D02*
X6711724Y-13156338D01*
X6711724Y-13156338D02*
X6719958Y-13162694D01*
X6719958Y-13162694D02*
X6728937Y-13168125D01*
X6728937Y-13168125D02*
X6738661Y-13172771D01*
X6738661Y-13172771D02*
X6749128Y-13176771D01*
X6749128Y-13176771D02*
X6760337Y-13180265D01*
X6760337Y-13180265D02*
X6772289Y-13183391D01*
X6772289Y-13183391D02*
X6784982Y-13186288D01*
X6784982Y-13186288D02*
X6798415Y-13189096D01*
X6798415Y-13189096D02*
X6812588Y-13191953D01*
X6812588Y-13191953D02*
X6827500Y-13195000D01*
X3660000Y-5610000D02*
X2278000Y-10755000D01*
X3833000Y-5527000D02*
X3822740Y-5524658D01*
X3822740Y-5524658D02*
X3811580Y-5522938D01*
X3811580Y-5522938D02*
X3799696Y-5521920D01*
X3799696Y-5521920D02*
X3787266Y-5521688D01*
X3787266Y-5521688D02*
X3774466Y-5522322D01*
X3774466Y-5522322D02*
X3761475Y-5523906D01*
X3761475Y-5523906D02*
X3748468Y-5526521D01*
X3748468Y-5526521D02*
X3735625Y-5530250D01*
X3735625Y-5530250D02*
X3723121Y-5535174D01*
X3723121Y-5535174D02*
X3711135Y-5541375D01*
X3711135Y-5541375D02*
X3699842Y-5548936D01*
X3699842Y-5548936D02*
X3689422Y-5557938D01*
X3689422Y-5557938D02*
X3680050Y-5568463D01*
X3680050Y-5568463D02*
X3671904Y-5580594D01*
X3671904Y-5580594D02*
X3665162Y-5594412D01*
X3665162Y-5594412D02*
X3660000Y-5610000D01*
X2278000Y-10755000D02*
X2274653Y-10774156D01*
X2274653Y-10774156D02*
X2273486Y-10791906D01*
X2273486Y-10791906D02*
X2274315Y-10808297D01*
X2274315Y-10808297D02*
X2276953Y-10823375D01*
X2276953Y-10823375D02*
X2281214Y-10837188D01*
X2281214Y-10837188D02*
X2286912Y-10849781D01*
X2286912Y-10849781D02*
X2293861Y-10861203D01*
X2293861Y-10861203D02*
X2301875Y-10871500D01*
X2301875Y-10871500D02*
X2310768Y-10880719D01*
X2310768Y-10880719D02*
X2320354Y-10888906D01*
X2320354Y-10888906D02*
X2330446Y-10896109D01*
X2330446Y-10896109D02*
X2340859Y-10902375D01*
X2340859Y-10902375D02*
X2351407Y-10907750D01*
X2351407Y-10907750D02*
X2361904Y-10912281D01*
X2361904Y-10912281D02*
X2372164Y-10916016D01*
X2372164Y-10916016D02*
X2382000Y-10919000D01*
X26654000Y-10755000D02*
X26657347Y-10774156D01*
X26657347Y-10774156D02*
X26658514Y-10791906D01*
X26658514Y-10791906D02*
X26657685Y-10808297D01*
X26657685Y-10808297D02*
X26655047Y-10823375D01*
X26655047Y-10823375D02*
X26650786Y-10837188D01*
X26650786Y-10837188D02*
X26645088Y-10849781D01*
X26645088Y-10849781D02*
X26638139Y-10861203D01*
X26638139Y-10861203D02*
X26630125Y-10871500D01*
X26630125Y-10871500D02*
X26621232Y-10880719D01*
X26621232Y-10880719D02*
X26611646Y-10888906D01*
X26611646Y-10888906D02*
X26601554Y-10896109D01*
X26601554Y-10896109D02*
X26591141Y-10902375D01*
X26591141Y-10902375D02*
X26580592Y-10907750D01*
X26580592Y-10907750D02*
X26570096Y-10912281D01*
X26570096Y-10912281D02*
X26559836Y-10916016D01*
X26559836Y-10916016D02*
X26550000Y-10919000D01*
X25272000Y-5610000D02*
X26654000Y-10755000D01*
X25099000Y-5527000D02*
X25109259Y-5524658D01*
X25109259Y-5524658D02*
X25120420Y-5522938D01*
X25120420Y-5522938D02*
X25132304Y-5521920D01*
X25132304Y-5521920D02*
X25144734Y-5521688D01*
X25144734Y-5521688D02*
X25157534Y-5522322D01*
X25157534Y-5522322D02*
X25170525Y-5523906D01*
X25170525Y-5523906D02*
X25183531Y-5526521D01*
X25183531Y-5526521D02*
X25196375Y-5530250D01*
X25196375Y-5530250D02*
X25208879Y-5535174D01*
X25208879Y-5535174D02*
X25220865Y-5541375D01*
X25220865Y-5541375D02*
X25232157Y-5548936D01*
X25232157Y-5548936D02*
X25242578Y-5557938D01*
X25242578Y-5557938D02*
X25251950Y-5568463D01*
X25251950Y-5568463D02*
X25260096Y-5580594D01*
X25260096Y-5580594D02*
X25266838Y-5594412D01*
X25266838Y-5594412D02*
X25272000Y-5610000D01*
X13223000Y-16191000D02*
X13336306Y-16178467D01*
X13336306Y-16178467D02*
X13442718Y-16166742D01*
X13442718Y-16166742D02*
X13542696Y-16155826D01*
X13542696Y-16155826D02*
X13636699Y-16145719D01*
X13636699Y-16145719D02*
X13725187Y-16136420D01*
X13725187Y-16136420D02*
X13808620Y-16127930D01*
X13808620Y-16127930D02*
X13887456Y-16120248D01*
X13887456Y-16120248D02*
X13962156Y-16113375D01*
X13962156Y-16113375D02*
X14033180Y-16107310D01*
X14033180Y-16107310D02*
X14100986Y-16102055D01*
X14100986Y-16102055D02*
X14166034Y-16097607D01*
X14166034Y-16097607D02*
X14228785Y-16093969D01*
X14228785Y-16093969D02*
X14289697Y-16091139D01*
X14289697Y-16091139D02*
X14349231Y-16089117D01*
X14349231Y-16089117D02*
X14407845Y-16087904D01*
X14407845Y-16087904D02*
X14466000Y-16087500D01*
X14466000Y-16087500D02*
X14524155Y-16087904D01*
X14524155Y-16087904D02*
X14582769Y-16089117D01*
X14582769Y-16089117D02*
X14642302Y-16091139D01*
X14642302Y-16091139D02*
X14703215Y-16093969D01*
X14703215Y-16093969D02*
X14765965Y-16097607D01*
X14765965Y-16097607D02*
X14831014Y-16102055D01*
X14831014Y-16102055D02*
X14898820Y-16107310D01*
X14898820Y-16107310D02*
X14969844Y-16113375D01*
X14969844Y-16113375D02*
X15044544Y-16120248D01*
X15044544Y-16120248D02*
X15123380Y-16127930D01*
X15123380Y-16127930D02*
X15206813Y-16136420D01*
X15206813Y-16136420D02*
X15295301Y-16145719D01*
X15295301Y-16145719D02*
X15389304Y-16155826D01*
X15389304Y-16155826D02*
X15489282Y-16166742D01*
X15489282Y-16166742D02*
X15595694Y-16178467D01*
X15595694Y-16178467D02*
X15709000Y-16191000D01*
X15709000Y-16191000D02*
X15719326Y-16191298D01*
X15719326Y-16191298D02*
X15729595Y-16189482D01*
X15729595Y-16189482D02*
X15739959Y-16185704D01*
X15739959Y-16185704D02*
X15750572Y-16180119D01*
X15750572Y-16180119D02*
X15761587Y-16172879D01*
X15761587Y-16172879D02*
X15773158Y-16164138D01*
X15773158Y-16164138D02*
X15781256Y-16157553D01*
X15781256Y-16157553D02*
X15789714Y-16150413D01*
X15789714Y-16150413D02*
X15798578Y-16142766D01*
X15798578Y-16142766D02*
X15807893Y-16134655D01*
X15807893Y-16134655D02*
X15817705Y-16126127D01*
X15817705Y-16126127D02*
X15828059Y-16117227D01*
X15828059Y-16117227D02*
X15839000Y-16108000D01*
X6567000Y-12532000D02*
X6559496Y-12497127D01*
X6559496Y-12497127D02*
X6550882Y-12463196D01*
X6550882Y-12463196D02*
X6541189Y-12430203D01*
X6541189Y-12430203D02*
X6530449Y-12398146D01*
X6530449Y-12398146D02*
X6518694Y-12367024D01*
X6518694Y-12367024D02*
X6505955Y-12336832D01*
X6505955Y-12336832D02*
X6492266Y-12307570D01*
X6492266Y-12307570D02*
X6477656Y-12279234D01*
X6477656Y-12279234D02*
X6462159Y-12251823D01*
X6462159Y-12251823D02*
X6445806Y-12225334D01*
X6445806Y-12225334D02*
X6428629Y-12199764D01*
X6428629Y-12199764D02*
X6410660Y-12175111D01*
X6410660Y-12175111D02*
X6391931Y-12151373D01*
X6391931Y-12151373D02*
X6372473Y-12128548D01*
X6372473Y-12128548D02*
X6352319Y-12106633D01*
X6352319Y-12106633D02*
X6331500Y-12085625D01*
X6331500Y-12085625D02*
X6310048Y-12065522D01*
X6310048Y-12065522D02*
X6287996Y-12046323D01*
X6287996Y-12046323D02*
X6265374Y-12028024D01*
X6265374Y-12028024D02*
X6242215Y-12010623D01*
X6242215Y-12010623D02*
X6218550Y-11994118D01*
X6218550Y-11994118D02*
X6194412Y-11978506D01*
X6194412Y-11978506D02*
X6169833Y-11963785D01*
X6169833Y-11963785D02*
X6144844Y-11949953D01*
X6144844Y-11949953D02*
X6119476Y-11937007D01*
X6119476Y-11937007D02*
X6093763Y-11924945D01*
X6093763Y-11924945D02*
X6067736Y-11913764D01*
X6067736Y-11913764D02*
X6041426Y-11903463D01*
X6041426Y-11903463D02*
X6014865Y-11894038D01*
X6014865Y-11894038D02*
X5988086Y-11885487D01*
X5988086Y-11885487D02*
X5961121Y-11877809D01*
X5961121Y-11877809D02*
X5934000Y-11871000D01*
X6567000Y-12532000D02*
X6678000Y-13091000D01*
X22254000Y-13091000D02*
X22250250Y-13105824D01*
X22250250Y-13105824D02*
X22245751Y-13118889D01*
X22245751Y-13118889D02*
X22240503Y-13130333D01*
X22240503Y-13130333D02*
X22234508Y-13140297D01*
X22234508Y-13140297D02*
X22227765Y-13148919D01*
X22227765Y-13148919D02*
X22220276Y-13156338D01*
X22220276Y-13156338D02*
X22212042Y-13162694D01*
X22212042Y-13162694D02*
X22203063Y-13168125D01*
X22203063Y-13168125D02*
X22193339Y-13172771D01*
X22193339Y-13172771D02*
X22182872Y-13176771D01*
X22182872Y-13176771D02*
X22171662Y-13180265D01*
X22171662Y-13180265D02*
X22159711Y-13183391D01*
X22159711Y-13183391D02*
X22147018Y-13186288D01*
X22147018Y-13186288D02*
X22133585Y-13189096D01*
X22133585Y-13189096D02*
X22119412Y-13191953D01*
X22119412Y-13191953D02*
X22104500Y-13195000D01*
X22365000Y-12532000D02*
X22372503Y-12497127D01*
X22372503Y-12497127D02*
X22381118Y-12463196D01*
X22381118Y-12463196D02*
X22390811Y-12430203D01*
X22390811Y-12430203D02*
X22401551Y-12398146D01*
X22401551Y-12398146D02*
X22413306Y-12367024D01*
X22413306Y-12367024D02*
X22426044Y-12336832D01*
X22426044Y-12336832D02*
X22439734Y-12307570D01*
X22439734Y-12307570D02*
X22454344Y-12279234D01*
X22454344Y-12279234D02*
X22469841Y-12251823D01*
X22469841Y-12251823D02*
X22486194Y-12225334D01*
X22486194Y-12225334D02*
X22503371Y-12199764D01*
X22503371Y-12199764D02*
X22521340Y-12175111D01*
X22521340Y-12175111D02*
X22540069Y-12151373D01*
X22540069Y-12151373D02*
X22559527Y-12128548D01*
X22559527Y-12128548D02*
X22579681Y-12106633D01*
X22579681Y-12106633D02*
X22600500Y-12085625D01*
X22600500Y-12085625D02*
X22621952Y-12065522D01*
X22621952Y-12065522D02*
X22644004Y-12046323D01*
X22644004Y-12046323D02*
X22666626Y-12028024D01*
X22666626Y-12028024D02*
X22689785Y-12010623D01*
X22689785Y-12010623D02*
X22713449Y-11994118D01*
X22713449Y-11994118D02*
X22737587Y-11978506D01*
X22737587Y-11978506D02*
X22762167Y-11963785D01*
X22762167Y-11963785D02*
X22787156Y-11949953D01*
X22787156Y-11949953D02*
X22812523Y-11937007D01*
X22812523Y-11937007D02*
X22838237Y-11924945D01*
X22838237Y-11924945D02*
X22864264Y-11913764D01*
X22864264Y-11913764D02*
X22890574Y-11903463D01*
X22890574Y-11903463D02*
X22917134Y-11894038D01*
X22917134Y-11894038D02*
X22943913Y-11885487D01*
X22943913Y-11885487D02*
X22970879Y-11877809D01*
X22970879Y-11877809D02*
X22998000Y-11871000D01*
X22365000Y-12532000D02*
X22254000Y-13091000D01*
X13223000Y-16191000D02*
X13212674Y-16191298D01*
X13212674Y-16191298D02*
X13202405Y-16189482D01*
X13202405Y-16189482D02*
X13192041Y-16185704D01*
X13192041Y-16185704D02*
X13181428Y-16180119D01*
X13181428Y-16180119D02*
X13170412Y-16172879D01*
X13170412Y-16172879D02*
X13158842Y-16164138D01*
X13158842Y-16164138D02*
X13150744Y-16157553D01*
X13150744Y-16157553D02*
X13142286Y-16150413D01*
X13142286Y-16150413D02*
X13133422Y-16142766D01*
X13133422Y-16142766D02*
X13124107Y-16134655D01*
X13124107Y-16134655D02*
X13114295Y-16126127D01*
X13114295Y-16126127D02*
X13103941Y-16117227D01*
X13103941Y-16117227D02*
X13093000Y-16108000D01*
X26550000Y-10919000D02*
X22998000Y-11871000D01*
X22104500Y-13195000D02*
X21811846Y-13255910D01*
X21811846Y-13255910D02*
X21532917Y-13315132D01*
X21532917Y-13315132D02*
X21266966Y-13373030D01*
X21266966Y-13373030D02*
X21013244Y-13429967D01*
X21013244Y-13429967D02*
X20771005Y-13486305D01*
X20771005Y-13486305D02*
X20539500Y-13542407D01*
X20539500Y-13542407D02*
X20317982Y-13598638D01*
X20317982Y-13598638D02*
X20105703Y-13655359D01*
X20105703Y-13655359D02*
X19901916Y-13712935D01*
X19901916Y-13712935D02*
X19705873Y-13771727D01*
X19705873Y-13771727D02*
X19516827Y-13832100D01*
X19516827Y-13832100D02*
X19334029Y-13894416D01*
X19334029Y-13894416D02*
X19156733Y-13959038D01*
X19156733Y-13959038D02*
X18984190Y-14026330D01*
X18984190Y-14026330D02*
X18815653Y-14096655D01*
X18815653Y-14096655D02*
X18650375Y-14170375D01*
X18650375Y-14170375D02*
X18487607Y-14247854D01*
X18487607Y-14247854D02*
X18326603Y-14329455D01*
X18326603Y-14329455D02*
X18166614Y-14415541D01*
X18166614Y-14415541D02*
X18006893Y-14506475D01*
X18006893Y-14506475D02*
X17846692Y-14602620D01*
X17846692Y-14602620D02*
X17685263Y-14704339D01*
X17685263Y-14704339D02*
X17521860Y-14811996D01*
X17521860Y-14811996D02*
X17355734Y-14925953D01*
X17355734Y-14925953D02*
X17186138Y-15046574D01*
X17186138Y-15046574D02*
X17012324Y-15174221D01*
X17012324Y-15174221D02*
X16833545Y-15309259D01*
X16833545Y-15309259D02*
X16649053Y-15452049D01*
X16649053Y-15452049D02*
X16458100Y-15602955D01*
X16458100Y-15602955D02*
X16259938Y-15762340D01*
X16259938Y-15762340D02*
X16053821Y-15930567D01*
X16053821Y-15930567D02*
X15839000Y-16108000D01*
X16993000Y-5687000D02*
X17029934Y-5693582D01*
X17029934Y-5693582D02*
X17066341Y-5699817D01*
X17066341Y-5699817D02*
X17102286Y-5705682D01*
X17102286Y-5705682D02*
X17137834Y-5711158D01*
X17137834Y-5711158D02*
X17173051Y-5716225D01*
X17173051Y-5716225D02*
X17208000Y-5720862D01*
X17208000Y-5720862D02*
X17242748Y-5725049D01*
X17242748Y-5725049D02*
X17277359Y-5728766D01*
X17277359Y-5728766D02*
X17311899Y-5731991D01*
X17311899Y-5731991D02*
X17346431Y-5734706D01*
X17346431Y-5734706D02*
X17381022Y-5736890D01*
X17381022Y-5736890D02*
X17415736Y-5738521D01*
X17415736Y-5738521D02*
X17450639Y-5739581D01*
X17450639Y-5739581D02*
X17485794Y-5740048D01*
X17485794Y-5740048D02*
X17521268Y-5739903D01*
X17521268Y-5739903D02*
X17557125Y-5739125D01*
X17557125Y-5739125D02*
X17593430Y-5737693D01*
X17593430Y-5737693D02*
X17630249Y-5735588D01*
X17630249Y-5735588D02*
X17667646Y-5732789D01*
X17667646Y-5732789D02*
X17705686Y-5729275D01*
X17705686Y-5729275D02*
X17744434Y-5725027D01*
X17744434Y-5725027D02*
X17783955Y-5720024D01*
X17783955Y-5720024D02*
X17824315Y-5714246D01*
X17824315Y-5714246D02*
X17865578Y-5707672D01*
X17865578Y-5707672D02*
X17907809Y-5700282D01*
X17907809Y-5700282D02*
X17951074Y-5692056D01*
X17951074Y-5692056D02*
X17995437Y-5682973D01*
X17995437Y-5682973D02*
X18040963Y-5673014D01*
X18040963Y-5673014D02*
X18087717Y-5662157D01*
X18087717Y-5662157D02*
X18135765Y-5650382D01*
X18135765Y-5650382D02*
X18185171Y-5637670D01*
X18185171Y-5637670D02*
X18236000Y-5624000D01*
X12606000Y-6747000D02*
X12620201Y-6749027D01*
X12620201Y-6749027D02*
X12633017Y-6749507D01*
X12633017Y-6749507D02*
X12644489Y-6748474D01*
X12644489Y-6748474D02*
X12654656Y-6745963D01*
X12654656Y-6745963D02*
X12666250Y-6740375D01*
X12666250Y-6740375D02*
X12675687Y-6732303D01*
X12675687Y-6732303D02*
X12683062Y-6721828D01*
X12683062Y-6721828D02*
X12687297Y-6712445D01*
X12687297Y-6712445D02*
X12690463Y-6701791D01*
X12690463Y-6701791D02*
X12692000Y-6694000D01*
X11575000Y-6233000D02*
X11596531Y-6269569D01*
X11596531Y-6269569D02*
X11617303Y-6303775D01*
X11617303Y-6303775D02*
X11637394Y-6335711D01*
X11637394Y-6335711D02*
X11656881Y-6365469D01*
X11656881Y-6365469D02*
X11675843Y-6393140D01*
X11675843Y-6393140D02*
X11694358Y-6418818D01*
X11694358Y-6418818D02*
X11712504Y-6442595D01*
X11712504Y-6442595D02*
X11730359Y-6464562D01*
X11730359Y-6464562D02*
X11748002Y-6484813D01*
X11748002Y-6484813D02*
X11765511Y-6503439D01*
X11765511Y-6503439D02*
X11782964Y-6520533D01*
X11782964Y-6520533D02*
X11800439Y-6536187D01*
X11800439Y-6536187D02*
X11818015Y-6550494D01*
X11818015Y-6550494D02*
X11835769Y-6563545D01*
X11835769Y-6563545D02*
X11853779Y-6575433D01*
X11853779Y-6575433D02*
X11872125Y-6586250D01*
X11872125Y-6586250D02*
X11890884Y-6596089D01*
X11890884Y-6596089D02*
X11910133Y-6605041D01*
X11910133Y-6605041D02*
X11929953Y-6613199D01*
X11929953Y-6613199D02*
X11950420Y-6620656D01*
X11950420Y-6620656D02*
X11971613Y-6627504D01*
X11971613Y-6627504D02*
X11993610Y-6633834D01*
X11993610Y-6633834D02*
X12016489Y-6639739D01*
X12016489Y-6639739D02*
X12040328Y-6645312D01*
X12040328Y-6645312D02*
X12065206Y-6650645D01*
X12065206Y-6650645D02*
X12091201Y-6655830D01*
X12091201Y-6655830D02*
X12118391Y-6660959D01*
X12118391Y-6660959D02*
X12146853Y-6666125D01*
X12146853Y-6666125D02*
X12176668Y-6671420D01*
X12176668Y-6671420D02*
X12207911Y-6676935D01*
X12207911Y-6676935D02*
X12240663Y-6682765D01*
X12240663Y-6682765D02*
X12275000Y-6689000D01*
X11575000Y-6233000D02*
X11556953Y-6200893D01*
X11556953Y-6200893D02*
X11539869Y-6170345D01*
X11539869Y-6170345D02*
X11523642Y-6141300D01*
X11523642Y-6141300D02*
X11508169Y-6113699D01*
X11508169Y-6113699D02*
X11493345Y-6087486D01*
X11493345Y-6087486D02*
X11479066Y-6062602D01*
X11479066Y-6062602D02*
X11465228Y-6038990D01*
X11465228Y-6038990D02*
X11451726Y-6016594D01*
X11451726Y-6016594D02*
X11438457Y-5995354D01*
X11438457Y-5995354D02*
X11425315Y-5975214D01*
X11425315Y-5975214D02*
X11412198Y-5956117D01*
X11412198Y-5956117D02*
X11398999Y-5938004D01*
X11398999Y-5938004D02*
X11385615Y-5920818D01*
X11385615Y-5920818D02*
X11371943Y-5904502D01*
X11371943Y-5904502D02*
X11357876Y-5888999D01*
X11357876Y-5888999D02*
X11343312Y-5874250D01*
X11343312Y-5874250D02*
X11328146Y-5860198D01*
X11328146Y-5860198D02*
X11312274Y-5846787D01*
X11312274Y-5846787D02*
X11295591Y-5833957D01*
X11295591Y-5833957D02*
X11277993Y-5821652D01*
X11277993Y-5821652D02*
X11259376Y-5809815D01*
X11259376Y-5809815D02*
X11239636Y-5798387D01*
X11239636Y-5798387D02*
X11218667Y-5787312D01*
X11218667Y-5787312D02*
X11196367Y-5776531D01*
X11196367Y-5776531D02*
X11172631Y-5765988D01*
X11172631Y-5765988D02*
X11147354Y-5755624D01*
X11147354Y-5755624D02*
X11120432Y-5745383D01*
X11120432Y-5745383D02*
X11091761Y-5735207D01*
X11091761Y-5735207D02*
X11061236Y-5725038D01*
X11061236Y-5725038D02*
X11028754Y-5714819D01*
X11028754Y-5714819D02*
X10994210Y-5704492D01*
X10994210Y-5704492D02*
X10957500Y-5694000D01*
X2382000Y-10919000D02*
X5934000Y-11871000D01*
X12606000Y-6747000D02*
X12595899Y-6745230D01*
X12595899Y-6745230D02*
X12583807Y-6743111D01*
X12583807Y-6743111D02*
X12571908Y-6741026D01*
X12571908Y-6741026D02*
X12556372Y-6738304D01*
X12556372Y-6738304D02*
X12536715Y-6734859D01*
X12536715Y-6734859D02*
X12525189Y-6732840D01*
X12525189Y-6732840D02*
X12512452Y-6730608D01*
X12512452Y-6730608D02*
X12498441Y-6728153D01*
X12498441Y-6728153D02*
X12483097Y-6725464D01*
X12483097Y-6725464D02*
X12466359Y-6722531D01*
X12466359Y-6722531D02*
X12448167Y-6719343D01*
X12448167Y-6719343D02*
X12428459Y-6715890D01*
X12428459Y-6715890D02*
X12407176Y-6712161D01*
X12407176Y-6712161D02*
X12384256Y-6708144D01*
X12384256Y-6708144D02*
X12359639Y-6703831D01*
X12359639Y-6703831D02*
X12333264Y-6699209D01*
X12333264Y-6699209D02*
X12305072Y-6694269D01*
X12305072Y-6694269D02*
X12275000Y-6689000D01*
X16993000Y-5687000D02*
X16919035Y-5674295D01*
X16919035Y-5674295D02*
X16831523Y-5659180D01*
X16831523Y-5659180D02*
X16731505Y-5641838D01*
X16731505Y-5641838D02*
X16620025Y-5622455D01*
X16620025Y-5622455D02*
X16498125Y-5601215D01*
X16498125Y-5601215D02*
X16366847Y-5578303D01*
X16366847Y-5578303D02*
X16227234Y-5553905D01*
X16227234Y-5553905D02*
X16080328Y-5528203D01*
X16080328Y-5528203D02*
X15927171Y-5501384D01*
X15927171Y-5501384D02*
X15768807Y-5473632D01*
X15768807Y-5473632D02*
X15606276Y-5445132D01*
X15606276Y-5445132D02*
X15440623Y-5416068D01*
X15440623Y-5416068D02*
X15272889Y-5386626D01*
X15272889Y-5386626D02*
X15104116Y-5356990D01*
X15104116Y-5356990D02*
X14935347Y-5327345D01*
X14935347Y-5327345D02*
X14767625Y-5297875D01*
X14767625Y-5297875D02*
X14601992Y-5268766D01*
X14601992Y-5268766D02*
X14439489Y-5240201D01*
X14439489Y-5240201D02*
X14281161Y-5212367D01*
X14281161Y-5212367D02*
X14128049Y-5185447D01*
X14128049Y-5185447D02*
X13981195Y-5159627D01*
X13981195Y-5159627D02*
X13841642Y-5135091D01*
X13841642Y-5135091D02*
X13710433Y-5112023D01*
X13710433Y-5112023D02*
X13588609Y-5090609D01*
X13588609Y-5090609D02*
X13477214Y-5071034D01*
X13477214Y-5071034D02*
X13377289Y-5053482D01*
X13377289Y-5053482D02*
X13289878Y-5038137D01*
X13289878Y-5038137D02*
X13216021Y-5025186D01*
X13216021Y-5025186D02*
X13156763Y-5014811D01*
X13156763Y-5014811D02*
X13113145Y-5007199D01*
X13113145Y-5007199D02*
X13086210Y-5002534D01*
X13086210Y-5002534D02*
X13077000Y-5001000D01*
X6827500Y-13195000D02*
X7120154Y-13255910D01*
X7120154Y-13255910D02*
X7399083Y-13315132D01*
X7399083Y-13315132D02*
X7665034Y-13373030D01*
X7665034Y-13373030D02*
X7918756Y-13429967D01*
X7918756Y-13429967D02*
X8160995Y-13486305D01*
X8160995Y-13486305D02*
X8392500Y-13542407D01*
X8392500Y-13542407D02*
X8614018Y-13598638D01*
X8614018Y-13598638D02*
X8826297Y-13655359D01*
X8826297Y-13655359D02*
X9030084Y-13712935D01*
X9030084Y-13712935D02*
X9226127Y-13771727D01*
X9226127Y-13771727D02*
X9415173Y-13832100D01*
X9415173Y-13832100D02*
X9597971Y-13894416D01*
X9597971Y-13894416D02*
X9775267Y-13959038D01*
X9775267Y-13959038D02*
X9947810Y-14026330D01*
X9947810Y-14026330D02*
X10116347Y-14096655D01*
X10116347Y-14096655D02*
X10281625Y-14170375D01*
X10281625Y-14170375D02*
X10444393Y-14247854D01*
X10444393Y-14247854D02*
X10605397Y-14329455D01*
X10605397Y-14329455D02*
X10765386Y-14415541D01*
X10765386Y-14415541D02*
X10925107Y-14506475D01*
X10925107Y-14506475D02*
X11085308Y-14602620D01*
X11085308Y-14602620D02*
X11246736Y-14704339D01*
X11246736Y-14704339D02*
X11410140Y-14811996D01*
X11410140Y-14811996D02*
X11576266Y-14925953D01*
X11576266Y-14925953D02*
X11745862Y-15046574D01*
X11745862Y-15046574D02*
X11919675Y-15174221D01*
X11919675Y-15174221D02*
X12098455Y-15309259D01*
X12098455Y-15309259D02*
X12282947Y-15452049D01*
X12282947Y-15452049D02*
X12473900Y-15602955D01*
X12473900Y-15602955D02*
X12672062Y-15762340D01*
X12672062Y-15762340D02*
X12878179Y-15930567D01*
X12878179Y-15930567D02*
X13093000Y-16108000D01*
X12980000Y-5050000D02*
X12953835Y-5199359D01*
X12953835Y-5199359D02*
X12929305Y-5339386D01*
X12929305Y-5339386D02*
X12906356Y-5470382D01*
X12906356Y-5470382D02*
X12884937Y-5592648D01*
X12884937Y-5592648D02*
X12864995Y-5706486D01*
X12864995Y-5706486D02*
X12846476Y-5812196D01*
X12846476Y-5812196D02*
X12829329Y-5910080D01*
X12829329Y-5910080D02*
X12813500Y-6000437D01*
X12813500Y-6000437D02*
X12798936Y-6083571D01*
X12798936Y-6083571D02*
X12785586Y-6159780D01*
X12785586Y-6159780D02*
X12773395Y-6229367D01*
X12773395Y-6229367D02*
X12762312Y-6292633D01*
X12762312Y-6292633D02*
X12752284Y-6349878D01*
X12752284Y-6349878D02*
X12743258Y-6401403D01*
X12743258Y-6401403D02*
X12735181Y-6447510D01*
X12735181Y-6447510D02*
X12728000Y-6488500D01*
X12728000Y-6488500D02*
X12721663Y-6524673D01*
X12721663Y-6524673D02*
X12716117Y-6556331D01*
X12716117Y-6556331D02*
X12711309Y-6583774D01*
X12711309Y-6583774D02*
X12707187Y-6607305D01*
X12707187Y-6607305D02*
X12703698Y-6627222D01*
X12703698Y-6627222D02*
X12700789Y-6643829D01*
X12700789Y-6643829D02*
X12698407Y-6657425D01*
X12698407Y-6657425D02*
X12696500Y-6668312D01*
X12696500Y-6668312D02*
X12693898Y-6683163D01*
X12693898Y-6683163D02*
X12692070Y-6693599D01*
X12692070Y-6693599D02*
X12692000Y-6694000D01*
X13077000Y-5001000D02*
X13066757Y-4999631D01*
X13066757Y-4999631D02*
X13055908Y-4999009D01*
X13055908Y-4999009D02*
X13044747Y-4999304D01*
X13044747Y-4999304D02*
X13033564Y-5000684D01*
X13033564Y-5000684D02*
X13022652Y-5003315D01*
X13022652Y-5003315D02*
X13012301Y-5007368D01*
X13012301Y-5007368D02*
X13002805Y-5013009D01*
X13002805Y-5013009D02*
X12994453Y-5020406D01*
X12994453Y-5020406D02*
X12987539Y-5029729D01*
X12987539Y-5029729D02*
X12982353Y-5041144D01*
X12982353Y-5041144D02*
X12980000Y-5050000D01*
D11*
X2563000Y-10704000D02*
X2593000Y-10734000D01*
X2593000Y-10704000D02*
X2563000Y-10734000D01*
X3837000Y-5770000D02*
X3867000Y-5800000D01*
X3867000Y-5770000D02*
X3837000Y-5800000D01*
X4695000Y-6515000D02*
X4725000Y-6545000D01*
X4725000Y-6515000D02*
X4695000Y-6545000D01*
X5140000Y-7973000D02*
X5170000Y-8003000D01*
X5170000Y-7973000D02*
X5140000Y-8003000D01*
X5825000Y-6595000D02*
X5855000Y-6625000D01*
X5855000Y-6595000D02*
X5825000Y-6625000D01*
X6105000Y-6915000D02*
X6135000Y-6945000D01*
X6135000Y-6915000D02*
X6105000Y-6945000D01*
X6675000Y-11405000D02*
X6705000Y-11435000D01*
X6705000Y-11405000D02*
X6675000Y-11435000D01*
X7736000Y-11068000D02*
X7766000Y-11098000D01*
X7766000Y-11068000D02*
X7736000Y-11098000D01*
X8115000Y-6455000D02*
X8145000Y-6485000D01*
X8145000Y-6455000D02*
X8115000Y-6485000D01*
X8194000Y-8812000D02*
X8224000Y-8842000D01*
X8224000Y-8812000D02*
X8194000Y-8842000D01*
X9205000Y-5935000D02*
X9235000Y-5965000D01*
X9235000Y-5935000D02*
X9205000Y-5965000D01*
X9460000Y-11460000D02*
X9490000Y-11490000D01*
X9490000Y-11460000D02*
X9460000Y-11490000D01*
X10315000Y-7065000D02*
X10345000Y-7095000D01*
X10345000Y-7065000D02*
X10315000Y-7095000D01*
X10802000Y-10110000D02*
X10832000Y-10140000D01*
X10832000Y-10110000D02*
X10802000Y-10140000D01*
X12006000Y-8197000D02*
X12036000Y-8227000D01*
X12036000Y-8197000D02*
X12006000Y-8227000D01*
X12510000Y-6985000D02*
X12540000Y-7015000D01*
X12540000Y-6985000D02*
X12510000Y-7015000D01*
X12585000Y-15410000D02*
X12615000Y-15440000D01*
X12615000Y-15410000D02*
X12585000Y-15440000D01*
X12635000Y-6985000D02*
X12665000Y-7015000D01*
X12665000Y-6985000D02*
X12635000Y-7015000D01*
X12760000Y-6985000D02*
X12790000Y-7015000D01*
X12790000Y-6985000D02*
X12760000Y-7015000D01*
X12936000Y-7426000D02*
X12966000Y-7456000D01*
X12966000Y-7426000D02*
X12936000Y-7456000D01*
X12965000Y-13275000D02*
X12995000Y-13305000D01*
X12995000Y-13275000D02*
X12965000Y-13305000D01*
X13181892Y-6483087D02*
X13211892Y-6513087D01*
X13211892Y-6483087D02*
X13181892Y-6513087D01*
X13240000Y-5855000D02*
X13270000Y-5885000D01*
X13270000Y-5855000D02*
X13240000Y-5885000D01*
X13250021Y-6525021D02*
X13280021Y-6555021D01*
X13280021Y-6525021D02*
X13250021Y-6555021D01*
X13845000Y-5455000D02*
X13875000Y-5485000D01*
X13875000Y-5455000D02*
X13845000Y-5485000D01*
X13910000Y-5670000D02*
X13940000Y-5700000D01*
X13940000Y-5670000D02*
X13910000Y-5700000D01*
X13910000Y-5770000D02*
X13940000Y-5800000D01*
X13940000Y-5770000D02*
X13910000Y-5800000D01*
X14055000Y-7775000D02*
X14085000Y-7805000D01*
X14085000Y-7775000D02*
X14055000Y-7805000D01*
X14125000Y-7705000D02*
X14155000Y-7735000D01*
X14155000Y-7705000D02*
X14125000Y-7735000D01*
X14315000Y-6155000D02*
X14345000Y-6185000D01*
X14345000Y-6155000D02*
X14315000Y-6185000D01*
X14450000Y-14192000D02*
X14480000Y-14222000D01*
X14480000Y-14192000D02*
X14450000Y-14222000D01*
X14457000Y-13158000D02*
X14487000Y-13188000D01*
X14487000Y-13158000D02*
X14457000Y-13188000D01*
X14459000Y-12087000D02*
X14489000Y-12117000D01*
X14489000Y-12087000D02*
X14459000Y-12117000D01*
X14463000Y-11372000D02*
X14493000Y-11402000D01*
X14493000Y-11372000D02*
X14463000Y-11402000D01*
X14490000Y-6010000D02*
X14520000Y-6040000D01*
X14520000Y-6010000D02*
X14490000Y-6040000D01*
X14560000Y-9710000D02*
X14590000Y-9740000D01*
X14590000Y-9710000D02*
X14560000Y-9740000D01*
X14560000Y-9885000D02*
X14590000Y-9915000D01*
X14590000Y-9885000D02*
X14560000Y-9915000D01*
X14560000Y-10060000D02*
X14590000Y-10090000D01*
X14590000Y-10060000D02*
X14560000Y-10090000D01*
X14740000Y-6760000D02*
X14770000Y-6790000D01*
X14770000Y-6760000D02*
X14740000Y-6790000D01*
X14960000Y-9610000D02*
X14990000Y-9640000D01*
X14990000Y-9610000D02*
X14960000Y-9640000D01*
X14960000Y-10285000D02*
X14990000Y-10315000D01*
X14990000Y-10285000D02*
X14960000Y-10315000D01*
X14960000Y-10685000D02*
X14990000Y-10715000D01*
X14990000Y-10685000D02*
X14960000Y-10715000D01*
X15035000Y-6063000D02*
X15065000Y-6093000D01*
X15065000Y-6063000D02*
X15035000Y-6093000D01*
X15311000Y-6055000D02*
X15341000Y-6085000D01*
X15341000Y-6055000D02*
X15311000Y-6085000D01*
X15455000Y-6785000D02*
X15485000Y-6815000D01*
X15485000Y-6785000D02*
X15455000Y-6815000D01*
X15587000Y-6057000D02*
X15617000Y-6087000D01*
X15617000Y-6057000D02*
X15587000Y-6087000D01*
X15863000Y-6061000D02*
X15893000Y-6091000D01*
X15893000Y-6061000D02*
X15863000Y-6091000D01*
X15955000Y-6060000D02*
X15985000Y-6090000D01*
X15985000Y-6060000D02*
X15955000Y-6090000D01*
X16005000Y-13195000D02*
X16035000Y-13225000D01*
X16035000Y-13195000D02*
X16005000Y-13225000D01*
X16014000Y-7542000D02*
X16044000Y-7572000D01*
X16044000Y-7542000D02*
X16014000Y-7572000D01*
X16095000Y-6952500D02*
X16125000Y-6982500D01*
X16125000Y-6952500D02*
X16095000Y-6982500D01*
X16190000Y-6952500D02*
X16220000Y-6982500D01*
X16220000Y-6952500D02*
X16190000Y-6982500D01*
X16285000Y-6952500D02*
X16315000Y-6982500D01*
X16315000Y-6952500D02*
X16285000Y-6982500D01*
X16335000Y-15410000D02*
X16365000Y-15440000D01*
X16365000Y-15410000D02*
X16335000Y-15440000D01*
X16735000Y-14285000D02*
X16765000Y-14315000D01*
X16765000Y-14285000D02*
X16735000Y-14315000D01*
X17614000Y-7945000D02*
X17644000Y-7975000D01*
X17644000Y-7945000D02*
X17614000Y-7975000D01*
X18208000Y-10129000D02*
X18238000Y-10159000D01*
X18238000Y-10129000D02*
X18208000Y-10159000D01*
X19447000Y-6951000D02*
X19477000Y-6981000D01*
X19477000Y-6951000D02*
X19447000Y-6981000D01*
X19610000Y-11560000D02*
X19640000Y-11590000D01*
X19640000Y-11560000D02*
X19610000Y-11590000D01*
X19935000Y-6405000D02*
X19965000Y-6435000D01*
X19965000Y-6405000D02*
X19935000Y-6435000D01*
X20155000Y-5885000D02*
X20185000Y-5915000D01*
X20185000Y-5885000D02*
X20155000Y-5915000D01*
X21310000Y-11260000D02*
X21340000Y-11290000D01*
X21340000Y-11260000D02*
X21310000Y-11290000D01*
X21473000Y-8605000D02*
X21503000Y-8635000D01*
X21503000Y-8605000D02*
X21473000Y-8635000D01*
X21933000Y-6831000D02*
X21963000Y-6861000D01*
X21963000Y-6831000D02*
X21933000Y-6861000D01*
X22635000Y-6245000D02*
X22665000Y-6275000D01*
X22665000Y-6245000D02*
X22635000Y-6275000D01*
X22685000Y-11460000D02*
X22715000Y-11490000D01*
X22715000Y-11460000D02*
X22685000Y-11490000D01*
X23439000Y-7916000D02*
X23469000Y-7946000D01*
X23469000Y-7916000D02*
X23439000Y-7946000D01*
X23455000Y-6435000D02*
X23485000Y-6465000D01*
X23485000Y-6435000D02*
X23455000Y-6465000D01*
X25048000Y-5770000D02*
X25078000Y-5800000D01*
X25078000Y-5770000D02*
X25048000Y-5800000D01*
X26073000Y-10819000D02*
X26103000Y-10849000D01*
X26103000Y-10819000D02*
X26073000Y-10849000D01*
X12890000Y-6650000D02*
G75*
G03*
X12890000Y-6650000I-40000J0D01*
G01*
X13160000Y-5130000D02*
G75*
G03*
X13160000Y-5130000I-40000J0D01*
G01*
X16359000Y-6602000D02*
G75*
G03*
X16359000Y-6602000I-40000J0D01*
G01*
X16410764Y-6795185D02*
G75*
G03*
X16410764Y-6795185I-40000J0D01*
G01*
X17215591Y-6069537D02*
G75*
G03*
X17215591Y-6069537I-40000J0D01*
G01*
X17280295Y-6311018D02*
G75*
G03*
X17280295Y-6311018I-40000J0D01*
G01*
X17345000Y-6552500D02*
G75*
G03*
X17345000Y-6552500I-40000J0D01*
G01*
X17524687Y-5986715D02*
G75*
G03*
X17524687Y-5986715I-40000J0D01*
G01*
X17589392Y-6228196D02*
G75*
G03*
X17589392Y-6228196I-40000J0D01*
G01*
X17654096Y-6469678D02*
G75*
G03*
X17654096Y-6469678I-40000J0D01*
G01*
X4318966Y-10980069D02*
X4318966Y-11080069D01*
X4268966Y-11030069D02*
X4368966Y-11030069D01*
X4520845Y-10226647D02*
X4520845Y-10326647D01*
X4470845Y-10276647D02*
X4570845Y-10276647D01*
X4760348Y-9331264D02*
X4760348Y-9431264D01*
X4710348Y-9381264D02*
X4810348Y-9381264D01*
X4962227Y-8577842D02*
X4962227Y-8677842D01*
X4912227Y-8627842D02*
X5012227Y-8627842D01*
X5200473Y-7685360D02*
X5200473Y-7785360D01*
X5150473Y-7735360D02*
X5250473Y-7735360D01*
X5402352Y-6931938D02*
X5402352Y-7031938D01*
X5352352Y-6981938D02*
X5452352Y-6981938D01*
X6061837Y-11447750D02*
X6061837Y-11547750D01*
X6011837Y-11497750D02*
X6111837Y-11497750D01*
X6263716Y-10694328D02*
X6263716Y-10794328D01*
X6213716Y-10744328D02*
X6313716Y-10744328D01*
X6498886Y-9802581D02*
X6498886Y-9902581D01*
X6448886Y-9852581D02*
X6548886Y-9852581D01*
X6700765Y-9049159D02*
X6700765Y-9149159D01*
X6650765Y-9099159D02*
X6750765Y-9099159D01*
X6941999Y-8156939D02*
X6941999Y-8256939D01*
X6891999Y-8206939D02*
X6991999Y-8206939D01*
X7143878Y-7403516D02*
X7143878Y-7503516D01*
X7093878Y-7453516D02*
X7193878Y-7453516D01*
X8052052Y-10981434D02*
X8052052Y-11081434D01*
X8002052Y-11031434D02*
X8102052Y-11031434D01*
X8253931Y-10228012D02*
X8253931Y-10328012D01*
X8203931Y-10278012D02*
X8303931Y-10278012D01*
X8493348Y-9333625D02*
X8493348Y-9433625D01*
X8443348Y-9383625D02*
X8543348Y-9383625D01*
X8632277Y-13134075D02*
X8632277Y-13234075D01*
X8582277Y-13184075D02*
X8682277Y-13184075D01*
X8695227Y-8580203D02*
X8695227Y-8680203D01*
X8645227Y-8630203D02*
X8745227Y-8630203D01*
X8767723Y-12365925D02*
X8767723Y-12465925D01*
X8717723Y-12415925D02*
X8817723Y-12415925D01*
X8933385Y-7688718D02*
X8933385Y-7788718D01*
X8883385Y-7738718D02*
X8983385Y-7738718D01*
X9135264Y-6935295D02*
X9135264Y-7035295D01*
X9085264Y-6985295D02*
X9185264Y-6985295D01*
X9972793Y-10767223D02*
X9972793Y-10867223D01*
X9922793Y-10817223D02*
X10022793Y-10817223D01*
X10174672Y-10013800D02*
X10174672Y-10113800D01*
X10124672Y-10063800D02*
X10224672Y-10063800D01*
X10366612Y-13751403D02*
X10366612Y-13851403D01*
X10316612Y-13801403D02*
X10416612Y-13801403D01*
X10414712Y-9118464D02*
X10414712Y-9218464D01*
X10364712Y-9168464D02*
X10464712Y-9168464D01*
X10616590Y-8365042D02*
X10616590Y-8465042D01*
X10566590Y-8415042D02*
X10666590Y-8415042D01*
X10633388Y-13018443D02*
X10633388Y-13118443D01*
X10583388Y-13068443D02*
X10683388Y-13068443D01*
X10855011Y-7470568D02*
X10855011Y-7570568D01*
X10805011Y-7520568D02*
X10905011Y-7520568D01*
X11056890Y-6717146D02*
X11056890Y-6817146D01*
X11006890Y-6767146D02*
X11106890Y-6767146D01*
X11525044Y-11947803D02*
X11525044Y-12047803D01*
X11475044Y-11997803D02*
X11575044Y-11997803D01*
X11726922Y-11194380D02*
X11726922Y-11294380D01*
X11676922Y-11244380D02*
X11776922Y-11244380D01*
X11964907Y-10304887D02*
X11964907Y-10404887D01*
X11914907Y-10354887D02*
X12014907Y-10354887D01*
X11975000Y-14666506D02*
X11975000Y-14766506D01*
X11925000Y-14716506D02*
X12025000Y-14716506D01*
X12166786Y-9551465D02*
X12166786Y-9651465D01*
X12116786Y-9601465D02*
X12216786Y-9601465D01*
X12365000Y-13991006D02*
X12365000Y-14091006D01*
X12315000Y-14041006D02*
X12415000Y-14041006D01*
X12403948Y-8659893D02*
X12403948Y-8759893D01*
X12353948Y-8709893D02*
X12453948Y-8709893D01*
X12605827Y-7906470D02*
X12605827Y-8006470D01*
X12555827Y-7956470D02*
X12655827Y-7956470D01*
X13169619Y-12770267D02*
X13169619Y-12870267D01*
X13119619Y-12820267D02*
X13219619Y-12820267D01*
X13371498Y-12016844D02*
X13371498Y-12116844D01*
X13321498Y-12066844D02*
X13421498Y-12066844D01*
X13399313Y-15848757D02*
X13399313Y-15948757D01*
X13349313Y-15898757D02*
X13449313Y-15898757D01*
X13609831Y-11123367D02*
X13609831Y-11223367D01*
X13559831Y-11173367D02*
X13659831Y-11173367D01*
X13811710Y-10369944D02*
X13811710Y-10469944D01*
X13761710Y-10419944D02*
X13861710Y-10419944D01*
X13900687Y-15251243D02*
X13900687Y-15351243D01*
X13850687Y-15301243D02*
X13950687Y-15301243D01*
X14050952Y-9477550D02*
X14050952Y-9577550D01*
X14000952Y-9527550D02*
X14100952Y-9527550D01*
X14085000Y-11550000D02*
X14085000Y-11650000D01*
X14035000Y-11600000D02*
X14135000Y-11600000D01*
X14216000Y-12200000D02*
X14216000Y-12300000D01*
X14166000Y-12250000D02*
X14266000Y-12250000D01*
X14216000Y-13650000D02*
X14216000Y-13750000D01*
X14166000Y-13700000D02*
X14266000Y-13700000D01*
X14252831Y-8724128D02*
X14252831Y-8824128D01*
X14202831Y-8774128D02*
X14302831Y-8774128D01*
X14466000Y-13650000D02*
X14466000Y-13750000D01*
X14416000Y-13700000D02*
X14516000Y-13700000D01*
X14716000Y-12200000D02*
X14716000Y-12300000D01*
X14666000Y-12250000D02*
X14766000Y-12250000D01*
X14716000Y-13650000D02*
X14716000Y-13750000D01*
X14666000Y-13700000D02*
X14766000Y-13700000D01*
X14865000Y-11550000D02*
X14865000Y-11650000D01*
X14815000Y-11600000D02*
X14915000Y-11600000D01*
X16398626Y-14102485D02*
X16398626Y-14202485D01*
X16348626Y-14152485D02*
X16448626Y-14152485D01*
X16419357Y-8264120D02*
X16419357Y-8364120D01*
X16369357Y-8314120D02*
X16469357Y-8314120D01*
X16495333Y-6173969D02*
X16495333Y-6273969D01*
X16445333Y-6223969D02*
X16545333Y-6223969D01*
X16621236Y-9017542D02*
X16621236Y-9117542D01*
X16571236Y-9067542D02*
X16671236Y-9067542D01*
X16663566Y-6801820D02*
X16663566Y-6901820D01*
X16613566Y-6851820D02*
X16713566Y-6851820D01*
X16860478Y-9909936D02*
X16860478Y-10009936D01*
X16810478Y-9959936D02*
X16910478Y-9959936D01*
X16900000Y-14700000D02*
X16900000Y-14800000D01*
X16850000Y-14750000D02*
X16950000Y-14750000D01*
X16930000Y-6057500D02*
X16930000Y-6157500D01*
X16880000Y-6107500D02*
X16980000Y-6107500D01*
X17062357Y-10663358D02*
X17062357Y-10763358D01*
X17012357Y-10713358D02*
X17112357Y-10713358D01*
X17098232Y-6685352D02*
X17098232Y-6785352D01*
X17048232Y-6735352D02*
X17148232Y-6735352D01*
X17301061Y-11557289D02*
X17301061Y-11657289D01*
X17251061Y-11607289D02*
X17351061Y-11607289D01*
X17502939Y-12310711D02*
X17502939Y-12410711D01*
X17452939Y-12360711D02*
X17552939Y-12360711D01*
X18066361Y-7446462D02*
X18066361Y-7546462D01*
X18016361Y-7496462D02*
X18116361Y-7496462D01*
X18130000Y-13095744D02*
X18130000Y-13195744D01*
X18080000Y-13145744D02*
X18180000Y-13145744D01*
X18268239Y-8199884D02*
X18268239Y-8299884D01*
X18218239Y-8249884D02*
X18318239Y-8249884D01*
X18505402Y-9091457D02*
X18505402Y-9191457D01*
X18455402Y-9141457D02*
X18555402Y-9141457D01*
X18520000Y-13771243D02*
X18520000Y-13871243D01*
X18470000Y-13821243D02*
X18570000Y-13821243D01*
X18707281Y-9844879D02*
X18707281Y-9944879D01*
X18657281Y-9894879D02*
X18757281Y-9894879D01*
X18945265Y-10734372D02*
X18945265Y-10834372D01*
X18895265Y-10784372D02*
X18995265Y-10784372D01*
X19147144Y-11487794D02*
X19147144Y-11587794D01*
X19097144Y-11537794D02*
X19197144Y-11537794D01*
X19615298Y-6257138D02*
X19615298Y-6357138D01*
X19565298Y-6307138D02*
X19665298Y-6307138D01*
X19817177Y-7010560D02*
X19817177Y-7110560D01*
X19767177Y-7060560D02*
X19867177Y-7060560D01*
X19981107Y-12398597D02*
X19981107Y-12498597D01*
X19931107Y-12448597D02*
X20031107Y-12448597D01*
X20055597Y-7905034D02*
X20055597Y-8005034D01*
X20005597Y-7955034D02*
X20105597Y-7955034D01*
X20247883Y-13131557D02*
X20247883Y-13231557D01*
X20197883Y-13181557D02*
X20297883Y-13181557D01*
X20257476Y-8658456D02*
X20257476Y-8758456D01*
X20207476Y-8708456D02*
X20307476Y-8708456D01*
X20496980Y-9553839D02*
X20496980Y-9653839D01*
X20446980Y-9603839D02*
X20546980Y-9603839D01*
X20698859Y-10307261D02*
X20698859Y-10407261D01*
X20648859Y-10357261D02*
X20748859Y-10357261D01*
X21536924Y-6475287D02*
X21536924Y-6575287D01*
X21486924Y-6525287D02*
X21586924Y-6525287D01*
X21738803Y-7228709D02*
X21738803Y-7328709D01*
X21688803Y-7278709D02*
X21788803Y-7278709D01*
X21907967Y-12028052D02*
X21907967Y-12128052D01*
X21857967Y-12078052D02*
X21957967Y-12078052D01*
X21976961Y-8120195D02*
X21976961Y-8220195D01*
X21926961Y-8170195D02*
X22026961Y-8170195D01*
X22043412Y-12796202D02*
X22043412Y-12896202D01*
X21993412Y-12846202D02*
X22093412Y-12846202D01*
X22178840Y-8873617D02*
X22178840Y-8973617D01*
X22128840Y-8923617D02*
X22228840Y-8923617D01*
X22418256Y-9768004D02*
X22418256Y-9868004D01*
X22368257Y-9818004D02*
X22468256Y-9818004D01*
X22620135Y-10521426D02*
X22620135Y-10621426D01*
X22570135Y-10571426D02*
X22670135Y-10571426D01*
X23528310Y-6943508D02*
X23528310Y-7043508D01*
X23478310Y-6993508D02*
X23578310Y-6993508D01*
X23730188Y-7696930D02*
X23730188Y-7796930D01*
X23680188Y-7746930D02*
X23780188Y-7746930D01*
X23971423Y-8589151D02*
X23971423Y-8689151D01*
X23921423Y-8639151D02*
X24021423Y-8639151D01*
X24173302Y-9342573D02*
X24173302Y-9442573D01*
X24123302Y-9392573D02*
X24223302Y-9392573D01*
X24408472Y-10234320D02*
X24408472Y-10334320D01*
X24358472Y-10284320D02*
X24458472Y-10284320D01*
X24610351Y-10987742D02*
X24610351Y-11087742D01*
X24560351Y-11037742D02*
X24660351Y-11037742D01*
X25269836Y-6471930D02*
X25269836Y-6571930D01*
X25219836Y-6521930D02*
X25319836Y-6521930D01*
X25471715Y-7225352D02*
X25471715Y-7325352D01*
X25421715Y-7275352D02*
X25521715Y-7275352D01*
X25709961Y-8117833D02*
X25709961Y-8217833D01*
X25659961Y-8167833D02*
X25759961Y-8167833D01*
X25911839Y-8871256D02*
X25911839Y-8971256D01*
X25861839Y-8921256D02*
X25961839Y-8921256D01*
X26151343Y-9766639D02*
X26151343Y-9866639D01*
X26101343Y-9816639D02*
X26201343Y-9816639D01*
X26353222Y-10520061D02*
X26353222Y-10620061D01*
X26303222Y-10570061D02*
X26403222Y-10570061D01*
X13130519Y-6716452D02*
X13130519Y-6639221D01*
X13053288Y-6639221D01*
X13053288Y-6716452D01*
X13130519Y-6716452D01*
X13380660Y-6760559D02*
X13380660Y-6683328D01*
X13303429Y-6683328D01*
X13303429Y-6760559D01*
X13380660Y-6760559D01*
X13395159Y-5215606D02*
X13395159Y-5138375D01*
X13317928Y-5138375D01*
X13317928Y-5215606D01*
X13395159Y-5215606D01*
X13630801Y-6804666D02*
X13630801Y-6727435D01*
X13553570Y-6727435D01*
X13553570Y-6804666D01*
X13630801Y-6804666D01*
X13645300Y-5259712D02*
X13645300Y-5182481D01*
X13568069Y-5182481D01*
X13568069Y-5259712D01*
X13645300Y-5259712D01*
X13880943Y-6848772D02*
X13880943Y-6771541D01*
X13803712Y-6771541D01*
X13803712Y-6848772D01*
X13880943Y-6848772D01*
X13895441Y-5303819D02*
X13895441Y-5226588D01*
X13818210Y-5226588D01*
X13818210Y-5303819D01*
X13895441Y-5303819D01*
X14131084Y-6892879D02*
X14131084Y-6815648D01*
X14053853Y-6815648D01*
X14053853Y-6892879D01*
X14131084Y-6892879D01*
X14145582Y-5347925D02*
X14145582Y-5270694D01*
X14068351Y-5270694D01*
X14068351Y-5347925D01*
X14145582Y-5347925D01*
X14381225Y-6936986D02*
X14381225Y-6859755D01*
X14303994Y-6859755D01*
X14303994Y-6936986D01*
X14381225Y-6936986D01*
X14395724Y-5392032D02*
X14395724Y-5314801D01*
X14318493Y-5314801D01*
X14318493Y-5392032D01*
X14395724Y-5392032D01*
X14631366Y-6981092D02*
X14631366Y-6903861D01*
X14554135Y-6903861D01*
X14554135Y-6981092D01*
X14631366Y-6981092D01*
X14645865Y-5436139D02*
X14645865Y-5358908D01*
X14568634Y-5358908D01*
X14568634Y-5436139D01*
X14645865Y-5436139D01*
X14881507Y-7025199D02*
X14881507Y-6947968D01*
X14804276Y-6947968D01*
X14804276Y-7025199D01*
X14881507Y-7025199D01*
X14896006Y-5480245D02*
X14896006Y-5403014D01*
X14818775Y-5403014D01*
X14818775Y-5480245D01*
X14896006Y-5480245D01*
X15131648Y-7069306D02*
X15131648Y-6992075D01*
X15054417Y-6992075D01*
X15054417Y-7069306D01*
X15131648Y-7069306D01*
X15146147Y-5524352D02*
X15146147Y-5447121D01*
X15068916Y-5447121D01*
X15068916Y-5524352D01*
X15146147Y-5524352D01*
X15381790Y-7113412D02*
X15381790Y-7036181D01*
X15304559Y-7036181D01*
X15304559Y-7113412D01*
X15381790Y-7113412D01*
X15396288Y-5568459D02*
X15396288Y-5491228D01*
X15319057Y-5491228D01*
X15319057Y-5568459D01*
X15396288Y-5568459D01*
X15631931Y-7157519D02*
X15631931Y-7080288D01*
X15554700Y-7080288D01*
X15554700Y-7157519D01*
X15631931Y-7157519D01*
X15646429Y-5612565D02*
X15646429Y-5535334D01*
X15569198Y-5535334D01*
X15569198Y-5612565D01*
X15646429Y-5612565D01*
X15882072Y-7201625D02*
X15882072Y-7124394D01*
X15804841Y-7124394D01*
X15804841Y-7201625D01*
X15882072Y-7201625D01*
X15896571Y-5656672D02*
X15896571Y-5579441D01*
X15819340Y-5579441D01*
X15819340Y-5656672D01*
X15896571Y-5656672D01*
X16146712Y-5700778D02*
X16146712Y-5623547D01*
X16069481Y-5623547D01*
X16069481Y-5700778D01*
X16146712Y-5700778D01*
X3048591Y-10424500D02*
X3112091Y-10361000D01*
X3048591Y-10297500D01*
X2985091Y-10361000D01*
X3048591Y-10424500D01*
X3477202Y-10756754D02*
X3540702Y-10693254D01*
X3477202Y-10629754D01*
X3413702Y-10693254D01*
X3477202Y-10756754D01*
X3489974Y-8775695D02*
X3553474Y-8712195D01*
X3489974Y-8648695D01*
X3426474Y-8712195D01*
X3489974Y-8775695D01*
X3918585Y-9107949D02*
X3982085Y-9044449D01*
X3918585Y-8980949D01*
X3855085Y-9044449D01*
X3918585Y-9107949D01*
X3930098Y-7129791D02*
X3993598Y-7066291D01*
X3930098Y-7002791D01*
X3866598Y-7066291D01*
X3930098Y-7129791D01*
X4358709Y-7462045D02*
X4422209Y-7398545D01*
X4358709Y-7335045D01*
X4295209Y-7398545D01*
X4358709Y-7462045D01*
X4791462Y-10892181D02*
X4854962Y-10828681D01*
X4791462Y-10765181D01*
X4727962Y-10828681D01*
X4791462Y-10892181D01*
X5220073Y-11224435D02*
X5283573Y-11160935D01*
X5220073Y-11097435D01*
X5156573Y-11160935D01*
X5220073Y-11224435D01*
X5228511Y-9247012D02*
X5292011Y-9183512D01*
X5228511Y-9120012D01*
X5165011Y-9183512D01*
X5228511Y-9247012D01*
X5657122Y-9579266D02*
X5720622Y-9515766D01*
X5657122Y-9452266D01*
X5593622Y-9515766D01*
X5657122Y-9579266D01*
X5671625Y-7601370D02*
X5735125Y-7537870D01*
X5671625Y-7474370D01*
X5608125Y-7537870D01*
X5671625Y-7601370D01*
X6100236Y-7933624D02*
X6163736Y-7870124D01*
X6100236Y-7806624D01*
X6036736Y-7870124D01*
X6100236Y-7933624D01*
X6781678Y-10425865D02*
X6845178Y-10362365D01*
X6781678Y-10298865D01*
X6718178Y-10362365D01*
X6781678Y-10425865D01*
X7210289Y-10758119D02*
X7273789Y-10694619D01*
X7210289Y-10631119D01*
X7146789Y-10694619D01*
X7210289Y-10758119D01*
X7222973Y-8778056D02*
X7286473Y-8714556D01*
X7222973Y-8651056D01*
X7159473Y-8714556D01*
X7222973Y-8778056D01*
X7329001Y-12635903D02*
X7392501Y-12572403D01*
X7329001Y-12508903D01*
X7265501Y-12572403D01*
X7329001Y-12635903D01*
X7651584Y-9110310D02*
X7715084Y-9046810D01*
X7651584Y-8983310D01*
X7588084Y-9046810D01*
X7651584Y-9110310D01*
X7663011Y-7133149D02*
X7726511Y-7069649D01*
X7663011Y-7006149D01*
X7599511Y-7069649D01*
X7663011Y-7133149D01*
X7784938Y-12929537D02*
X7848438Y-12866037D01*
X7784938Y-12802537D01*
X7721438Y-12866037D01*
X7784938Y-12929537D01*
X8091622Y-7465403D02*
X8155122Y-7401903D01*
X8091622Y-7338403D01*
X8028122Y-7401903D01*
X8091622Y-7465403D01*
X8702419Y-10211654D02*
X8765919Y-10148154D01*
X8702419Y-10084654D01*
X8638919Y-10148154D01*
X8702419Y-10211654D01*
X9131030Y-10543908D02*
X9194530Y-10480408D01*
X9131030Y-10416908D01*
X9067530Y-10480408D01*
X9131030Y-10543908D01*
X9144337Y-8562896D02*
X9207837Y-8499396D01*
X9144337Y-8435896D01*
X9080837Y-8499396D01*
X9144337Y-8562896D01*
X9185357Y-13044309D02*
X9248857Y-12980809D01*
X9185357Y-12917309D01*
X9121857Y-12980809D01*
X9185357Y-13044309D01*
X9572948Y-8895149D02*
X9636448Y-8831649D01*
X9572948Y-8768149D01*
X9509448Y-8831649D01*
X9572948Y-8895149D01*
X9583379Y-13412655D02*
X9646879Y-13349155D01*
X9583379Y-13285655D01*
X9519879Y-13349155D01*
X9583379Y-13412655D01*
X9584636Y-6914999D02*
X9648136Y-6851499D01*
X9584636Y-6787999D01*
X9521136Y-6851499D01*
X9584636Y-6914999D01*
X10013247Y-7247253D02*
X10076747Y-7183753D01*
X10013247Y-7120253D01*
X9949747Y-7183753D01*
X10013247Y-7247253D01*
X10254669Y-11392234D02*
X10318169Y-11328734D01*
X10254669Y-11265234D01*
X10191169Y-11328734D01*
X10254669Y-11392234D01*
X10683280Y-11724488D02*
X10746780Y-11660988D01*
X10683280Y-11597488D01*
X10619780Y-11660988D01*
X10683280Y-11724488D01*
X10694532Y-9749319D02*
X10758032Y-9685819D01*
X10694532Y-9622319D01*
X10631032Y-9685819D01*
X10694532Y-9749319D01*
X10944124Y-13769509D02*
X11007624Y-13706009D01*
X10944124Y-13642509D01*
X10880624Y-13706009D01*
X10944124Y-13769509D01*
X11123143Y-10081573D02*
X11186643Y-10018073D01*
X11123143Y-9954573D01*
X11059643Y-10018073D01*
X11123143Y-10081573D01*
X11133574Y-8104324D02*
X11197074Y-8040824D01*
X11133574Y-7977324D01*
X11070074Y-8040824D01*
X11133574Y-8104324D01*
X11272136Y-14201374D02*
X11335636Y-14137874D01*
X11272136Y-14074374D01*
X11208636Y-14137874D01*
X11272136Y-14201374D01*
X11562185Y-8436578D02*
X11625685Y-8373078D01*
X11562185Y-8309578D01*
X11498685Y-8373078D01*
X11562185Y-8436578D01*
X11899245Y-12214698D02*
X11962745Y-12151198D01*
X11899245Y-12087698D01*
X11835745Y-12151198D01*
X11899245Y-12214698D01*
X12327856Y-12546952D02*
X12391356Y-12483452D01*
X12327856Y-12419952D01*
X12264356Y-12483452D01*
X12327856Y-12546952D01*
X12339456Y-10567798D02*
X12402956Y-10504298D01*
X12339456Y-10440798D01*
X12275956Y-10504298D01*
X12339456Y-10567798D01*
X12552219Y-14788596D02*
X12615719Y-14725096D01*
X12552219Y-14661596D01*
X12488719Y-14725096D01*
X12552219Y-14788596D01*
X12768067Y-10900052D02*
X12831567Y-10836552D01*
X12768067Y-10773052D01*
X12704567Y-10836552D01*
X12768067Y-10900052D01*
X12780577Y-8921981D02*
X12844077Y-8858481D01*
X12780577Y-8794981D01*
X12717077Y-8858481D01*
X12780577Y-8921981D01*
X12800255Y-15270859D02*
X12863755Y-15207359D01*
X12800255Y-15143859D01*
X12736755Y-15207359D01*
X12800255Y-15270859D01*
X13209188Y-9254235D02*
X13272688Y-9190735D01*
X13209188Y-9127235D01*
X13145688Y-9190735D01*
X13209188Y-9254235D01*
X15185684Y-9180792D02*
X15249184Y-9117292D01*
X15185684Y-9053792D01*
X15122184Y-9117292D01*
X15185684Y-9180792D01*
X15613827Y-15431384D02*
X15677327Y-15367884D01*
X15613827Y-15304384D01*
X15550327Y-15367884D01*
X15613827Y-15431384D01*
X15626805Y-10826609D02*
X15690305Y-10763109D01*
X15626805Y-10699609D01*
X15563305Y-10763109D01*
X15626805Y-10826609D01*
X15722999Y-9254227D02*
X15786499Y-9190727D01*
X15722999Y-9127227D01*
X15659499Y-9190727D01*
X15722999Y-9254227D01*
X16067017Y-12473509D02*
X16130517Y-12410009D01*
X16067017Y-12346509D01*
X16003517Y-12410009D01*
X16067017Y-12473509D01*
X16131834Y-15270859D02*
X16195334Y-15207359D01*
X16131834Y-15143859D01*
X16068334Y-15207359D01*
X16131834Y-15270859D01*
X16164120Y-10900044D02*
X16227620Y-10836544D01*
X16164120Y-10773044D01*
X16100620Y-10836544D01*
X16164120Y-10900044D01*
X16604332Y-12546943D02*
X16667832Y-12483443D01*
X16604332Y-12419943D01*
X16540832Y-12483443D01*
X16604332Y-12546943D01*
X16832688Y-8363135D02*
X16896188Y-8299635D01*
X16832688Y-8236135D01*
X16769188Y-8299635D01*
X16832688Y-8363135D01*
X17121297Y-14269509D02*
X17184797Y-14206009D01*
X17121297Y-14142509D01*
X17057797Y-14206009D01*
X17121297Y-14269509D01*
X17271730Y-10008129D02*
X17335230Y-9944629D01*
X17271730Y-9881129D01*
X17208230Y-9944629D01*
X17271730Y-10008129D01*
X17370003Y-8436570D02*
X17433503Y-8373070D01*
X17370003Y-8309570D01*
X17306503Y-8373070D01*
X17370003Y-8436570D01*
X17659309Y-14201374D02*
X17722809Y-14137874D01*
X17659309Y-14074374D01*
X17595809Y-14137874D01*
X17659309Y-14201374D01*
X17711593Y-11651045D02*
X17775093Y-11587545D01*
X17711593Y-11524045D01*
X17648093Y-11587545D01*
X17711593Y-11651045D01*
X17809045Y-10081564D02*
X17872545Y-10018064D01*
X17809045Y-9954564D01*
X17745545Y-10018064D01*
X17809045Y-10081564D01*
X18248908Y-11724479D02*
X18312408Y-11660979D01*
X18248908Y-11597479D01*
X18185408Y-11660979D01*
X18248908Y-11724479D01*
X18381626Y-7173810D02*
X18445126Y-7110310D01*
X18381626Y-7046810D01*
X18318126Y-7110310D01*
X18381626Y-7173810D01*
X18807005Y-13386329D02*
X18870505Y-13322829D01*
X18807005Y-13259329D01*
X18743505Y-13322829D01*
X18807005Y-13386329D01*
X18821925Y-8821706D02*
X18885425Y-8758206D01*
X18821925Y-8694706D01*
X18758425Y-8758206D01*
X18821925Y-8821706D01*
X18918941Y-7247245D02*
X18982441Y-7183745D01*
X18918941Y-7120245D01*
X18855441Y-7183745D01*
X18918941Y-7247245D01*
X19263308Y-10470512D02*
X19326808Y-10407012D01*
X19263308Y-10343512D01*
X19199808Y-10407012D01*
X19263308Y-10470512D01*
X19348675Y-13412655D02*
X19412175Y-13349155D01*
X19348675Y-13285655D01*
X19285175Y-13349155D01*
X19348675Y-13412655D01*
X19359240Y-8895141D02*
X19422740Y-8831641D01*
X19359240Y-8768141D01*
X19295740Y-8831641D01*
X19359240Y-8895141D01*
X19800622Y-10543946D02*
X19864122Y-10480446D01*
X19800622Y-10416946D01*
X19737122Y-10480446D01*
X19800622Y-10543946D01*
X20303251Y-7391960D02*
X20366751Y-7328460D01*
X20303251Y-7264960D01*
X20239751Y-7328460D01*
X20303251Y-7391960D01*
X20618582Y-12809551D02*
X20682082Y-12746051D01*
X20618582Y-12682551D01*
X20555082Y-12746051D01*
X20618582Y-12809551D01*
X20743289Y-9036867D02*
X20806789Y-8973367D01*
X20743289Y-8909867D01*
X20679789Y-8973367D01*
X20743289Y-9036867D01*
X20840566Y-7465394D02*
X20904066Y-7401894D01*
X20840566Y-7338394D01*
X20777066Y-7401894D01*
X20840566Y-7465394D01*
X21147452Y-12929537D02*
X21210952Y-12866037D01*
X21147452Y-12802537D01*
X21083952Y-12866037D01*
X21147452Y-12929537D01*
X21184584Y-10684676D02*
X21248084Y-10621176D01*
X21184584Y-10557676D01*
X21121084Y-10621176D01*
X21184584Y-10684676D01*
X21280604Y-9110302D02*
X21344104Y-9046802D01*
X21280604Y-8983302D01*
X21217104Y-9046802D01*
X21280604Y-9110302D01*
X21721899Y-10758111D02*
X21785399Y-10694611D01*
X21721899Y-10631111D01*
X21658399Y-10694611D01*
X21721899Y-10758111D01*
X22294637Y-7860181D02*
X22358137Y-7796681D01*
X22294637Y-7733181D01*
X22231137Y-7796681D01*
X22294637Y-7860181D01*
X22737751Y-9505823D02*
X22801251Y-9442323D01*
X22737751Y-9378823D01*
X22674251Y-9442323D01*
X22737751Y-9505823D01*
X22831952Y-7933615D02*
X22895452Y-7870115D01*
X22831952Y-7806615D01*
X22768452Y-7870115D01*
X22831952Y-7933615D01*
X23174800Y-11150992D02*
X23238300Y-11087492D01*
X23174800Y-11023992D01*
X23111300Y-11087492D01*
X23174800Y-11150992D01*
X23275066Y-9579258D02*
X23338566Y-9515758D01*
X23275066Y-9452258D01*
X23211566Y-9515758D01*
X23275066Y-9579258D01*
X23712115Y-11224427D02*
X23775615Y-11160927D01*
X23712115Y-11097427D01*
X23648615Y-11160927D01*
X23712115Y-11224427D01*
X24036164Y-7388602D02*
X24099664Y-7325102D01*
X24036164Y-7261602D01*
X23972664Y-7325102D01*
X24036164Y-7388602D01*
X24476288Y-9034506D02*
X24539788Y-8971006D01*
X24476288Y-8907506D01*
X24412788Y-8971006D01*
X24476288Y-9034506D01*
X24573478Y-7462037D02*
X24636978Y-7398537D01*
X24573478Y-7335037D01*
X24509978Y-7398537D01*
X24573478Y-7462037D01*
X24917671Y-10683311D02*
X24981171Y-10619811D01*
X24917671Y-10556311D01*
X24854171Y-10619811D01*
X24917671Y-10683311D01*
X25013603Y-9107941D02*
X25077103Y-9044441D01*
X25013603Y-8980941D01*
X24950103Y-9044441D01*
X25013603Y-9107941D01*
X25454986Y-10756746D02*
X25518486Y-10693246D01*
X25454986Y-10629746D01*
X25391486Y-10693246D01*
X25454986Y-10756746D01*
X13831000Y-12875000D02*
X13981000Y-13025000D01*
X13981000Y-12875000D02*
X13831000Y-13025000D01*
X13981000Y-12950000D02*
G75*
G03*
X13981000Y-12950000I-75000J0D01*
G01*
X13971000Y-13015000D02*
X13971000Y-12885000D01*
X13841000Y-13015000D02*
X13841000Y-12885000D01*
X13971000Y-12885000D02*
G75*
G03*
X13841000Y-12885000I-65000J0D01*
G01*
X13841000Y-13015000D02*
G75*
G03*
X13971000Y-13015000I65000J0D01*
G01*
X14951000Y-12875000D02*
X15101000Y-13025000D01*
X15101000Y-12875000D02*
X14951000Y-13025000D01*
X15101000Y-12950000D02*
G75*
G03*
X15101000Y-12950000I-75000J0D01*
G01*
X15091000Y-13015000D02*
X15091000Y-12885000D01*
X14961000Y-13015000D02*
X14961000Y-12885000D01*
X15091000Y-12885000D02*
G75*
G03*
X14961000Y-12885000I-65000J0D01*
G01*
X14961000Y-13015000D02*
G75*
G03*
X15091000Y-13015000I65000J0D01*
G01*
D12*
X2535428Y-16666714D02*
X2535428Y-16366714D01*
X2606857Y-16366714D01*
X2649714Y-16381000D01*
X2678286Y-16409571D01*
X2692571Y-16438143D01*
X2706857Y-16495286D01*
X2706857Y-16538143D01*
X2692571Y-16595286D01*
X2678286Y-16623857D01*
X2649714Y-16652429D01*
X2606857Y-16666714D01*
X2535428Y-16666714D01*
X2835428Y-16666714D02*
X2835428Y-16466714D01*
X2835428Y-16523857D02*
X2849714Y-16495286D01*
X2864000Y-16481000D01*
X2892571Y-16466714D01*
X2921143Y-16466714D01*
X3021143Y-16666714D02*
X3021143Y-16466714D01*
X3021143Y-16366714D02*
X3006857Y-16381000D01*
X3021143Y-16395286D01*
X3035428Y-16381000D01*
X3021143Y-16366714D01*
X3021143Y-16395286D01*
X3206857Y-16666714D02*
X3178286Y-16652429D01*
X3164000Y-16623857D01*
X3164000Y-16366714D01*
X3364000Y-16666714D02*
X3335428Y-16652429D01*
X3321143Y-16623857D01*
X3321143Y-16366714D01*
X3706857Y-16666714D02*
X3706857Y-16366714D01*
X3806857Y-16581000D01*
X3906857Y-16366714D01*
X3906857Y-16666714D01*
X4178286Y-16666714D02*
X4178286Y-16509571D01*
X4164000Y-16481000D01*
X4135428Y-16466714D01*
X4078286Y-16466714D01*
X4049714Y-16481000D01*
X4178286Y-16652429D02*
X4149714Y-16666714D01*
X4078286Y-16666714D01*
X4049714Y-16652429D01*
X4035428Y-16623857D01*
X4035428Y-16595286D01*
X4049714Y-16566714D01*
X4078286Y-16552429D01*
X4149714Y-16552429D01*
X4178286Y-16538143D01*
X4321143Y-16466714D02*
X4321143Y-16766714D01*
X4321143Y-16481000D02*
X4349714Y-16466714D01*
X4406857Y-16466714D01*
X4435428Y-16481000D01*
X4449714Y-16495286D01*
X4464000Y-16523857D01*
X4464000Y-16609571D01*
X4449714Y-16638143D01*
X4435428Y-16652429D01*
X4406857Y-16666714D01*
X4349714Y-16666714D01*
X4321143Y-16652429D01*
X4592571Y-16638143D02*
X4606857Y-16652429D01*
X4592571Y-16666714D01*
X4578286Y-16652429D01*
X4592571Y-16638143D01*
X4592571Y-16666714D01*
X4592571Y-16481000D02*
X4606857Y-16495286D01*
X4592571Y-16509571D01*
X4578286Y-16495286D01*
X4592571Y-16481000D01*
X4592571Y-16509571D01*
X2219000Y-17146000D02*
X2249000Y-17176000D01*
X2249000Y-17146000D02*
X2219000Y-17176000D01*
X2592571Y-16996714D02*
X2621143Y-16996714D01*
X2649714Y-17011000D01*
X2664000Y-17025286D01*
X2678286Y-17053857D01*
X2692571Y-17111000D01*
X2692571Y-17182429D01*
X2678286Y-17239572D01*
X2664000Y-17268143D01*
X2649714Y-17282429D01*
X2621143Y-17296714D01*
X2592571Y-17296714D01*
X2564000Y-17282429D01*
X2549714Y-17268143D01*
X2535428Y-17239572D01*
X2521143Y-17182429D01*
X2521143Y-17111000D01*
X2535428Y-17053857D01*
X2549714Y-17025286D01*
X2564000Y-17011000D01*
X2592571Y-16996714D01*
X2821143Y-17268143D02*
X2835428Y-17282429D01*
X2821143Y-17296714D01*
X2806857Y-17282429D01*
X2821143Y-17268143D01*
X2821143Y-17296714D01*
X2935428Y-16996714D02*
X3121143Y-16996714D01*
X3021143Y-17111000D01*
X3064000Y-17111000D01*
X3092571Y-17125286D01*
X3106857Y-17139572D01*
X3121143Y-17168143D01*
X3121143Y-17239572D01*
X3106857Y-17268143D01*
X3092571Y-17282429D01*
X3064000Y-17296714D01*
X2978286Y-17296714D01*
X2949714Y-17282429D01*
X2935428Y-17268143D01*
X3306857Y-16996714D02*
X3335428Y-16996714D01*
X3364000Y-17011000D01*
X3378286Y-17025286D01*
X3392571Y-17053857D01*
X3406857Y-17111000D01*
X3406857Y-17182429D01*
X3392571Y-17239572D01*
X3378286Y-17268143D01*
X3364000Y-17282429D01*
X3335428Y-17296714D01*
X3306857Y-17296714D01*
X3278286Y-17282429D01*
X3264000Y-17268143D01*
X3249714Y-17239572D01*
X3235428Y-17182429D01*
X3235428Y-17111000D01*
X3249714Y-17053857D01*
X3264000Y-17025286D01*
X3278286Y-17011000D01*
X3306857Y-16996714D01*
X3535428Y-17296714D02*
X3535428Y-17096714D01*
X3535428Y-17125286D02*
X3549714Y-17111000D01*
X3578286Y-17096714D01*
X3621143Y-17096714D01*
X3649714Y-17111000D01*
X3664000Y-17139572D01*
X3664000Y-17296714D01*
X3664000Y-17139572D02*
X3678286Y-17111000D01*
X3706857Y-17096714D01*
X3749714Y-17096714D01*
X3778286Y-17111000D01*
X3792571Y-17139572D01*
X3792571Y-17296714D01*
X3935428Y-17296714D02*
X3935428Y-17096714D01*
X3935428Y-17125286D02*
X3949714Y-17111000D01*
X3978286Y-17096714D01*
X4021143Y-17096714D01*
X4049714Y-17111000D01*
X4064000Y-17139572D01*
X4064000Y-17296714D01*
X4064000Y-17139572D02*
X4078286Y-17111000D01*
X4106857Y-17096714D01*
X4149714Y-17096714D01*
X4178286Y-17111000D01*
X4192571Y-17139572D01*
X4192571Y-17296714D01*
X4778286Y-16982429D02*
X4521143Y-17368143D01*
X5164000Y-16996714D02*
X5192571Y-16996714D01*
X5221143Y-17011000D01*
X5235428Y-17025286D01*
X5249714Y-17053857D01*
X5264000Y-17111000D01*
X5264000Y-17182429D01*
X5249714Y-17239572D01*
X5235428Y-17268143D01*
X5221143Y-17282429D01*
X5192571Y-17296714D01*
X5164000Y-17296714D01*
X5135428Y-17282429D01*
X5121143Y-17268143D01*
X5106857Y-17239572D01*
X5092571Y-17182429D01*
X5092571Y-17111000D01*
X5106857Y-17053857D01*
X5121143Y-17025286D01*
X5135428Y-17011000D01*
X5164000Y-16996714D01*
X5392571Y-17268143D02*
X5406857Y-17282429D01*
X5392571Y-17296714D01*
X5378286Y-17282429D01*
X5392571Y-17268143D01*
X5392571Y-17296714D01*
X5592571Y-16996714D02*
X5621143Y-16996714D01*
X5649714Y-17011000D01*
X5664000Y-17025286D01*
X5678286Y-17053857D01*
X5692571Y-17111000D01*
X5692571Y-17182429D01*
X5678286Y-17239572D01*
X5664000Y-17268143D01*
X5649714Y-17282429D01*
X5621143Y-17296714D01*
X5592571Y-17296714D01*
X5564000Y-17282429D01*
X5549714Y-17268143D01*
X5535428Y-17239572D01*
X5521143Y-17182429D01*
X5521143Y-17111000D01*
X5535428Y-17053857D01*
X5549714Y-17025286D01*
X5564000Y-17011000D01*
X5592571Y-16996714D01*
X5978286Y-17296714D02*
X5806857Y-17296714D01*
X5892571Y-17296714D02*
X5892571Y-16996714D01*
X5864000Y-17039572D01*
X5835428Y-17068143D01*
X5806857Y-17082429D01*
X6092571Y-17025286D02*
X6106857Y-17011000D01*
X6135428Y-16996714D01*
X6206857Y-16996714D01*
X6235428Y-17011000D01*
X6249714Y-17025286D01*
X6264000Y-17053857D01*
X6264000Y-17082429D01*
X6249714Y-17125286D01*
X6078286Y-17296714D01*
X6264000Y-17296714D01*
X6378286Y-16996714D02*
X6378286Y-17053857D01*
X6492571Y-16996714D02*
X6492571Y-17053857D01*
X6935428Y-17411000D02*
X6921143Y-17396714D01*
X6892571Y-17353857D01*
X6878286Y-17325286D01*
X6864000Y-17282429D01*
X6849714Y-17211000D01*
X6849714Y-17153857D01*
X6864000Y-17082429D01*
X6878286Y-17039572D01*
X6892571Y-17011000D01*
X6921143Y-16968143D01*
X6935428Y-16953857D01*
X7021143Y-16996714D02*
X7221143Y-16996714D01*
X7092571Y-17296714D01*
X7392571Y-16996714D02*
X7421143Y-16996714D01*
X7449714Y-17011000D01*
X7464000Y-17025286D01*
X7478286Y-17053857D01*
X7492571Y-17111000D01*
X7492571Y-17182429D01*
X7478286Y-17239572D01*
X7464000Y-17268143D01*
X7449714Y-17282429D01*
X7421143Y-17296714D01*
X7392571Y-17296714D01*
X7364000Y-17282429D01*
X7349714Y-17268143D01*
X7335428Y-17239572D01*
X7321143Y-17182429D01*
X7321143Y-17111000D01*
X7335428Y-17053857D01*
X7349714Y-17025286D01*
X7364000Y-17011000D01*
X7392571Y-16996714D01*
X7849714Y-17296714D02*
X7849714Y-16996714D01*
X7978286Y-17296714D02*
X7978286Y-17139572D01*
X7964000Y-17111000D01*
X7935428Y-17096714D01*
X7892571Y-17096714D01*
X7864000Y-17111000D01*
X7849714Y-17125286D01*
X8164000Y-17296714D02*
X8135428Y-17282429D01*
X8121143Y-17268143D01*
X8106857Y-17239572D01*
X8106857Y-17153857D01*
X8121143Y-17125286D01*
X8135428Y-17111000D01*
X8164000Y-17096714D01*
X8206857Y-17096714D01*
X8235428Y-17111000D01*
X8249714Y-17125286D01*
X8264000Y-17153857D01*
X8264000Y-17239572D01*
X8249714Y-17268143D01*
X8235428Y-17282429D01*
X8206857Y-17296714D01*
X8164000Y-17296714D01*
X8435428Y-17296714D02*
X8406857Y-17282429D01*
X8392571Y-17253857D01*
X8392571Y-16996714D01*
X8664000Y-17282429D02*
X8635428Y-17296714D01*
X8578286Y-17296714D01*
X8549714Y-17282429D01*
X8535428Y-17253857D01*
X8535428Y-17139572D01*
X8549714Y-17111000D01*
X8578286Y-17096714D01*
X8635428Y-17096714D01*
X8664000Y-17111000D01*
X8678286Y-17139572D01*
X8678286Y-17168143D01*
X8535428Y-17196714D01*
X8792571Y-17282429D02*
X8821143Y-17296714D01*
X8878286Y-17296714D01*
X8906857Y-17282429D01*
X8921143Y-17253857D01*
X8921143Y-17239572D01*
X8906857Y-17211000D01*
X8878286Y-17196714D01*
X8835428Y-17196714D01*
X8806857Y-17182429D01*
X8792571Y-17153857D01*
X8792571Y-17139572D01*
X8806857Y-17111000D01*
X8835428Y-17096714D01*
X8878286Y-17096714D01*
X8906857Y-17111000D01*
X9021143Y-17411000D02*
X9035428Y-17396714D01*
X9064000Y-17353857D01*
X9078286Y-17325286D01*
X9092571Y-17282429D01*
X9106857Y-17211000D01*
X9106857Y-17153857D01*
X9092571Y-17082429D01*
X9078286Y-17039572D01*
X9064000Y-17011000D01*
X9035428Y-16968143D01*
X9021143Y-16953857D01*
X2249000Y-17557000D02*
G75*
G03*
X2249000Y-17557000I-40000J0D01*
G01*
X2592571Y-17392714D02*
X2621143Y-17392714D01*
X2649714Y-17407000D01*
X2664000Y-17421286D01*
X2678286Y-17449857D01*
X2692571Y-17507000D01*
X2692571Y-17578429D01*
X2678286Y-17635572D01*
X2664000Y-17664143D01*
X2649714Y-17678429D01*
X2621143Y-17692714D01*
X2592571Y-17692714D01*
X2564000Y-17678429D01*
X2549714Y-17664143D01*
X2535428Y-17635572D01*
X2521143Y-17578429D01*
X2521143Y-17507000D01*
X2535428Y-17449857D01*
X2549714Y-17421286D01*
X2564000Y-17407000D01*
X2592571Y-17392714D01*
X2821143Y-17664143D02*
X2835428Y-17678429D01*
X2821143Y-17692714D01*
X2806857Y-17678429D01*
X2821143Y-17664143D01*
X2821143Y-17692714D01*
X3006857Y-17521286D02*
X2978286Y-17507000D01*
X2964000Y-17492714D01*
X2949714Y-17464143D01*
X2949714Y-17449857D01*
X2964000Y-17421286D01*
X2978286Y-17407000D01*
X3006857Y-17392714D01*
X3064000Y-17392714D01*
X3092571Y-17407000D01*
X3106857Y-17421286D01*
X3121143Y-17449857D01*
X3121143Y-17464143D01*
X3106857Y-17492714D01*
X3092571Y-17507000D01*
X3064000Y-17521286D01*
X3006857Y-17521286D01*
X2978286Y-17535572D01*
X2964000Y-17549857D01*
X2949714Y-17578429D01*
X2949714Y-17635572D01*
X2964000Y-17664143D01*
X2978286Y-17678429D01*
X3006857Y-17692714D01*
X3064000Y-17692714D01*
X3092571Y-17678429D01*
X3106857Y-17664143D01*
X3121143Y-17635572D01*
X3121143Y-17578429D01*
X3106857Y-17549857D01*
X3092571Y-17535572D01*
X3064000Y-17521286D01*
X3306857Y-17392714D02*
X3335428Y-17392714D01*
X3364000Y-17407000D01*
X3378286Y-17421286D01*
X3392571Y-17449857D01*
X3406857Y-17507000D01*
X3406857Y-17578429D01*
X3392571Y-17635572D01*
X3378286Y-17664143D01*
X3364000Y-17678429D01*
X3335428Y-17692714D01*
X3306857Y-17692714D01*
X3278286Y-17678429D01*
X3264000Y-17664143D01*
X3249714Y-17635572D01*
X3235428Y-17578429D01*
X3235428Y-17507000D01*
X3249714Y-17449857D01*
X3264000Y-17421286D01*
X3278286Y-17407000D01*
X3306857Y-17392714D01*
X3535428Y-17692714D02*
X3535428Y-17492714D01*
X3535428Y-17521286D02*
X3549714Y-17507000D01*
X3578286Y-17492714D01*
X3621143Y-17492714D01*
X3649714Y-17507000D01*
X3664000Y-17535572D01*
X3664000Y-17692714D01*
X3664000Y-17535572D02*
X3678286Y-17507000D01*
X3706857Y-17492714D01*
X3749714Y-17492714D01*
X3778286Y-17507000D01*
X3792571Y-17535572D01*
X3792571Y-17692714D01*
X3935428Y-17692714D02*
X3935428Y-17492714D01*
X3935428Y-17521286D02*
X3949714Y-17507000D01*
X3978286Y-17492714D01*
X4021143Y-17492714D01*
X4049714Y-17507000D01*
X4064000Y-17535572D01*
X4064000Y-17692714D01*
X4064000Y-17535572D02*
X4078286Y-17507000D01*
X4106857Y-17492714D01*
X4149714Y-17492714D01*
X4178286Y-17507000D01*
X4192571Y-17535572D01*
X4192571Y-17692714D01*
X4778286Y-17378429D02*
X4521143Y-17764143D01*
X5164000Y-17392714D02*
X5192571Y-17392714D01*
X5221143Y-17407000D01*
X5235428Y-17421286D01*
X5249714Y-17449857D01*
X5264000Y-17507000D01*
X5264000Y-17578429D01*
X5249714Y-17635572D01*
X5235428Y-17664143D01*
X5221143Y-17678429D01*
X5192571Y-17692714D01*
X5164000Y-17692714D01*
X5135428Y-17678429D01*
X5121143Y-17664143D01*
X5106857Y-17635572D01*
X5092571Y-17578429D01*
X5092571Y-17507000D01*
X5106857Y-17449857D01*
X5121143Y-17421286D01*
X5135428Y-17407000D01*
X5164000Y-17392714D01*
X5392571Y-17664143D02*
X5406857Y-17678429D01*
X5392571Y-17692714D01*
X5378286Y-17678429D01*
X5392571Y-17664143D01*
X5392571Y-17692714D01*
X5592571Y-17392714D02*
X5621143Y-17392714D01*
X5649714Y-17407000D01*
X5664000Y-17421286D01*
X5678286Y-17449857D01*
X5692571Y-17507000D01*
X5692571Y-17578429D01*
X5678286Y-17635572D01*
X5664000Y-17664143D01*
X5649714Y-17678429D01*
X5621143Y-17692714D01*
X5592571Y-17692714D01*
X5564000Y-17678429D01*
X5549714Y-17664143D01*
X5535428Y-17635572D01*
X5521143Y-17578429D01*
X5521143Y-17507000D01*
X5535428Y-17449857D01*
X5549714Y-17421286D01*
X5564000Y-17407000D01*
X5592571Y-17392714D01*
X5792571Y-17392714D02*
X5978286Y-17392714D01*
X5878286Y-17507000D01*
X5921143Y-17507000D01*
X5949714Y-17521286D01*
X5964000Y-17535572D01*
X5978286Y-17564143D01*
X5978286Y-17635572D01*
X5964000Y-17664143D01*
X5949714Y-17678429D01*
X5921143Y-17692714D01*
X5835428Y-17692714D01*
X5806857Y-17678429D01*
X5792571Y-17664143D01*
X6264000Y-17692714D02*
X6092571Y-17692714D01*
X6178286Y-17692714D02*
X6178286Y-17392714D01*
X6149714Y-17435572D01*
X6121143Y-17464143D01*
X6092571Y-17478429D01*
X6378286Y-17392714D02*
X6378286Y-17449857D01*
X6492571Y-17392714D02*
X6492571Y-17449857D01*
X6935428Y-17807000D02*
X6921143Y-17792714D01*
X6892571Y-17749857D01*
X6878286Y-17721286D01*
X6864000Y-17678429D01*
X6849714Y-17607000D01*
X6849714Y-17549857D01*
X6864000Y-17478429D01*
X6878286Y-17435572D01*
X6892571Y-17407000D01*
X6921143Y-17364143D01*
X6935428Y-17349857D01*
X7206857Y-17692714D02*
X7035428Y-17692714D01*
X7121143Y-17692714D02*
X7121143Y-17392714D01*
X7092571Y-17435572D01*
X7064000Y-17464143D01*
X7035428Y-17478429D01*
X7392571Y-17392714D02*
X7421143Y-17392714D01*
X7449714Y-17407000D01*
X7464000Y-17421286D01*
X7478286Y-17449857D01*
X7492571Y-17507000D01*
X7492571Y-17578429D01*
X7478286Y-17635572D01*
X7464000Y-17664143D01*
X7449714Y-17678429D01*
X7421143Y-17692714D01*
X7392571Y-17692714D01*
X7364000Y-17678429D01*
X7349714Y-17664143D01*
X7335428Y-17635572D01*
X7321143Y-17578429D01*
X7321143Y-17507000D01*
X7335428Y-17449857D01*
X7349714Y-17421286D01*
X7364000Y-17407000D01*
X7392571Y-17392714D01*
X7849714Y-17692714D02*
X7849714Y-17392714D01*
X7978286Y-17692714D02*
X7978286Y-17535572D01*
X7964000Y-17507000D01*
X7935428Y-17492714D01*
X7892571Y-17492714D01*
X7864000Y-17507000D01*
X7849714Y-17521286D01*
X8164000Y-17692714D02*
X8135428Y-17678429D01*
X8121143Y-17664143D01*
X8106857Y-17635572D01*
X8106857Y-17549857D01*
X8121143Y-17521286D01*
X8135428Y-17507000D01*
X8164000Y-17492714D01*
X8206857Y-17492714D01*
X8235428Y-17507000D01*
X8249714Y-17521286D01*
X8264000Y-17549857D01*
X8264000Y-17635572D01*
X8249714Y-17664143D01*
X8235428Y-17678429D01*
X8206857Y-17692714D01*
X8164000Y-17692714D01*
X8435428Y-17692714D02*
X8406857Y-17678429D01*
X8392571Y-17649857D01*
X8392571Y-17392714D01*
X8664000Y-17678429D02*
X8635428Y-17692714D01*
X8578286Y-17692714D01*
X8549714Y-17678429D01*
X8535428Y-17649857D01*
X8535428Y-17535572D01*
X8549714Y-17507000D01*
X8578286Y-17492714D01*
X8635428Y-17492714D01*
X8664000Y-17507000D01*
X8678286Y-17535572D01*
X8678286Y-17564143D01*
X8535428Y-17592714D01*
X8792571Y-17678429D02*
X8821143Y-17692714D01*
X8878286Y-17692714D01*
X8906857Y-17678429D01*
X8921143Y-17649857D01*
X8921143Y-17635572D01*
X8906857Y-17607000D01*
X8878286Y-17592714D01*
X8835428Y-17592714D01*
X8806857Y-17578429D01*
X8792571Y-17549857D01*
X8792571Y-17535572D01*
X8806857Y-17507000D01*
X8835428Y-17492714D01*
X8878286Y-17492714D01*
X8906857Y-17507000D01*
X9021143Y-17807000D02*
X9035428Y-17792714D01*
X9064000Y-17749857D01*
X9078286Y-17721286D01*
X9092571Y-17678429D01*
X9106857Y-17607000D01*
X9106857Y-17549857D01*
X9092571Y-17478429D01*
X9078286Y-17435572D01*
X9064000Y-17407000D01*
X9035428Y-17364143D01*
X9021143Y-17349857D01*
X2199000Y-17903000D02*
X2199000Y-18003000D01*
X2149000Y-17953000D02*
X2249000Y-17953000D01*
X2692571Y-18088714D02*
X2521143Y-18088714D01*
X2606857Y-18088714D02*
X2606857Y-17788714D01*
X2578286Y-17831572D01*
X2549714Y-17860143D01*
X2521143Y-17874429D01*
X2821143Y-18060143D02*
X2835428Y-18074429D01*
X2821143Y-18088714D01*
X2806857Y-18074429D01*
X2821143Y-18060143D01*
X2821143Y-18088714D01*
X3021143Y-17788714D02*
X3049714Y-17788714D01*
X3078286Y-17803000D01*
X3092571Y-17817286D01*
X3106857Y-17845857D01*
X3121143Y-17903000D01*
X3121143Y-17974429D01*
X3106857Y-18031572D01*
X3092571Y-18060143D01*
X3078286Y-18074429D01*
X3049714Y-18088714D01*
X3021143Y-18088714D01*
X2992571Y-18074429D01*
X2978286Y-18060143D01*
X2964000Y-18031572D01*
X2949714Y-17974429D01*
X2949714Y-17903000D01*
X2964000Y-17845857D01*
X2978286Y-17817286D01*
X2992571Y-17803000D01*
X3021143Y-17788714D01*
X3306857Y-17788714D02*
X3335428Y-17788714D01*
X3364000Y-17803000D01*
X3378286Y-17817286D01*
X3392571Y-17845857D01*
X3406857Y-17903000D01*
X3406857Y-17974429D01*
X3392571Y-18031572D01*
X3378286Y-18060143D01*
X3364000Y-18074429D01*
X3335428Y-18088714D01*
X3306857Y-18088714D01*
X3278286Y-18074429D01*
X3264000Y-18060143D01*
X3249714Y-18031572D01*
X3235428Y-17974429D01*
X3235428Y-17903000D01*
X3249714Y-17845857D01*
X3264000Y-17817286D01*
X3278286Y-17803000D01*
X3306857Y-17788714D01*
X3535428Y-18088714D02*
X3535428Y-17888714D01*
X3535428Y-17917286D02*
X3549714Y-17903000D01*
X3578286Y-17888714D01*
X3621143Y-17888714D01*
X3649714Y-17903000D01*
X3664000Y-17931572D01*
X3664000Y-18088714D01*
X3664000Y-17931572D02*
X3678286Y-17903000D01*
X3706857Y-17888714D01*
X3749714Y-17888714D01*
X3778286Y-17903000D01*
X3792571Y-17931572D01*
X3792571Y-18088714D01*
X3935428Y-18088714D02*
X3935428Y-17888714D01*
X3935428Y-17917286D02*
X3949714Y-17903000D01*
X3978286Y-17888714D01*
X4021143Y-17888714D01*
X4049714Y-17903000D01*
X4064000Y-17931572D01*
X4064000Y-18088714D01*
X4064000Y-17931572D02*
X4078286Y-17903000D01*
X4106857Y-17888714D01*
X4149714Y-17888714D01*
X4178286Y-17903000D01*
X4192571Y-17931572D01*
X4192571Y-18088714D01*
X4778286Y-17774429D02*
X4521143Y-18160143D01*
X5164000Y-17788714D02*
X5192571Y-17788714D01*
X5221143Y-17803000D01*
X5235428Y-17817286D01*
X5249714Y-17845857D01*
X5264000Y-17903000D01*
X5264000Y-17974429D01*
X5249714Y-18031572D01*
X5235428Y-18060143D01*
X5221143Y-18074429D01*
X5192571Y-18088714D01*
X5164000Y-18088714D01*
X5135428Y-18074429D01*
X5121143Y-18060143D01*
X5106857Y-18031572D01*
X5092571Y-17974429D01*
X5092571Y-17903000D01*
X5106857Y-17845857D01*
X5121143Y-17817286D01*
X5135428Y-17803000D01*
X5164000Y-17788714D01*
X5392571Y-18060143D02*
X5406857Y-18074429D01*
X5392571Y-18088714D01*
X5378286Y-18074429D01*
X5392571Y-18060143D01*
X5392571Y-18088714D01*
X5592571Y-17788714D02*
X5621143Y-17788714D01*
X5649714Y-17803000D01*
X5664000Y-17817286D01*
X5678286Y-17845857D01*
X5692571Y-17903000D01*
X5692571Y-17974429D01*
X5678286Y-18031572D01*
X5664000Y-18060143D01*
X5649714Y-18074429D01*
X5621143Y-18088714D01*
X5592571Y-18088714D01*
X5564000Y-18074429D01*
X5549714Y-18060143D01*
X5535428Y-18031572D01*
X5521143Y-17974429D01*
X5521143Y-17903000D01*
X5535428Y-17845857D01*
X5549714Y-17817286D01*
X5564000Y-17803000D01*
X5592571Y-17788714D01*
X5792571Y-17788714D02*
X5978286Y-17788714D01*
X5878286Y-17903000D01*
X5921143Y-17903000D01*
X5949714Y-17917286D01*
X5964000Y-17931572D01*
X5978286Y-17960143D01*
X5978286Y-18031572D01*
X5964000Y-18060143D01*
X5949714Y-18074429D01*
X5921143Y-18088714D01*
X5835428Y-18088714D01*
X5806857Y-18074429D01*
X5792571Y-18060143D01*
X6121143Y-18088714D02*
X6178286Y-18088714D01*
X6206857Y-18074429D01*
X6221143Y-18060143D01*
X6249714Y-18017286D01*
X6264000Y-17960143D01*
X6264000Y-17845857D01*
X6249714Y-17817286D01*
X6235428Y-17803000D01*
X6206857Y-17788714D01*
X6149714Y-17788714D01*
X6121143Y-17803000D01*
X6106857Y-17817286D01*
X6092571Y-17845857D01*
X6092571Y-17917286D01*
X6106857Y-17945857D01*
X6121143Y-17960143D01*
X6149714Y-17974429D01*
X6206857Y-17974429D01*
X6235428Y-17960143D01*
X6249714Y-17945857D01*
X6264000Y-17917286D01*
X6378286Y-17788714D02*
X6378286Y-17845857D01*
X6492571Y-17788714D02*
X6492571Y-17845857D01*
X6935428Y-18203000D02*
X6921143Y-18188714D01*
X6892571Y-18145857D01*
X6878286Y-18117286D01*
X6864000Y-18074429D01*
X6849714Y-18003000D01*
X6849714Y-17945857D01*
X6864000Y-17874429D01*
X6878286Y-17831572D01*
X6892571Y-17803000D01*
X6921143Y-17760143D01*
X6935428Y-17745857D01*
X7064000Y-18088714D02*
X7121143Y-18088714D01*
X7149714Y-18074429D01*
X7164000Y-18060143D01*
X7192571Y-18017286D01*
X7206857Y-17960143D01*
X7206857Y-17845857D01*
X7192571Y-17817286D01*
X7178286Y-17803000D01*
X7149714Y-17788714D01*
X7092571Y-17788714D01*
X7064000Y-17803000D01*
X7049714Y-17817286D01*
X7035428Y-17845857D01*
X7035428Y-17917286D01*
X7049714Y-17945857D01*
X7064000Y-17960143D01*
X7092571Y-17974429D01*
X7149714Y-17974429D01*
X7178286Y-17960143D01*
X7192571Y-17945857D01*
X7206857Y-17917286D01*
X7349714Y-18088714D02*
X7406857Y-18088714D01*
X7435428Y-18074429D01*
X7449714Y-18060143D01*
X7478286Y-18017286D01*
X7492571Y-17960143D01*
X7492571Y-17845857D01*
X7478286Y-17817286D01*
X7464000Y-17803000D01*
X7435428Y-17788714D01*
X7378286Y-17788714D01*
X7349714Y-17803000D01*
X7335428Y-17817286D01*
X7321143Y-17845857D01*
X7321143Y-17917286D01*
X7335428Y-17945857D01*
X7349714Y-17960143D01*
X7378286Y-17974429D01*
X7435428Y-17974429D01*
X7464000Y-17960143D01*
X7478286Y-17945857D01*
X7492571Y-17917286D01*
X7849714Y-18088714D02*
X7849714Y-17788714D01*
X7978286Y-18088714D02*
X7978286Y-17931572D01*
X7964000Y-17903000D01*
X7935428Y-17888714D01*
X7892571Y-17888714D01*
X7864000Y-17903000D01*
X7849714Y-17917286D01*
X8164000Y-18088714D02*
X8135428Y-18074429D01*
X8121143Y-18060143D01*
X8106857Y-18031572D01*
X8106857Y-17945857D01*
X8121143Y-17917286D01*
X8135428Y-17903000D01*
X8164000Y-17888714D01*
X8206857Y-17888714D01*
X8235428Y-17903000D01*
X8249714Y-17917286D01*
X8264000Y-17945857D01*
X8264000Y-18031572D01*
X8249714Y-18060143D01*
X8235428Y-18074429D01*
X8206857Y-18088714D01*
X8164000Y-18088714D01*
X8435428Y-18088714D02*
X8406857Y-18074429D01*
X8392571Y-18045857D01*
X8392571Y-17788714D01*
X8664000Y-18074429D02*
X8635428Y-18088714D01*
X8578286Y-18088714D01*
X8549714Y-18074429D01*
X8535428Y-18045857D01*
X8535428Y-17931572D01*
X8549714Y-17903000D01*
X8578286Y-17888714D01*
X8635428Y-17888714D01*
X8664000Y-17903000D01*
X8678286Y-17931572D01*
X8678286Y-17960143D01*
X8535428Y-17988714D01*
X8792571Y-18074429D02*
X8821143Y-18088714D01*
X8878286Y-18088714D01*
X8906857Y-18074429D01*
X8921143Y-18045857D01*
X8921143Y-18031572D01*
X8906857Y-18003000D01*
X8878286Y-17988714D01*
X8835428Y-17988714D01*
X8806857Y-17974429D01*
X8792571Y-17945857D01*
X8792571Y-17931572D01*
X8806857Y-17903000D01*
X8835428Y-17888714D01*
X8878286Y-17888714D01*
X8906857Y-17903000D01*
X9021143Y-18203000D02*
X9035428Y-18188714D01*
X9064000Y-18145857D01*
X9078286Y-18117286D01*
X9092571Y-18074429D01*
X9106857Y-18003000D01*
X9106857Y-17945857D01*
X9092571Y-17874429D01*
X9078286Y-17831572D01*
X9064000Y-17803000D01*
X9035428Y-17760143D01*
X9021143Y-17745857D01*
X2233005Y-18387616D02*
X2233005Y-18310385D01*
X2155774Y-18310385D01*
X2155774Y-18387616D01*
X2233005Y-18387616D01*
X2692571Y-18484714D02*
X2521143Y-18484714D01*
X2606857Y-18484714D02*
X2606857Y-18184714D01*
X2578286Y-18227572D01*
X2549714Y-18256143D01*
X2521143Y-18270429D01*
X2821143Y-18456143D02*
X2835428Y-18470429D01*
X2821143Y-18484714D01*
X2806857Y-18470429D01*
X2821143Y-18456143D01*
X2821143Y-18484714D01*
X3021143Y-18184714D02*
X3049714Y-18184714D01*
X3078286Y-18199000D01*
X3092571Y-18213286D01*
X3106857Y-18241857D01*
X3121143Y-18299000D01*
X3121143Y-18370429D01*
X3106857Y-18427572D01*
X3092571Y-18456143D01*
X3078286Y-18470429D01*
X3049714Y-18484714D01*
X3021143Y-18484714D01*
X2992571Y-18470429D01*
X2978286Y-18456143D01*
X2964000Y-18427572D01*
X2949714Y-18370429D01*
X2949714Y-18299000D01*
X2964000Y-18241857D01*
X2978286Y-18213286D01*
X2992571Y-18199000D01*
X3021143Y-18184714D01*
X3264000Y-18484714D02*
X3321143Y-18484714D01*
X3349714Y-18470429D01*
X3364000Y-18456143D01*
X3392571Y-18413286D01*
X3406857Y-18356143D01*
X3406857Y-18241857D01*
X3392571Y-18213286D01*
X3378286Y-18199000D01*
X3349714Y-18184714D01*
X3292571Y-18184714D01*
X3264000Y-18199000D01*
X3249714Y-18213286D01*
X3235428Y-18241857D01*
X3235428Y-18313286D01*
X3249714Y-18341857D01*
X3264000Y-18356143D01*
X3292571Y-18370429D01*
X3349714Y-18370429D01*
X3378286Y-18356143D01*
X3392571Y-18341857D01*
X3406857Y-18313286D01*
X3535428Y-18484714D02*
X3535428Y-18284714D01*
X3535428Y-18313286D02*
X3549714Y-18299000D01*
X3578286Y-18284714D01*
X3621143Y-18284714D01*
X3649714Y-18299000D01*
X3664000Y-18327572D01*
X3664000Y-18484714D01*
X3664000Y-18327572D02*
X3678286Y-18299000D01*
X3706857Y-18284714D01*
X3749714Y-18284714D01*
X3778286Y-18299000D01*
X3792571Y-18327572D01*
X3792571Y-18484714D01*
X3935428Y-18484714D02*
X3935428Y-18284714D01*
X3935428Y-18313286D02*
X3949714Y-18299000D01*
X3978286Y-18284714D01*
X4021143Y-18284714D01*
X4049714Y-18299000D01*
X4064000Y-18327572D01*
X4064000Y-18484714D01*
X4064000Y-18327572D02*
X4078286Y-18299000D01*
X4106857Y-18284714D01*
X4149714Y-18284714D01*
X4178286Y-18299000D01*
X4192571Y-18327572D01*
X4192571Y-18484714D01*
X4778286Y-18170429D02*
X4521143Y-18556143D01*
X5164000Y-18184714D02*
X5192571Y-18184714D01*
X5221143Y-18199000D01*
X5235428Y-18213286D01*
X5249714Y-18241857D01*
X5264000Y-18299000D01*
X5264000Y-18370429D01*
X5249714Y-18427572D01*
X5235428Y-18456143D01*
X5221143Y-18470429D01*
X5192571Y-18484714D01*
X5164000Y-18484714D01*
X5135428Y-18470429D01*
X5121143Y-18456143D01*
X5106857Y-18427572D01*
X5092571Y-18370429D01*
X5092571Y-18299000D01*
X5106857Y-18241857D01*
X5121143Y-18213286D01*
X5135428Y-18199000D01*
X5164000Y-18184714D01*
X5392571Y-18456143D02*
X5406857Y-18470429D01*
X5392571Y-18484714D01*
X5378286Y-18470429D01*
X5392571Y-18456143D01*
X5392571Y-18484714D01*
X5592571Y-18184714D02*
X5621143Y-18184714D01*
X5649714Y-18199000D01*
X5664000Y-18213286D01*
X5678286Y-18241857D01*
X5692571Y-18299000D01*
X5692571Y-18370429D01*
X5678286Y-18427572D01*
X5664000Y-18456143D01*
X5649714Y-18470429D01*
X5621143Y-18484714D01*
X5592571Y-18484714D01*
X5564000Y-18470429D01*
X5549714Y-18456143D01*
X5535428Y-18427572D01*
X5521143Y-18370429D01*
X5521143Y-18299000D01*
X5535428Y-18241857D01*
X5549714Y-18213286D01*
X5564000Y-18199000D01*
X5592571Y-18184714D01*
X5949714Y-18284714D02*
X5949714Y-18484714D01*
X5878286Y-18170429D02*
X5806857Y-18384714D01*
X5992571Y-18384714D01*
X6078286Y-18184714D02*
X6264000Y-18184714D01*
X6164000Y-18299000D01*
X6206857Y-18299000D01*
X6235428Y-18313286D01*
X6249714Y-18327572D01*
X6264000Y-18356143D01*
X6264000Y-18427572D01*
X6249714Y-18456143D01*
X6235428Y-18470429D01*
X6206857Y-18484714D01*
X6121143Y-18484714D01*
X6092571Y-18470429D01*
X6078286Y-18456143D01*
X6378286Y-18184714D02*
X6378286Y-18241857D01*
X6492571Y-18184714D02*
X6492571Y-18241857D01*
X6935428Y-18599000D02*
X6921143Y-18584714D01*
X6892571Y-18541857D01*
X6878286Y-18513286D01*
X6864000Y-18470429D01*
X6849714Y-18399000D01*
X6849714Y-18341857D01*
X6864000Y-18270429D01*
X6878286Y-18227572D01*
X6892571Y-18199000D01*
X6921143Y-18156143D01*
X6935428Y-18141857D01*
X7035428Y-18213286D02*
X7049714Y-18199000D01*
X7078286Y-18184714D01*
X7149714Y-18184714D01*
X7178286Y-18199000D01*
X7192571Y-18213286D01*
X7206857Y-18241857D01*
X7206857Y-18270429D01*
X7192571Y-18313286D01*
X7021143Y-18484714D01*
X7206857Y-18484714D01*
X7464000Y-18284714D02*
X7464000Y-18484714D01*
X7392571Y-18170429D02*
X7321143Y-18384714D01*
X7506857Y-18384714D01*
X7849714Y-18484714D02*
X7849714Y-18184714D01*
X7978286Y-18484714D02*
X7978286Y-18327572D01*
X7964000Y-18299000D01*
X7935428Y-18284714D01*
X7892571Y-18284714D01*
X7864000Y-18299000D01*
X7849714Y-18313286D01*
X8164000Y-18484714D02*
X8135428Y-18470429D01*
X8121143Y-18456143D01*
X8106857Y-18427572D01*
X8106857Y-18341857D01*
X8121143Y-18313286D01*
X8135428Y-18299000D01*
X8164000Y-18284714D01*
X8206857Y-18284714D01*
X8235428Y-18299000D01*
X8249714Y-18313286D01*
X8264000Y-18341857D01*
X8264000Y-18427572D01*
X8249714Y-18456143D01*
X8235428Y-18470429D01*
X8206857Y-18484714D01*
X8164000Y-18484714D01*
X8435428Y-18484714D02*
X8406857Y-18470429D01*
X8392571Y-18441857D01*
X8392571Y-18184714D01*
X8664000Y-18470429D02*
X8635428Y-18484714D01*
X8578286Y-18484714D01*
X8549714Y-18470429D01*
X8535428Y-18441857D01*
X8535428Y-18327572D01*
X8549714Y-18299000D01*
X8578286Y-18284714D01*
X8635428Y-18284714D01*
X8664000Y-18299000D01*
X8678286Y-18327572D01*
X8678286Y-18356143D01*
X8535428Y-18384714D01*
X8792571Y-18470429D02*
X8821143Y-18484714D01*
X8878286Y-18484714D01*
X8906857Y-18470429D01*
X8921143Y-18441857D01*
X8921143Y-18427572D01*
X8906857Y-18399000D01*
X8878286Y-18384714D01*
X8835428Y-18384714D01*
X8806857Y-18370429D01*
X8792571Y-18341857D01*
X8792571Y-18327572D01*
X8806857Y-18299000D01*
X8835428Y-18284714D01*
X8878286Y-18284714D01*
X8906857Y-18299000D01*
X9021143Y-18599000D02*
X9035428Y-18584714D01*
X9064000Y-18541857D01*
X9078286Y-18513286D01*
X9092571Y-18470429D01*
X9106857Y-18399000D01*
X9106857Y-18341857D01*
X9092571Y-18270429D01*
X9078286Y-18227572D01*
X9064000Y-18199000D01*
X9035428Y-18156143D01*
X9021143Y-18141857D01*
X2185500Y-18808500D02*
X2249000Y-18745000D01*
X2185500Y-18681500D01*
X2122000Y-18745000D01*
X2185500Y-18808500D01*
X2692571Y-18880714D02*
X2521143Y-18880714D01*
X2606857Y-18880714D02*
X2606857Y-18580714D01*
X2578286Y-18623572D01*
X2549714Y-18652143D01*
X2521143Y-18666429D01*
X2821143Y-18852143D02*
X2835428Y-18866429D01*
X2821143Y-18880714D01*
X2806857Y-18866429D01*
X2821143Y-18852143D01*
X2821143Y-18880714D01*
X2949714Y-18609286D02*
X2964000Y-18595000D01*
X2992571Y-18580714D01*
X3064000Y-18580714D01*
X3092571Y-18595000D01*
X3106857Y-18609286D01*
X3121143Y-18637857D01*
X3121143Y-18666429D01*
X3106857Y-18709286D01*
X2935428Y-18880714D01*
X3121143Y-18880714D01*
X3221143Y-18580714D02*
X3421143Y-18580714D01*
X3292571Y-18880714D01*
X3535428Y-18880714D02*
X3535428Y-18680714D01*
X3535428Y-18709286D02*
X3549714Y-18695000D01*
X3578286Y-18680714D01*
X3621143Y-18680714D01*
X3649714Y-18695000D01*
X3664000Y-18723572D01*
X3664000Y-18880714D01*
X3664000Y-18723572D02*
X3678286Y-18695000D01*
X3706857Y-18680714D01*
X3749714Y-18680714D01*
X3778286Y-18695000D01*
X3792571Y-18723572D01*
X3792571Y-18880714D01*
X3935428Y-18880714D02*
X3935428Y-18680714D01*
X3935428Y-18709286D02*
X3949714Y-18695000D01*
X3978286Y-18680714D01*
X4021143Y-18680714D01*
X4049714Y-18695000D01*
X4064000Y-18723572D01*
X4064000Y-18880714D01*
X4064000Y-18723572D02*
X4078286Y-18695000D01*
X4106857Y-18680714D01*
X4149714Y-18680714D01*
X4178286Y-18695000D01*
X4192571Y-18723572D01*
X4192571Y-18880714D01*
X4778286Y-18566429D02*
X4521143Y-18952143D01*
X5164000Y-18580714D02*
X5192571Y-18580714D01*
X5221143Y-18595000D01*
X5235428Y-18609286D01*
X5249714Y-18637857D01*
X5264000Y-18695000D01*
X5264000Y-18766429D01*
X5249714Y-18823572D01*
X5235428Y-18852143D01*
X5221143Y-18866429D01*
X5192571Y-18880714D01*
X5164000Y-18880714D01*
X5135428Y-18866429D01*
X5121143Y-18852143D01*
X5106857Y-18823572D01*
X5092571Y-18766429D01*
X5092571Y-18695000D01*
X5106857Y-18637857D01*
X5121143Y-18609286D01*
X5135428Y-18595000D01*
X5164000Y-18580714D01*
X5392571Y-18852143D02*
X5406857Y-18866429D01*
X5392571Y-18880714D01*
X5378286Y-18866429D01*
X5392571Y-18852143D01*
X5392571Y-18880714D01*
X5592571Y-18580714D02*
X5621143Y-18580714D01*
X5649714Y-18595000D01*
X5664000Y-18609286D01*
X5678286Y-18637857D01*
X5692571Y-18695000D01*
X5692571Y-18766429D01*
X5678286Y-18823572D01*
X5664000Y-18852143D01*
X5649714Y-18866429D01*
X5621143Y-18880714D01*
X5592571Y-18880714D01*
X5564000Y-18866429D01*
X5549714Y-18852143D01*
X5535428Y-18823572D01*
X5521143Y-18766429D01*
X5521143Y-18695000D01*
X5535428Y-18637857D01*
X5549714Y-18609286D01*
X5564000Y-18595000D01*
X5592571Y-18580714D01*
X5964000Y-18580714D02*
X5821143Y-18580714D01*
X5806857Y-18723572D01*
X5821143Y-18709286D01*
X5849714Y-18695000D01*
X5921143Y-18695000D01*
X5949714Y-18709286D01*
X5964000Y-18723572D01*
X5978286Y-18752143D01*
X5978286Y-18823572D01*
X5964000Y-18852143D01*
X5949714Y-18866429D01*
X5921143Y-18880714D01*
X5849714Y-18880714D01*
X5821143Y-18866429D01*
X5806857Y-18852143D01*
X6164000Y-18580714D02*
X6192571Y-18580714D01*
X6221143Y-18595000D01*
X6235428Y-18609286D01*
X6249714Y-18637857D01*
X6264000Y-18695000D01*
X6264000Y-18766429D01*
X6249714Y-18823572D01*
X6235428Y-18852143D01*
X6221143Y-18866429D01*
X6192571Y-18880714D01*
X6164000Y-18880714D01*
X6135428Y-18866429D01*
X6121143Y-18852143D01*
X6106857Y-18823572D01*
X6092571Y-18766429D01*
X6092571Y-18695000D01*
X6106857Y-18637857D01*
X6121143Y-18609286D01*
X6135428Y-18595000D01*
X6164000Y-18580714D01*
X6378286Y-18580714D02*
X6378286Y-18637857D01*
X6492571Y-18580714D02*
X6492571Y-18637857D01*
X6935428Y-18995000D02*
X6921143Y-18980714D01*
X6892571Y-18937857D01*
X6878286Y-18909286D01*
X6864000Y-18866429D01*
X6849714Y-18795000D01*
X6849714Y-18737857D01*
X6864000Y-18666429D01*
X6878286Y-18623572D01*
X6892571Y-18595000D01*
X6921143Y-18552143D01*
X6935428Y-18537857D01*
X7092571Y-18709286D02*
X7064000Y-18695000D01*
X7049714Y-18680714D01*
X7035428Y-18652143D01*
X7035428Y-18637857D01*
X7049714Y-18609286D01*
X7064000Y-18595000D01*
X7092571Y-18580714D01*
X7149714Y-18580714D01*
X7178286Y-18595000D01*
X7192571Y-18609286D01*
X7206857Y-18637857D01*
X7206857Y-18652143D01*
X7192571Y-18680714D01*
X7178286Y-18695000D01*
X7149714Y-18709286D01*
X7092571Y-18709286D01*
X7064000Y-18723572D01*
X7049714Y-18737857D01*
X7035428Y-18766429D01*
X7035428Y-18823572D01*
X7049714Y-18852143D01*
X7064000Y-18866429D01*
X7092571Y-18880714D01*
X7149714Y-18880714D01*
X7178286Y-18866429D01*
X7192571Y-18852143D01*
X7206857Y-18823572D01*
X7206857Y-18766429D01*
X7192571Y-18737857D01*
X7178286Y-18723572D01*
X7149714Y-18709286D01*
X7378286Y-18709286D02*
X7349714Y-18695000D01*
X7335428Y-18680714D01*
X7321143Y-18652143D01*
X7321143Y-18637857D01*
X7335428Y-18609286D01*
X7349714Y-18595000D01*
X7378286Y-18580714D01*
X7435428Y-18580714D01*
X7464000Y-18595000D01*
X7478286Y-18609286D01*
X7492571Y-18637857D01*
X7492571Y-18652143D01*
X7478286Y-18680714D01*
X7464000Y-18695000D01*
X7435428Y-18709286D01*
X7378286Y-18709286D01*
X7349714Y-18723572D01*
X7335428Y-18737857D01*
X7321143Y-18766429D01*
X7321143Y-18823572D01*
X7335428Y-18852143D01*
X7349714Y-18866429D01*
X7378286Y-18880714D01*
X7435428Y-18880714D01*
X7464000Y-18866429D01*
X7478286Y-18852143D01*
X7492571Y-18823572D01*
X7492571Y-18766429D01*
X7478286Y-18737857D01*
X7464000Y-18723572D01*
X7435428Y-18709286D01*
X7849714Y-18880714D02*
X7849714Y-18580714D01*
X7978286Y-18880714D02*
X7978286Y-18723572D01*
X7964000Y-18695000D01*
X7935428Y-18680714D01*
X7892571Y-18680714D01*
X7864000Y-18695000D01*
X7849714Y-18709286D01*
X8164000Y-18880714D02*
X8135428Y-18866429D01*
X8121143Y-18852143D01*
X8106857Y-18823572D01*
X8106857Y-18737857D01*
X8121143Y-18709286D01*
X8135428Y-18695000D01*
X8164000Y-18680714D01*
X8206857Y-18680714D01*
X8235428Y-18695000D01*
X8249714Y-18709286D01*
X8264000Y-18737857D01*
X8264000Y-18823572D01*
X8249714Y-18852143D01*
X8235428Y-18866429D01*
X8206857Y-18880714D01*
X8164000Y-18880714D01*
X8435428Y-18880714D02*
X8406857Y-18866429D01*
X8392571Y-18837857D01*
X8392571Y-18580714D01*
X8664000Y-18866429D02*
X8635428Y-18880714D01*
X8578286Y-18880714D01*
X8549714Y-18866429D01*
X8535428Y-18837857D01*
X8535428Y-18723572D01*
X8549714Y-18695000D01*
X8578286Y-18680714D01*
X8635428Y-18680714D01*
X8664000Y-18695000D01*
X8678286Y-18723572D01*
X8678286Y-18752143D01*
X8535428Y-18780714D01*
X8792571Y-18866429D02*
X8821143Y-18880714D01*
X8878286Y-18880714D01*
X8906857Y-18866429D01*
X8921143Y-18837857D01*
X8921143Y-18823572D01*
X8906857Y-18795000D01*
X8878286Y-18780714D01*
X8835428Y-18780714D01*
X8806857Y-18766429D01*
X8792571Y-18737857D01*
X8792571Y-18723572D01*
X8806857Y-18695000D01*
X8835428Y-18680714D01*
X8878286Y-18680714D01*
X8906857Y-18695000D01*
X9021143Y-18995000D02*
X9035428Y-18980714D01*
X9064000Y-18937857D01*
X9078286Y-18909286D01*
X9092571Y-18866429D01*
X9106857Y-18795000D01*
X9106857Y-18737857D01*
X9092571Y-18666429D01*
X9078286Y-18623572D01*
X9064000Y-18595000D01*
X9035428Y-18552143D01*
X9021143Y-18537857D01*
X2099000Y-19066000D02*
X2249000Y-19216000D01*
X2249000Y-19066000D02*
X2099000Y-19216000D01*
X2249000Y-19141000D02*
G75*
G03*
X2249000Y-19141000I-75000J0D01*
G01*
X2692571Y-19276714D02*
X2521143Y-19276714D01*
X2606857Y-19276714D02*
X2606857Y-18976714D01*
X2578286Y-19019572D01*
X2549714Y-19048143D01*
X2521143Y-19062429D01*
X2821143Y-19248143D02*
X2835428Y-19262429D01*
X2821143Y-19276714D01*
X2806857Y-19262429D01*
X2821143Y-19248143D01*
X2821143Y-19276714D01*
X3106857Y-18976714D02*
X2964000Y-18976714D01*
X2949714Y-19119572D01*
X2964000Y-19105286D01*
X2992571Y-19091000D01*
X3064000Y-19091000D01*
X3092571Y-19105286D01*
X3106857Y-19119572D01*
X3121143Y-19148143D01*
X3121143Y-19219572D01*
X3106857Y-19248143D01*
X3092571Y-19262429D01*
X3064000Y-19276714D01*
X2992571Y-19276714D01*
X2964000Y-19262429D01*
X2949714Y-19248143D01*
X3306857Y-18976714D02*
X3335428Y-18976714D01*
X3364000Y-18991000D01*
X3378286Y-19005286D01*
X3392571Y-19033857D01*
X3406857Y-19091000D01*
X3406857Y-19162429D01*
X3392571Y-19219572D01*
X3378286Y-19248143D01*
X3364000Y-19262429D01*
X3335428Y-19276714D01*
X3306857Y-19276714D01*
X3278286Y-19262429D01*
X3264000Y-19248143D01*
X3249714Y-19219572D01*
X3235428Y-19162429D01*
X3235428Y-19091000D01*
X3249714Y-19033857D01*
X3264000Y-19005286D01*
X3278286Y-18991000D01*
X3306857Y-18976714D01*
X3535428Y-19276714D02*
X3535428Y-19076714D01*
X3535428Y-19105286D02*
X3549714Y-19091000D01*
X3578286Y-19076714D01*
X3621143Y-19076714D01*
X3649714Y-19091000D01*
X3664000Y-19119572D01*
X3664000Y-19276714D01*
X3664000Y-19119572D02*
X3678286Y-19091000D01*
X3706857Y-19076714D01*
X3749714Y-19076714D01*
X3778286Y-19091000D01*
X3792571Y-19119572D01*
X3792571Y-19276714D01*
X3935428Y-19276714D02*
X3935428Y-19076714D01*
X3935428Y-19105286D02*
X3949714Y-19091000D01*
X3978286Y-19076714D01*
X4021143Y-19076714D01*
X4049714Y-19091000D01*
X4064000Y-19119572D01*
X4064000Y-19276714D01*
X4064000Y-19119572D02*
X4078286Y-19091000D01*
X4106857Y-19076714D01*
X4149714Y-19076714D01*
X4178286Y-19091000D01*
X4192571Y-19119572D01*
X4192571Y-19276714D01*
X4778286Y-18962429D02*
X4521143Y-19348143D01*
X5164000Y-18976714D02*
X5192571Y-18976714D01*
X5221143Y-18991000D01*
X5235428Y-19005286D01*
X5249714Y-19033857D01*
X5264000Y-19091000D01*
X5264000Y-19162429D01*
X5249714Y-19219572D01*
X5235428Y-19248143D01*
X5221143Y-19262429D01*
X5192571Y-19276714D01*
X5164000Y-19276714D01*
X5135428Y-19262429D01*
X5121143Y-19248143D01*
X5106857Y-19219572D01*
X5092571Y-19162429D01*
X5092571Y-19091000D01*
X5106857Y-19033857D01*
X5121143Y-19005286D01*
X5135428Y-18991000D01*
X5164000Y-18976714D01*
X5392571Y-19248143D02*
X5406857Y-19262429D01*
X5392571Y-19276714D01*
X5378286Y-19262429D01*
X5392571Y-19248143D01*
X5392571Y-19276714D01*
X5592571Y-18976714D02*
X5621143Y-18976714D01*
X5649714Y-18991000D01*
X5664000Y-19005286D01*
X5678286Y-19033857D01*
X5692571Y-19091000D01*
X5692571Y-19162429D01*
X5678286Y-19219572D01*
X5664000Y-19248143D01*
X5649714Y-19262429D01*
X5621143Y-19276714D01*
X5592571Y-19276714D01*
X5564000Y-19262429D01*
X5549714Y-19248143D01*
X5535428Y-19219572D01*
X5521143Y-19162429D01*
X5521143Y-19091000D01*
X5535428Y-19033857D01*
X5549714Y-19005286D01*
X5564000Y-18991000D01*
X5592571Y-18976714D01*
X5964000Y-18976714D02*
X5821143Y-18976714D01*
X5806857Y-19119572D01*
X5821143Y-19105286D01*
X5849714Y-19091000D01*
X5921143Y-19091000D01*
X5949714Y-19105286D01*
X5964000Y-19119572D01*
X5978286Y-19148143D01*
X5978286Y-19219572D01*
X5964000Y-19248143D01*
X5949714Y-19262429D01*
X5921143Y-19276714D01*
X5849714Y-19276714D01*
X5821143Y-19262429D01*
X5806857Y-19248143D01*
X6121143Y-19276714D02*
X6178286Y-19276714D01*
X6206857Y-19262429D01*
X6221143Y-19248143D01*
X6249714Y-19205286D01*
X6264000Y-19148143D01*
X6264000Y-19033857D01*
X6249714Y-19005286D01*
X6235428Y-18991000D01*
X6206857Y-18976714D01*
X6149714Y-18976714D01*
X6121143Y-18991000D01*
X6106857Y-19005286D01*
X6092571Y-19033857D01*
X6092571Y-19105286D01*
X6106857Y-19133857D01*
X6121143Y-19148143D01*
X6149714Y-19162429D01*
X6206857Y-19162429D01*
X6235428Y-19148143D01*
X6249714Y-19133857D01*
X6264000Y-19105286D01*
X6378286Y-18976714D02*
X6378286Y-19033857D01*
X6492571Y-18976714D02*
X6492571Y-19033857D01*
X6935428Y-19391000D02*
X6921143Y-19376714D01*
X6892571Y-19333857D01*
X6878286Y-19305286D01*
X6864000Y-19262429D01*
X6849714Y-19191000D01*
X6849714Y-19133857D01*
X6864000Y-19062429D01*
X6878286Y-19019572D01*
X6892571Y-18991000D01*
X6921143Y-18948143D01*
X6935428Y-18933857D01*
X7106857Y-18976714D02*
X7135428Y-18976714D01*
X7164000Y-18991000D01*
X7178286Y-19005286D01*
X7192571Y-19033857D01*
X7206857Y-19091000D01*
X7206857Y-19162429D01*
X7192571Y-19219572D01*
X7178286Y-19248143D01*
X7164000Y-19262429D01*
X7135428Y-19276714D01*
X7106857Y-19276714D01*
X7078286Y-19262429D01*
X7064000Y-19248143D01*
X7049714Y-19219572D01*
X7035428Y-19162429D01*
X7035428Y-19091000D01*
X7049714Y-19033857D01*
X7064000Y-19005286D01*
X7078286Y-18991000D01*
X7106857Y-18976714D01*
X7564000Y-19276714D02*
X7564000Y-18976714D01*
X7692571Y-19276714D02*
X7692571Y-19119572D01*
X7678286Y-19091000D01*
X7649714Y-19076714D01*
X7606857Y-19076714D01*
X7578286Y-19091000D01*
X7564000Y-19105286D01*
X7878286Y-19276714D02*
X7849714Y-19262429D01*
X7835428Y-19248143D01*
X7821143Y-19219572D01*
X7821143Y-19133857D01*
X7835428Y-19105286D01*
X7849714Y-19091000D01*
X7878286Y-19076714D01*
X7921143Y-19076714D01*
X7949714Y-19091000D01*
X7964000Y-19105286D01*
X7978286Y-19133857D01*
X7978286Y-19219572D01*
X7964000Y-19248143D01*
X7949714Y-19262429D01*
X7921143Y-19276714D01*
X7878286Y-19276714D01*
X8149714Y-19276714D02*
X8121143Y-19262429D01*
X8106857Y-19233857D01*
X8106857Y-18976714D01*
X8378286Y-19262429D02*
X8349714Y-19276714D01*
X8292571Y-19276714D01*
X8264000Y-19262429D01*
X8249714Y-19233857D01*
X8249714Y-19119572D01*
X8264000Y-19091000D01*
X8292571Y-19076714D01*
X8349714Y-19076714D01*
X8378286Y-19091000D01*
X8392571Y-19119572D01*
X8392571Y-19148143D01*
X8249714Y-19176714D01*
X8506857Y-19262429D02*
X8535428Y-19276714D01*
X8592571Y-19276714D01*
X8621143Y-19262429D01*
X8635428Y-19233857D01*
X8635428Y-19219572D01*
X8621143Y-19191000D01*
X8592571Y-19176714D01*
X8549714Y-19176714D01*
X8521143Y-19162429D01*
X8506857Y-19133857D01*
X8506857Y-19119572D01*
X8521143Y-19091000D01*
X8549714Y-19076714D01*
X8592571Y-19076714D01*
X8621143Y-19091000D01*
X8992571Y-19162429D02*
X9221143Y-19162429D01*
X9106857Y-19276714D02*
X9106857Y-19048143D01*
X9578286Y-19005286D02*
X9592571Y-18991000D01*
X9621143Y-18976714D01*
X9692571Y-18976714D01*
X9721143Y-18991000D01*
X9735428Y-19005286D01*
X9749714Y-19033857D01*
X9749714Y-19062429D01*
X9735428Y-19105286D01*
X9564000Y-19276714D01*
X9749714Y-19276714D01*
X10092571Y-19262429D02*
X10121143Y-19276714D01*
X10178286Y-19276714D01*
X10206857Y-19262429D01*
X10221143Y-19233857D01*
X10221143Y-19219572D01*
X10206857Y-19191000D01*
X10178286Y-19176714D01*
X10135428Y-19176714D01*
X10106857Y-19162429D01*
X10092571Y-19133857D01*
X10092571Y-19119572D01*
X10106857Y-19091000D01*
X10135428Y-19076714D01*
X10178286Y-19076714D01*
X10206857Y-19091000D01*
X10392571Y-19276714D02*
X10364000Y-19262429D01*
X10349714Y-19233857D01*
X10349714Y-18976714D01*
X10549714Y-19276714D02*
X10521143Y-19262429D01*
X10506857Y-19248143D01*
X10492571Y-19219572D01*
X10492571Y-19133857D01*
X10506857Y-19105286D01*
X10521143Y-19091000D01*
X10549714Y-19076714D01*
X10592571Y-19076714D01*
X10621143Y-19091000D01*
X10635428Y-19105286D01*
X10649714Y-19133857D01*
X10649714Y-19219572D01*
X10635428Y-19248143D01*
X10621143Y-19262429D01*
X10592571Y-19276714D01*
X10549714Y-19276714D01*
X10735428Y-19076714D02*
X10849714Y-19076714D01*
X10778286Y-18976714D02*
X10778286Y-19233857D01*
X10792571Y-19262429D01*
X10821143Y-19276714D01*
X10849714Y-19276714D01*
X10935428Y-19262429D02*
X10964000Y-19276714D01*
X11021143Y-19276714D01*
X11049714Y-19262429D01*
X11064000Y-19233857D01*
X11064000Y-19219572D01*
X11049714Y-19191000D01*
X11021143Y-19176714D01*
X10978286Y-19176714D01*
X10949714Y-19162429D01*
X10935428Y-19133857D01*
X10935428Y-19119572D01*
X10949714Y-19091000D01*
X10978286Y-19076714D01*
X11021143Y-19076714D01*
X11049714Y-19091000D01*
X11164000Y-19391000D02*
X11178286Y-19376714D01*
X11206857Y-19333857D01*
X11221143Y-19305286D01*
X11235428Y-19262429D01*
X11249714Y-19191000D01*
X11249714Y-19133857D01*
X11235428Y-19062429D01*
X11221143Y-19019572D01*
X11206857Y-18991000D01*
X11178286Y-18948143D01*
X11164000Y-18933857D01*
M02*
