M48
; DRILL file {KiCad (5.1.9)-1} date 07/05/21 21:59:24
; FORMAT={-:-/ absolute / metric / decimal}
; #@! TF.CreationDate,2021-07-05T21:59:24+03:00
; #@! TF.GenerationSoftware,Kicad,Pcbnew,(5.1.9)-1
; #@! TF.FileFunction,NonPlated,1,2,NPTH
FMAT,2
METRIC
T1C1.600
T2C1.702
T3C2.100
T4C2.200
T5C3.000
T6C3.429
T7C4.800
%
G90
G05
T2
X30.986Y-99.81
X35.4Y-83.322
X39.802Y-66.863
X41.612Y-102.657
X46.025Y-86.169
X48.415Y-104.487
X50.427Y-69.71
X52.786Y-88.035
X57.217Y-71.579
X59.04Y-107.334
X63.411Y-90.882
X67.842Y-74.426
X68.317Y-99.824
X72.73Y-83.346
X73.457Y-121.895
X77.131Y-66.897
X78.943Y-102.671
X83.355Y-86.193
X84.29Y-123.805
X87.525Y-97.682
X87.756Y-69.744
X91.944Y-81.194
X92.683Y-126.066
X96.347Y-64.715
X98.15Y-100.529
X102.569Y-84.041
X103.02Y-129.828
X103.047Y-109.487
X106.972Y-67.562
X107.446Y-93.058
X110.908Y-133.519
X111.836Y-76.608
X113.672Y-112.334
X118.071Y-95.905
X119.493Y-117.712
X120.435Y-139.019
X122.461Y-79.455
X123.895Y-101.243
X127.582Y-144.019
X128.306Y-84.785
X130.118Y-120.559
X134.52Y-104.09
X136.008Y-151.089
X138.932Y-87.632
X150.39Y-87.632
X153.313Y-151.089
X154.802Y-104.09
X159.204Y-120.559
X161.016Y-84.785
X161.739Y-144.019
X165.427Y-101.243
X166.86Y-79.455
X168.88Y-139.019
X169.829Y-117.712
X171.251Y-95.905
X175.649Y-112.334
X177.486Y-76.608
X178.406Y-133.519
X181.876Y-93.058
X182.35Y-67.562
X186.275Y-109.487
X186.301Y-129.828
X186.753Y-84.041
X191.167Y-100.529
X192.975Y-64.715
X196.637Y-126.066
X197.378Y-81.194
X201.566Y-69.743
X201.792Y-97.682
X205.034Y-123.805
X205.966Y-86.193
X210.379Y-102.671
X212.191Y-66.896
X215.866Y-121.895
X216.592Y-83.346
X221.005Y-99.824
X221.48Y-74.426
X225.911Y-90.882
X230.282Y-107.334
X232.105Y-71.579
X236.536Y-88.035
X238.895Y-69.71
X240.907Y-104.487
X243.296Y-86.169
X247.71Y-102.657
X249.52Y-66.863
X253.922Y-83.322
X258.335Y-99.81
T3
X144.66Y-129.5
T4
X133.0Y-72.0
X149.75Y-75.25
X165.25Y-59.0
T5
X37.839Y-95.486
X42.099Y-98.905
X42.253Y-78.998
X46.513Y-82.417
X46.654Y-62.539
X50.914Y-65.958
X55.268Y-100.163
X59.528Y-103.582
X59.638Y-83.711
X63.898Y-87.131
X64.069Y-67.255
X68.33Y-70.674
X75.17Y-95.5
X79.43Y-98.919
X79.583Y-79.022
X79.907Y-116.99
X83.843Y-82.441
X83.983Y-62.573
X84.449Y-120.025
X88.243Y-65.992
X94.377Y-93.358
X98.638Y-96.777
X98.796Y-76.87
X99.887Y-122.356
X103.057Y-80.289
X103.199Y-60.391
X103.833Y-126.134
X107.46Y-63.81
X109.9Y-105.164
X114.16Y-108.583
X114.298Y-88.735
X118.559Y-92.154
X118.646Y-131.116
X118.689Y-72.285
X121.876Y-135.522
X122.949Y-75.704
X126.346Y-113.388
X130.606Y-116.807
X130.748Y-96.919
X135.008Y-100.338
X135.159Y-80.461
X135.62Y-142.996
X138.036Y-147.895
X139.419Y-83.88
X153.701Y-142.996
X154.163Y-80.461
X158.574Y-96.919
X158.946Y-141.467
X159.562Y-81.292
X162.976Y-113.388
X163.973Y-97.75
X168.375Y-114.219
X170.633Y-72.284
X170.668Y-131.116
X175.023Y-88.734
X176.032Y-73.115
X176.098Y-130.522
X179.422Y-105.164
X180.422Y-89.565
X184.821Y-105.995
X186.122Y-60.391
X189.434Y-122.356
X190.525Y-76.87
X191.521Y-61.222
X194.885Y-122.713
X194.939Y-93.358
X195.924Y-77.701
X200.338Y-94.189
X205.339Y-62.573
X209.417Y-116.99
X209.739Y-79.022
X210.738Y-63.404
X214.152Y-95.5
X214.723Y-118.289
X215.138Y-79.853
X219.551Y-96.331
X225.253Y-67.255
X229.684Y-83.711
X230.652Y-68.086
X234.054Y-100.163
X235.083Y-84.542
X239.453Y-100.994
X242.668Y-62.539
X247.069Y-78.998
X248.067Y-63.37
X251.483Y-95.486
X252.468Y-79.829
X256.882Y-96.317
T6
X36.299Y-101.234
X40.713Y-84.746
X45.114Y-68.286
X53.728Y-105.91
X58.098Y-89.459
X62.529Y-73.002
X73.63Y-101.247
X78.043Y-84.769
X78.874Y-122.85
X82.443Y-68.32
X92.837Y-99.105
X97.257Y-82.618
X97.852Y-127.947
X101.66Y-66.139
X108.36Y-110.911
X112.758Y-94.482
X115.671Y-136.269
X117.149Y-78.032
X124.806Y-119.136
X129.208Y-102.667
X131.795Y-147.554
X133.619Y-86.208
X155.703Y-86.208
X157.526Y-147.554
X160.114Y-102.666
X164.516Y-119.135
X172.173Y-78.032
X173.643Y-136.269
X176.563Y-94.482
X180.962Y-110.911
X187.662Y-66.138
X191.469Y-127.947
X192.065Y-82.617
X196.479Y-99.106
X206.879Y-68.32
X210.45Y-122.85
X211.279Y-84.769
X215.692Y-101.247
X226.792Y-73.002
X231.224Y-89.459
X235.594Y-105.91
X244.208Y-68.286
X248.609Y-84.745
X253.023Y-101.233
T7
X69.61Y-63.81
X89.57Y-111.25
X144.66Y-109.68
X144.66Y-154.5
X199.75Y-111.25
X219.71Y-63.81
T1
X144.66Y-134.3G85X144.66Y-133.7
G05
T4
X144.46Y-125.0G85X144.86Y-125.0
G05
T0
M30
