G04 #@! TF.GenerationSoftware,KiCad,Pcbnew,(5.1.9)-1*
G04 #@! TF.CreationDate,2021-07-06T13:23:14+03:00*
G04 #@! TF.ProjectId,choctopus44-top-plate,63686f63-746f-4707-9573-34342d746f70,1.0 Prototype*
G04 #@! TF.SameCoordinates,Original*
G04 #@! TF.FileFunction,Legend,Bot*
G04 #@! TF.FilePolarity,Positive*
%FSLAX46Y46*%
G04 Gerber Fmt 4.6, Leading zero omitted, Abs format (unit mm)*
G04 Created by KiCad (PCBNEW (5.1.9)-1) date 2021-07-06 13:23:14*
%MOMM*%
%LPD*%
G01*
G04 APERTURE LIST*
%ADD10C,0.150000*%
%ADD11C,0.200000*%
%ADD12C,0.100000*%
%ADD13C,3.600000*%
%ADD14C,2.400000*%
G04 APERTURE END LIST*
D10*
X243682791Y-112412839D02*
X243741112Y-112446511D01*
X243891426Y-112455533D01*
X243983419Y-112430884D01*
X244109084Y-112347913D01*
X244176428Y-112231271D01*
X244197775Y-112126953D01*
X244194472Y-111930642D01*
X244157498Y-111792653D01*
X244062203Y-111620992D01*
X243991557Y-111541324D01*
X243874914Y-111473980D01*
X243724600Y-111464958D01*
X243632607Y-111489607D01*
X243506943Y-111572578D01*
X243473271Y-111630899D01*
X243293472Y-112615754D02*
X243034653Y-111649829D01*
X242879504Y-112726677D02*
X242743932Y-112220716D01*
X242765279Y-112116398D01*
X242844948Y-112045752D01*
X242982937Y-112008778D01*
X243087255Y-112030125D01*
X243145576Y-112063797D01*
X242281550Y-112886898D02*
X242361218Y-112816252D01*
X242394890Y-112757931D01*
X242416237Y-112653613D01*
X242342289Y-112377635D01*
X242271643Y-112297966D01*
X242213322Y-112264295D01*
X242109004Y-112242948D01*
X241971015Y-112279922D01*
X241891346Y-112350568D01*
X241857675Y-112408889D01*
X241836328Y-112513207D01*
X241910276Y-112789185D01*
X241980922Y-112868854D01*
X242039243Y-112902525D01*
X242143561Y-112923872D01*
X242281550Y-112886898D01*
X241119314Y-113149020D02*
X241223631Y-113170367D01*
X241407617Y-113121068D01*
X241487285Y-113050422D01*
X241520957Y-112992101D01*
X241542304Y-112887783D01*
X241468356Y-112611804D01*
X241397710Y-112532136D01*
X241339389Y-112498464D01*
X241235071Y-112477117D01*
X241051085Y-112526416D01*
X240971417Y-112597062D01*
X240683114Y-112625014D02*
X240315142Y-112723612D01*
X240458851Y-112340013D02*
X240680696Y-113167949D01*
X240659349Y-113272267D01*
X240579681Y-113342913D01*
X240487688Y-113367562D01*
X240027723Y-113490809D02*
X240107391Y-113420163D01*
X240141063Y-113361842D01*
X240162410Y-113257525D01*
X240088462Y-112981546D01*
X240017816Y-112901878D01*
X239959495Y-112868206D01*
X239855177Y-112846859D01*
X239717188Y-112883833D01*
X239637519Y-112954479D01*
X239603848Y-113012800D01*
X239582501Y-113117118D01*
X239656449Y-113393096D01*
X239727095Y-113472765D01*
X239785416Y-113506436D01*
X239889734Y-113527783D01*
X240027723Y-113490809D01*
X239119234Y-113044054D02*
X239378053Y-114009980D01*
X239131558Y-113090051D02*
X239027241Y-113068704D01*
X238843255Y-113118003D01*
X238763587Y-113188648D01*
X238729915Y-113246970D01*
X238708568Y-113351287D01*
X238782516Y-113627266D01*
X238853162Y-113706934D01*
X238911483Y-113740606D01*
X239015801Y-113761953D01*
X239199787Y-113712654D01*
X239279455Y-113642008D01*
X237831333Y-113389146D02*
X238003879Y-114033097D01*
X238245301Y-113278224D02*
X238380873Y-113784185D01*
X238359526Y-113888503D01*
X238279857Y-113959149D01*
X238141868Y-113996123D01*
X238037550Y-113974776D01*
X237979229Y-113941104D01*
X237577586Y-114098023D02*
X237497917Y-114168669D01*
X237313932Y-114217968D01*
X237209614Y-114196621D01*
X237138968Y-114116952D01*
X237126643Y-114070956D01*
X237147990Y-113966638D01*
X237227659Y-113895992D01*
X237365648Y-113859018D01*
X237445316Y-113788372D01*
X237466663Y-113684055D01*
X237454338Y-113638058D01*
X237383693Y-113558390D01*
X237279375Y-113537043D01*
X237141386Y-113574017D01*
X237061717Y-113644663D01*
X236175460Y-113832836D02*
X236348006Y-114476787D01*
X236306844Y-113403241D02*
X236721697Y-114031564D01*
X236123743Y-114191785D01*
X235255530Y-114079330D02*
X235428076Y-114723281D01*
X235386915Y-113649735D02*
X235801768Y-114278058D01*
X235203814Y-114438280D01*
X233996466Y-115451972D02*
X234226448Y-115390348D01*
X233856707Y-114010454D01*
X233626724Y-114072078D01*
X233542221Y-115228594D02*
X233283402Y-114262668D01*
X232915430Y-114361266D01*
X232835762Y-114431912D01*
X232802090Y-114490233D01*
X232780743Y-114594551D01*
X232817718Y-114732540D01*
X232888363Y-114812209D01*
X232946685Y-114845880D01*
X233051002Y-114867227D01*
X233418974Y-114768630D01*
X232576295Y-115487413D02*
X232403749Y-114843463D01*
X232453048Y-115027449D02*
X232382402Y-114947780D01*
X232324081Y-114914109D01*
X232219763Y-114892762D01*
X232127771Y-114917411D01*
X231840352Y-115684609D02*
X231920020Y-115613963D01*
X231953692Y-115555642D01*
X231975039Y-115451324D01*
X231901091Y-115175345D01*
X231830445Y-115095677D01*
X231772123Y-115062005D01*
X231667806Y-115040658D01*
X231529816Y-115077632D01*
X231450148Y-115148278D01*
X231416476Y-115206600D01*
X231395129Y-115310917D01*
X231469078Y-115586896D01*
X231539724Y-115666564D01*
X231598045Y-115700236D01*
X231702362Y-115721583D01*
X231840352Y-115684609D01*
X231069852Y-115200880D02*
X230701880Y-115299477D01*
X230845589Y-114915878D02*
X231067434Y-115743815D01*
X231046087Y-115848133D01*
X230966419Y-115918778D01*
X230874426Y-115943428D01*
X230414461Y-116066675D02*
X230494130Y-115996029D01*
X230527801Y-115937708D01*
X230549148Y-115833390D01*
X230475200Y-115557411D01*
X230404554Y-115477743D01*
X230346233Y-115444072D01*
X230241915Y-115422724D01*
X230103926Y-115459699D01*
X230024258Y-115530345D01*
X229990586Y-115588666D01*
X229969239Y-115692983D01*
X230043187Y-115968962D01*
X230113833Y-116048630D01*
X230172154Y-116082302D01*
X230276472Y-116103649D01*
X230414461Y-116066675D01*
X229643961Y-115582946D02*
X229275989Y-115681544D01*
X229419699Y-115297945D02*
X229641544Y-116125881D01*
X229620197Y-116230199D01*
X229540528Y-116300845D01*
X229448536Y-116325494D01*
X229046007Y-115743167D02*
X228988571Y-116448741D01*
X228586042Y-115866414D02*
X228988571Y-116448741D01*
X229142187Y-116654074D01*
X229200509Y-116687746D01*
X229304826Y-116709093D01*
X228218071Y-115965012D02*
X228476890Y-116930938D01*
X228230395Y-116011008D02*
X228126078Y-115989661D01*
X227942092Y-116038960D01*
X227862424Y-116109606D01*
X227828752Y-116167927D01*
X227807405Y-116272245D01*
X227881353Y-116548224D01*
X227951999Y-116627892D01*
X228010320Y-116661564D01*
X228114638Y-116682911D01*
X228298624Y-116633612D01*
X228378292Y-116562966D01*
X227136387Y-116895733D02*
X227240705Y-116917080D01*
X227424691Y-116867782D01*
X227504359Y-116797136D01*
X227525706Y-116692818D01*
X227427108Y-116324846D01*
X227356463Y-116245178D01*
X227252145Y-116223831D01*
X227068159Y-116273130D01*
X226988491Y-116343776D01*
X226967144Y-116448093D01*
X226991793Y-116540086D01*
X227476407Y-116508832D01*
X226867013Y-117362303D02*
X226637031Y-117423926D01*
X226267290Y-116044032D01*
X226497272Y-115982409D01*
X244228902Y-113531025D02*
X244103237Y-113613996D01*
X244069566Y-113672317D01*
X244048219Y-113776635D01*
X244085193Y-113914624D01*
X244155839Y-113994292D01*
X244214160Y-114027964D01*
X244318477Y-114049311D01*
X244686449Y-113950713D01*
X244427630Y-112984788D01*
X244105655Y-113071061D01*
X244025987Y-113141706D01*
X243992315Y-113200028D01*
X243970968Y-113304345D01*
X243995617Y-113396338D01*
X244066263Y-113476006D01*
X244124584Y-113509678D01*
X244228902Y-113531025D01*
X244550877Y-113444752D01*
X243639970Y-113540932D02*
X243582534Y-114246507D01*
X243180006Y-113664180D02*
X243582534Y-114246507D01*
X243736150Y-114451839D01*
X243794472Y-114485511D01*
X243898789Y-114506858D01*
X241696679Y-114751820D02*
X241895407Y-114205582D01*
X242248636Y-114603923D02*
X241989817Y-113637998D01*
X241621846Y-113736595D01*
X241542177Y-113807241D01*
X241508506Y-113865562D01*
X241487159Y-113969880D01*
X241524133Y-114107869D01*
X241594779Y-114187538D01*
X241653100Y-114221209D01*
X241757417Y-114242556D01*
X242125389Y-114143959D01*
X241144721Y-114899717D02*
X241224389Y-114829071D01*
X241258061Y-114770749D01*
X241279408Y-114666432D01*
X241205460Y-114390453D01*
X241134814Y-114310785D01*
X241076493Y-114277113D01*
X240972175Y-114255766D01*
X240834186Y-114292740D01*
X240754518Y-114363386D01*
X240720846Y-114421707D01*
X240699499Y-114526025D01*
X240773447Y-114802004D01*
X240844093Y-114881672D01*
X240902414Y-114915344D01*
X241006732Y-114936691D01*
X241144721Y-114899717D01*
X239822263Y-114563884D02*
X239994809Y-115207834D01*
X240236232Y-114452961D02*
X240371804Y-114958923D01*
X240350456Y-115063240D01*
X240270788Y-115133886D01*
X240132799Y-115170860D01*
X240028481Y-115149513D01*
X239970160Y-115115842D01*
X239500288Y-114650157D02*
X239132316Y-114748755D01*
X239276026Y-114365156D02*
X239497871Y-115193092D01*
X239476524Y-115297410D01*
X239396855Y-115368056D01*
X239304862Y-115392705D01*
X238568919Y-115589901D02*
X238433347Y-115083940D01*
X238454694Y-114979622D01*
X238534362Y-114908976D01*
X238718348Y-114859677D01*
X238822666Y-114881024D01*
X238556594Y-115543904D02*
X238660912Y-115565251D01*
X238890894Y-115503628D01*
X238970562Y-115432982D01*
X238991909Y-115328664D01*
X238967260Y-115236671D01*
X238896614Y-115157003D01*
X238792297Y-115135656D01*
X238562314Y-115197279D01*
X238457997Y-115175932D01*
X237982405Y-115056873D02*
X237292458Y-115241743D01*
X237595503Y-114716853D02*
X238204250Y-115884809D01*
X237495373Y-115631062D02*
X238185320Y-115446191D01*
X237882274Y-115971082D02*
X237273528Y-114803126D01*
X236637067Y-116107539D02*
X237189025Y-115959642D01*
X236913046Y-116033590D02*
X236654227Y-115067665D01*
X236783194Y-115181005D01*
X236899837Y-115248348D01*
X237004154Y-115269695D01*
X235937213Y-115703478D02*
X236016881Y-115632832D01*
X236050553Y-115574511D01*
X236071900Y-115470193D01*
X236059575Y-115424197D01*
X235988929Y-115344528D01*
X235930608Y-115310857D01*
X235826291Y-115289510D01*
X235642305Y-115338808D01*
X235562637Y-115409454D01*
X235528965Y-115467775D01*
X235507618Y-115572093D01*
X235519942Y-115618090D01*
X235590588Y-115697758D01*
X235648910Y-115731430D01*
X235753227Y-115752777D01*
X235937213Y-115703478D01*
X236041531Y-115724825D01*
X236099852Y-115758497D01*
X236170498Y-115838165D01*
X236219797Y-116022151D01*
X236198450Y-116126468D01*
X236164778Y-116184789D01*
X236085110Y-116255435D01*
X235901124Y-116304734D01*
X235796806Y-116283387D01*
X235738485Y-116249715D01*
X235667839Y-116170047D01*
X235618540Y-115986061D01*
X235639887Y-115881744D01*
X235673559Y-115823423D01*
X235753227Y-115752777D01*
X234584386Y-115622277D02*
X235044351Y-115499030D01*
X235213594Y-115946670D01*
X235155273Y-115912998D01*
X235050955Y-115891651D01*
X234820973Y-115953274D01*
X234741305Y-116023920D01*
X234707633Y-116082242D01*
X234686286Y-116186559D01*
X234747910Y-116416542D01*
X234818556Y-116496210D01*
X234876877Y-116529882D01*
X234981194Y-116551229D01*
X235211177Y-116489605D01*
X235290845Y-116418959D01*
X235324517Y-116360638D01*
X234097354Y-116196466D02*
X234177023Y-116125820D01*
X234210694Y-116067499D01*
X234232041Y-115963182D01*
X234219717Y-115917185D01*
X234149071Y-115837517D01*
X234090750Y-115803845D01*
X233986432Y-115782498D01*
X233802446Y-115831797D01*
X233722778Y-115902443D01*
X233689106Y-115960764D01*
X233667759Y-116065082D01*
X233680084Y-116111078D01*
X233750730Y-116190746D01*
X233809051Y-116224418D01*
X233913369Y-116245765D01*
X234097354Y-116196466D01*
X234201672Y-116217813D01*
X234259993Y-116251485D01*
X234330639Y-116331153D01*
X234379938Y-116515139D01*
X234358591Y-116619457D01*
X234324919Y-116677778D01*
X234245251Y-116748424D01*
X234061265Y-116797723D01*
X233956947Y-116776376D01*
X233898626Y-116742704D01*
X233827980Y-116663036D01*
X233778682Y-116479050D01*
X233800029Y-116374732D01*
X233833700Y-116316411D01*
X233913369Y-116245765D01*
X232502220Y-116130893D02*
X233662924Y-117150952D01*
X232485060Y-117170767D02*
X232359396Y-117253737D01*
X232129413Y-117315361D01*
X232025096Y-117294014D01*
X231966775Y-117260342D01*
X231896129Y-117180674D01*
X231871479Y-117088681D01*
X231892826Y-116984363D01*
X231926498Y-116926042D01*
X232006166Y-116855396D01*
X232177827Y-116760101D01*
X232257496Y-116689455D01*
X232291167Y-116631134D01*
X232312514Y-116526816D01*
X232287865Y-116434823D01*
X232217219Y-116355155D01*
X232158898Y-116321483D01*
X232054580Y-116300136D01*
X231824598Y-116361760D01*
X231698933Y-116444730D01*
X231393470Y-117512556D02*
X231473138Y-117441911D01*
X231494485Y-117337593D01*
X231272640Y-116509656D01*
X231025498Y-117611154D02*
X230852952Y-116967204D01*
X230766679Y-116645228D02*
X230825000Y-116678900D01*
X230791329Y-116737221D01*
X230733007Y-116703550D01*
X230766679Y-116645228D01*
X230791329Y-116737221D01*
X229979019Y-117201373D02*
X230188539Y-117983313D01*
X230259185Y-118062981D01*
X230317507Y-118096653D01*
X230421824Y-118118000D01*
X230559814Y-118081026D01*
X230639482Y-118010380D01*
X230139241Y-117799327D02*
X230243558Y-117820674D01*
X230427544Y-117771375D01*
X230507212Y-117700730D01*
X230540884Y-117642408D01*
X230562231Y-117538091D01*
X230488283Y-117262112D01*
X230417637Y-117182444D01*
X230359316Y-117148772D01*
X230254998Y-117127425D01*
X230071012Y-117176724D01*
X229991344Y-117247370D01*
X229691601Y-117968571D02*
X229432782Y-117002645D01*
X229277632Y-118079493D02*
X229142061Y-117573532D01*
X229163408Y-117469215D01*
X229243076Y-117398569D01*
X229381065Y-117361595D01*
X229485383Y-117382942D01*
X229543704Y-117416613D01*
X228783111Y-117521816D02*
X228415139Y-117620414D01*
X228558849Y-117236815D02*
X228780694Y-118064751D01*
X228759347Y-118169069D01*
X228679678Y-118239715D01*
X228587685Y-118264364D01*
X228265710Y-118350637D02*
X228006891Y-117384711D01*
X228130138Y-117844676D02*
X227578181Y-117992573D01*
X227713753Y-118498534D02*
X227454933Y-117532608D01*
X226873491Y-118674382D02*
X226977809Y-118695729D01*
X227161795Y-118646430D01*
X227241463Y-118575784D01*
X227262810Y-118471467D01*
X227164212Y-118103495D01*
X227093567Y-118023827D01*
X226989249Y-118002480D01*
X226805263Y-118051779D01*
X226725595Y-118122425D01*
X226704248Y-118226742D01*
X226728897Y-118318735D01*
X227213511Y-118287481D01*
X226011883Y-118954548D02*
X225876311Y-118448587D01*
X225897658Y-118344269D01*
X225977327Y-118273624D01*
X226161312Y-118224325D01*
X226265630Y-118245672D01*
X225999559Y-118908552D02*
X226103876Y-118929899D01*
X226333858Y-118868275D01*
X226413527Y-118797629D01*
X226434874Y-118693312D01*
X226410224Y-118601319D01*
X226339578Y-118521651D01*
X226235261Y-118500303D01*
X226005278Y-118561927D01*
X225900961Y-118540580D01*
X225137950Y-119188718D02*
X224879131Y-118222792D01*
X225125626Y-119142721D02*
X225229943Y-119164068D01*
X225413929Y-119114770D01*
X225493597Y-119044124D01*
X225527269Y-118985802D01*
X225548616Y-118881485D01*
X225474668Y-118605506D01*
X225404022Y-118525838D01*
X225345701Y-118492166D01*
X225241383Y-118470819D01*
X225057397Y-118520118D01*
X224977729Y-118590764D01*
X224264017Y-119422887D02*
X224128446Y-118916926D01*
X224149793Y-118812609D01*
X224229461Y-118741963D01*
X224413447Y-118692664D01*
X224517764Y-118714011D01*
X224251693Y-119376891D02*
X224356010Y-119398238D01*
X224585993Y-119336614D01*
X224665661Y-119265969D01*
X224687008Y-119161651D01*
X224662359Y-119069658D01*
X224591713Y-118989990D01*
X224487395Y-118968643D01*
X224257413Y-119030266D01*
X224153095Y-119008919D01*
X223377760Y-119611061D02*
X223482077Y-119632408D01*
X223666063Y-119583109D01*
X223745732Y-119512463D01*
X223779403Y-119454142D01*
X223800750Y-119349824D01*
X223726802Y-119073845D01*
X223656156Y-118994177D01*
X223597835Y-118960505D01*
X223493517Y-118939158D01*
X223309531Y-118988457D01*
X223229863Y-119059103D01*
X222976116Y-119767980D02*
X222717297Y-118802054D01*
X222562148Y-119878902D02*
X222426576Y-119372941D01*
X222447923Y-119268623D01*
X222527592Y-119197977D01*
X222665581Y-119161003D01*
X222769899Y-119182350D01*
X222828220Y-119216022D01*
X221721887Y-120054750D02*
X221826205Y-120076097D01*
X222010191Y-120026799D01*
X222089859Y-119956153D01*
X222111206Y-119851835D01*
X222012608Y-119483863D01*
X221941962Y-119404195D01*
X221837644Y-119382848D01*
X221653659Y-119432147D01*
X221573990Y-119502793D01*
X221552643Y-119607110D01*
X221577293Y-119699103D01*
X222061907Y-119667849D01*
D11*
X55903391Y-115266538D02*
X55718520Y-115956485D01*
X55727543Y-116106799D01*
X55794886Y-116223441D01*
X55920551Y-116306412D01*
X56012544Y-116331061D01*
X54724643Y-115985969D02*
X55184607Y-116109216D01*
X55443426Y-115143290D01*
X53875359Y-115659807D02*
X53909031Y-115718128D01*
X54034696Y-115801098D01*
X54126689Y-115825748D01*
X54277003Y-115816725D01*
X54393645Y-115749382D01*
X54464291Y-115669714D01*
X54559586Y-115498053D01*
X54596561Y-115360063D01*
X54599863Y-115163753D01*
X54578516Y-115059435D01*
X54511172Y-114942793D01*
X54385508Y-114859822D01*
X54293515Y-114835173D01*
X54143201Y-114844195D01*
X54084879Y-114877867D01*
X53419582Y-114601003D02*
X53234711Y-115290950D01*
X53243733Y-115441264D01*
X53311077Y-115557906D01*
X53436742Y-115640877D01*
X53528735Y-115665526D01*
X52240833Y-115320434D02*
X52700798Y-115443682D01*
X52959617Y-114477756D01*
X51391550Y-114994272D02*
X51425222Y-115052593D01*
X51550886Y-115135564D01*
X51642879Y-115160213D01*
X51793193Y-115151191D01*
X51909836Y-115083847D01*
X51980482Y-115004179D01*
X52075777Y-114832518D01*
X52112751Y-114694529D01*
X52116054Y-114498218D01*
X52094707Y-114393900D01*
X52027363Y-114277258D01*
X51901698Y-114194287D01*
X51809705Y-114169638D01*
X51659391Y-114178660D01*
X51601070Y-114212332D01*
X50935773Y-113935468D02*
X50750902Y-114625415D01*
X50759924Y-114775729D01*
X50827268Y-114892372D01*
X50952932Y-114975342D01*
X51044925Y-114999992D01*
X49757024Y-114654900D02*
X50216989Y-114778147D01*
X50475808Y-113812221D01*
X48907741Y-114328737D02*
X48941412Y-114387058D01*
X49067077Y-114470029D01*
X49159070Y-114494678D01*
X49309384Y-114485656D01*
X49426027Y-114418313D01*
X49496672Y-114338644D01*
X49591968Y-114166983D01*
X49628942Y-114028994D01*
X49632244Y-113832683D01*
X49610897Y-113728366D01*
X49543554Y-113611723D01*
X49417889Y-113528753D01*
X49325896Y-113504103D01*
X49175582Y-113513125D01*
X49117261Y-113546797D01*
X48451963Y-113269934D02*
X48267093Y-113959881D01*
X48276115Y-114110195D01*
X48343458Y-114226837D01*
X48469123Y-114309808D01*
X48561116Y-114334457D01*
X47273215Y-113989365D02*
X47733180Y-114112612D01*
X47991999Y-113146686D01*
X46423931Y-113663203D02*
X46457603Y-113721524D01*
X46583268Y-113804494D01*
X46675261Y-113829144D01*
X46825575Y-113820121D01*
X46942217Y-113752778D01*
X47012863Y-113673110D01*
X47108159Y-113501449D01*
X47145133Y-113363459D01*
X47148435Y-113167149D01*
X47127088Y-113062831D01*
X47059745Y-112946189D01*
X46934080Y-112863218D01*
X46842087Y-112838568D01*
X46691773Y-112847591D01*
X46633452Y-112881263D01*
D12*
X127925192Y-67506352D02*
X128098840Y-66521544D01*
X132110625Y-68244357D02*
X132284273Y-67259549D01*
X127925191Y-67506352D02*
G75*
G02*
X126766736Y-68317511I-984807J173648D01*
G01*
X132921785Y-69402813D02*
G75*
G02*
X132110625Y-68244357I173648J984808D01*
G01*
X132284273Y-67259549D02*
G75*
G02*
X133442729Y-66448389I984808J-173648D01*
G01*
X127287681Y-65363089D02*
G75*
G02*
X128098840Y-66521544I-173648J-984807D01*
G01*
X151177681Y-69563089D02*
G75*
G02*
X151988840Y-70721544I-173648J-984807D01*
G01*
X156174273Y-71459549D02*
G75*
G02*
X157332729Y-70648389I984808J-173648D01*
G01*
X156811785Y-73602813D02*
G75*
G02*
X156000625Y-72444357I173648J984808D01*
G01*
X151815191Y-71706352D02*
G75*
G02*
X150656736Y-72517511I-984807J173648D01*
G01*
X151815192Y-71706352D02*
X151988840Y-70721544D01*
X156000625Y-72444357D02*
X156174273Y-71459549D01*
%LPC*%
G36*
G01*
X128229076Y-65782938D02*
X128229076Y-65782938D01*
G75*
G02*
X128518690Y-65580148I246202J-43412D01*
G01*
X129257296Y-65710384D01*
G75*
G02*
X129460086Y-65999998I-43412J-246202D01*
G01*
X129460086Y-65999998D01*
G75*
G02*
X129170472Y-66202788I-246202J43412D01*
G01*
X128431866Y-66072552D01*
G75*
G02*
X128229076Y-65782938I43412J246202D01*
G01*
G37*
G36*
G01*
X129706288Y-66043411D02*
X129706288Y-66043411D01*
G75*
G02*
X129995902Y-65840621I246202J-43412D01*
G01*
X130734508Y-65970857D01*
G75*
G02*
X130937298Y-66260471I-43412J-246202D01*
G01*
X130937298Y-66260471D01*
G75*
G02*
X130647684Y-66463261I-246202J43412D01*
G01*
X129909078Y-66333025D01*
G75*
G02*
X129706288Y-66043411I43412J246202D01*
G01*
G37*
G36*
G01*
X131183500Y-66303883D02*
X131183500Y-66303883D01*
G75*
G02*
X131473114Y-66101093I246202J-43412D01*
G01*
X132211720Y-66231329D01*
G75*
G02*
X132414510Y-66520943I-43412J-246202D01*
G01*
X132414510Y-66520943D01*
G75*
G02*
X132124896Y-66723733I-246202J43412D01*
G01*
X131386290Y-66593497D01*
G75*
G02*
X131183500Y-66303883I43412J246202D01*
G01*
G37*
G36*
G01*
X130749379Y-68765902D02*
X130749379Y-68765902D01*
G75*
G02*
X131038993Y-68563112I246202J-43412D01*
G01*
X131777599Y-68693348D01*
G75*
G02*
X131980389Y-68982962I-43412J-246202D01*
G01*
X131980389Y-68982962D01*
G75*
G02*
X131690775Y-69185752I-246202J43412D01*
G01*
X130952169Y-69055516D01*
G75*
G02*
X130749379Y-68765902I43412J246202D01*
G01*
G37*
G36*
G01*
X129272168Y-68505430D02*
X129272168Y-68505430D01*
G75*
G02*
X129561782Y-68302640I246202J-43412D01*
G01*
X130300388Y-68432876D01*
G75*
G02*
X130503178Y-68722490I-43412J-246202D01*
G01*
X130503178Y-68722490D01*
G75*
G02*
X130213564Y-68925280I-246202J43412D01*
G01*
X129474958Y-68795044D01*
G75*
G02*
X129272168Y-68505430I43412J246202D01*
G01*
G37*
G36*
G01*
X127794956Y-68244958D02*
X127794956Y-68244958D01*
G75*
G02*
X128084570Y-68042168I246202J-43412D01*
G01*
X128823176Y-68172404D01*
G75*
G02*
X129025966Y-68462018I-43412J-246202D01*
G01*
X129025966Y-68462018D01*
G75*
G02*
X128736352Y-68664808I-246202J43412D01*
G01*
X127997746Y-68534572D01*
G75*
G02*
X127794956Y-68244958I43412J246202D01*
G01*
G37*
G36*
G01*
X151684956Y-72444958D02*
X151684956Y-72444958D01*
G75*
G02*
X151974570Y-72242168I246202J-43412D01*
G01*
X152713176Y-72372404D01*
G75*
G02*
X152915966Y-72662018I-43412J-246202D01*
G01*
X152915966Y-72662018D01*
G75*
G02*
X152626352Y-72864808I-246202J43412D01*
G01*
X151887746Y-72734572D01*
G75*
G02*
X151684956Y-72444958I43412J246202D01*
G01*
G37*
G36*
G01*
X153162168Y-72705430D02*
X153162168Y-72705430D01*
G75*
G02*
X153451782Y-72502640I246202J-43412D01*
G01*
X154190388Y-72632876D01*
G75*
G02*
X154393178Y-72922490I-43412J-246202D01*
G01*
X154393178Y-72922490D01*
G75*
G02*
X154103564Y-73125280I-246202J43412D01*
G01*
X153364958Y-72995044D01*
G75*
G02*
X153162168Y-72705430I43412J246202D01*
G01*
G37*
G36*
G01*
X154639379Y-72965902D02*
X154639379Y-72965902D01*
G75*
G02*
X154928993Y-72763112I246202J-43412D01*
G01*
X155667599Y-72893348D01*
G75*
G02*
X155870389Y-73182962I-43412J-246202D01*
G01*
X155870389Y-73182962D01*
G75*
G02*
X155580775Y-73385752I-246202J43412D01*
G01*
X154842169Y-73255516D01*
G75*
G02*
X154639379Y-72965902I43412J246202D01*
G01*
G37*
G36*
G01*
X155073500Y-70503883D02*
X155073500Y-70503883D01*
G75*
G02*
X155363114Y-70301093I246202J-43412D01*
G01*
X156101720Y-70431329D01*
G75*
G02*
X156304510Y-70720943I-43412J-246202D01*
G01*
X156304510Y-70720943D01*
G75*
G02*
X156014896Y-70923733I-246202J43412D01*
G01*
X155276290Y-70793497D01*
G75*
G02*
X155073500Y-70503883I43412J246202D01*
G01*
G37*
G36*
G01*
X153596288Y-70243411D02*
X153596288Y-70243411D01*
G75*
G02*
X153885902Y-70040621I246202J-43412D01*
G01*
X154624508Y-70170857D01*
G75*
G02*
X154827298Y-70460471I-43412J-246202D01*
G01*
X154827298Y-70460471D01*
G75*
G02*
X154537684Y-70663261I-246202J43412D01*
G01*
X153799078Y-70533025D01*
G75*
G02*
X153596288Y-70243411I43412J246202D01*
G01*
G37*
G36*
G01*
X152119076Y-69982938D02*
X152119076Y-69982938D01*
G75*
G02*
X152408690Y-69780148I246202J-43412D01*
G01*
X153147296Y-69910384D01*
G75*
G02*
X153350086Y-70199998I-43412J-246202D01*
G01*
X153350086Y-70199998D01*
G75*
G02*
X153060472Y-70402788I-246202J43412D01*
G01*
X152321866Y-70272552D01*
G75*
G02*
X152119076Y-69982938I43412J246202D01*
G01*
G37*
D13*
X144660000Y-109680000D03*
D14*
X151110000Y-113404000D03*
X138210000Y-113404000D03*
X148960000Y-117128000D03*
X140360000Y-117128000D03*
X144660000Y-117128000D03*
X144660000Y-87334000D03*
X142510000Y-91058000D03*
X142510000Y-113404000D03*
X142510000Y-105955000D03*
X148960000Y-109680000D03*
X144660000Y-102231000D03*
X146810000Y-98507000D03*
X144660000Y-94782000D03*
X140360000Y-102231000D03*
X146810000Y-113404000D03*
X148960000Y-102231000D03*
X142510000Y-98507000D03*
X146810000Y-91058000D03*
X140360000Y-109680000D03*
X146810000Y-105955000D03*
X155313528Y-48440332D03*
X123086265Y-61496600D03*
X138557879Y-45219572D03*
X149750000Y-75250000D03*
X133000000Y-72000000D03*
X89570000Y-111250000D03*
X199750000Y-111250000D03*
X219710000Y-63810000D03*
X144660000Y-154500000D03*
X69610000Y-63810000D03*
M02*
