M48
; DRILL file {KiCad (6.0.0)} date Mon May 15 23:43:59 2023
; FORMAT={-:-/ absolute / metric / decimal}
; #@! TF.CreationDate,2023-05-15T23:43:59+03:00
; #@! TF.GenerationSoftware,Kicad,Pcbnew,(6.0.0)
; #@! TF.FileFunction,NonPlated,1,2,NPTH
FMAT,2
METRIC
; #@! TA.AperFunction,NonPlated,NPTH,ComponentDrill
T1C0.787
%
G90
G05
T1
X125.497Y-61.247
X126.47Y-62.063
X127.442Y-62.88
X127.57Y-58.842
X128.415Y-63.696
X128.543Y-59.658
X129.388Y-64.512
X129.516Y-60.475
X130.489Y-61.291
X131.462Y-62.107
X137.597Y-71.447
X138.57Y-72.263
X139.542Y-73.08
X139.686Y-69.002
X140.515Y-73.896
X140.659Y-69.818
X141.488Y-74.712
X141.632Y-70.635
X142.605Y-71.451
X143.578Y-72.267
T0
M30
