%FSLAX45Y45*%
G04 Gerber Fmt 4.5, Leading zero omitted, Abs format (unit mm)*
G04 Created by KiCad (PCBNEW (6.0.0)) date 2023-05-15 23:44:01*
%MOMM*%
%LPD*%
G01*
G04 APERTURE LIST*
%TA.AperFunction,Profile*%
%ADD10C,0.050000*%
%TD*%
%ADD11C,0.050000*%
%ADD12C,0.200000*%
%ADD13C,0.078740*%
G04 APERTURE END LIST*
D10*
X22430000Y-13080000D02*
G75*
G03*
X22639521Y-12729954I-64214J276164D01*
G01*
X15488109Y-5264255D02*
G75*
G03*
X15564509Y-5263829I37930J48735D01*
G01*
X13649052Y-7050538D02*
G75*
G03*
X13803213Y-7043473I73516J81311D01*
G01*
X13034849Y-6385425D02*
X13104247Y-6307962D01*
X14833842Y-4696895D02*
G75*
G03*
X14332319Y-4341498I-266954J154848D01*
G01*
X13254920Y-6302639D02*
X13865545Y-6811850D01*
X13338300Y-3882915D02*
G75*
G03*
X13268300Y-3882915I-35000J-92728D01*
G01*
X13254920Y-6302639D02*
G75*
G03*
X13104247Y-6307962I-72699J-77319D01*
G01*
X14271336Y-4354264D02*
G75*
G03*
X14332319Y-4341498I22162J46169D01*
G01*
X6672000Y-11320000D02*
X7102000Y-11480000D01*
X16091184Y-6676487D02*
G75*
G03*
X16058488Y-6683332I-11803J-25132D01*
G01*
X12025749Y-4360364D02*
X13268300Y-3882915D01*
X7012478Y-12729954D02*
X7256531Y-11771876D01*
D11*
X10692000Y-5290000D02*
X10581498Y-5256794D01*
X10464395Y-5230015D01*
X10341110Y-5209234D01*
X10212063Y-5194023D01*
X10077671Y-5183954D01*
X9938355Y-5178599D01*
X9794534Y-5177527D01*
X9646625Y-5180313D01*
X9495048Y-5186525D01*
X9340223Y-5195737D01*
X9182567Y-5207520D01*
X9022500Y-5221445D01*
X8860441Y-5237084D01*
X8696809Y-5254009D01*
X8532022Y-5271790D01*
X8366500Y-5290000D01*
X8200662Y-5308210D01*
X8034926Y-5325991D01*
X7869711Y-5342916D01*
X7705437Y-5358555D01*
X7542523Y-5372480D01*
X7381387Y-5384263D01*
X7222448Y-5393475D01*
X7066125Y-5399688D01*
X6912837Y-5402473D01*
X6763004Y-5401401D01*
X6617043Y-5396046D01*
X6475375Y-5385977D01*
X6338417Y-5370766D01*
X6206590Y-5349985D01*
X6080311Y-5323206D01*
X5960000Y-5290000D01*
X22550000Y-11480000D02*
X22539778Y-11483897D01*
X22529747Y-11488091D01*
X22519924Y-11492586D01*
X22510323Y-11497386D01*
X22500961Y-11502495D01*
X22491852Y-11507918D01*
X22483014Y-11513657D01*
X22474460Y-11519717D01*
X22466208Y-11526102D01*
X22458272Y-11532816D01*
X22450669Y-11539863D01*
X22443413Y-11547247D01*
X22436521Y-11554972D01*
X22430009Y-11563043D01*
X22423891Y-11571462D01*
X22418184Y-11580234D01*
X22412902Y-11589364D01*
X22408063Y-11598854D01*
X22403681Y-11608710D01*
X22399773Y-11618934D01*
X22396353Y-11629532D01*
X22393437Y-11640507D01*
X22391042Y-11651863D01*
X22389182Y-11663604D01*
X22387874Y-11675734D01*
X22387133Y-11688257D01*
X22386974Y-11701177D01*
X22387414Y-11714499D01*
X22388467Y-11728225D01*
X22390151Y-11742361D01*
X22392479Y-11756910D01*
X22395469Y-11771876D01*
D10*
X12025749Y-4360364D02*
G75*
G03*
X11858300Y-4812915I122408J-302547D01*
G01*
X22430000Y-13080000D02*
G75*
G03*
X16420000Y-16570000I2007942J-10377602D01*
G01*
X16063197Y-5589563D02*
X15905728Y-6058868D01*
X13872610Y-6966010D02*
G75*
G03*
X13865545Y-6811850I-81311J73516D01*
G01*
X13232000Y-16570000D02*
G75*
G03*
X7222000Y-13080000I-8017942J-6887603D01*
G01*
X12077990Y-5297991D02*
X11858300Y-4812915D01*
D11*
X18960000Y-5290000D02*
X19070502Y-5256794D01*
X19187605Y-5230015D01*
X19310890Y-5209234D01*
X19439938Y-5194023D01*
X19574329Y-5183954D01*
X19713645Y-5178599D01*
X19857466Y-5177527D01*
X20005375Y-5180313D01*
X20156952Y-5186525D01*
X20311777Y-5195737D01*
X20469433Y-5207520D01*
X20629500Y-5221445D01*
X20791559Y-5237084D01*
X20955191Y-5254009D01*
X21119978Y-5271790D01*
X21285500Y-5290000D01*
X21451338Y-5308210D01*
X21617074Y-5325991D01*
X21782289Y-5342916D01*
X21946563Y-5358555D01*
X22109477Y-5372480D01*
X22270613Y-5384263D01*
X22429552Y-5393475D01*
X22585875Y-5399688D01*
X22739162Y-5402473D01*
X22888996Y-5401401D01*
X23034956Y-5396046D01*
X23176625Y-5385977D01*
X23313582Y-5370766D01*
X23445410Y-5349985D01*
X23571689Y-5323206D01*
X23692000Y-5290000D01*
D10*
X14314247Y-7327962D02*
X14244849Y-7405425D01*
X16090000Y-16640000D02*
G75*
G03*
X16420000Y-16570000I116382J264198D01*
G01*
D11*
X16091184Y-6676487D02*
X16100507Y-6679509D01*
X16109831Y-6681729D01*
X16119074Y-6683231D01*
X16128152Y-6684097D01*
X16136982Y-6684412D01*
X16145480Y-6684260D01*
X16153563Y-6683725D01*
X16161149Y-6682890D01*
X16168154Y-6681839D01*
X16174495Y-6680656D01*
X16180089Y-6679425D01*
X16186896Y-6677672D01*
X16192581Y-6675949D01*
X16193936Y-6675485D01*
D10*
X14833842Y-4696895D02*
G75*
G03*
X14846918Y-4762280I43076J-25386D01*
G01*
X13338300Y-3882915D02*
X14271336Y-4354264D01*
D11*
X22980000Y-11320000D02*
X23012130Y-11309952D01*
X23042979Y-11302198D01*
X23072671Y-11296568D01*
X23101332Y-11292895D01*
X23129086Y-11291011D01*
X23156058Y-11290749D01*
X23182374Y-11291938D01*
X23208157Y-11294413D01*
X23233533Y-11298005D01*
X23258627Y-11302546D01*
X23283564Y-11307867D01*
X23308468Y-11313801D01*
X23333464Y-11320181D01*
X23358678Y-11326837D01*
X23384234Y-11333602D01*
X23410257Y-11340307D01*
X23436872Y-11346786D01*
X23464204Y-11352869D01*
X23492377Y-11358389D01*
X23521518Y-11363178D01*
X23551749Y-11367068D01*
X23583197Y-11369891D01*
X23615987Y-11371478D01*
X23650242Y-11371662D01*
X23686089Y-11370275D01*
X23723652Y-11367149D01*
X23763055Y-11362115D01*
X23804424Y-11355007D01*
X23847884Y-11345655D01*
X23893559Y-11333891D01*
X23941575Y-11319549D01*
X23992056Y-11302459D01*
D10*
X23692000Y-5290000D02*
X25062629Y-4831323D01*
X17060000Y-6390000D02*
X16193936Y-6675485D01*
X15851631Y-6148116D02*
G75*
G03*
X15905728Y-6058868I-200744J182700D01*
G01*
X12662610Y-5946010D02*
G75*
G03*
X12653644Y-5797515I-76696J69887D01*
G01*
X2471278Y-9857246D02*
G75*
G03*
X2627987Y-10193841I246664J-89937D01*
G01*
X16063197Y-5589563D02*
G75*
G03*
X15564509Y-5263829I-293336J95518D01*
G01*
X15748740Y-7523326D02*
G75*
G03*
X15750016Y-7494857I-18622J15098D01*
G01*
D11*
X7102000Y-11480000D02*
X7112222Y-11483897D01*
X7122252Y-11488091D01*
X7132076Y-11492586D01*
X7141677Y-11497386D01*
X7151039Y-11502495D01*
X7160147Y-11507918D01*
X7168986Y-11513657D01*
X7177539Y-11519717D01*
X7185792Y-11526102D01*
X7193728Y-11532816D01*
X7201331Y-11539863D01*
X7208587Y-11547247D01*
X7215478Y-11554972D01*
X7221991Y-11563043D01*
X7228109Y-11571462D01*
X7233816Y-11580234D01*
X7239097Y-11589364D01*
X7243937Y-11598854D01*
X7248319Y-11608710D01*
X7252227Y-11618934D01*
X7255647Y-11629532D01*
X7258563Y-11640507D01*
X7260958Y-11651863D01*
X7262818Y-11663604D01*
X7264126Y-11675734D01*
X7264867Y-11688257D01*
X7265026Y-11701177D01*
X7264586Y-11714499D01*
X7263532Y-11728225D01*
X7261849Y-11742361D01*
X7259521Y-11756910D01*
X7256531Y-11771876D01*
D10*
X12077990Y-5297991D02*
G75*
G03*
X12103733Y-5336464I98159J37831D01*
G01*
X12188292Y-5837250D02*
X10692000Y-5290000D01*
X25399224Y-4988032D02*
X27180723Y-9857246D01*
X22395469Y-11771876D02*
X22639521Y-12729954D01*
X14846918Y-4762280D02*
X15488109Y-5264255D01*
X16090000Y-16640000D02*
G75*
G03*
X13562000Y-16640000I-1264000J-2313266D01*
G01*
X12260157Y-5880836D02*
X12439052Y-6030538D01*
X15142837Y-7764736D02*
G75*
G03*
X15117284Y-7771516I-8387J-19934D01*
G01*
D11*
X6672000Y-11320000D02*
X6639870Y-11309952D01*
X6609021Y-11302198D01*
X6579329Y-11296568D01*
X6550668Y-11292895D01*
X6522914Y-11291011D01*
X6495941Y-11290749D01*
X6469626Y-11291938D01*
X6443843Y-11294413D01*
X6418467Y-11298005D01*
X6393373Y-11302546D01*
X6368436Y-11307867D01*
X6343532Y-11313801D01*
X6318536Y-11320181D01*
X6293322Y-11326837D01*
X6267766Y-11333602D01*
X6241743Y-11340307D01*
X6215128Y-11346786D01*
X6187796Y-11352869D01*
X6159622Y-11358389D01*
X6130482Y-11363178D01*
X6100251Y-11367068D01*
X6068802Y-11369891D01*
X6036013Y-11371478D01*
X6001757Y-11371662D01*
X5965911Y-11370275D01*
X5928348Y-11367149D01*
X5888945Y-11362115D01*
X5847575Y-11355007D01*
X5804116Y-11345655D01*
X5758440Y-11333891D01*
X5710425Y-11319549D01*
X5659944Y-11302459D01*
D10*
X5659944Y-11302459D02*
X2627987Y-10193841D01*
X7012478Y-12729954D02*
G75*
G03*
X7222000Y-13080000I273736J-73882D01*
G01*
X14468407Y-7320897D02*
G75*
G03*
X14314247Y-7327962I-73516J-81311D01*
G01*
X27024013Y-10193841D02*
G75*
G03*
X27180723Y-9857246I-89955J246658D01*
G01*
X15596552Y-7236388D02*
G75*
G03*
X15595539Y-7260429I14584J-12656D01*
G01*
X14842851Y-8057228D02*
G75*
G03*
X14882757Y-8052346I17514J22377D01*
G01*
X14244849Y-7405425D02*
G75*
G03*
X14251915Y-7559585I81311J-73516D01*
G01*
X13041915Y-6539585D02*
X13649052Y-7050538D01*
X15750016Y-7494857D02*
X15595539Y-7260429D01*
X25399224Y-4988032D02*
G75*
G03*
X25062629Y-4831323I-246658J-89955D01*
G01*
X4589371Y-4831323D02*
X5960000Y-5290000D01*
X18960000Y-5290000D02*
X17940000Y-5660000D01*
X13034849Y-6385425D02*
G75*
G03*
X13041915Y-6539585I81311J-73516D01*
G01*
X14251915Y-7559585D02*
X14842851Y-8057228D01*
X4589371Y-4831323D02*
G75*
G03*
X4252776Y-4988032I-89937J-246664D01*
G01*
D11*
X17940000Y-5660000D02*
X17898253Y-5680173D01*
X17859146Y-5701267D01*
X17822507Y-5723207D01*
X17788164Y-5745918D01*
X17755945Y-5769325D01*
X17725679Y-5793352D01*
X17697192Y-5817925D01*
X17670313Y-5842969D01*
X17644869Y-5868408D01*
X17620688Y-5894167D01*
X17597599Y-5920172D01*
X17575430Y-5946348D01*
X17554007Y-5972618D01*
X17533159Y-5998909D01*
X17512714Y-6025144D01*
X17492500Y-6051250D01*
X17472344Y-6077150D01*
X17452075Y-6102771D01*
X17431520Y-6128036D01*
X17410508Y-6152871D01*
X17388865Y-6177201D01*
X17366421Y-6200950D01*
X17343002Y-6224043D01*
X17318438Y-6246406D01*
X17292554Y-6267963D01*
X17265181Y-6288640D01*
X17236144Y-6308361D01*
X17205273Y-6327051D01*
X17172396Y-6344635D01*
X17137339Y-6361037D01*
X17099931Y-6376184D01*
X17060000Y-6390000D01*
D10*
X13232000Y-16570000D02*
G75*
G03*
X13562000Y-16640000I213618J194198D01*
G01*
X15117284Y-7771516D02*
X14882757Y-8052346D01*
X14658238Y-7480499D02*
G75*
G03*
X14733087Y-7472479I33486J40769D01*
G01*
X15420723Y-7881829D02*
G75*
G03*
X15453673Y-7873778I11405J24776D01*
G01*
X13872610Y-6966010D02*
X13803213Y-7043473D01*
X27024013Y-10193841D02*
X23992056Y-11302459D01*
X12653644Y-5797515D02*
X12103733Y-5336464D01*
X15748740Y-7523326D02*
X15453673Y-7873778D01*
X12593213Y-6023473D02*
X12662610Y-5946010D01*
X15851631Y-6148116D02*
X14733087Y-7472479D01*
X12439052Y-6030538D02*
G75*
G03*
X12593213Y-6023473I73516J81311D01*
G01*
D11*
X12260157Y-5880836D02*
X12253813Y-5875492D01*
X12248207Y-5870795D01*
X12243234Y-5866682D01*
X12238789Y-5863088D01*
X12234767Y-5859950D01*
X12229295Y-5855958D01*
X12224181Y-5852632D01*
X12219070Y-5849757D01*
X12213608Y-5847117D01*
X12207437Y-5844497D01*
X12202755Y-5842655D01*
X12197495Y-5840662D01*
X12191552Y-5838454D01*
X12188292Y-5837250D01*
D10*
X15420723Y-7881829D02*
X15142837Y-7764736D01*
X22550000Y-11480000D02*
X22980000Y-11320000D01*
X14468407Y-7320897D02*
X14658238Y-7480499D01*
X2471277Y-9857246D02*
X4252776Y-4988032D01*
X16058488Y-6683332D02*
X15596552Y-7236388D01*
D12*
D13*
X12510301Y-6085324D02*
X12589041Y-6164064D01*
X12589041Y-6085324D02*
X12510301Y-6164064D01*
X12607589Y-6166958D02*
X12686329Y-6245698D01*
X12686329Y-6166958D02*
X12607589Y-6245698D01*
X12704877Y-6248592D02*
X12783617Y-6327332D01*
X12783617Y-6248592D02*
X12704877Y-6327332D01*
X12717631Y-5844816D02*
X12796371Y-5923556D01*
X12796371Y-5844816D02*
X12717631Y-5923556D01*
X12802164Y-6330226D02*
X12880904Y-6408966D01*
X12880904Y-6330226D02*
X12802164Y-6408966D01*
X12814919Y-5926450D02*
X12893659Y-6005190D01*
X12893659Y-5926450D02*
X12814919Y-6005190D01*
X12899452Y-6411860D02*
X12978192Y-6490600D01*
X12978192Y-6411860D02*
X12899452Y-6490600D01*
X12912206Y-6008084D02*
X12990946Y-6086824D01*
X12990946Y-6008084D02*
X12912206Y-6086824D01*
X13009494Y-6089718D02*
X13088234Y-6168458D01*
X13088234Y-6089718D02*
X13009494Y-6168458D01*
X13106782Y-6171352D02*
X13185522Y-6250092D01*
X13185522Y-6171352D02*
X13106782Y-6250092D01*
X13720301Y-7105324D02*
X13799041Y-7184064D01*
X13799041Y-7105324D02*
X13720301Y-7184064D01*
X13817589Y-7186958D02*
X13896329Y-7265698D01*
X13896329Y-7186958D02*
X13817589Y-7265698D01*
X13914877Y-7268592D02*
X13993617Y-7347332D01*
X13993617Y-7268592D02*
X13914877Y-7347332D01*
X13929267Y-6860835D02*
X14008007Y-6939575D01*
X14008007Y-6860835D02*
X13929267Y-6939575D01*
X14012164Y-7350226D02*
X14090904Y-7428966D01*
X14090904Y-7350226D02*
X14012164Y-7428966D01*
X14026555Y-6942469D02*
X14105295Y-7021209D01*
X14105295Y-6942469D02*
X14026555Y-7021209D01*
X14109452Y-7431860D02*
X14188192Y-7510600D01*
X14188192Y-7431860D02*
X14109452Y-7510600D01*
X14123843Y-7024103D02*
X14202583Y-7102843D01*
X14202583Y-7024103D02*
X14123843Y-7102843D01*
X14221130Y-7105737D02*
X14299870Y-7184477D01*
X14299870Y-7105737D02*
X14221130Y-7184477D01*
X14318418Y-7187371D02*
X14397158Y-7266111D01*
X14397158Y-7187371D02*
X14318418Y-7266111D01*
D12*
X2710512Y-16977474D02*
X2710512Y-16777474D01*
X2758131Y-16777474D01*
X2786702Y-16786998D01*
X2805750Y-16806046D01*
X2815274Y-16825093D01*
X2824797Y-16863189D01*
X2824797Y-16891760D01*
X2815274Y-16929855D01*
X2805750Y-16948903D01*
X2786702Y-16967950D01*
X2758131Y-16977474D01*
X2710512Y-16977474D01*
X2910512Y-16977474D02*
X2910512Y-16844141D01*
X2910512Y-16882236D02*
X2920035Y-16863189D01*
X2929559Y-16853665D01*
X2948607Y-16844141D01*
X2967655Y-16844141D01*
X3034321Y-16977474D02*
X3034321Y-16844141D01*
X3034321Y-16777474D02*
X3024797Y-16786998D01*
X3034321Y-16796522D01*
X3043845Y-16786998D01*
X3034321Y-16777474D01*
X3034321Y-16796522D01*
X3158131Y-16977474D02*
X3139083Y-16967950D01*
X3129559Y-16948903D01*
X3129559Y-16777474D01*
X3262893Y-16977474D02*
X3243845Y-16967950D01*
X3234321Y-16948903D01*
X3234321Y-16777474D01*
X3491464Y-16977474D02*
X3491464Y-16777474D01*
X3558131Y-16920331D01*
X3624797Y-16777474D01*
X3624797Y-16977474D01*
X3805750Y-16977474D02*
X3805750Y-16872712D01*
X3796226Y-16853665D01*
X3777178Y-16844141D01*
X3739083Y-16844141D01*
X3720035Y-16853665D01*
X3805750Y-16967950D02*
X3786702Y-16977474D01*
X3739083Y-16977474D01*
X3720035Y-16967950D01*
X3710512Y-16948903D01*
X3710512Y-16929855D01*
X3720035Y-16910808D01*
X3739083Y-16901284D01*
X3786702Y-16901284D01*
X3805750Y-16891760D01*
X3900988Y-16844141D02*
X3900988Y-17044141D01*
X3900988Y-16853665D02*
X3920035Y-16844141D01*
X3958131Y-16844141D01*
X3977178Y-16853665D01*
X3986702Y-16863189D01*
X3996226Y-16882236D01*
X3996226Y-16939379D01*
X3986702Y-16958427D01*
X3977178Y-16967950D01*
X3958131Y-16977474D01*
X3920035Y-16977474D01*
X3900988Y-16967950D01*
X4081940Y-16958427D02*
X4091464Y-16967950D01*
X4081940Y-16977474D01*
X4072416Y-16967950D01*
X4081940Y-16958427D01*
X4081940Y-16977474D01*
X4081940Y-16853665D02*
X4091464Y-16863189D01*
X4081940Y-16872712D01*
X4072416Y-16863189D01*
X4081940Y-16853665D01*
X4081940Y-16872712D01*
D13*
X2374153Y-17267628D02*
X2452893Y-17346368D01*
X2452893Y-17267628D02*
X2374153Y-17346368D01*
D12*
X2748607Y-17197474D02*
X2767655Y-17197474D01*
X2786702Y-17206998D01*
X2796226Y-17216522D01*
X2805750Y-17235570D01*
X2815274Y-17273665D01*
X2815274Y-17321284D01*
X2805750Y-17359379D01*
X2796226Y-17378427D01*
X2786702Y-17387950D01*
X2767655Y-17397474D01*
X2748607Y-17397474D01*
X2729559Y-17387950D01*
X2720036Y-17378427D01*
X2710512Y-17359379D01*
X2700988Y-17321284D01*
X2700988Y-17273665D01*
X2710512Y-17235570D01*
X2720036Y-17216522D01*
X2729559Y-17206998D01*
X2748607Y-17197474D01*
X2900988Y-17378427D02*
X2910512Y-17387950D01*
X2900988Y-17397474D01*
X2891464Y-17387950D01*
X2900988Y-17378427D01*
X2900988Y-17397474D01*
X2977178Y-17197474D02*
X3110512Y-17197474D01*
X3024797Y-17397474D01*
X3215274Y-17283189D02*
X3196226Y-17273665D01*
X3186702Y-17264141D01*
X3177178Y-17245093D01*
X3177178Y-17235570D01*
X3186702Y-17216522D01*
X3196226Y-17206998D01*
X3215274Y-17197474D01*
X3253369Y-17197474D01*
X3272416Y-17206998D01*
X3281940Y-17216522D01*
X3291464Y-17235570D01*
X3291464Y-17245093D01*
X3281940Y-17264141D01*
X3272416Y-17273665D01*
X3253369Y-17283189D01*
X3215274Y-17283189D01*
X3196226Y-17292712D01*
X3186702Y-17302236D01*
X3177178Y-17321284D01*
X3177178Y-17359379D01*
X3186702Y-17378427D01*
X3196226Y-17387950D01*
X3215274Y-17397474D01*
X3253369Y-17397474D01*
X3272416Y-17387950D01*
X3281940Y-17378427D01*
X3291464Y-17359379D01*
X3291464Y-17321284D01*
X3281940Y-17302236D01*
X3272416Y-17292712D01*
X3253369Y-17283189D01*
X3358131Y-17197474D02*
X3491464Y-17197474D01*
X3405750Y-17397474D01*
X3567655Y-17397474D02*
X3567655Y-17264141D01*
X3567655Y-17283189D02*
X3577178Y-17273665D01*
X3596226Y-17264141D01*
X3624797Y-17264141D01*
X3643845Y-17273665D01*
X3653369Y-17292712D01*
X3653369Y-17397474D01*
X3653369Y-17292712D02*
X3662893Y-17273665D01*
X3681940Y-17264141D01*
X3710512Y-17264141D01*
X3729559Y-17273665D01*
X3739083Y-17292712D01*
X3739083Y-17397474D01*
X3834321Y-17397474D02*
X3834321Y-17264141D01*
X3834321Y-17283189D02*
X3843845Y-17273665D01*
X3862893Y-17264141D01*
X3891464Y-17264141D01*
X3910512Y-17273665D01*
X3920035Y-17292712D01*
X3920035Y-17397474D01*
X3920035Y-17292712D02*
X3929559Y-17273665D01*
X3948607Y-17264141D01*
X3977178Y-17264141D01*
X3996226Y-17273665D01*
X4005750Y-17292712D01*
X4005750Y-17397474D01*
X4396226Y-17187950D02*
X4224797Y-17445093D01*
X4653369Y-17197474D02*
X4672417Y-17197474D01*
X4691464Y-17206998D01*
X4700988Y-17216522D01*
X4710512Y-17235570D01*
X4720036Y-17273665D01*
X4720036Y-17321284D01*
X4710512Y-17359379D01*
X4700988Y-17378427D01*
X4691464Y-17387950D01*
X4672417Y-17397474D01*
X4653369Y-17397474D01*
X4634321Y-17387950D01*
X4624797Y-17378427D01*
X4615274Y-17359379D01*
X4605750Y-17321284D01*
X4605750Y-17273665D01*
X4615274Y-17235570D01*
X4624797Y-17216522D01*
X4634321Y-17206998D01*
X4653369Y-17197474D01*
X4805750Y-17378427D02*
X4815274Y-17387950D01*
X4805750Y-17397474D01*
X4796226Y-17387950D01*
X4805750Y-17378427D01*
X4805750Y-17397474D01*
X4939083Y-17197474D02*
X4958131Y-17197474D01*
X4977178Y-17206998D01*
X4986702Y-17216522D01*
X4996226Y-17235570D01*
X5005750Y-17273665D01*
X5005750Y-17321284D01*
X4996226Y-17359379D01*
X4986702Y-17378427D01*
X4977178Y-17387950D01*
X4958131Y-17397474D01*
X4939083Y-17397474D01*
X4920036Y-17387950D01*
X4910512Y-17378427D01*
X4900988Y-17359379D01*
X4891464Y-17321284D01*
X4891464Y-17273665D01*
X4900988Y-17235570D01*
X4910512Y-17216522D01*
X4920036Y-17206998D01*
X4939083Y-17197474D01*
X5072417Y-17197474D02*
X5196226Y-17197474D01*
X5129559Y-17273665D01*
X5158131Y-17273665D01*
X5177178Y-17283189D01*
X5186702Y-17292712D01*
X5196226Y-17311760D01*
X5196226Y-17359379D01*
X5186702Y-17378427D01*
X5177178Y-17387950D01*
X5158131Y-17397474D01*
X5100988Y-17397474D01*
X5081940Y-17387950D01*
X5072417Y-17378427D01*
X5386702Y-17397474D02*
X5272417Y-17397474D01*
X5329559Y-17397474D02*
X5329559Y-17197474D01*
X5310512Y-17226046D01*
X5291464Y-17245093D01*
X5272417Y-17254617D01*
X5510512Y-17197474D02*
X5529559Y-17197474D01*
X5548607Y-17206998D01*
X5558131Y-17216522D01*
X5567655Y-17235570D01*
X5577178Y-17273665D01*
X5577178Y-17321284D01*
X5567655Y-17359379D01*
X5558131Y-17378427D01*
X5548607Y-17387950D01*
X5529559Y-17397474D01*
X5510512Y-17397474D01*
X5491464Y-17387950D01*
X5481940Y-17378427D01*
X5472417Y-17359379D01*
X5462893Y-17321284D01*
X5462893Y-17273665D01*
X5472417Y-17235570D01*
X5481940Y-17216522D01*
X5491464Y-17206998D01*
X5510512Y-17197474D01*
X5653369Y-17197474D02*
X5653369Y-17235570D01*
X5729559Y-17197474D02*
X5729559Y-17235570D01*
X6024797Y-17473665D02*
X6015274Y-17464141D01*
X5996226Y-17435570D01*
X5986702Y-17416522D01*
X5977178Y-17387950D01*
X5967655Y-17340331D01*
X5967655Y-17302236D01*
X5977178Y-17254617D01*
X5986702Y-17226046D01*
X5996226Y-17206998D01*
X6015274Y-17178427D01*
X6024797Y-17168903D01*
X6091464Y-17216522D02*
X6100988Y-17206998D01*
X6120035Y-17197474D01*
X6167655Y-17197474D01*
X6186702Y-17206998D01*
X6196226Y-17216522D01*
X6205750Y-17235570D01*
X6205750Y-17254617D01*
X6196226Y-17283189D01*
X6081940Y-17397474D01*
X6205750Y-17397474D01*
X6329559Y-17197474D02*
X6348607Y-17197474D01*
X6367655Y-17206998D01*
X6377178Y-17216522D01*
X6386702Y-17235570D01*
X6396226Y-17273665D01*
X6396226Y-17321284D01*
X6386702Y-17359379D01*
X6377178Y-17378427D01*
X6367655Y-17387950D01*
X6348607Y-17397474D01*
X6329559Y-17397474D01*
X6310512Y-17387950D01*
X6300988Y-17378427D01*
X6291464Y-17359379D01*
X6281940Y-17321284D01*
X6281940Y-17273665D01*
X6291464Y-17235570D01*
X6300988Y-17216522D01*
X6310512Y-17206998D01*
X6329559Y-17197474D01*
X6634321Y-17397474D02*
X6634321Y-17197474D01*
X6720035Y-17397474D02*
X6720035Y-17292712D01*
X6710512Y-17273665D01*
X6691464Y-17264141D01*
X6662893Y-17264141D01*
X6643845Y-17273665D01*
X6634321Y-17283189D01*
X6843845Y-17397474D02*
X6824797Y-17387950D01*
X6815274Y-17378427D01*
X6805750Y-17359379D01*
X6805750Y-17302236D01*
X6815274Y-17283189D01*
X6824797Y-17273665D01*
X6843845Y-17264141D01*
X6872416Y-17264141D01*
X6891464Y-17273665D01*
X6900988Y-17283189D01*
X6910512Y-17302236D01*
X6910512Y-17359379D01*
X6900988Y-17378427D01*
X6891464Y-17387950D01*
X6872416Y-17397474D01*
X6843845Y-17397474D01*
X7024797Y-17397474D02*
X7005750Y-17387950D01*
X6996226Y-17368903D01*
X6996226Y-17197474D01*
X7177178Y-17387950D02*
X7158131Y-17397474D01*
X7120035Y-17397474D01*
X7100988Y-17387950D01*
X7091464Y-17368903D01*
X7091464Y-17292712D01*
X7100988Y-17273665D01*
X7120035Y-17264141D01*
X7158131Y-17264141D01*
X7177178Y-17273665D01*
X7186702Y-17292712D01*
X7186702Y-17311760D01*
X7091464Y-17330808D01*
X7262893Y-17387950D02*
X7281940Y-17397474D01*
X7320035Y-17397474D01*
X7339083Y-17387950D01*
X7348607Y-17368903D01*
X7348607Y-17359379D01*
X7339083Y-17340331D01*
X7320035Y-17330808D01*
X7291464Y-17330808D01*
X7272416Y-17321284D01*
X7262893Y-17302236D01*
X7262893Y-17292712D01*
X7272416Y-17273665D01*
X7291464Y-17264141D01*
X7320035Y-17264141D01*
X7339083Y-17273665D01*
X7415274Y-17473665D02*
X7424797Y-17464141D01*
X7443845Y-17435570D01*
X7453369Y-17416522D01*
X7462893Y-17387950D01*
X7472416Y-17340331D01*
X7472416Y-17302236D01*
X7462893Y-17254617D01*
X7453369Y-17226046D01*
X7443845Y-17206998D01*
X7424797Y-17178427D01*
X7415274Y-17168903D01*
X7777178Y-17473665D02*
X7767655Y-17464141D01*
X7748607Y-17435570D01*
X7739083Y-17416522D01*
X7729559Y-17387950D01*
X7720035Y-17340331D01*
X7720035Y-17302236D01*
X7729559Y-17254617D01*
X7739083Y-17226046D01*
X7748607Y-17206998D01*
X7767655Y-17178427D01*
X7777178Y-17168903D01*
X7853369Y-17264141D02*
X7853369Y-17397474D01*
X7853369Y-17283189D02*
X7862893Y-17273665D01*
X7881940Y-17264141D01*
X7910512Y-17264141D01*
X7929559Y-17273665D01*
X7939083Y-17292712D01*
X7939083Y-17397474D01*
X8062893Y-17397474D02*
X8043845Y-17387950D01*
X8034321Y-17378427D01*
X8024797Y-17359379D01*
X8024797Y-17302236D01*
X8034321Y-17283189D01*
X8043845Y-17273665D01*
X8062893Y-17264141D01*
X8091464Y-17264141D01*
X8110512Y-17273665D01*
X8120035Y-17283189D01*
X8129559Y-17302236D01*
X8129559Y-17359379D01*
X8120035Y-17378427D01*
X8110512Y-17387950D01*
X8091464Y-17397474D01*
X8062893Y-17397474D01*
X8186702Y-17264141D02*
X8262893Y-17264141D01*
X8215274Y-17197474D02*
X8215274Y-17368903D01*
X8224797Y-17387950D01*
X8243845Y-17397474D01*
X8262893Y-17397474D01*
X8481940Y-17264141D02*
X8481940Y-17464141D01*
X8481940Y-17273665D02*
X8500988Y-17264141D01*
X8539083Y-17264141D01*
X8558131Y-17273665D01*
X8567655Y-17283189D01*
X8577178Y-17302236D01*
X8577178Y-17359379D01*
X8567655Y-17378427D01*
X8558131Y-17387950D01*
X8539083Y-17397474D01*
X8500988Y-17397474D01*
X8481940Y-17387950D01*
X8691464Y-17397474D02*
X8672417Y-17387950D01*
X8662893Y-17368903D01*
X8662893Y-17197474D01*
X8853369Y-17397474D02*
X8853369Y-17292712D01*
X8843845Y-17273665D01*
X8824797Y-17264141D01*
X8786702Y-17264141D01*
X8767655Y-17273665D01*
X8853369Y-17387950D02*
X8834321Y-17397474D01*
X8786702Y-17397474D01*
X8767655Y-17387950D01*
X8758131Y-17368903D01*
X8758131Y-17349855D01*
X8767655Y-17330808D01*
X8786702Y-17321284D01*
X8834321Y-17321284D01*
X8853369Y-17311760D01*
X8920036Y-17264141D02*
X8996226Y-17264141D01*
X8948607Y-17197474D02*
X8948607Y-17368903D01*
X8958131Y-17387950D01*
X8977178Y-17397474D01*
X8996226Y-17397474D01*
X9139083Y-17387950D02*
X9120036Y-17397474D01*
X9081940Y-17397474D01*
X9062893Y-17387950D01*
X9053369Y-17368903D01*
X9053369Y-17292712D01*
X9062893Y-17273665D01*
X9081940Y-17264141D01*
X9120036Y-17264141D01*
X9139083Y-17273665D01*
X9148607Y-17292712D01*
X9148607Y-17311760D01*
X9053369Y-17330808D01*
X9320036Y-17397474D02*
X9320036Y-17197474D01*
X9320036Y-17387950D02*
X9300988Y-17397474D01*
X9262893Y-17397474D01*
X9243845Y-17387950D01*
X9234321Y-17378427D01*
X9224797Y-17359379D01*
X9224797Y-17302236D01*
X9234321Y-17283189D01*
X9243845Y-17273665D01*
X9262893Y-17264141D01*
X9300988Y-17264141D01*
X9320036Y-17273665D01*
X9396226Y-17473665D02*
X9405750Y-17464141D01*
X9424797Y-17435570D01*
X9434321Y-17416522D01*
X9443845Y-17387950D01*
X9453369Y-17340331D01*
X9453369Y-17302236D01*
X9443845Y-17254617D01*
X9434321Y-17226046D01*
X9424797Y-17206998D01*
X9405750Y-17178427D01*
X9396226Y-17168903D01*
M02*
