G04 #@! TF.GenerationSoftware,KiCad,Pcbnew,(6.0.0)*
G04 #@! TF.CreationDate,2023-05-15T23:43:54+03:00*
G04 #@! TF.ProjectId,choctopus44-top-plate,63686f63-746f-4707-9573-34342d746f70,2.0*
G04 #@! TF.SameCoordinates,Original*
G04 #@! TF.FileFunction,Legend,Bot*
G04 #@! TF.FilePolarity,Positive*
%FSLAX46Y46*%
G04 Gerber Fmt 4.6, Leading zero omitted, Abs format (unit mm)*
G04 Created by KiCad (PCBNEW (6.0.0)) date 2023-05-15 23:43:54*
%MOMM*%
%LPD*%
G01*
G04 APERTURE LIST*
%ADD10C,0.200000*%
%ADD11C,0.150000*%
%ADD12C,0.787400*%
%ADD13C,3.800000*%
G04 APERTURE END LIST*
D10*
X74227781Y-113665213D02*
X73983481Y-114336422D01*
X73979368Y-114486951D01*
X74036290Y-114609019D01*
X74154245Y-114702626D01*
X74243739Y-114735199D01*
X72990816Y-114279172D02*
X73438288Y-114442039D01*
X73780309Y-113502347D01*
X72173191Y-113880231D02*
X72201652Y-113941265D01*
X72319607Y-114034872D01*
X72409101Y-114067446D01*
X72559630Y-114071558D01*
X72681698Y-114014637D01*
X72759018Y-113941429D01*
X72868912Y-113778727D01*
X72917772Y-113644485D01*
X72938172Y-113449209D01*
X72925998Y-113343428D01*
X72869077Y-113221360D01*
X72751121Y-113127753D01*
X72661627Y-113095180D01*
X72511098Y-113091067D01*
X72450064Y-113119528D01*
X71811429Y-112785733D02*
X71567129Y-113456942D01*
X71563016Y-113607470D01*
X71619937Y-113729538D01*
X71737892Y-113823146D01*
X71827387Y-113855719D01*
X70574463Y-113399692D02*
X71021936Y-113562559D01*
X71363956Y-112622866D01*
X69756839Y-113000751D02*
X69785299Y-113061785D01*
X69903254Y-113155392D01*
X69992749Y-113187965D01*
X70143277Y-113192078D01*
X70265345Y-113135157D01*
X70342666Y-113061949D01*
X70452560Y-112899247D01*
X70501420Y-112765005D01*
X70521819Y-112569729D01*
X70509645Y-112463948D01*
X70452724Y-112341880D01*
X70334769Y-112248273D01*
X70245274Y-112215699D01*
X70094746Y-112211587D01*
X70033712Y-112240047D01*
X69395076Y-111906253D02*
X69150776Y-112577462D01*
X69146663Y-112727990D01*
X69203585Y-112850058D01*
X69321540Y-112943665D01*
X69411034Y-112976239D01*
X68158111Y-112520212D02*
X68605583Y-112683078D01*
X68947604Y-111743386D01*
X67340486Y-112121270D02*
X67368947Y-112182304D01*
X67486902Y-112275912D01*
X67576396Y-112308485D01*
X67726925Y-112312598D01*
X67848993Y-112255676D01*
X67926313Y-112182469D01*
X68036207Y-112019766D01*
X68085067Y-111885524D01*
X68105467Y-111690249D01*
X68093293Y-111584467D01*
X68036372Y-111462400D01*
X67918416Y-111368792D01*
X67828922Y-111336219D01*
X67678393Y-111332106D01*
X67617360Y-111360567D01*
X66978724Y-111026772D02*
X66734424Y-111697981D01*
X66730311Y-111848510D01*
X66787232Y-111970578D01*
X66905187Y-112064185D01*
X66994682Y-112096758D01*
X65741758Y-111640731D02*
X66189231Y-111803598D01*
X66531251Y-110863905D01*
X64924134Y-111241790D02*
X64952594Y-111302824D01*
X65070549Y-111396431D01*
X65160044Y-111429005D01*
X65310572Y-111433117D01*
X65432640Y-111376196D01*
X65509961Y-111302988D01*
X65619855Y-111140286D01*
X65668715Y-111006044D01*
X65689114Y-110810768D01*
X65676940Y-110704987D01*
X65620019Y-110582919D01*
X65502064Y-110489312D01*
X65412569Y-110456739D01*
X65262041Y-110452626D01*
X65201007Y-110481086D01*
D11*
X152754880Y-116753714D02*
X152792976Y-116791809D01*
X152907261Y-116829904D01*
X152983452Y-116829904D01*
X153097738Y-116791809D01*
X153173928Y-116715619D01*
X153212023Y-116639428D01*
X153250119Y-116487047D01*
X153250119Y-116372761D01*
X153212023Y-116220380D01*
X153173928Y-116144190D01*
X153097738Y-116068000D01*
X152983452Y-116029904D01*
X152907261Y-116029904D01*
X152792976Y-116068000D01*
X152754880Y-116106095D01*
X152412023Y-116829904D02*
X152412023Y-116029904D01*
X152069166Y-116829904D02*
X152069166Y-116410857D01*
X152107261Y-116334666D01*
X152183452Y-116296571D01*
X152297738Y-116296571D01*
X152373928Y-116334666D01*
X152412023Y-116372761D01*
X151573928Y-116829904D02*
X151650119Y-116791809D01*
X151688214Y-116753714D01*
X151726309Y-116677523D01*
X151726309Y-116448952D01*
X151688214Y-116372761D01*
X151650119Y-116334666D01*
X151573928Y-116296571D01*
X151459642Y-116296571D01*
X151383452Y-116334666D01*
X151345357Y-116372761D01*
X151307261Y-116448952D01*
X151307261Y-116677523D01*
X151345357Y-116753714D01*
X151383452Y-116791809D01*
X151459642Y-116829904D01*
X151573928Y-116829904D01*
X150621547Y-116791809D02*
X150697738Y-116829904D01*
X150850119Y-116829904D01*
X150926309Y-116791809D01*
X150964404Y-116753714D01*
X151002500Y-116677523D01*
X151002500Y-116448952D01*
X150964404Y-116372761D01*
X150926309Y-116334666D01*
X150850119Y-116296571D01*
X150697738Y-116296571D01*
X150621547Y-116334666D01*
X150392976Y-116296571D02*
X150088214Y-116296571D01*
X150278690Y-116029904D02*
X150278690Y-116715619D01*
X150240595Y-116791809D01*
X150164404Y-116829904D01*
X150088214Y-116829904D01*
X149707261Y-116829904D02*
X149783452Y-116791809D01*
X149821547Y-116753714D01*
X149859642Y-116677523D01*
X149859642Y-116448952D01*
X149821547Y-116372761D01*
X149783452Y-116334666D01*
X149707261Y-116296571D01*
X149592976Y-116296571D01*
X149516785Y-116334666D01*
X149478690Y-116372761D01*
X149440595Y-116448952D01*
X149440595Y-116677523D01*
X149478690Y-116753714D01*
X149516785Y-116791809D01*
X149592976Y-116829904D01*
X149707261Y-116829904D01*
X149097738Y-116296571D02*
X149097738Y-117096571D01*
X149097738Y-116334666D02*
X149021547Y-116296571D01*
X148869166Y-116296571D01*
X148792976Y-116334666D01*
X148754880Y-116372761D01*
X148716785Y-116448952D01*
X148716785Y-116677523D01*
X148754880Y-116753714D01*
X148792976Y-116791809D01*
X148869166Y-116829904D01*
X149021547Y-116829904D01*
X149097738Y-116791809D01*
X148031071Y-116296571D02*
X148031071Y-116829904D01*
X148373928Y-116296571D02*
X148373928Y-116715619D01*
X148335833Y-116791809D01*
X148259642Y-116829904D01*
X148145357Y-116829904D01*
X148069166Y-116791809D01*
X148031071Y-116753714D01*
X147688214Y-116791809D02*
X147612023Y-116829904D01*
X147459642Y-116829904D01*
X147383452Y-116791809D01*
X147345357Y-116715619D01*
X147345357Y-116677523D01*
X147383452Y-116601333D01*
X147459642Y-116563238D01*
X147573928Y-116563238D01*
X147650119Y-116525142D01*
X147688214Y-116448952D01*
X147688214Y-116410857D01*
X147650119Y-116334666D01*
X147573928Y-116296571D01*
X147459642Y-116296571D01*
X147383452Y-116334666D01*
X146659642Y-116296571D02*
X146659642Y-116829904D01*
X146850119Y-115991809D02*
X147040595Y-116563238D01*
X146545357Y-116563238D01*
X145897738Y-116296571D02*
X145897738Y-116829904D01*
X146088214Y-115991809D02*
X146278690Y-116563238D01*
X145783452Y-116563238D01*
X145554880Y-116296571D02*
X145364404Y-116829904D01*
X145173928Y-116296571D01*
X144907261Y-116106095D02*
X144869166Y-116068000D01*
X144792976Y-116029904D01*
X144602500Y-116029904D01*
X144526309Y-116068000D01*
X144488214Y-116106095D01*
X144450119Y-116182285D01*
X144450119Y-116258476D01*
X144488214Y-116372761D01*
X144945357Y-116829904D01*
X144450119Y-116829904D01*
X153212023Y-118117904D02*
X153212023Y-117317904D01*
X153212023Y-117622666D02*
X153135833Y-117584571D01*
X152983452Y-117584571D01*
X152907261Y-117622666D01*
X152869166Y-117660761D01*
X152831071Y-117736952D01*
X152831071Y-117965523D01*
X152869166Y-118041714D01*
X152907261Y-118079809D01*
X152983452Y-118117904D01*
X153135833Y-118117904D01*
X153212023Y-118079809D01*
X152564404Y-117584571D02*
X152373928Y-118117904D01*
X152183452Y-117584571D02*
X152373928Y-118117904D01*
X152450119Y-118308380D01*
X152488214Y-118346476D01*
X152564404Y-118384571D01*
X150812023Y-118117904D02*
X151078690Y-117736952D01*
X151269166Y-118117904D02*
X151269166Y-117317904D01*
X150964404Y-117317904D01*
X150888214Y-117356000D01*
X150850119Y-117394095D01*
X150812023Y-117470285D01*
X150812023Y-117584571D01*
X150850119Y-117660761D01*
X150888214Y-117698857D01*
X150964404Y-117736952D01*
X151269166Y-117736952D01*
X150354880Y-118117904D02*
X150431071Y-118079809D01*
X150469166Y-118041714D01*
X150507261Y-117965523D01*
X150507261Y-117736952D01*
X150469166Y-117660761D01*
X150431071Y-117622666D01*
X150354880Y-117584571D01*
X150240595Y-117584571D01*
X150164404Y-117622666D01*
X150126309Y-117660761D01*
X150088214Y-117736952D01*
X150088214Y-117965523D01*
X150126309Y-118041714D01*
X150164404Y-118079809D01*
X150240595Y-118117904D01*
X150354880Y-118117904D01*
X149402500Y-117584571D02*
X149402500Y-118117904D01*
X149745357Y-117584571D02*
X149745357Y-118003619D01*
X149707261Y-118079809D01*
X149631071Y-118117904D01*
X149516785Y-118117904D01*
X149440595Y-118079809D01*
X149402500Y-118041714D01*
X149135833Y-117584571D02*
X148831071Y-117584571D01*
X149021547Y-117317904D02*
X149021547Y-118003619D01*
X148983452Y-118079809D01*
X148907261Y-118117904D01*
X148831071Y-118117904D01*
X148221547Y-118117904D02*
X148221547Y-117698857D01*
X148259642Y-117622666D01*
X148335833Y-117584571D01*
X148488214Y-117584571D01*
X148564404Y-117622666D01*
X148221547Y-118079809D02*
X148297738Y-118117904D01*
X148488214Y-118117904D01*
X148564404Y-118079809D01*
X148602500Y-118003619D01*
X148602500Y-117927428D01*
X148564404Y-117851238D01*
X148488214Y-117813142D01*
X148297738Y-117813142D01*
X148221547Y-117775047D01*
X147231071Y-118117904D02*
X147231071Y-117317904D01*
X146773928Y-118117904D02*
X147116785Y-117660761D01*
X146773928Y-117317904D02*
X147231071Y-117775047D01*
X146126309Y-118079809D02*
X146202500Y-118117904D01*
X146354880Y-118117904D01*
X146431071Y-118079809D01*
X146469166Y-118003619D01*
X146469166Y-117698857D01*
X146431071Y-117622666D01*
X146354880Y-117584571D01*
X146202500Y-117584571D01*
X146126309Y-117622666D01*
X146088214Y-117698857D01*
X146088214Y-117775047D01*
X146469166Y-117851238D01*
X145440595Y-118079809D02*
X145516785Y-118117904D01*
X145669166Y-118117904D01*
X145745357Y-118079809D01*
X145783452Y-118003619D01*
X145783452Y-117698857D01*
X145745357Y-117622666D01*
X145669166Y-117584571D01*
X145516785Y-117584571D01*
X145440595Y-117622666D01*
X145402500Y-117698857D01*
X145402500Y-117775047D01*
X145783452Y-117851238D01*
X145059642Y-118117904D02*
X145059642Y-117317904D01*
X145059642Y-117622666D02*
X144983452Y-117584571D01*
X144831071Y-117584571D01*
X144754880Y-117622666D01*
X144716785Y-117660761D01*
X144678690Y-117736952D01*
X144678690Y-117965523D01*
X144716785Y-118041714D01*
X144754880Y-118079809D01*
X144831071Y-118117904D01*
X144983452Y-118117904D01*
X145059642Y-118079809D01*
X144373928Y-118079809D02*
X144297738Y-118117904D01*
X144145357Y-118117904D01*
X144069166Y-118079809D01*
X144031071Y-118003619D01*
X144031071Y-117965523D01*
X144069166Y-117889333D01*
X144145357Y-117851238D01*
X144259642Y-117851238D01*
X144335833Y-117813142D01*
X144373928Y-117736952D01*
X144373928Y-117698857D01*
X144335833Y-117622666D01*
X144259642Y-117584571D01*
X144145357Y-117584571D01*
X144069166Y-117622666D01*
X143116785Y-117394095D02*
X143078690Y-117356000D01*
X143002500Y-117317904D01*
X142812023Y-117317904D01*
X142735833Y-117356000D01*
X142697738Y-117394095D01*
X142659642Y-117470285D01*
X142659642Y-117546476D01*
X142697738Y-117660761D01*
X143154880Y-118117904D01*
X142659642Y-118117904D01*
X142164404Y-117317904D02*
X142088214Y-117317904D01*
X142012023Y-117356000D01*
X141973928Y-117394095D01*
X141935833Y-117470285D01*
X141897738Y-117622666D01*
X141897738Y-117813142D01*
X141935833Y-117965523D01*
X141973928Y-118041714D01*
X142012023Y-118079809D01*
X142088214Y-118117904D01*
X142164404Y-118117904D01*
X142240595Y-118079809D01*
X142278690Y-118041714D01*
X142316785Y-117965523D01*
X142354880Y-117813142D01*
X142354880Y-117622666D01*
X142316785Y-117470285D01*
X142278690Y-117394095D01*
X142240595Y-117356000D01*
X142164404Y-117317904D01*
X141592976Y-117394095D02*
X141554880Y-117356000D01*
X141478690Y-117317904D01*
X141288214Y-117317904D01*
X141212023Y-117356000D01*
X141173928Y-117394095D01*
X141135833Y-117470285D01*
X141135833Y-117546476D01*
X141173928Y-117660761D01*
X141631071Y-118117904D01*
X141135833Y-118117904D01*
X140869166Y-117317904D02*
X140373928Y-117317904D01*
X140640595Y-117622666D01*
X140526309Y-117622666D01*
X140450119Y-117660761D01*
X140412023Y-117698857D01*
X140373928Y-117775047D01*
X140373928Y-117965523D01*
X140412023Y-118041714D01*
X140450119Y-118079809D01*
X140526309Y-118117904D01*
X140754880Y-118117904D01*
X140831071Y-118079809D01*
X140869166Y-118041714D01*
X152831071Y-119405904D02*
X153212023Y-119405904D01*
X153212023Y-118605904D01*
X152450119Y-119405904D02*
X152526309Y-119367809D01*
X152564404Y-119329714D01*
X152602500Y-119253523D01*
X152602500Y-119024952D01*
X152564404Y-118948761D01*
X152526309Y-118910666D01*
X152450119Y-118872571D01*
X152335833Y-118872571D01*
X152259642Y-118910666D01*
X152221547Y-118948761D01*
X152183452Y-119024952D01*
X152183452Y-119253523D01*
X152221547Y-119329714D01*
X152259642Y-119367809D01*
X152335833Y-119405904D01*
X152450119Y-119405904D01*
X151726309Y-119405904D02*
X151802500Y-119367809D01*
X151840595Y-119329714D01*
X151878690Y-119253523D01*
X151878690Y-119024952D01*
X151840595Y-118948761D01*
X151802500Y-118910666D01*
X151726309Y-118872571D01*
X151612023Y-118872571D01*
X151535833Y-118910666D01*
X151497738Y-118948761D01*
X151459642Y-119024952D01*
X151459642Y-119253523D01*
X151497738Y-119329714D01*
X151535833Y-119367809D01*
X151612023Y-119405904D01*
X151726309Y-119405904D01*
X151154880Y-119367809D02*
X151078690Y-119405904D01*
X150926309Y-119405904D01*
X150850119Y-119367809D01*
X150812023Y-119291619D01*
X150812023Y-119253523D01*
X150850119Y-119177333D01*
X150926309Y-119139238D01*
X151040595Y-119139238D01*
X151116785Y-119101142D01*
X151154880Y-119024952D01*
X151154880Y-118986857D01*
X151116785Y-118910666D01*
X151040595Y-118872571D01*
X150926309Y-118872571D01*
X150850119Y-118910666D01*
X150164404Y-119367809D02*
X150240595Y-119405904D01*
X150392976Y-119405904D01*
X150469166Y-119367809D01*
X150507261Y-119291619D01*
X150507261Y-118986857D01*
X150469166Y-118910666D01*
X150392976Y-118872571D01*
X150240595Y-118872571D01*
X150164404Y-118910666D01*
X150126309Y-118986857D01*
X150126309Y-119063047D01*
X150507261Y-119139238D01*
X149669166Y-119405904D02*
X149745357Y-119367809D01*
X149783452Y-119291619D01*
X149783452Y-118605904D01*
X149440595Y-118872571D02*
X149250119Y-119405904D01*
X149059642Y-118872571D02*
X149250119Y-119405904D01*
X149326309Y-119596380D01*
X149364404Y-119634476D01*
X149440595Y-119672571D01*
X148145357Y-119405904D02*
X148145357Y-118605904D01*
X148145357Y-118910666D02*
X148069166Y-118872571D01*
X147916785Y-118872571D01*
X147840595Y-118910666D01*
X147802500Y-118948761D01*
X147764404Y-119024952D01*
X147764404Y-119253523D01*
X147802500Y-119329714D01*
X147840595Y-119367809D01*
X147916785Y-119405904D01*
X148069166Y-119405904D01*
X148145357Y-119367809D01*
X147078690Y-119405904D02*
X147078690Y-118986857D01*
X147116785Y-118910666D01*
X147192976Y-118872571D01*
X147345357Y-118872571D01*
X147421547Y-118910666D01*
X147078690Y-119367809D02*
X147154880Y-119405904D01*
X147345357Y-119405904D01*
X147421547Y-119367809D01*
X147459642Y-119291619D01*
X147459642Y-119215428D01*
X147421547Y-119139238D01*
X147345357Y-119101142D01*
X147154880Y-119101142D01*
X147078690Y-119063047D01*
X146735833Y-119367809D02*
X146659642Y-119405904D01*
X146507261Y-119405904D01*
X146431071Y-119367809D01*
X146392976Y-119291619D01*
X146392976Y-119253523D01*
X146431071Y-119177333D01*
X146507261Y-119139238D01*
X146621547Y-119139238D01*
X146697738Y-119101142D01*
X146735833Y-119024952D01*
X146735833Y-118986857D01*
X146697738Y-118910666D01*
X146621547Y-118872571D01*
X146507261Y-118872571D01*
X146431071Y-118910666D01*
X145745357Y-119367809D02*
X145821547Y-119405904D01*
X145973928Y-119405904D01*
X146050119Y-119367809D01*
X146088214Y-119291619D01*
X146088214Y-118986857D01*
X146050119Y-118910666D01*
X145973928Y-118872571D01*
X145821547Y-118872571D01*
X145745357Y-118910666D01*
X145707261Y-118986857D01*
X145707261Y-119063047D01*
X146088214Y-119139238D01*
X145021547Y-119405904D02*
X145021547Y-118605904D01*
X145021547Y-119367809D02*
X145097738Y-119405904D01*
X145250119Y-119405904D01*
X145326309Y-119367809D01*
X145364404Y-119329714D01*
X145402500Y-119253523D01*
X145402500Y-119024952D01*
X145364404Y-118948761D01*
X145326309Y-118910666D01*
X145250119Y-118872571D01*
X145097738Y-118872571D01*
X145021547Y-118910666D01*
X143916785Y-119405904D02*
X143992976Y-119367809D01*
X144031071Y-119329714D01*
X144069166Y-119253523D01*
X144069166Y-119024952D01*
X144031071Y-118948761D01*
X143992976Y-118910666D01*
X143916785Y-118872571D01*
X143802500Y-118872571D01*
X143726309Y-118910666D01*
X143688214Y-118948761D01*
X143650119Y-119024952D01*
X143650119Y-119253523D01*
X143688214Y-119329714D01*
X143726309Y-119367809D01*
X143802500Y-119405904D01*
X143916785Y-119405904D01*
X143307261Y-118872571D02*
X143307261Y-119405904D01*
X143307261Y-118948761D02*
X143269166Y-118910666D01*
X143192976Y-118872571D01*
X143078690Y-118872571D01*
X143002500Y-118910666D01*
X142964404Y-118986857D01*
X142964404Y-119405904D01*
X141516785Y-119405904D02*
X141783452Y-119024952D01*
X141973928Y-119405904D02*
X141973928Y-118605904D01*
X141669166Y-118605904D01*
X141592976Y-118644000D01*
X141554880Y-118682095D01*
X141516785Y-118758285D01*
X141516785Y-118872571D01*
X141554880Y-118948761D01*
X141592976Y-118986857D01*
X141669166Y-119024952D01*
X141973928Y-119024952D01*
X140869166Y-119367809D02*
X140945357Y-119405904D01*
X141097738Y-119405904D01*
X141173928Y-119367809D01*
X141212023Y-119291619D01*
X141212023Y-118986857D01*
X141173928Y-118910666D01*
X141097738Y-118872571D01*
X140945357Y-118872571D01*
X140869166Y-118910666D01*
X140831071Y-118986857D01*
X140831071Y-119063047D01*
X141212023Y-119139238D01*
X140564404Y-118872571D02*
X140373928Y-119405904D01*
X140183452Y-118872571D01*
X139878690Y-119405904D02*
X139878690Y-118872571D01*
X139878690Y-118605904D02*
X139916785Y-118644000D01*
X139878690Y-118682095D01*
X139840595Y-118644000D01*
X139878690Y-118605904D01*
X139878690Y-118682095D01*
X139154880Y-118872571D02*
X139154880Y-119405904D01*
X139497738Y-118872571D02*
X139497738Y-119291619D01*
X139459642Y-119367809D01*
X139383452Y-119405904D01*
X139269166Y-119405904D01*
X139192976Y-119367809D01*
X139154880Y-119329714D01*
X138773928Y-118872571D02*
X138773928Y-119405904D01*
X138773928Y-118948761D02*
X138735833Y-118910666D01*
X138659642Y-118872571D01*
X138545357Y-118872571D01*
X138469166Y-118910666D01*
X138431071Y-118986857D01*
X138431071Y-119405904D01*
X137707261Y-118872571D02*
X137707261Y-119520190D01*
X137745357Y-119596380D01*
X137783452Y-119634476D01*
X137859642Y-119672571D01*
X137973928Y-119672571D01*
X138050119Y-119634476D01*
X137707261Y-119367809D02*
X137783452Y-119405904D01*
X137935833Y-119405904D01*
X138012023Y-119367809D01*
X138050119Y-119329714D01*
X138088214Y-119253523D01*
X138088214Y-119024952D01*
X138050119Y-118948761D01*
X138012023Y-118910666D01*
X137935833Y-118872571D01*
X137783452Y-118872571D01*
X137707261Y-118910666D01*
X136983452Y-118872571D02*
X136983452Y-119405904D01*
X137173928Y-118567809D02*
X137364404Y-119139238D01*
X136869166Y-119139238D01*
X136145357Y-119405904D02*
X136602500Y-119405904D01*
X136373928Y-119405904D02*
X136373928Y-118605904D01*
X136450119Y-118720190D01*
X136526309Y-118796380D01*
X136602500Y-118834476D01*
X153212023Y-120693904D02*
X153212023Y-120160571D01*
X153212023Y-120312952D02*
X153173928Y-120236761D01*
X153135833Y-120198666D01*
X153059642Y-120160571D01*
X152983452Y-120160571D01*
X152412023Y-120655809D02*
X152488214Y-120693904D01*
X152640595Y-120693904D01*
X152716785Y-120655809D01*
X152754880Y-120579619D01*
X152754880Y-120274857D01*
X152716785Y-120198666D01*
X152640595Y-120160571D01*
X152488214Y-120160571D01*
X152412023Y-120198666D01*
X152373928Y-120274857D01*
X152373928Y-120351047D01*
X152754880Y-120427238D01*
X152107261Y-120160571D02*
X151916785Y-120693904D01*
X151726309Y-120160571D01*
X151002500Y-120693904D02*
X151459642Y-120693904D01*
X151231071Y-120693904D02*
X151231071Y-119893904D01*
X151307261Y-120008190D01*
X151383452Y-120084380D01*
X151459642Y-120122476D01*
X150659642Y-120617714D02*
X150621547Y-120655809D01*
X150659642Y-120693904D01*
X150697738Y-120655809D01*
X150659642Y-120617714D01*
X150659642Y-120693904D01*
X150354880Y-119893904D02*
X149859642Y-119893904D01*
X150126309Y-120198666D01*
X150012023Y-120198666D01*
X149935833Y-120236761D01*
X149897738Y-120274857D01*
X149859642Y-120351047D01*
X149859642Y-120541523D01*
X149897738Y-120617714D01*
X149935833Y-120655809D01*
X150012023Y-120693904D01*
X150240595Y-120693904D01*
X150316785Y-120655809D01*
X150354880Y-120617714D01*
X148488214Y-119932000D02*
X148564404Y-119893904D01*
X148678690Y-119893904D01*
X148792976Y-119932000D01*
X148869166Y-120008190D01*
X148907261Y-120084380D01*
X148945357Y-120236761D01*
X148945357Y-120351047D01*
X148907261Y-120503428D01*
X148869166Y-120579619D01*
X148792976Y-120655809D01*
X148678690Y-120693904D01*
X148602500Y-120693904D01*
X148488214Y-120655809D01*
X148450119Y-120617714D01*
X148450119Y-120351047D01*
X148602500Y-120351047D01*
X148107261Y-120693904D02*
X148107261Y-119893904D01*
X148107261Y-120274857D02*
X147650119Y-120274857D01*
X147650119Y-120693904D02*
X147650119Y-119893904D01*
X146659642Y-120693904D02*
X146659642Y-119893904D01*
X146659642Y-120198666D02*
X146583452Y-120160571D01*
X146431071Y-120160571D01*
X146354880Y-120198666D01*
X146316785Y-120236761D01*
X146278690Y-120312952D01*
X146278690Y-120541523D01*
X146316785Y-120617714D01*
X146354880Y-120655809D01*
X146431071Y-120693904D01*
X146583452Y-120693904D01*
X146659642Y-120655809D01*
X146012023Y-120160571D02*
X145821547Y-120693904D01*
X145631071Y-120160571D02*
X145821547Y-120693904D01*
X145897738Y-120884380D01*
X145935833Y-120922476D01*
X146012023Y-120960571D01*
X144373928Y-120160571D02*
X144373928Y-120808190D01*
X144412023Y-120884380D01*
X144450119Y-120922476D01*
X144526309Y-120960571D01*
X144640595Y-120960571D01*
X144716785Y-120922476D01*
X144373928Y-120655809D02*
X144450119Y-120693904D01*
X144602500Y-120693904D01*
X144678690Y-120655809D01*
X144716785Y-120617714D01*
X144754880Y-120541523D01*
X144754880Y-120312952D01*
X144716785Y-120236761D01*
X144678690Y-120198666D01*
X144602500Y-120160571D01*
X144450119Y-120160571D01*
X144373928Y-120198666D01*
X144107261Y-120160571D02*
X143802500Y-120160571D01*
X143992976Y-119893904D02*
X143992976Y-120579619D01*
X143954880Y-120655809D01*
X143878690Y-120693904D01*
X143802500Y-120693904D01*
X143535833Y-120693904D02*
X143535833Y-120160571D01*
X143535833Y-119893904D02*
X143573928Y-119932000D01*
X143535833Y-119970095D01*
X143497738Y-119932000D01*
X143535833Y-119893904D01*
X143535833Y-119970095D01*
X143154880Y-120160571D02*
X143154880Y-120960571D01*
X143154880Y-120198666D02*
X143078690Y-120160571D01*
X142926309Y-120160571D01*
X142850119Y-120198666D01*
X142812023Y-120236761D01*
X142773928Y-120312952D01*
X142773928Y-120541523D01*
X142812023Y-120617714D01*
X142850119Y-120655809D01*
X142926309Y-120693904D01*
X143078690Y-120693904D01*
X143154880Y-120655809D01*
X142469166Y-120655809D02*
X142392976Y-120693904D01*
X142240595Y-120693904D01*
X142164404Y-120655809D01*
X142126309Y-120579619D01*
X142126309Y-120541523D01*
X142164404Y-120465333D01*
X142240595Y-120427238D01*
X142354880Y-120427238D01*
X142431071Y-120389142D01*
X142469166Y-120312952D01*
X142469166Y-120274857D01*
X142431071Y-120198666D01*
X142354880Y-120160571D01*
X142240595Y-120160571D01*
X142164404Y-120198666D01*
X141212023Y-119970095D02*
X141173928Y-119932000D01*
X141097738Y-119893904D01*
X140907261Y-119893904D01*
X140831071Y-119932000D01*
X140792976Y-119970095D01*
X140754880Y-120046285D01*
X140754880Y-120122476D01*
X140792976Y-120236761D01*
X141250119Y-120693904D01*
X140754880Y-120693904D01*
X140259642Y-119893904D02*
X140183452Y-119893904D01*
X140107261Y-119932000D01*
X140069166Y-119970095D01*
X140031071Y-120046285D01*
X139992976Y-120198666D01*
X139992976Y-120389142D01*
X140031071Y-120541523D01*
X140069166Y-120617714D01*
X140107261Y-120655809D01*
X140183452Y-120693904D01*
X140259642Y-120693904D01*
X140335833Y-120655809D01*
X140373928Y-120617714D01*
X140412023Y-120541523D01*
X140450119Y-120389142D01*
X140450119Y-120198666D01*
X140412023Y-120046285D01*
X140373928Y-119970095D01*
X140335833Y-119932000D01*
X140259642Y-119893904D01*
X139688214Y-119970095D02*
X139650119Y-119932000D01*
X139573928Y-119893904D01*
X139383452Y-119893904D01*
X139307261Y-119932000D01*
X139269166Y-119970095D01*
X139231071Y-120046285D01*
X139231071Y-120122476D01*
X139269166Y-120236761D01*
X139726309Y-120693904D01*
X139231071Y-120693904D01*
X138469166Y-120693904D02*
X138926309Y-120693904D01*
X138697738Y-120693904D02*
X138697738Y-119893904D01*
X138773928Y-120008190D01*
X138850119Y-120084380D01*
X138926309Y-120122476D01*
X109631141Y-62012691D02*
X109781669Y-62016804D01*
X110005406Y-62098237D01*
X110078613Y-62175558D01*
X110107074Y-62236592D01*
X110119248Y-62342373D01*
X110086675Y-62431867D01*
X110009354Y-62505075D01*
X109948320Y-62533536D01*
X109842539Y-62545710D01*
X109647263Y-62525310D01*
X109541482Y-62537484D01*
X109480448Y-62565945D01*
X109403127Y-62639153D01*
X109370554Y-62728647D01*
X109382728Y-62834428D01*
X109411188Y-62895462D01*
X109484396Y-62972783D01*
X109708133Y-63054216D01*
X109858661Y-63058329D01*
X110155605Y-63217083D02*
X110721362Y-62358824D01*
X110656051Y-63095179D01*
X111079340Y-62489117D01*
X110961056Y-63510243D01*
X111835766Y-63473886D02*
X112063780Y-62847424D01*
X111481737Y-63750430D02*
X111502300Y-62997788D01*
X112084015Y-63209515D01*
X85730667Y-118766502D02*
X85880981Y-118757480D01*
X86110963Y-118819104D01*
X86190631Y-118889749D01*
X86224303Y-118948071D01*
X86245650Y-119052388D01*
X86221001Y-119144381D01*
X86150355Y-119224049D01*
X86092034Y-119257721D01*
X85987716Y-119279068D01*
X85791406Y-119275766D01*
X85687088Y-119297113D01*
X85628767Y-119330785D01*
X85558121Y-119410453D01*
X85533471Y-119502446D01*
X85554818Y-119606763D01*
X85588490Y-119665085D01*
X85668158Y-119735731D01*
X85898141Y-119797354D01*
X86048455Y-119788332D01*
X86358105Y-119920601D02*
X86846907Y-119016299D01*
X86846022Y-119755545D01*
X87214878Y-119114897D01*
X87186042Y-120142446D01*
X87462021Y-120216394D02*
X88059975Y-120376616D01*
X87836597Y-119922371D01*
X87974587Y-119959345D01*
X88078904Y-119937998D01*
X88137225Y-119904326D01*
X88207871Y-119824658D01*
X88269495Y-119594676D01*
X88248148Y-119490358D01*
X88214476Y-119432037D01*
X88134808Y-119361391D01*
X87858829Y-119287443D01*
X87754511Y-119308790D01*
X87696190Y-119342462D01*
X88381950Y-120462889D02*
X89025901Y-120635435D01*
X88870751Y-119558587D01*
X124019590Y-75109683D02*
X124170118Y-75113796D01*
X124393855Y-75195229D01*
X124467062Y-75272550D01*
X124495523Y-75333584D01*
X124507697Y-75439365D01*
X124475124Y-75528859D01*
X124397803Y-75602067D01*
X124336769Y-75630528D01*
X124230988Y-75642702D01*
X124035712Y-75622302D01*
X123929931Y-75634476D01*
X123868897Y-75662937D01*
X123791576Y-75736145D01*
X123759003Y-75825639D01*
X123771177Y-75931420D01*
X123799637Y-75992454D01*
X123872845Y-76069775D01*
X124096582Y-76151208D01*
X124247110Y-76155321D01*
X124544054Y-76314075D02*
X125109811Y-75455816D01*
X125044500Y-76192171D01*
X125467789Y-75586109D01*
X125349505Y-76607235D01*
X126154956Y-76900395D02*
X125707483Y-76737529D01*
X125825603Y-76273769D01*
X125854063Y-76334803D01*
X125927271Y-76412124D01*
X126151008Y-76493557D01*
X126256789Y-76481383D01*
X126317823Y-76452923D01*
X126395143Y-76379715D01*
X126476577Y-76155978D01*
X126464403Y-76050197D01*
X126435942Y-75989163D01*
X126362734Y-75911843D01*
X126138998Y-75830409D01*
X126033217Y-75842583D01*
X125972183Y-75871044D01*
X163639515Y-145837508D02*
X163572171Y-145972195D01*
X163403813Y-146140554D01*
X163302797Y-146174225D01*
X163235454Y-146174225D01*
X163134439Y-146140554D01*
X163067095Y-146073210D01*
X163033423Y-145972195D01*
X163033423Y-145904851D01*
X163067095Y-145803836D01*
X163168110Y-145635477D01*
X163201782Y-145534462D01*
X163201782Y-145467119D01*
X163168110Y-145366103D01*
X163100767Y-145298760D01*
X162999752Y-145265088D01*
X162932408Y-145265088D01*
X162831393Y-145298760D01*
X162663034Y-145467119D01*
X162595691Y-145601806D01*
X162326317Y-145803836D02*
X162865065Y-146679302D01*
X162225301Y-146308912D01*
X162595691Y-146948676D01*
X161720225Y-146409928D01*
X161383508Y-147218050D02*
X161854912Y-147689454D01*
X161282492Y-146780317D02*
X161955927Y-147117034D01*
X161518195Y-147554767D01*
X161114134Y-148430233D02*
X161518195Y-148026172D01*
X161316164Y-148228202D02*
X160609057Y-147521095D01*
X160777416Y-147554767D01*
X160912103Y-147554767D01*
X161013118Y-147521095D01*
X204879668Y-92507516D02*
X204761713Y-92601123D01*
X204537977Y-92682556D01*
X204432196Y-92670382D01*
X204371162Y-92641922D01*
X204293841Y-92568714D01*
X204261268Y-92479219D01*
X204273442Y-92373438D01*
X204301902Y-92312404D01*
X204375110Y-92235084D01*
X204537813Y-92125190D01*
X204611020Y-92047869D01*
X204639481Y-91986835D01*
X204651655Y-91881054D01*
X204619082Y-91791559D01*
X204541761Y-91718352D01*
X204480727Y-91689891D01*
X204374946Y-91677717D01*
X204151210Y-91759150D01*
X204033254Y-91852758D01*
X203703737Y-91922017D02*
X203822021Y-92943143D01*
X203398731Y-92337081D01*
X203464043Y-93073437D01*
X202898286Y-92215177D01*
X202629802Y-92312897D02*
X202048088Y-92524624D01*
X202491612Y-92768595D01*
X202357370Y-92817455D01*
X202284163Y-92894776D01*
X202255702Y-92955810D01*
X202243528Y-93061591D01*
X202324961Y-93285328D01*
X202402282Y-93358535D01*
X202463316Y-93386996D01*
X202569097Y-93399170D01*
X202837581Y-93301450D01*
X202910789Y-93224129D01*
X202939249Y-93163095D01*
X201734857Y-92638631D02*
X201153143Y-92850358D01*
X201596667Y-93094329D01*
X201462425Y-93143189D01*
X201389217Y-93220510D01*
X201360757Y-93281544D01*
X201348583Y-93387325D01*
X201430016Y-93611061D01*
X201507337Y-93684269D01*
X201568371Y-93712730D01*
X201674152Y-93724903D01*
X201942635Y-93627183D01*
X202015843Y-93549863D01*
X202044304Y-93488829D01*
X178863134Y-73655734D02*
X178745179Y-73749341D01*
X178521443Y-73830774D01*
X178415662Y-73818600D01*
X178354628Y-73790140D01*
X178277307Y-73716932D01*
X178244734Y-73627437D01*
X178256908Y-73521656D01*
X178285368Y-73460622D01*
X178358576Y-73383302D01*
X178521279Y-73273408D01*
X178594486Y-73196087D01*
X178622947Y-73135053D01*
X178635121Y-73029272D01*
X178602548Y-72939777D01*
X178525227Y-72866570D01*
X178464193Y-72838109D01*
X178358412Y-72825935D01*
X178134676Y-72907368D01*
X178016720Y-73000976D01*
X177687203Y-73070235D02*
X177805487Y-74091361D01*
X177382197Y-73485299D01*
X177447509Y-74221655D01*
X176881752Y-73363395D01*
X176601094Y-73566896D02*
X176540061Y-73538436D01*
X176434279Y-73526262D01*
X176210543Y-73607695D01*
X176137335Y-73685016D01*
X176108875Y-73746050D01*
X176096701Y-73851831D01*
X176129274Y-73941326D01*
X176222881Y-74059281D01*
X176955289Y-74400808D01*
X176373574Y-74612535D01*
X175449839Y-73884569D02*
X175360345Y-73917142D01*
X175287137Y-73994463D01*
X175258676Y-74055497D01*
X175246503Y-74161278D01*
X175266902Y-74356554D01*
X175348335Y-74580290D01*
X175458229Y-74742992D01*
X175535550Y-74816200D01*
X175596584Y-74844661D01*
X175702365Y-74856835D01*
X175791860Y-74824261D01*
X175865067Y-74746941D01*
X175893528Y-74685907D01*
X175905702Y-74580126D01*
X175885303Y-74384850D01*
X175803869Y-74161114D01*
X175693975Y-73998411D01*
X175616655Y-73925203D01*
X175555621Y-73896743D01*
X175449839Y-73884569D01*
X193250983Y-60557967D02*
X193133028Y-60651574D01*
X192909292Y-60733007D01*
X192803511Y-60720833D01*
X192742477Y-60692373D01*
X192665156Y-60619165D01*
X192632583Y-60529670D01*
X192644757Y-60423889D01*
X192673217Y-60362855D01*
X192746425Y-60285535D01*
X192909128Y-60175641D01*
X192982335Y-60098320D01*
X193010796Y-60037286D01*
X193022970Y-59931505D01*
X192990397Y-59842010D01*
X192913076Y-59768803D01*
X192852042Y-59740342D01*
X192746261Y-59728168D01*
X192522525Y-59809601D01*
X192404569Y-59903209D01*
X192075052Y-59972468D02*
X192193336Y-60993594D01*
X191770046Y-60387532D01*
X191835358Y-61123888D01*
X191269601Y-60265628D01*
X190988943Y-60469129D02*
X190927910Y-60440669D01*
X190822128Y-60428495D01*
X190598392Y-60509928D01*
X190525184Y-60587249D01*
X190496724Y-60648283D01*
X190484550Y-60754064D01*
X190517123Y-60843559D01*
X190610730Y-60961514D01*
X191343138Y-61303041D01*
X190761423Y-61514768D01*
X189866478Y-61840501D02*
X190403445Y-61645061D01*
X190134961Y-61742781D02*
X189792941Y-60803088D01*
X189931296Y-60904757D01*
X190053364Y-60961678D01*
X190159145Y-60973852D01*
X232790404Y-63934968D02*
X232672449Y-64028575D01*
X232448713Y-64110008D01*
X232342932Y-64097834D01*
X232281898Y-64069374D01*
X232204577Y-63996166D01*
X232172004Y-63906671D01*
X232184178Y-63800890D01*
X232212638Y-63739856D01*
X232285846Y-63662536D01*
X232448549Y-63552642D01*
X232521756Y-63475321D01*
X232550217Y-63414287D01*
X232562391Y-63308506D01*
X232529818Y-63219011D01*
X232452497Y-63145804D01*
X232391463Y-63117343D01*
X232285682Y-63105169D01*
X232061946Y-63186602D01*
X231943990Y-63280210D01*
X231614473Y-63349469D02*
X231732757Y-64370595D01*
X231309467Y-63764533D01*
X231374779Y-64500889D01*
X230809022Y-63642629D01*
X230528364Y-63846130D02*
X230467331Y-63817670D01*
X230361549Y-63805496D01*
X230137813Y-63886929D01*
X230064605Y-63964250D01*
X230036145Y-64025284D01*
X230023971Y-64131065D01*
X230056544Y-64220560D01*
X230150151Y-64338515D01*
X230882559Y-64680042D01*
X230300844Y-64891769D01*
X229645593Y-64066083D02*
X229063879Y-64277810D01*
X229507403Y-64521781D01*
X229373161Y-64570641D01*
X229299953Y-64647962D01*
X229271493Y-64708996D01*
X229259319Y-64814777D01*
X229340752Y-65038513D01*
X229418073Y-65111721D01*
X229479107Y-65140182D01*
X229584888Y-65152355D01*
X229853371Y-65054635D01*
X229926579Y-64977315D01*
X229955040Y-64916281D01*
X139672785Y-84731580D02*
X139823313Y-84735693D01*
X140047050Y-84817126D01*
X140120257Y-84894447D01*
X140148718Y-84955481D01*
X140160892Y-85061262D01*
X140128319Y-85150756D01*
X140050998Y-85223964D01*
X139989964Y-85252425D01*
X139884183Y-85264599D01*
X139688907Y-85244199D01*
X139583126Y-85256373D01*
X139522092Y-85284834D01*
X139444771Y-85358042D01*
X139412198Y-85447536D01*
X139424372Y-85553317D01*
X139452832Y-85614351D01*
X139526040Y-85691672D01*
X139749777Y-85773105D01*
X139900305Y-85777218D01*
X140197249Y-85935972D02*
X140763006Y-85077713D01*
X140697695Y-85814068D01*
X141120984Y-85208006D01*
X141002700Y-86229132D01*
X141763404Y-86506006D02*
X141584415Y-86440859D01*
X141511207Y-86363538D01*
X141482746Y-86302504D01*
X141442112Y-86135689D01*
X141462511Y-85940413D01*
X141592804Y-85582435D01*
X141670125Y-85509227D01*
X141731159Y-85480767D01*
X141836940Y-85468593D01*
X142015929Y-85533740D01*
X142089137Y-85611060D01*
X142117598Y-85672094D01*
X142129772Y-85777875D01*
X142048338Y-86001612D01*
X141971018Y-86074820D01*
X141909984Y-86103280D01*
X141804203Y-86115454D01*
X141625213Y-86050307D01*
X141552006Y-85972987D01*
X141523545Y-85911953D01*
X141511371Y-85806172D01*
X70092318Y-65388918D02*
X70242846Y-65393031D01*
X70466583Y-65474464D01*
X70539790Y-65551785D01*
X70568251Y-65612819D01*
X70580425Y-65718600D01*
X70547852Y-65808094D01*
X70470531Y-65881302D01*
X70409497Y-65909763D01*
X70303716Y-65921937D01*
X70108440Y-65901537D01*
X70002659Y-65913711D01*
X69941625Y-65942172D01*
X69864304Y-66015380D01*
X69831731Y-66104874D01*
X69843905Y-66210655D01*
X69872365Y-66271689D01*
X69945573Y-66349010D01*
X70169310Y-66430443D01*
X70319838Y-66434556D01*
X70616782Y-66593310D02*
X71182539Y-65735051D01*
X71117228Y-66471406D01*
X71540517Y-65865344D01*
X71422233Y-66886470D01*
X71768037Y-66910982D02*
X71796498Y-66972016D01*
X71869706Y-67049337D01*
X72093442Y-67130770D01*
X72199223Y-67118596D01*
X72260257Y-67090136D01*
X72337578Y-67016928D01*
X72370151Y-66927433D01*
X72374264Y-66776905D01*
X72032737Y-66044498D01*
X72614451Y-66256224D01*
X84376628Y-78771847D02*
X84527156Y-78775960D01*
X84750893Y-78857393D01*
X84824100Y-78934714D01*
X84852561Y-78995748D01*
X84864735Y-79101529D01*
X84832162Y-79191023D01*
X84754841Y-79264231D01*
X84693807Y-79292692D01*
X84588026Y-79304866D01*
X84392750Y-79284466D01*
X84286969Y-79296640D01*
X84225935Y-79325101D01*
X84148614Y-79398309D01*
X84116041Y-79487803D01*
X84128215Y-79593584D01*
X84156675Y-79654618D01*
X84229883Y-79731939D01*
X84453620Y-79813372D01*
X84604148Y-79817485D01*
X84901092Y-79976239D02*
X85466849Y-79117980D01*
X85401538Y-79854335D01*
X85824827Y-79248273D01*
X85706543Y-80269399D01*
X86451289Y-79476287D02*
X86630278Y-79541433D01*
X86703486Y-79618754D01*
X86731946Y-79679788D01*
X86772581Y-79846603D01*
X86752181Y-80041879D01*
X86621888Y-80399857D01*
X86544567Y-80473065D01*
X86483533Y-80501525D01*
X86377752Y-80513699D01*
X86198763Y-80448553D01*
X86125555Y-80371232D01*
X86097095Y-80310198D01*
X86084921Y-80204417D01*
X86166354Y-79980680D01*
X86243675Y-79907473D01*
X86304709Y-79879012D01*
X86410490Y-79866838D01*
X86589479Y-79931985D01*
X86662687Y-80009305D01*
X86691147Y-80070339D01*
X86703321Y-80176121D01*
X224320437Y-93292673D02*
X224202482Y-93386280D01*
X223978746Y-93467713D01*
X223872965Y-93455539D01*
X223811931Y-93427079D01*
X223734610Y-93353871D01*
X223702037Y-93264376D01*
X223714211Y-93158595D01*
X223742671Y-93097561D01*
X223815879Y-93020241D01*
X223978582Y-92910347D01*
X224051789Y-92833026D01*
X224080250Y-92771992D01*
X224092424Y-92666211D01*
X224059851Y-92576716D01*
X223982530Y-92503509D01*
X223921496Y-92475048D01*
X223815715Y-92462874D01*
X223591979Y-92544307D01*
X223474023Y-92637915D01*
X223144506Y-92707174D02*
X223262790Y-93728300D01*
X222839500Y-93122238D01*
X222904812Y-93858594D01*
X222339055Y-93000334D01*
X222070571Y-93098054D02*
X221488857Y-93309781D01*
X221932381Y-93553752D01*
X221798139Y-93602612D01*
X221724932Y-93679933D01*
X221696471Y-93740967D01*
X221684297Y-93846748D01*
X221765730Y-94070485D01*
X221843051Y-94143692D01*
X221904085Y-94172153D01*
X222009866Y-94184327D01*
X222278350Y-94086607D01*
X222351558Y-94009286D01*
X222380018Y-93948252D01*
X220797413Y-93916172D02*
X221025426Y-94542634D01*
X220890856Y-93476761D02*
X221358892Y-94066536D01*
X220777178Y-94278263D01*
X199065325Y-76532741D02*
X198947370Y-76626348D01*
X198723634Y-76707781D01*
X198617853Y-76695607D01*
X198556819Y-76667147D01*
X198479498Y-76593939D01*
X198446925Y-76504444D01*
X198459099Y-76398663D01*
X198487559Y-76337629D01*
X198560767Y-76260309D01*
X198723470Y-76150415D01*
X198796677Y-76073094D01*
X198825138Y-76012060D01*
X198837312Y-75906279D01*
X198804739Y-75816784D01*
X198727418Y-75743577D01*
X198666384Y-75715116D01*
X198560603Y-75702942D01*
X198336867Y-75784375D01*
X198218911Y-75877983D01*
X197889394Y-75947242D02*
X198007678Y-76968368D01*
X197584388Y-76362306D01*
X197649700Y-77098662D01*
X197083943Y-76240402D01*
X196803285Y-76443903D02*
X196742252Y-76415443D01*
X196636470Y-76403269D01*
X196412734Y-76484702D01*
X196339526Y-76562023D01*
X196311066Y-76623057D01*
X196298892Y-76728838D01*
X196331465Y-76818333D01*
X196425072Y-76936288D01*
X197157480Y-77277815D01*
X196575765Y-77489542D01*
X195920514Y-76663856D02*
X195294052Y-76891869D01*
X196038798Y-77684982D01*
X104744233Y-125920321D02*
X104893830Y-125937537D01*
X105109618Y-126038161D01*
X105175808Y-126121568D01*
X105198841Y-126184850D01*
X105201749Y-126291290D01*
X105161500Y-126377605D01*
X105078093Y-126443795D01*
X105014810Y-126466828D01*
X104908371Y-126469736D01*
X104715616Y-126432395D01*
X104609176Y-126435303D01*
X104545894Y-126458336D01*
X104462487Y-126524526D01*
X104422238Y-126610841D01*
X104425146Y-126717281D01*
X104448179Y-126780563D01*
X104514369Y-126863970D01*
X104730157Y-126964593D01*
X104879754Y-126981810D01*
X105161732Y-127165840D02*
X105800138Y-126360156D01*
X105670898Y-127088017D01*
X106145398Y-126521153D01*
X105938567Y-127528084D01*
X106197512Y-127648832D02*
X106758560Y-127910453D01*
X106617455Y-127424320D01*
X106746927Y-127484694D01*
X106853367Y-127481786D01*
X106916649Y-127458753D01*
X107000056Y-127392563D01*
X107100679Y-127176775D01*
X107097771Y-127070336D01*
X107074738Y-127007053D01*
X107008548Y-126923647D01*
X106749603Y-126802899D01*
X106643163Y-126805807D01*
X106579881Y-126828840D01*
X107457572Y-127763532D02*
X107351133Y-127766440D01*
X107287850Y-127789473D01*
X107204443Y-127855663D01*
X107184319Y-127898821D01*
X107187227Y-128005260D01*
X107210260Y-128068542D01*
X107276450Y-128151949D01*
X107449080Y-128232448D01*
X107555520Y-128229540D01*
X107618802Y-128206507D01*
X107702209Y-128140317D01*
X107722334Y-128097159D01*
X107719425Y-127990719D01*
X107696393Y-127927437D01*
X107630202Y-127844030D01*
X107457572Y-127763532D01*
X107391382Y-127680125D01*
X107368349Y-127616843D01*
X107365441Y-127510403D01*
X107445940Y-127337773D01*
X107529346Y-127271582D01*
X107592629Y-127248550D01*
X107699068Y-127245641D01*
X107871698Y-127326140D01*
X107937889Y-127409547D01*
X107960922Y-127472829D01*
X107963830Y-127579269D01*
X107883331Y-127751899D01*
X107799924Y-127818089D01*
X107736642Y-127841122D01*
X107630202Y-127844030D01*
X169024281Y-99252405D02*
X168906326Y-99346012D01*
X168682590Y-99427445D01*
X168576809Y-99415271D01*
X168515775Y-99386811D01*
X168438454Y-99313603D01*
X168405881Y-99224108D01*
X168418055Y-99118327D01*
X168446515Y-99057293D01*
X168519723Y-98979973D01*
X168682426Y-98870079D01*
X168755633Y-98792758D01*
X168784094Y-98731724D01*
X168796268Y-98625943D01*
X168763695Y-98536448D01*
X168686374Y-98463241D01*
X168625340Y-98434780D01*
X168519559Y-98422606D01*
X168295823Y-98504039D01*
X168177867Y-98597647D01*
X167848350Y-98666906D02*
X167966634Y-99688032D01*
X167543344Y-99081970D01*
X167608656Y-99818326D01*
X167042899Y-98960066D01*
X166762241Y-99163567D02*
X166701208Y-99135107D01*
X166595426Y-99122933D01*
X166371690Y-99204366D01*
X166298482Y-99281687D01*
X166270022Y-99342721D01*
X166257848Y-99448502D01*
X166290421Y-99537997D01*
X166384028Y-99655952D01*
X167116436Y-99997479D01*
X166534721Y-100209206D01*
X165342503Y-99578960D02*
X165789976Y-99416093D01*
X165997590Y-99847279D01*
X165936556Y-99818819D01*
X165830774Y-99806645D01*
X165607038Y-99888078D01*
X165533830Y-99965399D01*
X165505370Y-100026433D01*
X165493196Y-100132214D01*
X165574629Y-100355950D01*
X165651950Y-100429158D01*
X165712984Y-100457619D01*
X165818765Y-100469792D01*
X166042501Y-100388359D01*
X166115709Y-100311038D01*
X166144170Y-100250005D01*
X58016160Y-97175600D02*
X58166689Y-97179713D01*
X58390425Y-97261146D01*
X58463633Y-97338467D01*
X58492093Y-97399501D01*
X58504267Y-97505282D01*
X58471694Y-97594777D01*
X58394373Y-97667984D01*
X58333339Y-97696445D01*
X58227558Y-97708619D01*
X58032282Y-97688220D01*
X57926501Y-97700393D01*
X57865467Y-97728854D01*
X57788147Y-97802062D01*
X57755573Y-97891556D01*
X57767747Y-97997338D01*
X57796208Y-98058372D01*
X57869416Y-98135692D01*
X58093152Y-98217126D01*
X58243680Y-98221238D01*
X58540625Y-98379992D02*
X59106381Y-97521733D01*
X59041070Y-98258089D01*
X59464359Y-97652026D01*
X59346075Y-98673152D01*
X60538294Y-98042907D02*
X60001327Y-97847466D01*
X60269810Y-97945187D02*
X59927790Y-98884879D01*
X59887155Y-98718064D01*
X59830234Y-98595996D01*
X59757026Y-98518676D01*
X61115731Y-98962528D02*
X61343745Y-98336067D01*
X60761701Y-99239073D02*
X60782265Y-98486431D01*
X61363980Y-98698158D01*
X78114813Y-94583754D02*
X78265342Y-94587867D01*
X78489078Y-94669300D01*
X78562286Y-94746621D01*
X78590746Y-94807655D01*
X78602920Y-94913436D01*
X78570347Y-95002931D01*
X78493026Y-95076138D01*
X78431992Y-95104599D01*
X78326211Y-95116773D01*
X78130935Y-95096374D01*
X78025154Y-95108547D01*
X77964120Y-95137008D01*
X77886800Y-95210216D01*
X77854226Y-95299710D01*
X77866400Y-95405492D01*
X77894861Y-95466526D01*
X77968069Y-95543846D01*
X78191805Y-95625280D01*
X78342333Y-95629392D01*
X78639278Y-95788146D02*
X79205034Y-94929887D01*
X79139723Y-95666243D01*
X79563012Y-95060180D01*
X79444728Y-96081306D01*
X80636947Y-95451061D02*
X80099980Y-95255620D01*
X80368463Y-95353341D02*
X80026443Y-96293033D01*
X79985808Y-96126218D01*
X79928887Y-96004150D01*
X79855679Y-95926830D01*
X81145125Y-96700200D02*
X80697652Y-96537333D01*
X80815771Y-96073574D01*
X80844232Y-96134608D01*
X80917440Y-96211928D01*
X81141176Y-96293362D01*
X81246957Y-96281188D01*
X81307991Y-96252727D01*
X81385312Y-96179519D01*
X81466745Y-95955783D01*
X81454571Y-95850002D01*
X81426111Y-95788968D01*
X81352903Y-95711647D01*
X81129167Y-95630214D01*
X81023385Y-95642388D01*
X80962352Y-95670849D01*
X53177433Y-59232862D02*
X53327961Y-59236975D01*
X53551698Y-59318408D01*
X53624905Y-59395729D01*
X53653366Y-59456763D01*
X53665540Y-59562544D01*
X53632967Y-59652038D01*
X53555646Y-59725246D01*
X53494612Y-59753707D01*
X53388831Y-59765881D01*
X53193555Y-59745481D01*
X53087774Y-59757655D01*
X53026740Y-59786116D01*
X52949419Y-59859324D01*
X52916846Y-59948818D01*
X52929020Y-60054599D01*
X52957480Y-60115633D01*
X53030688Y-60192954D01*
X53254425Y-60274387D01*
X53404953Y-60278500D01*
X53701897Y-60437254D02*
X54267654Y-59578995D01*
X54202343Y-60315350D01*
X54625632Y-59709288D01*
X54507348Y-60730414D01*
X55699566Y-60100168D02*
X55162599Y-59904728D01*
X55431083Y-60002448D02*
X55089063Y-60942141D01*
X55048428Y-60775326D01*
X54991507Y-60653258D01*
X54918299Y-60575937D01*
X249702897Y-57772335D02*
X249584942Y-57865942D01*
X249361206Y-57947375D01*
X249255425Y-57935201D01*
X249194391Y-57906741D01*
X249117070Y-57833533D01*
X249084497Y-57744038D01*
X249096671Y-57638257D01*
X249125131Y-57577223D01*
X249198339Y-57499903D01*
X249361042Y-57390009D01*
X249434249Y-57312688D01*
X249462710Y-57251654D01*
X249474884Y-57145873D01*
X249442311Y-57056378D01*
X249364990Y-56983171D01*
X249303956Y-56954710D01*
X249198175Y-56942536D01*
X248974439Y-57023969D01*
X248856483Y-57117577D01*
X248526966Y-57186836D02*
X248645250Y-58207962D01*
X248221960Y-57601900D01*
X248287272Y-58338256D01*
X247721515Y-57479996D01*
X247440857Y-57683497D02*
X247379824Y-57655037D01*
X247274042Y-57642863D01*
X247050306Y-57724296D01*
X246977098Y-57801617D01*
X246948638Y-57862651D01*
X246936464Y-57968432D01*
X246969037Y-58057927D01*
X247062644Y-58175882D01*
X247795052Y-58517409D01*
X247213337Y-58729136D01*
X246179873Y-58395834D02*
X246407886Y-59022296D01*
X246273316Y-57956423D02*
X246741352Y-58546198D01*
X246159638Y-58757925D01*
X64277976Y-81363692D02*
X64428504Y-81367805D01*
X64652241Y-81449238D01*
X64725448Y-81526559D01*
X64753909Y-81587593D01*
X64766083Y-81693374D01*
X64733510Y-81782868D01*
X64656189Y-81856076D01*
X64595155Y-81884537D01*
X64489374Y-81896711D01*
X64294098Y-81876311D01*
X64188317Y-81888485D01*
X64127283Y-81916946D01*
X64049962Y-81990154D01*
X64017389Y-82079648D01*
X64029563Y-82185429D01*
X64058023Y-82246463D01*
X64131231Y-82323784D01*
X64354968Y-82405217D01*
X64505496Y-82409330D01*
X64802440Y-82568084D02*
X65368197Y-81709825D01*
X65302886Y-82446180D01*
X65726175Y-81840118D01*
X65607891Y-82861244D01*
X66246691Y-82637672D02*
X66140910Y-82649846D01*
X66079876Y-82678307D01*
X66002555Y-82751515D01*
X65986269Y-82796262D01*
X65998443Y-82902043D01*
X66026903Y-82963077D01*
X66100111Y-83040398D01*
X66279100Y-83105544D01*
X66384881Y-83093370D01*
X66445915Y-83064910D01*
X66523236Y-82991702D01*
X66539523Y-82946955D01*
X66527349Y-82841173D01*
X66498888Y-82780139D01*
X66425680Y-82702819D01*
X66246691Y-82637672D01*
X66173483Y-82560352D01*
X66145023Y-82499318D01*
X66132849Y-82393536D01*
X66197995Y-82214547D01*
X66275316Y-82141339D01*
X66336350Y-82112879D01*
X66442131Y-82100705D01*
X66621120Y-82165852D01*
X66694328Y-82243172D01*
X66722789Y-82304206D01*
X66734963Y-82409987D01*
X66669816Y-82588976D01*
X66592495Y-82662184D01*
X66531461Y-82690645D01*
X66425680Y-82702819D01*
X179650689Y-133497621D02*
X179560980Y-133618568D01*
X179365944Y-133755133D01*
X179260616Y-133770752D01*
X179194296Y-133759058D01*
X179100662Y-133708357D01*
X179046036Y-133630343D01*
X179030417Y-133525015D01*
X179042111Y-133458695D01*
X179092812Y-133365061D01*
X179221528Y-133216801D01*
X179272229Y-133123168D01*
X179283923Y-133056847D01*
X179268304Y-132951519D01*
X179213678Y-132873505D01*
X179120044Y-132822804D01*
X179053724Y-132811110D01*
X178948396Y-132826729D01*
X178753360Y-132963294D01*
X178663652Y-133084241D01*
X178363288Y-133236426D02*
X178741828Y-134192144D01*
X178176102Y-133716288D01*
X178429770Y-134410649D01*
X177661157Y-133728063D01*
X177189226Y-134465438D02*
X177571611Y-135011539D01*
X177165757Y-134016814D02*
X177770491Y-134465357D01*
X177263397Y-134820428D01*
X176662588Y-134543533D02*
X176596268Y-134531839D01*
X176490940Y-134547458D01*
X176295904Y-134684024D01*
X176245203Y-134777657D01*
X176233509Y-134843978D01*
X176249128Y-134949305D01*
X176303754Y-135027320D01*
X176424701Y-135117028D01*
X177220546Y-135257357D01*
X176713451Y-135612429D01*
X190491819Y-105605283D02*
X190373864Y-105698890D01*
X190150128Y-105780323D01*
X190044347Y-105768149D01*
X189983313Y-105739689D01*
X189905992Y-105666481D01*
X189873419Y-105576986D01*
X189885593Y-105471205D01*
X189914053Y-105410171D01*
X189987261Y-105332851D01*
X190149964Y-105222957D01*
X190223171Y-105145636D01*
X190251632Y-105084602D01*
X190263806Y-104978821D01*
X190231233Y-104889326D01*
X190153912Y-104816119D01*
X190092878Y-104787658D01*
X189987097Y-104775484D01*
X189763361Y-104856917D01*
X189645405Y-104950525D01*
X189315888Y-105019784D02*
X189434172Y-106040910D01*
X189010882Y-105434848D01*
X189076194Y-106171204D01*
X188510437Y-105312944D01*
X188241953Y-105410664D02*
X187660239Y-105622391D01*
X188103763Y-105866362D01*
X187969521Y-105915222D01*
X187896314Y-105992543D01*
X187867853Y-106053577D01*
X187855679Y-106159358D01*
X187937112Y-106383095D01*
X188014433Y-106456302D01*
X188075467Y-106484763D01*
X188181248Y-106496937D01*
X188449732Y-106399217D01*
X188522940Y-106321896D01*
X188551400Y-106260862D01*
X187334834Y-105842179D02*
X187273800Y-105813718D01*
X187168019Y-105801544D01*
X186944283Y-105882978D01*
X186871075Y-105960298D01*
X186842614Y-106021332D01*
X186830440Y-106127114D01*
X186863014Y-106216608D01*
X186956621Y-106334563D01*
X187689028Y-106676090D01*
X187107314Y-106887817D01*
X127538040Y-116500754D02*
X127688569Y-116504867D01*
X127912305Y-116586300D01*
X127985513Y-116663621D01*
X128013973Y-116724655D01*
X128026147Y-116830436D01*
X127993574Y-116919931D01*
X127916253Y-116993138D01*
X127855219Y-117021599D01*
X127749438Y-117033773D01*
X127554162Y-117013374D01*
X127448381Y-117025547D01*
X127387347Y-117054008D01*
X127310027Y-117127216D01*
X127277453Y-117216710D01*
X127289627Y-117322492D01*
X127318088Y-117383526D01*
X127391296Y-117460846D01*
X127615032Y-117542280D01*
X127765560Y-117546392D01*
X128062505Y-117705146D02*
X128628261Y-116846887D01*
X128562950Y-117583243D01*
X128986239Y-116977180D01*
X128867955Y-117998306D01*
X130060174Y-117368061D02*
X129523207Y-117172620D01*
X129791690Y-117270341D02*
X129449670Y-118210033D01*
X129409035Y-118043218D01*
X129352114Y-117921150D01*
X129278906Y-117843830D01*
X130401701Y-118100468D02*
X130295920Y-118112642D01*
X130234886Y-118141102D01*
X130157565Y-118214310D01*
X130141278Y-118259058D01*
X130153452Y-118364839D01*
X130181913Y-118425873D01*
X130255121Y-118503193D01*
X130434110Y-118568340D01*
X130539891Y-118556166D01*
X130600925Y-118527705D01*
X130678246Y-118454498D01*
X130694532Y-118409750D01*
X130682358Y-118303969D01*
X130653898Y-118242935D01*
X130580690Y-118165615D01*
X130401701Y-118100468D01*
X130328493Y-118023147D01*
X130300032Y-117962113D01*
X130287858Y-117856332D01*
X130353005Y-117677343D01*
X130430326Y-117604135D01*
X130491360Y-117575675D01*
X130597141Y-117563501D01*
X130776130Y-117628647D01*
X130849338Y-117705968D01*
X130877798Y-117767002D01*
X130889972Y-117872783D01*
X130824826Y-118051772D01*
X130747505Y-118124980D01*
X130686471Y-118153441D01*
X130580690Y-118165615D01*
X212691752Y-61343124D02*
X212573797Y-61436731D01*
X212350061Y-61518164D01*
X212244280Y-61505990D01*
X212183246Y-61477530D01*
X212105925Y-61404322D01*
X212073352Y-61314827D01*
X212085526Y-61209046D01*
X212113986Y-61148012D01*
X212187194Y-61070692D01*
X212349897Y-60960798D01*
X212423104Y-60883477D01*
X212451565Y-60822443D01*
X212463739Y-60716662D01*
X212431166Y-60627167D01*
X212353845Y-60553960D01*
X212292811Y-60525499D01*
X212187030Y-60513325D01*
X211963294Y-60594758D01*
X211845338Y-60688366D01*
X211515821Y-60757625D02*
X211634105Y-61778751D01*
X211210815Y-61172689D01*
X211276127Y-61909045D01*
X210710370Y-61050785D01*
X210429712Y-61254286D02*
X210368679Y-61225826D01*
X210262897Y-61213652D01*
X210039161Y-61295085D01*
X209965953Y-61372406D01*
X209937493Y-61433440D01*
X209925319Y-61539221D01*
X209957892Y-61628716D01*
X210051499Y-61746671D01*
X210783907Y-62088198D01*
X210202192Y-62299925D01*
X209534767Y-61580020D02*
X209473733Y-61551559D01*
X209367952Y-61539385D01*
X209144216Y-61620819D01*
X209071008Y-61698139D01*
X209042547Y-61759173D01*
X209030373Y-61864955D01*
X209062947Y-61954449D01*
X209156554Y-62072404D01*
X209888961Y-62413931D01*
X209307247Y-62625658D01*
X218506095Y-77317898D02*
X218388140Y-77411505D01*
X218164404Y-77492938D01*
X218058623Y-77480764D01*
X217997589Y-77452304D01*
X217920268Y-77379096D01*
X217887695Y-77289601D01*
X217899869Y-77183820D01*
X217928329Y-77122786D01*
X218001537Y-77045466D01*
X218164240Y-76935572D01*
X218237447Y-76858251D01*
X218265908Y-76797217D01*
X218278082Y-76691436D01*
X218245509Y-76601941D01*
X218168188Y-76528734D01*
X218107154Y-76500273D01*
X218001373Y-76488099D01*
X217777637Y-76569532D01*
X217659681Y-76663140D01*
X217330164Y-76732399D02*
X217448448Y-77753525D01*
X217025158Y-77147463D01*
X217090470Y-77883819D01*
X216524713Y-77025559D01*
X216244055Y-77229060D02*
X216183022Y-77200600D01*
X216077240Y-77188426D01*
X215853504Y-77269859D01*
X215780296Y-77347180D01*
X215751836Y-77408214D01*
X215739662Y-77513995D01*
X215772235Y-77603490D01*
X215865842Y-77721445D01*
X216598250Y-78062972D01*
X216016535Y-78274699D01*
X215284128Y-77933172D02*
X215357336Y-77855851D01*
X215385796Y-77794817D01*
X215397970Y-77689036D01*
X215381683Y-77644289D01*
X215304363Y-77571081D01*
X215243329Y-77542620D01*
X215137548Y-77530446D01*
X214958559Y-77595593D01*
X214885351Y-77672913D01*
X214856890Y-77733947D01*
X214844716Y-77839729D01*
X214861003Y-77884476D01*
X214938324Y-77957684D01*
X214999358Y-77986144D01*
X215105139Y-77998318D01*
X215284128Y-77933172D01*
X215389909Y-77945345D01*
X215450943Y-77973806D01*
X215528264Y-78047014D01*
X215593410Y-78226003D01*
X215581236Y-78331784D01*
X215552776Y-78392818D01*
X215479568Y-78470139D01*
X215300579Y-78535285D01*
X215194798Y-78523112D01*
X215133764Y-78494651D01*
X215056443Y-78421443D01*
X214991296Y-78242454D01*
X215003470Y-78136673D01*
X215031931Y-78075639D01*
X215105139Y-77998318D01*
X216796661Y-117995767D02*
X216670997Y-118078738D01*
X216441014Y-118140361D01*
X216336697Y-118119014D01*
X216278376Y-118085343D01*
X216207730Y-118005674D01*
X216183080Y-117913682D01*
X216204427Y-117809364D01*
X216238099Y-117751043D01*
X216317767Y-117680397D01*
X216489428Y-117585101D01*
X216569097Y-117514456D01*
X216602768Y-117456134D01*
X216624115Y-117351817D01*
X216599466Y-117259824D01*
X216528820Y-117180156D01*
X216470499Y-117146484D01*
X216366181Y-117125137D01*
X216136199Y-117186760D01*
X216010534Y-117269731D01*
X215676234Y-117310008D02*
X215705071Y-118337557D01*
X215336214Y-117696909D01*
X215337099Y-118436155D01*
X214848298Y-117531852D01*
X214152631Y-118063348D02*
X214325177Y-118707298D01*
X214284015Y-117633753D02*
X214698868Y-118262076D01*
X214100914Y-118422297D01*
X213232701Y-118309842D02*
X213405247Y-118953793D01*
X213364086Y-117880247D02*
X213778939Y-118508570D01*
X213180985Y-118668792D01*
X41101275Y-91019544D02*
X41251804Y-91023657D01*
X41475540Y-91105090D01*
X41548748Y-91182411D01*
X41577208Y-91243445D01*
X41589382Y-91349226D01*
X41556809Y-91438721D01*
X41479488Y-91511928D01*
X41418454Y-91540389D01*
X41312673Y-91552563D01*
X41117397Y-91532164D01*
X41011616Y-91544337D01*
X40950582Y-91572798D01*
X40873262Y-91646006D01*
X40840688Y-91735500D01*
X40852862Y-91841282D01*
X40881323Y-91902316D01*
X40954531Y-91979636D01*
X41178267Y-92061070D01*
X41328795Y-92065182D01*
X41625740Y-92223936D02*
X42191496Y-91365677D01*
X42126185Y-92102033D01*
X42549474Y-91495970D01*
X42431190Y-92517096D01*
X43623409Y-91886851D02*
X43086442Y-91691410D01*
X43354925Y-91789131D02*
X43012905Y-92728823D01*
X42972270Y-92562008D01*
X42915349Y-92439940D01*
X42842141Y-92362620D01*
X43594619Y-92940550D02*
X44176334Y-93152277D01*
X43993396Y-92680292D01*
X44127638Y-92729152D01*
X44233419Y-92716978D01*
X44294453Y-92688517D01*
X44371774Y-92615309D01*
X44453207Y-92391573D01*
X44441033Y-92285792D01*
X44412573Y-92224758D01*
X44339365Y-92147437D01*
X44070881Y-92049717D01*
X43965100Y-92061891D01*
X43904066Y-92090352D01*
X122241380Y-136274893D02*
X122385715Y-136317825D01*
X122580751Y-136454391D01*
X122631453Y-136548024D01*
X122643147Y-136614345D01*
X122627528Y-136719672D01*
X122572901Y-136797687D01*
X122479268Y-136848388D01*
X122412947Y-136860082D01*
X122307620Y-136844463D01*
X122124278Y-136774218D01*
X122018950Y-136758599D01*
X121952630Y-136770293D01*
X121858996Y-136820994D01*
X121804370Y-136899009D01*
X121788751Y-137004336D01*
X121800445Y-137070657D01*
X121851146Y-137164290D01*
X122046182Y-137300856D01*
X122190517Y-137343788D01*
X122436255Y-137573988D02*
X123204867Y-136891401D01*
X122951199Y-137585763D01*
X123516925Y-137109907D01*
X123138385Y-138065625D01*
X123372428Y-138229504D02*
X123879522Y-138584575D01*
X123824977Y-138081325D01*
X123941999Y-138163264D01*
X124047326Y-138178883D01*
X124113647Y-138167189D01*
X124207280Y-138116488D01*
X124343846Y-137921452D01*
X124359465Y-137816124D01*
X124347771Y-137749804D01*
X124297070Y-137656170D01*
X124063026Y-137492291D01*
X123957699Y-137476672D01*
X123891378Y-137488366D01*
X124843171Y-138038554D02*
X124999200Y-138147807D01*
X125049902Y-138241441D01*
X125061596Y-138307761D01*
X125057671Y-138479409D01*
X124987425Y-138662751D01*
X124768920Y-138974809D01*
X124675286Y-139025510D01*
X124608966Y-139037204D01*
X124503638Y-139021585D01*
X124347609Y-138912333D01*
X124296908Y-138818699D01*
X124285214Y-138752379D01*
X124300833Y-138647051D01*
X124437399Y-138452015D01*
X124531032Y-138401314D01*
X124597353Y-138389619D01*
X124702680Y-138405239D01*
X124858709Y-138514491D01*
X124909411Y-138608125D01*
X124921105Y-138674445D01*
X124905486Y-138779773D01*
X261331582Y-89721884D02*
X261213627Y-89815491D01*
X260989891Y-89896924D01*
X260884110Y-89884750D01*
X260823076Y-89856290D01*
X260745755Y-89783082D01*
X260713182Y-89693587D01*
X260725356Y-89587806D01*
X260753816Y-89526772D01*
X260827024Y-89449452D01*
X260989727Y-89339558D01*
X261062934Y-89262237D01*
X261091395Y-89201203D01*
X261103569Y-89095422D01*
X261070996Y-89005927D01*
X260993675Y-88932720D01*
X260932641Y-88904259D01*
X260826860Y-88892085D01*
X260603124Y-88973518D01*
X260485168Y-89067126D01*
X260155651Y-89136385D02*
X260273935Y-90157511D01*
X259850645Y-89551449D01*
X259915957Y-90287805D01*
X259350200Y-89429545D01*
X259081716Y-89527265D02*
X258500002Y-89738992D01*
X258943526Y-89982963D01*
X258809284Y-90031823D01*
X258736077Y-90109144D01*
X258707616Y-90170178D01*
X258695442Y-90275959D01*
X258776875Y-90499696D01*
X258854196Y-90572903D01*
X258915230Y-90601364D01*
X259021011Y-90613538D01*
X259289495Y-90515818D01*
X259362703Y-90438497D01*
X259391163Y-90377463D01*
X257694551Y-90032152D02*
X257873540Y-89967005D01*
X257979321Y-89979179D01*
X258040355Y-90007640D01*
X258178710Y-90109308D01*
X258288604Y-90272011D01*
X258418897Y-90629989D01*
X258406723Y-90735770D01*
X258378263Y-90796804D01*
X258305055Y-90874125D01*
X258126066Y-90939271D01*
X258020285Y-90927098D01*
X257959251Y-90898637D01*
X257881930Y-90825429D01*
X257800497Y-90601693D01*
X257812671Y-90495912D01*
X257841131Y-90434878D01*
X257914339Y-90357557D01*
X258093328Y-90292410D01*
X258199109Y-90304584D01*
X258260143Y-90333045D01*
X258337464Y-90406253D01*
X174838624Y-115227179D02*
X174720669Y-115320786D01*
X174496933Y-115402219D01*
X174391152Y-115390045D01*
X174330118Y-115361585D01*
X174252797Y-115288377D01*
X174220224Y-115198882D01*
X174232398Y-115093101D01*
X174260858Y-115032067D01*
X174334066Y-114954747D01*
X174496769Y-114844853D01*
X174569976Y-114767532D01*
X174598437Y-114706498D01*
X174610611Y-114600717D01*
X174578038Y-114511222D01*
X174500717Y-114438015D01*
X174439683Y-114409554D01*
X174333902Y-114397380D01*
X174110166Y-114478813D01*
X173992210Y-114572421D01*
X173662693Y-114641680D02*
X173780977Y-115662806D01*
X173357687Y-115056744D01*
X173422999Y-115793100D01*
X172857242Y-114934840D01*
X172588758Y-115032560D02*
X172007044Y-115244287D01*
X172450568Y-115488258D01*
X172316326Y-115537118D01*
X172243119Y-115614439D01*
X172214658Y-115675473D01*
X172202484Y-115781254D01*
X172283917Y-116004991D01*
X172361238Y-116078198D01*
X172422272Y-116106659D01*
X172528053Y-116118833D01*
X172796537Y-116021113D01*
X172869745Y-115943792D01*
X172898205Y-115882758D01*
X171454119Y-116509713D02*
X171991086Y-116314273D01*
X171722602Y-116411993D02*
X171380582Y-115472300D01*
X171518937Y-115573969D01*
X171641005Y-115630890D01*
X171746786Y-115643064D01*
X137694798Y-149507227D02*
X137829485Y-149574571D01*
X137997844Y-149742929D01*
X138031515Y-149843945D01*
X138031515Y-149911288D01*
X137997844Y-150012303D01*
X137930500Y-150079647D01*
X137829485Y-150113319D01*
X137762141Y-150113319D01*
X137661126Y-150079647D01*
X137492767Y-149978632D01*
X137391752Y-149944960D01*
X137324409Y-149944960D01*
X137223393Y-149978632D01*
X137156050Y-150045975D01*
X137122378Y-150146990D01*
X137122378Y-150214334D01*
X137156050Y-150315349D01*
X137324409Y-150483708D01*
X137459096Y-150551051D01*
X137661126Y-150820425D02*
X138536592Y-150281677D01*
X138166202Y-150921441D01*
X138805966Y-150551051D01*
X138267218Y-151426517D01*
X139075340Y-151763234D02*
X139546744Y-151291830D01*
X138637607Y-151864250D02*
X138974324Y-151190815D01*
X139412057Y-151628547D01*
X139344714Y-152504013D02*
X139412057Y-152571356D01*
X139513072Y-152605028D01*
X139580416Y-152605028D01*
X139681431Y-152571356D01*
X139849790Y-152470341D01*
X140018149Y-152301982D01*
X140119164Y-152133624D01*
X140152836Y-152032608D01*
X140152836Y-151965265D01*
X140119164Y-151864250D01*
X140051820Y-151796906D01*
X139950805Y-151763234D01*
X139883462Y-151763234D01*
X139782446Y-151796906D01*
X139614088Y-151897921D01*
X139445729Y-152066280D01*
X139344714Y-152234639D01*
X139311042Y-152335654D01*
X139311042Y-152402998D01*
X139344714Y-152504013D01*
X163209939Y-83277630D02*
X163091984Y-83371237D01*
X162868248Y-83452670D01*
X162762467Y-83440496D01*
X162701433Y-83412036D01*
X162624112Y-83338828D01*
X162591539Y-83249333D01*
X162603713Y-83143552D01*
X162632173Y-83082518D01*
X162705381Y-83005198D01*
X162868084Y-82895304D01*
X162941291Y-82817983D01*
X162969752Y-82756949D01*
X162981926Y-82651168D01*
X162949353Y-82561673D01*
X162872032Y-82488466D01*
X162810998Y-82460005D01*
X162705217Y-82447831D01*
X162481481Y-82529264D01*
X162363525Y-82622872D01*
X162034008Y-82692131D02*
X162152292Y-83713257D01*
X161729002Y-83107195D01*
X161794314Y-83843551D01*
X161228557Y-82985291D01*
X160720379Y-84234431D02*
X161257346Y-84038991D01*
X160988863Y-84136711D02*
X160646843Y-83197018D01*
X160785197Y-83298686D01*
X160907265Y-83355608D01*
X161013046Y-83367782D01*
X160272906Y-84397297D02*
X160093917Y-84462444D01*
X159988136Y-84450270D01*
X159927102Y-84421810D01*
X159788748Y-84320141D01*
X159678854Y-84157439D01*
X159548560Y-83799461D01*
X159560734Y-83693679D01*
X159589195Y-83632645D01*
X159662403Y-83555325D01*
X159841392Y-83490178D01*
X159947173Y-83502352D01*
X160008207Y-83530813D01*
X160085527Y-83604021D01*
X160166961Y-83827757D01*
X160154787Y-83933538D01*
X160126326Y-83994572D01*
X160053118Y-84071893D01*
X159874129Y-84137039D01*
X159768348Y-84124865D01*
X159707314Y-84096405D01*
X159629994Y-84023197D01*
X197554636Y-124118822D02*
X197445288Y-124222353D01*
X197229500Y-124322977D01*
X197123061Y-124320068D01*
X197059778Y-124297036D01*
X196976372Y-124230845D01*
X196936122Y-124144530D01*
X196939030Y-124038090D01*
X196962063Y-123974808D01*
X197028254Y-123891401D01*
X197180759Y-123767745D01*
X197246949Y-123684338D01*
X197269982Y-123621056D01*
X197272890Y-123514616D01*
X197232641Y-123428301D01*
X197149234Y-123362111D01*
X197085952Y-123339078D01*
X196979512Y-123336170D01*
X196763725Y-123436793D01*
X196654377Y-123540325D01*
X196332149Y-123638040D02*
X196538980Y-124644971D01*
X196064480Y-124078107D01*
X196193720Y-124805969D01*
X195555314Y-124000284D01*
X194962509Y-124644507D02*
X195244255Y-125248712D01*
X195017299Y-124198623D02*
X195534957Y-124745362D01*
X194973909Y-125006983D01*
X194433219Y-124523526D02*
X193872171Y-124785147D01*
X194335271Y-124989534D01*
X194205799Y-125049908D01*
X194139608Y-125133315D01*
X194116575Y-125196597D01*
X194113667Y-125303037D01*
X194214291Y-125518825D01*
X194297698Y-125585015D01*
X194360980Y-125608048D01*
X194467419Y-125610956D01*
X194726365Y-125490208D01*
X194792555Y-125406801D01*
X194815588Y-125343519D01*
X111943432Y-106896365D02*
X112093961Y-106900478D01*
X112317697Y-106981911D01*
X112390905Y-107059232D01*
X112419365Y-107120266D01*
X112431539Y-107226047D01*
X112398966Y-107315542D01*
X112321645Y-107388749D01*
X112260611Y-107417210D01*
X112154830Y-107429384D01*
X111959554Y-107408985D01*
X111853773Y-107421158D01*
X111792739Y-107449619D01*
X111715419Y-107522827D01*
X111682845Y-107612321D01*
X111695019Y-107718103D01*
X111723480Y-107779137D01*
X111796688Y-107856457D01*
X112020424Y-107937891D01*
X112170952Y-107942003D01*
X112467897Y-108100757D02*
X113033653Y-107242498D01*
X112968342Y-107978854D01*
X113391631Y-107372791D01*
X113273347Y-108393917D01*
X114465566Y-107763672D02*
X113928599Y-107568231D01*
X114197082Y-107665952D02*
X113855062Y-108605644D01*
X113814427Y-108438829D01*
X113757506Y-108316761D01*
X113684298Y-108239441D01*
X114436776Y-108817371D02*
X115063238Y-109045384D01*
X115002533Y-107959112D01*
X47363091Y-75207636D02*
X47513619Y-75211749D01*
X47737356Y-75293182D01*
X47810563Y-75370503D01*
X47839024Y-75431537D01*
X47851198Y-75537318D01*
X47818625Y-75626812D01*
X47741304Y-75700020D01*
X47680270Y-75728481D01*
X47574489Y-75740655D01*
X47379213Y-75720255D01*
X47273432Y-75732429D01*
X47212398Y-75760890D01*
X47135077Y-75834098D01*
X47102504Y-75923592D01*
X47114678Y-76029373D01*
X47143138Y-76090407D01*
X47216346Y-76167728D01*
X47440083Y-76249161D01*
X47590611Y-76253274D01*
X47887555Y-76412028D02*
X48453312Y-75553769D01*
X48388001Y-76290124D01*
X48811290Y-75684062D01*
X48693006Y-76705188D01*
X48961490Y-76802908D02*
X49587952Y-77030922D01*
X49527246Y-75944649D01*
X238604747Y-79909743D02*
X238486792Y-80003350D01*
X238263056Y-80084783D01*
X238157275Y-80072609D01*
X238096241Y-80044149D01*
X238018920Y-79970941D01*
X237986347Y-79881446D01*
X237998521Y-79775665D01*
X238026981Y-79714631D01*
X238100189Y-79637311D01*
X238262892Y-79527417D01*
X238336099Y-79450096D01*
X238364560Y-79389062D01*
X238376734Y-79283281D01*
X238344161Y-79193786D01*
X238266840Y-79120579D01*
X238205806Y-79092118D01*
X238100025Y-79079944D01*
X237876289Y-79161377D01*
X237758333Y-79254985D01*
X237428816Y-79324244D02*
X237547100Y-80345370D01*
X237123810Y-79739308D01*
X237189122Y-80475664D01*
X236623365Y-79617404D01*
X236342707Y-79820905D02*
X236281674Y-79792445D01*
X236175892Y-79780271D01*
X235952156Y-79861704D01*
X235878948Y-79939025D01*
X235850488Y-80000059D01*
X235838314Y-80105840D01*
X235870887Y-80195335D01*
X235964494Y-80313290D01*
X236696902Y-80654817D01*
X236115187Y-80866544D01*
X235667714Y-81029410D02*
X235488725Y-81094557D01*
X235382944Y-81082383D01*
X235321910Y-81053923D01*
X235183556Y-80952254D01*
X235073662Y-80789552D01*
X234943368Y-80431574D01*
X234955542Y-80325792D01*
X234984003Y-80264758D01*
X235057211Y-80187438D01*
X235236200Y-80122291D01*
X235341981Y-80134465D01*
X235403015Y-80162926D01*
X235480335Y-80236134D01*
X235561769Y-80459870D01*
X235549595Y-80565651D01*
X235521134Y-80626685D01*
X235447926Y-80704006D01*
X235268937Y-80769152D01*
X235163156Y-80756978D01*
X235102122Y-80728518D01*
X235024802Y-80655310D01*
X103369326Y-77824599D02*
X103519855Y-77828712D01*
X103743591Y-77910145D01*
X103816799Y-77987466D01*
X103845259Y-78048500D01*
X103857433Y-78154281D01*
X103824860Y-78243776D01*
X103747539Y-78316983D01*
X103686505Y-78345444D01*
X103580724Y-78357618D01*
X103385448Y-78337219D01*
X103279667Y-78349392D01*
X103218633Y-78377853D01*
X103141313Y-78451061D01*
X103108739Y-78540555D01*
X103120913Y-78646337D01*
X103149374Y-78707371D01*
X103222582Y-78784691D01*
X103446318Y-78866125D01*
X103596846Y-78870237D01*
X103893791Y-79028991D02*
X104459547Y-78170732D01*
X104394236Y-78907088D01*
X104817525Y-78301025D01*
X104699241Y-79322151D01*
X105891460Y-78691906D02*
X105354493Y-78496465D01*
X105622976Y-78594186D02*
X105280956Y-79533878D01*
X105240321Y-79367063D01*
X105183400Y-79244995D01*
X105110192Y-79167675D01*
X106131154Y-79843325D02*
X106220649Y-79875898D01*
X106326430Y-79863724D01*
X106387464Y-79835264D01*
X106464784Y-79762056D01*
X106574678Y-79599354D01*
X106656112Y-79375617D01*
X106676511Y-79180341D01*
X106664337Y-79074560D01*
X106635877Y-79013526D01*
X106562669Y-78936206D01*
X106473174Y-78903632D01*
X106367393Y-78915806D01*
X106306359Y-78944267D01*
X106229038Y-79017475D01*
X106119144Y-79180177D01*
X106037711Y-79403913D01*
X106017312Y-79599189D01*
X106029486Y-79704970D01*
X106057946Y-79766004D01*
X106131154Y-79843325D01*
X255517239Y-73747109D02*
X255399284Y-73840716D01*
X255175548Y-73922149D01*
X255069767Y-73909975D01*
X255008733Y-73881515D01*
X254931412Y-73808307D01*
X254898839Y-73718812D01*
X254911013Y-73613031D01*
X254939473Y-73551997D01*
X255012681Y-73474677D01*
X255175384Y-73364783D01*
X255248591Y-73287462D01*
X255277052Y-73226428D01*
X255289226Y-73120647D01*
X255256653Y-73031152D01*
X255179332Y-72957945D01*
X255118298Y-72929484D01*
X255012517Y-72917310D01*
X254788781Y-72998743D01*
X254670825Y-73092351D01*
X254341308Y-73161610D02*
X254459592Y-74182736D01*
X254036302Y-73576674D01*
X254101614Y-74313030D01*
X253535857Y-73454770D01*
X253267373Y-73552490D02*
X252685659Y-73764217D01*
X253129183Y-74008188D01*
X252994941Y-74057048D01*
X252921734Y-74134369D01*
X252893273Y-74195403D01*
X252881099Y-74301184D01*
X252962532Y-74524921D01*
X253039853Y-74598128D01*
X253100887Y-74626589D01*
X253206668Y-74638763D01*
X253475152Y-74541043D01*
X253548360Y-74463722D01*
X253576820Y-74402688D01*
X252103944Y-73975944D02*
X252014450Y-74008517D01*
X251941242Y-74085838D01*
X251912781Y-74146872D01*
X251900608Y-74252653D01*
X251921007Y-74447929D01*
X252002440Y-74671665D01*
X252112334Y-74834367D01*
X252189655Y-74907575D01*
X252250689Y-74936036D01*
X252356470Y-74948210D01*
X252445965Y-74915636D01*
X252519172Y-74838316D01*
X252547633Y-74777282D01*
X252559807Y-74671501D01*
X252539408Y-74476225D01*
X252457974Y-74252489D01*
X252348080Y-74089786D01*
X252270760Y-74016578D01*
X252209726Y-73988118D01*
X252103944Y-73975944D01*
X117757775Y-90921590D02*
X117908304Y-90925703D01*
X118132040Y-91007136D01*
X118205248Y-91084457D01*
X118233708Y-91145491D01*
X118245882Y-91251272D01*
X118213309Y-91340767D01*
X118135988Y-91413974D01*
X118074954Y-91442435D01*
X117969173Y-91454609D01*
X117773897Y-91434210D01*
X117668116Y-91446383D01*
X117607082Y-91474844D01*
X117529762Y-91548052D01*
X117497188Y-91637546D01*
X117509362Y-91743328D01*
X117537823Y-91804362D01*
X117611031Y-91881682D01*
X117834767Y-91963116D01*
X117985295Y-91967228D01*
X118282240Y-92125982D02*
X118847996Y-91267723D01*
X118782685Y-92004079D01*
X119205974Y-91398016D01*
X119087690Y-92419142D01*
X120279909Y-91788897D02*
X119742942Y-91593456D01*
X120011425Y-91691177D02*
X119669405Y-92630869D01*
X119628770Y-92464054D01*
X119571849Y-92341986D01*
X119498641Y-92264666D01*
X121174854Y-92114630D02*
X120637887Y-91919190D01*
X120906370Y-92016910D02*
X120564350Y-92956603D01*
X120523716Y-92789787D01*
X120466795Y-92667720D01*
X120393587Y-92590399D01*
X97554984Y-93799373D02*
X97705513Y-93803486D01*
X97929249Y-93884919D01*
X98002457Y-93962240D01*
X98030917Y-94023274D01*
X98043091Y-94129055D01*
X98010518Y-94218550D01*
X97933197Y-94291757D01*
X97872163Y-94320218D01*
X97766382Y-94332392D01*
X97571106Y-94311993D01*
X97465325Y-94324166D01*
X97404291Y-94352627D01*
X97326971Y-94425835D01*
X97294397Y-94515329D01*
X97306571Y-94621111D01*
X97335032Y-94682145D01*
X97408240Y-94759465D01*
X97631976Y-94840899D01*
X97782504Y-94845011D01*
X98079449Y-95003765D02*
X98645205Y-94145506D01*
X98579894Y-94881862D01*
X99003183Y-94275799D01*
X98884899Y-95296925D01*
X100077118Y-94666680D02*
X99540151Y-94471239D01*
X99808634Y-94568960D02*
X99466614Y-95508652D01*
X99425979Y-95341837D01*
X99369058Y-95219769D01*
X99295850Y-95142449D01*
X100540548Y-95899532D02*
X100361559Y-95834386D01*
X100288351Y-95757065D01*
X100259891Y-95696031D01*
X100219256Y-95529216D01*
X100239656Y-95333940D01*
X100369949Y-94975962D01*
X100447270Y-94902754D01*
X100508304Y-94874294D01*
X100614085Y-94862120D01*
X100793074Y-94927266D01*
X100866282Y-95004587D01*
X100894742Y-95065621D01*
X100906916Y-95171402D01*
X100825483Y-95395138D01*
X100748162Y-95468346D01*
X100687128Y-95496807D01*
X100581347Y-95508981D01*
X100402358Y-95443834D01*
X100329150Y-95366514D01*
X100300690Y-95305480D01*
X100288516Y-95199698D01*
X90190971Y-62797072D02*
X90341499Y-62801185D01*
X90565236Y-62882618D01*
X90638443Y-62959939D01*
X90666904Y-63020973D01*
X90679078Y-63126754D01*
X90646505Y-63216248D01*
X90569184Y-63289456D01*
X90508150Y-63317917D01*
X90402369Y-63330091D01*
X90207093Y-63309691D01*
X90101312Y-63321865D01*
X90040278Y-63350326D01*
X89962957Y-63423534D01*
X89930384Y-63513028D01*
X89942558Y-63618809D01*
X89971018Y-63679843D01*
X90044226Y-63757164D01*
X90267963Y-63838597D01*
X90418491Y-63842710D01*
X90715435Y-64001464D02*
X91281192Y-63143205D01*
X91215881Y-63879560D01*
X91639170Y-63273498D01*
X91520886Y-64294624D01*
X91789370Y-64392344D02*
X92371084Y-64604071D01*
X92188147Y-64132086D01*
X92322389Y-64180946D01*
X92428170Y-64168772D01*
X92489204Y-64140312D01*
X92566524Y-64067104D01*
X92647958Y-63843367D01*
X92635784Y-63737586D01*
X92607323Y-63676552D01*
X92534115Y-63599232D01*
X92265632Y-63501512D01*
X92159851Y-63513686D01*
X92098817Y-63542146D01*
X133410969Y-100543488D02*
X133561498Y-100547601D01*
X133785234Y-100629034D01*
X133858442Y-100706355D01*
X133886902Y-100767389D01*
X133899076Y-100873170D01*
X133866503Y-100962665D01*
X133789182Y-101035872D01*
X133728148Y-101064333D01*
X133622367Y-101076507D01*
X133427091Y-101056108D01*
X133321310Y-101068281D01*
X133260276Y-101096742D01*
X133182956Y-101169950D01*
X133150382Y-101259444D01*
X133162556Y-101365226D01*
X133191017Y-101426260D01*
X133264225Y-101503580D01*
X133487961Y-101585014D01*
X133638489Y-101589126D01*
X133935434Y-101747880D02*
X134501190Y-100889621D01*
X134435879Y-101625977D01*
X134859168Y-101019914D01*
X134740884Y-102041040D01*
X135933103Y-101410795D02*
X135396136Y-101215354D01*
X135664619Y-101313075D02*
X135322599Y-102252767D01*
X135281964Y-102085952D01*
X135225043Y-101963884D01*
X135151835Y-101886564D01*
X135981634Y-102391286D02*
X136010095Y-102452320D01*
X136083303Y-102529641D01*
X136307039Y-102611074D01*
X136412820Y-102598900D01*
X136473854Y-102570439D01*
X136551175Y-102497232D01*
X136583748Y-102407737D01*
X136587861Y-102257209D01*
X136246334Y-101524801D01*
X136828048Y-101736528D01*
X184677476Y-89630508D02*
X184559521Y-89724115D01*
X184335785Y-89805548D01*
X184230004Y-89793374D01*
X184168970Y-89764914D01*
X184091649Y-89691706D01*
X184059076Y-89602211D01*
X184071250Y-89496430D01*
X184099710Y-89435396D01*
X184172918Y-89358076D01*
X184335621Y-89248182D01*
X184408828Y-89170861D01*
X184437289Y-89109827D01*
X184449463Y-89004046D01*
X184416890Y-88914551D01*
X184339569Y-88841344D01*
X184278535Y-88812883D01*
X184172754Y-88800709D01*
X183949018Y-88882142D01*
X183831062Y-88975750D01*
X183501545Y-89045009D02*
X183619829Y-90066135D01*
X183196539Y-89460073D01*
X183261851Y-90196429D01*
X182696094Y-89338169D01*
X182415436Y-89541670D02*
X182354403Y-89513210D01*
X182248621Y-89501036D01*
X182024885Y-89582469D01*
X181951677Y-89659790D01*
X181923217Y-89720824D01*
X181911043Y-89826605D01*
X181943616Y-89916100D01*
X182037223Y-90034055D01*
X182769631Y-90375582D01*
X182187916Y-90587309D01*
X181040445Y-89940776D02*
X181219434Y-89875629D01*
X181325215Y-89887803D01*
X181386249Y-89916264D01*
X181524604Y-90017932D01*
X181634498Y-90180635D01*
X181764791Y-90538613D01*
X181752617Y-90644394D01*
X181724157Y-90705428D01*
X181650949Y-90782749D01*
X181471960Y-90847895D01*
X181366179Y-90835722D01*
X181305145Y-90807261D01*
X181227824Y-90734053D01*
X181146391Y-90510317D01*
X181158565Y-90404536D01*
X181187025Y-90343502D01*
X181260233Y-90266181D01*
X181439222Y-90201034D01*
X181545003Y-90213208D01*
X181606037Y-90241669D01*
X181683358Y-90314877D01*
X244419089Y-95884517D02*
X244301134Y-95978124D01*
X244077398Y-96059557D01*
X243971617Y-96047383D01*
X243910583Y-96018923D01*
X243833262Y-95945715D01*
X243800689Y-95856220D01*
X243812863Y-95750439D01*
X243841323Y-95689405D01*
X243914531Y-95612085D01*
X244077234Y-95502191D01*
X244150441Y-95424870D01*
X244178902Y-95363836D01*
X244191076Y-95258055D01*
X244158503Y-95168560D01*
X244081182Y-95095353D01*
X244020148Y-95066892D01*
X243914367Y-95054718D01*
X243690631Y-95136151D01*
X243572675Y-95229759D01*
X243243158Y-95299018D02*
X243361442Y-96320144D01*
X242938152Y-95714082D01*
X243003464Y-96450438D01*
X242437707Y-95592178D01*
X242169223Y-95689898D02*
X241587509Y-95901625D01*
X242031033Y-96145596D01*
X241896791Y-96194456D01*
X241823584Y-96271777D01*
X241795123Y-96332811D01*
X241782949Y-96438592D01*
X241864382Y-96662329D01*
X241941703Y-96735536D01*
X242002737Y-96763997D01*
X242108518Y-96776171D01*
X242377002Y-96678451D01*
X242450210Y-96601130D01*
X242478670Y-96540096D01*
X240737311Y-96211072D02*
X241184784Y-96048205D01*
X241392398Y-96479391D01*
X241331364Y-96450931D01*
X241225582Y-96438757D01*
X241001846Y-96520190D01*
X240928638Y-96597511D01*
X240900178Y-96658545D01*
X240888004Y-96764326D01*
X240969437Y-96988062D01*
X241046758Y-97061270D01*
X241107792Y-97089731D01*
X241213573Y-97101904D01*
X241437309Y-97020471D01*
X241510517Y-96943150D01*
X241538978Y-96882117D01*
G36*
X157404101Y-117547973D02*
G01*
X157401622Y-117583300D01*
X157396057Y-117610780D01*
X157386188Y-117636787D01*
X157370798Y-117667695D01*
X157325421Y-117736823D01*
X157260516Y-117800559D01*
X157183136Y-117847811D01*
X157095599Y-117876816D01*
X157037457Y-117884091D01*
X156952980Y-117877952D01*
X156872113Y-117853506D01*
X156797971Y-117812610D01*
X156733670Y-117757117D01*
X156682324Y-117688882D01*
X156647051Y-117609761D01*
X156629478Y-117531556D01*
X156629093Y-117498190D01*
X156811055Y-117498190D01*
X156818244Y-117544987D01*
X156826318Y-117565832D01*
X156853199Y-117610190D01*
X156888476Y-117650033D01*
X156925494Y-117677158D01*
X156983585Y-117696355D01*
X157043778Y-117697388D01*
X157100731Y-117681414D01*
X157151008Y-117650559D01*
X157191175Y-117606956D01*
X157217794Y-117552732D01*
X157227431Y-117490017D01*
X157227142Y-117478826D01*
X157214388Y-117416679D01*
X157185118Y-117363088D01*
X157142614Y-117320640D01*
X157090160Y-117291920D01*
X157031038Y-117279516D01*
X156968530Y-117286013D01*
X156952624Y-117291274D01*
X156904771Y-117318545D01*
X156862051Y-117358311D01*
X156829755Y-117404897D01*
X156813173Y-117452629D01*
X156811055Y-117498190D01*
X156629093Y-117498190D01*
X156628585Y-117454176D01*
X156645597Y-117374405D01*
X156647187Y-117369379D01*
X156680620Y-117290493D01*
X156726760Y-117225980D01*
X156788302Y-117172852D01*
X156867944Y-117128120D01*
X156924748Y-117108534D01*
X157004698Y-117097755D01*
X157087255Y-117102753D01*
X157165614Y-117123632D01*
X157209882Y-117145272D01*
X157274225Y-117191780D01*
X157330660Y-117250092D01*
X157372968Y-117314486D01*
X157387445Y-117344857D01*
X157396733Y-117371269D01*
X157401937Y-117400010D01*
X157404213Y-117437465D01*
X157404715Y-117490017D01*
X157404710Y-117498426D01*
X157404101Y-117547973D01*
G37*
G36*
X157388346Y-114777787D02*
G01*
X157398057Y-114791853D01*
X157409648Y-114821917D01*
X157424290Y-114870516D01*
X157432975Y-114902221D01*
X157464660Y-115043951D01*
X157480547Y-115171180D01*
X157480605Y-115283994D01*
X157464804Y-115382480D01*
X157433114Y-115466725D01*
X157385503Y-115536816D01*
X157321942Y-115592840D01*
X157242400Y-115634883D01*
X157146847Y-115663032D01*
X157082702Y-115671278D01*
X157002142Y-115672605D01*
X156919795Y-115666225D01*
X156845070Y-115652469D01*
X156783185Y-115632704D01*
X156701684Y-115590590D01*
X156636177Y-115534139D01*
X156586669Y-115463366D01*
X156553165Y-115378288D01*
X156535671Y-115278919D01*
X156534192Y-115165274D01*
X156548733Y-115037369D01*
X156579300Y-114895220D01*
X156587832Y-114862608D01*
X156598695Y-114822330D01*
X156606902Y-114793406D01*
X156611138Y-114780574D01*
X156614982Y-114779578D01*
X156634655Y-114781920D01*
X156665468Y-114788404D01*
X156701351Y-114797450D01*
X156736230Y-114807478D01*
X156764034Y-114816908D01*
X156778692Y-114824162D01*
X156778895Y-114824410D01*
X156779019Y-114838284D01*
X156774272Y-114868347D01*
X156765445Y-114910355D01*
X156753331Y-114960068D01*
X156739479Y-115019213D01*
X156723317Y-115117087D01*
X156717352Y-115205855D01*
X156721722Y-115282325D01*
X156736568Y-115343302D01*
X156764345Y-115394388D01*
X156811179Y-115439925D01*
X156873615Y-115470950D01*
X156951424Y-115487355D01*
X157044373Y-115489030D01*
X157086953Y-115485018D01*
X157158385Y-115468507D01*
X157214964Y-115439869D01*
X157257002Y-115398358D01*
X157284810Y-115343228D01*
X157298698Y-115273731D01*
X157298979Y-115189121D01*
X157285962Y-115088652D01*
X157259960Y-114971576D01*
X157259935Y-114971481D01*
X157247313Y-114921489D01*
X157236978Y-114878581D01*
X157229996Y-114847321D01*
X157227431Y-114832274D01*
X157236679Y-114823260D01*
X157261520Y-114811868D01*
X157296491Y-114800728D01*
X157331457Y-114791190D01*
X157362984Y-114782143D01*
X157380830Y-114776463D01*
X157388346Y-114777787D01*
G37*
G36*
X159085741Y-117288557D02*
G01*
X159085629Y-117318900D01*
X159085357Y-117369555D01*
X159084937Y-117437776D01*
X159084378Y-117522263D01*
X159083692Y-117621713D01*
X159082889Y-117734824D01*
X159081979Y-117860295D01*
X159080972Y-117996824D01*
X159079879Y-118143109D01*
X159078711Y-118297847D01*
X159077476Y-118459738D01*
X159076186Y-118627480D01*
X159074851Y-118799770D01*
X159073482Y-118975306D01*
X159072088Y-119152788D01*
X159070680Y-119330913D01*
X159069269Y-119508378D01*
X159067864Y-119683883D01*
X159066476Y-119856126D01*
X159065115Y-120023804D01*
X159063792Y-120185616D01*
X159062517Y-120340259D01*
X159061301Y-120486433D01*
X159060152Y-120622835D01*
X159059083Y-120748164D01*
X159058103Y-120861117D01*
X159057223Y-120960392D01*
X159056452Y-121044689D01*
X159055802Y-121112704D01*
X159055282Y-121163137D01*
X159054903Y-121194685D01*
X159054675Y-121206046D01*
X159044784Y-121206581D01*
X159019540Y-121205583D01*
X158985008Y-121203489D01*
X158947249Y-121200740D01*
X158912329Y-121197778D01*
X158886310Y-121195045D01*
X158875257Y-121192982D01*
X158875245Y-121192898D01*
X158875185Y-121180481D01*
X158875292Y-121147775D01*
X158875557Y-121095890D01*
X158875972Y-121025935D01*
X158876530Y-120939018D01*
X158877222Y-120836250D01*
X158878041Y-120718739D01*
X158878978Y-120587595D01*
X158880026Y-120443928D01*
X158881177Y-120288846D01*
X158882423Y-120123460D01*
X158883755Y-119948877D01*
X158885167Y-119766209D01*
X158886649Y-119576563D01*
X158888195Y-119381049D01*
X158889503Y-119215611D01*
X158891052Y-119017380D01*
X158892551Y-118823147D01*
X158893989Y-118634258D01*
X158895357Y-118452057D01*
X158896646Y-118277891D01*
X158897845Y-118113105D01*
X158898946Y-117959043D01*
X158899938Y-117817053D01*
X158900813Y-117688478D01*
X158901560Y-117574664D01*
X158902170Y-117476957D01*
X158902633Y-117396702D01*
X158902940Y-117335244D01*
X158903081Y-117293930D01*
X158903573Y-117017259D01*
X159086230Y-117017259D01*
X159085741Y-117288557D01*
G37*
G36*
X159924587Y-116036704D02*
G01*
X159923412Y-116043803D01*
X159891503Y-116171924D01*
X159841475Y-116292129D01*
X159774950Y-116402440D01*
X159693550Y-116500877D01*
X159598899Y-116585464D01*
X159492619Y-116654221D01*
X159376331Y-116705171D01*
X159333168Y-116719134D01*
X159279961Y-116733398D01*
X159225412Y-116744011D01*
X159165501Y-116751446D01*
X159096205Y-116756174D01*
X159013503Y-116758665D01*
X158913373Y-116759391D01*
X158677939Y-116759391D01*
X158677616Y-117003828D01*
X158677580Y-117019232D01*
X158677289Y-117075788D01*
X158676734Y-117149645D01*
X158675931Y-117239550D01*
X158674897Y-117344252D01*
X158673650Y-117462501D01*
X158672206Y-117593044D01*
X158670581Y-117734632D01*
X158668794Y-117886011D01*
X158666860Y-118045932D01*
X158664797Y-118213144D01*
X158662622Y-118386394D01*
X158660351Y-118564432D01*
X158658001Y-118746006D01*
X158655590Y-118929866D01*
X158653134Y-119114760D01*
X158650650Y-119299437D01*
X158648154Y-119482646D01*
X158645665Y-119663135D01*
X158643199Y-119839654D01*
X158640772Y-120010951D01*
X158638402Y-120175775D01*
X158636105Y-120332874D01*
X158633899Y-120480998D01*
X158631800Y-120618896D01*
X158629825Y-120745315D01*
X158627991Y-120859006D01*
X158626315Y-120958716D01*
X158624814Y-121043195D01*
X158623504Y-121111191D01*
X158622403Y-121161453D01*
X158621528Y-121192731D01*
X158620895Y-121203772D01*
X158614639Y-121204677D01*
X158589513Y-121205346D01*
X158548030Y-121205320D01*
X158493191Y-121204628D01*
X158427998Y-121203296D01*
X158355450Y-121201352D01*
X158095334Y-121193603D01*
X158101890Y-120961543D01*
X158102272Y-120947344D01*
X158103589Y-120890215D01*
X158105048Y-120815808D01*
X158106635Y-120725374D01*
X158108338Y-120620163D01*
X158110141Y-120501427D01*
X158112033Y-120370414D01*
X158113998Y-120228377D01*
X158116024Y-120076565D01*
X158118098Y-119916229D01*
X158120204Y-119748619D01*
X158122331Y-119574986D01*
X158124464Y-119396580D01*
X158126590Y-119214652D01*
X158128695Y-119030453D01*
X158130766Y-118845231D01*
X158132789Y-118660239D01*
X158134750Y-118476727D01*
X158136637Y-118295945D01*
X158138434Y-118119143D01*
X158140130Y-117947572D01*
X158141710Y-117782483D01*
X158143160Y-117625126D01*
X158144468Y-117476751D01*
X158145619Y-117338610D01*
X158146600Y-117211951D01*
X158147397Y-117098027D01*
X158147998Y-116998087D01*
X158148387Y-116913382D01*
X158148553Y-116845162D01*
X158148480Y-116794677D01*
X158148156Y-116763179D01*
X158147567Y-116751918D01*
X158145661Y-116751184D01*
X158126523Y-116748909D01*
X158089152Y-116746566D01*
X158035991Y-116744201D01*
X157969483Y-116741861D01*
X157892071Y-116739592D01*
X157806195Y-116737440D01*
X157714300Y-116735453D01*
X157618828Y-116733677D01*
X157522220Y-116732158D01*
X157426920Y-116730944D01*
X157335370Y-116730081D01*
X157250013Y-116729616D01*
X157173290Y-116729594D01*
X157107645Y-116730064D01*
X157055519Y-116731071D01*
X157010150Y-116732719D01*
X156836393Y-116746073D01*
X156677162Y-116770473D01*
X156529038Y-116806410D01*
X156512464Y-116811352D01*
X156367674Y-116865256D01*
X156238718Y-116933477D01*
X156125963Y-117015435D01*
X156029775Y-117110552D01*
X155950520Y-117218249D01*
X155888565Y-117337947D01*
X155844276Y-117469067D01*
X155818019Y-117611030D01*
X155810161Y-117763257D01*
X155821068Y-117925169D01*
X155841442Y-118045445D01*
X155881560Y-118183931D01*
X155937996Y-118308465D01*
X156010922Y-118419257D01*
X156100508Y-118516520D01*
X156206924Y-118600464D01*
X156330341Y-118671300D01*
X156470930Y-118729240D01*
X156561914Y-118758476D01*
X156668924Y-118786644D01*
X156779063Y-118808382D01*
X156896849Y-118824415D01*
X157026799Y-118835471D01*
X157173430Y-118842276D01*
X157393414Y-118849196D01*
X157493486Y-119066995D01*
X157593559Y-119284794D01*
X156924306Y-120037735D01*
X156900593Y-120064418D01*
X156805042Y-120172052D01*
X156713897Y-120274899D01*
X156628147Y-120371834D01*
X156548781Y-120461731D01*
X156476788Y-120543465D01*
X156413157Y-120615909D01*
X156358877Y-120677939D01*
X156314938Y-120728428D01*
X156282328Y-120766251D01*
X156262037Y-120790282D01*
X156255054Y-120799395D01*
X156255174Y-120799792D01*
X156264696Y-120810588D01*
X156287984Y-120833520D01*
X156322998Y-120866675D01*
X156367699Y-120908142D01*
X156420047Y-120956009D01*
X156478002Y-121008364D01*
X156485381Y-121014997D01*
X156542753Y-121066891D01*
X156594266Y-121114048D01*
X156637882Y-121154559D01*
X156671560Y-121186514D01*
X156693263Y-121208004D01*
X156700951Y-121217119D01*
X156700469Y-121218745D01*
X156690468Y-121233500D01*
X156670181Y-121258424D01*
X156643116Y-121289145D01*
X156624769Y-121309114D01*
X156602027Y-121332105D01*
X156587156Y-121342631D01*
X156576204Y-121343057D01*
X156565218Y-121335747D01*
X156553743Y-121325719D01*
X156528002Y-121302892D01*
X156490772Y-121269721D01*
X156444407Y-121228304D01*
X156391258Y-121180740D01*
X156333677Y-121129128D01*
X156122198Y-120939427D01*
X155652412Y-121468381D01*
X155621317Y-121503392D01*
X155541415Y-121593349D01*
X155465762Y-121678517D01*
X155395608Y-121757484D01*
X155332206Y-121828843D01*
X155276811Y-121891182D01*
X155230673Y-121943093D01*
X155195046Y-121983164D01*
X155171182Y-122009988D01*
X155160335Y-122022153D01*
X155150613Y-122033564D01*
X155148929Y-122039179D01*
X155158613Y-122038242D01*
X155182592Y-122030446D01*
X155223791Y-122015482D01*
X155252442Y-122004965D01*
X155423765Y-121942335D01*
X155575086Y-121887485D01*
X155706426Y-121840409D01*
X155817808Y-121801098D01*
X155909253Y-121769547D01*
X155980783Y-121745745D01*
X156032420Y-121729687D01*
X156064186Y-121721365D01*
X156076102Y-121720771D01*
X156077786Y-121723897D01*
X156086785Y-121745273D01*
X156099379Y-121779227D01*
X156114015Y-121821072D01*
X156129141Y-121866122D01*
X156143207Y-121909693D01*
X156154658Y-121947099D01*
X156161945Y-121973654D01*
X156163514Y-121984672D01*
X156158915Y-121986625D01*
X156136085Y-121995318D01*
X156095483Y-122010414D01*
X156038600Y-122031368D01*
X155966922Y-122057638D01*
X155881939Y-122088681D01*
X155785139Y-122123952D01*
X155678011Y-122162909D01*
X155562042Y-122205007D01*
X155438721Y-122249704D01*
X155309538Y-122296456D01*
X155226061Y-122326621D01*
X155100422Y-122371932D01*
X154981558Y-122414693D01*
X154870961Y-122454372D01*
X154770122Y-122490438D01*
X154680533Y-122522360D01*
X154603685Y-122549607D01*
X154541071Y-122571648D01*
X154494182Y-122587952D01*
X154464509Y-122597987D01*
X154453545Y-122601223D01*
X154439996Y-122592511D01*
X154415992Y-122572956D01*
X154385380Y-122546123D01*
X154351974Y-122515563D01*
X154319588Y-122484830D01*
X154292033Y-122457476D01*
X154273123Y-122437053D01*
X154266671Y-122427115D01*
X154267716Y-122422985D01*
X154273288Y-122400159D01*
X154283284Y-122358869D01*
X154297330Y-122300679D01*
X154315049Y-122227153D01*
X154336065Y-122139852D01*
X154360002Y-122040339D01*
X154386483Y-121930179D01*
X154415132Y-121810933D01*
X154445573Y-121684165D01*
X154477430Y-121551438D01*
X154495584Y-121475819D01*
X154526656Y-121346537D01*
X154556096Y-121224228D01*
X154583530Y-121110440D01*
X154608584Y-121006719D01*
X154630882Y-120914614D01*
X154650050Y-120835671D01*
X154665713Y-120771437D01*
X154677495Y-120723459D01*
X154685023Y-120693286D01*
X154687922Y-120682463D01*
X154697634Y-120683429D01*
X154723673Y-120688615D01*
X154761358Y-120696969D01*
X154806028Y-120707367D01*
X154853024Y-120718686D01*
X154897687Y-120729804D01*
X154935358Y-120739597D01*
X154961377Y-120746942D01*
X154971086Y-120750716D01*
X154971003Y-120751169D01*
X154967705Y-120765386D01*
X154959997Y-120797793D01*
X154948428Y-120846112D01*
X154933544Y-120908062D01*
X154915893Y-120981363D01*
X154896024Y-121063734D01*
X154874482Y-121152897D01*
X154858315Y-121219784D01*
X154831903Y-121329165D01*
X154809982Y-121420154D01*
X154792170Y-121494372D01*
X154778087Y-121553439D01*
X154767353Y-121598974D01*
X154759587Y-121632597D01*
X154754409Y-121655929D01*
X154751439Y-121670588D01*
X154750295Y-121678196D01*
X154750597Y-121680372D01*
X154750762Y-121680291D01*
X154759891Y-121670949D01*
X154781641Y-121647223D01*
X154814597Y-121610713D01*
X154857344Y-121563022D01*
X154908466Y-121505750D01*
X154966547Y-121440499D01*
X155030173Y-121368870D01*
X155097927Y-121292466D01*
X155168395Y-121212887D01*
X155240162Y-121131734D01*
X155311810Y-121050610D01*
X155381926Y-120971116D01*
X155449094Y-120894853D01*
X155511899Y-120823422D01*
X155568924Y-120758425D01*
X155618755Y-120701464D01*
X155659977Y-120654140D01*
X155691173Y-120618054D01*
X155710929Y-120594809D01*
X155717829Y-120586004D01*
X155710484Y-120577252D01*
X155689152Y-120556062D01*
X155655914Y-120524440D01*
X155612856Y-120484346D01*
X155562065Y-120437740D01*
X155505625Y-120386582D01*
X155450262Y-120336442D01*
X155399384Y-120289873D01*
X155356206Y-120249842D01*
X155322809Y-120218295D01*
X155301274Y-120197177D01*
X155293682Y-120188433D01*
X155294194Y-120187003D01*
X155304198Y-120172883D01*
X155324328Y-120148323D01*
X155351103Y-120117618D01*
X155408263Y-120053722D01*
X155435805Y-120074640D01*
X155444177Y-120081469D01*
X155468644Y-120102502D01*
X155504779Y-120134205D01*
X155549996Y-120174291D01*
X155601707Y-120220473D01*
X155657325Y-120270463D01*
X155851303Y-120445369D01*
X156335468Y-119900921D01*
X156382269Y-119848246D01*
X156461528Y-119758811D01*
X156535669Y-119674868D01*
X156603544Y-119597732D01*
X156664002Y-119528722D01*
X156715894Y-119469155D01*
X156758071Y-119420347D01*
X156789383Y-119383616D01*
X156808681Y-119360279D01*
X156814814Y-119351653D01*
X156804581Y-119348455D01*
X156777096Y-119342480D01*
X156736870Y-119334769D01*
X156688319Y-119326213D01*
X156658260Y-119320951D01*
X156454542Y-119275670D01*
X156266558Y-119216346D01*
X156094464Y-119143092D01*
X155938421Y-119056020D01*
X155798585Y-118955240D01*
X155675114Y-118840866D01*
X155568168Y-118713009D01*
X155477903Y-118571781D01*
X155404478Y-118417294D01*
X155376810Y-118341730D01*
X155336122Y-118195565D01*
X155306968Y-118039389D01*
X155289820Y-117878483D01*
X155285152Y-117718125D01*
X155293436Y-117563597D01*
X155315145Y-117420178D01*
X155346331Y-117294574D01*
X155405101Y-117126580D01*
X155480463Y-116972115D01*
X155572257Y-116831301D01*
X155680324Y-116704263D01*
X155804504Y-116591125D01*
X155944636Y-116492010D01*
X156100561Y-116407041D01*
X156272119Y-116336343D01*
X156459150Y-116280038D01*
X156661494Y-116238251D01*
X156747328Y-116227538D01*
X158683311Y-116227538D01*
X158903573Y-116229615D01*
X158947660Y-116229946D01*
X159022687Y-116229756D01*
X159081611Y-116227965D01*
X159128028Y-116224033D01*
X159165534Y-116217422D01*
X159197724Y-116207593D01*
X159228196Y-116194006D01*
X159260543Y-116176124D01*
X159287551Y-116157847D01*
X159338019Y-116106536D01*
X159375085Y-116043517D01*
X159398477Y-115972513D01*
X159407922Y-115897247D01*
X159403146Y-115821442D01*
X159383875Y-115748823D01*
X159349837Y-115683111D01*
X159300759Y-115628030D01*
X159259289Y-115599456D01*
X159194433Y-115572432D01*
X159125512Y-115559888D01*
X159060039Y-115563825D01*
X159037506Y-115569175D01*
X158950728Y-115602806D01*
X158874525Y-115654027D01*
X158809823Y-115721453D01*
X158757549Y-115803695D01*
X158718631Y-115899369D01*
X158693994Y-116007088D01*
X158684566Y-116125465D01*
X158683311Y-116227538D01*
X156747328Y-116227538D01*
X156878991Y-116211105D01*
X156892705Y-116210120D01*
X156937520Y-116208206D01*
X156999331Y-116206708D01*
X157075389Y-116205609D01*
X157162944Y-116204896D01*
X157259249Y-116204551D01*
X157361553Y-116204559D01*
X157467109Y-116204906D01*
X157573167Y-116205575D01*
X157676979Y-116206551D01*
X157775795Y-116207819D01*
X157866868Y-116209362D01*
X157947448Y-116211166D01*
X158014786Y-116213215D01*
X158066134Y-116215493D01*
X158098742Y-116217985D01*
X158148099Y-116223720D01*
X158154980Y-116096695D01*
X158166574Y-115971937D01*
X158195199Y-115821878D01*
X158241159Y-115670964D01*
X158283421Y-115569036D01*
X158335871Y-115475457D01*
X158401365Y-115386928D01*
X158483635Y-115297709D01*
X158511985Y-115270350D01*
X158589964Y-115204777D01*
X158671986Y-115151192D01*
X158763846Y-115106135D01*
X158871340Y-115066144D01*
X158885722Y-115061468D01*
X158924152Y-115050144D01*
X158958686Y-115042824D01*
X158995669Y-115038705D01*
X159041442Y-115036982D01*
X159102346Y-115036850D01*
X159209358Y-115041759D01*
X159317153Y-115058577D01*
X159416234Y-115088983D01*
X159511957Y-115134670D01*
X159609674Y-115197332D01*
X159670640Y-115247647D01*
X159744606Y-115328301D01*
X159810018Y-115422185D01*
X159863816Y-115524767D01*
X159902936Y-115631512D01*
X159917678Y-115698625D01*
X159928338Y-115783116D01*
X159933329Y-115872984D01*
X159933021Y-115897247D01*
X159932222Y-115960191D01*
X159924587Y-116036704D01*
G37*
%LPC*%
D12*
X140659251Y-69818386D03*
X141632127Y-70634726D03*
X142605003Y-71451067D03*
X139686374Y-69002046D03*
X143577880Y-72267407D03*
X129388220Y-64512300D03*
X127442467Y-62879620D03*
X126469591Y-62063279D03*
X125496714Y-61246939D03*
X128415343Y-63695960D03*
D13*
X148260000Y-156700000D03*
X145676694Y-45483841D03*
X157726694Y-54933841D03*
X75620000Y-58500000D03*
D12*
X140515343Y-73895960D03*
X137596714Y-71446939D03*
X138569591Y-72263279D03*
X141488220Y-74712300D03*
X139542467Y-73079620D03*
D13*
X135900000Y-74400000D03*
X220900000Y-58500000D03*
X121476694Y-46683841D03*
X123850000Y-64950000D03*
X160100000Y-73200000D03*
X148260000Y-111880000D03*
X225000000Y-109400000D03*
D12*
X129515764Y-60474541D03*
X130488640Y-61290882D03*
X127570011Y-58841861D03*
X131461517Y-62107222D03*
X128542888Y-59658201D03*
D13*
X71520000Y-109400000D03*
M02*
