M48
; DRILL file {KiCad (6.0.0)} date Mon May 15 23:43:20 2023
; FORMAT={-:-/ absolute / metric / decimal}
; #@! TF.CreationDate,2023-05-15T23:43:20+03:00
; #@! TF.GenerationSoftware,Kicad,Pcbnew,(6.0.0)
; #@! TF.FileFunction,Plated,1,2,PTH
FMAT,2
METRIC
; #@! TA.AperFunction,Plated,PTH,ViaDrill
T1C0.300
; #@! TA.AperFunction,Plated,PTH,ViaDrill
T2C0.500
; #@! TA.AperFunction,Plated,PTH,ComponentDrill
T3C0.700
; #@! TA.AperFunction,Plated,PTH,ComponentDrill
T4C0.800
; #@! TA.AperFunction,Plated,PTH,ComponentDrill
T5C1.000
; #@! TA.AperFunction,Plated,PTH,ComponentDrill
T6C1.092
; #@! TA.AperFunction,Plated,PTH,ComponentDrill
T7C1.200
; #@! TA.AperFunction,Plated,PTH,ComponentDrill
T8C1.270
; #@! TA.AperFunction,Plated,PTH,ComponentDrill
T9C1.499
%
G90
G05
T1
X31.327Y-85.227
X37.2Y-69.2
X43.0Y-53.25
X45.9Y-88.6
X48.345Y-91.405
X52.0Y-71.8
X54.183Y-75.317
X58.0Y-103.5
X60.0Y-59.25
X63.6Y-87.8
X68.519Y-88.481
X74.419Y-72.419
X75.0Y-60.4
X75.0Y-61.3
X75.339Y-113.339
X78.1Y-100.7
X80.25Y-56.5
X88.0Y-88.0
X92.9Y-59.5
X93.75Y-72.0
X94.3Y-113.8
X96.0Y-118.0
X99.788Y-55.962
X101.6Y-70.9
X102.5Y-101.25
X106.9Y-132.0
X108.25Y-85.25
X111.75Y-113.25
X114.25Y-69.25
X114.5Y-128.0
X115.282Y-60.588
X115.3Y-58.8
X115.3Y-59.7
X117.75Y-97.25
X118.025Y-110.775
X123.0Y-129.5
X123.5Y-81.25
X123.752Y-94.752
X125.3Y-68.7
X127.75Y-123.0
X128.8Y-54.4
X129.759Y-78.741
X130.071Y-140.25
X132.0Y-58.7
X133.5Y-107.0
X135.4Y-114.9
X139.25Y-91.0
X143.8Y-67.2
X144.74Y-121.02
X144.75Y-126.0
X144.75Y-140.75
X144.8Y-113.7
X148.5Y-77.2
X148.5Y-81.0
X150.25Y-149.25
X151.0Y-93.25
X154.25Y-97.0
X155.75Y-115.25
X156.75Y-115.25
X157.0Y-109.25
X158.9Y-122.4
X160.2Y-131.4
X160.25Y-113.0
X161.4Y-69.3
X162.2Y-76.0
X164.25Y-71.5
X165.75Y-135.5
X170.0Y-87.5
X172.4Y-67.7
X175.75Y-103.5
X178.4Y-64.4
X178.75Y-58.25
X183.0Y-132.7
X183.25Y-124.5
X184.5Y-74.25
X188.778Y-64.65
X189.35Y-65.25
X189.95Y-65.928
X190.25Y-90.25
X191.3Y-69.8
X196.0Y-114.5
X198.0Y-58.75
X202.0Y-115.0
X203.75Y-74.75
X203.9Y-85.4
X209.5Y-90.75
X211.1Y-108.1
X213.5Y-63.75
X218.25Y-61.75
X219.5Y-79.5
X224.0Y-77.75
X225.25Y-95.75
X228.0Y-101.9
X229.75Y-93.75
X232.0Y-67.4
X235.25Y-55.5
X237.6Y-83.7
X241.0Y-71.5
X243.4Y-88.6
X247.0Y-87.5
X250.4Y-66.2
T2
X127.6Y-71.2
X146.1Y-65.5
T3
X133.488Y-137.806
X134.296Y-125.9
X134.296Y-133.52
X135.102Y-136.197
X138.876Y-143.195
X140.49Y-141.585
X148.797Y-141.498
X150.442Y-143.116
X154.185Y-136.11
X155.004Y-125.88
X155.004Y-133.5
X155.83Y-137.728
T4
X150.6Y-74.6
X151.886Y-73.068
T5
X41.066Y-101.665
X43.734Y-94.335
X46.779Y-85.852
X49.447Y-78.523
X52.694Y-69.518
X55.362Y-62.189
X58.066Y-107.765
X60.734Y-100.435
X63.866Y-91.765
X66.534Y-84.435
X69.632Y-75.734
X72.3Y-68.405
X78.229Y-104.839
X80.897Y-97.509
X82.681Y-110.028
X83.281Y-107.828
X83.881Y-105.628
X84.061Y-88.808
X84.481Y-103.491
X86.729Y-81.479
X89.878Y-72.805
X90.215Y-112.047
X90.815Y-109.847
X91.415Y-107.647
X92.015Y-105.509
X92.546Y-65.476
X97.55Y-104.379
X100.218Y-97.05
X103.389Y-88.339
X106.057Y-81.01
X109.212Y-72.307
X111.88Y-64.977
X111.984Y-117.493
X114.652Y-110.163
X117.798Y-101.51
X120.466Y-94.18
X123.606Y-85.505
X126.273Y-78.175
X127.651Y-127.12
X130.319Y-119.79
X133.472Y-111.097
X136.139Y-103.767
X139.3Y-95.086
X140.85Y-116.0
X141.968Y-87.756
X142.16Y-122.5
X142.16Y-137.0
X144.66Y-137.0
X147.16Y-122.5
X147.16Y-137.0
X148.65Y-116.0
X164.285Y-81.658
X166.953Y-88.987
X170.114Y-97.669
X172.782Y-104.998
X175.939Y-113.695
X178.606Y-121.025
X179.98Y-72.077
X182.647Y-79.406
X185.787Y-88.081
X188.455Y-95.411
X191.601Y-104.065
X194.269Y-111.394
X194.374Y-58.879
X197.041Y-66.208
X199.433Y-105.209
X200.133Y-107.409
X200.196Y-74.911
X200.733Y-109.609
X201.333Y-111.809
X202.864Y-82.241
X206.03Y-90.952
X206.967Y-103.191
X207.667Y-105.391
X208.267Y-107.591
X208.698Y-98.281
X208.867Y-109.791
X213.707Y-59.377
X216.375Y-66.707
X219.524Y-75.38
X222.192Y-82.71
X225.356Y-91.411
X228.024Y-98.74
X233.066Y-63.035
X235.053Y-62.323
X235.734Y-70.365
X237.721Y-69.652
X238.853Y-79.123
X240.859Y-78.372
X241.521Y-86.452
X243.527Y-85.702
X244.666Y-95.135
X246.666Y-94.335
X247.334Y-102.465
X249.334Y-101.665
T6
X123.373Y-58.174
X125.319Y-59.807
X127.265Y-61.439
X129.21Y-63.072
X131.156Y-64.705
X133.102Y-66.337
X133.169Y-46.499
X135.048Y-67.97
X135.115Y-48.132
X136.993Y-69.603
X137.061Y-49.765
X138.939Y-71.235
X139.007Y-51.397
X140.885Y-72.868
X140.952Y-53.03
X142.831Y-74.501
X142.898Y-54.663
X144.776Y-76.133
X144.844Y-56.295
X146.79Y-57.928
X148.735Y-59.561
X150.681Y-61.193
X152.627Y-62.826
X154.573Y-64.459
T7
X144.66Y-123.6
X149.66Y-125.7
T8
X29.083Y-93.848
X33.063Y-97.532
X34.897Y-77.874
X38.878Y-81.557
X40.712Y-61.899
X44.692Y-65.582
X45.998Y-100.004
X49.978Y-103.688
X51.812Y-84.03
X55.793Y-87.713
X57.627Y-68.055
X61.607Y-71.738
X66.097Y-97.413
X70.077Y-101.096
X71.911Y-81.438
X74.183Y-122.31
X75.891Y-85.121
X77.725Y-65.463
X78.469Y-125.632
X81.706Y-69.147
X85.537Y-96.628
X89.517Y-100.312
X91.351Y-80.653
X92.32Y-127.996
X95.331Y-84.337
X95.964Y-132.013
X97.166Y-64.679
X99.925Y-109.725
X101.146Y-68.362
X103.906Y-113.409
X105.74Y-93.75
X109.209Y-136.754
X109.72Y-97.434
X111.554Y-77.776
X112.1Y-141.342
X115.534Y-81.459
X115.579Y-119.347
X119.559Y-123.031
X121.393Y-103.372
X124.34Y-148.307
X125.373Y-107.056
X126.391Y-153.328
X127.207Y-87.398
X131.187Y-91.081
X152.716Y-90.818
X157.908Y-155.379
X158.133Y-91.081
X158.53Y-106.793
X162.929Y-153.328
X163.947Y-107.056
X164.345Y-122.768
X168.369Y-81.196
X169.762Y-123.031
X171.913Y-142.49
X173.786Y-81.459
X174.184Y-97.171
X177.213Y-141.343
X179.6Y-97.434
X179.998Y-113.146
X182.757Y-68.098
X185.415Y-113.409
X187.936Y-132.223
X188.174Y-68.362
X188.571Y-84.073
X193.355Y-132.013
X193.988Y-84.336
X194.386Y-100.048
X199.803Y-100.311
X202.198Y-68.884
X205.48Y-124.898
X207.615Y-69.147
X208.012Y-84.858
X210.853Y-125.633
X213.429Y-85.122
X213.827Y-100.833
X219.243Y-101.096
X222.297Y-71.475
X227.713Y-71.739
X228.111Y-87.45
X233.528Y-87.713
X233.925Y-103.425
X239.209Y-65.313
X239.342Y-103.688
X244.626Y-65.576
X245.023Y-81.288
X250.44Y-81.551
X250.838Y-97.262
X256.254Y-97.526
T9
X140.85Y-126.96
X147.2Y-124.42
T0
M30
