G04 #@! TF.GenerationSoftware,KiCad,Pcbnew,(6.0.0)*
G04 #@! TF.CreationDate,2023-05-15T23:43:16+03:00*
G04 #@! TF.ProjectId,choctopus44,63686f63-746f-4707-9573-34342e6b6963,2.0*
G04 #@! TF.SameCoordinates,Original*
G04 #@! TF.FileFunction,Profile,NP*
%FSLAX46Y46*%
G04 Gerber Fmt 4.6, Leading zero omitted, Abs format (unit mm)*
G04 Created by KiCad (PCBNEW (6.0.0)) date 2023-05-15 23:43:16*
%MOMM*%
%LPD*%
G01*
G04 APERTURE LIST*
%ADD10C,0.050000*%
G04 #@! TA.AperFunction,Profile*
%ADD11C,0.050000*%
G04 #@! TD*
G04 APERTURE END LIST*
D10*
X156939361Y-64354847D02*
X156996166Y-64399411D01*
X157053960Y-64439490D01*
X157112560Y-64475284D01*
X157171782Y-64506995D01*
X157231444Y-64534824D01*
X157291362Y-64558972D01*
X157351354Y-64579642D01*
X157411236Y-64597034D01*
X157470824Y-64611350D01*
X157529937Y-64622791D01*
X157588390Y-64631559D01*
X157646001Y-64637854D01*
X157702587Y-64641880D01*
X157757964Y-64643836D01*
X157811950Y-64643924D01*
X157864361Y-64642347D01*
X157915014Y-64639304D01*
X158010314Y-64629630D01*
X158096386Y-64616513D01*
X158171764Y-64601566D01*
X158234984Y-64586399D01*
X158284581Y-64572623D01*
X158337047Y-64555692D01*
X158339361Y-64554847D01*
D11*
X266640134Y-99738410D02*
X236320563Y-110824590D01*
X250392240Y-47680321D02*
X268207226Y-96372462D01*
X186000000Y-50700000D02*
X175800000Y-54400000D01*
X21112774Y-96372462D02*
X38927760Y-47680321D01*
X130362624Y-43387377D02*
X119680375Y-56068955D01*
D10*
X226200000Y-111000000D02*
X226521301Y-110899524D01*
X226829790Y-110821978D01*
X227126713Y-110765681D01*
X227413321Y-110728954D01*
X227690862Y-110710115D01*
X227960584Y-110707486D01*
X228223738Y-110719385D01*
X228481571Y-110744134D01*
X228735332Y-110780051D01*
X228986272Y-110825457D01*
X229235637Y-110878672D01*
X229484678Y-110938015D01*
X229734642Y-111001807D01*
X229986780Y-111068367D01*
X230242340Y-111136016D01*
X230502570Y-111203073D01*
X230768720Y-111267859D01*
X231042038Y-111328692D01*
X231323774Y-111383894D01*
X231615176Y-111431784D01*
X231917493Y-111470682D01*
X232231974Y-111498908D01*
X232559869Y-111514782D01*
X232902425Y-111516623D01*
X233260891Y-111502753D01*
X233636517Y-111471490D01*
X234030552Y-111421154D01*
X234444244Y-111350067D01*
X234878842Y-111256546D01*
X235335595Y-111138913D01*
X235815752Y-110995488D01*
X236320563Y-110824590D01*
D11*
X266640134Y-99738409D02*
G75*
G03*
X268207226Y-96372462I-899549J2466576D01*
G01*
X220700000Y-128600000D02*
G75*
G03*
X222795215Y-125099538I-642144J2761638D01*
G01*
X157300000Y-164199999D02*
G75*
G03*
X160599999Y-163499999I1163822J2641976D01*
G01*
X42293708Y-46113229D02*
X56000000Y-50700000D01*
X157300000Y-164200000D02*
G75*
G03*
X132020000Y-164200000I-12640000J-23132659D01*
G01*
X128720001Y-163499999D02*
G75*
G03*
X68620000Y-128600000I-80179424J-68876032D01*
G01*
X66524785Y-125099538D02*
X68965311Y-115518757D01*
X66524785Y-125099538D02*
G75*
G03*
X68620000Y-128600000I2737359J-738824D01*
G01*
X118641669Y-56304950D02*
X103320000Y-50700000D01*
X220354689Y-115518757D02*
X222795215Y-125099538D01*
D10*
X103320000Y-50700000D02*
X102214975Y-50367938D01*
X101043945Y-50100146D01*
X99811098Y-49892340D01*
X98520625Y-49740234D01*
X97176713Y-49639544D01*
X95783554Y-49585986D01*
X94345336Y-49575274D01*
X92866250Y-49603125D01*
X91350483Y-49665252D01*
X89802226Y-49757373D01*
X88225668Y-49875201D01*
X86625000Y-50014453D01*
X85004409Y-50170843D01*
X83368085Y-50340087D01*
X81720219Y-50517901D01*
X80065000Y-50700000D01*
X78406616Y-50882098D01*
X76749257Y-51059912D01*
X75097114Y-51229156D01*
X73454375Y-51385546D01*
X71825229Y-51524798D01*
X70213867Y-51642626D01*
X68624477Y-51734747D01*
X67061250Y-51796875D01*
X65528374Y-51824725D01*
X64030039Y-51814013D01*
X62570434Y-51760455D01*
X61153750Y-51659765D01*
X59784174Y-51507659D01*
X58465898Y-51299853D01*
X57203110Y-51032061D01*
X56000000Y-50700000D01*
X175800000Y-54400000D02*
X175382525Y-54601730D01*
X174991455Y-54812670D01*
X174625067Y-55032070D01*
X174281640Y-55259179D01*
X173959454Y-55493246D01*
X173656787Y-55733520D01*
X173371917Y-55979251D01*
X173103125Y-56229687D01*
X172848687Y-56484078D01*
X172606884Y-56741674D01*
X172375994Y-57001724D01*
X172154296Y-57263476D01*
X171940069Y-57526181D01*
X171731591Y-57789086D01*
X171527142Y-58051443D01*
X171325000Y-58312500D01*
X171123443Y-58571505D01*
X170920751Y-58827709D01*
X170715203Y-59080361D01*
X170505078Y-59328710D01*
X170288653Y-59572006D01*
X170064208Y-59809497D01*
X169830023Y-60040432D01*
X169584375Y-60264062D01*
X169325543Y-60479635D01*
X169051806Y-60686401D01*
X168761444Y-60883609D01*
X168452734Y-61070507D01*
X168123956Y-61246347D01*
X167773388Y-61410375D01*
X167399310Y-61561843D01*
X167000000Y-61700000D01*
D11*
X52999437Y-110824590D02*
X22679866Y-99738410D01*
X21112775Y-96372462D02*
G75*
G03*
X22679866Y-99738410I2466638J-899373D01*
G01*
X233320000Y-50700000D02*
X247026292Y-46113229D01*
X167000000Y-61700000D02*
X158339361Y-64554847D01*
D10*
X63120000Y-111000000D02*
X62798698Y-110899524D01*
X62490209Y-110821978D01*
X62193286Y-110765681D01*
X61906678Y-110728954D01*
X61629137Y-110710115D01*
X61359415Y-110707486D01*
X61096261Y-110719385D01*
X60838428Y-110744134D01*
X60584667Y-110780051D01*
X60333727Y-110825457D01*
X60084362Y-110878672D01*
X59835321Y-110938015D01*
X59585357Y-111001807D01*
X59333219Y-111068367D01*
X59077659Y-111136016D01*
X58817429Y-111203073D01*
X58551279Y-111267859D01*
X58277961Y-111328692D01*
X57996225Y-111383894D01*
X57704823Y-111431784D01*
X57402506Y-111470682D01*
X57088025Y-111498908D01*
X56760130Y-111514782D01*
X56417574Y-111516623D01*
X56059108Y-111502753D01*
X55683482Y-111471490D01*
X55289447Y-111421154D01*
X54875755Y-111350067D01*
X54441157Y-111256546D01*
X53984404Y-111138913D01*
X53504247Y-110995488D01*
X52999437Y-110824590D01*
X118641669Y-56304950D02*
X118728736Y-56329234D01*
X118812552Y-56347223D01*
X118893180Y-56359152D01*
X118970685Y-56365253D01*
X119045130Y-56365760D01*
X119116579Y-56360907D01*
X119185096Y-56350927D01*
X119250746Y-56336054D01*
X119313592Y-56316522D01*
X119373697Y-56292564D01*
X119431127Y-56264414D01*
X119485945Y-56232305D01*
X119538215Y-56196471D01*
X119588000Y-56157145D01*
X119635365Y-56114562D01*
X119680375Y-56068955D01*
D11*
X220700000Y-128600000D02*
G75*
G03*
X160599999Y-163499999I20079419J-103776023D01*
G01*
D10*
X186000000Y-50700000D02*
X187105024Y-50367938D01*
X188276054Y-50100146D01*
X189508901Y-49892340D01*
X190799375Y-49740234D01*
X192143286Y-49639544D01*
X193536445Y-49585986D01*
X194974663Y-49575274D01*
X196453750Y-49603125D01*
X197969516Y-49665252D01*
X199517773Y-49757373D01*
X201094331Y-49875201D01*
X202695000Y-50014453D01*
X204315590Y-50170843D01*
X205951914Y-50340087D01*
X207599780Y-50517901D01*
X209255000Y-50700000D01*
X210913383Y-50882098D01*
X212570742Y-51059912D01*
X214222885Y-51229156D01*
X215865625Y-51385546D01*
X217494770Y-51524798D01*
X219106132Y-51642626D01*
X220695522Y-51734747D01*
X222258750Y-51796875D01*
X223791625Y-51824725D01*
X225289960Y-51814013D01*
X226749565Y-51760455D01*
X228166250Y-51659765D01*
X229535825Y-51507659D01*
X230854101Y-51299853D01*
X232116889Y-51032061D01*
X233320000Y-50700000D01*
D11*
X221900000Y-112600000D02*
X226200000Y-111000000D01*
X250392239Y-47680321D02*
G75*
G03*
X247026292Y-46113229I-2466576J-899549D01*
G01*
D10*
X221900000Y-112600000D02*
X221797779Y-112638971D01*
X221697474Y-112680912D01*
X221599239Y-112725863D01*
X221503231Y-112773864D01*
X221409608Y-112824955D01*
X221318524Y-112879176D01*
X221230137Y-112936567D01*
X221144604Y-112997168D01*
X221062080Y-113061019D01*
X220982723Y-113128160D01*
X220906689Y-113198631D01*
X220834133Y-113272473D01*
X220765214Y-113349725D01*
X220700087Y-113430428D01*
X220638909Y-113514621D01*
X220581836Y-113602344D01*
X220529024Y-113693638D01*
X220480631Y-113788543D01*
X220436813Y-113887098D01*
X220397726Y-113989344D01*
X220363527Y-114095321D01*
X220334372Y-114205069D01*
X220310418Y-114318628D01*
X220291821Y-114436038D01*
X220278738Y-114557338D01*
X220271326Y-114682570D01*
X220269740Y-114811773D01*
X220274137Y-114944987D01*
X220284674Y-115082252D01*
X220301507Y-115223609D01*
X220324793Y-115369097D01*
X220354689Y-115518757D01*
D11*
X156939361Y-64354847D02*
X131750000Y-43250000D01*
X131750000Y-43250000D02*
G75*
G03*
X130362624Y-43387377I-624999J-762378D01*
G01*
D10*
X67420000Y-112600000D02*
X67522220Y-112638971D01*
X67622525Y-112680912D01*
X67720760Y-112725863D01*
X67816768Y-112773864D01*
X67910391Y-112824955D01*
X68001475Y-112879176D01*
X68089862Y-112936567D01*
X68175395Y-112997168D01*
X68257919Y-113061019D01*
X68337276Y-113128160D01*
X68413310Y-113198631D01*
X68485866Y-113272473D01*
X68554785Y-113349725D01*
X68619912Y-113430428D01*
X68681090Y-113514621D01*
X68738163Y-113602344D01*
X68790975Y-113693638D01*
X68839368Y-113788543D01*
X68883186Y-113887098D01*
X68922273Y-113989344D01*
X68956472Y-114095321D01*
X68985627Y-114205069D01*
X69009581Y-114318628D01*
X69028178Y-114436038D01*
X69041261Y-114557338D01*
X69048673Y-114682570D01*
X69050259Y-114811773D01*
X69045862Y-114944987D01*
X69035325Y-115082252D01*
X69018492Y-115223609D01*
X68995206Y-115369097D01*
X68965311Y-115518757D01*
D11*
X42293708Y-46113230D02*
G75*
G03*
X38927760Y-47680321I-899373J-2466638D01*
G01*
X63120000Y-111000000D02*
X67420000Y-112600000D01*
X128720001Y-163499999D02*
G75*
G03*
X132020000Y-164200000I2136177J1941976D01*
G01*
M02*
