G04 #@! TF.GenerationSoftware,KiCad,Pcbnew,(6.0.0)*
G04 #@! TF.CreationDate,2023-05-15T23:43:16+03:00*
G04 #@! TF.ProjectId,choctopus44,63686f63-746f-4707-9573-34342e6b6963,2.0*
G04 #@! TF.SameCoordinates,Original*
G04 #@! TF.FileFunction,Paste,Bot*
G04 #@! TF.FilePolarity,Positive*
%FSLAX46Y46*%
G04 Gerber Fmt 4.6, Leading zero omitted, Abs format (unit mm)*
G04 Created by KiCad (PCBNEW (6.0.0)) date 2023-05-15 23:43:16*
%MOMM*%
%LPD*%
G01*
G04 APERTURE LIST*
G04 Aperture macros list*
%AMRoundRect*
0 Rectangle with rounded corners*
0 $1 Rounding radius*
0 $2 $3 $4 $5 $6 $7 $8 $9 X,Y pos of 4 corners*
0 Add a 4 corners polygon primitive as box body*
4,1,4,$2,$3,$4,$5,$6,$7,$8,$9,$2,$3,0*
0 Add four circle primitives for the rounded corners*
1,1,$1+$1,$2,$3*
1,1,$1+$1,$4,$5*
1,1,$1+$1,$6,$7*
1,1,$1+$1,$8,$9*
0 Add four rect primitives between the rounded corners*
20,1,$1+$1,$2,$3,$4,$5,0*
20,1,$1+$1,$4,$5,$6,$7,0*
20,1,$1+$1,$6,$7,$8,$9,0*
20,1,$1+$1,$8,$9,$2,$3,0*%
%AMRotRect*
0 Rectangle, with rotation*
0 The origin of the aperture is its center*
0 $1 length*
0 $2 width*
0 $3 Rotation angle, in degrees counterclockwise*
0 Add horizontal line*
21,1,$1,$2,0,0,$3*%
G04 Aperture macros list end*
%ADD10RotRect,2.600000X2.600000X345.000000*%
%ADD11RotRect,2.600000X2.600000X335.000000*%
%ADD12RotRect,2.600000X2.600000X325.000000*%
%ADD13RotRect,2.600000X2.600000X35.000000*%
%ADD14RotRect,2.600000X2.600000X25.000000*%
%ADD15RotRect,2.600000X2.600000X45.000000*%
%ADD16RotRect,1.600000X1.200000X250.000000*%
%ADD17RotRect,1.600000X1.200000X290.000000*%
%ADD18RotRect,1.600000X1.200000X165.000000*%
%ADD19RotRect,1.600000X1.200000X15.000000*%
%ADD20RotRect,2.600000X2.600000X15.000000*%
%ADD21R,1.600000X1.200000*%
%ADD22RotRect,2.600000X2.600000X315.000000*%
%ADD23RotRect,2.600000X2.600000X340.000000*%
%ADD24RotRect,2.600000X2.600000X20.000000*%
%ADD25RotRect,1.700000X1.000000X320.000000*%
%ADD26RotRect,1.000000X0.800000X50.000000*%
%ADD27RotRect,0.700000X1.500000X50.000000*%
%ADD28RoundRect,0.250001X-0.768977X-0.114905X-0.114905X-0.768977X0.768977X0.114905X0.114905X0.768977X0*%
%ADD29RoundRect,0.250001X-0.624999X0.462499X-0.624999X-0.462499X0.624999X-0.462499X0.624999X0.462499X0*%
%ADD30RoundRect,0.250001X0.624999X-0.462499X0.624999X0.462499X-0.624999X0.462499X-0.624999X-0.462499X0*%
%ADD31RoundRect,0.250001X-0.114905X0.768977X-0.768977X0.114905X0.114905X-0.768977X0.768977X-0.114905X0*%
%ADD32RoundRect,0.250001X0.114905X-0.768977X0.768977X-0.114905X-0.114905X0.768977X-0.768977X0.114905X0*%
G04 APERTURE END LIST*
D10*
X78372577Y-113338612D03*
X88959619Y-118453009D03*
D11*
X98003755Y-119888884D03*
X107541849Y-126764002D03*
D12*
X116213935Y-129756326D03*
X124413273Y-138183268D03*
D13*
X167733453Y-133514314D03*
X178456528Y-128691641D03*
D14*
X185378833Y-122657565D03*
X196776448Y-119770202D03*
D15*
X152233562Y-147264797D03*
X161956280Y-140653349D03*
D16*
X53549402Y-67169196D03*
X54507058Y-64538056D03*
X70487386Y-73384877D03*
X71445042Y-70753737D03*
X90733549Y-70456091D03*
X91691205Y-67824951D03*
X110066808Y-69957705D03*
X111024464Y-67326565D03*
X140155409Y-92736598D03*
X141113065Y-90105458D03*
X47633857Y-83502885D03*
X48591513Y-80871745D03*
X64721172Y-89415570D03*
X65678828Y-86784430D03*
X84916286Y-86459055D03*
X85873942Y-83827915D03*
X104244336Y-85990213D03*
X105201992Y-83359073D03*
X134326561Y-108747673D03*
X135284217Y-106116533D03*
X41921172Y-99315570D03*
X42878828Y-96684430D03*
X58921172Y-105415570D03*
X59878828Y-102784430D03*
X79083966Y-102489827D03*
X80041622Y-99858687D03*
X98404981Y-102029898D03*
X99362637Y-99398758D03*
X128505826Y-124770334D03*
X129463482Y-122139194D03*
D17*
X166097687Y-86637927D03*
X165140031Y-84006787D03*
X181792416Y-77057010D03*
X180834760Y-74425870D03*
X215519547Y-64357420D03*
X214561891Y-61726280D03*
X234878828Y-68015570D03*
X233921172Y-65384430D03*
X236866143Y-67302885D03*
X235908487Y-64671745D03*
X171926533Y-102649002D03*
X170968877Y-100017862D03*
X187599830Y-93061710D03*
X186642174Y-90430570D03*
X221336809Y-80360384D03*
X220379153Y-77729244D03*
X240666143Y-84102885D03*
X239708487Y-81471745D03*
X242672078Y-83352270D03*
X241714422Y-80721130D03*
X177751359Y-118675849D03*
X176793703Y-116044709D03*
X193413620Y-109044978D03*
X192455964Y-106413838D03*
X227169129Y-96391156D03*
X226211473Y-93760016D03*
X246478828Y-100115570D03*
X245521172Y-97484430D03*
X248478828Y-99315570D03*
X247521172Y-96684430D03*
D18*
X85095408Y-110675306D03*
X87800000Y-111400000D03*
X85695408Y-108475306D03*
X88400000Y-109200000D03*
X86295408Y-106275306D03*
X89000000Y-107000000D03*
D19*
X204552296Y-103837653D03*
X201847704Y-104562347D03*
X205252296Y-106037653D03*
X202547704Y-106762347D03*
D16*
X112839474Y-115143649D03*
X113797130Y-112512509D03*
X124460679Y-83155681D03*
X125418335Y-80524541D03*
X118653264Y-99160381D03*
X119610920Y-96529241D03*
D17*
X207842815Y-95932162D03*
X206885159Y-93301022D03*
X202008759Y-79891542D03*
X201051103Y-77260402D03*
X196186287Y-63859034D03*
X195228631Y-61227894D03*
D20*
X204622863Y-115034116D03*
X216348708Y-114169793D03*
D19*
X205852296Y-108237653D03*
X203147704Y-108962347D03*
X206452296Y-110437653D03*
X203747704Y-111162347D03*
D21*
X143350000Y-116000000D03*
X146150000Y-116000000D03*
D22*
X132454143Y-142632747D03*
X139065591Y-152355465D03*
D18*
X86895408Y-104137653D03*
X89600000Y-104862347D03*
D23*
X90492525Y-88056226D03*
X100593530Y-94073882D03*
X56768044Y-75457678D03*
X66869049Y-81475334D03*
D24*
X249124028Y-87510386D03*
X260729922Y-85627377D03*
D23*
X34038816Y-85276397D03*
X44139821Y-91294053D03*
D24*
X226397193Y-77698245D03*
X238003087Y-75815236D03*
X206298541Y-75106400D03*
X217904435Y-73223391D03*
D23*
X71052354Y-88840607D03*
X81153359Y-94858263D03*
X39853159Y-69301622D03*
X49954164Y-75319278D03*
D24*
X172469922Y-87419010D03*
X184075816Y-85536001D03*
X237495343Y-55560837D03*
X249101237Y-53677828D03*
X156816727Y-97040907D03*
X168422621Y-95157898D03*
X162631070Y-113015681D03*
X174236964Y-111132672D03*
D23*
X104880973Y-101153218D03*
X114981978Y-107170874D03*
X76866696Y-72865833D03*
X86967701Y-78883489D03*
X96306867Y-72081452D03*
X106407872Y-78099108D03*
X126348510Y-94800341D03*
X136449515Y-100817997D03*
X102121209Y-56106677D03*
X112222214Y-62124333D03*
X45667501Y-53326848D03*
X55768506Y-59344504D03*
X116509658Y-69203669D03*
X126610663Y-75221325D03*
D24*
X212112883Y-91081175D03*
X223718777Y-89198166D03*
X178284265Y-103393785D03*
X189890159Y-101510776D03*
X181043429Y-58346469D03*
X192649323Y-56463460D03*
D23*
X82681039Y-56891058D03*
X92782044Y-62908714D03*
D24*
X220582850Y-61723470D03*
X232188744Y-59840461D03*
X192672114Y-90296018D03*
X204278008Y-88413009D03*
D23*
X120534168Y-110775115D03*
X130635173Y-116792771D03*
X110695316Y-85178443D03*
X120796321Y-91196099D03*
D24*
X243309685Y-71535611D03*
X254915579Y-69652602D03*
D23*
X50953701Y-91432453D03*
X61054706Y-97450109D03*
D24*
X166655580Y-71444236D03*
X178261474Y-69561227D03*
D23*
X132162853Y-78825566D03*
X142263858Y-84843222D03*
X62582386Y-59482904D03*
X72683391Y-65500560D03*
D24*
X186857771Y-74321243D03*
X198463665Y-72438234D03*
X232211535Y-93673019D03*
X243817429Y-91790010D03*
X200484198Y-59131626D03*
X212090092Y-57248617D03*
X151002385Y-81066132D03*
X162608279Y-79183123D03*
D25*
X135338541Y-60747044D03*
X140164621Y-64796606D03*
X137781133Y-57836076D03*
X142607213Y-61885638D03*
D26*
X125051340Y-54201851D03*
X123358382Y-52781290D03*
X128050731Y-47189166D03*
X129743689Y-48609726D03*
D27*
X126449171Y-53547200D03*
X128377534Y-51249067D03*
X129341716Y-50100000D03*
D28*
X135134657Y-139458059D03*
X137238299Y-141561701D03*
D29*
X155000000Y-128212500D03*
X155000000Y-131187500D03*
D30*
X134300000Y-131187500D03*
X134300000Y-128212500D03*
D28*
X136748179Y-137848179D03*
X138851821Y-139951821D03*
D31*
X154178167Y-139374525D03*
X152074525Y-141478167D03*
D32*
X150448179Y-139851821D03*
X152551821Y-137748179D03*
M02*
