M48
; DRILL file {KiCad (6.0.0)} date Mon May 15 23:43:20 2023
; FORMAT={-:-/ absolute / metric / decimal}
; #@! TF.CreationDate,2023-05-15T23:43:20+03:00
; #@! TF.GenerationSoftware,Kicad,Pcbnew,(6.0.0)
; #@! TF.FileFunction,NonPlated,1,2,NPTH
FMAT,2
METRIC
; #@! TA.AperFunction,NonPlated,NPTH,ComponentDrill
T1C0.900
; #@! TA.AperFunction,NonPlated,NPTH,ComponentDrill
T2C1.500
; #@! TA.AperFunction,NonPlated,NPTH,ComponentDrill
T3C1.600
; #@! TA.AperFunction,NonPlated,NPTH,ComponentDrill
T4C1.702
; #@! TA.AperFunction,NonPlated,NPTH,ComponentDrill
T5C3.000
; #@! TA.AperFunction,NonPlated,NPTH,ComponentDrill
T6C3.429
; #@! TA.AperFunction,NonPlated,NPTH,ComponentDrill
T7C3.988
; #@! TA.AperFunction,NonPlated,NPTH,ComponentDrill
T8C4.800
%
G90
G05
T1
X125.583Y-51.841
X127.511Y-49.543
T4
X29.913Y-90.107
X35.727Y-74.132
X40.25Y-93.869
X41.542Y-58.157
X46.064Y-77.894
X46.828Y-96.263
X51.878Y-61.919
X52.642Y-80.288
X57.164Y-100.025
X58.457Y-64.313
X62.979Y-84.05
X66.927Y-93.671
X68.793Y-68.075
X72.741Y-77.696
X74.683Y-118.51
X77.263Y-97.433
X78.555Y-61.721
X83.077Y-81.458
X85.309Y-121.357
X86.367Y-92.886
X88.892Y-65.483
X92.181Y-76.912
X93.473Y-124.341
X96.703Y-96.649
X97.995Y-60.937
X100.755Y-105.983
X102.518Y-80.674
X103.442Y-128.99
X106.569Y-90.009
X108.332Y-64.699
X110.979Y-133.354
X111.092Y-109.746
X112.384Y-74.034
X116.408Y-115.605
X116.906Y-93.771
X119.989Y-139.663
X122.223Y-99.631
X122.72Y-77.796
X126.674Y-145.267
X126.745Y-119.368
X128.037Y-83.656
X132.559Y-103.393
X134.452Y-153.045
X138.374Y-87.418
X139.58Y-129.5
X149.74Y-129.5
X150.947Y-87.418
X154.868Y-153.045
X156.761Y-103.393
X161.283Y-83.656
X162.575Y-119.368
X162.646Y-145.267
X166.6Y-77.796
X167.098Y-99.631
X169.324Y-139.664
X172.414Y-93.771
X172.912Y-115.606
X176.936Y-74.034
X178.228Y-109.746
X178.334Y-133.355
X180.988Y-64.699
X182.751Y-90.009
X185.877Y-128.99
X186.802Y-80.673
X188.565Y-105.984
X191.324Y-60.936
X192.616Y-96.648
X195.846Y-124.342
X197.139Y-76.911
X200.428Y-65.484
X202.953Y-92.886
X204.014Y-121.357
X206.243Y-81.459
X210.765Y-61.722
X212.057Y-97.433
X214.639Y-118.51
X216.579Y-77.696
X220.527Y-68.076
X222.394Y-93.671
X226.341Y-84.05
X230.864Y-64.313
X232.156Y-100.025
X236.678Y-80.288
X237.44Y-61.913
X242.492Y-96.263
X243.254Y-77.888
X247.776Y-58.151
X249.068Y-93.863
X253.591Y-74.126
X259.405Y-90.1
T5
X37.116Y-86.397
X41.062Y-90.174
X42.931Y-70.422
X46.877Y-74.199
X48.745Y-54.447
X52.691Y-58.224
X54.031Y-92.553
X57.977Y-96.33
X59.846Y-76.578
X63.792Y-80.355
X65.66Y-60.603
X69.606Y-64.38
X74.13Y-89.961
X78.076Y-93.738
X79.944Y-73.986
X81.536Y-114.186
X83.89Y-77.763
X85.759Y-58.011
X85.796Y-117.605
X89.705Y-61.789
X93.57Y-89.176
X97.516Y-92.954
X99.384Y-73.202
X100.972Y-121.273
X103.33Y-76.979
X104.574Y-125.38
X105.199Y-57.227
X107.958Y-102.273
X109.145Y-61.004
X111.904Y-106.051
X113.773Y-86.299
X117.719Y-90.076
X118.897Y-131.635
X119.587Y-70.324
X121.731Y-136.305
X123.533Y-74.101
X123.612Y-111.895
X127.558Y-115.673
X129.426Y-95.92
X133.372Y-99.698
X134.77Y-144.949
X135.24Y-79.946
X136.75Y-150.04
X139.186Y-83.723
X154.08Y-79.946
X154.549Y-144.949
X159.531Y-80.303
X159.641Y-142.969
X159.894Y-95.921
X165.345Y-96.278
X165.709Y-111.896
X169.733Y-70.324
X170.416Y-131.636
X171.159Y-112.253
X175.184Y-70.681
X175.547Y-86.299
X175.774Y-130.57
X180.998Y-86.656
X181.362Y-102.274
X184.121Y-57.226
X186.813Y-102.631
X188.347Y-121.273
X189.572Y-57.584
X189.935Y-73.201
X193.808Y-121.154
X195.386Y-73.558
X195.75Y-89.176
X201.201Y-89.533
X203.562Y-58.012
X207.786Y-114.186
X209.013Y-58.369
X209.376Y-73.986
X213.185Y-115.017
X214.827Y-74.344
X215.19Y-89.961
X220.641Y-90.318
X223.66Y-60.603
X229.111Y-60.961
X229.475Y-76.578
X234.926Y-76.935
X235.289Y-92.553
X240.573Y-54.441
X240.74Y-92.91
X246.024Y-54.798
X246.387Y-70.415
X251.838Y-70.773
X252.202Y-86.39
X257.652Y-86.747
T6
X35.081Y-91.988
X40.896Y-76.013
X46.71Y-60.038
X51.996Y-98.144
X57.811Y-82.169
X63.625Y-66.194
X72.095Y-95.552
X77.909Y-79.577
X79.996Y-119.934
X83.724Y-63.602
X91.535Y-94.768
X97.349Y-78.793
X98.457Y-126.665
X103.164Y-62.818
X105.923Y-107.865
X111.738Y-91.89
X115.484Y-136.509
X117.552Y-75.915
X121.577Y-117.486
X127.391Y-101.512
X130.563Y-149.156
X133.205Y-85.537
X156.115Y-85.537
X158.757Y-149.156
X161.929Y-101.512
X167.744Y-117.487
X171.768Y-75.915
X173.829Y-136.51
X177.582Y-91.89
X183.397Y-107.865
X186.156Y-62.818
X190.862Y-126.666
X191.97Y-78.792
X197.785Y-94.767
X205.597Y-63.603
X209.326Y-119.934
X211.411Y-79.577
X217.225Y-95.552
X225.695Y-66.195
X231.51Y-82.169
X237.324Y-98.144
X242.608Y-60.032
X248.422Y-76.007
X254.237Y-91.981
T7
X144.66Y-129.5
T8
X67.92Y-107.2
X72.02Y-56.3
X120.25Y-62.75
X132.3Y-72.2
X144.66Y-109.68
X144.66Y-154.5
X156.5Y-71.0
X217.3Y-56.3
X221.4Y-107.2
T2
X139.06Y-130.15G85X139.06Y-128.85
G05
X150.26Y-130.15G85X150.26Y-128.85
G05
T3
X144.66Y-134.3G85X144.66Y-133.7
G05
T0
M30
