G04 #@! TF.GenerationSoftware,KiCad,Pcbnew,(5.1.9)-1*
G04 #@! TF.CreationDate,2021-07-06T13:23:13+03:00*
G04 #@! TF.ProjectId,choctopus44-top-plate,63686f63-746f-4707-9573-34342d746f70,1.0 Prototype*
G04 #@! TF.SameCoordinates,Original*
G04 #@! TF.FileFunction,Legend,Top*
G04 #@! TF.FilePolarity,Positive*
%FSLAX46Y46*%
G04 Gerber Fmt 4.6, Leading zero omitted, Abs format (unit mm)*
G04 Created by KiCad (PCBNEW (5.1.9)-1) date 2021-07-06 13:23:13*
%MOMM*%
%LPD*%
G01*
G04 APERTURE LIST*
%ADD10C,0.500000*%
%ADD11C,0.150000*%
%ADD12C,0.010000*%
%ADD13C,3.600000*%
%ADD14C,2.400000*%
G04 APERTURE END LIST*
D10*
X133050679Y-51294280D02*
X155676998Y-54894795D01*
X156202853Y-57818057D02*
X156378633Y-57558702D01*
X156807726Y-57343558D01*
X157061040Y-57387768D01*
X157391888Y-57735544D01*
X157546957Y-58342674D01*
X157575368Y-58927698D01*
X157505535Y-60075643D01*
X157358167Y-60920022D01*
X157035020Y-62023756D01*
X156810118Y-62564571D01*
X156458559Y-63083280D01*
X156029465Y-63298424D01*
X155776151Y-63254214D01*
X155445303Y-62906439D01*
X155367769Y-62602874D01*
X155161186Y-57056191D02*
X154129612Y-62966847D01*
X154620838Y-60152249D02*
X153100955Y-59886987D01*
X153641303Y-56790929D02*
X152609729Y-62701585D01*
X150836532Y-62392112D02*
X150329904Y-62303692D01*
X150125713Y-61978021D01*
X149970644Y-61370891D01*
X150040478Y-60222947D01*
X150384336Y-58252728D01*
X150707483Y-57148994D01*
X151059042Y-56630285D01*
X151361479Y-56393036D01*
X151868106Y-56481456D01*
X152072298Y-56807126D01*
X152227366Y-57414256D01*
X152157533Y-58562201D01*
X151813675Y-60532419D01*
X151490527Y-61636154D01*
X151138968Y-62154863D01*
X150836532Y-62392112D01*
X147970154Y-56381221D02*
X148145933Y-56121866D01*
X148575027Y-55906722D01*
X148828340Y-55950932D01*
X149159189Y-56298708D01*
X149314257Y-56905837D01*
X149342669Y-57490862D01*
X149272835Y-58638807D01*
X149125468Y-59483186D01*
X148802320Y-60586920D01*
X148577418Y-61127735D01*
X148225859Y-61646444D01*
X147796766Y-61861588D01*
X147543452Y-61817378D01*
X147212604Y-61469603D01*
X147135070Y-61166038D01*
X146276883Y-61596326D02*
X144757000Y-61331064D01*
X146548516Y-55553039D02*
X145516941Y-61463695D01*
X143363774Y-61087907D02*
X142857146Y-60999487D01*
X142652955Y-60673816D01*
X142497886Y-60066686D01*
X142567720Y-58918742D01*
X142911578Y-56948523D01*
X143234725Y-55844789D01*
X143586284Y-55326080D01*
X143888721Y-55088831D01*
X144395348Y-55177251D01*
X144599540Y-55502921D01*
X144754608Y-56110051D01*
X144684775Y-57257996D01*
X144340917Y-59228214D01*
X144017769Y-60331948D01*
X143666210Y-60850658D01*
X143363774Y-61087907D01*
X142115524Y-54779358D02*
X141083949Y-60690014D01*
X140070694Y-60513173D01*
X139866503Y-60187503D01*
X139788969Y-59883938D01*
X139760557Y-59298913D01*
X139907925Y-58454533D01*
X140132827Y-57913719D01*
X140308606Y-57654364D01*
X140611043Y-57417115D01*
X141624298Y-57593956D01*
X138424154Y-60225806D02*
X139259238Y-55440989D01*
X139230827Y-54855964D01*
X139153292Y-54552399D01*
X138949101Y-54226729D01*
X138442474Y-54138308D01*
X138140037Y-54375558D01*
X137964258Y-54634912D01*
X137739356Y-55175727D01*
X136904271Y-59960544D01*
X136746811Y-54132401D02*
X136415963Y-53784626D01*
X135782678Y-53674100D01*
X135480242Y-53911349D01*
X135304462Y-54170704D01*
X135079560Y-54711518D01*
X134981315Y-55274438D01*
X135009727Y-55859463D01*
X135087261Y-56163028D01*
X135291452Y-56488698D01*
X135748957Y-56858578D01*
X135953149Y-57184248D01*
X136030683Y-57487813D01*
X136059095Y-58072838D01*
X135960849Y-58635758D01*
X135735947Y-59176572D01*
X135560168Y-59435927D01*
X135257731Y-59673176D01*
X134624447Y-59562650D01*
X134293599Y-59214875D01*
X132308510Y-57128223D02*
X132996226Y-53187786D01*
X132548814Y-59490428D02*
X133918937Y-55379056D01*
X132272397Y-55091689D01*
X129775372Y-56686120D02*
X130463088Y-52745683D01*
X130015675Y-59048324D02*
X131385799Y-54936953D01*
X129739259Y-54649586D01*
D11*
X221967074Y-119105747D02*
X221933402Y-119164068D01*
X221807738Y-119247038D01*
X221715745Y-119271688D01*
X221565431Y-119262666D01*
X221448788Y-119195322D01*
X221378142Y-119115654D01*
X221282847Y-118943993D01*
X221245873Y-118806003D01*
X221242571Y-118609693D01*
X221263918Y-118505375D01*
X221331261Y-118388733D01*
X221456926Y-118305762D01*
X221548919Y-118281113D01*
X221699233Y-118290135D01*
X221757554Y-118323807D01*
X222405692Y-119086817D02*
X222146873Y-118120891D01*
X222819660Y-118975895D02*
X222684088Y-118469934D01*
X222613442Y-118390265D01*
X222509125Y-118368918D01*
X222371135Y-118405892D01*
X222291467Y-118476538D01*
X222257795Y-118534860D01*
X223417614Y-118815673D02*
X223313296Y-118794326D01*
X223254975Y-118760655D01*
X223184329Y-118680986D01*
X223110381Y-118405008D01*
X223131728Y-118300690D01*
X223165400Y-118242369D01*
X223245068Y-118171723D01*
X223383057Y-118134749D01*
X223487375Y-118156096D01*
X223545696Y-118189767D01*
X223616342Y-118269436D01*
X223690291Y-118545415D01*
X223668943Y-118649732D01*
X223635272Y-118708053D01*
X223555604Y-118778699D01*
X223417614Y-118815673D01*
X224555201Y-118461559D02*
X224475533Y-118532205D01*
X224291547Y-118581504D01*
X224187229Y-118560157D01*
X224128908Y-118526485D01*
X224058262Y-118446817D01*
X223984314Y-118170838D01*
X224005661Y-118066520D01*
X224039333Y-118008199D01*
X224119001Y-117937553D01*
X224302987Y-117888254D01*
X224407305Y-117909601D01*
X224670959Y-117789657D02*
X225038930Y-117691059D01*
X224722675Y-117430707D02*
X224944520Y-118258644D01*
X225015166Y-118338312D01*
X225119483Y-118359659D01*
X225211476Y-118335009D01*
X225671441Y-118211762D02*
X225567123Y-118190415D01*
X225508802Y-118156744D01*
X225438156Y-118077075D01*
X225364208Y-117801096D01*
X225385555Y-117696779D01*
X225419227Y-117638458D01*
X225498895Y-117567812D01*
X225636884Y-117530838D01*
X225741202Y-117552185D01*
X225799523Y-117585856D01*
X225870169Y-117665525D01*
X225944117Y-117941503D01*
X225922770Y-118045821D01*
X225889099Y-118104142D01*
X225809430Y-118174788D01*
X225671441Y-118211762D01*
X226234839Y-117370616D02*
X226493658Y-118336542D01*
X226247163Y-117416613D02*
X226326831Y-117345967D01*
X226510817Y-117296668D01*
X226615135Y-117318015D01*
X226673456Y-117351687D01*
X226744102Y-117431355D01*
X226818050Y-117707334D01*
X226796703Y-117811651D01*
X226763032Y-117869973D01*
X226683363Y-117940619D01*
X226499377Y-117989917D01*
X226395060Y-117968570D01*
X227522740Y-117025524D02*
X227695286Y-117669475D01*
X227108771Y-117136447D02*
X227244343Y-117642408D01*
X227314989Y-117722076D01*
X227419307Y-117743423D01*
X227557296Y-117706449D01*
X227636964Y-117635803D01*
X227670636Y-117577482D01*
X228096929Y-117512556D02*
X228201247Y-117533903D01*
X228385233Y-117484604D01*
X228464901Y-117413958D01*
X228486248Y-117309640D01*
X228473923Y-117263644D01*
X228403277Y-117183976D01*
X228298960Y-117162629D01*
X228160970Y-117199603D01*
X228056653Y-117178256D01*
X227986007Y-117098588D01*
X227973682Y-117052591D01*
X227995029Y-116948274D01*
X228074697Y-116877628D01*
X228212687Y-116840653D01*
X228317004Y-116862001D01*
X229178612Y-116581834D02*
X229351158Y-117225785D01*
X228850032Y-116275486D02*
X228804921Y-117027057D01*
X229402875Y-116866836D01*
X230098542Y-116335340D02*
X230271088Y-116979291D01*
X229769962Y-116028992D02*
X229724850Y-116780563D01*
X230322804Y-116620341D01*
X231875244Y-116894550D02*
X231645262Y-116956174D01*
X231275520Y-115576280D01*
X231505503Y-115514656D01*
X232156943Y-116473977D02*
X231898124Y-115508051D01*
X232266096Y-115409454D01*
X232370413Y-115430801D01*
X232428735Y-115464473D01*
X232499380Y-115544141D01*
X232536355Y-115682130D01*
X232515008Y-115786448D01*
X232481336Y-115844769D01*
X232401668Y-115915415D01*
X232033696Y-116014013D01*
X233122869Y-116215158D02*
X232950323Y-115571208D01*
X232999622Y-115755194D02*
X233020969Y-115650876D01*
X233054640Y-115592555D01*
X233134309Y-115521909D01*
X233226302Y-115497259D01*
X233858812Y-116017963D02*
X233754495Y-115996616D01*
X233696173Y-115962944D01*
X233625528Y-115883276D01*
X233551579Y-115607297D01*
X233572926Y-115502979D01*
X233606598Y-115444658D01*
X233686266Y-115374012D01*
X233824256Y-115337038D01*
X233928573Y-115358385D01*
X233986895Y-115392057D01*
X234057540Y-115471725D01*
X234131489Y-115747704D01*
X234110142Y-115852022D01*
X234076470Y-115910343D01*
X233996802Y-115980989D01*
X233858812Y-116017963D01*
X234284220Y-115213791D02*
X234652192Y-115115193D01*
X234335937Y-114854841D02*
X234557782Y-115682778D01*
X234628428Y-115762446D01*
X234732745Y-115783793D01*
X234824738Y-115759144D01*
X235284703Y-115635897D02*
X235180385Y-115614550D01*
X235122064Y-115580878D01*
X235051418Y-115501210D01*
X234977470Y-115225231D01*
X234998817Y-115120913D01*
X235032489Y-115062592D01*
X235112157Y-114991946D01*
X235250146Y-114954972D01*
X235354464Y-114976319D01*
X235412785Y-115009991D01*
X235483431Y-115089659D01*
X235557379Y-115365638D01*
X235536032Y-115469955D01*
X235502360Y-115528277D01*
X235422692Y-115598922D01*
X235284703Y-115635897D01*
X235710111Y-114831725D02*
X236078083Y-114733127D01*
X235761827Y-114472775D02*
X235983672Y-115300712D01*
X236054318Y-115380380D01*
X236158636Y-115401727D01*
X236250629Y-115377078D01*
X236308065Y-114671503D02*
X236710593Y-115253830D01*
X236768030Y-114548256D02*
X236710593Y-115253830D01*
X236680224Y-115508462D01*
X236646552Y-115566783D01*
X236566884Y-115637429D01*
X237136001Y-114449658D02*
X237394820Y-115415584D01*
X237148326Y-114495655D02*
X237227994Y-114425009D01*
X237411980Y-114375710D01*
X237516298Y-114397057D01*
X237574619Y-114430729D01*
X237645265Y-114510397D01*
X237719213Y-114786376D01*
X237697866Y-114890694D01*
X237664194Y-114949015D01*
X237584526Y-115019661D01*
X237400540Y-115068960D01*
X237296223Y-115047613D01*
X238538127Y-114714845D02*
X238458459Y-114785491D01*
X238274473Y-114834790D01*
X238170156Y-114813443D01*
X238099510Y-114733775D01*
X238000912Y-114365803D01*
X238022259Y-114261485D01*
X238101927Y-114190839D01*
X238285913Y-114141541D01*
X238390231Y-114162888D01*
X238460877Y-114242556D01*
X238485526Y-114334549D01*
X238050211Y-114549789D01*
X239004697Y-114984219D02*
X239234679Y-114922596D01*
X238864938Y-113542702D01*
X238634955Y-113604325D01*
D12*
G36*
X223870909Y-111519845D02*
G01*
X224852658Y-112948495D01*
X224739799Y-112989593D01*
X224700736Y-113002293D01*
X224632716Y-113022693D01*
X224539499Y-113049729D01*
X224424841Y-113082343D01*
X224292501Y-113119473D01*
X224146238Y-113160057D01*
X223989810Y-113203033D01*
X223830142Y-113246482D01*
X223640668Y-113297977D01*
X223481752Y-113341595D01*
X223351182Y-113377999D01*
X223246743Y-113407849D01*
X223166222Y-113431804D01*
X223107404Y-113450530D01*
X223068075Y-113464683D01*
X223046023Y-113474927D01*
X223039031Y-113481922D01*
X223039117Y-113482642D01*
X223048990Y-113502631D01*
X223073463Y-113547391D01*
X223110022Y-113612464D01*
X223156153Y-113693396D01*
X223209343Y-113785731D01*
X223237274Y-113833878D01*
X223429657Y-114164748D01*
X223566122Y-114254153D01*
X223613085Y-114284926D01*
X223683933Y-114331356D01*
X223774225Y-114390534D01*
X223879524Y-114459551D01*
X223995389Y-114535495D01*
X224117379Y-114615457D01*
X224205659Y-114673324D01*
X224322491Y-114749517D01*
X224430582Y-114819262D01*
X224526635Y-114880487D01*
X224607351Y-114931122D01*
X224669429Y-114969094D01*
X224709571Y-114992332D01*
X224724262Y-114998927D01*
X224739037Y-114983766D01*
X224767451Y-114945726D01*
X224805286Y-114890708D01*
X224844444Y-114830718D01*
X224949095Y-114666671D01*
X225060560Y-114734971D01*
X225114254Y-114768666D01*
X225155413Y-114795986D01*
X225176532Y-114811915D01*
X225177693Y-114813295D01*
X225170159Y-114829039D01*
X225146771Y-114869070D01*
X225110133Y-114929284D01*
X225062849Y-115005575D01*
X225007526Y-115093837D01*
X224946767Y-115189965D01*
X224883177Y-115289853D01*
X224819360Y-115389396D01*
X224757922Y-115484488D01*
X224701467Y-115571023D01*
X224652600Y-115644895D01*
X224613924Y-115701998D01*
X224613536Y-115702561D01*
X224562304Y-115776681D01*
X224458662Y-115708998D01*
X224407346Y-115673807D01*
X224368676Y-115644129D01*
X224350294Y-115625872D01*
X224349855Y-115624867D01*
X224356711Y-115605237D01*
X224379154Y-115563464D01*
X224413790Y-115505451D01*
X224457222Y-115437102D01*
X224462731Y-115428686D01*
X224580774Y-115248952D01*
X224531261Y-115217788D01*
X224506968Y-115202118D01*
X224457532Y-115169915D01*
X224386108Y-115123246D01*
X224295854Y-115064179D01*
X224189926Y-114994780D01*
X224071484Y-114917117D01*
X223943683Y-114833256D01*
X223855966Y-114775664D01*
X223230183Y-114364705D01*
X223041075Y-114038591D01*
X222982838Y-113938262D01*
X222927375Y-113842898D01*
X222877965Y-113758122D01*
X222837884Y-113689554D01*
X222810410Y-113642814D01*
X222804658Y-113633119D01*
X222757347Y-113553760D01*
X221565654Y-113873073D01*
X222266881Y-116490087D01*
X222577652Y-116406816D01*
X222647775Y-116668519D01*
X221750221Y-116909018D01*
X221580376Y-116954723D01*
X221419282Y-116998451D01*
X221270117Y-117039315D01*
X221136056Y-117076425D01*
X221020273Y-117108896D01*
X220925944Y-117135838D01*
X220856246Y-117156363D01*
X220814354Y-117169585D01*
X220804292Y-117173435D01*
X220755917Y-117197353D01*
X220684699Y-116931563D01*
X220746004Y-116915011D01*
X220794891Y-116900140D01*
X220859787Y-116878274D01*
X220914921Y-116858450D01*
X221022532Y-116818440D01*
X221017225Y-116798636D01*
X221278927Y-116728513D01*
X221284962Y-116735592D01*
X221300736Y-116737950D01*
X221330135Y-116734824D01*
X221377045Y-116725453D01*
X221445353Y-116709073D01*
X221538946Y-116684923D01*
X221645341Y-116656629D01*
X221764265Y-116624481D01*
X221854108Y-116599375D01*
X221918618Y-116580028D01*
X221961541Y-116565157D01*
X221986626Y-116553480D01*
X221997616Y-116543711D01*
X221998606Y-116535675D01*
X221992571Y-116528597D01*
X221976798Y-116526239D01*
X221947399Y-116529365D01*
X221900489Y-116538735D01*
X221832181Y-116555115D01*
X221738587Y-116579266D01*
X221632193Y-116607560D01*
X221513269Y-116639708D01*
X221423425Y-116664814D01*
X221358915Y-116684160D01*
X221315992Y-116699031D01*
X221290908Y-116710709D01*
X221279916Y-116720477D01*
X221278927Y-116728513D01*
X221017225Y-116798636D01*
X220927381Y-116463331D01*
X221189082Y-116393208D01*
X221232909Y-116556771D01*
X221952588Y-116363934D01*
X221908761Y-116200371D01*
X221189082Y-116393208D01*
X220927381Y-116463331D01*
X220839727Y-116136204D01*
X221101428Y-116066081D01*
X221149638Y-116246001D01*
X221869317Y-116053164D01*
X221821108Y-115873244D01*
X221101428Y-116066081D01*
X220839727Y-116136204D01*
X220747691Y-115792720D01*
X221009392Y-115722598D01*
X221061984Y-115918874D01*
X221781664Y-115726036D01*
X221729072Y-115529760D01*
X221009392Y-115722598D01*
X220747691Y-115792720D01*
X220655655Y-115449237D01*
X220917356Y-115379115D01*
X220974331Y-115591748D01*
X221694011Y-115398910D01*
X221637036Y-115186277D01*
X220917356Y-115379115D01*
X220655655Y-115449237D01*
X220568002Y-115122111D01*
X220829703Y-115051988D01*
X220877912Y-115231907D01*
X221597592Y-115039070D01*
X221549383Y-114859151D01*
X220829703Y-115051988D01*
X220568002Y-115122111D01*
X220480349Y-114794984D01*
X220742050Y-114724861D01*
X220794642Y-114921137D01*
X221514321Y-114728300D01*
X221461729Y-114532024D01*
X220742050Y-114724861D01*
X220480349Y-114794984D01*
X220392695Y-114467857D01*
X220654396Y-114397734D01*
X220702606Y-114577654D01*
X221422285Y-114384817D01*
X221374076Y-114204896D01*
X220654396Y-114397734D01*
X220392695Y-114467857D01*
X220326955Y-114222511D01*
X220588656Y-114152389D01*
X220619335Y-114266883D01*
X221339014Y-114074045D01*
X221302614Y-113938197D01*
X221121446Y-113998105D01*
X221022884Y-114029557D01*
X220911855Y-114063220D01*
X220806406Y-114093682D01*
X220764468Y-114105201D01*
X220588656Y-114152389D01*
X220326955Y-114222511D01*
X219868978Y-114345226D01*
X219798855Y-114083525D01*
X220256832Y-113960810D01*
X220221771Y-113829959D01*
X220483472Y-113759837D01*
X220518534Y-113890688D01*
X220816989Y-113810523D01*
X220917007Y-113783071D01*
X221009564Y-113756578D01*
X221088083Y-113733011D01*
X221145986Y-113714337D01*
X221174064Y-113703786D01*
X221211794Y-113683623D01*
X221224540Y-113662221D01*
X221219161Y-113626808D01*
X221217917Y-113622106D01*
X221203152Y-113566999D01*
X220483472Y-113759837D01*
X220221771Y-113829959D01*
X220134118Y-113502833D01*
X220395819Y-113432710D01*
X220448411Y-113628986D01*
X221168090Y-113436149D01*
X221115498Y-113239873D01*
X220395819Y-113432710D01*
X220134118Y-113502833D01*
X220046464Y-113175706D01*
X220308165Y-113105583D01*
X220360757Y-113301859D01*
X221080437Y-113109022D01*
X221027845Y-112912746D01*
X220308165Y-113105583D01*
X220046464Y-113175706D01*
X219954428Y-112832222D01*
X220216129Y-112762100D01*
X220268721Y-112958376D01*
X220988401Y-112765538D01*
X220935809Y-112569262D01*
X220216129Y-112762100D01*
X219954428Y-112832222D01*
X219862392Y-112488739D01*
X220124093Y-112418617D01*
X220181068Y-112631249D01*
X220900747Y-112438411D01*
X220896822Y-112423763D01*
X221158524Y-112353640D01*
X221496447Y-113614787D01*
X222953070Y-113211765D01*
X223168123Y-113152220D01*
X223373672Y-113095217D01*
X223567399Y-113041408D01*
X223746984Y-112991439D01*
X223910104Y-112945959D01*
X224054440Y-112905617D01*
X224177671Y-112871062D01*
X224277476Y-112842943D01*
X224351535Y-112821907D01*
X224397528Y-112808603D01*
X224413131Y-112803697D01*
X224404385Y-112789315D01*
X224378117Y-112749521D01*
X224336023Y-112686790D01*
X224279798Y-112603596D01*
X224211139Y-112502414D01*
X224131743Y-112385719D01*
X224043304Y-112255983D01*
X223947520Y-112115683D01*
X223846087Y-111967291D01*
X223740699Y-111813283D01*
X223633054Y-111656133D01*
X223524847Y-111498314D01*
X223417776Y-111342302D01*
X223313535Y-111190571D01*
X223213822Y-111045594D01*
X223120330Y-110909847D01*
X223034759Y-110785804D01*
X222958802Y-110675939D01*
X222894157Y-110582726D01*
X222842520Y-110508639D01*
X222805585Y-110456154D01*
X222785050Y-110427744D01*
X222781433Y-110423317D01*
X222763610Y-110427151D01*
X222716682Y-110441315D01*
X222643477Y-110464861D01*
X222546820Y-110496835D01*
X222429539Y-110536288D01*
X222294462Y-110582269D01*
X222144415Y-110633828D01*
X221982226Y-110690014D01*
X221823265Y-110745483D01*
X221651687Y-110805527D01*
X221489183Y-110862329D01*
X221338645Y-110914885D01*
X221202967Y-110962186D01*
X221085046Y-111003226D01*
X220987774Y-111036996D01*
X220914045Y-111062490D01*
X220866754Y-111078700D01*
X220849146Y-111084530D01*
X220844241Y-111087399D01*
X220841159Y-111094289D01*
X220840422Y-111107355D01*
X220842556Y-111128748D01*
X220848086Y-111160619D01*
X220857536Y-111205122D01*
X220871431Y-111264407D01*
X220890295Y-111340627D01*
X220914652Y-111435933D01*
X220945028Y-111552477D01*
X220981947Y-111692412D01*
X221025934Y-111857890D01*
X221077513Y-112051061D01*
X221137208Y-112274078D01*
X221158524Y-112353640D01*
X220896822Y-112423763D01*
X220843773Y-112225779D01*
X220124093Y-112418617D01*
X219862392Y-112488739D01*
X219774739Y-112161612D01*
X220036440Y-112091489D01*
X220089032Y-112287766D01*
X220808711Y-112094928D01*
X220756119Y-111898652D01*
X220036440Y-112091489D01*
X219774739Y-112161612D01*
X219682703Y-111818129D01*
X219944404Y-111748006D01*
X219996996Y-111944282D01*
X220716675Y-111751445D01*
X220664083Y-111555169D01*
X219944404Y-111748006D01*
X219682703Y-111818129D01*
X219647641Y-111687278D01*
X219907710Y-111617593D01*
X220629022Y-111424318D01*
X220564752Y-111184460D01*
X220480659Y-111214102D01*
X220435486Y-111229917D01*
X220366050Y-111254096D01*
X220280100Y-111283946D01*
X220185385Y-111316775D01*
X220131843Y-111335305D01*
X219867120Y-111426866D01*
X219887416Y-111522230D01*
X219907710Y-111617593D01*
X219647641Y-111687278D01*
X219602971Y-111520567D01*
X219436699Y-111577492D01*
X219356976Y-111604320D01*
X219302771Y-111617817D01*
X219267297Y-111614817D01*
X219243767Y-111592155D01*
X219225393Y-111546663D01*
X219205388Y-111475176D01*
X219203659Y-111468778D01*
X219190275Y-111415609D01*
X219187781Y-111386165D01*
X219197521Y-111371676D01*
X219219775Y-111363658D01*
X219241086Y-111356677D01*
X219292251Y-111339266D01*
X219371146Y-111312163D01*
X219475654Y-111276102D01*
X219603652Y-111231818D01*
X219753020Y-111180047D01*
X219921638Y-111121526D01*
X220107385Y-111056989D01*
X220308138Y-110987172D01*
X220521781Y-110912810D01*
X220746189Y-110834641D01*
X220979243Y-110753398D01*
X220996195Y-110747486D01*
X221230691Y-110665723D01*
X221457300Y-110586744D01*
X221673839Y-110511308D01*
X221878127Y-110440175D01*
X222067983Y-110374101D01*
X222241226Y-110313845D01*
X222395673Y-110260167D01*
X222529143Y-110213824D01*
X222639457Y-110175576D01*
X222724430Y-110146178D01*
X222781883Y-110126392D01*
X222809634Y-110116976D01*
X222810117Y-110116819D01*
X222889160Y-110091193D01*
X223870909Y-111519845D01*
G37*
X223870909Y-111519845D02*
X224852658Y-112948495D01*
X224739799Y-112989593D01*
X224700736Y-113002293D01*
X224632716Y-113022693D01*
X224539499Y-113049729D01*
X224424841Y-113082343D01*
X224292501Y-113119473D01*
X224146238Y-113160057D01*
X223989810Y-113203033D01*
X223830142Y-113246482D01*
X223640668Y-113297977D01*
X223481752Y-113341595D01*
X223351182Y-113377999D01*
X223246743Y-113407849D01*
X223166222Y-113431804D01*
X223107404Y-113450530D01*
X223068075Y-113464683D01*
X223046023Y-113474927D01*
X223039031Y-113481922D01*
X223039117Y-113482642D01*
X223048990Y-113502631D01*
X223073463Y-113547391D01*
X223110022Y-113612464D01*
X223156153Y-113693396D01*
X223209343Y-113785731D01*
X223237274Y-113833878D01*
X223429657Y-114164748D01*
X223566122Y-114254153D01*
X223613085Y-114284926D01*
X223683933Y-114331356D01*
X223774225Y-114390534D01*
X223879524Y-114459551D01*
X223995389Y-114535495D01*
X224117379Y-114615457D01*
X224205659Y-114673324D01*
X224322491Y-114749517D01*
X224430582Y-114819262D01*
X224526635Y-114880487D01*
X224607351Y-114931122D01*
X224669429Y-114969094D01*
X224709571Y-114992332D01*
X224724262Y-114998927D01*
X224739037Y-114983766D01*
X224767451Y-114945726D01*
X224805286Y-114890708D01*
X224844444Y-114830718D01*
X224949095Y-114666671D01*
X225060560Y-114734971D01*
X225114254Y-114768666D01*
X225155413Y-114795986D01*
X225176532Y-114811915D01*
X225177693Y-114813295D01*
X225170159Y-114829039D01*
X225146771Y-114869070D01*
X225110133Y-114929284D01*
X225062849Y-115005575D01*
X225007526Y-115093837D01*
X224946767Y-115189965D01*
X224883177Y-115289853D01*
X224819360Y-115389396D01*
X224757922Y-115484488D01*
X224701467Y-115571023D01*
X224652600Y-115644895D01*
X224613924Y-115701998D01*
X224613536Y-115702561D01*
X224562304Y-115776681D01*
X224458662Y-115708998D01*
X224407346Y-115673807D01*
X224368676Y-115644129D01*
X224350294Y-115625872D01*
X224349855Y-115624867D01*
X224356711Y-115605237D01*
X224379154Y-115563464D01*
X224413790Y-115505451D01*
X224457222Y-115437102D01*
X224462731Y-115428686D01*
X224580774Y-115248952D01*
X224531261Y-115217788D01*
X224506968Y-115202118D01*
X224457532Y-115169915D01*
X224386108Y-115123246D01*
X224295854Y-115064179D01*
X224189926Y-114994780D01*
X224071484Y-114917117D01*
X223943683Y-114833256D01*
X223855966Y-114775664D01*
X223230183Y-114364705D01*
X223041075Y-114038591D01*
X222982838Y-113938262D01*
X222927375Y-113842898D01*
X222877965Y-113758122D01*
X222837884Y-113689554D01*
X222810410Y-113642814D01*
X222804658Y-113633119D01*
X222757347Y-113553760D01*
X221565654Y-113873073D01*
X222266881Y-116490087D01*
X222577652Y-116406816D01*
X222647775Y-116668519D01*
X221750221Y-116909018D01*
X221580376Y-116954723D01*
X221419282Y-116998451D01*
X221270117Y-117039315D01*
X221136056Y-117076425D01*
X221020273Y-117108896D01*
X220925944Y-117135838D01*
X220856246Y-117156363D01*
X220814354Y-117169585D01*
X220804292Y-117173435D01*
X220755917Y-117197353D01*
X220684699Y-116931563D01*
X220746004Y-116915011D01*
X220794891Y-116900140D01*
X220859787Y-116878274D01*
X220914921Y-116858450D01*
X221022532Y-116818440D01*
X221017225Y-116798636D01*
X221278927Y-116728513D01*
X221284962Y-116735592D01*
X221300736Y-116737950D01*
X221330135Y-116734824D01*
X221377045Y-116725453D01*
X221445353Y-116709073D01*
X221538946Y-116684923D01*
X221645341Y-116656629D01*
X221764265Y-116624481D01*
X221854108Y-116599375D01*
X221918618Y-116580028D01*
X221961541Y-116565157D01*
X221986626Y-116553480D01*
X221997616Y-116543711D01*
X221998606Y-116535675D01*
X221992571Y-116528597D01*
X221976798Y-116526239D01*
X221947399Y-116529365D01*
X221900489Y-116538735D01*
X221832181Y-116555115D01*
X221738587Y-116579266D01*
X221632193Y-116607560D01*
X221513269Y-116639708D01*
X221423425Y-116664814D01*
X221358915Y-116684160D01*
X221315992Y-116699031D01*
X221290908Y-116710709D01*
X221279916Y-116720477D01*
X221278927Y-116728513D01*
X221017225Y-116798636D01*
X220927381Y-116463331D01*
X221189082Y-116393208D01*
X221232909Y-116556771D01*
X221952588Y-116363934D01*
X221908761Y-116200371D01*
X221189082Y-116393208D01*
X220927381Y-116463331D01*
X220839727Y-116136204D01*
X221101428Y-116066081D01*
X221149638Y-116246001D01*
X221869317Y-116053164D01*
X221821108Y-115873244D01*
X221101428Y-116066081D01*
X220839727Y-116136204D01*
X220747691Y-115792720D01*
X221009392Y-115722598D01*
X221061984Y-115918874D01*
X221781664Y-115726036D01*
X221729072Y-115529760D01*
X221009392Y-115722598D01*
X220747691Y-115792720D01*
X220655655Y-115449237D01*
X220917356Y-115379115D01*
X220974331Y-115591748D01*
X221694011Y-115398910D01*
X221637036Y-115186277D01*
X220917356Y-115379115D01*
X220655655Y-115449237D01*
X220568002Y-115122111D01*
X220829703Y-115051988D01*
X220877912Y-115231907D01*
X221597592Y-115039070D01*
X221549383Y-114859151D01*
X220829703Y-115051988D01*
X220568002Y-115122111D01*
X220480349Y-114794984D01*
X220742050Y-114724861D01*
X220794642Y-114921137D01*
X221514321Y-114728300D01*
X221461729Y-114532024D01*
X220742050Y-114724861D01*
X220480349Y-114794984D01*
X220392695Y-114467857D01*
X220654396Y-114397734D01*
X220702606Y-114577654D01*
X221422285Y-114384817D01*
X221374076Y-114204896D01*
X220654396Y-114397734D01*
X220392695Y-114467857D01*
X220326955Y-114222511D01*
X220588656Y-114152389D01*
X220619335Y-114266883D01*
X221339014Y-114074045D01*
X221302614Y-113938197D01*
X221121446Y-113998105D01*
X221022884Y-114029557D01*
X220911855Y-114063220D01*
X220806406Y-114093682D01*
X220764468Y-114105201D01*
X220588656Y-114152389D01*
X220326955Y-114222511D01*
X219868978Y-114345226D01*
X219798855Y-114083525D01*
X220256832Y-113960810D01*
X220221771Y-113829959D01*
X220483472Y-113759837D01*
X220518534Y-113890688D01*
X220816989Y-113810523D01*
X220917007Y-113783071D01*
X221009564Y-113756578D01*
X221088083Y-113733011D01*
X221145986Y-113714337D01*
X221174064Y-113703786D01*
X221211794Y-113683623D01*
X221224540Y-113662221D01*
X221219161Y-113626808D01*
X221217917Y-113622106D01*
X221203152Y-113566999D01*
X220483472Y-113759837D01*
X220221771Y-113829959D01*
X220134118Y-113502833D01*
X220395819Y-113432710D01*
X220448411Y-113628986D01*
X221168090Y-113436149D01*
X221115498Y-113239873D01*
X220395819Y-113432710D01*
X220134118Y-113502833D01*
X220046464Y-113175706D01*
X220308165Y-113105583D01*
X220360757Y-113301859D01*
X221080437Y-113109022D01*
X221027845Y-112912746D01*
X220308165Y-113105583D01*
X220046464Y-113175706D01*
X219954428Y-112832222D01*
X220216129Y-112762100D01*
X220268721Y-112958376D01*
X220988401Y-112765538D01*
X220935809Y-112569262D01*
X220216129Y-112762100D01*
X219954428Y-112832222D01*
X219862392Y-112488739D01*
X220124093Y-112418617D01*
X220181068Y-112631249D01*
X220900747Y-112438411D01*
X220896822Y-112423763D01*
X221158524Y-112353640D01*
X221496447Y-113614787D01*
X222953070Y-113211765D01*
X223168123Y-113152220D01*
X223373672Y-113095217D01*
X223567399Y-113041408D01*
X223746984Y-112991439D01*
X223910104Y-112945959D01*
X224054440Y-112905617D01*
X224177671Y-112871062D01*
X224277476Y-112842943D01*
X224351535Y-112821907D01*
X224397528Y-112808603D01*
X224413131Y-112803697D01*
X224404385Y-112789315D01*
X224378117Y-112749521D01*
X224336023Y-112686790D01*
X224279798Y-112603596D01*
X224211139Y-112502414D01*
X224131743Y-112385719D01*
X224043304Y-112255983D01*
X223947520Y-112115683D01*
X223846087Y-111967291D01*
X223740699Y-111813283D01*
X223633054Y-111656133D01*
X223524847Y-111498314D01*
X223417776Y-111342302D01*
X223313535Y-111190571D01*
X223213822Y-111045594D01*
X223120330Y-110909847D01*
X223034759Y-110785804D01*
X222958802Y-110675939D01*
X222894157Y-110582726D01*
X222842520Y-110508639D01*
X222805585Y-110456154D01*
X222785050Y-110427744D01*
X222781433Y-110423317D01*
X222763610Y-110427151D01*
X222716682Y-110441315D01*
X222643477Y-110464861D01*
X222546820Y-110496835D01*
X222429539Y-110536288D01*
X222294462Y-110582269D01*
X222144415Y-110633828D01*
X221982226Y-110690014D01*
X221823265Y-110745483D01*
X221651687Y-110805527D01*
X221489183Y-110862329D01*
X221338645Y-110914885D01*
X221202967Y-110962186D01*
X221085046Y-111003226D01*
X220987774Y-111036996D01*
X220914045Y-111062490D01*
X220866754Y-111078700D01*
X220849146Y-111084530D01*
X220844241Y-111087399D01*
X220841159Y-111094289D01*
X220840422Y-111107355D01*
X220842556Y-111128748D01*
X220848086Y-111160619D01*
X220857536Y-111205122D01*
X220871431Y-111264407D01*
X220890295Y-111340627D01*
X220914652Y-111435933D01*
X220945028Y-111552477D01*
X220981947Y-111692412D01*
X221025934Y-111857890D01*
X221077513Y-112051061D01*
X221137208Y-112274078D01*
X221158524Y-112353640D01*
X220896822Y-112423763D01*
X220843773Y-112225779D01*
X220124093Y-112418617D01*
X219862392Y-112488739D01*
X219774739Y-112161612D01*
X220036440Y-112091489D01*
X220089032Y-112287766D01*
X220808711Y-112094928D01*
X220756119Y-111898652D01*
X220036440Y-112091489D01*
X219774739Y-112161612D01*
X219682703Y-111818129D01*
X219944404Y-111748006D01*
X219996996Y-111944282D01*
X220716675Y-111751445D01*
X220664083Y-111555169D01*
X219944404Y-111748006D01*
X219682703Y-111818129D01*
X219647641Y-111687278D01*
X219907710Y-111617593D01*
X220629022Y-111424318D01*
X220564752Y-111184460D01*
X220480659Y-111214102D01*
X220435486Y-111229917D01*
X220366050Y-111254096D01*
X220280100Y-111283946D01*
X220185385Y-111316775D01*
X220131843Y-111335305D01*
X219867120Y-111426866D01*
X219887416Y-111522230D01*
X219907710Y-111617593D01*
X219647641Y-111687278D01*
X219602971Y-111520567D01*
X219436699Y-111577492D01*
X219356976Y-111604320D01*
X219302771Y-111617817D01*
X219267297Y-111614817D01*
X219243767Y-111592155D01*
X219225393Y-111546663D01*
X219205388Y-111475176D01*
X219203659Y-111468778D01*
X219190275Y-111415609D01*
X219187781Y-111386165D01*
X219197521Y-111371676D01*
X219219775Y-111363658D01*
X219241086Y-111356677D01*
X219292251Y-111339266D01*
X219371146Y-111312163D01*
X219475654Y-111276102D01*
X219603652Y-111231818D01*
X219753020Y-111180047D01*
X219921638Y-111121526D01*
X220107385Y-111056989D01*
X220308138Y-110987172D01*
X220521781Y-110912810D01*
X220746189Y-110834641D01*
X220979243Y-110753398D01*
X220996195Y-110747486D01*
X221230691Y-110665723D01*
X221457300Y-110586744D01*
X221673839Y-110511308D01*
X221878127Y-110440175D01*
X222067983Y-110374101D01*
X222241226Y-110313845D01*
X222395673Y-110260167D01*
X222529143Y-110213824D01*
X222639457Y-110175576D01*
X222724430Y-110146178D01*
X222781883Y-110126392D01*
X222809634Y-110116976D01*
X222810117Y-110116819D01*
X222889160Y-110091193D01*
X223870909Y-111519845D01*
G36*
X225593986Y-114971871D02*
G01*
X225633030Y-115118753D01*
X225669962Y-115259715D01*
X225703680Y-115390397D01*
X225733079Y-115506440D01*
X225757058Y-115603485D01*
X225774515Y-115677172D01*
X225784346Y-115723142D01*
X225785046Y-115727088D01*
X225804202Y-115840287D01*
X225122861Y-116019537D01*
X224972557Y-116058939D01*
X224829083Y-116096284D01*
X224696498Y-116130536D01*
X224578865Y-116160655D01*
X224480245Y-116185605D01*
X224404700Y-116204345D01*
X224356293Y-116215840D01*
X224345889Y-116218085D01*
X224250259Y-116237384D01*
X224182434Y-115984260D01*
X224702678Y-115858955D01*
X224706908Y-115852434D01*
X225108745Y-115744763D01*
X225301105Y-115693910D01*
X225493464Y-115643058D01*
X225400612Y-115296529D01*
X225340756Y-115383912D01*
X225303459Y-115439614D01*
X225256702Y-115511205D01*
X225208876Y-115585796D01*
X225194822Y-115608029D01*
X225108745Y-115744763D01*
X224706908Y-115852434D01*
X225002972Y-115396094D01*
X225303267Y-114933232D01*
X225160381Y-114399976D01*
X225422083Y-114329853D01*
X225593986Y-114971871D01*
G37*
X225593986Y-114971871D02*
X225633030Y-115118753D01*
X225669962Y-115259715D01*
X225703680Y-115390397D01*
X225733079Y-115506440D01*
X225757058Y-115603485D01*
X225774515Y-115677172D01*
X225784346Y-115723142D01*
X225785046Y-115727088D01*
X225804202Y-115840287D01*
X225122861Y-116019537D01*
X224972557Y-116058939D01*
X224829083Y-116096284D01*
X224696498Y-116130536D01*
X224578865Y-116160655D01*
X224480245Y-116185605D01*
X224404700Y-116204345D01*
X224356293Y-116215840D01*
X224345889Y-116218085D01*
X224250259Y-116237384D01*
X224182434Y-115984260D01*
X224702678Y-115858955D01*
X224706908Y-115852434D01*
X225108745Y-115744763D01*
X225301105Y-115693910D01*
X225493464Y-115643058D01*
X225400612Y-115296529D01*
X225340756Y-115383912D01*
X225303459Y-115439614D01*
X225256702Y-115511205D01*
X225208876Y-115585796D01*
X225194822Y-115608029D01*
X225108745Y-115744763D01*
X224706908Y-115852434D01*
X225002972Y-115396094D01*
X225303267Y-114933232D01*
X225160381Y-114399976D01*
X225422083Y-114329853D01*
X225593986Y-114971871D01*
G36*
X223090636Y-114743767D02*
G01*
X223216067Y-114764772D01*
X223330892Y-114784438D01*
X223430789Y-114801988D01*
X223511433Y-114816648D01*
X223568502Y-114827644D01*
X223597670Y-114834198D01*
X223600244Y-114835128D01*
X223605116Y-114853112D01*
X223612589Y-114900100D01*
X223622166Y-114971373D01*
X223633352Y-115062211D01*
X223645648Y-115167895D01*
X223658558Y-115283704D01*
X223671585Y-115404920D01*
X223684235Y-115526821D01*
X223696007Y-115644688D01*
X223706408Y-115753802D01*
X223714939Y-115849442D01*
X223721105Y-115926889D01*
X223724409Y-115981422D01*
X223724353Y-116008323D01*
X223723875Y-116010008D01*
X223705771Y-116016181D01*
X223664297Y-116023650D01*
X223609852Y-116031174D01*
X223552838Y-116037511D01*
X223503654Y-116041421D01*
X223472702Y-116041664D01*
X223467904Y-116040547D01*
X223463918Y-116022960D01*
X223457334Y-115976025D01*
X223448657Y-115904120D01*
X223438387Y-115811620D01*
X223427028Y-115702905D01*
X223415085Y-115582350D01*
X223414145Y-115572601D01*
X223402252Y-115450297D01*
X223391132Y-115338560D01*
X223381260Y-115241971D01*
X223373113Y-115165109D01*
X223367166Y-115112552D01*
X223363898Y-115088883D01*
X223363805Y-115088511D01*
X223346658Y-115080749D01*
X223302305Y-115068936D01*
X223237008Y-115054228D01*
X223157022Y-115037781D01*
X223068610Y-115020752D01*
X222978027Y-115004299D01*
X222891535Y-114989579D01*
X222815390Y-114977747D01*
X222755853Y-114969962D01*
X222719182Y-114967380D01*
X222712262Y-114968079D01*
X222691963Y-114983563D01*
X222659162Y-115018109D01*
X222619958Y-115064090D01*
X222580449Y-115113878D01*
X222546733Y-115159843D01*
X222524909Y-115194361D01*
X222520074Y-115208473D01*
X222529482Y-115227824D01*
X222553750Y-115272767D01*
X222590793Y-115339574D01*
X222638519Y-115424519D01*
X222694842Y-115523873D01*
X222757674Y-115633909D01*
X222788235Y-115687169D01*
X222852847Y-115800142D01*
X222911387Y-115903538D01*
X222961863Y-115993761D01*
X223002287Y-116067212D01*
X223030669Y-116120292D01*
X223045016Y-116149404D01*
X223046332Y-116153811D01*
X223030181Y-116165788D01*
X222992078Y-116189478D01*
X222939681Y-116220153D01*
X222929580Y-116225906D01*
X222876422Y-116256086D01*
X222836958Y-116278554D01*
X222818361Y-116289225D01*
X222817777Y-116289583D01*
X222809656Y-116275504D01*
X222786578Y-116235282D01*
X222750409Y-116172169D01*
X222703011Y-116089417D01*
X222646246Y-115990280D01*
X222581978Y-115878009D01*
X222512070Y-115755857D01*
X222510312Y-115752786D01*
X222439645Y-115629028D01*
X222374132Y-115513785D01*
X222315731Y-115410540D01*
X222266401Y-115322778D01*
X222228097Y-115253978D01*
X222202778Y-115207625D01*
X222192435Y-115187290D01*
X222190851Y-115177268D01*
X222194337Y-115163665D01*
X222205049Y-115143645D01*
X222225144Y-115114366D01*
X222256777Y-115072993D01*
X222302103Y-115016687D01*
X222363281Y-114942610D01*
X222442464Y-114847924D01*
X222523098Y-114752015D01*
X222598645Y-114662270D01*
X223090636Y-114743767D01*
G37*
X223090636Y-114743767D02*
X223216067Y-114764772D01*
X223330892Y-114784438D01*
X223430789Y-114801988D01*
X223511433Y-114816648D01*
X223568502Y-114827644D01*
X223597670Y-114834198D01*
X223600244Y-114835128D01*
X223605116Y-114853112D01*
X223612589Y-114900100D01*
X223622166Y-114971373D01*
X223633352Y-115062211D01*
X223645648Y-115167895D01*
X223658558Y-115283704D01*
X223671585Y-115404920D01*
X223684235Y-115526821D01*
X223696007Y-115644688D01*
X223706408Y-115753802D01*
X223714939Y-115849442D01*
X223721105Y-115926889D01*
X223724409Y-115981422D01*
X223724353Y-116008323D01*
X223723875Y-116010008D01*
X223705771Y-116016181D01*
X223664297Y-116023650D01*
X223609852Y-116031174D01*
X223552838Y-116037511D01*
X223503654Y-116041421D01*
X223472702Y-116041664D01*
X223467904Y-116040547D01*
X223463918Y-116022960D01*
X223457334Y-115976025D01*
X223448657Y-115904120D01*
X223438387Y-115811620D01*
X223427028Y-115702905D01*
X223415085Y-115582350D01*
X223414145Y-115572601D01*
X223402252Y-115450297D01*
X223391132Y-115338560D01*
X223381260Y-115241971D01*
X223373113Y-115165109D01*
X223367166Y-115112552D01*
X223363898Y-115088883D01*
X223363805Y-115088511D01*
X223346658Y-115080749D01*
X223302305Y-115068936D01*
X223237008Y-115054228D01*
X223157022Y-115037781D01*
X223068610Y-115020752D01*
X222978027Y-115004299D01*
X222891535Y-114989579D01*
X222815390Y-114977747D01*
X222755853Y-114969962D01*
X222719182Y-114967380D01*
X222712262Y-114968079D01*
X222691963Y-114983563D01*
X222659162Y-115018109D01*
X222619958Y-115064090D01*
X222580449Y-115113878D01*
X222546733Y-115159843D01*
X222524909Y-115194361D01*
X222520074Y-115208473D01*
X222529482Y-115227824D01*
X222553750Y-115272767D01*
X222590793Y-115339574D01*
X222638519Y-115424519D01*
X222694842Y-115523873D01*
X222757674Y-115633909D01*
X222788235Y-115687169D01*
X222852847Y-115800142D01*
X222911387Y-115903538D01*
X222961863Y-115993761D01*
X223002287Y-116067212D01*
X223030669Y-116120292D01*
X223045016Y-116149404D01*
X223046332Y-116153811D01*
X223030181Y-116165788D01*
X222992078Y-116189478D01*
X222939681Y-116220153D01*
X222929580Y-116225906D01*
X222876422Y-116256086D01*
X222836958Y-116278554D01*
X222818361Y-116289225D01*
X222817777Y-116289583D01*
X222809656Y-116275504D01*
X222786578Y-116235282D01*
X222750409Y-116172169D01*
X222703011Y-116089417D01*
X222646246Y-115990280D01*
X222581978Y-115878009D01*
X222512070Y-115755857D01*
X222510312Y-115752786D01*
X222439645Y-115629028D01*
X222374132Y-115513785D01*
X222315731Y-115410540D01*
X222266401Y-115322778D01*
X222228097Y-115253978D01*
X222202778Y-115207625D01*
X222192435Y-115187290D01*
X222190851Y-115177268D01*
X222194337Y-115163665D01*
X222205049Y-115143645D01*
X222225144Y-115114366D01*
X222256777Y-115072993D01*
X222302103Y-115016687D01*
X222363281Y-114942610D01*
X222442464Y-114847924D01*
X222523098Y-114752015D01*
X222598645Y-114662270D01*
X223090636Y-114743767D01*
G36*
X222601970Y-111094613D02*
G01*
X222609325Y-111109891D01*
X222629436Y-111152531D01*
X222660740Y-111219207D01*
X222701680Y-111306587D01*
X222750694Y-111411340D01*
X222806224Y-111530140D01*
X222866708Y-111659655D01*
X222879348Y-111686732D01*
X223154720Y-112276730D01*
X223105966Y-112371064D01*
X223072459Y-112434847D01*
X223030825Y-112512500D01*
X222983758Y-112599170D01*
X222933950Y-112690008D01*
X222884098Y-112780162D01*
X222836894Y-112864782D01*
X222795032Y-112939016D01*
X222761204Y-112998015D01*
X222738107Y-113036927D01*
X222728433Y-113050901D01*
X222710431Y-113049602D01*
X222662846Y-113046087D01*
X222589869Y-113040668D01*
X222495690Y-113033656D01*
X222384501Y-113025364D01*
X222260488Y-113016102D01*
X222211585Y-113012447D01*
X222083703Y-113002742D01*
X221966955Y-112993603D01*
X221865555Y-112985383D01*
X221783721Y-112978435D01*
X221725669Y-112973110D01*
X221695614Y-112969760D01*
X221692431Y-112969091D01*
X221688473Y-112952041D01*
X221680408Y-112905538D01*
X221668834Y-112833666D01*
X221661501Y-112786520D01*
X221925869Y-112715683D01*
X221943890Y-112717509D01*
X221989250Y-112721176D01*
X222055499Y-112726224D01*
X222136187Y-112732189D01*
X222224865Y-112738611D01*
X222315084Y-112745031D01*
X222400393Y-112750985D01*
X222474343Y-112756014D01*
X222530484Y-112759654D01*
X222562367Y-112761447D01*
X222567052Y-112761531D01*
X222578360Y-112747139D01*
X222603029Y-112707973D01*
X222638120Y-112648949D01*
X222680694Y-112574981D01*
X222714491Y-112514944D01*
X222771360Y-112410329D01*
X222810383Y-112332064D01*
X222832408Y-112278251D01*
X222838279Y-112247001D01*
X222836728Y-112241144D01*
X222825599Y-112218184D01*
X222802441Y-112169213D01*
X222769465Y-112098948D01*
X222728880Y-112012106D01*
X222682897Y-111913403D01*
X222655422Y-111854298D01*
X222607043Y-111750362D01*
X222562483Y-111655059D01*
X222524033Y-111573247D01*
X222493977Y-111509788D01*
X222474606Y-111469537D01*
X222469343Y-111459070D01*
X222449812Y-111422420D01*
X222114485Y-111525010D01*
X222013865Y-111556058D01*
X221924921Y-111584011D01*
X221852503Y-111607300D01*
X221801459Y-111624362D01*
X221776640Y-111633629D01*
X221775053Y-111634608D01*
X221776234Y-111652420D01*
X221781597Y-111698747D01*
X221790465Y-111768745D01*
X221802164Y-111857568D01*
X221816015Y-111960371D01*
X221831345Y-112072307D01*
X221847476Y-112188533D01*
X221863734Y-112304203D01*
X221879441Y-112414470D01*
X221893922Y-112514490D01*
X221906501Y-112599416D01*
X221916502Y-112664405D01*
X221923249Y-112704610D01*
X221925869Y-112715683D01*
X221661501Y-112786520D01*
X221654345Y-112740510D01*
X221637541Y-112630154D01*
X221619013Y-112506683D01*
X221599359Y-112374183D01*
X221579177Y-112236737D01*
X221559060Y-112098432D01*
X221539605Y-111963350D01*
X221521408Y-111835580D01*
X221505065Y-111719202D01*
X221491171Y-111618304D01*
X221480324Y-111536969D01*
X221473117Y-111479284D01*
X221470149Y-111449331D01*
X221470242Y-111446102D01*
X221486304Y-111439896D01*
X221530221Y-111425222D01*
X221597510Y-111403470D01*
X221683691Y-111376032D01*
X221784282Y-111344299D01*
X221894803Y-111309664D01*
X222010773Y-111273518D01*
X222127711Y-111237251D01*
X222241137Y-111202257D01*
X222346568Y-111169928D01*
X222439525Y-111141653D01*
X222515527Y-111118826D01*
X222570093Y-111102837D01*
X222598741Y-111095079D01*
X222601970Y-111094613D01*
G37*
X222601970Y-111094613D02*
X222609325Y-111109891D01*
X222629436Y-111152531D01*
X222660740Y-111219207D01*
X222701680Y-111306587D01*
X222750694Y-111411340D01*
X222806224Y-111530140D01*
X222866708Y-111659655D01*
X222879348Y-111686732D01*
X223154720Y-112276730D01*
X223105966Y-112371064D01*
X223072459Y-112434847D01*
X223030825Y-112512500D01*
X222983758Y-112599170D01*
X222933950Y-112690008D01*
X222884098Y-112780162D01*
X222836894Y-112864782D01*
X222795032Y-112939016D01*
X222761204Y-112998015D01*
X222738107Y-113036927D01*
X222728433Y-113050901D01*
X222710431Y-113049602D01*
X222662846Y-113046087D01*
X222589869Y-113040668D01*
X222495690Y-113033656D01*
X222384501Y-113025364D01*
X222260488Y-113016102D01*
X222211585Y-113012447D01*
X222083703Y-113002742D01*
X221966955Y-112993603D01*
X221865555Y-112985383D01*
X221783721Y-112978435D01*
X221725669Y-112973110D01*
X221695614Y-112969760D01*
X221692431Y-112969091D01*
X221688473Y-112952041D01*
X221680408Y-112905538D01*
X221668834Y-112833666D01*
X221661501Y-112786520D01*
X221925869Y-112715683D01*
X221943890Y-112717509D01*
X221989250Y-112721176D01*
X222055499Y-112726224D01*
X222136187Y-112732189D01*
X222224865Y-112738611D01*
X222315084Y-112745031D01*
X222400393Y-112750985D01*
X222474343Y-112756014D01*
X222530484Y-112759654D01*
X222562367Y-112761447D01*
X222567052Y-112761531D01*
X222578360Y-112747139D01*
X222603029Y-112707973D01*
X222638120Y-112648949D01*
X222680694Y-112574981D01*
X222714491Y-112514944D01*
X222771360Y-112410329D01*
X222810383Y-112332064D01*
X222832408Y-112278251D01*
X222838279Y-112247001D01*
X222836728Y-112241144D01*
X222825599Y-112218184D01*
X222802441Y-112169213D01*
X222769465Y-112098948D01*
X222728880Y-112012106D01*
X222682897Y-111913403D01*
X222655422Y-111854298D01*
X222607043Y-111750362D01*
X222562483Y-111655059D01*
X222524033Y-111573247D01*
X222493977Y-111509788D01*
X222474606Y-111469537D01*
X222469343Y-111459070D01*
X222449812Y-111422420D01*
X222114485Y-111525010D01*
X222013865Y-111556058D01*
X221924921Y-111584011D01*
X221852503Y-111607300D01*
X221801459Y-111624362D01*
X221776640Y-111633629D01*
X221775053Y-111634608D01*
X221776234Y-111652420D01*
X221781597Y-111698747D01*
X221790465Y-111768745D01*
X221802164Y-111857568D01*
X221816015Y-111960371D01*
X221831345Y-112072307D01*
X221847476Y-112188533D01*
X221863734Y-112304203D01*
X221879441Y-112414470D01*
X221893922Y-112514490D01*
X221906501Y-112599416D01*
X221916502Y-112664405D01*
X221923249Y-112704610D01*
X221925869Y-112715683D01*
X221661501Y-112786520D01*
X221654345Y-112740510D01*
X221637541Y-112630154D01*
X221619013Y-112506683D01*
X221599359Y-112374183D01*
X221579177Y-112236737D01*
X221559060Y-112098432D01*
X221539605Y-111963350D01*
X221521408Y-111835580D01*
X221505065Y-111719202D01*
X221491171Y-111618304D01*
X221480324Y-111536969D01*
X221473117Y-111479284D01*
X221470149Y-111449331D01*
X221470242Y-111446102D01*
X221486304Y-111439896D01*
X221530221Y-111425222D01*
X221597510Y-111403470D01*
X221683691Y-111376032D01*
X221784282Y-111344299D01*
X221894803Y-111309664D01*
X222010773Y-111273518D01*
X222127711Y-111237251D01*
X222241137Y-111202257D01*
X222346568Y-111169928D01*
X222439525Y-111141653D01*
X222515527Y-111118826D01*
X222570093Y-111102837D01*
X222598741Y-111095079D01*
X222601970Y-111094613D01*
%LPC*%
G36*
G01*
X128229076Y-65782938D02*
X128229076Y-65782938D01*
G75*
G02*
X128518690Y-65580148I246202J-43412D01*
G01*
X129257296Y-65710384D01*
G75*
G02*
X129460086Y-65999998I-43412J-246202D01*
G01*
X129460086Y-65999998D01*
G75*
G02*
X129170472Y-66202788I-246202J43412D01*
G01*
X128431866Y-66072552D01*
G75*
G02*
X128229076Y-65782938I43412J246202D01*
G01*
G37*
G36*
G01*
X129706288Y-66043411D02*
X129706288Y-66043411D01*
G75*
G02*
X129995902Y-65840621I246202J-43412D01*
G01*
X130734508Y-65970857D01*
G75*
G02*
X130937298Y-66260471I-43412J-246202D01*
G01*
X130937298Y-66260471D01*
G75*
G02*
X130647684Y-66463261I-246202J43412D01*
G01*
X129909078Y-66333025D01*
G75*
G02*
X129706288Y-66043411I43412J246202D01*
G01*
G37*
G36*
G01*
X131183500Y-66303883D02*
X131183500Y-66303883D01*
G75*
G02*
X131473114Y-66101093I246202J-43412D01*
G01*
X132211720Y-66231329D01*
G75*
G02*
X132414510Y-66520943I-43412J-246202D01*
G01*
X132414510Y-66520943D01*
G75*
G02*
X132124896Y-66723733I-246202J43412D01*
G01*
X131386290Y-66593497D01*
G75*
G02*
X131183500Y-66303883I43412J246202D01*
G01*
G37*
G36*
G01*
X130749379Y-68765902D02*
X130749379Y-68765902D01*
G75*
G02*
X131038993Y-68563112I246202J-43412D01*
G01*
X131777599Y-68693348D01*
G75*
G02*
X131980389Y-68982962I-43412J-246202D01*
G01*
X131980389Y-68982962D01*
G75*
G02*
X131690775Y-69185752I-246202J43412D01*
G01*
X130952169Y-69055516D01*
G75*
G02*
X130749379Y-68765902I43412J246202D01*
G01*
G37*
G36*
G01*
X129272168Y-68505430D02*
X129272168Y-68505430D01*
G75*
G02*
X129561782Y-68302640I246202J-43412D01*
G01*
X130300388Y-68432876D01*
G75*
G02*
X130503178Y-68722490I-43412J-246202D01*
G01*
X130503178Y-68722490D01*
G75*
G02*
X130213564Y-68925280I-246202J43412D01*
G01*
X129474958Y-68795044D01*
G75*
G02*
X129272168Y-68505430I43412J246202D01*
G01*
G37*
G36*
G01*
X127794956Y-68244958D02*
X127794956Y-68244958D01*
G75*
G02*
X128084570Y-68042168I246202J-43412D01*
G01*
X128823176Y-68172404D01*
G75*
G02*
X129025966Y-68462018I-43412J-246202D01*
G01*
X129025966Y-68462018D01*
G75*
G02*
X128736352Y-68664808I-246202J43412D01*
G01*
X127997746Y-68534572D01*
G75*
G02*
X127794956Y-68244958I43412J246202D01*
G01*
G37*
G36*
G01*
X151684956Y-72444958D02*
X151684956Y-72444958D01*
G75*
G02*
X151974570Y-72242168I246202J-43412D01*
G01*
X152713176Y-72372404D01*
G75*
G02*
X152915966Y-72662018I-43412J-246202D01*
G01*
X152915966Y-72662018D01*
G75*
G02*
X152626352Y-72864808I-246202J43412D01*
G01*
X151887746Y-72734572D01*
G75*
G02*
X151684956Y-72444958I43412J246202D01*
G01*
G37*
G36*
G01*
X153162168Y-72705430D02*
X153162168Y-72705430D01*
G75*
G02*
X153451782Y-72502640I246202J-43412D01*
G01*
X154190388Y-72632876D01*
G75*
G02*
X154393178Y-72922490I-43412J-246202D01*
G01*
X154393178Y-72922490D01*
G75*
G02*
X154103564Y-73125280I-246202J43412D01*
G01*
X153364958Y-72995044D01*
G75*
G02*
X153162168Y-72705430I43412J246202D01*
G01*
G37*
G36*
G01*
X154639379Y-72965902D02*
X154639379Y-72965902D01*
G75*
G02*
X154928993Y-72763112I246202J-43412D01*
G01*
X155667599Y-72893348D01*
G75*
G02*
X155870389Y-73182962I-43412J-246202D01*
G01*
X155870389Y-73182962D01*
G75*
G02*
X155580775Y-73385752I-246202J43412D01*
G01*
X154842169Y-73255516D01*
G75*
G02*
X154639379Y-72965902I43412J246202D01*
G01*
G37*
G36*
G01*
X155073500Y-70503883D02*
X155073500Y-70503883D01*
G75*
G02*
X155363114Y-70301093I246202J-43412D01*
G01*
X156101720Y-70431329D01*
G75*
G02*
X156304510Y-70720943I-43412J-246202D01*
G01*
X156304510Y-70720943D01*
G75*
G02*
X156014896Y-70923733I-246202J43412D01*
G01*
X155276290Y-70793497D01*
G75*
G02*
X155073500Y-70503883I43412J246202D01*
G01*
G37*
G36*
G01*
X153596288Y-70243411D02*
X153596288Y-70243411D01*
G75*
G02*
X153885902Y-70040621I246202J-43412D01*
G01*
X154624508Y-70170857D01*
G75*
G02*
X154827298Y-70460471I-43412J-246202D01*
G01*
X154827298Y-70460471D01*
G75*
G02*
X154537684Y-70663261I-246202J43412D01*
G01*
X153799078Y-70533025D01*
G75*
G02*
X153596288Y-70243411I43412J246202D01*
G01*
G37*
G36*
G01*
X152119076Y-69982938D02*
X152119076Y-69982938D01*
G75*
G02*
X152408690Y-69780148I246202J-43412D01*
G01*
X153147296Y-69910384D01*
G75*
G02*
X153350086Y-70199998I-43412J-246202D01*
G01*
X153350086Y-70199998D01*
G75*
G02*
X153060472Y-70402788I-246202J43412D01*
G01*
X152321866Y-70272552D01*
G75*
G02*
X152119076Y-69982938I43412J246202D01*
G01*
G37*
D13*
X144660000Y-109680000D03*
D14*
X151110000Y-113404000D03*
X138210000Y-113404000D03*
X148960000Y-117128000D03*
X140360000Y-117128000D03*
X144660000Y-117128000D03*
X144660000Y-87334000D03*
X142510000Y-91058000D03*
X142510000Y-113404000D03*
X142510000Y-105955000D03*
X148960000Y-109680000D03*
X144660000Y-102231000D03*
X146810000Y-98507000D03*
X144660000Y-94782000D03*
X140360000Y-102231000D03*
X146810000Y-113404000D03*
X148960000Y-102231000D03*
X142510000Y-98507000D03*
X146810000Y-91058000D03*
X140360000Y-109680000D03*
X146810000Y-105955000D03*
X155313528Y-48440332D03*
X123086265Y-61496600D03*
X138557879Y-45219572D03*
X149750000Y-75250000D03*
X133000000Y-72000000D03*
X89570000Y-111250000D03*
X199750000Y-111250000D03*
X219710000Y-63810000D03*
X144660000Y-154500000D03*
X69610000Y-63810000D03*
M02*
