M48
; DRILL file {KiCad (5.1.9)-1} date 07/06/21 13:23:27
; FORMAT={-:-/ absolute / metric / decimal}
; #@! TF.CreationDate,2021-07-06T13:23:27+03:00
; #@! TF.GenerationSoftware,Kicad,Pcbnew,(5.1.9)-1
; #@! TF.FileFunction,NonPlated,1,2,NPTH
FMAT,2
METRIC
T1C0.500
T2C2.200
%
G90
G05
T2
X69.61Y-63.81
X89.57Y-111.25
X123.086Y-61.497
X133.0Y-72.0
X138.21Y-113.404
X138.558Y-45.22
X140.36Y-102.231
X140.36Y-109.68
X140.36Y-117.128
X142.51Y-91.058
X142.51Y-98.507
X142.51Y-105.955
X142.51Y-113.404
X144.66Y-87.334
X144.66Y-94.782
X144.66Y-102.231
X144.66Y-117.128
X144.66Y-154.5
X146.81Y-91.058
X146.81Y-98.507
X146.81Y-105.955
X146.81Y-113.404
X148.96Y-102.231
X148.96Y-109.68
X148.96Y-117.128
X149.75Y-75.25
X151.11Y-113.404
X155.314Y-48.44
X199.75Y-111.25
X219.71Y-63.81
T1
X128.041Y-68.288G85X128.78Y-68.419
G05
X128.475Y-65.826G85X129.214Y-65.957
G05
X129.518Y-68.549G85X130.257Y-68.679
G05
X129.952Y-66.087G85X130.691Y-66.217
G05
X130.996Y-68.809G85X131.734Y-68.94
G05
X131.43Y-66.347G85X132.168Y-66.478
G05
X151.931Y-72.488G85X152.67Y-72.619
G05
X152.365Y-70.026G85X153.104Y-70.157
G05
X153.408Y-72.749G85X154.147Y-72.879
G05
X153.842Y-70.287G85X154.581Y-70.417
G05
X154.886Y-73.009G85X155.624Y-73.14
G05
X155.32Y-70.547G85X156.058Y-70.678
G05
T0
M30
