%FSLAX45Y45*%
G04 Gerber Fmt 4.5, Leading zero omitted, Abs format (unit mm)*
G04 Created by KiCad (PCBNEW (5.1.9)-1) date 2021-07-05 22:29:36*
%MOMM*%
%LPD*%
G01*
G04 APERTURE LIST*
%TA.AperFunction,Profile*%
%ADD10C,0.100000*%
%TD*%
%ADD11C,0.200000*%
%ADD12C,0.300000*%
G04 APERTURE END LIST*
D10*
X10020000Y-5442500D02*
X10957500Y-5694000D01*
X18912500Y-5442500D02*
X18236000Y-5624000D01*
X23537500Y-5945000D02*
X25099500Y-5527000D01*
X20999500Y-5624000D02*
X21199555Y-5666006D01*
X21199555Y-5666006D02*
X21388300Y-5704729D01*
X21388300Y-5704729D02*
X21566085Y-5740292D01*
X21566085Y-5740292D02*
X21733264Y-5772816D01*
X21733264Y-5772816D02*
X21890188Y-5802424D01*
X21890188Y-5802424D02*
X22037209Y-5829238D01*
X22037209Y-5829238D02*
X22174680Y-5853379D01*
X22174680Y-5853379D02*
X22302953Y-5874969D01*
X22302953Y-5874969D02*
X22422380Y-5894130D01*
X22422380Y-5894130D02*
X22533312Y-5910985D01*
X22533312Y-5910985D02*
X22636103Y-5925655D01*
X22636103Y-5925655D02*
X22731103Y-5938262D01*
X22731103Y-5938262D02*
X22818666Y-5948928D01*
X22818666Y-5948928D02*
X22899144Y-5957775D01*
X22899144Y-5957775D02*
X22972888Y-5964925D01*
X22972888Y-5964925D02*
X23040250Y-5970500D01*
X23040250Y-5970500D02*
X23101583Y-5974622D01*
X23101583Y-5974622D02*
X23157239Y-5977412D01*
X23157239Y-5977412D02*
X23207570Y-5978994D01*
X23207570Y-5978994D02*
X23252928Y-5979488D01*
X23252928Y-5979488D02*
X23293665Y-5979017D01*
X23293665Y-5979017D02*
X23330133Y-5977703D01*
X23330133Y-5977703D02*
X23362685Y-5975667D01*
X23362685Y-5975667D02*
X23391672Y-5973031D01*
X23391672Y-5973031D02*
X23417447Y-5969918D01*
X23417447Y-5969918D02*
X23440361Y-5966450D01*
X23440361Y-5966450D02*
X23460767Y-5962747D01*
X23460767Y-5962747D02*
X23479017Y-5958933D01*
X23479017Y-5958933D02*
X23495464Y-5955130D01*
X23495464Y-5955130D02*
X23510458Y-5951458D01*
X23510458Y-5951458D02*
X23524353Y-5948041D01*
X23524353Y-5948041D02*
X23537500Y-5945000D01*
X18912500Y-5442500D02*
X18972749Y-5428868D01*
X18972749Y-5428868D02*
X19036474Y-5417792D01*
X19036474Y-5417792D02*
X19103359Y-5409140D01*
X19103359Y-5409140D02*
X19173088Y-5402782D01*
X19173088Y-5402782D02*
X19245346Y-5398587D01*
X19245346Y-5398587D02*
X19319818Y-5396422D01*
X19319818Y-5396422D02*
X19396188Y-5396158D01*
X19396188Y-5396158D02*
X19474141Y-5397664D01*
X19474141Y-5397664D02*
X19553360Y-5400808D01*
X19553360Y-5400808D02*
X19633531Y-5405460D01*
X19633531Y-5405460D02*
X19714339Y-5411487D01*
X19714339Y-5411487D02*
X19795467Y-5418761D01*
X19795467Y-5418761D02*
X19876600Y-5427148D01*
X19876600Y-5427148D02*
X19957423Y-5436519D01*
X19957423Y-5436519D02*
X20037619Y-5446743D01*
X20037619Y-5446743D02*
X20116875Y-5457688D01*
X20116875Y-5457688D02*
X20194874Y-5469223D01*
X20194874Y-5469223D02*
X20271300Y-5481217D01*
X20271300Y-5481217D02*
X20345839Y-5493540D01*
X20345839Y-5493540D02*
X20418174Y-5506060D01*
X20418174Y-5506060D02*
X20487990Y-5518646D01*
X20487990Y-5518646D02*
X20554972Y-5531167D01*
X20554972Y-5531167D02*
X20618805Y-5543493D01*
X20618805Y-5543493D02*
X20679172Y-5555492D01*
X20679172Y-5555492D02*
X20735758Y-5567033D01*
X20735758Y-5567033D02*
X20788248Y-5577986D01*
X20788248Y-5577986D02*
X20836327Y-5588219D01*
X20836327Y-5588219D02*
X20879678Y-5597600D01*
X20879678Y-5597600D02*
X20917986Y-5606001D01*
X20917986Y-5606001D02*
X20950936Y-5613288D01*
X20950936Y-5613288D02*
X20978213Y-5619331D01*
X20978213Y-5619331D02*
X20999500Y-5624000D01*
X7933000Y-5624000D02*
X7732923Y-5666006D01*
X7732923Y-5666006D02*
X7544118Y-5704729D01*
X7544118Y-5704729D02*
X7366236Y-5740292D01*
X7366236Y-5740292D02*
X7198929Y-5772816D01*
X7198929Y-5772816D02*
X7041849Y-5802424D01*
X7041849Y-5802424D02*
X6894648Y-5829238D01*
X6894648Y-5829238D02*
X6756978Y-5853379D01*
X6756978Y-5853379D02*
X6628492Y-5874969D01*
X6628492Y-5874969D02*
X6508841Y-5894130D01*
X6508841Y-5894130D02*
X6397677Y-5910985D01*
X6397677Y-5910985D02*
X6294652Y-5925655D01*
X6294652Y-5925655D02*
X6199419Y-5938262D01*
X6199419Y-5938262D02*
X6111629Y-5948928D01*
X6111629Y-5948928D02*
X6030934Y-5957775D01*
X6030934Y-5957775D02*
X5956986Y-5964925D01*
X5956986Y-5964925D02*
X5889437Y-5970500D01*
X5889437Y-5970500D02*
X5827940Y-5974622D01*
X5827940Y-5974622D02*
X5772146Y-5977412D01*
X5772146Y-5977412D02*
X5721708Y-5978994D01*
X5721708Y-5978994D02*
X5676276Y-5979488D01*
X5676276Y-5979488D02*
X5635504Y-5979017D01*
X5635504Y-5979017D02*
X5599043Y-5977703D01*
X5599043Y-5977703D02*
X5566546Y-5975667D01*
X5566546Y-5975667D02*
X5537664Y-5973031D01*
X5537664Y-5973031D02*
X5512049Y-5969918D01*
X5512049Y-5969918D02*
X5489354Y-5966450D01*
X5489354Y-5966450D02*
X5469230Y-5962747D01*
X5469230Y-5962747D02*
X5451329Y-5958933D01*
X5451329Y-5958933D02*
X5435304Y-5955130D01*
X5435304Y-5955130D02*
X5420806Y-5951458D01*
X5420806Y-5951458D02*
X5407487Y-5948041D01*
X5407487Y-5948041D02*
X5395000Y-5945000D01*
X5395000Y-5945000D02*
X3833000Y-5527000D01*
X10020000Y-5442500D02*
X9959751Y-5428868D01*
X9959751Y-5428868D02*
X9896026Y-5417792D01*
X9896026Y-5417792D02*
X9829141Y-5409140D01*
X9829141Y-5409140D02*
X9759412Y-5402782D01*
X9759412Y-5402782D02*
X9687154Y-5398587D01*
X9687154Y-5398587D02*
X9612682Y-5396422D01*
X9612682Y-5396422D02*
X9536312Y-5396158D01*
X9536312Y-5396158D02*
X9458359Y-5397664D01*
X9458359Y-5397664D02*
X9379140Y-5400808D01*
X9379140Y-5400808D02*
X9298969Y-5405460D01*
X9298969Y-5405460D02*
X9218161Y-5411487D01*
X9218161Y-5411487D02*
X9137033Y-5418761D01*
X9137033Y-5418761D02*
X9055900Y-5427148D01*
X9055900Y-5427148D02*
X8975077Y-5436519D01*
X8975077Y-5436519D02*
X8894881Y-5446743D01*
X8894881Y-5446743D02*
X8815625Y-5457688D01*
X8815625Y-5457688D02*
X8737626Y-5469223D01*
X8737626Y-5469223D02*
X8661200Y-5481217D01*
X8661200Y-5481217D02*
X8586661Y-5493540D01*
X8586661Y-5493540D02*
X8514326Y-5506060D01*
X8514326Y-5506060D02*
X8444510Y-5518646D01*
X8444510Y-5518646D02*
X8377527Y-5531167D01*
X8377527Y-5531167D02*
X8313695Y-5543493D01*
X8313695Y-5543493D02*
X8253328Y-5555492D01*
X8253328Y-5555492D02*
X8196742Y-5567033D01*
X8196742Y-5567033D02*
X8144252Y-5577986D01*
X8144252Y-5577986D02*
X8096173Y-5588219D01*
X8096173Y-5588219D02*
X8052822Y-5597600D01*
X8052822Y-5597600D02*
X8014514Y-5606001D01*
X8014514Y-5606001D02*
X7981564Y-5613288D01*
X7981564Y-5613288D02*
X7954287Y-5619331D01*
X7954287Y-5619331D02*
X7933000Y-5624000D01*
X6678000Y-13091000D02*
X6681750Y-13105824D01*
X6681750Y-13105824D02*
X6686249Y-13118889D01*
X6686249Y-13118889D02*
X6691497Y-13130333D01*
X6691497Y-13130333D02*
X6697492Y-13140297D01*
X6697492Y-13140297D02*
X6704235Y-13148919D01*
X6704235Y-13148919D02*
X6711724Y-13156338D01*
X6711724Y-13156338D02*
X6719958Y-13162694D01*
X6719958Y-13162694D02*
X6728937Y-13168125D01*
X6728937Y-13168125D02*
X6738661Y-13172771D01*
X6738661Y-13172771D02*
X6749128Y-13176771D01*
X6749128Y-13176771D02*
X6760337Y-13180265D01*
X6760337Y-13180265D02*
X6772289Y-13183391D01*
X6772289Y-13183391D02*
X6784982Y-13186288D01*
X6784982Y-13186288D02*
X6798415Y-13189096D01*
X6798415Y-13189096D02*
X6812588Y-13191953D01*
X6812588Y-13191953D02*
X6827500Y-13195000D01*
X3660000Y-5610000D02*
X2278000Y-10755000D01*
X3833000Y-5527000D02*
X3822740Y-5524658D01*
X3822740Y-5524658D02*
X3811580Y-5522938D01*
X3811580Y-5522938D02*
X3799696Y-5521920D01*
X3799696Y-5521920D02*
X3787266Y-5521688D01*
X3787266Y-5521688D02*
X3774466Y-5522322D01*
X3774466Y-5522322D02*
X3761475Y-5523906D01*
X3761475Y-5523906D02*
X3748468Y-5526521D01*
X3748468Y-5526521D02*
X3735625Y-5530250D01*
X3735625Y-5530250D02*
X3723121Y-5535174D01*
X3723121Y-5535174D02*
X3711135Y-5541375D01*
X3711135Y-5541375D02*
X3699842Y-5548936D01*
X3699842Y-5548936D02*
X3689422Y-5557938D01*
X3689422Y-5557938D02*
X3680050Y-5568463D01*
X3680050Y-5568463D02*
X3671904Y-5580594D01*
X3671904Y-5580594D02*
X3665162Y-5594412D01*
X3665162Y-5594412D02*
X3660000Y-5610000D01*
X2278000Y-10755000D02*
X2274653Y-10774156D01*
X2274653Y-10774156D02*
X2273486Y-10791906D01*
X2273486Y-10791906D02*
X2274315Y-10808297D01*
X2274315Y-10808297D02*
X2276953Y-10823375D01*
X2276953Y-10823375D02*
X2281214Y-10837188D01*
X2281214Y-10837188D02*
X2286912Y-10849781D01*
X2286912Y-10849781D02*
X2293861Y-10861203D01*
X2293861Y-10861203D02*
X2301875Y-10871500D01*
X2301875Y-10871500D02*
X2310768Y-10880719D01*
X2310768Y-10880719D02*
X2320354Y-10888906D01*
X2320354Y-10888906D02*
X2330446Y-10896109D01*
X2330446Y-10896109D02*
X2340859Y-10902375D01*
X2340859Y-10902375D02*
X2351407Y-10907750D01*
X2351407Y-10907750D02*
X2361904Y-10912281D01*
X2361904Y-10912281D02*
X2372164Y-10916016D01*
X2372164Y-10916016D02*
X2382000Y-10919000D01*
X26654000Y-10755000D02*
X26657347Y-10774156D01*
X26657347Y-10774156D02*
X26658514Y-10791906D01*
X26658514Y-10791906D02*
X26657685Y-10808297D01*
X26657685Y-10808297D02*
X26655047Y-10823375D01*
X26655047Y-10823375D02*
X26650786Y-10837188D01*
X26650786Y-10837188D02*
X26645088Y-10849781D01*
X26645088Y-10849781D02*
X26638139Y-10861203D01*
X26638139Y-10861203D02*
X26630125Y-10871500D01*
X26630125Y-10871500D02*
X26621232Y-10880719D01*
X26621232Y-10880719D02*
X26611646Y-10888906D01*
X26611646Y-10888906D02*
X26601554Y-10896109D01*
X26601554Y-10896109D02*
X26591141Y-10902375D01*
X26591141Y-10902375D02*
X26580592Y-10907750D01*
X26580592Y-10907750D02*
X26570096Y-10912281D01*
X26570096Y-10912281D02*
X26559836Y-10916016D01*
X26559836Y-10916016D02*
X26550000Y-10919000D01*
X25272000Y-5610000D02*
X26654000Y-10755000D01*
X25099000Y-5527000D02*
X25109259Y-5524658D01*
X25109259Y-5524658D02*
X25120420Y-5522938D01*
X25120420Y-5522938D02*
X25132304Y-5521920D01*
X25132304Y-5521920D02*
X25144734Y-5521688D01*
X25144734Y-5521688D02*
X25157534Y-5522322D01*
X25157534Y-5522322D02*
X25170525Y-5523906D01*
X25170525Y-5523906D02*
X25183531Y-5526521D01*
X25183531Y-5526521D02*
X25196375Y-5530250D01*
X25196375Y-5530250D02*
X25208879Y-5535174D01*
X25208879Y-5535174D02*
X25220865Y-5541375D01*
X25220865Y-5541375D02*
X25232157Y-5548936D01*
X25232157Y-5548936D02*
X25242578Y-5557938D01*
X25242578Y-5557938D02*
X25251950Y-5568463D01*
X25251950Y-5568463D02*
X25260096Y-5580594D01*
X25260096Y-5580594D02*
X25266838Y-5594412D01*
X25266838Y-5594412D02*
X25272000Y-5610000D01*
X13223000Y-16191000D02*
X13336306Y-16178467D01*
X13336306Y-16178467D02*
X13442718Y-16166742D01*
X13442718Y-16166742D02*
X13542696Y-16155826D01*
X13542696Y-16155826D02*
X13636699Y-16145719D01*
X13636699Y-16145719D02*
X13725187Y-16136420D01*
X13725187Y-16136420D02*
X13808620Y-16127930D01*
X13808620Y-16127930D02*
X13887456Y-16120248D01*
X13887456Y-16120248D02*
X13962156Y-16113375D01*
X13962156Y-16113375D02*
X14033180Y-16107310D01*
X14033180Y-16107310D02*
X14100986Y-16102055D01*
X14100986Y-16102055D02*
X14166034Y-16097607D01*
X14166034Y-16097607D02*
X14228785Y-16093969D01*
X14228785Y-16093969D02*
X14289697Y-16091139D01*
X14289697Y-16091139D02*
X14349231Y-16089117D01*
X14349231Y-16089117D02*
X14407845Y-16087904D01*
X14407845Y-16087904D02*
X14466000Y-16087500D01*
X14466000Y-16087500D02*
X14524155Y-16087904D01*
X14524155Y-16087904D02*
X14582769Y-16089117D01*
X14582769Y-16089117D02*
X14642302Y-16091139D01*
X14642302Y-16091139D02*
X14703215Y-16093969D01*
X14703215Y-16093969D02*
X14765965Y-16097607D01*
X14765965Y-16097607D02*
X14831014Y-16102055D01*
X14831014Y-16102055D02*
X14898820Y-16107310D01*
X14898820Y-16107310D02*
X14969844Y-16113375D01*
X14969844Y-16113375D02*
X15044544Y-16120248D01*
X15044544Y-16120248D02*
X15123380Y-16127930D01*
X15123380Y-16127930D02*
X15206813Y-16136420D01*
X15206813Y-16136420D02*
X15295301Y-16145719D01*
X15295301Y-16145719D02*
X15389304Y-16155826D01*
X15389304Y-16155826D02*
X15489282Y-16166742D01*
X15489282Y-16166742D02*
X15595694Y-16178467D01*
X15595694Y-16178467D02*
X15709000Y-16191000D01*
X15709000Y-16191000D02*
X15719326Y-16191298D01*
X15719326Y-16191298D02*
X15729595Y-16189482D01*
X15729595Y-16189482D02*
X15739959Y-16185704D01*
X15739959Y-16185704D02*
X15750572Y-16180119D01*
X15750572Y-16180119D02*
X15761587Y-16172879D01*
X15761587Y-16172879D02*
X15773158Y-16164138D01*
X15773158Y-16164138D02*
X15781256Y-16157553D01*
X15781256Y-16157553D02*
X15789714Y-16150413D01*
X15789714Y-16150413D02*
X15798578Y-16142766D01*
X15798578Y-16142766D02*
X15807893Y-16134655D01*
X15807893Y-16134655D02*
X15817705Y-16126127D01*
X15817705Y-16126127D02*
X15828059Y-16117227D01*
X15828059Y-16117227D02*
X15839000Y-16108000D01*
X6567000Y-12532000D02*
X6559496Y-12497127D01*
X6559496Y-12497127D02*
X6550882Y-12463196D01*
X6550882Y-12463196D02*
X6541189Y-12430203D01*
X6541189Y-12430203D02*
X6530449Y-12398146D01*
X6530449Y-12398146D02*
X6518694Y-12367024D01*
X6518694Y-12367024D02*
X6505955Y-12336832D01*
X6505955Y-12336832D02*
X6492266Y-12307570D01*
X6492266Y-12307570D02*
X6477656Y-12279234D01*
X6477656Y-12279234D02*
X6462159Y-12251823D01*
X6462159Y-12251823D02*
X6445806Y-12225334D01*
X6445806Y-12225334D02*
X6428629Y-12199764D01*
X6428629Y-12199764D02*
X6410660Y-12175111D01*
X6410660Y-12175111D02*
X6391931Y-12151373D01*
X6391931Y-12151373D02*
X6372473Y-12128548D01*
X6372473Y-12128548D02*
X6352319Y-12106633D01*
X6352319Y-12106633D02*
X6331500Y-12085625D01*
X6331500Y-12085625D02*
X6310048Y-12065522D01*
X6310048Y-12065522D02*
X6287996Y-12046323D01*
X6287996Y-12046323D02*
X6265374Y-12028024D01*
X6265374Y-12028024D02*
X6242215Y-12010623D01*
X6242215Y-12010623D02*
X6218550Y-11994118D01*
X6218550Y-11994118D02*
X6194412Y-11978506D01*
X6194412Y-11978506D02*
X6169833Y-11963785D01*
X6169833Y-11963785D02*
X6144844Y-11949953D01*
X6144844Y-11949953D02*
X6119476Y-11937007D01*
X6119476Y-11937007D02*
X6093763Y-11924945D01*
X6093763Y-11924945D02*
X6067736Y-11913764D01*
X6067736Y-11913764D02*
X6041426Y-11903463D01*
X6041426Y-11903463D02*
X6014865Y-11894038D01*
X6014865Y-11894038D02*
X5988086Y-11885487D01*
X5988086Y-11885487D02*
X5961121Y-11877809D01*
X5961121Y-11877809D02*
X5934000Y-11871000D01*
X6567000Y-12532000D02*
X6678000Y-13091000D01*
X22254000Y-13091000D02*
X22250250Y-13105824D01*
X22250250Y-13105824D02*
X22245751Y-13118889D01*
X22245751Y-13118889D02*
X22240503Y-13130333D01*
X22240503Y-13130333D02*
X22234508Y-13140297D01*
X22234508Y-13140297D02*
X22227765Y-13148919D01*
X22227765Y-13148919D02*
X22220276Y-13156338D01*
X22220276Y-13156338D02*
X22212042Y-13162694D01*
X22212042Y-13162694D02*
X22203063Y-13168125D01*
X22203063Y-13168125D02*
X22193339Y-13172771D01*
X22193339Y-13172771D02*
X22182872Y-13176771D01*
X22182872Y-13176771D02*
X22171662Y-13180265D01*
X22171662Y-13180265D02*
X22159711Y-13183391D01*
X22159711Y-13183391D02*
X22147018Y-13186288D01*
X22147018Y-13186288D02*
X22133585Y-13189096D01*
X22133585Y-13189096D02*
X22119412Y-13191953D01*
X22119412Y-13191953D02*
X22104500Y-13195000D01*
X22365000Y-12532000D02*
X22372503Y-12497127D01*
X22372503Y-12497127D02*
X22381118Y-12463196D01*
X22381118Y-12463196D02*
X22390811Y-12430203D01*
X22390811Y-12430203D02*
X22401551Y-12398146D01*
X22401551Y-12398146D02*
X22413306Y-12367024D01*
X22413306Y-12367024D02*
X22426044Y-12336832D01*
X22426044Y-12336832D02*
X22439734Y-12307570D01*
X22439734Y-12307570D02*
X22454344Y-12279234D01*
X22454344Y-12279234D02*
X22469841Y-12251823D01*
X22469841Y-12251823D02*
X22486194Y-12225334D01*
X22486194Y-12225334D02*
X22503371Y-12199764D01*
X22503371Y-12199764D02*
X22521340Y-12175111D01*
X22521340Y-12175111D02*
X22540069Y-12151373D01*
X22540069Y-12151373D02*
X22559527Y-12128548D01*
X22559527Y-12128548D02*
X22579681Y-12106633D01*
X22579681Y-12106633D02*
X22600500Y-12085625D01*
X22600500Y-12085625D02*
X22621952Y-12065522D01*
X22621952Y-12065522D02*
X22644004Y-12046323D01*
X22644004Y-12046323D02*
X22666626Y-12028024D01*
X22666626Y-12028024D02*
X22689785Y-12010623D01*
X22689785Y-12010623D02*
X22713449Y-11994118D01*
X22713449Y-11994118D02*
X22737587Y-11978506D01*
X22737587Y-11978506D02*
X22762167Y-11963785D01*
X22762167Y-11963785D02*
X22787156Y-11949953D01*
X22787156Y-11949953D02*
X22812523Y-11937007D01*
X22812523Y-11937007D02*
X22838237Y-11924945D01*
X22838237Y-11924945D02*
X22864264Y-11913764D01*
X22864264Y-11913764D02*
X22890574Y-11903463D01*
X22890574Y-11903463D02*
X22917134Y-11894038D01*
X22917134Y-11894038D02*
X22943913Y-11885487D01*
X22943913Y-11885487D02*
X22970879Y-11877809D01*
X22970879Y-11877809D02*
X22998000Y-11871000D01*
X22365000Y-12532000D02*
X22254000Y-13091000D01*
X13223000Y-16191000D02*
X13212674Y-16191298D01*
X13212674Y-16191298D02*
X13202405Y-16189482D01*
X13202405Y-16189482D02*
X13192041Y-16185704D01*
X13192041Y-16185704D02*
X13181428Y-16180119D01*
X13181428Y-16180119D02*
X13170412Y-16172879D01*
X13170412Y-16172879D02*
X13158842Y-16164138D01*
X13158842Y-16164138D02*
X13150744Y-16157553D01*
X13150744Y-16157553D02*
X13142286Y-16150413D01*
X13142286Y-16150413D02*
X13133422Y-16142766D01*
X13133422Y-16142766D02*
X13124107Y-16134655D01*
X13124107Y-16134655D02*
X13114295Y-16126127D01*
X13114295Y-16126127D02*
X13103941Y-16117227D01*
X13103941Y-16117227D02*
X13093000Y-16108000D01*
X26550000Y-10919000D02*
X22998000Y-11871000D01*
X22104500Y-13195000D02*
X21811846Y-13255910D01*
X21811846Y-13255910D02*
X21532917Y-13315132D01*
X21532917Y-13315132D02*
X21266966Y-13373030D01*
X21266966Y-13373030D02*
X21013244Y-13429967D01*
X21013244Y-13429967D02*
X20771005Y-13486305D01*
X20771005Y-13486305D02*
X20539500Y-13542407D01*
X20539500Y-13542407D02*
X20317982Y-13598638D01*
X20317982Y-13598638D02*
X20105703Y-13655359D01*
X20105703Y-13655359D02*
X19901916Y-13712935D01*
X19901916Y-13712935D02*
X19705873Y-13771727D01*
X19705873Y-13771727D02*
X19516827Y-13832100D01*
X19516827Y-13832100D02*
X19334029Y-13894416D01*
X19334029Y-13894416D02*
X19156733Y-13959038D01*
X19156733Y-13959038D02*
X18984190Y-14026330D01*
X18984190Y-14026330D02*
X18815653Y-14096655D01*
X18815653Y-14096655D02*
X18650375Y-14170375D01*
X18650375Y-14170375D02*
X18487607Y-14247854D01*
X18487607Y-14247854D02*
X18326603Y-14329455D01*
X18326603Y-14329455D02*
X18166614Y-14415541D01*
X18166614Y-14415541D02*
X18006893Y-14506475D01*
X18006893Y-14506475D02*
X17846692Y-14602620D01*
X17846692Y-14602620D02*
X17685263Y-14704339D01*
X17685263Y-14704339D02*
X17521860Y-14811996D01*
X17521860Y-14811996D02*
X17355734Y-14925953D01*
X17355734Y-14925953D02*
X17186138Y-15046574D01*
X17186138Y-15046574D02*
X17012324Y-15174221D01*
X17012324Y-15174221D02*
X16833545Y-15309259D01*
X16833545Y-15309259D02*
X16649053Y-15452049D01*
X16649053Y-15452049D02*
X16458100Y-15602955D01*
X16458100Y-15602955D02*
X16259938Y-15762340D01*
X16259938Y-15762340D02*
X16053821Y-15930567D01*
X16053821Y-15930567D02*
X15839000Y-16108000D01*
X16993000Y-5687000D02*
X17029934Y-5693582D01*
X17029934Y-5693582D02*
X17066341Y-5699817D01*
X17066341Y-5699817D02*
X17102286Y-5705682D01*
X17102286Y-5705682D02*
X17137834Y-5711158D01*
X17137834Y-5711158D02*
X17173051Y-5716225D01*
X17173051Y-5716225D02*
X17208000Y-5720862D01*
X17208000Y-5720862D02*
X17242748Y-5725049D01*
X17242748Y-5725049D02*
X17277359Y-5728766D01*
X17277359Y-5728766D02*
X17311899Y-5731991D01*
X17311899Y-5731991D02*
X17346431Y-5734706D01*
X17346431Y-5734706D02*
X17381022Y-5736890D01*
X17381022Y-5736890D02*
X17415736Y-5738521D01*
X17415736Y-5738521D02*
X17450639Y-5739581D01*
X17450639Y-5739581D02*
X17485794Y-5740048D01*
X17485794Y-5740048D02*
X17521268Y-5739903D01*
X17521268Y-5739903D02*
X17557125Y-5739125D01*
X17557125Y-5739125D02*
X17593430Y-5737693D01*
X17593430Y-5737693D02*
X17630249Y-5735588D01*
X17630249Y-5735588D02*
X17667646Y-5732789D01*
X17667646Y-5732789D02*
X17705686Y-5729275D01*
X17705686Y-5729275D02*
X17744434Y-5725027D01*
X17744434Y-5725027D02*
X17783955Y-5720024D01*
X17783955Y-5720024D02*
X17824315Y-5714246D01*
X17824315Y-5714246D02*
X17865578Y-5707672D01*
X17865578Y-5707672D02*
X17907809Y-5700282D01*
X17907809Y-5700282D02*
X17951074Y-5692056D01*
X17951074Y-5692056D02*
X17995437Y-5682973D01*
X17995437Y-5682973D02*
X18040963Y-5673014D01*
X18040963Y-5673014D02*
X18087717Y-5662157D01*
X18087717Y-5662157D02*
X18135765Y-5650382D01*
X18135765Y-5650382D02*
X18185171Y-5637670D01*
X18185171Y-5637670D02*
X18236000Y-5624000D01*
X12606000Y-6747000D02*
X12620201Y-6749027D01*
X12620201Y-6749027D02*
X12633017Y-6749507D01*
X12633017Y-6749507D02*
X12644489Y-6748474D01*
X12644489Y-6748474D02*
X12654656Y-6745963D01*
X12654656Y-6745963D02*
X12666250Y-6740375D01*
X12666250Y-6740375D02*
X12675687Y-6732303D01*
X12675687Y-6732303D02*
X12683062Y-6721828D01*
X12683062Y-6721828D02*
X12687297Y-6712445D01*
X12687297Y-6712445D02*
X12690463Y-6701791D01*
X12690463Y-6701791D02*
X12692000Y-6694000D01*
X11575000Y-6233000D02*
X11596531Y-6269569D01*
X11596531Y-6269569D02*
X11617303Y-6303775D01*
X11617303Y-6303775D02*
X11637394Y-6335711D01*
X11637394Y-6335711D02*
X11656881Y-6365469D01*
X11656881Y-6365469D02*
X11675843Y-6393140D01*
X11675843Y-6393140D02*
X11694358Y-6418818D01*
X11694358Y-6418818D02*
X11712504Y-6442595D01*
X11712504Y-6442595D02*
X11730359Y-6464562D01*
X11730359Y-6464562D02*
X11748002Y-6484813D01*
X11748002Y-6484813D02*
X11765511Y-6503439D01*
X11765511Y-6503439D02*
X11782964Y-6520533D01*
X11782964Y-6520533D02*
X11800439Y-6536187D01*
X11800439Y-6536187D02*
X11818015Y-6550494D01*
X11818015Y-6550494D02*
X11835769Y-6563545D01*
X11835769Y-6563545D02*
X11853779Y-6575433D01*
X11853779Y-6575433D02*
X11872125Y-6586250D01*
X11872125Y-6586250D02*
X11890884Y-6596089D01*
X11890884Y-6596089D02*
X11910133Y-6605041D01*
X11910133Y-6605041D02*
X11929953Y-6613199D01*
X11929953Y-6613199D02*
X11950420Y-6620656D01*
X11950420Y-6620656D02*
X11971613Y-6627504D01*
X11971613Y-6627504D02*
X11993610Y-6633834D01*
X11993610Y-6633834D02*
X12016489Y-6639739D01*
X12016489Y-6639739D02*
X12040328Y-6645312D01*
X12040328Y-6645312D02*
X12065206Y-6650645D01*
X12065206Y-6650645D02*
X12091201Y-6655830D01*
X12091201Y-6655830D02*
X12118391Y-6660959D01*
X12118391Y-6660959D02*
X12146853Y-6666125D01*
X12146853Y-6666125D02*
X12176668Y-6671420D01*
X12176668Y-6671420D02*
X12207911Y-6676935D01*
X12207911Y-6676935D02*
X12240663Y-6682765D01*
X12240663Y-6682765D02*
X12275000Y-6689000D01*
X11575000Y-6233000D02*
X11556953Y-6200893D01*
X11556953Y-6200893D02*
X11539869Y-6170345D01*
X11539869Y-6170345D02*
X11523642Y-6141300D01*
X11523642Y-6141300D02*
X11508169Y-6113699D01*
X11508169Y-6113699D02*
X11493345Y-6087486D01*
X11493345Y-6087486D02*
X11479066Y-6062602D01*
X11479066Y-6062602D02*
X11465228Y-6038990D01*
X11465228Y-6038990D02*
X11451726Y-6016594D01*
X11451726Y-6016594D02*
X11438457Y-5995354D01*
X11438457Y-5995354D02*
X11425315Y-5975214D01*
X11425315Y-5975214D02*
X11412198Y-5956117D01*
X11412198Y-5956117D02*
X11398999Y-5938004D01*
X11398999Y-5938004D02*
X11385615Y-5920818D01*
X11385615Y-5920818D02*
X11371943Y-5904502D01*
X11371943Y-5904502D02*
X11357876Y-5888999D01*
X11357876Y-5888999D02*
X11343312Y-5874250D01*
X11343312Y-5874250D02*
X11328146Y-5860198D01*
X11328146Y-5860198D02*
X11312274Y-5846787D01*
X11312274Y-5846787D02*
X11295591Y-5833957D01*
X11295591Y-5833957D02*
X11277993Y-5821652D01*
X11277993Y-5821652D02*
X11259376Y-5809815D01*
X11259376Y-5809815D02*
X11239636Y-5798387D01*
X11239636Y-5798387D02*
X11218667Y-5787312D01*
X11218667Y-5787312D02*
X11196367Y-5776531D01*
X11196367Y-5776531D02*
X11172631Y-5765988D01*
X11172631Y-5765988D02*
X11147354Y-5755624D01*
X11147354Y-5755624D02*
X11120432Y-5745383D01*
X11120432Y-5745383D02*
X11091761Y-5735207D01*
X11091761Y-5735207D02*
X11061236Y-5725038D01*
X11061236Y-5725038D02*
X11028754Y-5714819D01*
X11028754Y-5714819D02*
X10994210Y-5704492D01*
X10994210Y-5704492D02*
X10957500Y-5694000D01*
X2382000Y-10919000D02*
X5934000Y-11871000D01*
X12606000Y-6747000D02*
X12595899Y-6745230D01*
X12595899Y-6745230D02*
X12583807Y-6743111D01*
X12583807Y-6743111D02*
X12571908Y-6741026D01*
X12571908Y-6741026D02*
X12556372Y-6738304D01*
X12556372Y-6738304D02*
X12536715Y-6734859D01*
X12536715Y-6734859D02*
X12525189Y-6732840D01*
X12525189Y-6732840D02*
X12512452Y-6730608D01*
X12512452Y-6730608D02*
X12498441Y-6728153D01*
X12498441Y-6728153D02*
X12483097Y-6725464D01*
X12483097Y-6725464D02*
X12466359Y-6722531D01*
X12466359Y-6722531D02*
X12448167Y-6719343D01*
X12448167Y-6719343D02*
X12428459Y-6715890D01*
X12428459Y-6715890D02*
X12407176Y-6712161D01*
X12407176Y-6712161D02*
X12384256Y-6708144D01*
X12384256Y-6708144D02*
X12359639Y-6703831D01*
X12359639Y-6703831D02*
X12333264Y-6699209D01*
X12333264Y-6699209D02*
X12305072Y-6694269D01*
X12305072Y-6694269D02*
X12275000Y-6689000D01*
X16993000Y-5687000D02*
X16919035Y-5674295D01*
X16919035Y-5674295D02*
X16831523Y-5659180D01*
X16831523Y-5659180D02*
X16731505Y-5641838D01*
X16731505Y-5641838D02*
X16620025Y-5622455D01*
X16620025Y-5622455D02*
X16498125Y-5601215D01*
X16498125Y-5601215D02*
X16366847Y-5578303D01*
X16366847Y-5578303D02*
X16227234Y-5553905D01*
X16227234Y-5553905D02*
X16080328Y-5528203D01*
X16080328Y-5528203D02*
X15927171Y-5501384D01*
X15927171Y-5501384D02*
X15768807Y-5473632D01*
X15768807Y-5473632D02*
X15606276Y-5445132D01*
X15606276Y-5445132D02*
X15440623Y-5416068D01*
X15440623Y-5416068D02*
X15272889Y-5386626D01*
X15272889Y-5386626D02*
X15104116Y-5356990D01*
X15104116Y-5356990D02*
X14935347Y-5327345D01*
X14935347Y-5327345D02*
X14767625Y-5297875D01*
X14767625Y-5297875D02*
X14601992Y-5268766D01*
X14601992Y-5268766D02*
X14439489Y-5240201D01*
X14439489Y-5240201D02*
X14281161Y-5212367D01*
X14281161Y-5212367D02*
X14128049Y-5185447D01*
X14128049Y-5185447D02*
X13981195Y-5159627D01*
X13981195Y-5159627D02*
X13841642Y-5135091D01*
X13841642Y-5135091D02*
X13710433Y-5112023D01*
X13710433Y-5112023D02*
X13588609Y-5090609D01*
X13588609Y-5090609D02*
X13477214Y-5071034D01*
X13477214Y-5071034D02*
X13377289Y-5053482D01*
X13377289Y-5053482D02*
X13289878Y-5038137D01*
X13289878Y-5038137D02*
X13216021Y-5025186D01*
X13216021Y-5025186D02*
X13156763Y-5014811D01*
X13156763Y-5014811D02*
X13113145Y-5007199D01*
X13113145Y-5007199D02*
X13086210Y-5002534D01*
X13086210Y-5002534D02*
X13077000Y-5001000D01*
X6827500Y-13195000D02*
X7120154Y-13255910D01*
X7120154Y-13255910D02*
X7399083Y-13315132D01*
X7399083Y-13315132D02*
X7665034Y-13373030D01*
X7665034Y-13373030D02*
X7918756Y-13429967D01*
X7918756Y-13429967D02*
X8160995Y-13486305D01*
X8160995Y-13486305D02*
X8392500Y-13542407D01*
X8392500Y-13542407D02*
X8614018Y-13598638D01*
X8614018Y-13598638D02*
X8826297Y-13655359D01*
X8826297Y-13655359D02*
X9030084Y-13712935D01*
X9030084Y-13712935D02*
X9226127Y-13771727D01*
X9226127Y-13771727D02*
X9415173Y-13832100D01*
X9415173Y-13832100D02*
X9597971Y-13894416D01*
X9597971Y-13894416D02*
X9775267Y-13959038D01*
X9775267Y-13959038D02*
X9947810Y-14026330D01*
X9947810Y-14026330D02*
X10116347Y-14096655D01*
X10116347Y-14096655D02*
X10281625Y-14170375D01*
X10281625Y-14170375D02*
X10444393Y-14247854D01*
X10444393Y-14247854D02*
X10605397Y-14329455D01*
X10605397Y-14329455D02*
X10765386Y-14415541D01*
X10765386Y-14415541D02*
X10925107Y-14506475D01*
X10925107Y-14506475D02*
X11085308Y-14602620D01*
X11085308Y-14602620D02*
X11246736Y-14704339D01*
X11246736Y-14704339D02*
X11410140Y-14811996D01*
X11410140Y-14811996D02*
X11576266Y-14925953D01*
X11576266Y-14925953D02*
X11745862Y-15046574D01*
X11745862Y-15046574D02*
X11919675Y-15174221D01*
X11919675Y-15174221D02*
X12098455Y-15309259D01*
X12098455Y-15309259D02*
X12282947Y-15452049D01*
X12282947Y-15452049D02*
X12473900Y-15602955D01*
X12473900Y-15602955D02*
X12672062Y-15762340D01*
X12672062Y-15762340D02*
X12878179Y-15930567D01*
X12878179Y-15930567D02*
X13093000Y-16108000D01*
X12980000Y-5050000D02*
X12953835Y-5199359D01*
X12953835Y-5199359D02*
X12929305Y-5339386D01*
X12929305Y-5339386D02*
X12906356Y-5470382D01*
X12906356Y-5470382D02*
X12884937Y-5592648D01*
X12884937Y-5592648D02*
X12864995Y-5706486D01*
X12864995Y-5706486D02*
X12846476Y-5812196D01*
X12846476Y-5812196D02*
X12829329Y-5910080D01*
X12829329Y-5910080D02*
X12813500Y-6000437D01*
X12813500Y-6000437D02*
X12798936Y-6083571D01*
X12798936Y-6083571D02*
X12785586Y-6159780D01*
X12785586Y-6159780D02*
X12773395Y-6229367D01*
X12773395Y-6229367D02*
X12762312Y-6292633D01*
X12762312Y-6292633D02*
X12752284Y-6349878D01*
X12752284Y-6349878D02*
X12743258Y-6401403D01*
X12743258Y-6401403D02*
X12735181Y-6447510D01*
X12735181Y-6447510D02*
X12728000Y-6488500D01*
X12728000Y-6488500D02*
X12721663Y-6524673D01*
X12721663Y-6524673D02*
X12716117Y-6556331D01*
X12716117Y-6556331D02*
X12711309Y-6583774D01*
X12711309Y-6583774D02*
X12707187Y-6607305D01*
X12707187Y-6607305D02*
X12703698Y-6627222D01*
X12703698Y-6627222D02*
X12700789Y-6643829D01*
X12700789Y-6643829D02*
X12698407Y-6657425D01*
X12698407Y-6657425D02*
X12696500Y-6668312D01*
X12696500Y-6668312D02*
X12693898Y-6683163D01*
X12693898Y-6683163D02*
X12692070Y-6693599D01*
X12692070Y-6693599D02*
X12692000Y-6694000D01*
X13077000Y-5001000D02*
X13066757Y-4999631D01*
X13066757Y-4999631D02*
X13055908Y-4999009D01*
X13055908Y-4999009D02*
X13044747Y-4999304D01*
X13044747Y-4999304D02*
X13033564Y-5000684D01*
X13033564Y-5000684D02*
X13022652Y-5003315D01*
X13022652Y-5003315D02*
X13012301Y-5007368D01*
X13012301Y-5007368D02*
X13002805Y-5013009D01*
X13002805Y-5013009D02*
X12994453Y-5020406D01*
X12994453Y-5020406D02*
X12987539Y-5029729D01*
X12987539Y-5029729D02*
X12982353Y-5041144D01*
X12982353Y-5041144D02*
X12980000Y-5050000D01*
D11*
X6851000Y-6271000D02*
X7071000Y-6491000D01*
X7071000Y-6271000D02*
X6851000Y-6491000D01*
X8847000Y-11015000D02*
X9067000Y-11235000D01*
X9067000Y-11015000D02*
X8847000Y-11235000D01*
X13190000Y-7090000D02*
X13410000Y-7310000D01*
X13410000Y-7090000D02*
X13190000Y-7310000D01*
X14356000Y-10858000D02*
X14576000Y-11078000D01*
X14576000Y-10858000D02*
X14356000Y-11078000D01*
X14356000Y-15340000D02*
X14576000Y-15560000D01*
X14576000Y-15340000D02*
X14356000Y-15560000D01*
X14865000Y-7415000D02*
X15085000Y-7635000D01*
X15085000Y-7415000D02*
X14865000Y-7635000D01*
X16415000Y-5790000D02*
X16635000Y-6010000D01*
X16635000Y-5790000D02*
X16415000Y-6010000D01*
X19865000Y-11015000D02*
X20085000Y-11235000D01*
X20085000Y-11015000D02*
X19865000Y-11235000D01*
X21861000Y-6271000D02*
X22081000Y-6491000D01*
X22081000Y-6271000D02*
X21861000Y-6491000D01*
D12*
X2535428Y-16666714D02*
X2535428Y-16366714D01*
X2606857Y-16366714D01*
X2649714Y-16381000D01*
X2678286Y-16409571D01*
X2692571Y-16438143D01*
X2706857Y-16495286D01*
X2706857Y-16538143D01*
X2692571Y-16595286D01*
X2678286Y-16623857D01*
X2649714Y-16652429D01*
X2606857Y-16666714D01*
X2535428Y-16666714D01*
X2835428Y-16666714D02*
X2835428Y-16466714D01*
X2835428Y-16523857D02*
X2849714Y-16495286D01*
X2864000Y-16481000D01*
X2892571Y-16466714D01*
X2921143Y-16466714D01*
X3021143Y-16666714D02*
X3021143Y-16466714D01*
X3021143Y-16366714D02*
X3006857Y-16381000D01*
X3021143Y-16395286D01*
X3035428Y-16381000D01*
X3021143Y-16366714D01*
X3021143Y-16395286D01*
X3206857Y-16666714D02*
X3178286Y-16652429D01*
X3164000Y-16623857D01*
X3164000Y-16366714D01*
X3364000Y-16666714D02*
X3335428Y-16652429D01*
X3321143Y-16623857D01*
X3321143Y-16366714D01*
X3706857Y-16666714D02*
X3706857Y-16366714D01*
X3806857Y-16581000D01*
X3906857Y-16366714D01*
X3906857Y-16666714D01*
X4178286Y-16666714D02*
X4178286Y-16509571D01*
X4164000Y-16481000D01*
X4135428Y-16466714D01*
X4078286Y-16466714D01*
X4049714Y-16481000D01*
X4178286Y-16652429D02*
X4149714Y-16666714D01*
X4078286Y-16666714D01*
X4049714Y-16652429D01*
X4035428Y-16623857D01*
X4035428Y-16595286D01*
X4049714Y-16566714D01*
X4078286Y-16552429D01*
X4149714Y-16552429D01*
X4178286Y-16538143D01*
X4321143Y-16466714D02*
X4321143Y-16766714D01*
X4321143Y-16481000D02*
X4349714Y-16466714D01*
X4406857Y-16466714D01*
X4435428Y-16481000D01*
X4449714Y-16495286D01*
X4464000Y-16523857D01*
X4464000Y-16609571D01*
X4449714Y-16638143D01*
X4435428Y-16652429D01*
X4406857Y-16666714D01*
X4349714Y-16666714D01*
X4321143Y-16652429D01*
X4592571Y-16638143D02*
X4606857Y-16652429D01*
X4592571Y-16666714D01*
X4578286Y-16652429D01*
X4592571Y-16638143D01*
X4592571Y-16666714D01*
X4592571Y-16481000D02*
X4606857Y-16495286D01*
X4592571Y-16509571D01*
X4578286Y-16495286D01*
X4592571Y-16481000D01*
X4592571Y-16509571D01*
X2029000Y-17051000D02*
X2249000Y-17271000D01*
X2249000Y-17051000D02*
X2029000Y-17271000D01*
X2521143Y-17025286D02*
X2535428Y-17011000D01*
X2564000Y-16996714D01*
X2635428Y-16996714D01*
X2664000Y-17011000D01*
X2678286Y-17025286D01*
X2692571Y-17053857D01*
X2692571Y-17082429D01*
X2678286Y-17125286D01*
X2506857Y-17296714D01*
X2692571Y-17296714D01*
X2821143Y-17268143D02*
X2835428Y-17282429D01*
X2821143Y-17296714D01*
X2806857Y-17282429D01*
X2821143Y-17268143D01*
X2821143Y-17296714D01*
X2949714Y-17025286D02*
X2964000Y-17011000D01*
X2992571Y-16996714D01*
X3064000Y-16996714D01*
X3092571Y-17011000D01*
X3106857Y-17025286D01*
X3121143Y-17053857D01*
X3121143Y-17082429D01*
X3106857Y-17125286D01*
X2935428Y-17296714D01*
X3121143Y-17296714D01*
X3306857Y-16996714D02*
X3335428Y-16996714D01*
X3364000Y-17011000D01*
X3378286Y-17025286D01*
X3392571Y-17053857D01*
X3406857Y-17111000D01*
X3406857Y-17182429D01*
X3392571Y-17239572D01*
X3378286Y-17268143D01*
X3364000Y-17282429D01*
X3335428Y-17296714D01*
X3306857Y-17296714D01*
X3278286Y-17282429D01*
X3264000Y-17268143D01*
X3249714Y-17239572D01*
X3235428Y-17182429D01*
X3235428Y-17111000D01*
X3249714Y-17053857D01*
X3264000Y-17025286D01*
X3278286Y-17011000D01*
X3306857Y-16996714D01*
X3535428Y-17296714D02*
X3535428Y-17096714D01*
X3535428Y-17125286D02*
X3549714Y-17111000D01*
X3578286Y-17096714D01*
X3621143Y-17096714D01*
X3649714Y-17111000D01*
X3664000Y-17139572D01*
X3664000Y-17296714D01*
X3664000Y-17139572D02*
X3678286Y-17111000D01*
X3706857Y-17096714D01*
X3749714Y-17096714D01*
X3778286Y-17111000D01*
X3792571Y-17139572D01*
X3792571Y-17296714D01*
X3935428Y-17296714D02*
X3935428Y-17096714D01*
X3935428Y-17125286D02*
X3949714Y-17111000D01*
X3978286Y-17096714D01*
X4021143Y-17096714D01*
X4049714Y-17111000D01*
X4064000Y-17139572D01*
X4064000Y-17296714D01*
X4064000Y-17139572D02*
X4078286Y-17111000D01*
X4106857Y-17096714D01*
X4149714Y-17096714D01*
X4178286Y-17111000D01*
X4192571Y-17139572D01*
X4192571Y-17296714D01*
X4778286Y-16982429D02*
X4521143Y-17368143D01*
X5164000Y-16996714D02*
X5192571Y-16996714D01*
X5221143Y-17011000D01*
X5235428Y-17025286D01*
X5249714Y-17053857D01*
X5264000Y-17111000D01*
X5264000Y-17182429D01*
X5249714Y-17239572D01*
X5235428Y-17268143D01*
X5221143Y-17282429D01*
X5192571Y-17296714D01*
X5164000Y-17296714D01*
X5135428Y-17282429D01*
X5121143Y-17268143D01*
X5106857Y-17239572D01*
X5092571Y-17182429D01*
X5092571Y-17111000D01*
X5106857Y-17053857D01*
X5121143Y-17025286D01*
X5135428Y-17011000D01*
X5164000Y-16996714D01*
X5392571Y-17268143D02*
X5406857Y-17282429D01*
X5392571Y-17296714D01*
X5378286Y-17282429D01*
X5392571Y-17268143D01*
X5392571Y-17296714D01*
X5592571Y-16996714D02*
X5621143Y-16996714D01*
X5649714Y-17011000D01*
X5664000Y-17025286D01*
X5678286Y-17053857D01*
X5692571Y-17111000D01*
X5692571Y-17182429D01*
X5678286Y-17239572D01*
X5664000Y-17268143D01*
X5649714Y-17282429D01*
X5621143Y-17296714D01*
X5592571Y-17296714D01*
X5564000Y-17282429D01*
X5549714Y-17268143D01*
X5535428Y-17239572D01*
X5521143Y-17182429D01*
X5521143Y-17111000D01*
X5535428Y-17053857D01*
X5549714Y-17025286D01*
X5564000Y-17011000D01*
X5592571Y-16996714D01*
X5864000Y-17125286D02*
X5835428Y-17111000D01*
X5821143Y-17096714D01*
X5806857Y-17068143D01*
X5806857Y-17053857D01*
X5821143Y-17025286D01*
X5835428Y-17011000D01*
X5864000Y-16996714D01*
X5921143Y-16996714D01*
X5949714Y-17011000D01*
X5964000Y-17025286D01*
X5978286Y-17053857D01*
X5978286Y-17068143D01*
X5964000Y-17096714D01*
X5949714Y-17111000D01*
X5921143Y-17125286D01*
X5864000Y-17125286D01*
X5835428Y-17139572D01*
X5821143Y-17153857D01*
X5806857Y-17182429D01*
X5806857Y-17239572D01*
X5821143Y-17268143D01*
X5835428Y-17282429D01*
X5864000Y-17296714D01*
X5921143Y-17296714D01*
X5949714Y-17282429D01*
X5964000Y-17268143D01*
X5978286Y-17239572D01*
X5978286Y-17182429D01*
X5964000Y-17153857D01*
X5949714Y-17139572D01*
X5921143Y-17125286D01*
X6078286Y-16996714D02*
X6278286Y-16996714D01*
X6149714Y-17296714D01*
X6378286Y-16996714D02*
X6378286Y-17053857D01*
X6492571Y-16996714D02*
X6492571Y-17053857D01*
X6935428Y-17411000D02*
X6921143Y-17396714D01*
X6892571Y-17353857D01*
X6878286Y-17325286D01*
X6864000Y-17282429D01*
X6849714Y-17211000D01*
X6849714Y-17153857D01*
X6864000Y-17082429D01*
X6878286Y-17039572D01*
X6892571Y-17011000D01*
X6921143Y-16968143D01*
X6935428Y-16953857D01*
X7064000Y-17296714D02*
X7121143Y-17296714D01*
X7149714Y-17282429D01*
X7164000Y-17268143D01*
X7192571Y-17225286D01*
X7206857Y-17168143D01*
X7206857Y-17053857D01*
X7192571Y-17025286D01*
X7178286Y-17011000D01*
X7149714Y-16996714D01*
X7092571Y-16996714D01*
X7064000Y-17011000D01*
X7049714Y-17025286D01*
X7035428Y-17053857D01*
X7035428Y-17125286D01*
X7049714Y-17153857D01*
X7064000Y-17168143D01*
X7092571Y-17182429D01*
X7149714Y-17182429D01*
X7178286Y-17168143D01*
X7192571Y-17153857D01*
X7206857Y-17125286D01*
X7564000Y-17296714D02*
X7564000Y-16996714D01*
X7692571Y-17296714D02*
X7692571Y-17139572D01*
X7678286Y-17111000D01*
X7649714Y-17096714D01*
X7606857Y-17096714D01*
X7578286Y-17111000D01*
X7564000Y-17125286D01*
X7878286Y-17296714D02*
X7849714Y-17282429D01*
X7835428Y-17268143D01*
X7821143Y-17239572D01*
X7821143Y-17153857D01*
X7835428Y-17125286D01*
X7849714Y-17111000D01*
X7878286Y-17096714D01*
X7921143Y-17096714D01*
X7949714Y-17111000D01*
X7964000Y-17125286D01*
X7978286Y-17153857D01*
X7978286Y-17239572D01*
X7964000Y-17268143D01*
X7949714Y-17282429D01*
X7921143Y-17296714D01*
X7878286Y-17296714D01*
X8149714Y-17296714D02*
X8121143Y-17282429D01*
X8106857Y-17253857D01*
X8106857Y-16996714D01*
X8378286Y-17282429D02*
X8349714Y-17296714D01*
X8292571Y-17296714D01*
X8264000Y-17282429D01*
X8249714Y-17253857D01*
X8249714Y-17139572D01*
X8264000Y-17111000D01*
X8292571Y-17096714D01*
X8349714Y-17096714D01*
X8378286Y-17111000D01*
X8392571Y-17139572D01*
X8392571Y-17168143D01*
X8249714Y-17196714D01*
X8506857Y-17282429D02*
X8535428Y-17296714D01*
X8592571Y-17296714D01*
X8621143Y-17282429D01*
X8635428Y-17253857D01*
X8635428Y-17239572D01*
X8621143Y-17211000D01*
X8592571Y-17196714D01*
X8549714Y-17196714D01*
X8521143Y-17182429D01*
X8506857Y-17153857D01*
X8506857Y-17139572D01*
X8521143Y-17111000D01*
X8549714Y-17096714D01*
X8592571Y-17096714D01*
X8621143Y-17111000D01*
X8735428Y-17411000D02*
X8749714Y-17396714D01*
X8778286Y-17353857D01*
X8792571Y-17325286D01*
X8806857Y-17282429D01*
X8821143Y-17211000D01*
X8821143Y-17153857D01*
X8806857Y-17082429D01*
X8792571Y-17039572D01*
X8778286Y-17011000D01*
X8749714Y-16968143D01*
X8735428Y-16953857D01*
M02*
