%FSLAX45Y45*%
G04 Gerber Fmt 4.5, Leading zero omitted, Abs format (unit mm)*
G04 Created by KiCad (PCBNEW (6.0.0)) date 2023-08-21 19:05:25*
%MOMM*%
%LPD*%
G01*
G04 APERTURE LIST*
%ADD10C,0.100000*%
%TA.AperFunction,Profile*%
%ADD11C,0.100000*%
%TD*%
%ADD12C,0.200000*%
%ADD13C,0.030000*%
%ADD14C,0.080000*%
%ADD15C,0.109220*%
%ADD16C,0.127000*%
%ADD17C,0.150000*%
G04 APERTURE END LIST*
D10*
X12606000Y-6747000D02*
X12595899Y-6745230D01*
X12583807Y-6743111D01*
X12571908Y-6741026D01*
X12556372Y-6738304D01*
X12536715Y-6734859D01*
X12525189Y-6732840D01*
X12512452Y-6730608D01*
X12498441Y-6728153D01*
X12483097Y-6725464D01*
X12466359Y-6722531D01*
X12448167Y-6719343D01*
X12428459Y-6715890D01*
X12407176Y-6712161D01*
X12384256Y-6708144D01*
X12359639Y-6703831D01*
X12333264Y-6699209D01*
X12305072Y-6694269D01*
X12275000Y-6689000D01*
X11575000Y-6233000D02*
X11556953Y-6200893D01*
X11539869Y-6170345D01*
X11523642Y-6141300D01*
X11508169Y-6113699D01*
X11493345Y-6087486D01*
X11479066Y-6062602D01*
X11465228Y-6038990D01*
X11451726Y-6016594D01*
X11438457Y-5995354D01*
X11425315Y-5975214D01*
X11412198Y-5956117D01*
X11398999Y-5938004D01*
X11385615Y-5920818D01*
X11371943Y-5904502D01*
X11357876Y-5888999D01*
X11343312Y-5874250D01*
X11328146Y-5860198D01*
X11312274Y-5846787D01*
X11295591Y-5833957D01*
X11277993Y-5821652D01*
X11259376Y-5809815D01*
X11239636Y-5798387D01*
X11218667Y-5787312D01*
X11196367Y-5776531D01*
X11172631Y-5765988D01*
X11147354Y-5755624D01*
X11120432Y-5745383D01*
X11091761Y-5735207D01*
X11061236Y-5725038D01*
X11028754Y-5714819D01*
X10994210Y-5704492D01*
X10957500Y-5694000D01*
X16993000Y-5687000D02*
X17029934Y-5693582D01*
X17066341Y-5699817D01*
X17102286Y-5705682D01*
X17137834Y-5711158D01*
X17173051Y-5716225D01*
X17208000Y-5720862D01*
X17242748Y-5725049D01*
X17277359Y-5728766D01*
X17311899Y-5731991D01*
X17346431Y-5734706D01*
X17381022Y-5736890D01*
X17415736Y-5738521D01*
X17450639Y-5739581D01*
X17485794Y-5740048D01*
X17521268Y-5739903D01*
X17557125Y-5739125D01*
X17593430Y-5737693D01*
X17630249Y-5735588D01*
X17667646Y-5732789D01*
X17705686Y-5729275D01*
X17744434Y-5725027D01*
X17783955Y-5720024D01*
X17824315Y-5714246D01*
X17865578Y-5707672D01*
X17907809Y-5700282D01*
X17951074Y-5692056D01*
X17995437Y-5682973D01*
X18040963Y-5673014D01*
X18087717Y-5662157D01*
X18135765Y-5650382D01*
X18185171Y-5637670D01*
X18236000Y-5624000D01*
X22104500Y-13195000D02*
X21811846Y-13255910D01*
X21532917Y-13315132D01*
X21266966Y-13373030D01*
X21013244Y-13429967D01*
X20771005Y-13486305D01*
X20539500Y-13542407D01*
X20317982Y-13598638D01*
X20105703Y-13655359D01*
X19901916Y-13712935D01*
X19705873Y-13771727D01*
X19516827Y-13832100D01*
X19334029Y-13894416D01*
X19156733Y-13959038D01*
X18984190Y-14026330D01*
X18815653Y-14096655D01*
X18650375Y-14170375D01*
X18487607Y-14247854D01*
X18326603Y-14329455D01*
X18166614Y-14415541D01*
X18006893Y-14506475D01*
X17846692Y-14602620D01*
X17685263Y-14704339D01*
X17521860Y-14811996D01*
X17355734Y-14925953D01*
X17186138Y-15046574D01*
X17012324Y-15174221D01*
X16833545Y-15309259D01*
X16649053Y-15452049D01*
X16458100Y-15602955D01*
X16259938Y-15762340D01*
X16053821Y-15930567D01*
X15839000Y-16108000D01*
D11*
X26550000Y-10919000D02*
X22998000Y-11871000D01*
D10*
X13223000Y-16191000D02*
X13212674Y-16191298D01*
X13202405Y-16189482D01*
X13192041Y-16185704D01*
X13181428Y-16180119D01*
X13170412Y-16172879D01*
X13158842Y-16164138D01*
X13150744Y-16157553D01*
X13142286Y-16150413D01*
X13133422Y-16142766D01*
X13124107Y-16134655D01*
X13114295Y-16126127D01*
X13103941Y-16117227D01*
X13093000Y-16108000D01*
X13223000Y-16191000D02*
X13336306Y-16178467D01*
X13442718Y-16166742D01*
X13542696Y-16155826D01*
X13636699Y-16145719D01*
X13725187Y-16136420D01*
X13808620Y-16127930D01*
X13887456Y-16120248D01*
X13962156Y-16113375D01*
X14033180Y-16107310D01*
X14100986Y-16102055D01*
X14166034Y-16097607D01*
X14228785Y-16093969D01*
X14289697Y-16091139D01*
X14349231Y-16089117D01*
X14407845Y-16087904D01*
X14466000Y-16087500D01*
X14524155Y-16087904D01*
X14582769Y-16089117D01*
X14642302Y-16091139D01*
X14703215Y-16093969D01*
X14765965Y-16097607D01*
X14831014Y-16102055D01*
X14898820Y-16107310D01*
X14969844Y-16113375D01*
X15044544Y-16120248D01*
X15123380Y-16127930D01*
X15206813Y-16136420D01*
X15295301Y-16145719D01*
X15389304Y-16155826D01*
X15489282Y-16166742D01*
X15595694Y-16178467D01*
X15709000Y-16191000D01*
D11*
X6567000Y-12532000D02*
X6678000Y-13091000D01*
D10*
X22365000Y-12532000D02*
X22372503Y-12497127D01*
X22381118Y-12463196D01*
X22390811Y-12430203D01*
X22401551Y-12398146D01*
X22413306Y-12367024D01*
X22426044Y-12336832D01*
X22439734Y-12307570D01*
X22454344Y-12279234D01*
X22469841Y-12251823D01*
X22486194Y-12225334D01*
X22503371Y-12199764D01*
X22521340Y-12175111D01*
X22540069Y-12151373D01*
X22559527Y-12128548D01*
X22579681Y-12106633D01*
X22600500Y-12085625D01*
X22621952Y-12065522D01*
X22644004Y-12046323D01*
X22666626Y-12028024D01*
X22689785Y-12010623D01*
X22713449Y-11994118D01*
X22737587Y-11978506D01*
X22762167Y-11963785D01*
X22787156Y-11949953D01*
X22812523Y-11937007D01*
X22838237Y-11924945D01*
X22864264Y-11913764D01*
X22890574Y-11903463D01*
X22917134Y-11894038D01*
X22943913Y-11885487D01*
X22970879Y-11877809D01*
X22998000Y-11871000D01*
X22254000Y-13091000D02*
X22250250Y-13105824D01*
X22245751Y-13118889D01*
X22240503Y-13130333D01*
X22234508Y-13140297D01*
X22227765Y-13148919D01*
X22220276Y-13156338D01*
X22212042Y-13162694D01*
X22203063Y-13168125D01*
X22193339Y-13172771D01*
X22182872Y-13176771D01*
X22171662Y-13180265D01*
X22159711Y-13183391D01*
X22147018Y-13186288D01*
X22133585Y-13189096D01*
X22119412Y-13191953D01*
X22104500Y-13195000D01*
X6567000Y-12532000D02*
X6559496Y-12497127D01*
X6550882Y-12463196D01*
X6541189Y-12430203D01*
X6530449Y-12398146D01*
X6518694Y-12367024D01*
X6505955Y-12336832D01*
X6492266Y-12307570D01*
X6477656Y-12279234D01*
X6462159Y-12251823D01*
X6445806Y-12225334D01*
X6428629Y-12199764D01*
X6410660Y-12175111D01*
X6391931Y-12151373D01*
X6372473Y-12128548D01*
X6352319Y-12106633D01*
X6331500Y-12085625D01*
X6310048Y-12065522D01*
X6287996Y-12046323D01*
X6265374Y-12028024D01*
X6242215Y-12010623D01*
X6218550Y-11994118D01*
X6194412Y-11978506D01*
X6169833Y-11963785D01*
X6144844Y-11949953D01*
X6119476Y-11937007D01*
X6093763Y-11924945D01*
X6067736Y-11913764D01*
X6041426Y-11903463D01*
X6014865Y-11894038D01*
X5988086Y-11885487D01*
X5961121Y-11877809D01*
X5934000Y-11871000D01*
X15709000Y-16191000D02*
X15719326Y-16191298D01*
X15729595Y-16189482D01*
X15739959Y-16185704D01*
X15750572Y-16180119D01*
X15761587Y-16172879D01*
X15773158Y-16164138D01*
X15781256Y-16157553D01*
X15789714Y-16150413D01*
X15798578Y-16142766D01*
X15807893Y-16134655D01*
X15817705Y-16126127D01*
X15828059Y-16117227D01*
X15839000Y-16108000D01*
X25099500Y-5527000D02*
X25109671Y-5524658D01*
X25120755Y-5522938D01*
X25132572Y-5521920D01*
X25144945Y-5521688D01*
X25157696Y-5522322D01*
X25170647Y-5523906D01*
X25183620Y-5526521D01*
X25196437Y-5530250D01*
X25208920Y-5535174D01*
X25220892Y-5541375D01*
X25232173Y-5548936D01*
X25242586Y-5557938D01*
X25251953Y-5568463D01*
X25260097Y-5580594D01*
X25266838Y-5594412D01*
X25272000Y-5610000D01*
D11*
X25272000Y-5610000D02*
X26654000Y-10755000D01*
D10*
X26654000Y-10755000D02*
X26657347Y-10774156D01*
X26658514Y-10791906D01*
X26657685Y-10808297D01*
X26655047Y-10823375D01*
X26650786Y-10837188D01*
X26645088Y-10849781D01*
X26638139Y-10861203D01*
X26630125Y-10871500D01*
X26621232Y-10880719D01*
X26611646Y-10888906D01*
X26601554Y-10896109D01*
X26591141Y-10902375D01*
X26580592Y-10907750D01*
X26570096Y-10912281D01*
X26559836Y-10916016D01*
X26550000Y-10919000D01*
X2278000Y-10755000D02*
X2274653Y-10774156D01*
X2273486Y-10791906D01*
X2274315Y-10808297D01*
X2276953Y-10823375D01*
X2281214Y-10837188D01*
X2286912Y-10849781D01*
X2293861Y-10861203D01*
X2301875Y-10871500D01*
X2310768Y-10880719D01*
X2320354Y-10888906D01*
X2330446Y-10896109D01*
X2340859Y-10902375D01*
X2351407Y-10907750D01*
X2361904Y-10912281D01*
X2372164Y-10916016D01*
X2382000Y-10919000D01*
X3833000Y-5527000D02*
X3822740Y-5524658D01*
X3811580Y-5522938D01*
X3799696Y-5521920D01*
X3787266Y-5521688D01*
X3774466Y-5522322D01*
X3761475Y-5523906D01*
X3748468Y-5526521D01*
X3735625Y-5530250D01*
X3723121Y-5535174D01*
X3711135Y-5541375D01*
X3699842Y-5548936D01*
X3689422Y-5557938D01*
X3680050Y-5568463D01*
X3671904Y-5580594D01*
X3665162Y-5594412D01*
X3660000Y-5610000D01*
D11*
X3660000Y-5610000D02*
X2278000Y-10755000D01*
D10*
X6678000Y-13091000D02*
X6681750Y-13105824D01*
X6686249Y-13118889D01*
X6691497Y-13130333D01*
X6697492Y-13140297D01*
X6704235Y-13148919D01*
X6711724Y-13156338D01*
X6719958Y-13162694D01*
X6728937Y-13168125D01*
X6738661Y-13172771D01*
X6749128Y-13176771D01*
X6760337Y-13180265D01*
X6772289Y-13183391D01*
X6784982Y-13186288D01*
X6798415Y-13189096D01*
X6812588Y-13191953D01*
X6827500Y-13195000D01*
X10020000Y-5442500D02*
X9959751Y-5428868D01*
X9896026Y-5417792D01*
X9829141Y-5409140D01*
X9759412Y-5402782D01*
X9687154Y-5398587D01*
X9612682Y-5396422D01*
X9536312Y-5396158D01*
X9458359Y-5397664D01*
X9379140Y-5400808D01*
X9298969Y-5405460D01*
X9218161Y-5411487D01*
X9137033Y-5418761D01*
X9055900Y-5427148D01*
X8975077Y-5436519D01*
X8894881Y-5446743D01*
X8815625Y-5457688D01*
X8737626Y-5469223D01*
X8661200Y-5481217D01*
X8586661Y-5493540D01*
X8514326Y-5506060D01*
X8444510Y-5518646D01*
X8377527Y-5531167D01*
X8313695Y-5543493D01*
X8253328Y-5555492D01*
X8196742Y-5567033D01*
X8144252Y-5577986D01*
X8096173Y-5588219D01*
X8052822Y-5597600D01*
X8014514Y-5606001D01*
X7981564Y-5613288D01*
X7954287Y-5619331D01*
X7933000Y-5624000D01*
D11*
X5395000Y-5945000D02*
X3833000Y-5527000D01*
D10*
X7933000Y-5624000D02*
X7732923Y-5666006D01*
X7544118Y-5704729D01*
X7366236Y-5740292D01*
X7198929Y-5772816D01*
X7041849Y-5802424D01*
X6894648Y-5829238D01*
X6756978Y-5853379D01*
X6628492Y-5874969D01*
X6508841Y-5894130D01*
X6397677Y-5910985D01*
X6294652Y-5925655D01*
X6199419Y-5938262D01*
X6111629Y-5948928D01*
X6030934Y-5957775D01*
X5956986Y-5964925D01*
X5889437Y-5970500D01*
X5827940Y-5974622D01*
X5772146Y-5977412D01*
X5721708Y-5978994D01*
X5676276Y-5979488D01*
X5635504Y-5979017D01*
X5599043Y-5977703D01*
X5566546Y-5975667D01*
X5537664Y-5973031D01*
X5512049Y-5969918D01*
X5489354Y-5966450D01*
X5469230Y-5962747D01*
X5451329Y-5958933D01*
X5435304Y-5955130D01*
X5420806Y-5951458D01*
X5407487Y-5948041D01*
X5395000Y-5945000D01*
X18912500Y-5442500D02*
X18972749Y-5428868D01*
X19036474Y-5417792D01*
X19103359Y-5409140D01*
X19173088Y-5402782D01*
X19245346Y-5398587D01*
X19319818Y-5396422D01*
X19396188Y-5396158D01*
X19474141Y-5397664D01*
X19553360Y-5400808D01*
X19633531Y-5405460D01*
X19714339Y-5411487D01*
X19795467Y-5418761D01*
X19876600Y-5427148D01*
X19957423Y-5436519D01*
X20037619Y-5446743D01*
X20116875Y-5457688D01*
X20194874Y-5469223D01*
X20271300Y-5481217D01*
X20345839Y-5493540D01*
X20418174Y-5506060D01*
X20487990Y-5518646D01*
X20554972Y-5531167D01*
X20618805Y-5543493D01*
X20679172Y-5555492D01*
X20735758Y-5567033D01*
X20788248Y-5577986D01*
X20836327Y-5588219D01*
X20879678Y-5597600D01*
X20917986Y-5606001D01*
X20950936Y-5613288D01*
X20978213Y-5619331D01*
X20999500Y-5624000D01*
D11*
X23537500Y-5945000D02*
X25099500Y-5527000D01*
D10*
X20999500Y-5624000D02*
X21199555Y-5666006D01*
X21388300Y-5704729D01*
X21566085Y-5740292D01*
X21733264Y-5772816D01*
X21890188Y-5802424D01*
X22037209Y-5829238D01*
X22174680Y-5853379D01*
X22302953Y-5874969D01*
X22422380Y-5894130D01*
X22533312Y-5910985D01*
X22636103Y-5925655D01*
X22731103Y-5938262D01*
X22818666Y-5948928D01*
X22899144Y-5957775D01*
X22972888Y-5964925D01*
X23040250Y-5970500D01*
X23101583Y-5974622D01*
X23157239Y-5977412D01*
X23207570Y-5978994D01*
X23252928Y-5979488D01*
X23293665Y-5979017D01*
X23330133Y-5977703D01*
X23362685Y-5975667D01*
X23391672Y-5973031D01*
X23417447Y-5969918D01*
X23440361Y-5966450D01*
X23460767Y-5962747D01*
X23479017Y-5958933D01*
X23495464Y-5955130D01*
X23510458Y-5951458D01*
X23524353Y-5948041D01*
X23537500Y-5945000D01*
D11*
X18912500Y-5442500D02*
X18236000Y-5624000D01*
D10*
X11575000Y-6233000D02*
X11596531Y-6269569D01*
X11617303Y-6303775D01*
X11637394Y-6335711D01*
X11656881Y-6365469D01*
X11675843Y-6393140D01*
X11694358Y-6418818D01*
X11712504Y-6442595D01*
X11730359Y-6464562D01*
X11748002Y-6484813D01*
X11765511Y-6503439D01*
X11782964Y-6520533D01*
X11800439Y-6536187D01*
X11818015Y-6550494D01*
X11835769Y-6563545D01*
X11853779Y-6575433D01*
X11872125Y-6586250D01*
X11890884Y-6596089D01*
X11910133Y-6605041D01*
X11929953Y-6613199D01*
X11950420Y-6620656D01*
X11971613Y-6627504D01*
X11993610Y-6633834D01*
X12016489Y-6639739D01*
X12040328Y-6645312D01*
X12065206Y-6650645D01*
X12091201Y-6655830D01*
X12118391Y-6660959D01*
X12146853Y-6666125D01*
X12176668Y-6671420D01*
X12207911Y-6676935D01*
X12240663Y-6682765D01*
X12275000Y-6689000D01*
X6827500Y-13195000D02*
X7120154Y-13255910D01*
X7399083Y-13315132D01*
X7665034Y-13373030D01*
X7918756Y-13429967D01*
X8160995Y-13486305D01*
X8392500Y-13542407D01*
X8614018Y-13598638D01*
X8826297Y-13655359D01*
X9030084Y-13712935D01*
X9226127Y-13771727D01*
X9415173Y-13832100D01*
X9597971Y-13894416D01*
X9775267Y-13959038D01*
X9947810Y-14026330D01*
X10116347Y-14096655D01*
X10281625Y-14170375D01*
X10444393Y-14247854D01*
X10605397Y-14329455D01*
X10765386Y-14415541D01*
X10925107Y-14506475D01*
X11085308Y-14602620D01*
X11246736Y-14704339D01*
X11410140Y-14811996D01*
X11576266Y-14925953D01*
X11745862Y-15046574D01*
X11919675Y-15174221D01*
X12098455Y-15309259D01*
X12282947Y-15452049D01*
X12473900Y-15602955D01*
X12672062Y-15762340D01*
X12878179Y-15930567D01*
X13093000Y-16108000D01*
X16993000Y-5687000D02*
X16919035Y-5674295D01*
X16831523Y-5659180D01*
X16731505Y-5641838D01*
X16620025Y-5622455D01*
X16498125Y-5601215D01*
X16366847Y-5578303D01*
X16227234Y-5553905D01*
X16080328Y-5528203D01*
X15927171Y-5501384D01*
X15768807Y-5473632D01*
X15606276Y-5445132D01*
X15440623Y-5416068D01*
X15272889Y-5386626D01*
X15104116Y-5356990D01*
X14935347Y-5327345D01*
X14767625Y-5297875D01*
X14601992Y-5268766D01*
X14439489Y-5240201D01*
X14281161Y-5212367D01*
X14128049Y-5185447D01*
X13981195Y-5159627D01*
X13841642Y-5135091D01*
X13710433Y-5112023D01*
X13588609Y-5090609D01*
X13477214Y-5071034D01*
X13377289Y-5053482D01*
X13289878Y-5038137D01*
X13216021Y-5025186D01*
X13156763Y-5014811D01*
X13113145Y-5007199D01*
X13086210Y-5002534D01*
X13077000Y-5001000D01*
X12606000Y-6747000D02*
X12620201Y-6749027D01*
X12633017Y-6749507D01*
X12644489Y-6748474D01*
X12654656Y-6745963D01*
X12666250Y-6740375D01*
X12675687Y-6732303D01*
X12683062Y-6721828D01*
X12687297Y-6712445D01*
X12690463Y-6701791D01*
X12692000Y-6694000D01*
D11*
X22365000Y-12532000D02*
X22254000Y-13091000D01*
X2382000Y-10919000D02*
X5934000Y-11871000D01*
X10020000Y-5442500D02*
X10957500Y-5694000D01*
D10*
X12980000Y-5050000D02*
X12953835Y-5199359D01*
X12929305Y-5339386D01*
X12906356Y-5470382D01*
X12884937Y-5592648D01*
X12864995Y-5706486D01*
X12846476Y-5812196D01*
X12829329Y-5910080D01*
X12813500Y-6000437D01*
X12798936Y-6083571D01*
X12785586Y-6159780D01*
X12773395Y-6229367D01*
X12762312Y-6292633D01*
X12752284Y-6349878D01*
X12743258Y-6401403D01*
X12735181Y-6447510D01*
X12728000Y-6488500D01*
X12721663Y-6524673D01*
X12716117Y-6556331D01*
X12711309Y-6583774D01*
X12707187Y-6607305D01*
X12703698Y-6627222D01*
X12700789Y-6643829D01*
X12698407Y-6657425D01*
X12696500Y-6668312D01*
X12693898Y-6683163D01*
X12692070Y-6693599D01*
X12692000Y-6694000D01*
X13077000Y-5001000D02*
X13066757Y-4999631D01*
X13055908Y-4999009D01*
X13044747Y-4999304D01*
X13033564Y-5000684D01*
X13022652Y-5003315D01*
X13012301Y-5007368D01*
X13002805Y-5013009D01*
X12994453Y-5020406D01*
X12987539Y-5029729D01*
X12982353Y-5041144D01*
X12980000Y-5050000D01*
D12*
D13*
X2563000Y-10704000D02*
X2593000Y-10734000D01*
X2593000Y-10704000D02*
X2563000Y-10734000D01*
X3837000Y-5770000D02*
X3867000Y-5800000D01*
X3867000Y-5770000D02*
X3837000Y-5800000D01*
X4695000Y-6515000D02*
X4725000Y-6545000D01*
X4725000Y-6515000D02*
X4695000Y-6545000D01*
X5140000Y-7973000D02*
X5170000Y-8003000D01*
X5170000Y-7973000D02*
X5140000Y-8003000D01*
X5825000Y-6595000D02*
X5855000Y-6625000D01*
X5855000Y-6595000D02*
X5825000Y-6625000D01*
X6105000Y-6915000D02*
X6135000Y-6945000D01*
X6135000Y-6915000D02*
X6105000Y-6945000D01*
X6675000Y-11405000D02*
X6705000Y-11435000D01*
X6705000Y-11405000D02*
X6675000Y-11435000D01*
X7736000Y-11068000D02*
X7766000Y-11098000D01*
X7766000Y-11068000D02*
X7736000Y-11098000D01*
X8115000Y-6455000D02*
X8145000Y-6485000D01*
X8145000Y-6455000D02*
X8115000Y-6485000D01*
X8194000Y-8812000D02*
X8224000Y-8842000D01*
X8224000Y-8812000D02*
X8194000Y-8842000D01*
X9205000Y-5935000D02*
X9235000Y-5965000D01*
X9235000Y-5935000D02*
X9205000Y-5965000D01*
X9460000Y-11460000D02*
X9490000Y-11490000D01*
X9490000Y-11460000D02*
X9460000Y-11490000D01*
X10315000Y-7065000D02*
X10345000Y-7095000D01*
X10345000Y-7065000D02*
X10315000Y-7095000D01*
X10802000Y-10110000D02*
X10832000Y-10140000D01*
X10832000Y-10110000D02*
X10802000Y-10140000D01*
X12006000Y-8197000D02*
X12036000Y-8227000D01*
X12036000Y-8197000D02*
X12006000Y-8227000D01*
X12510000Y-6985000D02*
X12540000Y-7015000D01*
X12540000Y-6985000D02*
X12510000Y-7015000D01*
X12585000Y-15410000D02*
X12615000Y-15440000D01*
X12615000Y-15410000D02*
X12585000Y-15440000D01*
X12635000Y-6985000D02*
X12665000Y-7015000D01*
X12665000Y-6985000D02*
X12635000Y-7015000D01*
X12760000Y-6985000D02*
X12790000Y-7015000D01*
X12790000Y-6985000D02*
X12760000Y-7015000D01*
X12936000Y-7426000D02*
X12966000Y-7456000D01*
X12966000Y-7426000D02*
X12936000Y-7456000D01*
X12965000Y-13275000D02*
X12995000Y-13305000D01*
X12995000Y-13275000D02*
X12965000Y-13305000D01*
X13181892Y-6483087D02*
X13211892Y-6513087D01*
X13211892Y-6483087D02*
X13181892Y-6513087D01*
X13240000Y-5855000D02*
X13270000Y-5885000D01*
X13270000Y-5855000D02*
X13240000Y-5885000D01*
X13250021Y-6525021D02*
X13280021Y-6555021D01*
X13280021Y-6525021D02*
X13250021Y-6555021D01*
X13845000Y-5455000D02*
X13875000Y-5485000D01*
X13875000Y-5455000D02*
X13845000Y-5485000D01*
X13910000Y-5670000D02*
X13940000Y-5700000D01*
X13940000Y-5670000D02*
X13910000Y-5700000D01*
X13910000Y-5770000D02*
X13940000Y-5800000D01*
X13940000Y-5770000D02*
X13910000Y-5800000D01*
X14055000Y-7775000D02*
X14085000Y-7805000D01*
X14085000Y-7775000D02*
X14055000Y-7805000D01*
X14125000Y-7705000D02*
X14155000Y-7735000D01*
X14155000Y-7705000D02*
X14125000Y-7735000D01*
X14315000Y-6155000D02*
X14345000Y-6185000D01*
X14345000Y-6155000D02*
X14315000Y-6185000D01*
X14450000Y-14192000D02*
X14480000Y-14222000D01*
X14480000Y-14192000D02*
X14450000Y-14222000D01*
X14457000Y-13158000D02*
X14487000Y-13188000D01*
X14487000Y-13158000D02*
X14457000Y-13188000D01*
X14459000Y-12087000D02*
X14489000Y-12117000D01*
X14489000Y-12087000D02*
X14459000Y-12117000D01*
X14463000Y-11372000D02*
X14493000Y-11402000D01*
X14493000Y-11372000D02*
X14463000Y-11402000D01*
X14490000Y-6010000D02*
X14520000Y-6040000D01*
X14520000Y-6010000D02*
X14490000Y-6040000D01*
X14560000Y-9710000D02*
X14590000Y-9740000D01*
X14590000Y-9710000D02*
X14560000Y-9740000D01*
X14560000Y-9885000D02*
X14590000Y-9915000D01*
X14590000Y-9885000D02*
X14560000Y-9915000D01*
X14560000Y-10060000D02*
X14590000Y-10090000D01*
X14590000Y-10060000D02*
X14560000Y-10090000D01*
X14740000Y-6760000D02*
X14770000Y-6790000D01*
X14770000Y-6760000D02*
X14740000Y-6790000D01*
X14960000Y-9610000D02*
X14990000Y-9640000D01*
X14990000Y-9610000D02*
X14960000Y-9640000D01*
X14960000Y-10285000D02*
X14990000Y-10315000D01*
X14990000Y-10285000D02*
X14960000Y-10315000D01*
X14960000Y-10685000D02*
X14990000Y-10715000D01*
X14990000Y-10685000D02*
X14960000Y-10715000D01*
X15035000Y-6063000D02*
X15065000Y-6093000D01*
X15065000Y-6063000D02*
X15035000Y-6093000D01*
X15311000Y-6055000D02*
X15341000Y-6085000D01*
X15341000Y-6055000D02*
X15311000Y-6085000D01*
X15455000Y-6785000D02*
X15485000Y-6815000D01*
X15485000Y-6785000D02*
X15455000Y-6815000D01*
X15587000Y-6057000D02*
X15617000Y-6087000D01*
X15617000Y-6057000D02*
X15587000Y-6087000D01*
X15863000Y-6061000D02*
X15893000Y-6091000D01*
X15893000Y-6061000D02*
X15863000Y-6091000D01*
X15955000Y-6060000D02*
X15985000Y-6090000D01*
X15985000Y-6060000D02*
X15955000Y-6090000D01*
X16005000Y-13195000D02*
X16035000Y-13225000D01*
X16035000Y-13195000D02*
X16005000Y-13225000D01*
X16014000Y-7542000D02*
X16044000Y-7572000D01*
X16044000Y-7542000D02*
X16014000Y-7572000D01*
X16095000Y-6952500D02*
X16125000Y-6982500D01*
X16125000Y-6952500D02*
X16095000Y-6982500D01*
X16190000Y-6952500D02*
X16220000Y-6982500D01*
X16220000Y-6952500D02*
X16190000Y-6982500D01*
X16285000Y-6952500D02*
X16315000Y-6982500D01*
X16315000Y-6952500D02*
X16285000Y-6982500D01*
X16335000Y-15410000D02*
X16365000Y-15440000D01*
X16365000Y-15410000D02*
X16335000Y-15440000D01*
X16735000Y-14285000D02*
X16765000Y-14315000D01*
X16765000Y-14285000D02*
X16735000Y-14315000D01*
X17614000Y-7945000D02*
X17644000Y-7975000D01*
X17644000Y-7945000D02*
X17614000Y-7975000D01*
X18208000Y-10129000D02*
X18238000Y-10159000D01*
X18238000Y-10129000D02*
X18208000Y-10159000D01*
X19447000Y-6951000D02*
X19477000Y-6981000D01*
X19477000Y-6951000D02*
X19447000Y-6981000D01*
X19610000Y-11560000D02*
X19640000Y-11590000D01*
X19640000Y-11560000D02*
X19610000Y-11590000D01*
X19935000Y-6405000D02*
X19965000Y-6435000D01*
X19965000Y-6405000D02*
X19935000Y-6435000D01*
X20155000Y-5885000D02*
X20185000Y-5915000D01*
X20185000Y-5885000D02*
X20155000Y-5915000D01*
X21310000Y-11260000D02*
X21340000Y-11290000D01*
X21340000Y-11260000D02*
X21310000Y-11290000D01*
X21473000Y-8605000D02*
X21503000Y-8635000D01*
X21503000Y-8605000D02*
X21473000Y-8635000D01*
X21933000Y-6831000D02*
X21963000Y-6861000D01*
X21963000Y-6831000D02*
X21933000Y-6861000D01*
X22635000Y-6245000D02*
X22665000Y-6275000D01*
X22665000Y-6245000D02*
X22635000Y-6275000D01*
X22685000Y-11460000D02*
X22715000Y-11490000D01*
X22715000Y-11460000D02*
X22685000Y-11490000D01*
X23439000Y-7916000D02*
X23469000Y-7946000D01*
X23469000Y-7916000D02*
X23439000Y-7946000D01*
X23455000Y-6435000D02*
X23485000Y-6465000D01*
X23485000Y-6435000D02*
X23455000Y-6465000D01*
X25048000Y-5770000D02*
X25078000Y-5800000D01*
X25078000Y-5770000D02*
X25048000Y-5800000D01*
X26073000Y-10819000D02*
X26103000Y-10849000D01*
X26103000Y-10819000D02*
X26073000Y-10849000D01*
D14*
X12890000Y-6650000D02*
G75*
G03*
X12890000Y-6650000I-40000J0D01*
G01*
X13160000Y-5130000D02*
G75*
G03*
X13160000Y-5130000I-40000J0D01*
G01*
X16359000Y-6602000D02*
G75*
G03*
X16359000Y-6602000I-40000J0D01*
G01*
X16410764Y-6795185D02*
G75*
G03*
X16410764Y-6795185I-40000J0D01*
G01*
X17215591Y-6069537D02*
G75*
G03*
X17215591Y-6069537I-40000J0D01*
G01*
X17280295Y-6311018D02*
G75*
G03*
X17280295Y-6311018I-40000J0D01*
G01*
X17345000Y-6552500D02*
G75*
G03*
X17345000Y-6552500I-40000J0D01*
G01*
X17524687Y-5986715D02*
G75*
G03*
X17524687Y-5986715I-40000J0D01*
G01*
X17589392Y-6228196D02*
G75*
G03*
X17589392Y-6228196I-40000J0D01*
G01*
X17654096Y-6469678D02*
G75*
G03*
X17654096Y-6469678I-40000J0D01*
G01*
D10*
X4318966Y-10980069D02*
X4318966Y-11080069D01*
X4268966Y-11030069D02*
X4368966Y-11030069D01*
X4520845Y-10226647D02*
X4520845Y-10326647D01*
X4470845Y-10276647D02*
X4570845Y-10276647D01*
X4760348Y-9331264D02*
X4760348Y-9431264D01*
X4710348Y-9381264D02*
X4810348Y-9381264D01*
X4962227Y-8577842D02*
X4962227Y-8677842D01*
X4912227Y-8627842D02*
X5012227Y-8627842D01*
X5200473Y-7685360D02*
X5200473Y-7785360D01*
X5150473Y-7735360D02*
X5250473Y-7735360D01*
X5402352Y-6931938D02*
X5402352Y-7031938D01*
X5352352Y-6981938D02*
X5452352Y-6981938D01*
X6061837Y-11447750D02*
X6061837Y-11547750D01*
X6011837Y-11497750D02*
X6111837Y-11497750D01*
X6263716Y-10694328D02*
X6263716Y-10794328D01*
X6213716Y-10744328D02*
X6313716Y-10744328D01*
X6498886Y-9802581D02*
X6498886Y-9902581D01*
X6448886Y-9852581D02*
X6548886Y-9852581D01*
X6700765Y-9049159D02*
X6700765Y-9149159D01*
X6650765Y-9099159D02*
X6750765Y-9099159D01*
X6941999Y-8156939D02*
X6941999Y-8256939D01*
X6891999Y-8206939D02*
X6991999Y-8206939D01*
X7143878Y-7403516D02*
X7143878Y-7503516D01*
X7093878Y-7453516D02*
X7193878Y-7453516D01*
X8052052Y-10981434D02*
X8052052Y-11081434D01*
X8002052Y-11031434D02*
X8102052Y-11031434D01*
X8253931Y-10228012D02*
X8253931Y-10328012D01*
X8203931Y-10278012D02*
X8303931Y-10278012D01*
X8493348Y-9333625D02*
X8493348Y-9433625D01*
X8443348Y-9383625D02*
X8543348Y-9383625D01*
X8632277Y-13134075D02*
X8632277Y-13234075D01*
X8582277Y-13184075D02*
X8682277Y-13184075D01*
X8695227Y-8580203D02*
X8695227Y-8680203D01*
X8645227Y-8630203D02*
X8745227Y-8630203D01*
X8767723Y-12365925D02*
X8767723Y-12465925D01*
X8717723Y-12415925D02*
X8817723Y-12415925D01*
X8933385Y-7688718D02*
X8933385Y-7788718D01*
X8883385Y-7738718D02*
X8983385Y-7738718D01*
X9135264Y-6935295D02*
X9135264Y-7035295D01*
X9085264Y-6985295D02*
X9185264Y-6985295D01*
X9972793Y-10767223D02*
X9972793Y-10867223D01*
X9922793Y-10817223D02*
X10022793Y-10817223D01*
X10174672Y-10013800D02*
X10174672Y-10113800D01*
X10124672Y-10063800D02*
X10224672Y-10063800D01*
X10366612Y-13751403D02*
X10366612Y-13851403D01*
X10316612Y-13801403D02*
X10416612Y-13801403D01*
X10414712Y-9118464D02*
X10414712Y-9218464D01*
X10364712Y-9168464D02*
X10464712Y-9168464D01*
X10616590Y-8365042D02*
X10616590Y-8465042D01*
X10566590Y-8415042D02*
X10666590Y-8415042D01*
X10633388Y-13018443D02*
X10633388Y-13118443D01*
X10583388Y-13068443D02*
X10683388Y-13068443D01*
X10855011Y-7470568D02*
X10855011Y-7570568D01*
X10805011Y-7520568D02*
X10905011Y-7520568D01*
X11056890Y-6717146D02*
X11056890Y-6817146D01*
X11006890Y-6767146D02*
X11106890Y-6767146D01*
X11525044Y-11947803D02*
X11525044Y-12047803D01*
X11475044Y-11997803D02*
X11575044Y-11997803D01*
X11726922Y-11194380D02*
X11726922Y-11294380D01*
X11676922Y-11244380D02*
X11776922Y-11244380D01*
X11964907Y-10304887D02*
X11964907Y-10404887D01*
X11914907Y-10354887D02*
X12014907Y-10354887D01*
X11975000Y-14666506D02*
X11975000Y-14766506D01*
X11925000Y-14716506D02*
X12025000Y-14716506D01*
X12166786Y-9551465D02*
X12166786Y-9651465D01*
X12116786Y-9601465D02*
X12216786Y-9601465D01*
X12365000Y-13991006D02*
X12365000Y-14091006D01*
X12315000Y-14041006D02*
X12415000Y-14041006D01*
X12403948Y-8659893D02*
X12403948Y-8759893D01*
X12353948Y-8709893D02*
X12453948Y-8709893D01*
X12605827Y-7906470D02*
X12605827Y-8006470D01*
X12555827Y-7956470D02*
X12655827Y-7956470D01*
X13169619Y-12770267D02*
X13169619Y-12870267D01*
X13119619Y-12820267D02*
X13219619Y-12820267D01*
X13371498Y-12016844D02*
X13371498Y-12116844D01*
X13321498Y-12066844D02*
X13421498Y-12066844D01*
X13399313Y-15848757D02*
X13399313Y-15948757D01*
X13349313Y-15898757D02*
X13449313Y-15898757D01*
X13609831Y-11123367D02*
X13609831Y-11223367D01*
X13559831Y-11173367D02*
X13659831Y-11173367D01*
X13811710Y-10369944D02*
X13811710Y-10469944D01*
X13761710Y-10419944D02*
X13861710Y-10419944D01*
X13900687Y-15251243D02*
X13900687Y-15351243D01*
X13850687Y-15301243D02*
X13950687Y-15301243D01*
X14050952Y-9477550D02*
X14050952Y-9577550D01*
X14000952Y-9527550D02*
X14100952Y-9527550D01*
X14085000Y-11550000D02*
X14085000Y-11650000D01*
X14035000Y-11600000D02*
X14135000Y-11600000D01*
X14216000Y-12200000D02*
X14216000Y-12300000D01*
X14166000Y-12250000D02*
X14266000Y-12250000D01*
X14216000Y-13650000D02*
X14216000Y-13750000D01*
X14166000Y-13700000D02*
X14266000Y-13700000D01*
X14252831Y-8724128D02*
X14252831Y-8824128D01*
X14202831Y-8774128D02*
X14302831Y-8774128D01*
X14466000Y-13650000D02*
X14466000Y-13750000D01*
X14416000Y-13700000D02*
X14516000Y-13700000D01*
X14716000Y-12200000D02*
X14716000Y-12300000D01*
X14666000Y-12250000D02*
X14766000Y-12250000D01*
X14716000Y-13650000D02*
X14716000Y-13750000D01*
X14666000Y-13700000D02*
X14766000Y-13700000D01*
X14865000Y-11550000D02*
X14865000Y-11650000D01*
X14815000Y-11600000D02*
X14915000Y-11600000D01*
X16398626Y-14102485D02*
X16398626Y-14202485D01*
X16348626Y-14152485D02*
X16448626Y-14152485D01*
X16419357Y-8264120D02*
X16419357Y-8364120D01*
X16369357Y-8314120D02*
X16469357Y-8314120D01*
X16495333Y-6173969D02*
X16495333Y-6273969D01*
X16445333Y-6223969D02*
X16545333Y-6223969D01*
X16621236Y-9017542D02*
X16621236Y-9117542D01*
X16571236Y-9067542D02*
X16671236Y-9067542D01*
X16663566Y-6801820D02*
X16663566Y-6901820D01*
X16613566Y-6851820D02*
X16713566Y-6851820D01*
X16860478Y-9909936D02*
X16860478Y-10009936D01*
X16810478Y-9959936D02*
X16910478Y-9959936D01*
X16900000Y-14700000D02*
X16900000Y-14800000D01*
X16850000Y-14750000D02*
X16950000Y-14750000D01*
X16930000Y-6057500D02*
X16930000Y-6157500D01*
X16880000Y-6107500D02*
X16980000Y-6107500D01*
X17062357Y-10663358D02*
X17062357Y-10763358D01*
X17012357Y-10713358D02*
X17112357Y-10713358D01*
X17098232Y-6685352D02*
X17098232Y-6785352D01*
X17048232Y-6735352D02*
X17148232Y-6735352D01*
X17301061Y-11557289D02*
X17301061Y-11657289D01*
X17251061Y-11607289D02*
X17351061Y-11607289D01*
X17502939Y-12310711D02*
X17502939Y-12410711D01*
X17452939Y-12360711D02*
X17552939Y-12360711D01*
X18066361Y-7446462D02*
X18066361Y-7546462D01*
X18016361Y-7496462D02*
X18116361Y-7496462D01*
X18130000Y-13095744D02*
X18130000Y-13195744D01*
X18080000Y-13145744D02*
X18180000Y-13145744D01*
X18268239Y-8199884D02*
X18268239Y-8299884D01*
X18218239Y-8249884D02*
X18318239Y-8249884D01*
X18505402Y-9091457D02*
X18505402Y-9191457D01*
X18455402Y-9141457D02*
X18555402Y-9141457D01*
X18520000Y-13771243D02*
X18520000Y-13871243D01*
X18470000Y-13821243D02*
X18570000Y-13821243D01*
X18707281Y-9844879D02*
X18707281Y-9944879D01*
X18657281Y-9894879D02*
X18757281Y-9894879D01*
X18945265Y-10734372D02*
X18945265Y-10834372D01*
X18895265Y-10784372D02*
X18995265Y-10784372D01*
X19147144Y-11487794D02*
X19147144Y-11587794D01*
X19097144Y-11537794D02*
X19197144Y-11537794D01*
X19615298Y-6257138D02*
X19615298Y-6357138D01*
X19565298Y-6307138D02*
X19665298Y-6307138D01*
X19817177Y-7010560D02*
X19817177Y-7110560D01*
X19767177Y-7060560D02*
X19867177Y-7060560D01*
X19981107Y-12398597D02*
X19981107Y-12498597D01*
X19931107Y-12448597D02*
X20031107Y-12448597D01*
X20055597Y-7905034D02*
X20055597Y-8005034D01*
X20005597Y-7955034D02*
X20105597Y-7955034D01*
X20247883Y-13131557D02*
X20247883Y-13231557D01*
X20197883Y-13181557D02*
X20297883Y-13181557D01*
X20257476Y-8658456D02*
X20257476Y-8758456D01*
X20207476Y-8708456D02*
X20307476Y-8708456D01*
X20496980Y-9553839D02*
X20496980Y-9653839D01*
X20446980Y-9603839D02*
X20546980Y-9603839D01*
X20698859Y-10307261D02*
X20698859Y-10407261D01*
X20648859Y-10357261D02*
X20748859Y-10357261D01*
X21536924Y-6475287D02*
X21536924Y-6575287D01*
X21486924Y-6525287D02*
X21586924Y-6525287D01*
X21738803Y-7228709D02*
X21738803Y-7328709D01*
X21688803Y-7278709D02*
X21788803Y-7278709D01*
X21907967Y-12028052D02*
X21907967Y-12128052D01*
X21857967Y-12078052D02*
X21957967Y-12078052D01*
X21976961Y-8120195D02*
X21976961Y-8220195D01*
X21926961Y-8170195D02*
X22026961Y-8170195D01*
X22043412Y-12796202D02*
X22043412Y-12896202D01*
X21993412Y-12846202D02*
X22093412Y-12846202D01*
X22178840Y-8873617D02*
X22178840Y-8973617D01*
X22128840Y-8923617D02*
X22228840Y-8923617D01*
X22418256Y-9768004D02*
X22418256Y-9868004D01*
X22368257Y-9818004D02*
X22468256Y-9818004D01*
X22620135Y-10521426D02*
X22620135Y-10621426D01*
X22570135Y-10571426D02*
X22670135Y-10571426D01*
X23528310Y-6943508D02*
X23528310Y-7043508D01*
X23478310Y-6993508D02*
X23578310Y-6993508D01*
X23730188Y-7696930D02*
X23730188Y-7796930D01*
X23680188Y-7746930D02*
X23780188Y-7746930D01*
X23971423Y-8589151D02*
X23971423Y-8689151D01*
X23921423Y-8639151D02*
X24021423Y-8639151D01*
X24173302Y-9342573D02*
X24173302Y-9442573D01*
X24123302Y-9392573D02*
X24223302Y-9392573D01*
X24408472Y-10234320D02*
X24408472Y-10334320D01*
X24358472Y-10284320D02*
X24458472Y-10284320D01*
X24610351Y-10987742D02*
X24610351Y-11087742D01*
X24560351Y-11037742D02*
X24660351Y-11037742D01*
X25269836Y-6471930D02*
X25269836Y-6571930D01*
X25219836Y-6521930D02*
X25319836Y-6521930D01*
X25471715Y-7225352D02*
X25471715Y-7325352D01*
X25421715Y-7275352D02*
X25521715Y-7275352D01*
X25709961Y-8117833D02*
X25709961Y-8217833D01*
X25659961Y-8167833D02*
X25759961Y-8167833D01*
X25911839Y-8871256D02*
X25911839Y-8971256D01*
X25861839Y-8921256D02*
X25961839Y-8921256D01*
X26151343Y-9766639D02*
X26151343Y-9866639D01*
X26101343Y-9816639D02*
X26201343Y-9816639D01*
X26353222Y-10520061D02*
X26353222Y-10620061D01*
X26303222Y-10570061D02*
X26403222Y-10570061D01*
D15*
X13130519Y-6716452D02*
X13130519Y-6639221D01*
X13053288Y-6639221D01*
X13053288Y-6716452D01*
X13130519Y-6716452D01*
X13380660Y-6760559D02*
X13380660Y-6683328D01*
X13303429Y-6683328D01*
X13303429Y-6760559D01*
X13380660Y-6760559D01*
X13395159Y-5215606D02*
X13395159Y-5138375D01*
X13317928Y-5138375D01*
X13317928Y-5215606D01*
X13395159Y-5215606D01*
X13630801Y-6804666D02*
X13630801Y-6727435D01*
X13553570Y-6727435D01*
X13553570Y-6804666D01*
X13630801Y-6804666D01*
X13645300Y-5259712D02*
X13645300Y-5182481D01*
X13568069Y-5182481D01*
X13568069Y-5259712D01*
X13645300Y-5259712D01*
X13880943Y-6848772D02*
X13880943Y-6771541D01*
X13803712Y-6771541D01*
X13803712Y-6848772D01*
X13880943Y-6848772D01*
X13895441Y-5303819D02*
X13895441Y-5226588D01*
X13818210Y-5226588D01*
X13818210Y-5303819D01*
X13895441Y-5303819D01*
X14131084Y-6892879D02*
X14131084Y-6815648D01*
X14053853Y-6815648D01*
X14053853Y-6892879D01*
X14131084Y-6892879D01*
X14145582Y-5347925D02*
X14145582Y-5270694D01*
X14068351Y-5270694D01*
X14068351Y-5347925D01*
X14145582Y-5347925D01*
X14381225Y-6936986D02*
X14381225Y-6859755D01*
X14303994Y-6859755D01*
X14303994Y-6936986D01*
X14381225Y-6936986D01*
X14395724Y-5392032D02*
X14395724Y-5314801D01*
X14318493Y-5314801D01*
X14318493Y-5392032D01*
X14395724Y-5392032D01*
X14631366Y-6981092D02*
X14631366Y-6903861D01*
X14554135Y-6903861D01*
X14554135Y-6981092D01*
X14631366Y-6981092D01*
X14645865Y-5436139D02*
X14645865Y-5358908D01*
X14568634Y-5358908D01*
X14568634Y-5436139D01*
X14645865Y-5436139D01*
X14881507Y-7025199D02*
X14881507Y-6947968D01*
X14804276Y-6947968D01*
X14804276Y-7025199D01*
X14881507Y-7025199D01*
X14896006Y-5480245D02*
X14896006Y-5403014D01*
X14818775Y-5403014D01*
X14818775Y-5480245D01*
X14896006Y-5480245D01*
X15131648Y-7069306D02*
X15131648Y-6992075D01*
X15054417Y-6992075D01*
X15054417Y-7069306D01*
X15131648Y-7069306D01*
X15146147Y-5524352D02*
X15146147Y-5447121D01*
X15068916Y-5447121D01*
X15068916Y-5524352D01*
X15146147Y-5524352D01*
X15381790Y-7113412D02*
X15381790Y-7036181D01*
X15304559Y-7036181D01*
X15304559Y-7113412D01*
X15381790Y-7113412D01*
X15396288Y-5568459D02*
X15396288Y-5491228D01*
X15319057Y-5491228D01*
X15319057Y-5568459D01*
X15396288Y-5568459D01*
X15631931Y-7157519D02*
X15631931Y-7080288D01*
X15554700Y-7080288D01*
X15554700Y-7157519D01*
X15631931Y-7157519D01*
X15646429Y-5612565D02*
X15646429Y-5535334D01*
X15569198Y-5535334D01*
X15569198Y-5612565D01*
X15646429Y-5612565D01*
X15882072Y-7201625D02*
X15882072Y-7124394D01*
X15804841Y-7124394D01*
X15804841Y-7201625D01*
X15882072Y-7201625D01*
X15896571Y-5656672D02*
X15896571Y-5579441D01*
X15819340Y-5579441D01*
X15819340Y-5656672D01*
X15896571Y-5656672D01*
X16146712Y-5700778D02*
X16146712Y-5623547D01*
X16069481Y-5623547D01*
X16069481Y-5700778D01*
X16146712Y-5700778D01*
D16*
X3048591Y-10424500D02*
X3112091Y-10361000D01*
X3048591Y-10297500D01*
X2985091Y-10361000D01*
X3048591Y-10424500D01*
X3477202Y-10756754D02*
X3540702Y-10693254D01*
X3477202Y-10629754D01*
X3413702Y-10693254D01*
X3477202Y-10756754D01*
X3489974Y-8775695D02*
X3553474Y-8712195D01*
X3489974Y-8648695D01*
X3426474Y-8712195D01*
X3489974Y-8775695D01*
X3918585Y-9107949D02*
X3982085Y-9044449D01*
X3918585Y-8980949D01*
X3855085Y-9044449D01*
X3918585Y-9107949D01*
X3930098Y-7129791D02*
X3993598Y-7066291D01*
X3930098Y-7002791D01*
X3866598Y-7066291D01*
X3930098Y-7129791D01*
X4358709Y-7462045D02*
X4422209Y-7398545D01*
X4358709Y-7335045D01*
X4295209Y-7398545D01*
X4358709Y-7462045D01*
X4791462Y-10892181D02*
X4854962Y-10828681D01*
X4791462Y-10765181D01*
X4727962Y-10828681D01*
X4791462Y-10892181D01*
X5220073Y-11224435D02*
X5283573Y-11160935D01*
X5220073Y-11097435D01*
X5156573Y-11160935D01*
X5220073Y-11224435D01*
X5228511Y-9247012D02*
X5292011Y-9183512D01*
X5228511Y-9120012D01*
X5165011Y-9183512D01*
X5228511Y-9247012D01*
X5657122Y-9579266D02*
X5720622Y-9515766D01*
X5657122Y-9452266D01*
X5593622Y-9515766D01*
X5657122Y-9579266D01*
X5671625Y-7601370D02*
X5735125Y-7537870D01*
X5671625Y-7474370D01*
X5608125Y-7537870D01*
X5671625Y-7601370D01*
X6100236Y-7933624D02*
X6163736Y-7870124D01*
X6100236Y-7806624D01*
X6036736Y-7870124D01*
X6100236Y-7933624D01*
X6781678Y-10425865D02*
X6845178Y-10362365D01*
X6781678Y-10298865D01*
X6718178Y-10362365D01*
X6781678Y-10425865D01*
X7210289Y-10758119D02*
X7273789Y-10694619D01*
X7210289Y-10631119D01*
X7146789Y-10694619D01*
X7210289Y-10758119D01*
X7222973Y-8778056D02*
X7286473Y-8714556D01*
X7222973Y-8651056D01*
X7159473Y-8714556D01*
X7222973Y-8778056D01*
X7329001Y-12635903D02*
X7392501Y-12572403D01*
X7329001Y-12508903D01*
X7265501Y-12572403D01*
X7329001Y-12635903D01*
X7651584Y-9110310D02*
X7715084Y-9046810D01*
X7651584Y-8983310D01*
X7588084Y-9046810D01*
X7651584Y-9110310D01*
X7663011Y-7133149D02*
X7726511Y-7069649D01*
X7663011Y-7006149D01*
X7599511Y-7069649D01*
X7663011Y-7133149D01*
X7784938Y-12929537D02*
X7848438Y-12866037D01*
X7784938Y-12802537D01*
X7721438Y-12866037D01*
X7784938Y-12929537D01*
X8091622Y-7465403D02*
X8155122Y-7401903D01*
X8091622Y-7338403D01*
X8028122Y-7401903D01*
X8091622Y-7465403D01*
X8702419Y-10211654D02*
X8765919Y-10148154D01*
X8702419Y-10084654D01*
X8638919Y-10148154D01*
X8702419Y-10211654D01*
X9131030Y-10543908D02*
X9194530Y-10480408D01*
X9131030Y-10416908D01*
X9067530Y-10480408D01*
X9131030Y-10543908D01*
X9144337Y-8562896D02*
X9207837Y-8499396D01*
X9144337Y-8435896D01*
X9080837Y-8499396D01*
X9144337Y-8562896D01*
X9185357Y-13044309D02*
X9248857Y-12980809D01*
X9185357Y-12917309D01*
X9121857Y-12980809D01*
X9185357Y-13044309D01*
X9572948Y-8895149D02*
X9636448Y-8831649D01*
X9572948Y-8768149D01*
X9509448Y-8831649D01*
X9572948Y-8895149D01*
X9583379Y-13412655D02*
X9646879Y-13349155D01*
X9583379Y-13285655D01*
X9519879Y-13349155D01*
X9583379Y-13412655D01*
X9584636Y-6914999D02*
X9648136Y-6851499D01*
X9584636Y-6787999D01*
X9521136Y-6851499D01*
X9584636Y-6914999D01*
X10013247Y-7247253D02*
X10076747Y-7183753D01*
X10013247Y-7120253D01*
X9949747Y-7183753D01*
X10013247Y-7247253D01*
X10254669Y-11392234D02*
X10318169Y-11328734D01*
X10254669Y-11265234D01*
X10191169Y-11328734D01*
X10254669Y-11392234D01*
X10683280Y-11724488D02*
X10746780Y-11660988D01*
X10683280Y-11597488D01*
X10619780Y-11660988D01*
X10683280Y-11724488D01*
X10694532Y-9749319D02*
X10758032Y-9685819D01*
X10694532Y-9622319D01*
X10631032Y-9685819D01*
X10694532Y-9749319D01*
X10944124Y-13769509D02*
X11007624Y-13706009D01*
X10944124Y-13642509D01*
X10880624Y-13706009D01*
X10944124Y-13769509D01*
X11123143Y-10081573D02*
X11186643Y-10018073D01*
X11123143Y-9954573D01*
X11059643Y-10018073D01*
X11123143Y-10081573D01*
X11133574Y-8104324D02*
X11197074Y-8040824D01*
X11133574Y-7977324D01*
X11070074Y-8040824D01*
X11133574Y-8104324D01*
X11272136Y-14201374D02*
X11335636Y-14137874D01*
X11272136Y-14074374D01*
X11208636Y-14137874D01*
X11272136Y-14201374D01*
X11562185Y-8436578D02*
X11625685Y-8373078D01*
X11562185Y-8309578D01*
X11498685Y-8373078D01*
X11562185Y-8436578D01*
X11899245Y-12214698D02*
X11962745Y-12151198D01*
X11899245Y-12087698D01*
X11835745Y-12151198D01*
X11899245Y-12214698D01*
X12327856Y-12546952D02*
X12391356Y-12483452D01*
X12327856Y-12419952D01*
X12264356Y-12483452D01*
X12327856Y-12546952D01*
X12339456Y-10567798D02*
X12402956Y-10504298D01*
X12339456Y-10440798D01*
X12275956Y-10504298D01*
X12339456Y-10567798D01*
X12552219Y-14788596D02*
X12615719Y-14725096D01*
X12552219Y-14661596D01*
X12488719Y-14725096D01*
X12552219Y-14788596D01*
X12768067Y-10900052D02*
X12831567Y-10836552D01*
X12768067Y-10773052D01*
X12704567Y-10836552D01*
X12768067Y-10900052D01*
X12780577Y-8921981D02*
X12844077Y-8858481D01*
X12780577Y-8794981D01*
X12717077Y-8858481D01*
X12780577Y-8921981D01*
X12800255Y-15270859D02*
X12863755Y-15207359D01*
X12800255Y-15143859D01*
X12736755Y-15207359D01*
X12800255Y-15270859D01*
X13209188Y-9254235D02*
X13272688Y-9190735D01*
X13209188Y-9127235D01*
X13145688Y-9190735D01*
X13209188Y-9254235D01*
X15185684Y-9180792D02*
X15249184Y-9117292D01*
X15185684Y-9053792D01*
X15122184Y-9117292D01*
X15185684Y-9180792D01*
X15613827Y-15431384D02*
X15677327Y-15367884D01*
X15613827Y-15304384D01*
X15550327Y-15367884D01*
X15613827Y-15431384D01*
X15626805Y-10826609D02*
X15690305Y-10763109D01*
X15626805Y-10699609D01*
X15563305Y-10763109D01*
X15626805Y-10826609D01*
X15722999Y-9254227D02*
X15786499Y-9190727D01*
X15722999Y-9127227D01*
X15659499Y-9190727D01*
X15722999Y-9254227D01*
X16067017Y-12473509D02*
X16130517Y-12410009D01*
X16067017Y-12346509D01*
X16003517Y-12410009D01*
X16067017Y-12473509D01*
X16131834Y-15270859D02*
X16195334Y-15207359D01*
X16131834Y-15143859D01*
X16068334Y-15207359D01*
X16131834Y-15270859D01*
X16164120Y-10900044D02*
X16227620Y-10836544D01*
X16164120Y-10773044D01*
X16100620Y-10836544D01*
X16164120Y-10900044D01*
X16604332Y-12546943D02*
X16667832Y-12483443D01*
X16604332Y-12419943D01*
X16540832Y-12483443D01*
X16604332Y-12546943D01*
X16832688Y-8363135D02*
X16896188Y-8299635D01*
X16832688Y-8236135D01*
X16769188Y-8299635D01*
X16832688Y-8363135D01*
X17121297Y-14269509D02*
X17184797Y-14206009D01*
X17121297Y-14142509D01*
X17057797Y-14206009D01*
X17121297Y-14269509D01*
X17271730Y-10008129D02*
X17335230Y-9944629D01*
X17271730Y-9881129D01*
X17208230Y-9944629D01*
X17271730Y-10008129D01*
X17370003Y-8436570D02*
X17433503Y-8373070D01*
X17370003Y-8309570D01*
X17306503Y-8373070D01*
X17370003Y-8436570D01*
X17659309Y-14201374D02*
X17722809Y-14137874D01*
X17659309Y-14074374D01*
X17595809Y-14137874D01*
X17659309Y-14201374D01*
X17711593Y-11651045D02*
X17775093Y-11587545D01*
X17711593Y-11524045D01*
X17648093Y-11587545D01*
X17711593Y-11651045D01*
X17809045Y-10081564D02*
X17872545Y-10018064D01*
X17809045Y-9954564D01*
X17745545Y-10018064D01*
X17809045Y-10081564D01*
X18248908Y-11724479D02*
X18312408Y-11660979D01*
X18248908Y-11597479D01*
X18185408Y-11660979D01*
X18248908Y-11724479D01*
X18381626Y-7173810D02*
X18445126Y-7110310D01*
X18381626Y-7046810D01*
X18318126Y-7110310D01*
X18381626Y-7173810D01*
X18807005Y-13386329D02*
X18870505Y-13322829D01*
X18807005Y-13259329D01*
X18743505Y-13322829D01*
X18807005Y-13386329D01*
X18821925Y-8821706D02*
X18885425Y-8758206D01*
X18821925Y-8694706D01*
X18758425Y-8758206D01*
X18821925Y-8821706D01*
X18918941Y-7247245D02*
X18982441Y-7183745D01*
X18918941Y-7120245D01*
X18855441Y-7183745D01*
X18918941Y-7247245D01*
X19263308Y-10470512D02*
X19326808Y-10407012D01*
X19263308Y-10343512D01*
X19199808Y-10407012D01*
X19263308Y-10470512D01*
X19348675Y-13412655D02*
X19412175Y-13349155D01*
X19348675Y-13285655D01*
X19285175Y-13349155D01*
X19348675Y-13412655D01*
X19359240Y-8895141D02*
X19422740Y-8831641D01*
X19359240Y-8768141D01*
X19295740Y-8831641D01*
X19359240Y-8895141D01*
X19800622Y-10543946D02*
X19864122Y-10480446D01*
X19800622Y-10416946D01*
X19737122Y-10480446D01*
X19800622Y-10543946D01*
X20303251Y-7391960D02*
X20366751Y-7328460D01*
X20303251Y-7264960D01*
X20239751Y-7328460D01*
X20303251Y-7391960D01*
X20618582Y-12809551D02*
X20682082Y-12746051D01*
X20618582Y-12682551D01*
X20555082Y-12746051D01*
X20618582Y-12809551D01*
X20743289Y-9036867D02*
X20806789Y-8973367D01*
X20743289Y-8909867D01*
X20679789Y-8973367D01*
X20743289Y-9036867D01*
X20840566Y-7465394D02*
X20904066Y-7401894D01*
X20840566Y-7338394D01*
X20777066Y-7401894D01*
X20840566Y-7465394D01*
X21147452Y-12929537D02*
X21210952Y-12866037D01*
X21147452Y-12802537D01*
X21083952Y-12866037D01*
X21147452Y-12929537D01*
X21184584Y-10684676D02*
X21248084Y-10621176D01*
X21184584Y-10557676D01*
X21121084Y-10621176D01*
X21184584Y-10684676D01*
X21280604Y-9110302D02*
X21344104Y-9046802D01*
X21280604Y-8983302D01*
X21217104Y-9046802D01*
X21280604Y-9110302D01*
X21721899Y-10758111D02*
X21785399Y-10694611D01*
X21721899Y-10631111D01*
X21658399Y-10694611D01*
X21721899Y-10758111D01*
X22294637Y-7860181D02*
X22358137Y-7796681D01*
X22294637Y-7733181D01*
X22231137Y-7796681D01*
X22294637Y-7860181D01*
X22737751Y-9505823D02*
X22801251Y-9442323D01*
X22737751Y-9378823D01*
X22674251Y-9442323D01*
X22737751Y-9505823D01*
X22831952Y-7933615D02*
X22895452Y-7870115D01*
X22831952Y-7806615D01*
X22768452Y-7870115D01*
X22831952Y-7933615D01*
X23174800Y-11150992D02*
X23238300Y-11087492D01*
X23174800Y-11023992D01*
X23111300Y-11087492D01*
X23174800Y-11150992D01*
X23275066Y-9579258D02*
X23338566Y-9515758D01*
X23275066Y-9452258D01*
X23211566Y-9515758D01*
X23275066Y-9579258D01*
X23712115Y-11224427D02*
X23775615Y-11160927D01*
X23712115Y-11097427D01*
X23648615Y-11160927D01*
X23712115Y-11224427D01*
X24036164Y-7388602D02*
X24099664Y-7325102D01*
X24036164Y-7261602D01*
X23972664Y-7325102D01*
X24036164Y-7388602D01*
X24476288Y-9034506D02*
X24539788Y-8971006D01*
X24476288Y-8907506D01*
X24412788Y-8971006D01*
X24476288Y-9034506D01*
X24573478Y-7462037D02*
X24636978Y-7398537D01*
X24573478Y-7335037D01*
X24509978Y-7398537D01*
X24573478Y-7462037D01*
X24917671Y-10683311D02*
X24981171Y-10619811D01*
X24917671Y-10556311D01*
X24854171Y-10619811D01*
X24917671Y-10683311D01*
X25013603Y-9107941D02*
X25077103Y-9044441D01*
X25013603Y-8980941D01*
X24950103Y-9044441D01*
X25013603Y-9107941D01*
X25454986Y-10756746D02*
X25518486Y-10693246D01*
X25454986Y-10629746D01*
X25391486Y-10693246D01*
X25454986Y-10756746D01*
D17*
X13831000Y-12875000D02*
X13981000Y-13025000D01*
X13981000Y-12875000D02*
X13831000Y-13025000D01*
X13981000Y-12950000D02*
G75*
G03*
X13981000Y-12950000I-75000J0D01*
G01*
D12*
X13971000Y-13015000D02*
X13971000Y-12885000D01*
X13841000Y-13015000D02*
X13841000Y-12885000D01*
X13971000Y-12885000D02*
G75*
G03*
X13841000Y-12885000I-65000J0D01*
G01*
X13841000Y-13015000D02*
G75*
G03*
X13971000Y-13015000I65000J0D01*
G01*
D17*
X14951000Y-12875000D02*
X15101000Y-13025000D01*
X15101000Y-12875000D02*
X14951000Y-13025000D01*
X15101000Y-12950000D02*
G75*
G03*
X15101000Y-12950000I-75000J0D01*
G01*
D12*
X15091000Y-13015000D02*
X15091000Y-12885000D01*
X14961000Y-13015000D02*
X14961000Y-12885000D01*
X15091000Y-12885000D02*
G75*
G03*
X14961000Y-12885000I-65000J0D01*
G01*
X14961000Y-13015000D02*
G75*
G03*
X15091000Y-13015000I65000J0D01*
G01*
X2506619Y-16511476D02*
X2506619Y-16311476D01*
X2554238Y-16311476D01*
X2582810Y-16321000D01*
X2601857Y-16340048D01*
X2611381Y-16359095D01*
X2620905Y-16397190D01*
X2620905Y-16425762D01*
X2611381Y-16463857D01*
X2601857Y-16482905D01*
X2582810Y-16501952D01*
X2554238Y-16511476D01*
X2506619Y-16511476D01*
X2706619Y-16511476D02*
X2706619Y-16378143D01*
X2706619Y-16416238D02*
X2716143Y-16397190D01*
X2725667Y-16387667D01*
X2744714Y-16378143D01*
X2763762Y-16378143D01*
X2830428Y-16511476D02*
X2830428Y-16378143D01*
X2830428Y-16311476D02*
X2820905Y-16321000D01*
X2830428Y-16330524D01*
X2839952Y-16321000D01*
X2830428Y-16311476D01*
X2830428Y-16330524D01*
X2954238Y-16511476D02*
X2935190Y-16501952D01*
X2925667Y-16482905D01*
X2925667Y-16311476D01*
X3059000Y-16511476D02*
X3039952Y-16501952D01*
X3030428Y-16482905D01*
X3030428Y-16311476D01*
X3287571Y-16511476D02*
X3287571Y-16311476D01*
X3354238Y-16454333D01*
X3420905Y-16311476D01*
X3420905Y-16511476D01*
X3601857Y-16511476D02*
X3601857Y-16406714D01*
X3592333Y-16387667D01*
X3573286Y-16378143D01*
X3535190Y-16378143D01*
X3516143Y-16387667D01*
X3601857Y-16501952D02*
X3582809Y-16511476D01*
X3535190Y-16511476D01*
X3516143Y-16501952D01*
X3506619Y-16482905D01*
X3506619Y-16463857D01*
X3516143Y-16444809D01*
X3535190Y-16435286D01*
X3582809Y-16435286D01*
X3601857Y-16425762D01*
X3697095Y-16378143D02*
X3697095Y-16578143D01*
X3697095Y-16387667D02*
X3716143Y-16378143D01*
X3754238Y-16378143D01*
X3773286Y-16387667D01*
X3782809Y-16397190D01*
X3792333Y-16416238D01*
X3792333Y-16473381D01*
X3782809Y-16492428D01*
X3773286Y-16501952D01*
X3754238Y-16511476D01*
X3716143Y-16511476D01*
X3697095Y-16501952D01*
X3878048Y-16492428D02*
X3887571Y-16501952D01*
X3878048Y-16511476D01*
X3868524Y-16501952D01*
X3878048Y-16492428D01*
X3878048Y-16511476D01*
X3878048Y-16387667D02*
X3887571Y-16397190D01*
X3878048Y-16406714D01*
X3868524Y-16397190D01*
X3878048Y-16387667D01*
X3878048Y-16406714D01*
D13*
X2219000Y-16826000D02*
X2249000Y-16856000D01*
X2249000Y-16826000D02*
X2219000Y-16856000D01*
D12*
X2544714Y-16731476D02*
X2563762Y-16731476D01*
X2582810Y-16741000D01*
X2592333Y-16750524D01*
X2601857Y-16769571D01*
X2611381Y-16807667D01*
X2611381Y-16855286D01*
X2601857Y-16893381D01*
X2592333Y-16912429D01*
X2582810Y-16921952D01*
X2563762Y-16931476D01*
X2544714Y-16931476D01*
X2525667Y-16921952D01*
X2516143Y-16912429D01*
X2506619Y-16893381D01*
X2497095Y-16855286D01*
X2497095Y-16807667D01*
X2506619Y-16769571D01*
X2516143Y-16750524D01*
X2525667Y-16741000D01*
X2544714Y-16731476D01*
X2697095Y-16912429D02*
X2706619Y-16921952D01*
X2697095Y-16931476D01*
X2687571Y-16921952D01*
X2697095Y-16912429D01*
X2697095Y-16931476D01*
X2773286Y-16731476D02*
X2897095Y-16731476D01*
X2830428Y-16807667D01*
X2859000Y-16807667D01*
X2878048Y-16817190D01*
X2887571Y-16826714D01*
X2897095Y-16845762D01*
X2897095Y-16893381D01*
X2887571Y-16912429D01*
X2878048Y-16921952D01*
X2859000Y-16931476D01*
X2801857Y-16931476D01*
X2782810Y-16921952D01*
X2773286Y-16912429D01*
X3020905Y-16731476D02*
X3039952Y-16731476D01*
X3059000Y-16741000D01*
X3068524Y-16750524D01*
X3078048Y-16769571D01*
X3087571Y-16807667D01*
X3087571Y-16855286D01*
X3078048Y-16893381D01*
X3068524Y-16912429D01*
X3059000Y-16921952D01*
X3039952Y-16931476D01*
X3020905Y-16931476D01*
X3001857Y-16921952D01*
X2992333Y-16912429D01*
X2982809Y-16893381D01*
X2973286Y-16855286D01*
X2973286Y-16807667D01*
X2982809Y-16769571D01*
X2992333Y-16750524D01*
X3001857Y-16741000D01*
X3020905Y-16731476D01*
X3211381Y-16731476D02*
X3230428Y-16731476D01*
X3249476Y-16741000D01*
X3259000Y-16750524D01*
X3268524Y-16769571D01*
X3278048Y-16807667D01*
X3278048Y-16855286D01*
X3268524Y-16893381D01*
X3259000Y-16912429D01*
X3249476Y-16921952D01*
X3230428Y-16931476D01*
X3211381Y-16931476D01*
X3192333Y-16921952D01*
X3182809Y-16912429D01*
X3173286Y-16893381D01*
X3163762Y-16855286D01*
X3163762Y-16807667D01*
X3173286Y-16769571D01*
X3182809Y-16750524D01*
X3192333Y-16741000D01*
X3211381Y-16731476D01*
X3363762Y-16931476D02*
X3363762Y-16798143D01*
X3363762Y-16817190D02*
X3373286Y-16807667D01*
X3392333Y-16798143D01*
X3420905Y-16798143D01*
X3439952Y-16807667D01*
X3449476Y-16826714D01*
X3449476Y-16931476D01*
X3449476Y-16826714D02*
X3459000Y-16807667D01*
X3478048Y-16798143D01*
X3506619Y-16798143D01*
X3525667Y-16807667D01*
X3535190Y-16826714D01*
X3535190Y-16931476D01*
X3630428Y-16931476D02*
X3630428Y-16798143D01*
X3630428Y-16817190D02*
X3639952Y-16807667D01*
X3659000Y-16798143D01*
X3687571Y-16798143D01*
X3706619Y-16807667D01*
X3716143Y-16826714D01*
X3716143Y-16931476D01*
X3716143Y-16826714D02*
X3725667Y-16807667D01*
X3744714Y-16798143D01*
X3773286Y-16798143D01*
X3792333Y-16807667D01*
X3801857Y-16826714D01*
X3801857Y-16931476D01*
X4192333Y-16721952D02*
X4020905Y-16979095D01*
X4449476Y-16731476D02*
X4468524Y-16731476D01*
X4487571Y-16741000D01*
X4497095Y-16750524D01*
X4506619Y-16769571D01*
X4516143Y-16807667D01*
X4516143Y-16855286D01*
X4506619Y-16893381D01*
X4497095Y-16912429D01*
X4487571Y-16921952D01*
X4468524Y-16931476D01*
X4449476Y-16931476D01*
X4430429Y-16921952D01*
X4420905Y-16912429D01*
X4411381Y-16893381D01*
X4401857Y-16855286D01*
X4401857Y-16807667D01*
X4411381Y-16769571D01*
X4420905Y-16750524D01*
X4430429Y-16741000D01*
X4449476Y-16731476D01*
X4601857Y-16912429D02*
X4611381Y-16921952D01*
X4601857Y-16931476D01*
X4592333Y-16921952D01*
X4601857Y-16912429D01*
X4601857Y-16931476D01*
X4735190Y-16731476D02*
X4754238Y-16731476D01*
X4773286Y-16741000D01*
X4782810Y-16750524D01*
X4792333Y-16769571D01*
X4801857Y-16807667D01*
X4801857Y-16855286D01*
X4792333Y-16893381D01*
X4782810Y-16912429D01*
X4773286Y-16921952D01*
X4754238Y-16931476D01*
X4735190Y-16931476D01*
X4716143Y-16921952D01*
X4706619Y-16912429D01*
X4697095Y-16893381D01*
X4687571Y-16855286D01*
X4687571Y-16807667D01*
X4697095Y-16769571D01*
X4706619Y-16750524D01*
X4716143Y-16741000D01*
X4735190Y-16731476D01*
X4992333Y-16931476D02*
X4878048Y-16931476D01*
X4935190Y-16931476D02*
X4935190Y-16731476D01*
X4916143Y-16760048D01*
X4897095Y-16779095D01*
X4878048Y-16788619D01*
X5182810Y-16931476D02*
X5068524Y-16931476D01*
X5125667Y-16931476D02*
X5125667Y-16731476D01*
X5106619Y-16760048D01*
X5087571Y-16779095D01*
X5068524Y-16788619D01*
X5297095Y-16817190D02*
X5278048Y-16807667D01*
X5268524Y-16798143D01*
X5259000Y-16779095D01*
X5259000Y-16769571D01*
X5268524Y-16750524D01*
X5278048Y-16741000D01*
X5297095Y-16731476D01*
X5335190Y-16731476D01*
X5354238Y-16741000D01*
X5363762Y-16750524D01*
X5373286Y-16769571D01*
X5373286Y-16779095D01*
X5363762Y-16798143D01*
X5354238Y-16807667D01*
X5335190Y-16817190D01*
X5297095Y-16817190D01*
X5278048Y-16826714D01*
X5268524Y-16836238D01*
X5259000Y-16855286D01*
X5259000Y-16893381D01*
X5268524Y-16912429D01*
X5278048Y-16921952D01*
X5297095Y-16931476D01*
X5335190Y-16931476D01*
X5354238Y-16921952D01*
X5363762Y-16912429D01*
X5373286Y-16893381D01*
X5373286Y-16855286D01*
X5363762Y-16836238D01*
X5354238Y-16826714D01*
X5335190Y-16817190D01*
X5449476Y-16731476D02*
X5449476Y-16769571D01*
X5525667Y-16731476D02*
X5525667Y-16769571D01*
X5820905Y-17007667D02*
X5811381Y-16998143D01*
X5792333Y-16969571D01*
X5782809Y-16950524D01*
X5773286Y-16921952D01*
X5763762Y-16874333D01*
X5763762Y-16836238D01*
X5773286Y-16788619D01*
X5782809Y-16760048D01*
X5792333Y-16741000D01*
X5811381Y-16712428D01*
X5820905Y-16702905D01*
X5878048Y-16731476D02*
X6011381Y-16731476D01*
X5925667Y-16931476D01*
X6125667Y-16731476D02*
X6144714Y-16731476D01*
X6163762Y-16741000D01*
X6173286Y-16750524D01*
X6182809Y-16769571D01*
X6192333Y-16807667D01*
X6192333Y-16855286D01*
X6182809Y-16893381D01*
X6173286Y-16912429D01*
X6163762Y-16921952D01*
X6144714Y-16931476D01*
X6125667Y-16931476D01*
X6106619Y-16921952D01*
X6097095Y-16912429D01*
X6087571Y-16893381D01*
X6078048Y-16855286D01*
X6078048Y-16807667D01*
X6087571Y-16769571D01*
X6097095Y-16750524D01*
X6106619Y-16741000D01*
X6125667Y-16731476D01*
X6430428Y-16931476D02*
X6430428Y-16731476D01*
X6516143Y-16931476D02*
X6516143Y-16826714D01*
X6506619Y-16807667D01*
X6487571Y-16798143D01*
X6459000Y-16798143D01*
X6439952Y-16807667D01*
X6430428Y-16817190D01*
X6639952Y-16931476D02*
X6620905Y-16921952D01*
X6611381Y-16912429D01*
X6601857Y-16893381D01*
X6601857Y-16836238D01*
X6611381Y-16817190D01*
X6620905Y-16807667D01*
X6639952Y-16798143D01*
X6668524Y-16798143D01*
X6687571Y-16807667D01*
X6697095Y-16817190D01*
X6706619Y-16836238D01*
X6706619Y-16893381D01*
X6697095Y-16912429D01*
X6687571Y-16921952D01*
X6668524Y-16931476D01*
X6639952Y-16931476D01*
X6820905Y-16931476D02*
X6801857Y-16921952D01*
X6792333Y-16902905D01*
X6792333Y-16731476D01*
X6973286Y-16921952D02*
X6954238Y-16931476D01*
X6916143Y-16931476D01*
X6897095Y-16921952D01*
X6887571Y-16902905D01*
X6887571Y-16826714D01*
X6897095Y-16807667D01*
X6916143Y-16798143D01*
X6954238Y-16798143D01*
X6973286Y-16807667D01*
X6982809Y-16826714D01*
X6982809Y-16845762D01*
X6887571Y-16864810D01*
X7059000Y-16921952D02*
X7078048Y-16931476D01*
X7116143Y-16931476D01*
X7135190Y-16921952D01*
X7144714Y-16902905D01*
X7144714Y-16893381D01*
X7135190Y-16874333D01*
X7116143Y-16864810D01*
X7087571Y-16864810D01*
X7068524Y-16855286D01*
X7059000Y-16836238D01*
X7059000Y-16826714D01*
X7068524Y-16807667D01*
X7087571Y-16798143D01*
X7116143Y-16798143D01*
X7135190Y-16807667D01*
X7211381Y-17007667D02*
X7220905Y-16998143D01*
X7239952Y-16969571D01*
X7249476Y-16950524D01*
X7259000Y-16921952D01*
X7268524Y-16874333D01*
X7268524Y-16836238D01*
X7259000Y-16788619D01*
X7249476Y-16760048D01*
X7239952Y-16741000D01*
X7220905Y-16712428D01*
X7211381Y-16702905D01*
D14*
X2249000Y-17105000D02*
G75*
G03*
X2249000Y-17105000I-40000J0D01*
G01*
D12*
X2544714Y-16995476D02*
X2563762Y-16995476D01*
X2582810Y-17005000D01*
X2592333Y-17014524D01*
X2601857Y-17033571D01*
X2611381Y-17071667D01*
X2611381Y-17119286D01*
X2601857Y-17157381D01*
X2592333Y-17176429D01*
X2582810Y-17185952D01*
X2563762Y-17195476D01*
X2544714Y-17195476D01*
X2525667Y-17185952D01*
X2516143Y-17176429D01*
X2506619Y-17157381D01*
X2497095Y-17119286D01*
X2497095Y-17071667D01*
X2506619Y-17033571D01*
X2516143Y-17014524D01*
X2525667Y-17005000D01*
X2544714Y-16995476D01*
X2697095Y-17176429D02*
X2706619Y-17185952D01*
X2697095Y-17195476D01*
X2687571Y-17185952D01*
X2697095Y-17176429D01*
X2697095Y-17195476D01*
X2820905Y-17081190D02*
X2801857Y-17071667D01*
X2792333Y-17062143D01*
X2782810Y-17043095D01*
X2782810Y-17033571D01*
X2792333Y-17014524D01*
X2801857Y-17005000D01*
X2820905Y-16995476D01*
X2859000Y-16995476D01*
X2878048Y-17005000D01*
X2887571Y-17014524D01*
X2897095Y-17033571D01*
X2897095Y-17043095D01*
X2887571Y-17062143D01*
X2878048Y-17071667D01*
X2859000Y-17081190D01*
X2820905Y-17081190D01*
X2801857Y-17090714D01*
X2792333Y-17100238D01*
X2782810Y-17119286D01*
X2782810Y-17157381D01*
X2792333Y-17176429D01*
X2801857Y-17185952D01*
X2820905Y-17195476D01*
X2859000Y-17195476D01*
X2878048Y-17185952D01*
X2887571Y-17176429D01*
X2897095Y-17157381D01*
X2897095Y-17119286D01*
X2887571Y-17100238D01*
X2878048Y-17090714D01*
X2859000Y-17081190D01*
X3020905Y-16995476D02*
X3039952Y-16995476D01*
X3059000Y-17005000D01*
X3068524Y-17014524D01*
X3078048Y-17033571D01*
X3087571Y-17071667D01*
X3087571Y-17119286D01*
X3078048Y-17157381D01*
X3068524Y-17176429D01*
X3059000Y-17185952D01*
X3039952Y-17195476D01*
X3020905Y-17195476D01*
X3001857Y-17185952D01*
X2992333Y-17176429D01*
X2982809Y-17157381D01*
X2973286Y-17119286D01*
X2973286Y-17071667D01*
X2982809Y-17033571D01*
X2992333Y-17014524D01*
X3001857Y-17005000D01*
X3020905Y-16995476D01*
X3211381Y-16995476D02*
X3230428Y-16995476D01*
X3249476Y-17005000D01*
X3259000Y-17014524D01*
X3268524Y-17033571D01*
X3278048Y-17071667D01*
X3278048Y-17119286D01*
X3268524Y-17157381D01*
X3259000Y-17176429D01*
X3249476Y-17185952D01*
X3230428Y-17195476D01*
X3211381Y-17195476D01*
X3192333Y-17185952D01*
X3182809Y-17176429D01*
X3173286Y-17157381D01*
X3163762Y-17119286D01*
X3163762Y-17071667D01*
X3173286Y-17033571D01*
X3182809Y-17014524D01*
X3192333Y-17005000D01*
X3211381Y-16995476D01*
X3363762Y-17195476D02*
X3363762Y-17062143D01*
X3363762Y-17081190D02*
X3373286Y-17071667D01*
X3392333Y-17062143D01*
X3420905Y-17062143D01*
X3439952Y-17071667D01*
X3449476Y-17090714D01*
X3449476Y-17195476D01*
X3449476Y-17090714D02*
X3459000Y-17071667D01*
X3478048Y-17062143D01*
X3506619Y-17062143D01*
X3525667Y-17071667D01*
X3535190Y-17090714D01*
X3535190Y-17195476D01*
X3630428Y-17195476D02*
X3630428Y-17062143D01*
X3630428Y-17081190D02*
X3639952Y-17071667D01*
X3659000Y-17062143D01*
X3687571Y-17062143D01*
X3706619Y-17071667D01*
X3716143Y-17090714D01*
X3716143Y-17195476D01*
X3716143Y-17090714D02*
X3725667Y-17071667D01*
X3744714Y-17062143D01*
X3773286Y-17062143D01*
X3792333Y-17071667D01*
X3801857Y-17090714D01*
X3801857Y-17195476D01*
X4192333Y-16985952D02*
X4020905Y-17243095D01*
X4449476Y-16995476D02*
X4468524Y-16995476D01*
X4487571Y-17005000D01*
X4497095Y-17014524D01*
X4506619Y-17033571D01*
X4516143Y-17071667D01*
X4516143Y-17119286D01*
X4506619Y-17157381D01*
X4497095Y-17176429D01*
X4487571Y-17185952D01*
X4468524Y-17195476D01*
X4449476Y-17195476D01*
X4430429Y-17185952D01*
X4420905Y-17176429D01*
X4411381Y-17157381D01*
X4401857Y-17119286D01*
X4401857Y-17071667D01*
X4411381Y-17033571D01*
X4420905Y-17014524D01*
X4430429Y-17005000D01*
X4449476Y-16995476D01*
X4601857Y-17176429D02*
X4611381Y-17185952D01*
X4601857Y-17195476D01*
X4592333Y-17185952D01*
X4601857Y-17176429D01*
X4601857Y-17195476D01*
X4735190Y-16995476D02*
X4754238Y-16995476D01*
X4773286Y-17005000D01*
X4782810Y-17014524D01*
X4792333Y-17033571D01*
X4801857Y-17071667D01*
X4801857Y-17119286D01*
X4792333Y-17157381D01*
X4782810Y-17176429D01*
X4773286Y-17185952D01*
X4754238Y-17195476D01*
X4735190Y-17195476D01*
X4716143Y-17185952D01*
X4706619Y-17176429D01*
X4697095Y-17157381D01*
X4687571Y-17119286D01*
X4687571Y-17071667D01*
X4697095Y-17033571D01*
X4706619Y-17014524D01*
X4716143Y-17005000D01*
X4735190Y-16995476D01*
X4868524Y-16995476D02*
X4992333Y-16995476D01*
X4925667Y-17071667D01*
X4954238Y-17071667D01*
X4973286Y-17081190D01*
X4982810Y-17090714D01*
X4992333Y-17109762D01*
X4992333Y-17157381D01*
X4982810Y-17176429D01*
X4973286Y-17185952D01*
X4954238Y-17195476D01*
X4897095Y-17195476D01*
X4878048Y-17185952D01*
X4868524Y-17176429D01*
X5182810Y-17195476D02*
X5068524Y-17195476D01*
X5125667Y-17195476D02*
X5125667Y-16995476D01*
X5106619Y-17024048D01*
X5087571Y-17043095D01*
X5068524Y-17052619D01*
X5363762Y-16995476D02*
X5268524Y-16995476D01*
X5259000Y-17090714D01*
X5268524Y-17081190D01*
X5287571Y-17071667D01*
X5335190Y-17071667D01*
X5354238Y-17081190D01*
X5363762Y-17090714D01*
X5373286Y-17109762D01*
X5373286Y-17157381D01*
X5363762Y-17176429D01*
X5354238Y-17185952D01*
X5335190Y-17195476D01*
X5287571Y-17195476D01*
X5268524Y-17185952D01*
X5259000Y-17176429D01*
X5449476Y-16995476D02*
X5449476Y-17033571D01*
X5525667Y-16995476D02*
X5525667Y-17033571D01*
X5820905Y-17271667D02*
X5811381Y-17262143D01*
X5792333Y-17233571D01*
X5782809Y-17214524D01*
X5773286Y-17185952D01*
X5763762Y-17138333D01*
X5763762Y-17100238D01*
X5773286Y-17052619D01*
X5782809Y-17024048D01*
X5792333Y-17005000D01*
X5811381Y-16976429D01*
X5820905Y-16966905D01*
X6001857Y-17195476D02*
X5887571Y-17195476D01*
X5944714Y-17195476D02*
X5944714Y-16995476D01*
X5925667Y-17024048D01*
X5906619Y-17043095D01*
X5887571Y-17052619D01*
X6125667Y-16995476D02*
X6144714Y-16995476D01*
X6163762Y-17005000D01*
X6173286Y-17014524D01*
X6182809Y-17033571D01*
X6192333Y-17071667D01*
X6192333Y-17119286D01*
X6182809Y-17157381D01*
X6173286Y-17176429D01*
X6163762Y-17185952D01*
X6144714Y-17195476D01*
X6125667Y-17195476D01*
X6106619Y-17185952D01*
X6097095Y-17176429D01*
X6087571Y-17157381D01*
X6078048Y-17119286D01*
X6078048Y-17071667D01*
X6087571Y-17033571D01*
X6097095Y-17014524D01*
X6106619Y-17005000D01*
X6125667Y-16995476D01*
X6430428Y-17195476D02*
X6430428Y-16995476D01*
X6516143Y-17195476D02*
X6516143Y-17090714D01*
X6506619Y-17071667D01*
X6487571Y-17062143D01*
X6459000Y-17062143D01*
X6439952Y-17071667D01*
X6430428Y-17081190D01*
X6639952Y-17195476D02*
X6620905Y-17185952D01*
X6611381Y-17176429D01*
X6601857Y-17157381D01*
X6601857Y-17100238D01*
X6611381Y-17081190D01*
X6620905Y-17071667D01*
X6639952Y-17062143D01*
X6668524Y-17062143D01*
X6687571Y-17071667D01*
X6697095Y-17081190D01*
X6706619Y-17100238D01*
X6706619Y-17157381D01*
X6697095Y-17176429D01*
X6687571Y-17185952D01*
X6668524Y-17195476D01*
X6639952Y-17195476D01*
X6820905Y-17195476D02*
X6801857Y-17185952D01*
X6792333Y-17166905D01*
X6792333Y-16995476D01*
X6973286Y-17185952D02*
X6954238Y-17195476D01*
X6916143Y-17195476D01*
X6897095Y-17185952D01*
X6887571Y-17166905D01*
X6887571Y-17090714D01*
X6897095Y-17071667D01*
X6916143Y-17062143D01*
X6954238Y-17062143D01*
X6973286Y-17071667D01*
X6982809Y-17090714D01*
X6982809Y-17109762D01*
X6887571Y-17128810D01*
X7059000Y-17185952D02*
X7078048Y-17195476D01*
X7116143Y-17195476D01*
X7135190Y-17185952D01*
X7144714Y-17166905D01*
X7144714Y-17157381D01*
X7135190Y-17138333D01*
X7116143Y-17128810D01*
X7087571Y-17128810D01*
X7068524Y-17119286D01*
X7059000Y-17100238D01*
X7059000Y-17090714D01*
X7068524Y-17071667D01*
X7087571Y-17062143D01*
X7116143Y-17062143D01*
X7135190Y-17071667D01*
X7211381Y-17271667D02*
X7220905Y-17262143D01*
X7239952Y-17233571D01*
X7249476Y-17214524D01*
X7259000Y-17185952D01*
X7268524Y-17138333D01*
X7268524Y-17100238D01*
X7259000Y-17052619D01*
X7249476Y-17024048D01*
X7239952Y-17005000D01*
X7220905Y-16976429D01*
X7211381Y-16966905D01*
D10*
X2199000Y-17319000D02*
X2199000Y-17419000D01*
X2149000Y-17369000D02*
X2249000Y-17369000D01*
D12*
X2611381Y-17459476D02*
X2497095Y-17459476D01*
X2554238Y-17459476D02*
X2554238Y-17259476D01*
X2535190Y-17288048D01*
X2516143Y-17307095D01*
X2497095Y-17316619D01*
X2697095Y-17440429D02*
X2706619Y-17449952D01*
X2697095Y-17459476D01*
X2687571Y-17449952D01*
X2697095Y-17440429D01*
X2697095Y-17459476D01*
X2830428Y-17259476D02*
X2849476Y-17259476D01*
X2868524Y-17269000D01*
X2878048Y-17278524D01*
X2887571Y-17297571D01*
X2897095Y-17335667D01*
X2897095Y-17383286D01*
X2887571Y-17421381D01*
X2878048Y-17440429D01*
X2868524Y-17449952D01*
X2849476Y-17459476D01*
X2830428Y-17459476D01*
X2811381Y-17449952D01*
X2801857Y-17440429D01*
X2792333Y-17421381D01*
X2782810Y-17383286D01*
X2782810Y-17335667D01*
X2792333Y-17297571D01*
X2801857Y-17278524D01*
X2811381Y-17269000D01*
X2830428Y-17259476D01*
X3020905Y-17259476D02*
X3039952Y-17259476D01*
X3059000Y-17269000D01*
X3068524Y-17278524D01*
X3078048Y-17297571D01*
X3087571Y-17335667D01*
X3087571Y-17383286D01*
X3078048Y-17421381D01*
X3068524Y-17440429D01*
X3059000Y-17449952D01*
X3039952Y-17459476D01*
X3020905Y-17459476D01*
X3001857Y-17449952D01*
X2992333Y-17440429D01*
X2982809Y-17421381D01*
X2973286Y-17383286D01*
X2973286Y-17335667D01*
X2982809Y-17297571D01*
X2992333Y-17278524D01*
X3001857Y-17269000D01*
X3020905Y-17259476D01*
X3211381Y-17259476D02*
X3230428Y-17259476D01*
X3249476Y-17269000D01*
X3259000Y-17278524D01*
X3268524Y-17297571D01*
X3278048Y-17335667D01*
X3278048Y-17383286D01*
X3268524Y-17421381D01*
X3259000Y-17440429D01*
X3249476Y-17449952D01*
X3230428Y-17459476D01*
X3211381Y-17459476D01*
X3192333Y-17449952D01*
X3182809Y-17440429D01*
X3173286Y-17421381D01*
X3163762Y-17383286D01*
X3163762Y-17335667D01*
X3173286Y-17297571D01*
X3182809Y-17278524D01*
X3192333Y-17269000D01*
X3211381Y-17259476D01*
X3363762Y-17459476D02*
X3363762Y-17326143D01*
X3363762Y-17345190D02*
X3373286Y-17335667D01*
X3392333Y-17326143D01*
X3420905Y-17326143D01*
X3439952Y-17335667D01*
X3449476Y-17354714D01*
X3449476Y-17459476D01*
X3449476Y-17354714D02*
X3459000Y-17335667D01*
X3478048Y-17326143D01*
X3506619Y-17326143D01*
X3525667Y-17335667D01*
X3535190Y-17354714D01*
X3535190Y-17459476D01*
X3630428Y-17459476D02*
X3630428Y-17326143D01*
X3630428Y-17345190D02*
X3639952Y-17335667D01*
X3659000Y-17326143D01*
X3687571Y-17326143D01*
X3706619Y-17335667D01*
X3716143Y-17354714D01*
X3716143Y-17459476D01*
X3716143Y-17354714D02*
X3725667Y-17335667D01*
X3744714Y-17326143D01*
X3773286Y-17326143D01*
X3792333Y-17335667D01*
X3801857Y-17354714D01*
X3801857Y-17459476D01*
X4192333Y-17249952D02*
X4020905Y-17507095D01*
X4449476Y-17259476D02*
X4468524Y-17259476D01*
X4487571Y-17269000D01*
X4497095Y-17278524D01*
X4506619Y-17297571D01*
X4516143Y-17335667D01*
X4516143Y-17383286D01*
X4506619Y-17421381D01*
X4497095Y-17440429D01*
X4487571Y-17449952D01*
X4468524Y-17459476D01*
X4449476Y-17459476D01*
X4430429Y-17449952D01*
X4420905Y-17440429D01*
X4411381Y-17421381D01*
X4401857Y-17383286D01*
X4401857Y-17335667D01*
X4411381Y-17297571D01*
X4420905Y-17278524D01*
X4430429Y-17269000D01*
X4449476Y-17259476D01*
X4601857Y-17440429D02*
X4611381Y-17449952D01*
X4601857Y-17459476D01*
X4592333Y-17449952D01*
X4601857Y-17440429D01*
X4601857Y-17459476D01*
X4735190Y-17259476D02*
X4754238Y-17259476D01*
X4773286Y-17269000D01*
X4782810Y-17278524D01*
X4792333Y-17297571D01*
X4801857Y-17335667D01*
X4801857Y-17383286D01*
X4792333Y-17421381D01*
X4782810Y-17440429D01*
X4773286Y-17449952D01*
X4754238Y-17459476D01*
X4735190Y-17459476D01*
X4716143Y-17449952D01*
X4706619Y-17440429D01*
X4697095Y-17421381D01*
X4687571Y-17383286D01*
X4687571Y-17335667D01*
X4697095Y-17297571D01*
X4706619Y-17278524D01*
X4716143Y-17269000D01*
X4735190Y-17259476D01*
X4868524Y-17259476D02*
X4992333Y-17259476D01*
X4925667Y-17335667D01*
X4954238Y-17335667D01*
X4973286Y-17345190D01*
X4982810Y-17354714D01*
X4992333Y-17373762D01*
X4992333Y-17421381D01*
X4982810Y-17440429D01*
X4973286Y-17449952D01*
X4954238Y-17459476D01*
X4897095Y-17459476D01*
X4878048Y-17449952D01*
X4868524Y-17440429D01*
X5087571Y-17459476D02*
X5125667Y-17459476D01*
X5144714Y-17449952D01*
X5154238Y-17440429D01*
X5173286Y-17411857D01*
X5182810Y-17373762D01*
X5182810Y-17297571D01*
X5173286Y-17278524D01*
X5163762Y-17269000D01*
X5144714Y-17259476D01*
X5106619Y-17259476D01*
X5087571Y-17269000D01*
X5078048Y-17278524D01*
X5068524Y-17297571D01*
X5068524Y-17345190D01*
X5078048Y-17364238D01*
X5087571Y-17373762D01*
X5106619Y-17383286D01*
X5144714Y-17383286D01*
X5163762Y-17373762D01*
X5173286Y-17364238D01*
X5182810Y-17345190D01*
X5354238Y-17326143D02*
X5354238Y-17459476D01*
X5306619Y-17249952D02*
X5259000Y-17392810D01*
X5382810Y-17392810D01*
X5449476Y-17259476D02*
X5449476Y-17297571D01*
X5525667Y-17259476D02*
X5525667Y-17297571D01*
X5820905Y-17535667D02*
X5811381Y-17526143D01*
X5792333Y-17497571D01*
X5782809Y-17478524D01*
X5773286Y-17449952D01*
X5763762Y-17402333D01*
X5763762Y-17364238D01*
X5773286Y-17316619D01*
X5782809Y-17288048D01*
X5792333Y-17269000D01*
X5811381Y-17240429D01*
X5820905Y-17230905D01*
X5906619Y-17459476D02*
X5944714Y-17459476D01*
X5963762Y-17449952D01*
X5973286Y-17440429D01*
X5992333Y-17411857D01*
X6001857Y-17373762D01*
X6001857Y-17297571D01*
X5992333Y-17278524D01*
X5982809Y-17269000D01*
X5963762Y-17259476D01*
X5925667Y-17259476D01*
X5906619Y-17269000D01*
X5897095Y-17278524D01*
X5887571Y-17297571D01*
X5887571Y-17345190D01*
X5897095Y-17364238D01*
X5906619Y-17373762D01*
X5925667Y-17383286D01*
X5963762Y-17383286D01*
X5982809Y-17373762D01*
X5992333Y-17364238D01*
X6001857Y-17345190D01*
X6097095Y-17459476D02*
X6135190Y-17459476D01*
X6154238Y-17449952D01*
X6163762Y-17440429D01*
X6182809Y-17411857D01*
X6192333Y-17373762D01*
X6192333Y-17297571D01*
X6182809Y-17278524D01*
X6173286Y-17269000D01*
X6154238Y-17259476D01*
X6116143Y-17259476D01*
X6097095Y-17269000D01*
X6087571Y-17278524D01*
X6078048Y-17297571D01*
X6078048Y-17345190D01*
X6087571Y-17364238D01*
X6097095Y-17373762D01*
X6116143Y-17383286D01*
X6154238Y-17383286D01*
X6173286Y-17373762D01*
X6182809Y-17364238D01*
X6192333Y-17345190D01*
X6430428Y-17459476D02*
X6430428Y-17259476D01*
X6516143Y-17459476D02*
X6516143Y-17354714D01*
X6506619Y-17335667D01*
X6487571Y-17326143D01*
X6459000Y-17326143D01*
X6439952Y-17335667D01*
X6430428Y-17345190D01*
X6639952Y-17459476D02*
X6620905Y-17449952D01*
X6611381Y-17440429D01*
X6601857Y-17421381D01*
X6601857Y-17364238D01*
X6611381Y-17345190D01*
X6620905Y-17335667D01*
X6639952Y-17326143D01*
X6668524Y-17326143D01*
X6687571Y-17335667D01*
X6697095Y-17345190D01*
X6706619Y-17364238D01*
X6706619Y-17421381D01*
X6697095Y-17440429D01*
X6687571Y-17449952D01*
X6668524Y-17459476D01*
X6639952Y-17459476D01*
X6820905Y-17459476D02*
X6801857Y-17449952D01*
X6792333Y-17430905D01*
X6792333Y-17259476D01*
X6973286Y-17449952D02*
X6954238Y-17459476D01*
X6916143Y-17459476D01*
X6897095Y-17449952D01*
X6887571Y-17430905D01*
X6887571Y-17354714D01*
X6897095Y-17335667D01*
X6916143Y-17326143D01*
X6954238Y-17326143D01*
X6973286Y-17335667D01*
X6982809Y-17354714D01*
X6982809Y-17373762D01*
X6887571Y-17392810D01*
X7059000Y-17449952D02*
X7078048Y-17459476D01*
X7116143Y-17459476D01*
X7135190Y-17449952D01*
X7144714Y-17430905D01*
X7144714Y-17421381D01*
X7135190Y-17402333D01*
X7116143Y-17392810D01*
X7087571Y-17392810D01*
X7068524Y-17383286D01*
X7059000Y-17364238D01*
X7059000Y-17354714D01*
X7068524Y-17335667D01*
X7087571Y-17326143D01*
X7116143Y-17326143D01*
X7135190Y-17335667D01*
X7211381Y-17535667D02*
X7220905Y-17526143D01*
X7239952Y-17497571D01*
X7249476Y-17478524D01*
X7259000Y-17449952D01*
X7268524Y-17402333D01*
X7268524Y-17364238D01*
X7259000Y-17316619D01*
X7249476Y-17288048D01*
X7239952Y-17269000D01*
X7220905Y-17240429D01*
X7211381Y-17230905D01*
D15*
X2233006Y-17671616D02*
X2233006Y-17594385D01*
X2155775Y-17594385D01*
X2155775Y-17671616D01*
X2233006Y-17671616D01*
D12*
X2611381Y-17723476D02*
X2497095Y-17723476D01*
X2554238Y-17723476D02*
X2554238Y-17523476D01*
X2535190Y-17552048D01*
X2516143Y-17571095D01*
X2497095Y-17580619D01*
X2697095Y-17704429D02*
X2706619Y-17713952D01*
X2697095Y-17723476D01*
X2687571Y-17713952D01*
X2697095Y-17704429D01*
X2697095Y-17723476D01*
X2830428Y-17523476D02*
X2849476Y-17523476D01*
X2868524Y-17533000D01*
X2878048Y-17542524D01*
X2887571Y-17561571D01*
X2897095Y-17599667D01*
X2897095Y-17647286D01*
X2887571Y-17685381D01*
X2878048Y-17704429D01*
X2868524Y-17713952D01*
X2849476Y-17723476D01*
X2830428Y-17723476D01*
X2811381Y-17713952D01*
X2801857Y-17704429D01*
X2792333Y-17685381D01*
X2782810Y-17647286D01*
X2782810Y-17599667D01*
X2792333Y-17561571D01*
X2801857Y-17542524D01*
X2811381Y-17533000D01*
X2830428Y-17523476D01*
X2992333Y-17723476D02*
X3030428Y-17723476D01*
X3049476Y-17713952D01*
X3059000Y-17704429D01*
X3078048Y-17675857D01*
X3087571Y-17637762D01*
X3087571Y-17561571D01*
X3078048Y-17542524D01*
X3068524Y-17533000D01*
X3049476Y-17523476D01*
X3011381Y-17523476D01*
X2992333Y-17533000D01*
X2982809Y-17542524D01*
X2973286Y-17561571D01*
X2973286Y-17609190D01*
X2982809Y-17628238D01*
X2992333Y-17637762D01*
X3011381Y-17647286D01*
X3049476Y-17647286D01*
X3068524Y-17637762D01*
X3078048Y-17628238D01*
X3087571Y-17609190D01*
X3163762Y-17542524D02*
X3173286Y-17533000D01*
X3192333Y-17523476D01*
X3239952Y-17523476D01*
X3259000Y-17533000D01*
X3268524Y-17542524D01*
X3278048Y-17561571D01*
X3278048Y-17580619D01*
X3268524Y-17609190D01*
X3154238Y-17723476D01*
X3278048Y-17723476D01*
X3363762Y-17723476D02*
X3363762Y-17590143D01*
X3363762Y-17609190D02*
X3373286Y-17599667D01*
X3392333Y-17590143D01*
X3420905Y-17590143D01*
X3439952Y-17599667D01*
X3449476Y-17618714D01*
X3449476Y-17723476D01*
X3449476Y-17618714D02*
X3459000Y-17599667D01*
X3478048Y-17590143D01*
X3506619Y-17590143D01*
X3525667Y-17599667D01*
X3535190Y-17618714D01*
X3535190Y-17723476D01*
X3630428Y-17723476D02*
X3630428Y-17590143D01*
X3630428Y-17609190D02*
X3639952Y-17599667D01*
X3659000Y-17590143D01*
X3687571Y-17590143D01*
X3706619Y-17599667D01*
X3716143Y-17618714D01*
X3716143Y-17723476D01*
X3716143Y-17618714D02*
X3725667Y-17599667D01*
X3744714Y-17590143D01*
X3773286Y-17590143D01*
X3792333Y-17599667D01*
X3801857Y-17618714D01*
X3801857Y-17723476D01*
X4192333Y-17513952D02*
X4020905Y-17771095D01*
X4449476Y-17523476D02*
X4468524Y-17523476D01*
X4487571Y-17533000D01*
X4497095Y-17542524D01*
X4506619Y-17561571D01*
X4516143Y-17599667D01*
X4516143Y-17647286D01*
X4506619Y-17685381D01*
X4497095Y-17704429D01*
X4487571Y-17713952D01*
X4468524Y-17723476D01*
X4449476Y-17723476D01*
X4430429Y-17713952D01*
X4420905Y-17704429D01*
X4411381Y-17685381D01*
X4401857Y-17647286D01*
X4401857Y-17599667D01*
X4411381Y-17561571D01*
X4420905Y-17542524D01*
X4430429Y-17533000D01*
X4449476Y-17523476D01*
X4601857Y-17704429D02*
X4611381Y-17713952D01*
X4601857Y-17723476D01*
X4592333Y-17713952D01*
X4601857Y-17704429D01*
X4601857Y-17723476D01*
X4735190Y-17523476D02*
X4754238Y-17523476D01*
X4773286Y-17533000D01*
X4782810Y-17542524D01*
X4792333Y-17561571D01*
X4801857Y-17599667D01*
X4801857Y-17647286D01*
X4792333Y-17685381D01*
X4782810Y-17704429D01*
X4773286Y-17713952D01*
X4754238Y-17723476D01*
X4735190Y-17723476D01*
X4716143Y-17713952D01*
X4706619Y-17704429D01*
X4697095Y-17685381D01*
X4687571Y-17647286D01*
X4687571Y-17599667D01*
X4697095Y-17561571D01*
X4706619Y-17542524D01*
X4716143Y-17533000D01*
X4735190Y-17523476D01*
X4973286Y-17590143D02*
X4973286Y-17723476D01*
X4925667Y-17513952D02*
X4878048Y-17656810D01*
X5001857Y-17656810D01*
X5059000Y-17523476D02*
X5182810Y-17523476D01*
X5116143Y-17599667D01*
X5144714Y-17599667D01*
X5163762Y-17609190D01*
X5173286Y-17618714D01*
X5182810Y-17637762D01*
X5182810Y-17685381D01*
X5173286Y-17704429D01*
X5163762Y-17713952D01*
X5144714Y-17723476D01*
X5087571Y-17723476D01*
X5068524Y-17713952D01*
X5059000Y-17704429D01*
X5306619Y-17523476D02*
X5325667Y-17523476D01*
X5344714Y-17533000D01*
X5354238Y-17542524D01*
X5363762Y-17561571D01*
X5373286Y-17599667D01*
X5373286Y-17647286D01*
X5363762Y-17685381D01*
X5354238Y-17704429D01*
X5344714Y-17713952D01*
X5325667Y-17723476D01*
X5306619Y-17723476D01*
X5287571Y-17713952D01*
X5278048Y-17704429D01*
X5268524Y-17685381D01*
X5259000Y-17647286D01*
X5259000Y-17599667D01*
X5268524Y-17561571D01*
X5278048Y-17542524D01*
X5287571Y-17533000D01*
X5306619Y-17523476D01*
X5449476Y-17523476D02*
X5449476Y-17561571D01*
X5525667Y-17523476D02*
X5525667Y-17561571D01*
X5820905Y-17799667D02*
X5811381Y-17790143D01*
X5792333Y-17761571D01*
X5782809Y-17742524D01*
X5773286Y-17713952D01*
X5763762Y-17666333D01*
X5763762Y-17628238D01*
X5773286Y-17580619D01*
X5782809Y-17552048D01*
X5792333Y-17533000D01*
X5811381Y-17504429D01*
X5820905Y-17494905D01*
X5887571Y-17542524D02*
X5897095Y-17533000D01*
X5916143Y-17523476D01*
X5963762Y-17523476D01*
X5982809Y-17533000D01*
X5992333Y-17542524D01*
X6001857Y-17561571D01*
X6001857Y-17580619D01*
X5992333Y-17609190D01*
X5878048Y-17723476D01*
X6001857Y-17723476D01*
X6173286Y-17590143D02*
X6173286Y-17723476D01*
X6125667Y-17513952D02*
X6078048Y-17656810D01*
X6201857Y-17656810D01*
X6430428Y-17723476D02*
X6430428Y-17523476D01*
X6516143Y-17723476D02*
X6516143Y-17618714D01*
X6506619Y-17599667D01*
X6487571Y-17590143D01*
X6459000Y-17590143D01*
X6439952Y-17599667D01*
X6430428Y-17609190D01*
X6639952Y-17723476D02*
X6620905Y-17713952D01*
X6611381Y-17704429D01*
X6601857Y-17685381D01*
X6601857Y-17628238D01*
X6611381Y-17609190D01*
X6620905Y-17599667D01*
X6639952Y-17590143D01*
X6668524Y-17590143D01*
X6687571Y-17599667D01*
X6697095Y-17609190D01*
X6706619Y-17628238D01*
X6706619Y-17685381D01*
X6697095Y-17704429D01*
X6687571Y-17713952D01*
X6668524Y-17723476D01*
X6639952Y-17723476D01*
X6820905Y-17723476D02*
X6801857Y-17713952D01*
X6792333Y-17694905D01*
X6792333Y-17523476D01*
X6973286Y-17713952D02*
X6954238Y-17723476D01*
X6916143Y-17723476D01*
X6897095Y-17713952D01*
X6887571Y-17694905D01*
X6887571Y-17618714D01*
X6897095Y-17599667D01*
X6916143Y-17590143D01*
X6954238Y-17590143D01*
X6973286Y-17599667D01*
X6982809Y-17618714D01*
X6982809Y-17637762D01*
X6887571Y-17656810D01*
X7059000Y-17713952D02*
X7078048Y-17723476D01*
X7116143Y-17723476D01*
X7135190Y-17713952D01*
X7144714Y-17694905D01*
X7144714Y-17685381D01*
X7135190Y-17666333D01*
X7116143Y-17656810D01*
X7087571Y-17656810D01*
X7068524Y-17647286D01*
X7059000Y-17628238D01*
X7059000Y-17618714D01*
X7068524Y-17599667D01*
X7087571Y-17590143D01*
X7116143Y-17590143D01*
X7135190Y-17599667D01*
X7211381Y-17799667D02*
X7220905Y-17790143D01*
X7239952Y-17761571D01*
X7249476Y-17742524D01*
X7259000Y-17713952D01*
X7268524Y-17666333D01*
X7268524Y-17628238D01*
X7259000Y-17580619D01*
X7249476Y-17552048D01*
X7239952Y-17533000D01*
X7220905Y-17504429D01*
X7211381Y-17494905D01*
D16*
X2185500Y-17960500D02*
X2249000Y-17897000D01*
X2185500Y-17833500D01*
X2122000Y-17897000D01*
X2185500Y-17960500D01*
D12*
X2611381Y-17987476D02*
X2497095Y-17987476D01*
X2554238Y-17987476D02*
X2554238Y-17787476D01*
X2535190Y-17816048D01*
X2516143Y-17835095D01*
X2497095Y-17844619D01*
X2697095Y-17968429D02*
X2706619Y-17977952D01*
X2697095Y-17987476D01*
X2687571Y-17977952D01*
X2697095Y-17968429D01*
X2697095Y-17987476D01*
X2782810Y-17806524D02*
X2792333Y-17797000D01*
X2811381Y-17787476D01*
X2859000Y-17787476D01*
X2878048Y-17797000D01*
X2887571Y-17806524D01*
X2897095Y-17825571D01*
X2897095Y-17844619D01*
X2887571Y-17873190D01*
X2773286Y-17987476D01*
X2897095Y-17987476D01*
X2963762Y-17787476D02*
X3097095Y-17787476D01*
X3011381Y-17987476D01*
X3211381Y-17787476D02*
X3230428Y-17787476D01*
X3249476Y-17797000D01*
X3259000Y-17806524D01*
X3268524Y-17825571D01*
X3278048Y-17863667D01*
X3278048Y-17911286D01*
X3268524Y-17949381D01*
X3259000Y-17968429D01*
X3249476Y-17977952D01*
X3230428Y-17987476D01*
X3211381Y-17987476D01*
X3192333Y-17977952D01*
X3182809Y-17968429D01*
X3173286Y-17949381D01*
X3163762Y-17911286D01*
X3163762Y-17863667D01*
X3173286Y-17825571D01*
X3182809Y-17806524D01*
X3192333Y-17797000D01*
X3211381Y-17787476D01*
X3363762Y-17987476D02*
X3363762Y-17854143D01*
X3363762Y-17873190D02*
X3373286Y-17863667D01*
X3392333Y-17854143D01*
X3420905Y-17854143D01*
X3439952Y-17863667D01*
X3449476Y-17882714D01*
X3449476Y-17987476D01*
X3449476Y-17882714D02*
X3459000Y-17863667D01*
X3478048Y-17854143D01*
X3506619Y-17854143D01*
X3525667Y-17863667D01*
X3535190Y-17882714D01*
X3535190Y-17987476D01*
X3630428Y-17987476D02*
X3630428Y-17854143D01*
X3630428Y-17873190D02*
X3639952Y-17863667D01*
X3659000Y-17854143D01*
X3687571Y-17854143D01*
X3706619Y-17863667D01*
X3716143Y-17882714D01*
X3716143Y-17987476D01*
X3716143Y-17882714D02*
X3725667Y-17863667D01*
X3744714Y-17854143D01*
X3773286Y-17854143D01*
X3792333Y-17863667D01*
X3801857Y-17882714D01*
X3801857Y-17987476D01*
X4192333Y-17777952D02*
X4020905Y-18035095D01*
X4449476Y-17787476D02*
X4468524Y-17787476D01*
X4487571Y-17797000D01*
X4497095Y-17806524D01*
X4506619Y-17825571D01*
X4516143Y-17863667D01*
X4516143Y-17911286D01*
X4506619Y-17949381D01*
X4497095Y-17968429D01*
X4487571Y-17977952D01*
X4468524Y-17987476D01*
X4449476Y-17987476D01*
X4430429Y-17977952D01*
X4420905Y-17968429D01*
X4411381Y-17949381D01*
X4401857Y-17911286D01*
X4401857Y-17863667D01*
X4411381Y-17825571D01*
X4420905Y-17806524D01*
X4430429Y-17797000D01*
X4449476Y-17787476D01*
X4601857Y-17968429D02*
X4611381Y-17977952D01*
X4601857Y-17987476D01*
X4592333Y-17977952D01*
X4601857Y-17968429D01*
X4601857Y-17987476D01*
X4735190Y-17787476D02*
X4754238Y-17787476D01*
X4773286Y-17797000D01*
X4782810Y-17806524D01*
X4792333Y-17825571D01*
X4801857Y-17863667D01*
X4801857Y-17911286D01*
X4792333Y-17949381D01*
X4782810Y-17968429D01*
X4773286Y-17977952D01*
X4754238Y-17987476D01*
X4735190Y-17987476D01*
X4716143Y-17977952D01*
X4706619Y-17968429D01*
X4697095Y-17949381D01*
X4687571Y-17911286D01*
X4687571Y-17863667D01*
X4697095Y-17825571D01*
X4706619Y-17806524D01*
X4716143Y-17797000D01*
X4735190Y-17787476D01*
X4982810Y-17787476D02*
X4887571Y-17787476D01*
X4878048Y-17882714D01*
X4887571Y-17873190D01*
X4906619Y-17863667D01*
X4954238Y-17863667D01*
X4973286Y-17873190D01*
X4982810Y-17882714D01*
X4992333Y-17901762D01*
X4992333Y-17949381D01*
X4982810Y-17968429D01*
X4973286Y-17977952D01*
X4954238Y-17987476D01*
X4906619Y-17987476D01*
X4887571Y-17977952D01*
X4878048Y-17968429D01*
X5116143Y-17787476D02*
X5135190Y-17787476D01*
X5154238Y-17797000D01*
X5163762Y-17806524D01*
X5173286Y-17825571D01*
X5182810Y-17863667D01*
X5182810Y-17911286D01*
X5173286Y-17949381D01*
X5163762Y-17968429D01*
X5154238Y-17977952D01*
X5135190Y-17987476D01*
X5116143Y-17987476D01*
X5097095Y-17977952D01*
X5087571Y-17968429D01*
X5078048Y-17949381D01*
X5068524Y-17911286D01*
X5068524Y-17863667D01*
X5078048Y-17825571D01*
X5087571Y-17806524D01*
X5097095Y-17797000D01*
X5116143Y-17787476D01*
X5306619Y-17787476D02*
X5325667Y-17787476D01*
X5344714Y-17797000D01*
X5354238Y-17806524D01*
X5363762Y-17825571D01*
X5373286Y-17863667D01*
X5373286Y-17911286D01*
X5363762Y-17949381D01*
X5354238Y-17968429D01*
X5344714Y-17977952D01*
X5325667Y-17987476D01*
X5306619Y-17987476D01*
X5287571Y-17977952D01*
X5278048Y-17968429D01*
X5268524Y-17949381D01*
X5259000Y-17911286D01*
X5259000Y-17863667D01*
X5268524Y-17825571D01*
X5278048Y-17806524D01*
X5287571Y-17797000D01*
X5306619Y-17787476D01*
X5449476Y-17787476D02*
X5449476Y-17825571D01*
X5525667Y-17787476D02*
X5525667Y-17825571D01*
X5820905Y-18063667D02*
X5811381Y-18054143D01*
X5792333Y-18025571D01*
X5782809Y-18006524D01*
X5773286Y-17977952D01*
X5763762Y-17930333D01*
X5763762Y-17892238D01*
X5773286Y-17844619D01*
X5782809Y-17816048D01*
X5792333Y-17797000D01*
X5811381Y-17768429D01*
X5820905Y-17758905D01*
X5925667Y-17873190D02*
X5906619Y-17863667D01*
X5897095Y-17854143D01*
X5887571Y-17835095D01*
X5887571Y-17825571D01*
X5897095Y-17806524D01*
X5906619Y-17797000D01*
X5925667Y-17787476D01*
X5963762Y-17787476D01*
X5982809Y-17797000D01*
X5992333Y-17806524D01*
X6001857Y-17825571D01*
X6001857Y-17835095D01*
X5992333Y-17854143D01*
X5982809Y-17863667D01*
X5963762Y-17873190D01*
X5925667Y-17873190D01*
X5906619Y-17882714D01*
X5897095Y-17892238D01*
X5887571Y-17911286D01*
X5887571Y-17949381D01*
X5897095Y-17968429D01*
X5906619Y-17977952D01*
X5925667Y-17987476D01*
X5963762Y-17987476D01*
X5982809Y-17977952D01*
X5992333Y-17968429D01*
X6001857Y-17949381D01*
X6001857Y-17911286D01*
X5992333Y-17892238D01*
X5982809Y-17882714D01*
X5963762Y-17873190D01*
X6116143Y-17873190D02*
X6097095Y-17863667D01*
X6087571Y-17854143D01*
X6078048Y-17835095D01*
X6078048Y-17825571D01*
X6087571Y-17806524D01*
X6097095Y-17797000D01*
X6116143Y-17787476D01*
X6154238Y-17787476D01*
X6173286Y-17797000D01*
X6182809Y-17806524D01*
X6192333Y-17825571D01*
X6192333Y-17835095D01*
X6182809Y-17854143D01*
X6173286Y-17863667D01*
X6154238Y-17873190D01*
X6116143Y-17873190D01*
X6097095Y-17882714D01*
X6087571Y-17892238D01*
X6078048Y-17911286D01*
X6078048Y-17949381D01*
X6087571Y-17968429D01*
X6097095Y-17977952D01*
X6116143Y-17987476D01*
X6154238Y-17987476D01*
X6173286Y-17977952D01*
X6182809Y-17968429D01*
X6192333Y-17949381D01*
X6192333Y-17911286D01*
X6182809Y-17892238D01*
X6173286Y-17882714D01*
X6154238Y-17873190D01*
X6430428Y-17987476D02*
X6430428Y-17787476D01*
X6516143Y-17987476D02*
X6516143Y-17882714D01*
X6506619Y-17863667D01*
X6487571Y-17854143D01*
X6459000Y-17854143D01*
X6439952Y-17863667D01*
X6430428Y-17873190D01*
X6639952Y-17987476D02*
X6620905Y-17977952D01*
X6611381Y-17968429D01*
X6601857Y-17949381D01*
X6601857Y-17892238D01*
X6611381Y-17873190D01*
X6620905Y-17863667D01*
X6639952Y-17854143D01*
X6668524Y-17854143D01*
X6687571Y-17863667D01*
X6697095Y-17873190D01*
X6706619Y-17892238D01*
X6706619Y-17949381D01*
X6697095Y-17968429D01*
X6687571Y-17977952D01*
X6668524Y-17987476D01*
X6639952Y-17987476D01*
X6820905Y-17987476D02*
X6801857Y-17977952D01*
X6792333Y-17958905D01*
X6792333Y-17787476D01*
X6973286Y-17977952D02*
X6954238Y-17987476D01*
X6916143Y-17987476D01*
X6897095Y-17977952D01*
X6887571Y-17958905D01*
X6887571Y-17882714D01*
X6897095Y-17863667D01*
X6916143Y-17854143D01*
X6954238Y-17854143D01*
X6973286Y-17863667D01*
X6982809Y-17882714D01*
X6982809Y-17901762D01*
X6887571Y-17920810D01*
X7059000Y-17977952D02*
X7078048Y-17987476D01*
X7116143Y-17987476D01*
X7135190Y-17977952D01*
X7144714Y-17958905D01*
X7144714Y-17949381D01*
X7135190Y-17930333D01*
X7116143Y-17920810D01*
X7087571Y-17920810D01*
X7068524Y-17911286D01*
X7059000Y-17892238D01*
X7059000Y-17882714D01*
X7068524Y-17863667D01*
X7087571Y-17854143D01*
X7116143Y-17854143D01*
X7135190Y-17863667D01*
X7211381Y-18063667D02*
X7220905Y-18054143D01*
X7239952Y-18025571D01*
X7249476Y-18006524D01*
X7259000Y-17977952D01*
X7268524Y-17930333D01*
X7268524Y-17892238D01*
X7259000Y-17844619D01*
X7249476Y-17816048D01*
X7239952Y-17797000D01*
X7220905Y-17768429D01*
X7211381Y-17758905D01*
D17*
X2099000Y-18086000D02*
X2249000Y-18236000D01*
X2249000Y-18086000D02*
X2099000Y-18236000D01*
X2249000Y-18161000D02*
G75*
G03*
X2249000Y-18161000I-75000J0D01*
G01*
D12*
X2611381Y-18251476D02*
X2497095Y-18251476D01*
X2554238Y-18251476D02*
X2554238Y-18051476D01*
X2535190Y-18080048D01*
X2516143Y-18099095D01*
X2497095Y-18108619D01*
X2697095Y-18232429D02*
X2706619Y-18241952D01*
X2697095Y-18251476D01*
X2687571Y-18241952D01*
X2697095Y-18232429D01*
X2697095Y-18251476D01*
X2887571Y-18051476D02*
X2792333Y-18051476D01*
X2782810Y-18146714D01*
X2792333Y-18137190D01*
X2811381Y-18127667D01*
X2859000Y-18127667D01*
X2878048Y-18137190D01*
X2887571Y-18146714D01*
X2897095Y-18165762D01*
X2897095Y-18213381D01*
X2887571Y-18232429D01*
X2878048Y-18241952D01*
X2859000Y-18251476D01*
X2811381Y-18251476D01*
X2792333Y-18241952D01*
X2782810Y-18232429D01*
X3020905Y-18051476D02*
X3039952Y-18051476D01*
X3059000Y-18061000D01*
X3068524Y-18070524D01*
X3078048Y-18089571D01*
X3087571Y-18127667D01*
X3087571Y-18175286D01*
X3078048Y-18213381D01*
X3068524Y-18232429D01*
X3059000Y-18241952D01*
X3039952Y-18251476D01*
X3020905Y-18251476D01*
X3001857Y-18241952D01*
X2992333Y-18232429D01*
X2982809Y-18213381D01*
X2973286Y-18175286D01*
X2973286Y-18127667D01*
X2982809Y-18089571D01*
X2992333Y-18070524D01*
X3001857Y-18061000D01*
X3020905Y-18051476D01*
X3211381Y-18051476D02*
X3230428Y-18051476D01*
X3249476Y-18061000D01*
X3259000Y-18070524D01*
X3268524Y-18089571D01*
X3278048Y-18127667D01*
X3278048Y-18175286D01*
X3268524Y-18213381D01*
X3259000Y-18232429D01*
X3249476Y-18241952D01*
X3230428Y-18251476D01*
X3211381Y-18251476D01*
X3192333Y-18241952D01*
X3182809Y-18232429D01*
X3173286Y-18213381D01*
X3163762Y-18175286D01*
X3163762Y-18127667D01*
X3173286Y-18089571D01*
X3182809Y-18070524D01*
X3192333Y-18061000D01*
X3211381Y-18051476D01*
X3363762Y-18251476D02*
X3363762Y-18118143D01*
X3363762Y-18137190D02*
X3373286Y-18127667D01*
X3392333Y-18118143D01*
X3420905Y-18118143D01*
X3439952Y-18127667D01*
X3449476Y-18146714D01*
X3449476Y-18251476D01*
X3449476Y-18146714D02*
X3459000Y-18127667D01*
X3478048Y-18118143D01*
X3506619Y-18118143D01*
X3525667Y-18127667D01*
X3535190Y-18146714D01*
X3535190Y-18251476D01*
X3630428Y-18251476D02*
X3630428Y-18118143D01*
X3630428Y-18137190D02*
X3639952Y-18127667D01*
X3659000Y-18118143D01*
X3687571Y-18118143D01*
X3706619Y-18127667D01*
X3716143Y-18146714D01*
X3716143Y-18251476D01*
X3716143Y-18146714D02*
X3725667Y-18127667D01*
X3744714Y-18118143D01*
X3773286Y-18118143D01*
X3792333Y-18127667D01*
X3801857Y-18146714D01*
X3801857Y-18251476D01*
X4192333Y-18041952D02*
X4020905Y-18299095D01*
X4449476Y-18051476D02*
X4468524Y-18051476D01*
X4487571Y-18061000D01*
X4497095Y-18070524D01*
X4506619Y-18089571D01*
X4516143Y-18127667D01*
X4516143Y-18175286D01*
X4506619Y-18213381D01*
X4497095Y-18232429D01*
X4487571Y-18241952D01*
X4468524Y-18251476D01*
X4449476Y-18251476D01*
X4430429Y-18241952D01*
X4420905Y-18232429D01*
X4411381Y-18213381D01*
X4401857Y-18175286D01*
X4401857Y-18127667D01*
X4411381Y-18089571D01*
X4420905Y-18070524D01*
X4430429Y-18061000D01*
X4449476Y-18051476D01*
X4601857Y-18232429D02*
X4611381Y-18241952D01*
X4601857Y-18251476D01*
X4592333Y-18241952D01*
X4601857Y-18232429D01*
X4601857Y-18251476D01*
X4735190Y-18051476D02*
X4754238Y-18051476D01*
X4773286Y-18061000D01*
X4782810Y-18070524D01*
X4792333Y-18089571D01*
X4801857Y-18127667D01*
X4801857Y-18175286D01*
X4792333Y-18213381D01*
X4782810Y-18232429D01*
X4773286Y-18241952D01*
X4754238Y-18251476D01*
X4735190Y-18251476D01*
X4716143Y-18241952D01*
X4706619Y-18232429D01*
X4697095Y-18213381D01*
X4687571Y-18175286D01*
X4687571Y-18127667D01*
X4697095Y-18089571D01*
X4706619Y-18070524D01*
X4716143Y-18061000D01*
X4735190Y-18051476D01*
X4982810Y-18051476D02*
X4887571Y-18051476D01*
X4878048Y-18146714D01*
X4887571Y-18137190D01*
X4906619Y-18127667D01*
X4954238Y-18127667D01*
X4973286Y-18137190D01*
X4982810Y-18146714D01*
X4992333Y-18165762D01*
X4992333Y-18213381D01*
X4982810Y-18232429D01*
X4973286Y-18241952D01*
X4954238Y-18251476D01*
X4906619Y-18251476D01*
X4887571Y-18241952D01*
X4878048Y-18232429D01*
X5087571Y-18251476D02*
X5125667Y-18251476D01*
X5144714Y-18241952D01*
X5154238Y-18232429D01*
X5173286Y-18203857D01*
X5182810Y-18165762D01*
X5182810Y-18089571D01*
X5173286Y-18070524D01*
X5163762Y-18061000D01*
X5144714Y-18051476D01*
X5106619Y-18051476D01*
X5087571Y-18061000D01*
X5078048Y-18070524D01*
X5068524Y-18089571D01*
X5068524Y-18137190D01*
X5078048Y-18156238D01*
X5087571Y-18165762D01*
X5106619Y-18175286D01*
X5144714Y-18175286D01*
X5163762Y-18165762D01*
X5173286Y-18156238D01*
X5182810Y-18137190D01*
X5373286Y-18251476D02*
X5259000Y-18251476D01*
X5316143Y-18251476D02*
X5316143Y-18051476D01*
X5297095Y-18080048D01*
X5278048Y-18099095D01*
X5259000Y-18108619D01*
X5449476Y-18051476D02*
X5449476Y-18089571D01*
X5525667Y-18051476D02*
X5525667Y-18089571D01*
X5820905Y-18327667D02*
X5811381Y-18318143D01*
X5792333Y-18289571D01*
X5782809Y-18270524D01*
X5773286Y-18241952D01*
X5763762Y-18194333D01*
X5763762Y-18156238D01*
X5773286Y-18108619D01*
X5782809Y-18080048D01*
X5792333Y-18061000D01*
X5811381Y-18032429D01*
X5820905Y-18022905D01*
X5935190Y-18051476D02*
X5954238Y-18051476D01*
X5973286Y-18061000D01*
X5982809Y-18070524D01*
X5992333Y-18089571D01*
X6001857Y-18127667D01*
X6001857Y-18175286D01*
X5992333Y-18213381D01*
X5982809Y-18232429D01*
X5973286Y-18241952D01*
X5954238Y-18251476D01*
X5935190Y-18251476D01*
X5916143Y-18241952D01*
X5906619Y-18232429D01*
X5897095Y-18213381D01*
X5887571Y-18175286D01*
X5887571Y-18127667D01*
X5897095Y-18089571D01*
X5906619Y-18070524D01*
X5916143Y-18061000D01*
X5935190Y-18051476D01*
X6239952Y-18251476D02*
X6239952Y-18051476D01*
X6325667Y-18251476D02*
X6325667Y-18146714D01*
X6316143Y-18127667D01*
X6297095Y-18118143D01*
X6268524Y-18118143D01*
X6249476Y-18127667D01*
X6239952Y-18137190D01*
X6449476Y-18251476D02*
X6430428Y-18241952D01*
X6420905Y-18232429D01*
X6411381Y-18213381D01*
X6411381Y-18156238D01*
X6420905Y-18137190D01*
X6430428Y-18127667D01*
X6449476Y-18118143D01*
X6478048Y-18118143D01*
X6497095Y-18127667D01*
X6506619Y-18137190D01*
X6516143Y-18156238D01*
X6516143Y-18213381D01*
X6506619Y-18232429D01*
X6497095Y-18241952D01*
X6478048Y-18251476D01*
X6449476Y-18251476D01*
X6630428Y-18251476D02*
X6611381Y-18241952D01*
X6601857Y-18222905D01*
X6601857Y-18051476D01*
X6782809Y-18241952D02*
X6763762Y-18251476D01*
X6725667Y-18251476D01*
X6706619Y-18241952D01*
X6697095Y-18222905D01*
X6697095Y-18146714D01*
X6706619Y-18127667D01*
X6725667Y-18118143D01*
X6763762Y-18118143D01*
X6782809Y-18127667D01*
X6792333Y-18146714D01*
X6792333Y-18165762D01*
X6697095Y-18184810D01*
X6868524Y-18241952D02*
X6887571Y-18251476D01*
X6925667Y-18251476D01*
X6944714Y-18241952D01*
X6954238Y-18222905D01*
X6954238Y-18213381D01*
X6944714Y-18194333D01*
X6925667Y-18184810D01*
X6897095Y-18184810D01*
X6878048Y-18175286D01*
X6868524Y-18156238D01*
X6868524Y-18146714D01*
X6878048Y-18127667D01*
X6897095Y-18118143D01*
X6925667Y-18118143D01*
X6944714Y-18127667D01*
X7192333Y-18175286D02*
X7344714Y-18175286D01*
X7268524Y-18251476D02*
X7268524Y-18099095D01*
X7582809Y-18070524D02*
X7592333Y-18061000D01*
X7611381Y-18051476D01*
X7659000Y-18051476D01*
X7678048Y-18061000D01*
X7687571Y-18070524D01*
X7697095Y-18089571D01*
X7697095Y-18108619D01*
X7687571Y-18137190D01*
X7573286Y-18251476D01*
X7697095Y-18251476D01*
X7925667Y-18241952D02*
X7944714Y-18251476D01*
X7982809Y-18251476D01*
X8001857Y-18241952D01*
X8011381Y-18222905D01*
X8011381Y-18213381D01*
X8001857Y-18194333D01*
X7982809Y-18184810D01*
X7954238Y-18184810D01*
X7935190Y-18175286D01*
X7925667Y-18156238D01*
X7925667Y-18146714D01*
X7935190Y-18127667D01*
X7954238Y-18118143D01*
X7982809Y-18118143D01*
X8001857Y-18127667D01*
X8125667Y-18251476D02*
X8106619Y-18241952D01*
X8097095Y-18222905D01*
X8097095Y-18051476D01*
X8230428Y-18251476D02*
X8211381Y-18241952D01*
X8201857Y-18232429D01*
X8192333Y-18213381D01*
X8192333Y-18156238D01*
X8201857Y-18137190D01*
X8211381Y-18127667D01*
X8230428Y-18118143D01*
X8259000Y-18118143D01*
X8278048Y-18127667D01*
X8287571Y-18137190D01*
X8297095Y-18156238D01*
X8297095Y-18213381D01*
X8287571Y-18232429D01*
X8278048Y-18241952D01*
X8259000Y-18251476D01*
X8230428Y-18251476D01*
X8354238Y-18118143D02*
X8430429Y-18118143D01*
X8382809Y-18051476D02*
X8382809Y-18222905D01*
X8392333Y-18241952D01*
X8411381Y-18251476D01*
X8430429Y-18251476D01*
X8487571Y-18241952D02*
X8506619Y-18251476D01*
X8544714Y-18251476D01*
X8563762Y-18241952D01*
X8573286Y-18222905D01*
X8573286Y-18213381D01*
X8563762Y-18194333D01*
X8544714Y-18184810D01*
X8516143Y-18184810D01*
X8497095Y-18175286D01*
X8487571Y-18156238D01*
X8487571Y-18146714D01*
X8497095Y-18127667D01*
X8516143Y-18118143D01*
X8544714Y-18118143D01*
X8563762Y-18127667D01*
X8639952Y-18327667D02*
X8649476Y-18318143D01*
X8668524Y-18289571D01*
X8678048Y-18270524D01*
X8687571Y-18241952D01*
X8697095Y-18194333D01*
X8697095Y-18156238D01*
X8687571Y-18108619D01*
X8678048Y-18080048D01*
X8668524Y-18061000D01*
X8649476Y-18032429D01*
X8639952Y-18022905D01*
M02*
