G04 #@! TF.GenerationSoftware,KiCad,Pcbnew,(6.0.0)*
G04 #@! TF.CreationDate,2023-08-21T19:05:23+03:00*
G04 #@! TF.ProjectId,choctopus44,63686f63-746f-4707-9573-34342e6b6963,1.0 Prototype*
G04 #@! TF.SameCoordinates,Original*
G04 #@! TF.FileFunction,Paste,Bot*
G04 #@! TF.FilePolarity,Positive*
%FSLAX46Y46*%
G04 Gerber Fmt 4.6, Leading zero omitted, Abs format (unit mm)*
G04 Created by KiCad (PCBNEW (6.0.0)) date 2023-08-21 19:05:23*
%MOMM*%
%LPD*%
G01*
G04 APERTURE LIST*
G04 Aperture macros list*
%AMRotRect*
0 Rectangle, with rotation*
0 The origin of the aperture is its center*
0 $1 length*
0 $2 width*
0 $3 Rotation angle, in degrees counterclockwise*
0 Add horizontal line*
21,1,$1,$2,0,0,$3*%
G04 Aperture macros list end*
%ADD10RotRect,2.600000X2.600000X345.000000*%
%ADD11RotRect,2.600000X2.600000X350.000000*%
%ADD12RotRect,2.600000X2.600000X340.000000*%
%ADD13RotRect,2.600000X2.600000X330.000000*%
%ADD14RotRect,2.600000X2.600000X30.000000*%
%ADD15RotRect,2.600000X2.600000X20.000000*%
%ADD16RotRect,2.600000X2.600000X40.000000*%
%ADD17RotRect,1.600000X1.200000X255.000000*%
%ADD18RotRect,1.600000X1.200000X285.000000*%
%ADD19RotRect,1.600000X1.200000X260.000000*%
%ADD20RotRect,1.600000X1.200000X250.000000*%
%ADD21RotRect,1.600000X1.200000X240.000000*%
%ADD22RotRect,1.600000X1.200000X310.000000*%
%ADD23RotRect,1.600000X1.200000X300.000000*%
%ADD24RotRect,2.600000X2.600000X15.000000*%
%ADD25RotRect,2.600000X2.600000X10.000000*%
%ADD26RotRect,1.600000X1.200000X290.000000*%
%ADD27RotRect,1.600000X1.200000X280.000000*%
%ADD28R,1.600000X1.200000*%
%ADD29RotRect,2.600000X2.600000X320.000000*%
%ADD30RotRect,1.600000X1.200000X230.000000*%
G04 APERTURE END LIST*
D10*
X34675620Y-94638688D03*
X45262662Y-99753085D03*
X52104330Y-99315497D03*
X62691372Y-104429894D03*
X72006485Y-94652340D03*
X82593527Y-99766737D03*
X91213893Y-92510224D03*
X101800935Y-97624621D03*
X123182154Y-112540664D03*
X133769196Y-117655061D03*
D11*
X76681870Y-116421696D03*
X87674374Y-120593910D03*
D12*
X96809240Y-121236073D03*
X106910245Y-127253729D03*
D13*
X115810129Y-129478844D03*
X124712722Y-137159100D03*
D14*
X167831859Y-132753844D03*
X178934452Y-128884100D03*
D15*
X186356321Y-123476305D03*
X197962215Y-121593296D03*
D16*
X151192515Y-145101098D03*
X161454461Y-139362199D03*
D17*
X52651779Y-74938786D03*
X53376473Y-72234194D03*
X70067041Y-79654571D03*
X70791735Y-76949979D03*
X89980901Y-74972361D03*
X90705595Y-72267769D03*
X109197154Y-72790867D03*
X109921848Y-70086275D03*
X141156570Y-92860685D03*
X141881264Y-90156093D03*
X48250531Y-91397824D03*
X48975225Y-88693232D03*
X65635908Y-96110994D03*
X66360602Y-93406402D03*
X85580525Y-91421437D03*
X86305219Y-88716845D03*
X104794163Y-89269828D03*
X105518857Y-86565236D03*
X136745360Y-109318851D03*
X137470054Y-106614259D03*
X43836707Y-107885875D03*
X44561401Y-105181283D03*
X61265417Y-112562684D03*
X61990111Y-109858092D03*
X81167572Y-107899527D03*
X81892266Y-105194935D03*
X100374980Y-105757411D03*
X101099674Y-103052819D03*
X132343241Y-125787851D03*
X133067935Y-123083259D03*
D18*
X165565309Y-88260603D03*
X164840615Y-85556011D03*
X182035347Y-80084030D03*
X181310653Y-77379438D03*
X216740978Y-70372279D03*
X216016284Y-67667687D03*
X236654837Y-75054489D03*
X235930143Y-72349897D03*
X254070100Y-70338704D03*
X253345406Y-67634112D03*
X169976518Y-104718769D03*
X169251824Y-102014177D03*
X186425761Y-96533977D03*
X185701067Y-93829385D03*
X221141354Y-86821355D03*
X220416660Y-84116763D03*
X241085971Y-91510912D03*
X240361277Y-88806320D03*
X258471348Y-86797742D03*
X257746654Y-84093150D03*
X174382347Y-121192296D03*
X173657653Y-118487704D03*
X190824394Y-112963129D03*
X190099700Y-110258537D03*
X225554306Y-103299445D03*
X224829612Y-100594853D03*
X245456461Y-107962602D03*
X244731767Y-105258010D03*
X262885172Y-103285793D03*
X262160478Y-100581201D03*
D19*
X86756893Y-129378731D03*
X87243107Y-126621269D03*
D20*
X104521172Y-135664802D03*
X105478828Y-133033662D03*
D21*
X121000000Y-145000000D03*
X122400000Y-142575128D03*
D22*
X167393031Y-145584889D03*
X165593225Y-143439965D03*
D23*
X183950000Y-136047372D03*
X182550000Y-133622500D03*
D17*
X115897484Y-117563211D03*
X116622178Y-114858619D03*
X124686531Y-84684112D03*
X125411225Y-81979520D03*
D10*
X106736397Y-104316024D03*
X117323439Y-109430421D03*
D17*
X120296117Y-101134059D03*
X121020811Y-98429467D03*
D10*
X56474821Y-82863807D03*
X67061863Y-87978204D03*
X39089444Y-78150637D03*
X49676486Y-83265034D03*
X95633076Y-76022641D03*
X106220118Y-81137038D03*
X127584273Y-96071664D03*
X138171315Y-101186061D03*
X111135030Y-87886872D03*
X121722072Y-93001269D03*
X76419438Y-78174250D03*
X87006480Y-83288647D03*
X131995483Y-79613498D03*
X142582525Y-84727895D03*
X115525444Y-71436925D03*
X126112486Y-76551322D03*
X80819814Y-61725174D03*
X91406856Y-66839571D03*
X43490692Y-61691599D03*
X54077734Y-66805996D03*
X60905954Y-66407384D03*
X71492996Y-71521781D03*
X100036067Y-59543680D03*
X110623109Y-64658077D03*
D24*
X167469620Y-73132108D03*
X179195465Y-72267785D03*
X239504373Y-63386782D03*
X251230218Y-62522459D03*
X222089110Y-68102567D03*
X233814955Y-67238244D03*
X202175251Y-63420357D03*
X213901096Y-62556034D03*
X150999582Y-81308681D03*
X162725427Y-80444358D03*
X206575627Y-79869433D03*
X218301472Y-79005110D03*
X155410791Y-97766847D03*
X167136636Y-96902524D03*
X176258667Y-106011207D03*
X187984512Y-105146884D03*
X230890734Y-101010680D03*
X242616579Y-100146357D03*
X243905621Y-79845820D03*
X255631466Y-78981497D03*
X171860034Y-89582055D03*
X183585879Y-88717732D03*
X226520244Y-84558990D03*
X238246089Y-83694667D03*
X248319445Y-96333871D03*
X260045290Y-95469548D03*
X210988579Y-96347523D03*
X222714424Y-95483200D03*
X182958997Y-61238863D03*
X194684842Y-60374540D03*
D18*
X206341539Y-101157798D03*
X205616845Y-98453206D03*
X201927715Y-84669746D03*
X201203021Y-81965154D03*
X197524724Y-68190785D03*
X196800030Y-65486193D03*
D24*
X187361988Y-77717824D03*
X199087833Y-76853501D03*
X191775812Y-94205876D03*
X203501657Y-93341553D03*
X159812911Y-114235847D03*
X171538756Y-113371524D03*
D25*
X206191548Y-117559092D03*
X217948103Y-117720032D03*
D26*
X201623778Y-129466338D03*
X200666122Y-126835198D03*
D27*
X220000000Y-126000000D03*
X219513786Y-123242538D03*
D28*
X143350000Y-116000000D03*
X146150000Y-116000000D03*
D29*
X133110792Y-140890839D03*
X140544472Y-150000334D03*
D30*
X135600097Y-157072462D03*
X137399903Y-154927538D03*
M02*
