G04 #@! TF.GenerationSoftware,KiCad,Pcbnew,(6.0.0)*
G04 #@! TF.CreationDate,2023-08-21T19:05:23+03:00*
G04 #@! TF.ProjectId,choctopus44,63686f63-746f-4707-9573-34342e6b6963,1.0 Prototype*
G04 #@! TF.SameCoordinates,Original*
G04 #@! TF.FileFunction,Soldermask,Top*
G04 #@! TF.FilePolarity,Negative*
%FSLAX46Y46*%
G04 Gerber Fmt 4.6, Leading zero omitted, Abs format (unit mm)*
G04 Created by KiCad (PCBNEW (6.0.0)) date 2023-08-21 19:05:23*
%MOMM*%
%LPD*%
G01*
G04 APERTURE LIST*
G04 Aperture macros list*
%AMHorizOval*
0 Thick line with rounded ends*
0 $1 width*
0 $2 $3 position (X,Y) of the first rounded end (center of the circle)*
0 $4 $5 position (X,Y) of the second rounded end (center of the circle)*
0 Add line between two ends*
20,1,$1,$2,$3,$4,$5,0*
0 Add two circle primitives to create the rounded ends*
1,1,$1,$2,$3*
1,1,$1,$4,$5*%
%AMRotRect*
0 Rectangle, with rotation*
0 The origin of the aperture is its center*
0 $1 length*
0 $2 width*
0 $3 Rotation angle, in degrees counterclockwise*
0 Add horizontal line*
21,1,$1,$2,0,0,$3*%
G04 Aperture macros list end*
%ADD10C,5.000000*%
%ADD11C,1.700000*%
%ADD12C,3.000000*%
%ADD13C,1.701800*%
%ADD14C,3.429000*%
%ADD15C,2.032000*%
%ADD16RotRect,1.600000X1.600000X255.000000*%
%ADD17RotRect,1.600000X1.200000X255.000000*%
%ADD18C,1.600000*%
%ADD19RotRect,1.600000X1.600000X285.000000*%
%ADD20RotRect,1.600000X1.200000X285.000000*%
%ADD21RotRect,1.600000X1.600000X260.000000*%
%ADD22RotRect,1.600000X1.200000X260.000000*%
%ADD23RotRect,1.600000X1.200000X250.000000*%
%ADD24RotRect,1.600000X1.600000X250.000000*%
%ADD25RotRect,1.600000X1.200000X240.000000*%
%ADD26RotRect,1.600000X1.600000X240.000000*%
%ADD27RotRect,1.600000X1.600000X310.000000*%
%ADD28RotRect,1.600000X1.200000X310.000000*%
%ADD29RotRect,1.600000X1.200000X300.000000*%
%ADD30RotRect,1.600000X1.600000X300.000000*%
%ADD31R,4.000000X4.000000*%
%ADD32O,1.600000X2.200000*%
%ADD33C,2.100000*%
%ADD34O,2.600000X2.200000*%
%ADD35R,2.000000X3.500000*%
%ADD36RotRect,1.600000X1.600000X290.000000*%
%ADD37RotRect,1.600000X1.200000X290.000000*%
%ADD38RotRect,1.600000X1.600000X280.000000*%
%ADD39RotRect,1.600000X1.200000X280.000000*%
%ADD40R,1.600000X1.200000*%
%ADD41R,1.600000X1.600000*%
%ADD42RotRect,1.600000X1.600000X230.000000*%
%ADD43RotRect,1.600000X1.200000X230.000000*%
%ADD44C,2.400000*%
%ADD45RotRect,1.350000X1.350000X350.000000*%
%ADD46RotRect,1.350000X1.350000X15.000000*%
%ADD47HorizOval,1.350000X0.000000X0.000000X0.000000X0.000000X0*%
%ADD48RotRect,1.600000X1.600000X105.000000*%
%ADD49RotRect,1.350000X1.350000X80.000000*%
%ADD50RotRect,1.752600X1.752600X350.000000*%
%ADD51C,1.752600*%
G04 APERTURE END LIST*
D10*
X144660000Y-154500000D03*
D11*
X170982324Y-67353518D03*
X169300000Y-61075000D03*
X164953334Y-62239686D03*
X166635658Y-68518204D03*
D12*
X42099255Y-98905452D03*
D13*
X30986462Y-99810074D03*
X41611646Y-102657084D03*
D12*
X37839027Y-95486320D03*
D14*
X36299054Y-101233579D03*
D15*
X34772022Y-106932541D03*
X30485912Y-103610002D03*
D12*
X59527965Y-103582261D03*
D13*
X48415172Y-104486883D03*
D12*
X55267737Y-100163129D03*
D14*
X53727764Y-105910388D03*
D13*
X59040356Y-107333893D03*
D15*
X52200732Y-111609350D03*
X47914622Y-108286811D03*
D13*
X78942511Y-102670736D03*
X68317327Y-99823726D03*
D14*
X73629919Y-101247231D03*
D12*
X75169892Y-95499972D03*
X79430120Y-98919104D03*
D15*
X72102887Y-106946193D03*
X67816777Y-103623654D03*
D13*
X87524735Y-97681610D03*
D12*
X94377300Y-93357856D03*
X98637528Y-96776988D03*
D13*
X98149919Y-100528620D03*
D14*
X92837327Y-99105115D03*
D15*
X91310295Y-104804077D03*
X87024185Y-101481538D03*
D14*
X124805588Y-119135555D03*
D13*
X119492996Y-117712050D03*
D12*
X126345561Y-113388296D03*
X130605789Y-116807428D03*
D13*
X130118180Y-120559060D03*
D15*
X123278556Y-124834517D03*
X118992446Y-121511978D03*
D14*
X78873909Y-122850000D03*
D13*
X73457466Y-121894935D03*
D12*
X79907116Y-116990394D03*
D13*
X84290352Y-123805065D03*
D12*
X84449128Y-120025212D03*
D15*
X77849385Y-128660366D03*
X73290007Y-125724029D03*
D13*
X103020022Y-129828471D03*
X92683404Y-126066249D03*
D12*
X103832752Y-126133613D03*
D14*
X97851713Y-127947360D03*
D12*
X99886733Y-122356189D03*
D15*
X95833794Y-133491546D03*
X91853573Y-129808091D03*
D12*
X121876489Y-135521600D03*
X118646362Y-131116344D03*
D14*
X115671362Y-136269195D03*
D13*
X120434502Y-139019195D03*
X110908222Y-133519195D03*
D15*
X112721362Y-141378745D03*
X109441235Y-137060092D03*
D13*
X168879952Y-139019195D03*
D12*
X176098219Y-130521600D03*
D14*
X173643092Y-136269195D03*
D12*
X170668092Y-131116344D03*
D13*
X178406232Y-133519195D03*
D15*
X176593092Y-141378745D03*
X171212965Y-142060092D03*
D13*
X186300525Y-129828471D03*
X196637143Y-126066249D03*
D12*
X189433814Y-122356189D03*
X194884722Y-122713412D03*
D14*
X191468834Y-127947360D03*
D15*
X193486753Y-133491546D03*
X188070047Y-133228293D03*
D12*
X158945666Y-141467328D03*
X153701311Y-142995969D03*
D13*
X153312653Y-151089265D03*
X161739141Y-144018601D03*
D14*
X157525897Y-147553933D03*
D15*
X161318344Y-152073595D03*
X156138268Y-153678840D03*
D16*
X52004732Y-77353601D03*
D17*
X52651779Y-74938786D03*
X53376473Y-72234194D03*
D18*
X54023520Y-69819379D03*
D16*
X69419994Y-82069386D03*
D17*
X70067041Y-79654571D03*
X70791735Y-76949979D03*
D18*
X71438782Y-74535164D03*
D17*
X89980901Y-74972361D03*
D16*
X89333854Y-77387176D03*
D18*
X91352642Y-69852954D03*
D17*
X90705595Y-72267769D03*
X109197154Y-72790867D03*
D16*
X108550107Y-75205682D03*
D18*
X110568895Y-67671460D03*
D17*
X109921848Y-70086275D03*
X141156570Y-92860685D03*
D16*
X140509523Y-95275500D03*
D18*
X142528311Y-87741278D03*
D17*
X141881264Y-90156093D03*
D16*
X47603484Y-93812639D03*
D17*
X48250531Y-91397824D03*
X48975225Y-88693232D03*
D18*
X49622272Y-86278417D03*
D16*
X64988861Y-98525809D03*
D17*
X65635908Y-96110994D03*
X66360602Y-93406402D03*
D18*
X67007649Y-90991587D03*
D17*
X85580525Y-91421437D03*
D16*
X84933478Y-93836252D03*
D17*
X86305219Y-88716845D03*
D18*
X86952266Y-86302030D03*
D16*
X104147116Y-91684643D03*
D17*
X104794163Y-89269828D03*
X105518857Y-86565236D03*
D18*
X106165904Y-84150421D03*
D17*
X136745360Y-109318851D03*
D16*
X136098313Y-111733666D03*
D18*
X138117101Y-104199444D03*
D17*
X137470054Y-106614259D03*
X43836707Y-107885875D03*
D16*
X43189660Y-110300690D03*
D17*
X44561401Y-105181283D03*
D18*
X45208448Y-102766468D03*
D16*
X60618370Y-114977499D03*
D17*
X61265417Y-112562684D03*
D18*
X62637158Y-107443277D03*
D17*
X61990111Y-109858092D03*
D16*
X80520525Y-110314342D03*
D17*
X81167572Y-107899527D03*
D18*
X82539313Y-102780120D03*
D17*
X81892266Y-105194935D03*
X100374980Y-105757411D03*
D16*
X99727933Y-108172226D03*
D18*
X101746721Y-100638004D03*
D17*
X101099674Y-103052819D03*
D16*
X131696194Y-128202666D03*
D17*
X132343241Y-125787851D03*
X133067935Y-123083259D03*
D18*
X133714982Y-120668444D03*
D19*
X166212356Y-90675418D03*
D20*
X165565309Y-88260603D03*
X164840615Y-85556011D03*
D18*
X164193568Y-83141196D03*
D20*
X182035347Y-80084030D03*
D19*
X182682394Y-82498845D03*
D20*
X181310653Y-77379438D03*
D18*
X180663606Y-74964623D03*
D20*
X216740978Y-70372279D03*
D19*
X217388025Y-72787094D03*
D20*
X216016284Y-67667687D03*
D18*
X215369237Y-65252872D03*
D20*
X236654837Y-75054489D03*
D19*
X237301884Y-77469304D03*
D20*
X235930143Y-72349897D03*
D18*
X235283096Y-69935082D03*
D19*
X254717147Y-72753519D03*
D20*
X254070100Y-70338704D03*
D18*
X252698359Y-65219297D03*
D20*
X253345406Y-67634112D03*
D19*
X170623565Y-107133584D03*
D20*
X169976518Y-104718769D03*
X169251824Y-102014177D03*
D18*
X168604777Y-99599362D03*
D19*
X187072808Y-98948792D03*
D20*
X186425761Y-96533977D03*
D18*
X185054020Y-91414570D03*
D20*
X185701067Y-93829385D03*
D19*
X221788401Y-89236170D03*
D20*
X221141354Y-86821355D03*
D18*
X219769613Y-81701948D03*
D20*
X220416660Y-84116763D03*
D19*
X241733018Y-93925727D03*
D20*
X241085971Y-91510912D03*
X240361277Y-88806320D03*
D18*
X239714230Y-86391505D03*
D20*
X258471348Y-86797742D03*
D19*
X259118395Y-89212557D03*
D20*
X257746654Y-84093150D03*
D18*
X257099607Y-81678335D03*
D20*
X174382347Y-121192296D03*
D19*
X175029394Y-123607111D03*
D20*
X173657653Y-118487704D03*
D18*
X173010606Y-116072889D03*
D20*
X190824394Y-112963129D03*
D19*
X191471441Y-115377944D03*
D18*
X189452653Y-107843722D03*
D20*
X190099700Y-110258537D03*
X225554306Y-103299445D03*
D19*
X226201353Y-105714260D03*
D20*
X224829612Y-100594853D03*
D18*
X224182565Y-98180038D03*
D19*
X246103508Y-110377417D03*
D20*
X245456461Y-107962602D03*
X244731767Y-105258010D03*
D18*
X244084720Y-102843195D03*
D20*
X262885172Y-103285793D03*
D19*
X263532219Y-105700608D03*
D18*
X261513431Y-98166386D03*
D20*
X262160478Y-100581201D03*
D21*
X86322772Y-131840750D03*
D22*
X86756893Y-129378731D03*
X87243107Y-126621269D03*
D18*
X87677228Y-124159250D03*
D23*
X104521172Y-135664802D03*
D24*
X103666121Y-138014033D03*
D23*
X105478828Y-133033662D03*
D18*
X106333879Y-130684431D03*
D25*
X121000000Y-145000000D03*
D26*
X119750000Y-147165063D03*
D25*
X122400000Y-142575128D03*
D18*
X123650000Y-140410065D03*
D27*
X169000000Y-147500000D03*
D28*
X167393031Y-145584889D03*
X165593225Y-143439965D03*
D18*
X163986256Y-141524854D03*
D29*
X183950000Y-136047372D03*
D30*
X185200000Y-138212435D03*
D18*
X181300000Y-131457437D03*
D29*
X182550000Y-133622500D03*
D17*
X115897484Y-117563211D03*
D16*
X115250437Y-119978026D03*
D18*
X117269225Y-112443804D03*
D17*
X116622178Y-114858619D03*
X124686531Y-84684112D03*
D16*
X124039484Y-87098927D03*
D17*
X125411225Y-81979520D03*
D18*
X126058272Y-79564705D03*
D12*
X109899804Y-105163656D03*
D14*
X108359831Y-110910915D03*
D13*
X103047239Y-109487410D03*
D12*
X114160032Y-108582788D03*
D13*
X113672423Y-112334420D03*
D15*
X106832799Y-116609877D03*
X102546689Y-113287338D03*
D17*
X120296117Y-101134059D03*
D16*
X119649070Y-103548874D03*
D18*
X121667858Y-96014652D03*
D17*
X121020811Y-98429467D03*
D14*
X58098255Y-89458698D03*
D12*
X63898456Y-87130571D03*
D13*
X63410847Y-90882203D03*
X52785663Y-88035193D03*
D12*
X59638228Y-83711439D03*
D15*
X56571223Y-95157660D03*
X52285113Y-91835121D03*
D12*
X42252851Y-78998269D03*
X46513079Y-82417401D03*
D13*
X35400286Y-83322023D03*
X46025470Y-86169033D03*
D14*
X40712878Y-84745528D03*
D15*
X39185846Y-90444490D03*
X34899736Y-87121951D03*
D13*
X91943918Y-81194027D03*
D14*
X97256510Y-82617532D03*
D12*
X98796483Y-76870273D03*
X103056711Y-80289405D03*
D13*
X102569102Y-84041037D03*
D15*
X95729478Y-88316494D03*
X91443368Y-84993955D03*
D13*
X123895115Y-101243050D03*
D12*
X135007908Y-100338428D03*
D13*
X134520299Y-104090060D03*
D14*
X129207707Y-102666555D03*
D12*
X130747680Y-96919296D03*
D15*
X127680675Y-108365517D03*
X123394565Y-105042978D03*
D12*
X118558665Y-92153636D03*
D13*
X118071056Y-95905268D03*
D14*
X112758464Y-94481763D03*
D13*
X107445872Y-93058258D03*
D12*
X114298437Y-88734504D03*
D15*
X111231432Y-100180725D03*
X106945322Y-96858186D03*
D13*
X72730280Y-83345636D03*
D14*
X78042872Y-84769141D03*
D12*
X83843073Y-82441014D03*
X79582845Y-79021882D03*
D13*
X83355464Y-86192646D03*
D15*
X76515840Y-90468103D03*
X72229730Y-87145564D03*
D13*
X128306325Y-84784884D03*
D12*
X135158890Y-80461130D03*
X139419118Y-83880262D03*
D14*
X133618917Y-86208389D03*
D13*
X138931509Y-87631894D03*
D15*
X132091885Y-91907351D03*
X127805775Y-88584812D03*
D13*
X111836286Y-76608311D03*
X122461470Y-79455321D03*
D12*
X118688851Y-72284557D03*
D14*
X117148878Y-78031816D03*
D12*
X122949079Y-75703689D03*
D15*
X115621846Y-83730778D03*
X111335736Y-80408239D03*
D13*
X77130656Y-66896560D03*
D14*
X82443248Y-68320065D03*
D12*
X88243449Y-65991938D03*
D13*
X87755840Y-69743570D03*
D12*
X83983221Y-62572806D03*
D15*
X80916216Y-74019027D03*
X76630106Y-70696488D03*
D12*
X50914327Y-65958363D03*
X46654099Y-62539231D03*
D13*
X50426718Y-69709995D03*
X39801534Y-66862985D03*
D14*
X45114126Y-68286490D03*
D15*
X43587094Y-73985452D03*
X39300984Y-70662913D03*
D12*
X68329589Y-70674148D03*
X64069361Y-67255016D03*
D13*
X57216796Y-71578770D03*
X67841980Y-74425780D03*
D14*
X62529388Y-73002275D03*
D15*
X61002356Y-78701237D03*
X56716246Y-75378698D03*
D12*
X107459702Y-63810444D03*
X103199474Y-60391312D03*
D13*
X96346909Y-64715066D03*
D14*
X101659501Y-66138571D03*
D13*
X106972093Y-67562076D03*
D15*
X100132469Y-71837533D03*
X95846359Y-68514994D03*
D13*
X177485592Y-76608229D03*
D14*
X172173000Y-78031734D03*
D12*
X176032058Y-73115417D03*
X170633027Y-72284475D03*
D13*
X166860408Y-79455239D03*
D15*
X173700032Y-83730696D03*
X168326883Y-82996347D03*
D13*
X238895161Y-69709913D03*
D14*
X244207753Y-68286408D03*
D13*
X249520345Y-66862903D03*
D12*
X248066811Y-63370091D03*
X242667780Y-62539149D03*
D15*
X245734785Y-73985370D03*
X240361636Y-73251021D03*
D12*
X225252517Y-67254934D03*
D14*
X226792490Y-73002193D03*
D13*
X232105082Y-71578688D03*
D12*
X230651548Y-68085876D03*
D13*
X221479898Y-74425698D03*
D15*
X228319522Y-78701155D03*
X222946373Y-77966806D03*
D12*
X205338658Y-62572724D03*
D14*
X206878631Y-68319983D03*
D12*
X210737689Y-63403666D03*
D13*
X212191223Y-66896478D03*
X201566039Y-69743488D03*
D15*
X208405663Y-74018945D03*
X203032514Y-73284596D03*
D12*
X159562020Y-81291990D03*
D13*
X150390370Y-87631812D03*
D12*
X154162989Y-80461048D03*
D14*
X155702962Y-86208307D03*
D13*
X161015554Y-84784802D03*
D15*
X157229994Y-91907269D03*
X151856845Y-91172920D03*
D12*
X209739034Y-79021800D03*
D13*
X205966415Y-86192564D03*
X216591599Y-83345554D03*
D14*
X211279007Y-84769059D03*
D12*
X215138065Y-79852742D03*
D15*
X212806039Y-90468021D03*
X207432890Y-89733672D03*
D12*
X158574198Y-96919214D03*
D13*
X154801579Y-104089978D03*
D12*
X163973229Y-97750156D03*
D13*
X165426763Y-101242968D03*
D14*
X160114171Y-102666473D03*
D15*
X161641203Y-108365435D03*
X156268054Y-107631086D03*
D12*
X179422074Y-105163574D03*
D13*
X175649455Y-112334338D03*
D12*
X184821105Y-105994516D03*
D14*
X180962047Y-110910833D03*
D13*
X186274639Y-109487328D03*
D15*
X182489079Y-116609795D03*
X177115930Y-115875446D03*
D12*
X239453172Y-100993989D03*
X234054141Y-100163047D03*
D14*
X235594114Y-105910306D03*
D13*
X230281522Y-107333811D03*
X240906706Y-104486801D03*
D15*
X237121146Y-111609268D03*
X231747997Y-110874919D03*
D13*
X243296409Y-86168951D03*
X253921593Y-83321941D03*
D12*
X247069028Y-78998187D03*
X252468059Y-79829129D03*
D14*
X248609001Y-84745446D03*
D15*
X250136033Y-90444408D03*
X244762884Y-89710059D03*
D12*
X180422472Y-89565364D03*
D13*
X171250822Y-95905186D03*
D12*
X175023441Y-88734422D03*
D14*
X176563414Y-94481681D03*
D13*
X181876006Y-93058176D03*
D15*
X178090446Y-100180643D03*
X172717297Y-99446294D03*
D13*
X225911032Y-90882121D03*
X236536216Y-88035111D03*
D12*
X229683651Y-83711357D03*
D14*
X231223624Y-89458616D03*
D12*
X235082682Y-84542299D03*
D15*
X232750656Y-95157578D03*
X227377507Y-94423229D03*
D13*
X258335417Y-99809992D03*
X247710233Y-102657002D03*
D12*
X251482852Y-95486238D03*
X256881883Y-96317180D03*
D14*
X253022825Y-101233497D03*
D15*
X254549857Y-106932459D03*
X249176708Y-106198110D03*
D13*
X210379367Y-102670654D03*
X221004551Y-99823644D03*
D12*
X214151986Y-95499890D03*
X219551017Y-96330832D03*
D14*
X215691959Y-101247149D03*
D15*
X217218991Y-106946111D03*
X211845842Y-106211762D03*
D10*
X144660000Y-109680000D03*
D14*
X187662377Y-66138489D03*
D12*
X186122404Y-60391230D03*
D13*
X182349785Y-67561994D03*
D12*
X191521435Y-61222172D03*
D13*
X192974969Y-64714984D03*
D15*
X189189409Y-71837451D03*
X183816260Y-71103102D03*
D19*
X206988586Y-103572613D03*
D20*
X206341539Y-101157798D03*
D18*
X204969798Y-96038391D03*
D20*
X205616845Y-98453206D03*
X201927715Y-84669746D03*
D19*
X202574762Y-87084561D03*
D18*
X200555974Y-79550339D03*
D20*
X201203021Y-81965154D03*
D19*
X198171771Y-70605600D03*
D20*
X197524724Y-68190785D03*
X196800030Y-65486193D03*
D18*
X196152983Y-63071378D03*
D13*
X186752776Y-84040955D03*
D14*
X192065368Y-82617450D03*
D12*
X195924426Y-77701133D03*
D13*
X197377960Y-81193945D03*
D12*
X190525395Y-76870191D03*
D15*
X193592400Y-88316412D03*
X188219251Y-87582063D03*
D13*
X191166600Y-100529007D03*
X201791784Y-97681997D03*
D12*
X200338250Y-94189185D03*
D14*
X196479192Y-99105502D03*
D12*
X194939219Y-93358243D03*
D15*
X198006224Y-104804464D03*
X192633075Y-104070115D03*
D12*
X162976318Y-113388214D03*
D14*
X164516291Y-119135473D03*
D13*
X159203699Y-120558978D03*
D12*
X168375349Y-114219156D03*
D13*
X169828883Y-117711968D03*
D15*
X166043323Y-124834435D03*
X160670174Y-124100086D03*
D13*
X205033557Y-123805065D03*
X215866443Y-121894935D03*
D14*
X210450000Y-122850000D03*
D12*
X214722858Y-118288730D03*
X209416793Y-116990394D03*
D15*
X211474524Y-128660366D03*
X206185824Y-127460510D03*
D31*
X138860000Y-138000000D03*
D32*
X144660000Y-134000000D03*
D31*
X150460000Y-121400000D03*
X138860000Y-121400000D03*
X150460000Y-138000000D03*
D33*
X144660000Y-129500000D03*
D34*
X144660000Y-125000000D03*
D35*
X142160000Y-137500000D03*
X147160000Y-137500000D03*
X144660000Y-137500000D03*
D31*
X138160000Y-129500000D03*
X151160000Y-129500000D03*
D35*
X147160000Y-122000000D03*
X142160000Y-122000000D03*
D36*
X202478829Y-131815569D03*
D37*
X201623778Y-129466338D03*
X200666122Y-126835198D03*
D18*
X199811071Y-124485967D03*
D38*
X220434121Y-128462019D03*
D39*
X220000000Y-126000000D03*
X219513786Y-123242538D03*
D18*
X219079665Y-120780519D03*
D40*
X143350000Y-116000000D03*
D41*
X140850000Y-116000000D03*
D18*
X148650000Y-116000000D03*
D40*
X146150000Y-116000000D03*
D14*
X131795001Y-147553933D03*
D13*
X136008245Y-151089265D03*
D12*
X135619587Y-142995969D03*
X138035677Y-147895204D03*
D13*
X127581757Y-144018601D03*
D15*
X128002554Y-152073595D03*
X125522186Y-147250964D03*
D42*
X133993128Y-158987573D03*
D43*
X135600097Y-157072462D03*
D18*
X139006872Y-153012427D03*
D43*
X137399903Y-154927538D03*
D10*
X89570000Y-111250000D03*
D44*
X133000000Y-72000000D03*
X165250000Y-59000000D03*
X149750000Y-75250000D03*
D45*
X128500000Y-66500000D03*
D10*
X219710000Y-63810000D03*
X69610000Y-63810000D03*
D46*
X163190000Y-66020000D03*
D47*
X163707638Y-67951852D03*
D18*
X174846867Y-59867150D03*
X175493915Y-62281964D03*
X171755905Y-60695371D03*
X172402952Y-63110184D03*
D48*
X173050000Y-65525000D03*
D18*
X176140963Y-64696779D03*
D49*
X131200000Y-51300000D03*
D10*
X199750000Y-111250000D03*
D50*
X133565435Y-51769900D03*
D51*
X136066846Y-52210966D03*
X138568258Y-52652033D03*
X141069670Y-53093099D03*
X143571082Y-53534165D03*
X146072493Y-53975232D03*
X148573905Y-54416298D03*
X151075317Y-54857364D03*
X153576728Y-55298431D03*
X156078140Y-55739497D03*
X158579552Y-56180564D03*
X161080963Y-56621630D03*
X158434565Y-71630100D03*
X155933154Y-71189034D03*
X153431742Y-70747967D03*
X150930330Y-70306901D03*
X148428918Y-69865835D03*
X145927507Y-69424768D03*
X143426095Y-68983702D03*
X140924683Y-68542636D03*
X138423272Y-68101569D03*
X135921860Y-67660503D03*
X133420448Y-67219436D03*
X130919037Y-66778370D03*
M02*
